# generated by generate_route66.py
mtllib route66.mtl
o apron
v -10.3000 0.0800 -48.0000
v -10.3000 0.0800 48.0000
v -36.0000 0.0800 48.0000
v -36.0000 0.0800 -48.0000
v -3.7000 0.0800 -47.0000
v -3.7000 0.0800 -33.0000
v -10.3000 0.0800 -33.0000
v -10.3000 0.0800 -47.0000
v -3.7000 0.0800 33.0000
v -3.7000 0.0800 47.0000
v -10.3000 0.0800 47.0000
v -10.3000 0.0800 33.0000
vt -3.2125 0.0000
vt -3.2125 12.0000
vt 0.0000 12.0000
vt 0.0000 0.0000
vt -0.8250 0.0000
vt -0.8250 1.7500
vt 0.0000 1.7500
vt 0.0000 0.0000
vt -0.8250 0.0000
vt -0.8250 1.7500
vt 0.0000 1.7500
vt 0.0000 0.0000
vn 0.0000 1.0000 0.0000
vn 0.0000 1.0000 0.0000
vn 0.0000 1.0000 0.0000
vn 0.0000 1.0000 0.0000
vn 0.0000 1.0000 0.0000
vn 0.0000 1.0000 0.0000
vn 0.0000 1.0000 0.0000
vn 0.0000 1.0000 0.0000
vn 0.0000 1.0000 0.0000
vn 0.0000 1.0000 0.0000
vn 0.0000 1.0000 0.0000
vn 0.0000 1.0000 0.0000
usemtl concrete
s 1
f 1/1/1 3/3/3 2/2/2
f 1/1/1 4/4/4 3/3/3
f 5/5/5 7/7/7 6/6/6
f 5/5/5 8/8/8 7/7/7
f 9/9/9 11/11/11 10/10/10
f 9/9/9 12/12/12 11/11/11
