# generated by generate_route66.py
mtllib route66.mtl
o pole
v 0.1100 9.0000 0.0000
v 0.0778 9.0000 0.0778
v 0.0990 0.0000 0.0990
v 0.1400 0.0000 0.0000
v 0.0778 9.0000 0.0778
v 0.0000 9.0000 0.1100
v 0.0000 0.0000 0.1400
v 0.0990 0.0000 0.0990
v 0.0000 9.0000 0.1100
v -0.0778 9.0000 0.0778
v -0.0990 0.0000 0.0990
v 0.0000 0.0000 0.1400
v -0.0778 9.0000 0.0778
v -0.1100 9.0000 0.0000
v -0.1400 0.0000 0.0000
v -0.0990 0.0000 0.0990
v -0.1100 9.0000 0.0000
v -0.0778 9.0000 -0.0778
v -0.0990 0.0000 -0.0990
v -0.1400 0.0000 0.0000
v -0.0778 9.0000 -0.0778
v -0.0000 9.0000 -0.1100
v -0.0000 0.0000 -0.1400
v -0.0990 0.0000 -0.0990
v -0.0000 9.0000 -0.1100
v 0.0778 9.0000 -0.0778
v 0.0990 0.0000 -0.0990
v -0.0000 0.0000 -0.1400
v 0.0778 9.0000 -0.0778
v 0.1100 9.0000 -0.0000
v 0.1400 0.0000 -0.0000
v 0.0990 0.0000 -0.0990
v 0.0000 9.0000 0.0000
v 0.1100 9.0000 0.0000
v 0.0778 9.0000 0.0778
v 0.0000 9.0000 0.1100
v -0.0778 9.0000 0.0778
v -0.1100 9.0000 0.0000
v -0.0778 9.0000 -0.0778
v -0.0000 9.0000 -0.1100
v 0.0778 9.0000 -0.0778
v 0.0600 8.4400 -1.1000
v 0.0600 8.4400 1.1000
v 0.0600 8.3000 1.1000
v 0.0600 8.3000 -1.1000
v -0.0600 8.4400 1.1000
v -0.0600 8.4400 -1.1000
v -0.0600 8.3000 -1.1000
v -0.0600 8.3000 1.1000
v 0.0600 8.4400 1.1000
v -0.0600 8.4400 1.1000
v -0.0600 8.3000 1.1000
v 0.0600 8.3000 1.1000
v -0.0600 8.4400 -1.1000
v 0.0600 8.4400 -1.1000
v 0.0600 8.3000 -1.1000
v -0.0600 8.3000 -1.1000
v -0.0600 8.4400 1.1000
v 0.0600 8.4400 1.1000
v 0.0600 8.4400 -1.1000
v -0.0600 8.4400 -1.1000
v -0.0600 8.3000 -1.1000
v 0.0600 8.3000 -1.1000
v 0.0600 8.3000 1.1000
v -0.0600 8.3000 1.1000
v 0.0600 7.2200 -0.7500
v 0.0600 7.2200 0.7500
v 0.0600 7.1000 0.7500
v 0.0600 7.1000 -0.7500
v -0.0600 7.2200 0.7500
v -0.0600 7.2200 -0.7500
v -0.0600 7.1000 -0.7500
v -0.0600 7.1000 0.7500
v 0.0600 7.2200 0.7500
v -0.0600 7.2200 0.7500
v -0.0600 7.1000 0.7500
v 0.0600 7.1000 0.7500
v -0.0600 7.2200 -0.7500
v 0.0600 7.2200 -0.7500
v 0.0600 7.1000 -0.7500
v -0.0600 7.1000 -0.7500
v -0.0600 7.2200 0.7500
v 0.0600 7.2200 0.7500
v 0.0600 7.2200 -0.7500
v -0.0600 7.2200 -0.7500
v -0.0600 7.1000 -0.7500
v 0.0600 7.1000 -0.7500
v 0.0600 7.1000 0.7500
v -0.0600 7.1000 0.7500
v 0.0450 8.5800 -0.9500
v 0.0225 8.5800 -0.9110
v 0.0225 8.4400 -0.9110
v 0.0450 8.4400 -0.9500
v 0.0225 8.5800 -0.9110
v -0.0225 8.5800 -0.9110
v -0.0225 8.4400 -0.9110
v 0.0225 8.4400 -0.9110
v -0.0225 8.5800 -0.9110
v -0.0450 8.5800 -0.9500
v -0.0450 8.4400 -0.9500
v -0.0225 8.4400 -0.9110
v -0.0450 8.5800 -0.9500
v -0.0225 8.5800 -0.9890
v -0.0225 8.4400 -0.9890
v -0.0450 8.4400 -0.9500
v -0.0225 8.5800 -0.9890
v 0.0225 8.5800 -0.9890
v 0.0225 8.4400 -0.9890
v -0.0225 8.4400 -0.9890
v 0.0225 8.5800 -0.9890
v 0.0450 8.5800 -0.9500
v 0.0450 8.4400 -0.9500
v 0.0225 8.4400 -0.9890
v 0.0000 8.5800 -0.9500
v 0.0450 8.5800 -0.9500
v 0.0225 8.5800 -0.9110
v -0.0225 8.5800 -0.9110
v -0.0450 8.5800 -0.9500
v -0.0225 8.5800 -0.9890
v 0.0225 8.5800 -0.9890
v 0.0450 8.5800 -0.4000
v 0.0225 8.5800 -0.3610
v 0.0225 8.4400 -0.3610
v 0.0450 8.4400 -0.4000
v 0.0225 8.5800 -0.3610
v -0.0225 8.5800 -0.3610
v -0.0225 8.4400 -0.3610
v 0.0225 8.4400 -0.3610
v -0.0225 8.5800 -0.3610
v -0.0450 8.5800 -0.4000
v -0.0450 8.4400 -0.4000
v -0.0225 8.4400 -0.3610
v -0.0450 8.5800 -0.4000
v -0.0225 8.5800 -0.4390
v -0.0225 8.4400 -0.4390
v -0.0450 8.4400 -0.4000
v -0.0225 8.5800 -0.4390
v 0.0225 8.5800 -0.4390
v 0.0225 8.4400 -0.4390
v -0.0225 8.4400 -0.4390
v 0.0225 8.5800 -0.4390
v 0.0450 8.5800 -0.4000
v 0.0450 8.4400 -0.4000
v 0.0225 8.4400 -0.4390
v 0.0000 8.5800 -0.4000
v 0.0450 8.5800 -0.4000
v 0.0225 8.5800 -0.3610
v -0.0225 8.5800 -0.3610
v -0.0450 8.5800 -0.4000
v -0.0225 8.5800 -0.4390
v 0.0225 8.5800 -0.4390
v 0.0450 8.5800 0.4000
v 0.0225 8.5800 0.4390
v 0.0225 8.4400 0.4390
v 0.0450 8.4400 0.4000
v 0.0225 8.5800 0.4390
v -0.0225 8.5800 0.4390
v -0.0225 8.4400 0.4390
v 0.0225 8.4400 0.4390
v -0.0225 8.5800 0.4390
v -0.0450 8.5800 0.4000
v -0.0450 8.4400 0.4000
v -0.0225 8.4400 0.4390
v -0.0450 8.5800 0.4000
v -0.0225 8.5800 0.3610
v -0.0225 8.4400 0.3610
v -0.0450 8.4400 0.4000
v -0.0225 8.5800 0.3610
v 0.0225 8.5800 0.3610
v 0.0225 8.4400 0.3610
v -0.0225 8.4400 0.3610
v 0.0225 8.5800 0.3610
v 0.0450 8.5800 0.4000
v 0.0450 8.4400 0.4000
v 0.0225 8.4400 0.3610
v 0.0000 8.5800 0.4000
v 0.0450 8.5800 0.4000
v 0.0225 8.5800 0.4390
v -0.0225 8.5800 0.4390
v -0.0450 8.5800 0.4000
v -0.0225 8.5800 0.3610
v 0.0225 8.5800 0.3610
v 0.0450 8.5800 0.9500
v 0.0225 8.5800 0.9890
v 0.0225 8.4400 0.9890
v 0.0450 8.4400 0.9500
v 0.0225 8.5800 0.9890
v -0.0225 8.5800 0.9890
v -0.0225 8.4400 0.9890
v 0.0225 8.4400 0.9890
v -0.0225 8.5800 0.9890
v -0.0450 8.5800 0.9500
v -0.0450 8.4400 0.9500
v -0.0225 8.4400 0.9890
v -0.0450 8.5800 0.9500
v -0.0225 8.5800 0.9110
v -0.0225 8.4400 0.9110
v -0.0450 8.4400 0.9500
v -0.0225 8.5800 0.9110
v 0.0225 8.5800 0.9110
v 0.0225 8.4400 0.9110
v -0.0225 8.4400 0.9110
v 0.0225 8.5800 0.9110
v 0.0450 8.5800 0.9500
v 0.0450 8.4400 0.9500
v 0.0225 8.4400 0.9110
v 0.0000 8.5800 0.9500
v 0.0450 8.5800 0.9500
v 0.0225 8.5800 0.9890
v -0.0225 8.5800 0.9890
v -0.0450 8.5800 0.9500
v -0.0225 8.5800 0.9110
v 0.0225 8.5800 0.9110
vt 0.0000 0.0000
vt 0.0000 1.0000
vt 1.0000 1.0000
vt 1.0000 0.0000
vt 0.0000 0.0000
vt 0.0000 1.0000
vt 1.0000 1.0000
vt 1.0000 0.0000
vt 0.0000 0.0000
vt 0.0000 1.0000
vt 1.0000 1.0000
vt 1.0000 0.0000
vt 0.0000 0.0000
vt 0.0000 1.0000
vt 1.0000 1.0000
vt 1.0000 0.0000
vt 0.0000 0.0000
vt 0.0000 1.0000
vt 1.0000 1.0000
vt 1.0000 0.0000
vt 0.0000 0.0000
vt 0.0000 1.0000
vt 1.0000 1.0000
vt 1.0000 0.0000
vt 0.0000 0.0000
vt 0.0000 1.0000
vt 1.0000 1.0000
vt 1.0000 0.0000
vt 0.0000 0.0000
vt 0.0000 1.0000
vt 1.0000 1.0000
vt 1.0000 0.0000
vt 0.5000 0.5000
vt 0.5000 0.5000
vt 0.5000 0.5000
vt 0.5000 0.5000
vt 0.5000 0.5000
vt 0.5000 0.5000
vt 0.5000 0.5000
vt 0.5000 0.5000
vt 0.5000 0.5000
vt 0.0000 1.0000
vt 1.0000 1.0000
vt 1.0000 0.0000
vt 0.0000 0.0000
vt 0.0000 1.0000
vt 1.0000 1.0000
vt 1.0000 0.0000
vt 0.0000 0.0000
vt 0.0000 1.0000
vt 1.0000 1.0000
vt 1.0000 0.0000
vt 0.0000 0.0000
vt 0.0000 1.0000
vt 1.0000 1.0000
vt 1.0000 0.0000
vt 0.0000 0.0000
vt 0.0000 1.0000
vt 1.0000 1.0000
vt 1.0000 0.0000
vt 0.0000 0.0000
vt 0.0000 1.0000
vt 1.0000 1.0000
vt 1.0000 0.0000
vt 0.0000 0.0000
vt 0.0000 1.0000
vt 1.0000 1.0000
vt 1.0000 0.0000
vt 0.0000 0.0000
vt 0.0000 1.0000
vt 1.0000 1.0000
vt 1.0000 0.0000
vt 0.0000 0.0000
vt 0.0000 1.0000
vt 1.0000 1.0000
vt 1.0000 0.0000
vt 0.0000 0.0000
vt 0.0000 1.0000
vt 1.0000 1.0000
vt 1.0000 0.0000
vt 0.0000 0.0000
vt 0.0000 1.0000
vt 1.0000 1.0000
vt 1.0000 0.0000
vt 0.0000 0.0000
vt 0.0000 1.0000
vt 1.0000 1.0000
vt 1.0000 0.0000
vt 0.0000 0.0000
vt 0.0000 0.0000
vt 0.0000 1.0000
vt 1.0000 1.0000
vt 1.0000 0.0000
vt 0.0000 0.0000
vt 0.0000 1.0000
vt 1.0000 1.0000
vt 1.0000 0.0000
vt 0.0000 0.0000
vt 0.0000 1.0000
vt 1.0000 1.0000
vt 1.0000 0.0000
vt 0.0000 0.0000
vt 0.0000 1.0000
vt 1.0000 1.0000
vt 1.0000 0.0000
vt 0.0000 0.0000
vt 0.0000 1.0000
vt 1.0000 1.0000
vt 1.0000 0.0000
vt 0.0000 0.0000
vt 0.0000 1.0000
vt 1.0000 1.0000
vt 1.0000 0.0000
vt 0.5000 0.5000
vt 0.5000 0.5000
vt 0.5000 0.5000
vt 0.5000 0.5000
vt 0.5000 0.5000
vt 0.5000 0.5000
vt 0.5000 0.5000
vt 0.0000 0.0000
vt 0.0000 1.0000
vt 1.0000 1.0000
vt 1.0000 0.0000
vt 0.0000 0.0000
vt 0.0000 1.0000
vt 1.0000 1.0000
vt 1.0000 0.0000
vt 0.0000 0.0000
vt 0.0000 1.0000
vt 1.0000 1.0000
vt 1.0000 0.0000
vt 0.0000 0.0000
vt 0.0000 1.0000
vt 1.0000 1.0000
vt 1.0000 0.0000
vt 0.0000 0.0000
vt 0.0000 1.0000
vt 1.0000 1.0000
vt 1.0000 0.0000
vt 0.0000 0.0000
vt 0.0000 1.0000
vt 1.0000 1.0000
vt 1.0000 0.0000
vt 0.5000 0.5000
vt 0.5000 0.5000
vt 0.5000 0.5000
vt 0.5000 0.5000
vt 0.5000 0.5000
vt 0.5000 0.5000
vt 0.5000 0.5000
vt 0.0000 0.0000
vt 0.0000 1.0000
vt 1.0000 1.0000
vt 1.0000 0.0000
vt 0.0000 0.0000
vt 0.0000 1.0000
vt 1.0000 1.0000
vt 1.0000 0.0000
vt 0.0000 0.0000
vt 0.0000 1.0000
vt 1.0000 1.0000
vt 1.0000 0.0000
vt 0.0000 0.0000
vt 0.0000 1.0000
vt 1.0000 1.0000
vt 1.0000 0.0000
vt 0.0000 0.0000
vt 0.0000 1.0000
vt 1.0000 1.0000
vt 1.0000 0.0000
vt 0.0000 0.0000
vt 0.0000 1.0000
vt 1.0000 1.0000
vt 1.0000 0.0000
vt 0.5000 0.5000
vt 0.5000 0.5000
vt 0.5000 0.5000
vt 0.5000 0.5000
vt 0.5000 0.5000
vt 0.5000 0.5000
vt 0.5000 0.5000
vt 0.0000 0.0000
vt 0.0000 1.0000
vt 1.0000 1.0000
vt 1.0000 0.0000
vt 0.0000 0.0000
vt 0.0000 1.0000
vt 1.0000 1.0000
vt 1.0000 0.0000
vt 0.0000 0.0000
vt 0.0000 1.0000
vt 1.0000 1.0000
vt 1.0000 0.0000
vt 0.0000 0.0000
vt 0.0000 1.0000
vt 1.0000 1.0000
vt 1.0000 0.0000
vt 0.0000 0.0000
vt 0.0000 1.0000
vt 1.0000 1.0000
vt 1.0000 0.0000
vt 0.0000 0.0000
vt 0.0000 1.0000
vt 1.0000 1.0000
vt 1.0000 0.0000
vt 0.5000 0.5000
vt 0.5000 0.5000
vt 0.5000 0.5000
vt 0.5000 0.5000
vt 0.5000 0.5000
vt 0.5000 0.5000
vt 0.5000 0.5000
vn 0.9239 0.0031 0.3827
vn 0.9239 0.0031 0.3827
vn 0.9239 0.0031 0.3827
vn 0.9239 0.0031 0.3827
vn 0.3827 0.0031 0.9239
vn 0.3827 0.0031 0.9239
vn 0.3827 0.0031 0.9239
vn 0.3827 0.0031 0.9239
vn -0.3827 0.0031 0.9239
vn -0.3827 0.0031 0.9239
vn -0.3827 0.0031 0.9239
vn -0.3827 0.0031 0.9239
vn -0.9239 0.0031 0.3827
vn -0.9239 0.0031 0.3827
vn -0.9239 0.0031 0.3827
vn -0.9239 0.0031 0.3827
vn -0.9239 0.0031 -0.3827
vn -0.9239 0.0031 -0.3827
vn -0.9239 0.0031 -0.3827
vn -0.9239 0.0031 -0.3827
vn -0.3827 0.0031 -0.9239
vn -0.3827 0.0031 -0.9239
vn -0.3827 0.0031 -0.9239
vn -0.3827 0.0031 -0.9239
vn 0.3827 0.0031 -0.9239
vn 0.3827 0.0031 -0.9239
vn 0.3827 0.0031 -0.9239
vn 0.3827 0.0031 -0.9239
vn 0.9239 0.0031 -0.3827
vn 0.9239 0.0031 -0.3827
vn 0.9239 0.0031 -0.3827
vn 0.9239 0.0031 -0.3827
vn 0.0000 1.0000 0.0000
vn 0.0000 1.0000 0.0000
vn 0.0000 1.0000 0.0000
vn 0.0000 1.0000 0.0000
vn 0.0000 1.0000 0.0000
vn 0.0000 1.0000 0.0000
vn 0.0000 1.0000 0.0000
vn 0.0000 1.0000 0.0000
vn 0.0000 1.0000 0.0000
vn 1.0000 -0.0000 -0.0000
vn 1.0000 -0.0000 -0.0000
vn 1.0000 -0.0000 -0.0000
vn 1.0000 -0.0000 -0.0000
vn -1.0000 -0.0000 -0.0000
vn -1.0000 -0.0000 -0.0000
vn -1.0000 -0.0000 -0.0000
vn -1.0000 -0.0000 -0.0000
vn -0.0000 -0.0000 1.0000
vn -0.0000 -0.0000 1.0000
vn -0.0000 -0.0000 1.0000
vn -0.0000 -0.0000 1.0000
vn -0.0000 -0.0000 -1.0000
vn -0.0000 -0.0000 -1.0000
vn -0.0000 -0.0000 -1.0000
vn -0.0000 -0.0000 -1.0000
vn -0.0000 1.0000 -0.0000
vn -0.0000 1.0000 -0.0000
vn -0.0000 1.0000 -0.0000
vn -0.0000 1.0000 -0.0000
vn 0.0000 -1.0000 -0.0000
vn 0.0000 -1.0000 -0.0000
vn 0.0000 -1.0000 -0.0000
vn 0.0000 -1.0000 -0.0000
vn 1.0000 -0.0000 -0.0000
vn 1.0000 -0.0000 -0.0000
vn 1.0000 -0.0000 -0.0000
vn 1.0000 -0.0000 -0.0000
vn -1.0000 -0.0000 -0.0000
vn -1.0000 -0.0000 -0.0000
vn -1.0000 -0.0000 -0.0000
vn -1.0000 -0.0000 -0.0000
vn -0.0000 -0.0000 1.0000
vn -0.0000 -0.0000 1.0000
vn -0.0000 -0.0000 1.0000
vn -0.0000 -0.0000 1.0000
vn -0.0000 -0.0000 -1.0000
vn -0.0000 -0.0000 -1.0000
vn -0.0000 -0.0000 -1.0000
vn -0.0000 -0.0000 -1.0000
vn -0.0000 1.0000 -0.0000
vn -0.0000 1.0000 -0.0000
vn -0.0000 1.0000 -0.0000
vn -0.0000 1.0000 -0.0000
vn 0.0000 -1.0000 -0.0000
vn 0.0000 -1.0000 -0.0000
vn 0.0000 -1.0000 -0.0000
vn 0.0000 -1.0000 -0.0000
vn 0.8660 0.0000 0.5000
vn 0.8660 0.0000 0.5000
vn 0.8660 0.0000 0.5000
vn 0.8660 0.0000 0.5000
vn 0.0000 0.0000 1.0000
vn 0.0000 0.0000 1.0000
vn 0.0000 0.0000 1.0000
vn 0.0000 0.0000 1.0000
vn -0.8660 0.0000 0.5000
vn -0.8660 0.0000 0.5000
vn -0.8660 0.0000 0.5000
vn -0.8660 0.0000 0.5000
vn -0.8660 0.0000 -0.5000
vn -0.8660 0.0000 -0.5000
vn -0.8660 0.0000 -0.5000
vn -0.8660 0.0000 -0.5000
vn 0.0000 0.0000 -1.0000
vn 0.0000 0.0000 -1.0000
vn 0.0000 0.0000 -1.0000
vn 0.0000 0.0000 -1.0000
vn 0.8660 0.0000 -0.5000
vn 0.8660 0.0000 -0.5000
vn 0.8660 0.0000 -0.5000
vn 0.8660 0.0000 -0.5000
vn 0.0000 1.0000 0.0000
vn 0.0000 1.0000 0.0000
vn 0.0000 1.0000 0.0000
vn 0.0000 1.0000 0.0000
vn 0.0000 1.0000 0.0000
vn 0.0000 1.0000 0.0000
vn 0.0000 1.0000 0.0000
vn 0.8660 0.0000 0.5000
vn 0.8660 0.0000 0.5000
vn 0.8660 0.0000 0.5000
vn 0.8660 0.0000 0.5000
vn 0.0000 0.0000 1.0000
vn 0.0000 0.0000 1.0000
vn 0.0000 0.0000 1.0000
vn 0.0000 0.0000 1.0000
vn -0.8660 0.0000 0.5000
vn -0.8660 0.0000 0.5000
vn -0.8660 0.0000 0.5000
vn -0.8660 0.0000 0.5000
vn -0.8660 0.0000 -0.5000
vn -0.8660 0.0000 -0.5000
vn -0.8660 0.0000 -0.5000
vn -0.8660 0.0000 -0.5000
vn 0.0000 0.0000 -1.0000
vn 0.0000 0.0000 -1.0000
vn 0.0000 0.0000 -1.0000
vn 0.0000 0.0000 -1.0000
vn 0.8660 0.0000 -0.5000
vn 0.8660 0.0000 -0.5000
vn 0.8660 0.0000 -0.5000
vn 0.8660 0.0000 -0.5000
vn 0.0000 1.0000 0.0000
vn 0.0000 1.0000 0.0000
vn 0.0000 1.0000 0.0000
vn 0.0000 1.0000 0.0000
vn 0.0000 1.0000 0.0000
vn 0.0000 1.0000 0.0000
vn 0.0000 1.0000 0.0000
vn 0.8660 0.0000 0.5000
vn 0.8660 0.0000 0.5000
vn 0.8660 0.0000 0.5000
vn 0.8660 0.0000 0.5000
vn 0.0000 0.0000 1.0000
vn 0.0000 0.0000 1.0000
vn 0.0000 0.0000 1.0000
vn 0.0000 0.0000 1.0000
vn -0.8660 0.0000 0.5000
vn -0.8660 0.0000 0.5000
vn -0.8660 0.0000 0.5000
vn -0.8660 0.0000 0.5000
vn -0.8660 0.0000 -0.5000
vn -0.8660 0.0000 -0.5000
vn -0.8660 0.0000 -0.5000
vn -0.8660 0.0000 -0.5000
vn 0.0000 0.0000 -1.0000
vn 0.0000 0.0000 -1.0000
vn 0.0000 0.0000 -1.0000
vn 0.0000 0.0000 -1.0000
vn 0.8660 0.0000 -0.5000
vn 0.8660 0.0000 -0.5000
vn 0.8660 0.0000 -0.5000
vn 0.8660 0.0000 -0.5000
vn 0.0000 1.0000 0.0000
vn 0.0000 1.0000 0.0000
vn 0.0000 1.0000 0.0000
vn 0.0000 1.0000 0.0000
vn 0.0000 1.0000 0.0000
vn 0.0000 1.0000 0.0000
vn 0.0000 1.0000 0.0000
vn 0.8660 0.0000 0.5000
vn 0.8660 0.0000 0.5000
vn 0.8660 0.0000 0.5000
vn 0.8660 0.0000 0.5000
vn 0.0000 0.0000 1.0000
vn 0.0000 0.0000 1.0000
vn 0.0000 0.0000 1.0000
vn 0.0000 0.0000 1.0000
vn -0.8660 0.0000 0.5000
vn -0.8660 0.0000 0.5000
vn -0.8660 0.0000 0.5000
vn -0.8660 0.0000 0.5000
vn -0.8660 0.0000 -0.5000
vn -0.8660 0.0000 -0.5000
vn -0.8660 0.0000 -0.5000
vn -0.8660 0.0000 -0.5000
vn 0.0000 0.0000 -1.0000
vn 0.0000 0.0000 -1.0000
vn 0.0000 0.0000 -1.0000
vn 0.0000 0.0000 -1.0000
vn 0.8660 0.0000 -0.5000
vn 0.8660 0.0000 -0.5000
vn 0.8660 0.0000 -0.5000
vn 0.8660 0.0000 -0.5000
vn 0.0000 1.0000 0.0000
vn 0.0000 1.0000 0.0000
vn 0.0000 1.0000 0.0000
vn 0.0000 1.0000 0.0000
vn 0.0000 1.0000 0.0000
vn 0.0000 1.0000 0.0000
vn 0.0000 1.0000 0.0000
usemtl wood
s 1
f 1/1/1 2/2/2 3/3/3
f 1/1/1 3/3/3 4/4/4
f 5/5/5 6/6/6 7/7/7
f 5/5/5 7/7/7 8/8/8
f 9/9/9 10/10/10 11/11/11
f 9/9/9 11/11/11 12/12/12
f 13/13/13 14/14/14 15/15/15
f 13/13/13 15/15/15 16/16/16
f 17/17/17 18/18/18 19/19/19
f 17/17/17 19/19/19 20/20/20
f 21/21/21 22/22/22 23/23/23
f 21/21/21 23/23/23 24/24/24
f 25/25/25 26/26/26 27/27/27
f 25/25/25 27/27/27 28/28/28
f 29/29/29 30/30/30 31/31/31
f 29/29/29 31/31/31 32/32/32
f 33/33/33 35/35/35 34/34/34
f 33/33/33 36/36/36 35/35/35
f 33/33/33 37/37/37 36/36/36
f 33/33/33 38/38/38 37/37/37
f 33/33/33 39/39/39 38/38/38
f 33/33/33 40/40/40 39/39/39
f 33/33/33 41/41/41 40/40/40
f 33/33/33 34/34/34 41/41/41
f 42/42/42 43/43/43 44/44/44
f 42/42/42 44/44/44 45/45/45
f 46/46/46 47/47/47 48/48/48
f 46/46/46 48/48/48 49/49/49
f 50/50/50 51/51/51 52/52/52
f 50/50/50 52/52/52 53/53/53
f 54/54/54 55/55/55 56/56/56
f 54/54/54 56/56/56 57/57/57
f 58/58/58 59/59/59 60/60/60
f 58/58/58 60/60/60 61/61/61
f 62/62/62 63/63/63 64/64/64
f 62/62/62 64/64/64 65/65/65
f 66/66/66 67/67/67 68/68/68
f 66/66/66 68/68/68 69/69/69
f 70/70/70 71/71/71 72/72/72
f 70/70/70 72/72/72 73/73/73
f 74/74/74 75/75/75 76/76/76
f 74/74/74 76/76/76 77/77/77
f 78/78/78 79/79/79 80/80/80
f 78/78/78 80/80/80 81/81/81
f 82/82/82 83/83/83 84/84/84
f 82/82/82 84/84/84 85/85/85
f 86/86/86 87/87/87 88/88/88
f 86/86/86 88/88/88 89/89/89
usemtl insulator
s 1
f 90/90/90 91/91/91 92/92/92
f 90/90/90 92/92/92 93/93/93
f 94/94/94 95/95/95 96/96/96
f 94/94/94 96/96/96 97/97/97
f 98/98/98 99/99/99 100/100/100
f 98/98/98 100/100/100 101/101/101
f 102/102/102 103/103/103 104/104/104
f 102/102/102 104/104/104 105/105/105
f 106/106/106 107/107/107 108/108/108
f 106/106/106 108/108/108 109/109/109
f 110/110/110 111/111/111 112/112/112
f 110/110/110 112/112/112 113/113/113
f 114/114/114 116/116/116 115/115/115
f 114/114/114 117/117/117 116/116/116
f 114/114/114 118/118/118 117/117/117
f 114/114/114 119/119/119 118/118/118
f 114/114/114 120/120/120 119/119/119
f 114/114/114 115/115/115 120/120/120
f 121/121/121 122/122/122 123/123/123
f 121/121/121 123/123/123 124/124/124
f 125/125/125 126/126/126 127/127/127
f 125/125/125 127/127/127 128/128/128
f 129/129/129 130/130/130 131/131/131
f 129/129/129 131/131/131 132/132/132
f 133/133/133 134/134/134 135/135/135
f 133/133/133 135/135/135 136/136/136
f 137/137/137 138/138/138 139/139/139
f 137/137/137 139/139/139 140/140/140
f 141/141/141 142/142/142 143/143/143
f 141/141/141 143/143/143 144/144/144
f 145/145/145 147/147/147 146/146/146
f 145/145/145 148/148/148 147/147/147
f 145/145/145 149/149/149 148/148/148
f 145/145/145 150/150/150 149/149/149
f 145/145/145 151/151/151 150/150/150
f 145/145/145 146/146/146 151/151/151
f 152/152/152 153/153/153 154/154/154
f 152/152/152 154/154/154 155/155/155
f 156/156/156 157/157/157 158/158/158
f 156/156/156 158/158/158 159/159/159
f 160/160/160 161/161/161 162/162/162
f 160/160/160 162/162/162 163/163/163
f 164/164/164 165/165/165 166/166/166
f 164/164/164 166/166/166 167/167/167
f 168/168/168 169/169/169 170/170/170
f 168/168/168 170/170/170 171/171/171
f 172/172/172 173/173/173 174/174/174
f 172/172/172 174/174/174 175/175/175
f 176/176/176 178/178/178 177/177/177
f 176/176/176 179/179/179 178/178/178
f 176/176/176 180/180/180 179/179/179
f 176/176/176 181/181/181 180/180/180
f 176/176/176 182/182/182 181/181/181
f 176/176/176 177/177/177 182/182/182
f 183/183/183 184/184/184 185/185/185
f 183/183/183 185/185/185 186/186/186
f 187/187/187 188/188/188 189/189/189
f 187/187/187 189/189/189 190/190/190
f 191/191/191 192/192/192 193/193/193
f 191/191/191 193/193/193 194/194/194
f 195/195/195 196/196/196 197/197/197
f 195/195/195 197/197/197 198/198/198
f 199/199/199 200/200/200 201/201/201
f 199/199/199 201/201/201 202/202/202
f 203/203/203 204/204/204 205/205/205
f 203/203/203 205/205/205 206/206/206
f 207/207/207 209/209/209 208/208/208
f 207/207/207 210/210/210 209/209/209
f 207/207/207 211/211/211 210/210/210
f 207/207/207 212/212/212 211/211/211
f 207/207/207 213/213/213 212/212/212
f 207/207/207 208/208/208 213/213/213
