# Generated by split_antenna.py from source/antena.obj
mtllib antenna_dish.mtl
o antenna_dish
v -1.000000 0.004778 0.321379
v -1.000000 0.481569 0.314290
v -0.835455 0.476791 -0.007089
v -0.835455 0.000000 0.000000
v 0.835455 0.476791 -0.007089
v 0.835455 0.000000 0.000000
v 1.000000 0.004778 0.321379
v 1.000000 0.481569 0.314290
v 1.522553 0.004778 0.321379
v 2.215072 0.015072 1.013821
v 2.215072 0.025806 1.735807
v 2.215072 0.036296 2.441393
v 1.522553 0.046591 3.133835
v 1.000000 0.046591 3.133835
v 0.835455 0.050515 3.397806
v -0.835455 0.050515 3.397806
v -1.000000 0.046591 3.133835
v -1.577080 0.046591 3.133835
v -2.269598 0.036296 2.441393
v -2.269598 0.025806 1.735807
v -2.269598 0.015072 1.013821
v -1.577080 0.004778 0.321379
v -1.000000 0.050426 1.481056
v -1.096498 0.050426 1.481056
v -1.109371 0.050618 1.493928
v -1.109371 0.054207 1.735385
v -1.109371 0.057553 1.960442
v -1.096498 0.057745 1.973313
v -0.356003 0.057745 1.973313
v -0.191459 0.061668 2.237285
v 0.191459 0.061668 2.237285
v 0.356003 0.057745 1.973313
v 1.041971 0.057745 1.973313
v 1.054844 0.057553 1.960442
v 1.054844 0.054207 1.735385
v 1.054844 0.050618 1.493928
v 1.041971 0.050426 1.481056
v 1.000000 0.050426 1.481056
v 1.000000 0.523381 3.126746
v 0.835455 0.527306 3.390719
v -0.835455 0.527306 3.390719
v -1.000000 0.523381 3.126746
v -1.577080 0.481569 0.314290
v -2.269598 0.491863 1.006732
v 2.215072 0.491863 1.006732
v 1.522553 0.481569 0.314290
v -2.269598 0.513087 2.434305
v -1.577080 0.523381 3.126746
v 1.522553 0.523381 3.126746
v 2.215072 0.513087 2.434305
v 2.215072 0.502596 1.728718
v -2.269598 0.502596 1.728718
v -1.000000 0.354915 0.546523
v 1.000000 0.354915 0.546523
v 0.872156 0.389880 2.898383
v 0.707612 0.393804 3.162354
v -0.707612 0.393804 3.162354
v -0.872156 0.389880 2.898383
v -2.039275 0.363204 1.104059
v -1.481677 0.354915 0.546523
v 1.427150 0.354915 0.546523
v 1.984748 0.363204 1.104059
v -1.481677 0.389880 2.898383
v -2.039275 0.381591 2.340846
v 1.984748 0.381591 2.340846
v 1.427150 0.389880 2.898383
v 1.984748 0.372519 1.730652
v -2.039275 0.372519 1.730652
v -1.000000 0.189406 1.135312
v 1.000000 0.189406 1.135312
v 0.546744 0.206941 2.314774
v 0.382200 0.210865 2.578746
v -0.382200 0.210865 2.578746
v -0.546744 0.206941 2.314774
v -1.453011 0.192589 1.349460
v -1.238839 0.189406 1.135312
v 1.184312 0.189406 1.135312
v 1.398485 0.192589 1.349460
v -1.238839 0.206941 2.314774
v -1.453011 0.203757 2.100625
v 1.398485 0.203757 2.100625
v 1.184312 0.206941 2.314774
v 1.398485 0.198296 1.733243
v -1.453011 0.198296 1.733243
v 0.147775 0.049817 1.543158
v 0.147775 0.345367 1.543158
v 0.147775 0.345367 1.838708
v 0.147775 0.049817 1.838708
v -0.147775 0.345367 1.838708
v -0.147775 0.049817 1.838708
v -0.147775 0.345367 1.543158
v -0.147775 0.049817 1.543158
v 0.147775 0.635725 1.543158
v 0.147775 0.635725 1.838708
v -0.147775 0.635725 1.543158
v -0.126067 1.136689 1.564866
v 0.126067 1.136689 1.564866
v -0.147775 0.635725 1.838708
v -0.126067 1.136689 1.817000
v -0.085444 1.563831 1.776377
v -0.085444 1.563831 1.605489
v 0.126067 1.136689 1.817000
v 0.085444 1.563831 1.776377
v 0.085444 1.563831 1.605489
v 0.000000 1.395631 1.573652
v -0.063722 1.444189 1.556737
v 0.024339 1.464421 1.536504
v -0.108411 1.509887 1.576518
v -0.127444 1.445875 1.623895
v 0.078765 1.411453 1.589474
v 0.024339 1.358484 1.642442
v -0.063722 1.378716 1.622209
v -0.142487 1.534306 1.646854
v 0.041408 1.544309 1.542096
v -0.039383 1.531580 1.538189
v 0.000000 1.607508 1.573652
v 0.134003 1.454192 1.632213
v 0.103104 1.498843 1.570926
v 0.142487 1.534306 1.646854
v 0.041408 1.364076 1.722329
v 0.103104 1.392905 1.676864
v 0.088062 1.415864 1.765297
v -0.108411 1.398498 1.687907
v -0.039383 1.360168 1.709600
v -0.088062 1.415864 1.765297
v -0.088062 1.587276 1.593885
v 0.088062 1.587276 1.593885
v 0.142487 1.468834 1.712327
v 0.000000 1.395631 1.785529
v -0.142487 1.468834 1.712327
v -0.041408 1.639065 1.636852
v -0.103104 1.610235 1.682318
v -0.024339 1.644656 1.716739
v 0.108411 1.604643 1.671274
v 0.039383 1.642971 1.649581
v 0.063722 1.624423 1.736971
v 0.108411 1.493254 1.782663
v 0.127444 1.557266 1.735286
v 0.063722 1.558951 1.802444
v -0.041408 1.458832 1.817085
v 0.039383 1.471560 1.820992
v -0.024339 1.538718 1.822676
v -0.134003 1.548947 1.726968
v -0.103104 1.504296 1.788256
v -0.078765 1.591687 1.769708
v 0.000000 1.607509 1.785529
vn -0.890100 -0.006788 -0.455660
vn 0.000000 -0.014849 -0.999849
vn 0.000000 -0.999849 0.014849
vn 0.000000 0.999849 -0.014849
vn 0.890100 -0.006788 -0.455660
vn 0.848700 0.007849 0.528845
vn 0.000000 0.014849 0.999849
vn -0.848700 0.007849 0.528845
vn -0.707100 -0.010536 -0.707036
vn 0.707100 -0.010536 -0.707036
vn -0.707100 0.010536 0.707036
vn 0.707100 0.010536 0.707036
vn 1.000000 0.000000 0.000000
vn -1.000000 0.000000 0.000000
vn 0.000000 0.877873 0.478782
vn -0.417400 0.866772 -0.273084
vn 0.000000 0.863307 -0.504662
vn 0.417400 0.866772 -0.273084
vn 0.347800 0.875822 0.334745
vn -0.347800 0.875822 0.334745
vn 0.347800 0.865428 -0.360695
vn -0.347800 0.865428 -0.360695
vn -0.491800 0.870661 -0.012940
vn 0.491800 0.870661 -0.012940
vn 0.000000 0.962726 0.270610
vn -0.241800 0.956221 -0.164968
vn 0.000000 0.954170 -0.299106
vn 0.241800 0.956221 -0.164968
vn 0.201500 0.961453 0.187171
vn -0.201500 0.961453 0.187171
vn 0.201500 0.955443 -0.215667
vn -0.201500 0.955443 -0.215667
vn -0.284900 0.958483 -0.014213
vn 0.284900 0.958483 -0.014213
vn 0.000000 0.927865 0.372928
vn -0.328200 0.919097 -0.218213
vn 0.000000 0.916340 -0.400434
vn 0.328200 0.919097 -0.218213
vn 0.273500 0.926168 0.259650
vn -0.273500 0.926168 0.259650
vn 0.273500 0.918037 -0.287156
vn -0.273500 0.918037 -0.287156
vn -0.386700 0.922067 -0.013718
vn 0.386700 0.922067 -0.013718
vn 0.000000 -0.000000 0.999990
vn 0.000000 0.000000 -0.999990
vn 0.000000 -0.999990 -0.000000
vn 0.000000 0.043346 -0.999071
vn -0.995500 0.094611 0.000000
vn 0.000000 0.043345 0.999071
vn -0.999100 0.043275 0.000000
vn 0.999100 0.043275 0.000000
vn 0.000000 0.999990 0.000000
vn 0.995500 0.094611 0.000000
vn 0.000000 0.094682 -0.995536
vn 0.000000 0.094681 0.995536
vn -0.102400 -0.444346 -0.889965
vn -0.700200 -0.278388 -0.657397
vn 0.268000 -0.529481 -0.804829
vn 0.268000 -0.804829 -0.529482
vn -0.102400 -0.889965 -0.444346
vn -0.905000 -0.044123 -0.423133
vn -0.024700 0.433527 -0.900783
vn 0.889700 -0.010819 -0.456437
vn 0.574600 -0.763110 0.295853
vn -0.534600 -0.783687 0.316430
vn -0.802600 0.323501 -0.501127
vn 0.306600 0.578343 -0.755968
vn 0.992100 -0.088813 -0.088813
vn 0.306600 -0.755968 0.578342
vn -0.802600 -0.501127 0.323501
vn -0.408900 0.912238 0.023547
vn 0.471300 0.880207 0.055579
vn 0.700200 0.278388 0.657397
vn -0.038500 -0.061589 0.997374
vn -0.724000 0.330219 0.605566
vn -0.268000 0.529481 0.804829
vn -0.491100 0.309642 0.814234
vn -0.408900 0.023546 0.912238
vn 0.102400 0.444346 0.889965
vn 0.187600 0.153725 0.970151
vn 0.471300 0.055578 0.880207
vn 0.331300 0.667155 0.667155
vn 0.607100 0.561938 0.561938
vn 0.700200 0.657397 0.278388
vn 0.102400 0.889965 0.444346
vn 0.187600 0.970150 0.153725
vn -0.038500 0.997374 -0.061589
vn -0.268000 0.804829 0.529482
vn -0.491100 0.814233 0.309642
vn -0.724000 0.605566 0.330219
vn -0.889700 0.010819 0.456437
vn -0.794700 -0.275560 0.540866
vn -0.574600 -0.295854 0.763110
vn 0.024700 -0.433527 0.900783
vn 0.303500 -0.527926 0.793232
vn 0.534600 -0.316430 0.783686
vn 0.905000 0.044123 0.423133
vn 0.982200 0.132653 0.132653
vn 0.905000 0.423133 0.044124
vn 0.534600 0.783687 -0.316430
vn 0.303500 0.793232 -0.527926
vn 0.024700 0.900783 -0.433527
vn -0.574600 0.763110 -0.295853
vn -0.794700 0.540866 -0.275559
vn -0.889700 0.456437 0.010819
vn -0.306600 -0.578343 0.755968
vn -0.303500 -0.793232 0.527926
vn -0.024700 -0.900783 0.433527
vn 0.802600 -0.323501 0.501127
vn 0.794700 -0.540866 0.275559
vn 0.889700 -0.456437 -0.010819
vn 0.802600 0.501127 -0.323501
vn 0.794700 0.275560 -0.540866
vn 0.574600 0.295854 -0.763110
vn -0.306600 0.755968 -0.578342
vn -0.303500 0.527926 -0.793232
vn -0.534600 0.316430 -0.783686
vn -0.992100 0.088813 0.088813
vn -0.982200 -0.132653 -0.132653
vn -0.905000 -0.423133 -0.044124
vn -0.471300 -0.880207 -0.055579
vn -0.187600 -0.970150 -0.153725
vn 0.038500 -0.997374 0.061589
vn 0.408900 -0.912238 -0.023547
vn 0.491100 -0.814233 -0.309642
vn 0.724000 -0.605566 -0.330219
vn 0.724000 -0.330219 -0.605566
vn 0.491100 -0.309642 -0.814234
vn 0.408900 -0.023546 -0.912238
vn -0.700200 -0.657397 -0.278388
vn -0.607100 -0.561938 -0.561938
vn -0.331300 -0.667155 -0.667155
vn 0.038500 0.061589 -0.997374
vn -0.187600 -0.153725 -0.970151
vn -0.471300 -0.055578 -0.880207
usemtl dish
f 1//1 2//1 3//1 4//1
f 4//2 3//2 5//2 6//2
f 7//3 1//3 4//3 6//3
f 2//4 8//4 5//4 3//4
f 7//3 9//3 10//3 11//3 12//3 13//3 14//3 15//3 16//3 17//3 18//3 19//3 20//3 21//3 22//3 1//3
f 6//5 5//5 8//5 7//5
f 23//4 24//4 25//4 26//4 27//4 28//4 29//4 30//4 31//4 32//4 33//4 34//4 35//4 36//4 37//4 38//4
f 14//6 39//6 40//6 15//6
f 15//7 40//7 41//7 16//7
f 16//8 41//8 42//8 17//8
f 43//9 22//9 21//9 44//9
f 45//10 10//10 9//10 46//10
f 47//11 19//11 18//11 48//11
f 49//12 13//12 12//12 50//12
f 10//13 45//13 51//13 11//13
f 7//2 8//2 46//2 9//2
f 20//14 52//14 44//14 21//14
f 2//2 1//2 22//2 43//2
f 52//14 20//14 19//14 47//14
f 17//7 42//7 48//7 18//7
f 11//13 51//13 50//13 12//13
f 39//7 14//7 13//7 49//7
f 53//15 54//15 8//15 2//15
f 55//16 56//16 40//16 39//16
f 56//17 57//17 41//17 40//17
f 57//18 58//18 42//18 41//18
f 59//19 60//19 43//19 44//19
f 61//20 62//20 45//20 46//20
f 63//21 64//21 47//21 48//21
f 65//22 66//22 49//22 50//22
f 62//23 67//23 51//23 45//23
f 68//24 59//24 44//24 52//24
f 64//24 68//24 52//24 47//24
f 67//23 65//23 50//23 51//23
f 54//15 61//15 46//15 8//15
f 60//15 53//15 2//15 43//15
f 58//17 63//17 48//17 42//17
f 66//17 55//17 39//17 49//17
f 69//25 70//25 54//25 53//25
f 71//26 72//26 56//26 55//26
f 72//27 73//27 57//27 56//27
f 73//28 74//28 58//28 57//28
f 75//29 76//29 60//29 59//29
f 77//30 78//30 62//30 61//30
f 79//31 80//31 64//31 63//31
f 81//32 82//32 66//32 65//32
f 78//33 83//33 67//33 62//33
f 84//34 75//34 59//34 68//34
f 80//34 84//34 68//34 64//34
f 83//33 81//33 65//33 67//33
f 70//25 77//25 61//25 54//25
f 76//25 69//25 53//25 60//25
f 74//27 79//27 63//27 58//27
f 82//27 71//27 55//27 66//27
f 23//35 38//35 70//35 69//35
f 32//36 31//36 72//36 71//36
f 31//37 30//37 73//37 72//37
f 30//38 29//38 74//38 73//38
f 25//39 24//39 76//39 75//39
f 37//40 36//40 78//40 77//40
f 28//41 27//41 80//41 79//41
f 34//42 33//42 82//42 81//42
f 36//43 35//43 83//43 78//43
f 26//44 25//44 75//44 84//44
f 27//44 26//44 84//44 80//44
f 35//43 34//43 81//43 83//43
f 38//35 37//35 77//35 70//35
f 24//35 23//35 69//35 76//35
f 29//37 28//37 79//37 74//37
f 33//37 32//37 71//37 82//37
usemtl arm
f 85//13 86//13 87//13 88//13
f 88//45 87//45 89//45 90//45
f 90//14 89//14 91//14 92//14
f 92//46 91//46 86//46 85//46
f 88//47 90//47 92//47 85//47
f 87//13 86//13 93//13 94//13
f 93//48 95//48 96//48 97//48
f 86//46 91//46 95//46 93//46
f 89//45 87//45 94//45 98//45
f 91//14 89//14 98//14 95//14
f 96//49 99//49 100//49 101//49
f 98//50 94//50 102//50 99//50
f 95//51 98//51 99//51 96//51
f 94//52 93//52 97//52 102//52
f 100//53 103//53 104//53 101//53
f 102//54 97//54 104//54 103//54
f 97//55 96//55 101//55 104//55
f 99//56 102//56 103//56 100//56
usemtl receiver
f 105//57 106//57 107//57
f 108//58 106//58 109//58
f 105//59 107//59 110//59
f 105//60 110//60 111//60
f 105//61 111//61 112//61
f 108//62 109//62 113//62
f 114//63 115//63 116//63
f 117//64 118//64 119//64
f 120//65 121//65 122//65
f 123//66 124//66 125//66
f 108//67 113//67 126//67
f 114//68 116//68 127//68
f 117//69 119//69 128//69
f 120//70 122//70 129//70
f 123//71 125//71 130//71
f 131//72 132//72 133//72
f 134//73 135//73 136//73
f 137//74 138//74 139//74
f 140//75 141//75 142//75
f 143//76 144//76 145//76
f 145//77 142//77 146//77
f 145//78 144//78 142//78
f 144//79 140//79 142//79
f 142//80 139//80 146//80
f 142//81 141//81 139//81
f 141//82 137//82 139//82
f 139//83 136//83 146//83
f 139//84 138//84 136//84
f 138//85 134//85 136//85
f 136//86 133//86 146//86
f 136//87 135//87 133//87
f 135//88 131//88 133//88
f 133//89 145//89 146//89
f 133//90 132//90 145//90
f 132//91 143//91 145//91
f 130//92 144//92 143//92
f 130//93 125//93 144//93
f 125//94 140//94 144//94
f 129//95 141//95 140//95
f 129//96 122//96 141//96
f 122//97 137//97 141//97
f 128//98 138//98 137//98
f 128//99 119//99 138//99
f 119//100 134//100 138//100
f 127//101 135//101 134//101
f 127//102 116//102 135//102
f 116//103 131//103 135//103
f 126//104 132//104 131//104
f 126//105 113//105 132//105
f 113//106 143//106 132//106
f 125//107 129//107 140//107
f 125//108 124//108 129//108
f 124//109 120//109 129//109
f 122//110 128//110 137//110
f 122//111 121//111 128//111
f 121//112 117//112 128//112
f 119//113 127//113 134//113
f 119//114 118//114 127//114
f 118//115 114//115 127//115
f 116//116 126//116 131//116
f 116//117 115//117 126//117
f 115//118 108//118 126//118
f 113//119 130//119 143//119
f 113//120 109//120 130//120
f 109//121 123//121 130//121
f 112//122 124//122 123//122
f 112//123 111//123 124//123
f 111//124 120//124 124//124
f 111//125 121//125 120//125
f 111//126 110//126 121//126
f 110//127 117//127 121//127
f 110//128 118//128 117//128
f 110//129 107//129 118//129
f 107//130 114//130 118//130
f 109//131 112//131 123//131
f 109//132 106//132 112//132
f 106//133 105//133 112//133
f 107//134 115//134 114//134
f 107//135 106//135 115//135
f 106//136 108//136 115//136
