# Generated by split_antenna.py from source/antena.obj
mtllib antenna_base.mtl
o antenna_base
v -0.758741 0.474988 0.758741
v 0.758741 0.474988 0.758741
v 0.758741 0.474988 -0.758741
v -0.758741 0.474988 -0.758741
v -0.758741 0.000000 -0.758741
v 0.758741 0.000000 -0.758741
v 0.758741 0.000000 0.758741
v -0.758741 0.000000 0.758741
vn 0.000000 1.000000 0.000000
vn 0.000000 0.000000 -1.000000
vn 1.000000 0.000000 0.000000
vn 0.000000 -1.000000 0.000000
vn -1.000000 0.000000 0.000000
vn 0.000000 0.000000 1.000000
usemtl base
f 1//1 2//1 3//1 4//1
f 5//2 4//2 3//2 6//2
f 6//3 3//3 2//3 7//3
f 7//4 8//4 5//4 6//4
f 8//5 1//5 4//5 5//5
f 7//6 2//6 1//6 8//6
