# generated by a generate_*.py
mtllib gnome.mtl
o gnome_arm_r
g part0
usemtl coat
v -0.09434 0.43285 0.02986
v -0.11165 0.43628 0.02416
v -0.12259 0.43731 0.00923
v -0.12300 0.43555 -0.00923
v -0.11271 0.43167 -0.02416
v -0.09566 0.42715 -0.02986
v -0.07835 0.42372 -0.02416
v -0.06741 0.42269 -0.00923
v -0.06700 0.42445 0.00923
v -0.07729 0.42833 0.02416
v -0.09863 0.41432 0.03110
v -0.11556 0.41778 0.02550
v -0.12625 0.41891 0.01087
v -0.12663 0.41728 -0.00721
v -0.11654 0.41351 -0.02184
v -0.09985 0.40904 -0.02742
v -0.08292 0.40558 -0.02182
v -0.07223 0.40445 -0.00719
v -0.07185 0.40608 0.01089
v -0.08194 0.40985 0.02552
v -0.10314 0.39556 0.03216
v -0.11969 0.39899 0.02668
v -0.13014 0.40015 0.01235
v -0.13050 0.39860 -0.00535
v -0.12063 0.39492 -0.01966
v -0.10430 0.39052 -0.02512
v -0.08775 0.38709 -0.01964
v -0.07730 0.38593 -0.00531
v -0.07694 0.38748 0.01239
v -0.08681 0.39116 0.02670
v -0.10743 0.37737 0.03326
v -0.12368 0.38049 0.02792
v -0.13397 0.38135 0.01394
v -0.13437 0.37961 -0.00336
v -0.12473 0.37594 -0.01735
v -0.10873 0.37175 -0.02270
v -0.09248 0.36863 -0.01736
v -0.08219 0.36777 -0.00338
v -0.08179 0.36951 0.01392
v -0.09143 0.37318 0.02791
v -0.11116 0.36029 0.03465
v -0.12718 0.36279 0.02949
v -0.13739 0.36297 0.01587
v -0.13788 0.36077 -0.00100
v -0.12847 0.35702 -0.01467
v -0.11276 0.35315 -0.01993
v -0.09674 0.35065 -0.01477
v -0.08653 0.35047 -0.00115
v -0.08604 0.35267 0.01572
v -0.09545 0.35642 0.02939
v -0.11401 0.34482 0.03655
v -0.12988 0.34638 0.03161
v -0.14006 0.34549 0.01842
v -0.14067 0.34251 0.00201
v -0.13148 0.33857 -0.01134
v -0.11599 0.33518 -0.01655
v -0.10012 0.33362 -0.01161
v -0.08994 0.33451 0.00158
v -0.08933 0.33749 0.01799
v -0.09852 0.34143 0.03134
v -0.11583 0.33097 0.03912
v -0.13155 0.33147 0.03447
v -0.14170 0.32938 0.02176
v -0.14239 0.32552 0.00584
v -0.13338 0.32135 -0.00721
v -0.11809 0.31847 -0.01240
v -0.10237 0.31797 -0.00775
v -0.09222 0.32006 0.00496
v -0.09153 0.32392 0.02088
v -0.10054 0.32809 0.03393
v -0.11689 0.31787 0.04234
v -0.13243 0.31757 0.03796
v -0.14249 0.31459 0.02568
v -0.14322 0.31007 0.01020
v -0.13435 0.30574 -0.00258
v -0.11927 0.30325 -0.00778
v -0.10373 0.30355 -0.00340
v -0.09367 0.30653 0.00888
v -0.09294 0.31105 0.02436
v -0.10181 0.31538 0.03714
v -0.11752 0.30480 0.04605
v -0.13286 0.30412 0.04184
v -0.14280 0.30074 0.02988
v -0.14353 0.29595 0.01472
v -0.13479 0.29157 0.00216
v -0.11992 0.28928 -0.00301
v -0.10458 0.28996 0.00120
v -0.09464 0.29334 0.01316
v -0.09391 0.29813 0.02832
v -0.10265 0.30251 0.04088
v -0.11807 0.29122 0.05005
v -0.13318 0.29063 0.04588
v -0.14297 0.28738 0.03406
v -0.14369 0.28272 0.01910
v -0.13508 0.27843 0.00671
v -0.12041 0.27614 0.00163
v -0.10530 0.27673 0.00580
v -0.09551 0.27998 0.01762
v -0.09479 0.28464 0.03258
v -0.10340 0.28893 0.04497
v -0.11886 0.27721 0.05391
v -0.13373 0.27677 0.04976
v -0.14336 0.27375 0.03806
v -0.14407 0.26930 0.02329
v -0.13558 0.26511 0.01107
v -0.12114 0.26279 0.00609
v -0.10627 0.26323 0.01024
v -0.09664 0.26625 0.02194
v -0.09593 0.27070 0.03671
v -0.10442 0.27489 0.04893
v -0.09434 0.43285 0.02986
v -0.11165 0.43628 0.02416
v -0.12259 0.43731 0.00923
v -0.12300 0.43555 -0.00923
v -0.11271 0.43167 -0.02416
v -0.09566 0.42715 -0.02986
v -0.07835 0.42372 -0.02416
v -0.06741 0.42269 -0.00923
v -0.06700 0.42445 0.00923
v -0.07729 0.42833 0.02416
v -0.09500 0.43000 0.00000
v -0.11886 0.27721 0.05391
v -0.13373 0.27677 0.04976
v -0.14336 0.27375 0.03806
v -0.14407 0.26930 0.02329
v -0.13558 0.26511 0.01107
v -0.12114 0.26279 0.00609
v -0.10627 0.26323 0.01024
v -0.09664 0.26625 0.02194
v -0.09593 0.27070 0.03671
v -0.10442 0.27489 0.04893
v -0.12000 0.27000 0.03000
vn 0.0147 0.0635 0.9979
vn -0.5619 0.1777 0.8079
vn -0.9266 0.2119 0.3106
vn -0.9402 0.1531 -0.3042
vn -0.5975 0.0238 -0.8015
vn -0.0293 -0.1267 -0.9915
vn 0.5473 -0.2409 -0.8016
vn 0.9120 -0.2751 -0.3042
vn 0.9256 -0.2164 0.3105
vn 0.5829 -0.0871 0.8079
vn 0.0133 0.0584 0.9982
vn -0.5624 0.1760 0.8079
vn -0.9262 0.2142 0.3102
vn -0.9391 0.1586 -0.3049
vn -0.5961 0.0302 -0.8023
vn -0.0283 -0.1218 -0.9922
vn 0.5475 -0.2393 -0.8019
vn 0.9113 -0.2776 -0.3041
vn 0.9242 -0.2219 0.3109
vn 0.5812 -0.0936 0.8084
vn 0.0126 0.0554 0.9984
vn -0.5627 0.1750 0.8079
vn -0.9260 0.2155 0.3100
vn -0.9385 0.1616 -0.3053
vn -0.5953 0.0338 -0.8028
vn -0.0277 -0.1190 -0.9925
vn 0.5476 -0.2385 -0.8020
vn 0.9109 -0.2791 -0.3041
vn 0.9233 -0.2252 0.3111
vn 0.5802 -0.0975 0.8086
vn 0.0156 0.0671 0.9976
vn -0.5615 0.1790 0.8079
vn -0.9269 0.2101 0.3108
vn -0.9411 0.1488 -0.3037
vn -0.5985 0.0185 -0.8009
vn -0.0300 -0.1307 -0.9910
vn 0.5472 -0.2420 -0.8012
vn 0.9126 -0.2733 -0.3042
vn 0.9266 -0.2124 0.3104
vn 0.5839 -0.0825 0.8076
vn 0.0222 0.0960 0.9951
vn -0.5589 0.1888 0.8075
vn -0.9291 0.1970 0.3130
vn -0.9469 0.1175 -0.2993
vn -0.6053 -0.0186 -0.7957
vn -0.0349 -0.1591 -0.9867
vn 0.5465 -0.2506 -0.7991
vn 0.9166 -0.2589 -0.3046
vn 0.9341 -0.1808 0.3079
vn 0.5924 -0.0454 0.8043
vn 0.0315 0.1458 0.9888
vn -0.5554 0.2057 0.8057
vn -0.9321 0.1751 0.3171
vn -0.9546 0.0659 -0.2905
vn -0.6142 -0.0798 -0.7851
vn -0.0409 -0.2059 -0.9777
vn 0.5462 -0.2648 -0.7947
vn 0.9228 -0.2343 -0.3060
vn 0.9450 -0.1262 0.3018
vn 0.6045 0.0189 0.7963
vn 0.0395 0.2058 0.9778
vn -0.5525 0.2258 0.8024
vn -0.9346 0.1494 0.3229
vn -0.9607 0.0057 -0.2774
vn -0.6210 -0.1507 -0.7692
vn -0.0452 -0.2603 -0.9645
vn 0.5467 -0.2810 -0.7888
vn 0.9287 -0.2045 -0.3093
vn 0.9549 -0.0601 0.2908
vn 0.6153 0.0967 0.7824
vn 0.0437 0.2528 0.9665
vn -0.5508 0.2417 0.7989
vn -0.9355 0.1291 0.3288
vn -0.9636 -0.0422 -0.2641
vn -0.6242 -0.2074 -0.7533
vn -0.0470 -0.3035 -0.9517
vn 0.5475 -0.2935 -0.7836
vn 0.9322 -0.1807 -0.3136
vn 0.9603 -0.0082 0.2790
vn 0.6209 0.1575 0.7679
vn 0.0453 0.2759 0.9601
vn -0.5500 0.2497 0.7970
vn -0.9356 0.1188 0.3324
vn -0.9643 -0.0669 -0.2562
vn -0.6250 -0.2366 -0.7439
vn -0.0475 -0.3256 -0.9443
vn 0.5478 -0.2999 -0.7810
vn 0.9335 -0.1689 -0.3164
vn 0.9621 0.0172 0.2720
vn 0.6229 0.1871 0.7596
vn 0.0450 0.2718 0.9613
vn -0.5502 0.2484 0.7973
vn -0.9357 0.1204 0.3317
vn -0.9642 -0.0633 -0.2575
vn -0.6249 -0.2324 -0.7453
vn -0.0474 -0.3224 -0.9454
vn 0.5478 -0.2989 -0.7814
vn 0.9333 -0.1709 -0.3159
vn 0.9618 0.0127 0.2733
vn 0.6225 0.1818 0.7612
vn 0.0443 0.2631 0.9638
vn -0.5506 0.2453 0.7979
vn -0.9357 0.1242 0.3303
vn -0.9639 -0.0542 -0.2606
vn -0.6246 -0.2216 -0.7489
vn -0.0472 -0.3142 -0.9482
vn 0.5477 -0.2965 -0.7824
vn 0.9328 -0.1754 -0.3147
vn 0.9611 0.0031 0.2761
vn 0.6217 0.1706 0.7644
vn 0.2244 0.9696 -0.0974
vn 0.2244 0.9696 -0.0974
vn 0.2244 0.9696 -0.0974
vn 0.2244 0.9696 -0.0974
vn 0.2244 0.9696 -0.0974
vn 0.2244 0.9696 -0.0974
vn 0.2244 0.9696 -0.0974
vn 0.2244 0.9696 -0.0974
vn 0.2244 0.9696 -0.0974
vn 0.2244 0.9696 -0.0974
vn 0.2244 0.9696 -0.0974
vn -0.0531 -0.9554 0.2905
vn -0.0531 -0.9554 0.2905
vn -0.0531 -0.9554 0.2905
vn -0.0531 -0.9554 0.2905
vn -0.0531 -0.9554 0.2905
vn -0.0531 -0.9554 0.2905
vn -0.0531 -0.9554 0.2905
vn -0.0531 -0.9554 0.2905
vn -0.0531 -0.9554 0.2905
vn -0.0531 -0.9554 0.2905
vn -0.0531 -0.9554 0.2905
f 1//1 2//2 12//12 11//11
f 2//2 3//3 13//13 12//12
f 3//3 4//4 14//14 13//13
f 4//4 5//5 15//15 14//14
f 5//5 6//6 16//16 15//15
f 6//6 7//7 17//17 16//16
f 7//7 8//8 18//18 17//17
f 8//8 9//9 19//19 18//18
f 9//9 10//10 20//20 19//19
f 10//10 1//1 11//11 20//20
f 11//11 12//12 22//22 21//21
f 12//12 13//13 23//23 22//22
f 13//13 14//14 24//24 23//23
f 14//14 15//15 25//25 24//24
f 15//15 16//16 26//26 25//25
f 16//16 17//17 27//27 26//26
f 17//17 18//18 28//28 27//27
f 18//18 19//19 29//29 28//28
f 19//19 20//20 30//30 29//29
f 20//20 11//11 21//21 30//30
f 21//21 22//22 32//32 31//31
f 22//22 23//23 33//33 32//32
f 23//23 24//24 34//34 33//33
f 24//24 25//25 35//35 34//34
f 25//25 26//26 36//36 35//35
f 26//26 27//27 37//37 36//36
f 27//27 28//28 38//38 37//37
f 28//28 29//29 39//39 38//38
f 29//29 30//30 40//40 39//39
f 30//30 21//21 31//31 40//40
f 31//31 32//32 42//42 41//41
f 32//32 33//33 43//43 42//42
f 33//33 34//34 44//44 43//43
f 34//34 35//35 45//45 44//44
f 35//35 36//36 46//46 45//45
f 36//36 37//37 47//47 46//46
f 37//37 38//38 48//48 47//47
f 38//38 39//39 49//49 48//48
f 39//39 40//40 50//50 49//49
f 40//40 31//31 41//41 50//50
f 41//41 42//42 52//52 51//51
f 42//42 43//43 53//53 52//52
f 43//43 44//44 54//54 53//53
f 44//44 45//45 55//55 54//54
f 45//45 46//46 56//56 55//55
f 46//46 47//47 57//57 56//56
f 47//47 48//48 58//58 57//57
f 48//48 49//49 59//59 58//58
f 49//49 50//50 60//60 59//59
f 50//50 41//41 51//51 60//60
f 51//51 52//52 62//62 61//61
f 52//52 53//53 63//63 62//62
f 53//53 54//54 64//64 63//63
f 54//54 55//55 65//65 64//64
f 55//55 56//56 66//66 65//65
f 56//56 57//57 67//67 66//66
f 57//57 58//58 68//68 67//67
f 58//58 59//59 69//69 68//68
f 59//59 60//60 70//70 69//69
f 60//60 51//51 61//61 70//70
f 61//61 62//62 72//72 71//71
f 62//62 63//63 73//73 72//72
f 63//63 64//64 74//74 73//73
f 64//64 65//65 75//75 74//74
f 65//65 66//66 76//76 75//75
f 66//66 67//67 77//77 76//76
f 67//67 68//68 78//78 77//77
f 68//68 69//69 79//79 78//78
f 69//69 70//70 80//80 79//79
f 70//70 61//61 71//71 80//80
f 71//71 72//72 82//82 81//81
f 72//72 73//73 83//83 82//82
f 73//73 74//74 84//84 83//83
f 74//74 75//75 85//85 84//84
f 75//75 76//76 86//86 85//85
f 76//76 77//77 87//87 86//86
f 77//77 78//78 88//88 87//87
f 78//78 79//79 89//89 88//88
f 79//79 80//80 90//90 89//89
f 80//80 71//71 81//81 90//90
f 81//81 82//82 92//92 91//91
f 82//82 83//83 93//93 92//92
f 83//83 84//84 94//94 93//93
f 84//84 85//85 95//95 94//94
f 85//85 86//86 96//96 95//95
f 86//86 87//87 97//97 96//96
f 87//87 88//88 98//98 97//97
f 88//88 89//89 99//99 98//98
f 89//89 90//90 100//100 99//99
f 90//90 81//81 91//91 100//100
f 91//91 92//92 102//102 101//101
f 92//92 93//93 103//103 102//102
f 93//93 94//94 104//104 103//103
f 94//94 95//95 105//105 104//104
f 95//95 96//96 106//106 105//105
f 96//96 97//97 107//107 106//106
f 97//97 98//98 108//108 107//107
f 98//98 99//99 109//109 108//108
f 99//99 100//100 110//110 109//109
f 100//100 91//91 101//101 110//110
f 112//112 121//121 111//111
f 113//113 121//121 112//112
f 114//114 121//121 113//113
f 115//115 121//121 114//114
f 116//116 121//121 115//115
f 117//117 121//121 116//116
f 118//118 121//121 117//117
f 119//119 121//121 118//118
f 120//120 121//121 119//119
f 111//111 121//121 120//120
f 123//123 132//132 122//122
f 124//124 132//132 123//123
f 125//125 132//132 124//124
f 126//126 132//132 125//125
f 127//127 132//132 126//126
f 128//128 132//132 127//127
f 129//129 132//132 128//128
f 130//130 132//132 129//129
f 131//131 132//132 130//130
f 122//122 132//132 131//131
g part1
usemtl glove
v -0.12000 0.27600 0.03500
v -0.12000 0.27600 0.03500
v -0.12000 0.27600 0.03500
v -0.12000 0.27600 0.03500
v -0.12000 0.27600 0.03500
v -0.12000 0.27600 0.03500
v -0.12000 0.27600 0.03500
v -0.12000 0.27600 0.03500
v -0.12000 0.27252 0.04700
v -0.11151 0.27252 0.04349
v -0.10800 0.27252 0.03500
v -0.11151 0.27252 0.02651
v -0.12000 0.27252 0.02300
v -0.12849 0.27252 0.02651
v -0.13200 0.27252 0.03500
v -0.12849 0.27252 0.04349
v -0.12000 0.26300 0.05578
v -0.10530 0.26300 0.04970
v -0.09922 0.26300 0.03500
v -0.10530 0.26300 0.02030
v -0.12000 0.26300 0.01422
v -0.13470 0.26300 0.02030
v -0.14078 0.26300 0.03500
v -0.13470 0.26300 0.04970
v -0.12000 0.25000 0.05900
v -0.10303 0.25000 0.05197
v -0.09600 0.25000 0.03500
v -0.10303 0.25000 0.01803
v -0.12000 0.25000 0.01100
v -0.13697 0.25000 0.01803
v -0.14400 0.25000 0.03500
v -0.13697 0.25000 0.05197
v -0.12000 0.23700 0.05578
v -0.10530 0.23700 0.04970
v -0.09922 0.23700 0.03500
v -0.10530 0.23700 0.02030
v -0.12000 0.23700 0.01422
v -0.13470 0.23700 0.02030
v -0.14078 0.23700 0.03500
v -0.13470 0.23700 0.04970
v -0.12000 0.22748 0.04700
v -0.11151 0.22748 0.04349
v -0.10800 0.22748 0.03500
v -0.11151 0.22748 0.02651
v -0.12000 0.22748 0.02300
v -0.12849 0.22748 0.02651
v -0.13200 0.22748 0.03500
v -0.12849 0.22748 0.04349
v -0.12000 0.22400 0.03500
v -0.12000 0.22400 0.03500
v -0.12000 0.22400 0.03500
v -0.12000 0.22400 0.03500
v -0.12000 0.22400 0.03500
v -0.12000 0.22400 0.03500
v -0.12000 0.22400 0.03500
v -0.12000 0.22400 0.03500
vn 0.0000 1.0000 0.0000
vn 0.0000 1.0000 0.0000
vn 0.0000 1.0000 0.0000
vn 0.0000 1.0000 -0.0000
vn 0.0000 1.0000 -0.0000
vn -0.0000 1.0000 -0.0000
vn -0.0000 1.0000 -0.0000
vn -0.0000 1.0000 0.0000
vn 0.0000 0.8478 0.5303
vn 0.3750 0.8478 0.3750
vn 0.5303 0.8478 0.0000
vn 0.3750 0.8478 -0.3750
vn 0.0000 0.8478 -0.5303
vn -0.3750 0.8478 -0.3750
vn -0.5303 0.8478 -0.0000
vn -0.3750 0.8478 0.3750
vn 0.0000 0.4703 0.8825
vn 0.6240 0.4703 0.6240
vn 0.8825 0.4703 0.0000
vn 0.6240 0.4703 -0.6240
vn 0.0000 0.4703 -0.8825
vn -0.6240 0.4703 -0.6240
vn -0.8825 0.4703 -0.0000
vn -0.6240 0.4703 0.6240
vn 0.0000 0.0000 1.0000
vn 0.7071 0.0000 0.7071
vn 1.0000 0.0000 0.0000
vn 0.7071 0.0000 -0.7071
vn 0.0000 0.0000 -1.0000
vn -0.7071 0.0000 -0.7071
vn -1.0000 0.0000 -0.0000
vn -0.7071 0.0000 0.7071
vn 0.0000 -0.4703 0.8825
vn 0.6240 -0.4703 0.6240
vn 0.8825 -0.4703 0.0000
vn 0.6240 -0.4703 -0.6240
vn 0.0000 -0.4703 -0.8825
vn -0.6240 -0.4703 -0.6240
vn -0.8825 -0.4703 -0.0000
vn -0.6240 -0.4703 0.6240
vn 0.0000 -0.8478 0.5303
vn 0.3750 -0.8478 0.3750
vn 0.5303 -0.8478 0.0000
vn 0.3750 -0.8478 -0.3750
vn 0.0000 -0.8478 -0.5303
vn -0.3750 -0.8478 -0.3750
vn -0.5303 -0.8478 -0.0000
vn -0.3750 -0.8478 0.3750
vn 0.0000 -1.0000 0.0000
vn 0.0000 -1.0000 0.0000
vn 0.0000 -1.0000 0.0000
vn 0.0000 -1.0000 -0.0000
vn 0.0000 -1.0000 -0.0000
vn -0.0000 -1.0000 -0.0000
vn -0.0000 -1.0000 -0.0000
vn -0.0000 -1.0000 0.0000
f 141//141 142//142 134//134 133//133
f 142//142 143//143 135//135 134//134
f 143//143 144//144 136//136 135//135
f 144//144 145//145 137//137 136//136
f 145//145 146//146 138//138 137//137
f 146//146 147//147 139//139 138//138
f 147//147 148//148 140//140 139//139
f 148//148 141//141 133//133 140//140
f 149//149 150//150 142//142 141//141
f 150//150 151//151 143//143 142//142
f 151//151 152//152 144//144 143//143
f 152//152 153//153 145//145 144//144
f 153//153 154//154 146//146 145//145
f 154//154 155//155 147//147 146//146
f 155//155 156//156 148//148 147//147
f 156//156 149//149 141//141 148//148
f 157//157 158//158 150//150 149//149
f 158//158 159//159 151//151 150//150
f 159//159 160//160 152//152 151//151
f 160//160 161//161 153//153 152//152
f 161//161 162//162 154//154 153//153
f 162//162 163//163 155//155 154//154
f 163//163 164//164 156//156 155//155
f 164//164 157//157 149//149 156//156
f 165//165 166//166 158//158 157//157
f 166//166 167//167 159//159 158//158
f 167//167 168//168 160//160 159//159
f 168//168 169//169 161//161 160//160
f 169//169 170//170 162//162 161//161
f 170//170 171//171 163//163 162//162
f 171//171 172//172 164//164 163//163
f 172//172 165//165 157//157 164//164
f 173//173 174//174 166//166 165//165
f 174//174 175//175 167//167 166//166
f 175//175 176//176 168//168 167//167
f 176//176 177//177 169//169 168//168
f 177//177 178//178 170//170 169//169
f 178//178 179//179 171//171 170//170
f 179//179 180//180 172//172 171//171
f 180//180 173//173 165//165 172//172
f 181//181 182//182 174//174 173//173
f 182//182 183//183 175//175 174//174
f 183//183 184//184 176//176 175//175
f 184//184 185//185 177//177 176//176
f 185//185 186//186 178//178 177//177
f 186//186 187//187 179//179 178//178
f 187//187 188//188 180//180 179//179
f 188//188 181//181 173//173 180//180
