# generated by a generate_*.py
mtllib gnome.mtl
o gnome_face_4
g part0
usemtl brow
v 0.06710 0.60336 0.07183
v 0.06486 0.60168 0.06956
v 0.06377 0.59832 0.07026
v 0.06490 0.59664 0.07324
v 0.06714 0.59832 0.07551
v 0.06823 0.60168 0.07481
v 0.05854 0.60770 0.07733
v 0.05608 0.60585 0.07483
v 0.05487 0.60215 0.07560
v 0.05613 0.60030 0.07888
v 0.05859 0.60215 0.08138
v 0.05979 0.60585 0.08061
v 0.04969 0.61216 0.08302
v 0.04715 0.61008 0.08019
v 0.04613 0.60592 0.08084
v 0.04765 0.60384 0.08433
v 0.05018 0.60592 0.08716
v 0.05120 0.61008 0.08650
v 0.04012 0.61450 0.08914
v 0.03796 0.61225 0.08589
v 0.03784 0.60775 0.08598
v 0.03988 0.60550 0.08930
v 0.04204 0.60775 0.09255
v 0.04216 0.61225 0.09246
v 0.03052 0.61289 0.09525
v 0.02892 0.61078 0.09182
v 0.02973 0.60655 0.09131
v 0.03215 0.60444 0.09422
v 0.03375 0.60656 0.09765
v 0.03294 0.61078 0.09816
v 0.02163 0.60911 0.10088
v 0.02031 0.60722 0.09765
v 0.02135 0.60344 0.09700
v 0.02370 0.60156 0.09958
v 0.02502 0.60345 0.10280
v 0.02399 0.60722 0.10346
v 0.01306 0.60542 0.10631
v 0.01186 0.60371 0.10338
v 0.01280 0.60029 0.10279
v 0.01494 0.59858 0.10513
v 0.01614 0.60029 0.10806
v 0.01520 0.60371 0.10865
v 0.06710 0.60336 0.07183
v 0.06486 0.60168 0.06956
v 0.06377 0.59832 0.07026
v 0.06490 0.59664 0.07324
v 0.06714 0.59832 0.07551
v 0.06823 0.60168 0.07481
v 0.06600 0.60000 0.07253
v 0.01306 0.60542 0.10631
v 0.01186 0.60371 0.10338
v 0.01280 0.60029 0.10279
v 0.01494 0.59858 0.10513
v 0.01614 0.60029 0.10806
v 0.01520 0.60371 0.10865
v 0.01400 0.60200 0.10572
vn 0.3304 0.9197 -0.2123
vn -0.2897 0.4538 -0.8427
vn -0.5941 -0.4778 -0.6471
vn -0.2783 -0.9437 0.1789
vn 0.3417 -0.4778 0.8092
vn 0.6461 0.4538 0.6137
vn 0.3294 0.9202 -0.2116
vn -0.2901 0.4540 -0.8425
vn -0.5940 -0.4779 -0.6472
vn -0.2785 -0.9436 0.1789
vn 0.3418 -0.4779 0.8092
vn 0.6457 0.4540 0.6139
vn 0.2496 0.9550 -0.1605
vn -0.3315 0.4733 -0.8161
vn -0.5656 -0.4869 -0.6656
vn -0.2188 -0.9656 0.1407
vn 0.3695 -0.4864 0.7918
vn 0.6033 0.4739 0.6414
vn 0.0266 0.9995 -0.0181
vn -0.4526 0.4989 -0.7391
vn -0.4794 -0.5006 -0.7208
vn -0.0270 -0.9995 0.0184
vn 0.4525 -0.4989 0.7392
vn 0.4793 0.5006 0.7209
vn -0.2023 0.9710 0.1272
vn -0.5767 0.4814 -0.6600
vn -0.3904 -0.4938 -0.7770
vn 0.1707 -0.9795 -0.1071
vn 0.5374 -0.4920 0.6849
vn 0.3513 0.4833 0.8019
vn -0.2874 0.9405 0.1811
vn -0.6207 0.4642 -0.6318
vn -0.3599 -0.4865 -0.7961
vn 0.2342 -0.9610 -0.1474
vn 0.5665 -0.4851 0.6662
vn 0.3057 0.4657 0.8305
vn -0.2886 0.9400 0.1819
vn -0.6211 0.4640 -0.6316
vn -0.3598 -0.4865 -0.7961
vn 0.2340 -0.9610 -0.1473
vn 0.5665 -0.4850 0.6662
vn 0.3053 0.4655 0.8307
vn 0.7842 -0.3620 -0.5039
vn 0.7842 -0.3620 -0.5039
vn 0.7842 -0.3620 -0.5039
vn 0.7842 -0.3620 -0.5039
vn 0.7842 -0.3620 -0.5039
vn 0.7842 -0.3620 -0.5039
vn 0.7842 -0.3620 -0.5039
vn -0.8033 -0.3090 0.5092
vn -0.8033 -0.3090 0.5092
vn -0.8033 -0.3090 0.5092
vn -0.8033 -0.3090 0.5092
vn -0.8033 -0.3090 0.5092
vn -0.8033 -0.3090 0.5092
vn -0.8033 -0.3090 0.5092
f 1//1 2//2 8//8 7//7
f 2//2 3//3 9//9 8//8
f 3//3 4//4 10//10 9//9
f 4//4 5//5 11//11 10//10
f 5//5 6//6 12//12 11//11
f 6//6 1//1 7//7 12//12
f 7//7 8//8 14//14 13//13
f 8//8 9//9 15//15 14//14
f 9//9 10//10 16//16 15//15
f 10//10 11//11 17//17 16//16
f 11//11 12//12 18//18 17//17
f 12//12 7//7 13//13 18//18
f 13//13 14//14 20//20 19//19
f 14//14 15//15 21//21 20//20
f 15//15 16//16 22//22 21//21
f 16//16 17//17 23//23 22//22
f 17//17 18//18 24//24 23//23
f 18//18 13//13 19//19 24//24
f 19//19 20//20 26//26 25//25
f 20//20 21//21 27//27 26//26
f 21//21 22//22 28//28 27//27
f 22//22 23//23 29//29 28//28
f 23//23 24//24 30//30 29//29
f 24//24 19//19 25//25 30//30
f 25//25 26//26 32//32 31//31
f 26//26 27//27 33//33 32//32
f 27//27 28//28 34//34 33//33
f 28//28 29//29 35//35 34//34
f 29//29 30//30 36//36 35//35
f 30//30 25//25 31//31 36//36
f 31//31 32//32 38//38 37//37
f 32//32 33//33 39//39 38//38
f 33//33 34//34 40//40 39//39
f 34//34 35//35 41//41 40//40
f 35//35 36//36 42//42 41//41
f 36//36 31//31 37//37 42//42
f 44//44 49//49 43//43
f 45//45 49//49 44//44
f 46//46 49//49 45//45
f 47//47 49//49 46//46
f 48//48 49//49 47//47
f 43//43 49//49 48//48
f 51//51 56//56 50//50
f 52//52 56//56 51//51
f 53//53 56//56 52//52
f 54//54 56//56 53//53
f 55//55 56//56 54//54
f 50//50 56//56 55//55
g part1
usemtl brow
v -0.06710 0.60336 0.07183
v -0.06823 0.60168 0.07481
v -0.06714 0.59832 0.07551
v -0.06490 0.59664 0.07324
v -0.06377 0.59832 0.07026
v -0.06486 0.60168 0.06956
v -0.05854 0.60770 0.07733
v -0.05979 0.60585 0.08061
v -0.05859 0.60215 0.08138
v -0.05613 0.60030 0.07888
v -0.05487 0.60215 0.07560
v -0.05608 0.60585 0.07483
v -0.04969 0.61216 0.08302
v -0.05120 0.61008 0.08650
v -0.05018 0.60592 0.08716
v -0.04765 0.60384 0.08433
v -0.04613 0.60592 0.08084
v -0.04715 0.61008 0.08019
v -0.04012 0.61450 0.08914
v -0.04216 0.61225 0.09246
v -0.04204 0.60775 0.09255
v -0.03988 0.60550 0.08930
v -0.03784 0.60775 0.08598
v -0.03796 0.61225 0.08589
v -0.03052 0.61289 0.09525
v -0.03294 0.61078 0.09816
v -0.03375 0.60656 0.09765
v -0.03215 0.60444 0.09422
v -0.02973 0.60655 0.09131
v -0.02892 0.61078 0.09182
v -0.02163 0.60911 0.10088
v -0.02399 0.60722 0.10346
v -0.02502 0.60345 0.10280
v -0.02370 0.60156 0.09958
v -0.02135 0.60344 0.09700
v -0.02031 0.60722 0.09765
v -0.01306 0.60542 0.10631
v -0.01520 0.60371 0.10865
v -0.01614 0.60029 0.10806
v -0.01494 0.59858 0.10513
v -0.01280 0.60029 0.10279
v -0.01186 0.60371 0.10338
v -0.06710 0.60336 0.07183
v -0.06823 0.60168 0.07481
v -0.06714 0.59832 0.07551
v -0.06490 0.59664 0.07324
v -0.06377 0.59832 0.07026
v -0.06486 0.60168 0.06956
v -0.06600 0.60000 0.07253
v -0.01306 0.60542 0.10631
v -0.01520 0.60371 0.10865
v -0.01614 0.60029 0.10806
v -0.01494 0.59858 0.10513
v -0.01280 0.60029 0.10279
v -0.01186 0.60371 0.10338
v -0.01400 0.60200 0.10572
vn -0.3304 0.9197 -0.2123
vn -0.6461 0.4538 0.6137
vn -0.3417 -0.4778 0.8092
vn 0.2783 -0.9437 0.1789
vn 0.5941 -0.4778 -0.6471
vn 0.2897 0.4538 -0.8427
vn -0.3294 0.9202 -0.2116
vn -0.6457 0.4540 0.6139
vn -0.3418 -0.4779 0.8092
vn 0.2785 -0.9436 0.1789
vn 0.5940 -0.4779 -0.6472
vn 0.2901 0.4540 -0.8425
vn -0.2496 0.9550 -0.1605
vn -0.6033 0.4739 0.6414
vn -0.3695 -0.4864 0.7918
vn 0.2188 -0.9656 0.1407
vn 0.5656 -0.4869 -0.6656
vn 0.3315 0.4733 -0.8161
vn -0.0266 0.9995 -0.0181
vn -0.4793 0.5006 0.7209
vn -0.4525 -0.4989 0.7392
vn 0.0270 -0.9995 0.0184
vn 0.4794 -0.5006 -0.7208
vn 0.4526 0.4989 -0.7391
vn 0.2023 0.9710 0.1272
vn -0.3513 0.4833 0.8019
vn -0.5374 -0.4920 0.6849
vn -0.1707 -0.9795 -0.1071
vn 0.3904 -0.4938 -0.7770
vn 0.5767 0.4814 -0.6600
vn 0.2874 0.9405 0.1811
vn -0.3057 0.4657 0.8305
vn -0.5665 -0.4851 0.6662
vn -0.2342 -0.9610 -0.1474
vn 0.3599 -0.4865 -0.7961
vn 0.6207 0.4642 -0.6318
vn 0.2886 0.9400 0.1819
vn -0.3053 0.4655 0.8307
vn -0.5665 -0.4850 0.6662
vn -0.2340 -0.9610 -0.1473
vn 0.3598 -0.4865 -0.7961
vn 0.6211 0.4640 -0.6316
vn -0.7842 -0.3620 -0.5039
vn -0.7842 -0.3620 -0.5039
vn -0.7842 -0.3620 -0.5039
vn -0.7842 -0.3620 -0.5039
vn -0.7842 -0.3620 -0.5039
vn -0.7842 -0.3620 -0.5039
vn -0.7842 -0.3620 -0.5039
vn 0.8033 -0.3090 0.5092
vn 0.8033 -0.3090 0.5092
vn 0.8033 -0.3090 0.5092
vn 0.8033 -0.3090 0.5092
vn 0.8033 -0.3090 0.5092
vn 0.8033 -0.3090 0.5092
vn 0.8033 -0.3090 0.5092
f 57//57 58//58 64//64 63//63
f 58//58 59//59 65//65 64//64
f 59//59 60//60 66//66 65//65
f 60//60 61//61 67//67 66//66
f 61//61 62//62 68//68 67//67
f 62//62 57//57 63//63 68//68
f 63//63 64//64 70//70 69//69
f 64//64 65//65 71//71 70//70
f 65//65 66//66 72//72 71//71
f 66//66 67//67 73//73 72//72
f 67//67 68//68 74//74 73//73
f 68//68 63//63 69//69 74//74
f 69//69 70//70 76//76 75//75
f 70//70 71//71 77//77 76//76
f 71//71 72//72 78//78 77//77
f 72//72 73//73 79//79 78//78
f 73//73 74//74 80//80 79//79
f 74//74 69//69 75//75 80//80
f 75//75 76//76 82//82 81//81
f 76//76 77//77 83//83 82//82
f 77//77 78//78 84//84 83//83
f 78//78 79//79 85//85 84//84
f 79//79 80//80 86//86 85//85
f 80//80 75//75 81//81 86//86
f 81//81 82//82 88//88 87//87
f 82//82 83//83 89//89 88//88
f 83//83 84//84 90//90 89//89
f 84//84 85//85 91//91 90//90
f 85//85 86//86 92//92 91//91
f 86//86 81//81 87//87 92//92
f 87//87 88//88 94//94 93//93
f 88//88 89//89 95//95 94//94
f 89//89 90//90 96//96 95//95
f 90//90 91//91 97//97 96//96
f 91//91 92//92 98//98 97//97
f 92//92 87//87 93//93 98//98
f 100//100 105//105 99//99
f 101//101 105//105 100//100
f 102//102 105//105 101//101
f 103//103 105//105 102//102
f 104//104 105//105 103//103
f 99//99 105//105 104//104
f 107//107 112//112 106//106
f 108//108 112//112 107//107
f 109//109 112//112 108//108
f 110//110 112//112 109//109
f 111//111 112//112 110//110
f 106//106 112//112 111//111
g part2
usemtl teeth
v -0.02125 0.53603 0.10898
v -0.02223 0.53446 0.11521
v -0.02766 0.53132 0.11695
v -0.03209 0.52975 0.11247
v -0.03110 0.53132 0.10624
v -0.02568 0.53446 0.10449
v -0.01468 0.52350 0.10687
v -0.01563 0.52187 0.11309
v -0.02095 0.51855 0.11480
v -0.02532 0.51686 0.11029
v -0.02437 0.51849 0.10407
v -0.01905 0.52181 0.10236
v -0.00858 0.51358 0.10507
v -0.00930 0.51162 0.11122
v -0.01405 0.50746 0.11278
v -0.01808 0.50526 0.10817
v -0.01736 0.50722 0.10202
v -0.01261 0.51138 0.10046
v -0.00363 0.50916 0.10361
v -0.00378 0.50683 0.10967
v -0.00682 0.50122 0.11092
v -0.00971 0.49795 0.10611
v -0.00955 0.50028 0.10004
v -0.00652 0.50589 0.09879
v -0.00000 0.50794 0.10253
v -0.00000 0.50600 0.10873
v 0.00000 0.49965 0.11014
v 0.00000 0.49526 0.10536
v 0.00000 0.49720 0.09915
v -0.00000 0.50355 0.09774
v 0.00389 0.50903 0.10272
v 0.00354 0.50746 0.10901
v 0.00632 0.50198 0.11115
v 0.00945 0.49808 0.10700
v 0.00979 0.49966 0.10070
v 0.00701 0.50513 0.09856
v 0.00901 0.51349 0.10397
v 0.00880 0.51222 0.11034
v 0.01313 0.50816 0.11299
v 0.01766 0.50536 0.10927
v 0.01787 0.50662 0.10290
v 0.01354 0.51068 0.10025
v 0.01514 0.52343 0.10575
v 0.01504 0.52237 0.11216
v 0.01990 0.51911 0.11499
v 0.02486 0.51692 0.11141
v 0.02496 0.51798 0.10500
v 0.02010 0.52124 0.10217
v 0.02171 0.53597 0.10786
v 0.02162 0.53493 0.11428
v 0.02658 0.53185 0.11714
v 0.03162 0.52981 0.11359
v 0.03171 0.53084 0.10717
v 0.02675 0.53392 0.10431
v -0.02125 0.53603 0.10898
v -0.02223 0.53446 0.11521
v -0.02766 0.53132 0.11695
v -0.03209 0.52975 0.11247
v -0.03110 0.53132 0.10624
v -0.02568 0.53446 0.10449
v -0.02667 0.53289 0.11072
v 0.02171 0.53597 0.10786
v 0.02162 0.53493 0.11428
v 0.02658 0.53185 0.11714
v 0.03162 0.52981 0.11359
v 0.03171 0.53084 0.10717
v 0.02675 0.53392 0.10431
v 0.02667 0.53289 0.11072
vn 0.8340 0.4823 -0.2679
vn 0.6819 0.2412 0.6906
vn -0.1521 -0.2413 0.9585
vn -0.8338 -0.4827 0.2679
vn -0.6818 -0.2413 -0.6906
vn 0.1521 0.2412 -0.9585
vn 0.8198 0.5084 -0.2635
vn 0.6721 0.2593 0.6936
vn -0.1466 -0.2512 0.9568
vn -0.8170 -0.5133 0.2627
vn -0.6711 -0.2611 -0.6939
vn 0.1470 0.2504 -0.9569
vn 0.7410 0.6264 -0.2419
vn 0.6249 0.3320 0.7066
vn -0.1102 -0.3020 0.9469
vn -0.7228 -0.6492 0.2368
vn -0.6155 -0.3437 -0.7092
vn 0.1116 0.3003 -0.9473
vn 0.4964 0.8452 -0.1979
vn 0.4854 0.4787 0.7316
vn -0.0245 -0.3584 0.9332
vn -0.4528 -0.8713 0.1892
vn -0.4212 -0.5170 -0.7452
vn 0.0221 0.3598 -0.9328
vn -0.0080 0.9761 -0.2174
vn 0.0084 0.6763 0.7366
vn 0.0005 -0.2998 0.9540
vn -0.0032 -0.9761 0.2174
vn 0.0032 -0.6763 -0.7366
vn 0.0004 0.2998 -0.9540
vn -0.4544 0.8256 -0.3345
vn -0.5220 0.5746 0.6304
vn -0.0533 -0.2421 0.9688
vn 0.4138 -0.8498 0.3264
vn 0.4579 -0.6129 -0.6439
vn 0.0521 0.2414 -0.9690
vn -0.6747 0.6134 -0.4104
vn -0.7043 0.4223 0.5706
vn -0.0321 -0.1943 0.9804
vn 0.6584 -0.6339 0.4059
vn 0.6918 -0.4379 -0.5741
vn 0.0318 0.1940 -0.9805
vn -0.7491 0.4987 -0.4360
vn -0.7642 0.3360 0.5506
vn -0.0156 -0.1638 0.9864
vn 0.7466 -0.5032 0.4352
vn 0.7627 -0.3387 -0.5511
vn 0.0155 0.1636 -0.9864
vn -0.7626 0.4739 -0.4404
vn -0.7759 0.3147 0.5468
vn -0.0134 -0.1593 0.9871
vn 0.7624 -0.4743 0.4403
vn 0.7758 -0.3149 -0.5468
vn 0.0134 0.1593 -0.9871
vn -0.4594 0.8759 0.1476
vn -0.4594 0.8759 0.1476
vn -0.4594 0.8759 0.1476
vn -0.4594 0.8759 0.1476
vn -0.4594 0.8759 0.1476
vn -0.4594 0.8759 0.1476
vn -0.4594 0.8759 0.1476
vn 0.4594 0.8759 0.1476
vn 0.4594 0.8759 0.1476
vn 0.4594 0.8759 0.1476
vn 0.4594 0.8759 0.1476
vn 0.4594 0.8759 0.1476
vn 0.4594 0.8759 0.1476
vn 0.4594 0.8759 0.1476
f 113//113 114//114 120//120 119//119
f 114//114 115//115 121//121 120//120
f 115//115 116//116 122//122 121//121
f 116//116 117//117 123//123 122//122
f 117//117 118//118 124//124 123//123
f 118//118 113//113 119//119 124//124
f 119//119 120//120 126//126 125//125
f 120//120 121//121 127//127 126//126
f 121//121 122//122 128//128 127//127
f 122//122 123//123 129//129 128//128
f 123//123 124//124 130//130 129//129
f 124//124 119//119 125//125 130//130
f 125//125 126//126 132//132 131//131
f 126//126 127//127 133//133 132//132
f 127//127 128//128 134//134 133//133
f 128//128 129//129 135//135 134//134
f 129//129 130//130 136//136 135//135
f 130//130 125//125 131//131 136//136
f 131//131 132//132 138//138 137//137
f 132//132 133//133 139//139 138//138
f 133//133 134//134 140//140 139//139
f 134//134 135//135 141//141 140//140
f 135//135 136//136 142//142 141//141
f 136//136 131//131 137//137 142//142
f 137//137 138//138 144//144 143//143
f 138//138 139//139 145//145 144//144
f 139//139 140//140 146//146 145//145
f 140//140 141//141 147//147 146//146
f 141//141 142//142 148//148 147//147
f 142//142 137//137 143//143 148//148
f 143//143 144//144 150//150 149//149
f 144//144 145//145 151//151 150//150
f 145//145 146//146 152//152 151//151
f 146//146 147//147 153//153 152//152
f 147//147 148//148 154//154 153//153
f 148//148 143//143 149//149 154//154
f 149//149 150//150 156//156 155//155
f 150//150 151//151 157//157 156//156
f 151//151 152//152 158//158 157//157
f 152//152 153//153 159//159 158//158
f 153//153 154//154 160//160 159//159
f 154//154 149//149 155//155 160//160
f 155//155 156//156 162//162 161//161
f 156//156 157//157 163//163 162//162
f 157//157 158//158 164//164 163//163
f 158//158 159//159 165//165 164//164
f 159//159 160//160 166//166 165//165
f 160//160 155//155 161//161 166//166
f 168//168 173//173 167//167
f 169//169 173//173 168//168
f 170//170 173//173 169//169
f 171//171 173//173 170//170
f 172//172 173//173 171//171
f 167//167 173//173 172//172
f 175//175 180//180 174//174
f 176//176 180//180 175//175
f 177//177 180//180 176//176
f 178//178 180//180 177//177
f 179//179 180//180 178//178
f 174//174 180//180 179//179
g part3
usemtl mouth
v -0.04019 0.57097 0.10970
v -0.04355 0.56956 0.10762
v -0.04336 0.56899 0.10346
v -0.03981 0.56983 0.10139
v -0.03645 0.57124 0.10346
v -0.03664 0.57181 0.10762
v -0.03575 0.55739 0.11204
v -0.03934 0.55588 0.10983
v -0.03914 0.55528 0.10540
v -0.03536 0.55617 0.10318
v -0.03177 0.55768 0.10540
v -0.03197 0.55829 0.10983
v -0.03128 0.54369 0.11441
v -0.03508 0.54207 0.11206
v -0.03492 0.54155 0.10733
v -0.03094 0.54265 0.10496
v -0.02714 0.54426 0.10731
v -0.02731 0.54478 0.11204
v -0.02665 0.53137 0.11572
v -0.03066 0.52967 0.11326
v -0.03068 0.52959 0.10827
v -0.02669 0.53121 0.10572
v -0.02268 0.53291 0.10818
v -0.02266 0.53299 0.11318
v -0.02187 0.52117 0.11514
v -0.02605 0.51939 0.11262
v -0.02640 0.51996 0.10746
v -0.02257 0.52229 0.10484
v -0.01839 0.52406 0.10737
v -0.01804 0.52350 0.11252
v -0.01721 0.51300 0.11348
v -0.02140 0.51095 0.11084
v -0.02197 0.51186 0.10559
v -0.01835 0.51481 0.10298
v -0.01415 0.51686 0.10561
v -0.01358 0.51595 0.11086
v -0.01274 0.50688 0.11201
v -0.01668 0.50428 0.10918
v -0.01727 0.50523 0.10379
v -0.01393 0.50876 0.10123
v -0.00999 0.51136 0.10406
v -0.00940 0.51042 0.10945
v -0.00827 0.50250 0.11094
v -0.01163 0.49919 0.10785
v -0.01225 0.50017 0.10234
v -0.00951 0.50445 0.09991
v -0.00615 0.50776 0.10299
v -0.00553 0.50678 0.10851
v -0.00388 0.49990 0.11003
v -0.00605 0.49581 0.10661
v -0.00661 0.49678 0.10097
v -0.00501 0.50184 0.09874
v -0.00284 0.50592 0.10216
v -0.00228 0.50496 0.10780
v 0.00000 0.49902 0.10966
v 0.00000 0.49456 0.10595
v 0.00000 0.49554 0.10024
v -0.00000 0.50098 0.09823
v -0.00000 0.50544 0.10193
v -0.00000 0.50446 0.10765
v 0.00396 0.49971 0.11000
v 0.00611 0.49575 0.10641
v 0.00659 0.49691 0.10080
v 0.00492 0.50203 0.09877
v 0.00278 0.50599 0.10236
v 0.00230 0.50482 0.10797
v 0.00841 0.50233 0.11092
v 0.01172 0.49914 0.10765
v 0.01220 0.50029 0.10216
v 0.00937 0.50463 0.09993
v 0.00606 0.50781 0.10319
v 0.00558 0.50666 0.10869
v 0.01290 0.50675 0.11200
v 0.01678 0.50425 0.10899
v 0.01721 0.50533 0.10362
v 0.01377 0.50890 0.10124
v 0.00989 0.51139 0.10424
v 0.00946 0.51032 0.10962
v 0.01738 0.51289 0.11347
v 0.02151 0.51093 0.11067
v 0.02190 0.51195 0.10542
v 0.01818 0.51492 0.10298
v 0.01405 0.51688 0.10578
v 0.01365 0.51586 0.11103
v 0.02201 0.52109 0.11514
v 0.02613 0.51937 0.11248
v 0.02634 0.52001 0.10733
v 0.02243 0.52236 0.10484
v 0.01832 0.52408 0.10750
v 0.01811 0.52345 0.11266
v 0.02674 0.53133 0.11572
v 0.03070 0.52965 0.11318
v 0.03063 0.52961 0.10818
v 0.02660 0.53125 0.10572
v 0.02263 0.53293 0.10827
v 0.02270 0.53297 0.11327
v 0.03134 0.54366 0.11441
v 0.03511 0.54206 0.11200
v 0.03488 0.54156 0.10728
v 0.03088 0.54267 0.10496
v 0.02711 0.54428 0.10737
v 0.02734 0.54478 0.11209
v 0.03581 0.55737 0.11204
v 0.03937 0.55587 0.10978
v 0.03911 0.55528 0.10535
v 0.03530 0.55619 0.10318
v 0.03174 0.55770 0.10545
v 0.03200 0.55829 0.10988
v 0.04024 0.57095 0.10970
v 0.04357 0.56954 0.10757
v 0.04334 0.56899 0.10342
v 0.03976 0.56985 0.10139
v 0.03643 0.57126 0.10351
v 0.03666 0.57181 0.10767
v -0.04019 0.57097 0.10970
v -0.04355 0.56956 0.10762
v -0.04336 0.56899 0.10346
v -0.03981 0.56983 0.10139
v -0.03645 0.57124 0.10346
v -0.03664 0.57181 0.10762
v -0.04000 0.57040 0.10554
v 0.04024 0.57095 0.10970
v 0.04357 0.56954 0.10757
v 0.04334 0.56899 0.10342
v 0.03976 0.56985 0.10139
v 0.03643 0.57126 0.10351
v 0.03666 0.57181 0.10767
v 0.04000 0.57040 0.10554
vn -0.0503 0.1541 0.9868
vn -0.8512 -0.1826 0.4920
vn -0.8068 -0.3186 -0.4975
vn 0.0385 -0.1180 -0.9923
vn 0.8394 0.2187 -0.4975
vn 0.7950 0.3547 0.4920
vn -0.0502 0.1539 0.9868
vn -0.8512 -0.1828 0.4920
vn -0.8068 -0.3186 -0.4975
vn 0.0385 -0.1180 -0.9923
vn 0.8394 0.2187 -0.4975
vn 0.7950 0.3548 0.4920
vn -0.0408 0.1258 0.9912
vn -0.8411 -0.2135 0.4970
vn -0.8065 -0.3213 -0.4964
vn 0.0288 -0.0914 -0.9954
vn 0.8290 0.2479 -0.5012
vn 0.7939 0.3573 0.4920
vn -0.0028 0.0315 0.9995
vn -0.8045 -0.3080 0.5079
vn -0.8090 -0.3219 -0.4919
vn -0.0109 0.0016 -0.9999
vn 0.7908 0.3410 -0.5083
vn 0.7944 0.3570 0.4914
vn 0.0587 -0.0914 0.9941
vn -0.7447 -0.4338 0.5072
vn -0.8120 -0.3255 -0.4845
vn -0.0768 0.1268 -0.9889
vn 0.7276 0.4671 -0.5024
vn 0.7958 0.3572 0.4890
vn 0.0967 -0.1543 0.9833
vn -0.6853 -0.5371 0.4918
vn -0.7911 -0.3687 -0.4881
vn -0.1166 0.1854 -0.9757
vn 0.6662 0.5669 -0.4845
vn 0.7739 0.3955 0.4946
vn 0.0953 -0.1564 0.9831
vn -0.6175 -0.6322 0.4680
vn -0.7255 -0.4609 -0.5112
vn -0.1205 0.1860 -0.9751
vn 0.5962 0.6571 -0.4613
vn 0.7040 0.4860 0.5179
vn 0.0935 -0.1599 0.9827
vn -0.4953 -0.7528 0.4335
vn -0.6044 -0.5807 -0.5454
vn -0.1272 0.1863 -0.9742
vn 0.4723 0.7707 -0.4277
vn 0.5846 0.5961 0.5504
vn 0.0838 -0.1628 0.9831
vn -0.2857 -0.8763 0.3879
vn -0.3714 -0.7128 -0.5950
vn -0.1098 0.1730 -0.9788
vn 0.2671 0.8835 -0.3848
vn 0.3889 0.7059 0.5920
vn -0.0005 -0.1690 0.9856
vn 0.0007 -0.9381 0.3464
vn -0.0004 -0.7691 -0.6392
vn -0.0004 0.1690 -0.9856
vn 0.0015 0.9381 -0.3464
vn -0.0011 0.7691 0.6392
vn -0.0693 -0.1968 0.9780
vn 0.2956 -0.8874 0.3537
vn 0.3670 -0.6898 -0.6241
vn 0.0960 0.2072 -0.9736
vn -0.2772 0.8946 -0.3506
vn -0.3851 0.6827 0.6210
vn -0.0687 -0.1908 0.9792
vn 0.5108 -0.7620 0.3981
vn 0.5956 -0.5586 -0.5773
vn 0.1025 0.2173 -0.9707
vn -0.4884 0.7794 -0.3924
vn -0.5752 0.5744 0.5824
vn -0.0660 -0.1811 0.9813
vn 0.6352 -0.6385 0.4346
vn 0.7140 -0.4424 -0.5427
vn 0.0912 0.2106 -0.9733
vn -0.6141 0.6632 -0.4279
vn -0.6923 0.4677 0.5495
vn -0.0649 -0.1744 0.9825
vn 0.7042 -0.5414 0.4594
vn 0.7782 -0.3527 -0.5197
vn 0.0849 0.2057 -0.9749
vn -0.6852 0.5710 -0.4522
vn -0.7610 0.3795 0.5262
vn -0.0314 -0.1054 0.9939
vn 0.7597 -0.4377 0.4808
vn 0.7998 -0.3154 -0.5107
vn 0.0495 0.1408 -0.9888
vn -0.7427 0.4710 -0.4760
vn -0.7835 0.3472 0.5152
vn 0.0207 0.0240 0.9995
vn 0.8134 -0.3118 0.4910
vn 0.7999 -0.3184 -0.5087
vn -0.0070 0.0090 -0.9999
vn -0.7997 0.3449 -0.4915
vn -0.7854 0.3534 0.5082
vn 0.0537 0.1213 0.9912
vn 0.8470 -0.2169 0.4853
vn 0.7996 -0.3203 -0.5080
vn -0.0417 -0.0869 -0.9953
vn -0.8349 0.2514 -0.4895
vn -0.7870 0.3563 0.5036
vn 0.0626 0.1499 0.9867
vn 0.8568 -0.1863 0.4809
vn 0.8001 -0.3181 -0.5086
vn -0.0509 -0.1139 -0.9922
vn -0.8450 0.2223 -0.4863
vn -0.7883 0.3542 0.5031
vn 0.0627 0.1500 0.9867
vn 0.8568 -0.1861 0.4808
vn 0.8001 -0.3181 -0.5086
vn -0.0509 -0.1139 -0.9922
vn -0.8450 0.2222 -0.4863
vn -0.7883 0.3542 0.5031
vn -0.3071 0.9409 -0.1431
vn -0.3071 0.9409 -0.1431
vn -0.3071 0.9409 -0.1431
vn -0.3071 0.9409 -0.1431
vn -0.3071 0.9409 -0.1431
vn -0.3071 0.9409 -0.1431
vn -0.3071 0.9409 -0.1431
vn 0.3071 0.9409 -0.1431
vn 0.3071 0.9409 -0.1431
vn 0.3071 0.9409 -0.1431
vn 0.3071 0.9409 -0.1431
vn 0.3071 0.9409 -0.1431
vn 0.3071 0.9409 -0.1431
vn 0.3071 0.9409 -0.1431
f 181//181 182//182 188//188 187//187
f 182//182 183//183 189//189 188//188
f 183//183 184//184 190//190 189//189
f 184//184 185//185 191//191 190//190
f 185//185 186//186 192//192 191//191
f 186//186 181//181 187//187 192//192
f 187//187 188//188 194//194 193//193
f 188//188 189//189 195//195 194//194
f 189//189 190//190 196//196 195//195
f 190//190 191//191 197//197 196//196
f 191//191 192//192 198//198 197//197
f 192//192 187//187 193//193 198//198
f 193//193 194//194 200//200 199//199
f 194//194 195//195 201//201 200//200
f 195//195 196//196 202//202 201//201
f 196//196 197//197 203//203 202//202
f 197//197 198//198 204//204 203//203
f 198//198 193//193 199//199 204//204
f 199//199 200//200 206//206 205//205
f 200//200 201//201 207//207 206//206
f 201//201 202//202 208//208 207//207
f 202//202 203//203 209//209 208//208
f 203//203 204//204 210//210 209//209
f 204//204 199//199 205//205 210//210
f 205//205 206//206 212//212 211//211
f 206//206 207//207 213//213 212//212
f 207//207 208//208 214//214 213//213
f 208//208 209//209 215//215 214//214
f 209//209 210//210 216//216 215//215
f 210//210 205//205 211//211 216//216
f 211//211 212//212 218//218 217//217
f 212//212 213//213 219//219 218//218
f 213//213 214//214 220//220 219//219
f 214//214 215//215 221//221 220//220
f 215//215 216//216 222//222 221//221
f 216//216 211//211 217//217 222//222
f 217//217 218//218 224//224 223//223
f 218//218 219//219 225//225 224//224
f 219//219 220//220 226//226 225//225
f 220//220 221//221 227//227 226//226
f 221//221 222//222 228//228 227//227
f 222//222 217//217 223//223 228//228
f 223//223 224//224 230//230 229//229
f 224//224 225//225 231//231 230//230
f 225//225 226//226 232//232 231//231
f 226//226 227//227 233//233 232//232
f 227//227 228//228 234//234 233//233
f 228//228 223//223 229//229 234//234
f 229//229 230//230 236//236 235//235
f 230//230 231//231 237//237 236//236
f 231//231 232//232 238//238 237//237
f 232//232 233//233 239//239 238//238
f 233//233 234//234 240//240 239//239
f 234//234 229//229 235//235 240//240
f 235//235 236//236 242//242 241//241
f 236//236 237//237 243//243 242//242
f 237//237 238//238 244//244 243//243
f 238//238 239//239 245//245 244//244
f 239//239 240//240 246//246 245//245
f 240//240 235//235 241//241 246//246
f 241//241 242//242 248//248 247//247
f 242//242 243//243 249//249 248//248
f 243//243 244//244 250//250 249//249
f 244//244 245//245 251//251 250//250
f 245//245 246//246 252//252 251//251
f 246//246 241//241 247//247 252//252
f 247//247 248//248 254//254 253//253
f 248//248 249//249 255//255 254//254
f 249//249 250//250 256//256 255//255
f 250//250 251//251 257//257 256//256
f 251//251 252//252 258//258 257//257
f 252//252 247//247 253//253 258//258
f 253//253 254//254 260//260 259//259
f 254//254 255//255 261//261 260//260
f 255//255 256//256 262//262 261//261
f 256//256 257//257 263//263 262//262
f 257//257 258//258 264//264 263//263
f 258//258 253//253 259//259 264//264
f 259//259 260//260 266//266 265//265
f 260//260 261//261 267//267 266//266
f 261//261 262//262 268//268 267//267
f 262//262 263//263 269//269 268//268
f 263//263 264//264 270//270 269//269
f 264//264 259//259 265//265 270//270
f 265//265 266//266 272//272 271//271
f 266//266 267//267 273//273 272//272
f 267//267 268//268 274//274 273//273
f 268//268 269//269 275//275 274//274
f 269//269 270//270 276//276 275//275
f 270//270 265//265 271//271 276//276
f 271//271 272//272 278//278 277//277
f 272//272 273//273 279//279 278//278
f 273//273 274//274 280//280 279//279
f 274//274 275//275 281//281 280//280
f 275//275 276//276 282//282 281//281
f 276//276 271//271 277//277 282//282
f 277//277 278//278 284//284 283//283
f 278//278 279//279 285//285 284//284
f 279//279 280//280 286//286 285//285
f 280//280 281//281 287//287 286//286
f 281//281 282//282 288//288 287//287
f 282//282 277//277 283//283 288//288
f 283//283 284//284 290//290 289//289
f 284//284 285//285 291//291 290//290
f 285//285 286//286 292//292 291//291
f 286//286 287//287 293//293 292//292
f 287//287 288//288 294//294 293//293
f 288//288 283//283 289//289 294//294
f 296//296 301//301 295//295
f 297//297 301//301 296//296
f 298//298 301//301 297//297
f 299//299 301//301 298//298
f 300//300 301//301 299//299
f 295//295 301//301 300//300
f 303//303 308//308 302//302
f 304//304 308//308 303//303
f 305//305 308//308 304//304
f 306//306 308//308 305//305
f 307//307 308//308 306//306
f 302//302 308//308 307//307
