# generated by a generate_*.py
mtllib gnome.mtl
o gnome_face_0
g part0
usemtl eye_white
v 0.04000 0.58500 0.10292
v 0.04000 0.58500 0.10292
v 0.04000 0.58500 0.10292
v 0.04000 0.58500 0.10292
v 0.04000 0.58500 0.10292
v 0.04000 0.58500 0.10292
v 0.04000 0.58500 0.10292
v 0.04000 0.58500 0.10292
v 0.04000 0.58500 0.10292
v 0.04000 0.58500 0.10292
v 0.04000 0.58500 0.10292
v 0.04000 0.58500 0.10292
v 0.04000 0.58325 0.10636
v 0.04364 0.58325 0.10590
v 0.04630 0.58325 0.10464
v 0.04727 0.58325 0.10292
v 0.04630 0.58325 0.10119
v 0.04364 0.58325 0.09993
v 0.04000 0.58325 0.09947
v 0.03636 0.58325 0.09993
v 0.03370 0.58325 0.10119
v 0.03273 0.58325 0.10292
v 0.03370 0.58325 0.10464
v 0.03636 0.58325 0.10590
v 0.04000 0.57826 0.10928
v 0.04672 0.57826 0.10843
v 0.05164 0.57826 0.10610
v 0.05344 0.57826 0.10292
v 0.05164 0.57826 0.09973
v 0.04672 0.57826 0.09740
v 0.04000 0.57826 0.09655
v 0.03328 0.57826 0.09740
v 0.02836 0.57826 0.09973
v 0.02656 0.57826 0.10292
v 0.02836 0.57826 0.10610
v 0.03328 0.57826 0.10843
v 0.04000 0.57080 0.11123
v 0.04878 0.57080 0.11012
v 0.05520 0.57080 0.10707
v 0.05755 0.57080 0.10292
v 0.05520 0.57080 0.09876
v 0.04878 0.57080 0.09571
v 0.04000 0.57080 0.09460
v 0.03122 0.57080 0.09571
v 0.02480 0.57080 0.09876
v 0.02245 0.57080 0.10292
v 0.02480 0.57080 0.10707
v 0.03122 0.57080 0.11012
v 0.04000 0.56200 0.11192
v 0.04950 0.56200 0.11071
v 0.05645 0.56200 0.10742
v 0.05900 0.56200 0.10292
v 0.05645 0.56200 0.09842
v 0.04950 0.56200 0.09512
v 0.04000 0.56200 0.09392
v 0.03050 0.56200 0.09512
v 0.02355 0.56200 0.09842
v 0.02100 0.56200 0.10292
v 0.02355 0.56200 0.10742
v 0.03050 0.56200 0.11071
v 0.04000 0.55320 0.11123
v 0.04878 0.55320 0.11012
v 0.05520 0.55320 0.10707
v 0.05755 0.55320 0.10292
v 0.05520 0.55320 0.09876
v 0.04878 0.55320 0.09571
v 0.04000 0.55320 0.09460
v 0.03122 0.55320 0.09571
v 0.02480 0.55320 0.09876
v 0.02245 0.55320 0.10292
v 0.02480 0.55320 0.10707
v 0.03122 0.55320 0.11012
v 0.04000 0.54574 0.10928
v 0.04672 0.54574 0.10843
v 0.05164 0.54574 0.10610
v 0.05344 0.54574 0.10292
v 0.05164 0.54574 0.09973
v 0.04672 0.54574 0.09740
v 0.04000 0.54574 0.09655
v 0.03328 0.54574 0.09740
v 0.02836 0.54574 0.09973
v 0.02656 0.54574 0.10292
v 0.02836 0.54574 0.10610
v 0.03328 0.54574 0.10843
v 0.04000 0.54075 0.10636
v 0.04364 0.54075 0.10590
v 0.04630 0.54075 0.10464
v 0.04727 0.54075 0.10292
v 0.04630 0.54075 0.10119
v 0.04364 0.54075 0.09993
v 0.04000 0.54075 0.09947
v 0.03636 0.54075 0.09993
v 0.03370 0.54075 0.10119
v 0.03273 0.54075 0.10292
v 0.03370 0.54075 0.10464
v 0.03636 0.54075 0.10590
v 0.04000 0.53900 0.10292
v 0.04000 0.53900 0.10292
v 0.04000 0.53900 0.10292
v 0.04000 0.53900 0.10292
v 0.04000 0.53900 0.10292
v 0.04000 0.53900 0.10292
v 0.04000 0.53900 0.10292
v 0.04000 0.53900 0.10292
v 0.04000 0.53900 0.10292
v 0.04000 0.53900 0.10292
v 0.04000 0.53900 0.10292
v 0.04000 0.53900 0.10292
vn 0.0000 1.0000 0.0000
vn 0.0000 1.0000 0.0000
vn 0.0000 1.0000 0.0000
vn 0.0000 1.0000 0.0000
vn 0.0000 1.0000 -0.0000
vn 0.0000 1.0000 -0.0000
vn 0.0000 1.0000 -0.0000
vn -0.0000 1.0000 -0.0000
vn -0.0000 1.0000 -0.0000
vn -0.0000 1.0000 -0.0000
vn -0.0000 1.0000 0.0000
vn -0.0000 1.0000 0.0000
vn 0.0000 0.6867 0.7269
vn 0.1817 0.7249 0.6645
vn 0.3583 0.8252 0.4367
vn 0.4482 0.8939 0.0000
vn 0.3583 0.8252 -0.4367
vn 0.1817 0.7249 -0.6645
vn 0.0000 0.6867 -0.7269
vn -0.1817 0.7249 -0.6645
vn -0.3583 0.8252 -0.4367
vn -0.4482 0.8939 -0.0000
vn -0.3583 0.8252 0.4367
vn -0.1817 0.7249 0.6645
vn 0.0000 0.3644 0.9312
vn 0.2418 0.3995 0.8842
vn 0.5427 0.5177 0.6615
vn 0.7710 0.6369 0.0000
vn 0.5427 0.5177 -0.6615
vn 0.2418 0.3995 -0.8842
vn 0.0000 0.3644 -0.9312
vn -0.2418 0.3995 -0.8842
vn -0.5427 0.5177 -0.6615
vn -0.7710 0.6369 -0.0000
vn -0.5427 0.5177 0.6615
vn -0.2418 0.3995 0.8842
vn 0.0000 0.1600 0.9871
vn 0.2596 0.1777 0.9492
vn 0.6153 0.2431 0.7499
vn 0.9461 0.3237 0.0000
vn 0.6153 0.2431 -0.7499
vn 0.2596 0.1777 -0.9492
vn 0.0000 0.1600 -0.9871
vn -0.2596 0.1777 -0.9492
vn -0.6153 0.2431 -0.7499
vn -0.9461 0.3237 -0.0000
vn -0.6153 0.2431 0.7499
vn -0.2596 0.1777 0.9492
vn 0.0000 0.0000 1.0000
vn 0.2638 0.0000 0.9646
vn 0.6343 0.0000 0.7731
vn 1.0000 0.0000 0.0000
vn 0.6343 0.0000 -0.7731
vn 0.2638 0.0000 -0.9646
vn 0.0000 0.0000 -1.0000
vn -0.2638 0.0000 -0.9646
vn -0.6343 0.0000 -0.7731
vn -1.0000 0.0000 -0.0000
vn -0.6343 0.0000 0.7731
vn -0.2638 0.0000 0.9646
vn 0.0000 -0.1600 0.9871
vn 0.2596 -0.1777 0.9492
vn 0.6153 -0.2431 0.7499
vn 0.9461 -0.3237 0.0000
vn 0.6153 -0.2431 -0.7499
vn 0.2596 -0.1777 -0.9492
vn 0.0000 -0.1600 -0.9871
vn -0.2596 -0.1777 -0.9492
vn -0.6153 -0.2431 -0.7499
vn -0.9461 -0.3237 -0.0000
vn -0.6153 -0.2431 0.7499
vn -0.2596 -0.1777 0.9492
vn 0.0000 -0.3644 0.9312
vn 0.2418 -0.3995 0.8842
vn 0.5427 -0.5177 0.6615
vn 0.7710 -0.6369 0.0000
vn 0.5427 -0.5177 -0.6615
vn 0.2418 -0.3995 -0.8842
vn 0.0000 -0.3644 -0.9312
vn -0.2418 -0.3995 -0.8842
vn -0.5427 -0.5177 -0.6615
vn -0.7710 -0.6369 -0.0000
vn -0.5427 -0.5177 0.6615
vn -0.2418 -0.3995 0.8842
vn 0.0000 -0.6867 0.7269
vn 0.1817 -0.7249 0.6645
vn 0.3583 -0.8252 0.4367
vn 0.4482 -0.8939 0.0000
vn 0.3583 -0.8252 -0.4367
vn 0.1817 -0.7249 -0.6645
vn 0.0000 -0.6867 -0.7269
vn -0.1817 -0.7249 -0.6645
vn -0.3583 -0.8252 -0.4367
vn -0.4482 -0.8939 -0.0000
vn -0.3583 -0.8252 0.4367
vn -0.1817 -0.7249 0.6645
vn 0.0000 -1.0000 0.0000
vn 0.0000 -1.0000 0.0000
vn 0.0000 -1.0000 0.0000
vn 0.0000 -1.0000 0.0000
vn 0.0000 -1.0000 -0.0000
vn 0.0000 -1.0000 -0.0000
vn 0.0000 -1.0000 -0.0000
vn -0.0000 -1.0000 -0.0000
vn -0.0000 -1.0000 -0.0000
vn -0.0000 -1.0000 -0.0000
vn -0.0000 -1.0000 0.0000
vn -0.0000 -1.0000 0.0000
f 13//13 14//14 2//2 1//1
f 14//14 15//15 3//3 2//2
f 15//15 16//16 4//4 3//3
f 16//16 17//17 5//5 4//4
f 17//17 18//18 6//6 5//5
f 18//18 19//19 7//7 6//6
f 19//19 20//20 8//8 7//7
f 20//20 21//21 9//9 8//8
f 21//21 22//22 10//10 9//9
f 22//22 23//23 11//11 10//10
f 23//23 24//24 12//12 11//11
f 24//24 13//13 1//1 12//12
f 25//25 26//26 14//14 13//13
f 26//26 27//27 15//15 14//14
f 27//27 28//28 16//16 15//15
f 28//28 29//29 17//17 16//16
f 29//29 30//30 18//18 17//17
f 30//30 31//31 19//19 18//18
f 31//31 32//32 20//20 19//19
f 32//32 33//33 21//21 20//20
f 33//33 34//34 22//22 21//21
f 34//34 35//35 23//23 22//22
f 35//35 36//36 24//24 23//23
f 36//36 25//25 13//13 24//24
f 37//37 38//38 26//26 25//25
f 38//38 39//39 27//27 26//26
f 39//39 40//40 28//28 27//27
f 40//40 41//41 29//29 28//28
f 41//41 42//42 30//30 29//29
f 42//42 43//43 31//31 30//30
f 43//43 44//44 32//32 31//31
f 44//44 45//45 33//33 32//32
f 45//45 46//46 34//34 33//33
f 46//46 47//47 35//35 34//34
f 47//47 48//48 36//36 35//35
f 48//48 37//37 25//25 36//36
f 49//49 50//50 38//38 37//37
f 50//50 51//51 39//39 38//38
f 51//51 52//52 40//40 39//39
f 52//52 53//53 41//41 40//40
f 53//53 54//54 42//42 41//41
f 54//54 55//55 43//43 42//42
f 55//55 56//56 44//44 43//43
f 56//56 57//57 45//45 44//44
f 57//57 58//58 46//46 45//45
f 58//58 59//59 47//47 46//46
f 59//59 60//60 48//48 47//47
f 60//60 49//49 37//37 48//48
f 61//61 62//62 50//50 49//49
f 62//62 63//63 51//51 50//50
f 63//63 64//64 52//52 51//51
f 64//64 65//65 53//53 52//52
f 65//65 66//66 54//54 53//53
f 66//66 67//67 55//55 54//54
f 67//67 68//68 56//56 55//55
f 68//68 69//69 57//57 56//56
f 69//69 70//70 58//58 57//57
f 70//70 71//71 59//59 58//58
f 71//71 72//72 60//60 59//59
f 72//72 61//61 49//49 60//60
f 73//73 74//74 62//62 61//61
f 74//74 75//75 63//63 62//62
f 75//75 76//76 64//64 63//63
f 76//76 77//77 65//65 64//64
f 77//77 78//78 66//66 65//65
f 78//78 79//79 67//67 66//66
f 79//79 80//80 68//68 67//67
f 80//80 81//81 69//69 68//68
f 81//81 82//82 70//70 69//69
f 82//82 83//83 71//71 70//70
f 83//83 84//84 72//72 71//71
f 84//84 73//73 61//61 72//72
f 85//85 86//86 74//74 73//73
f 86//86 87//87 75//75 74//74
f 87//87 88//88 76//76 75//75
f 88//88 89//89 77//77 76//76
f 89//89 90//90 78//78 77//77
f 90//90 91//91 79//79 78//78
f 91//91 92//92 80//80 79//79
f 92//92 93//93 81//81 80//80
f 93//93 94//94 82//82 81//81
f 94//94 95//95 83//83 82//82
f 95//95 96//96 84//84 83//83
f 96//96 85//85 73//73 84//84
f 97//97 98//98 86//86 85//85
f 98//98 99//99 87//87 86//86
f 99//99 100//100 88//88 87//87
f 100//100 101//101 89//89 88//88
f 101//101 102//102 90//90 89//89
f 102//102 103//103 91//91 90//90
f 103//103 104//104 92//92 91//91
f 104//104 105//105 93//93 92//92
f 105//105 106//106 94//94 93//93
f 106//106 107//107 95//95 94//94
f 107//107 108//108 96//96 95//95
f 108//108 97//97 85//85 96//96
g part1
usemtl pupil
v 0.04000 0.57440 0.10914
v 0.04000 0.57440 0.10914
v 0.04000 0.57440 0.10914
v 0.04000 0.57440 0.10914
v 0.04000 0.57440 0.10914
v 0.04000 0.57440 0.10914
v 0.04000 0.57440 0.10914
v 0.04000 0.57440 0.10914
v 0.04000 0.57247 0.11114
v 0.04424 0.57247 0.11055
v 0.04600 0.57247 0.10914
v 0.04424 0.57247 0.10772
v 0.04000 0.57247 0.10714
v 0.03576 0.57247 0.10772
v 0.03400 0.57247 0.10914
v 0.03576 0.57247 0.11055
v 0.04000 0.56720 0.11260
v 0.04735 0.56720 0.11159
v 0.05039 0.56720 0.10914
v 0.04735 0.56720 0.10669
v 0.04000 0.56720 0.10567
v 0.03265 0.56720 0.10669
v 0.02961 0.56720 0.10914
v 0.03265 0.56720 0.11159
v 0.04000 0.56000 0.11314
v 0.04849 0.56000 0.11196
v 0.05200 0.56000 0.10914
v 0.04849 0.56000 0.10631
v 0.04000 0.56000 0.10514
v 0.03151 0.56000 0.10631
v 0.02800 0.56000 0.10914
v 0.03151 0.56000 0.11196
v 0.04000 0.55280 0.11260
v 0.04735 0.55280 0.11159
v 0.05039 0.55280 0.10914
v 0.04735 0.55280 0.10669
v 0.04000 0.55280 0.10567
v 0.03265 0.55280 0.10669
v 0.02961 0.55280 0.10914
v 0.03265 0.55280 0.11159
v 0.04000 0.54753 0.11114
v 0.04424 0.54753 0.11055
v 0.04600 0.54753 0.10914
v 0.04424 0.54753 0.10772
v 0.04000 0.54753 0.10714
v 0.03576 0.54753 0.10772
v 0.03400 0.54753 0.10914
v 0.03576 0.54753 0.11055
v 0.04000 0.54560 0.10914
v 0.04000 0.54560 0.10914
v 0.04000 0.54560 0.10914
v 0.04000 0.54560 0.10914
v 0.04000 0.54560 0.10914
v 0.04000 0.54560 0.10914
v 0.04000 0.54560 0.10914
v 0.04000 0.54560 0.10914
vn 0.0000 1.0000 0.0000
vn 0.0000 1.0000 0.0000
vn 0.0000 1.0000 0.0000
vn 0.0000 1.0000 -0.0000
vn 0.0000 1.0000 -0.0000
vn -0.0000 1.0000 -0.0000
vn -0.0000 1.0000 -0.0000
vn -0.0000 1.0000 0.0000
vn 0.0000 0.4336 0.9011
vn 0.2657 0.5423 0.7971
vn 0.5695 0.8220 0.0000
vn 0.2657 0.5423 -0.7971
vn 0.0000 0.4336 -0.9011
vn -0.2657 0.5423 -0.7971
vn -0.5695 0.8220 -0.0000
vn -0.2657 0.5423 0.7971
vn 0.0000 0.1584 0.9874
vn 0.3092 0.2104 0.9275
vn 0.9011 0.4336 0.0000
vn 0.3092 0.2104 -0.9275
vn 0.0000 0.1584 -0.9874
vn -0.3092 0.2104 -0.9275
vn -0.9011 0.4336 -0.0000
vn -0.3092 0.2104 0.9275
vn 0.0000 0.0000 1.0000
vn 0.3162 0.0000 0.9487
vn 1.0000 0.0000 0.0000
vn 0.3162 0.0000 -0.9487
vn 0.0000 0.0000 -1.0000
vn -0.3162 0.0000 -0.9487
vn -1.0000 0.0000 -0.0000
vn -0.3162 0.0000 0.9487
vn 0.0000 -0.1584 0.9874
vn 0.3092 -0.2104 0.9275
vn 0.9011 -0.4336 0.0000
vn 0.3092 -0.2104 -0.9275
vn 0.0000 -0.1584 -0.9874
vn -0.3092 -0.2104 -0.9275
vn -0.9011 -0.4336 -0.0000
vn -0.3092 -0.2104 0.9275
vn 0.0000 -0.4336 0.9011
vn 0.2657 -0.5423 0.7971
vn 0.5695 -0.8220 0.0000
vn 0.2657 -0.5423 -0.7971
vn 0.0000 -0.4336 -0.9011
vn -0.2657 -0.5423 -0.7971
vn -0.5695 -0.8220 -0.0000
vn -0.2657 -0.5423 0.7971
vn 0.0000 -1.0000 0.0000
vn 0.0000 -1.0000 0.0000
vn 0.0000 -1.0000 0.0000
vn 0.0000 -1.0000 -0.0000
vn 0.0000 -1.0000 -0.0000
vn -0.0000 -1.0000 -0.0000
vn -0.0000 -1.0000 -0.0000
vn -0.0000 -1.0000 0.0000
f 117//117 118//118 110//110 109//109
f 118//118 119//119 111//111 110//110
f 119//119 120//120 112//112 111//111
f 120//120 121//121 113//113 112//112
f 121//121 122//122 114//114 113//113
f 122//122 123//123 115//115 114//114
f 123//123 124//124 116//116 115//115
f 124//124 117//117 109//109 116//116
f 125//125 126//126 118//118 117//117
f 126//126 127//127 119//119 118//118
f 127//127 128//128 120//120 119//119
f 128//128 129//129 121//121 120//120
f 129//129 130//130 122//122 121//121
f 130//130 131//131 123//123 122//122
f 131//131 132//132 124//124 123//123
f 132//132 125//125 117//117 124//124
f 133//133 134//134 126//126 125//125
f 134//134 135//135 127//127 126//126
f 135//135 136//136 128//128 127//127
f 136//136 137//137 129//129 128//128
f 137//137 138//138 130//130 129//129
f 138//138 139//139 131//131 130//130
f 139//139 140//140 132//132 131//131
f 140//140 133//133 125//125 132//132
f 141//141 142//142 134//134 133//133
f 142//142 143//143 135//135 134//134
f 143//143 144//144 136//136 135//135
f 144//144 145//145 137//137 136//136
f 145//145 146//146 138//138 137//137
f 146//146 147//147 139//139 138//138
f 147//147 148//148 140//140 139//139
f 148//148 141//141 133//133 140//140
f 149//149 150//150 142//142 141//141
f 150//150 151//151 143//143 142//142
f 151//151 152//152 144//144 143//143
f 152//152 153//153 145//145 144//144
f 153//153 154//154 146//146 145//145
f 154//154 155//155 147//147 146//146
f 155//155 156//156 148//148 147//147
f 156//156 149//149 141//141 148//148
f 157//157 158//158 150//150 149//149
f 158//158 159//159 151//151 150//150
f 159//159 160//160 152//152 151//151
f 160//160 161//161 153//153 152//152
f 161//161 162//162 154//154 153//153
f 162//162 163//163 155//155 154//154
f 163//163 164//164 156//156 155//155
f 164//164 157//157 149//149 156//156
g part2
usemtl brow
v 0.06749 0.60561 0.06987
v 0.06503 0.60381 0.06729
v 0.06354 0.60019 0.06814
v 0.06451 0.59839 0.07158
v 0.06697 0.60019 0.07416
v 0.06846 0.60381 0.07331
v 0.05898 0.61072 0.07474
v 0.05626 0.60873 0.07189
v 0.05462 0.60475 0.07283
v 0.05569 0.60276 0.07661
v 0.05841 0.60475 0.07946
v 0.06005 0.60873 0.07852
v 0.05009 0.61601 0.07982
v 0.04727 0.61377 0.07662
v 0.04585 0.60924 0.07743
v 0.04724 0.60695 0.08143
v 0.05006 0.60920 0.08463
v 0.05148 0.61373 0.08382
v 0.04032 0.61899 0.08574
v 0.03786 0.61656 0.08212
v 0.03754 0.61157 0.08223
v 0.03968 0.60901 0.08595
v 0.04214 0.61144 0.08957
v 0.04246 0.61643 0.08946
v 0.03052 0.61752 0.09216
v 0.02860 0.61524 0.08838
v 0.02941 0.61054 0.08773
v 0.03214 0.60811 0.09086
v 0.03407 0.61039 0.09464
v 0.03326 0.61509 0.09529
v 0.02158 0.61360 0.09827
v 0.01995 0.61156 0.09472
v 0.02104 0.60737 0.09389
v 0.02375 0.60522 0.09662
v 0.02538 0.60725 0.10017
v 0.02430 0.61144 0.10100
v 0.01302 0.60980 0.10413
v 0.01154 0.60796 0.10090
v 0.01252 0.60415 0.10015
v 0.01498 0.60220 0.10262
v 0.01646 0.60404 0.10585
v 0.01548 0.60785 0.10660
v 0.06749 0.60561 0.06987
v 0.06503 0.60381 0.06729
v 0.06354 0.60019 0.06814
v 0.06451 0.59839 0.07158
v 0.06697 0.60019 0.07416
v 0.06846 0.60381 0.07331
v 0.06600 0.60200 0.07072
v 0.01302 0.60980 0.10413
v 0.01154 0.60796 0.10090
v 0.01252 0.60415 0.10015
v 0.01498 0.60220 0.10262
v 0.01646 0.60404 0.10585
v 0.01548 0.60785 0.10660
v 0.01400 0.60600 0.10338
vn 0.4011 0.8869 -0.2292
vn -0.2143 0.4355 -0.8743
vn -0.5866 -0.4671 -0.6616
vn -0.3434 -0.9185 0.1962
vn 0.2721 -0.4671 0.8413
vn 0.6444 0.4355 0.6286
vn 0.3998 0.8877 -0.2284
vn -0.2150 0.4359 -0.8739
vn -0.5864 -0.4672 -0.6617
vn -0.3436 -0.9184 0.1963
vn 0.2722 -0.4672 0.8412
vn 0.6440 0.4357 0.6288
vn 0.3101 0.9343 -0.1762
vn -0.2701 0.4662 -0.8425
vn -0.5624 -0.4753 -0.6766
vn -0.2782 -0.9475 0.1575
vn 0.3103 -0.4830 0.8188
vn 0.6053 0.4574 0.6515
vn 0.0634 0.9978 -0.0212
vn -0.4280 0.5125 -0.7444
vn -0.4914 -0.4852 -0.7232
vn -0.0635 -0.9978 0.0212
vn 0.4279 -0.5125 0.7444
vn 0.4915 0.4852 0.7232
vn -0.1831 0.9724 0.1446
vn -0.5875 0.4986 -0.6374
vn -0.4222 -0.4784 -0.7700
vn 0.1511 -0.9808 -0.1233
vn 0.5472 -0.5092 0.6643
vn 0.3792 0.4670 0.7988
vn -0.2729 0.9396 0.2064
vn -0.6433 0.4774 -0.5985
vn -0.3987 -0.4733 -0.7855
vn 0.2166 -0.9617 -0.1679
vn 0.5860 -0.5000 0.6377
vn 0.3411 0.4506 0.8250
vn -0.2743 0.9390 0.2073
vn -0.6439 0.4772 -0.5981
vn -0.3986 -0.4733 -0.7856
vn 0.2164 -0.9618 -0.1677
vn 0.5860 -0.4999 0.6377
vn 0.3407 0.4505 0.8252
vn 0.7843 -0.4290 -0.4481
vn 0.7843 -0.4290 -0.4481
vn 0.7843 -0.4290 -0.4481
vn 0.7843 -0.4290 -0.4481
vn 0.7843 -0.4290 -0.4481
vn 0.7843 -0.4290 -0.4481
vn 0.7843 -0.4290 -0.4481
vn -0.7849 -0.3086 0.5373
vn -0.7849 -0.3086 0.5373
vn -0.7849 -0.3086 0.5373
vn -0.7849 -0.3086 0.5373
vn -0.7849 -0.3086 0.5373
vn -0.7849 -0.3086 0.5373
vn -0.7849 -0.3086 0.5373
f 165//165 166//166 172//172 171//171
f 166//166 167//167 173//173 172//172
f 167//167 168//168 174//174 173//173
f 168//168 169//169 175//175 174//174
f 169//169 170//170 176//176 175//175
f 170//170 165//165 171//171 176//176
f 171//171 172//172 178//178 177//177
f 172//172 173//173 179//179 178//178
f 173//173 174//174 180//180 179//179
f 174//174 175//175 181//181 180//180
f 175//175 176//176 182//182 181//181
f 176//176 171//171 177//177 182//182
f 177//177 178//178 184//184 183//183
f 178//178 179//179 185//185 184//184
f 179//179 180//180 186//186 185//185
f 180//180 181//181 187//187 186//186
f 181//181 182//182 188//188 187//187
f 182//182 177//177 183//183 188//188
f 183//183 184//184 190//190 189//189
f 184//184 185//185 191//191 190//190
f 185//185 186//186 192//192 191//191
f 186//186 187//187 193//193 192//192
f 187//187 188//188 194//194 193//193
f 188//188 183//183 189//189 194//194
f 189//189 190//190 196//196 195//195
f 190//190 191//191 197//197 196//196
f 191//191 192//192 198//198 197//197
f 192//192 193//193 199//199 198//198
f 193//193 194//194 200//200 199//199
f 194//194 189//189 195//195 200//200
f 195//195 196//196 202//202 201//201
f 196//196 197//197 203//203 202//202
f 197//197 198//198 204//204 203//203
f 198//198 199//199 205//205 204//204
f 199//199 200//200 206//206 205//205
f 200//200 195//195 201//201 206//206
f 208//208 213//213 207//207
f 209//209 213//213 208//208
f 210//210 213//213 209//209
f 211//211 213//213 210//210
f 212//212 213//213 211//211
f 207//207 213//213 212//212
f 215//215 220//220 214//214
f 216//216 220//220 215//215
f 217//217 220//220 216//216
f 218//218 220//220 217//217
f 219//219 220//220 218//218
f 214//214 220//220 219//219
g part3
usemtl eye_white
v -0.04000 0.58500 0.10292
v -0.04000 0.58500 0.10292
v -0.04000 0.58500 0.10292
v -0.04000 0.58500 0.10292
v -0.04000 0.58500 0.10292
v -0.04000 0.58500 0.10292
v -0.04000 0.58500 0.10292
v -0.04000 0.58500 0.10292
v -0.04000 0.58500 0.10292
v -0.04000 0.58500 0.10292
v -0.04000 0.58500 0.10292
v -0.04000 0.58500 0.10292
v -0.04000 0.58325 0.10636
v -0.03636 0.58325 0.10590
v -0.03370 0.58325 0.10464
v -0.03273 0.58325 0.10292
v -0.03370 0.58325 0.10119
v -0.03636 0.58325 0.09993
v -0.04000 0.58325 0.09947
v -0.04364 0.58325 0.09993
v -0.04630 0.58325 0.10119
v -0.04727 0.58325 0.10292
v -0.04630 0.58325 0.10464
v -0.04364 0.58325 0.10590
v -0.04000 0.57826 0.10928
v -0.03328 0.57826 0.10843
v -0.02836 0.57826 0.10610
v -0.02656 0.57826 0.10292
v -0.02836 0.57826 0.09973
v -0.03328 0.57826 0.09740
v -0.04000 0.57826 0.09655
v -0.04672 0.57826 0.09740
v -0.05164 0.57826 0.09973
v -0.05344 0.57826 0.10292
v -0.05164 0.57826 0.10610
v -0.04672 0.57826 0.10843
v -0.04000 0.57080 0.11123
v -0.03122 0.57080 0.11012
v -0.02480 0.57080 0.10707
v -0.02245 0.57080 0.10292
v -0.02480 0.57080 0.09876
v -0.03122 0.57080 0.09571
v -0.04000 0.57080 0.09460
v -0.04878 0.57080 0.09571
v -0.05520 0.57080 0.09876
v -0.05755 0.57080 0.10292
v -0.05520 0.57080 0.10707
v -0.04878 0.57080 0.11012
v -0.04000 0.56200 0.11192
v -0.03050 0.56200 0.11071
v -0.02355 0.56200 0.10742
v -0.02100 0.56200 0.10292
v -0.02355 0.56200 0.09842
v -0.03050 0.56200 0.09512
v -0.04000 0.56200 0.09392
v -0.04950 0.56200 0.09512
v -0.05645 0.56200 0.09842
v -0.05900 0.56200 0.10292
v -0.05645 0.56200 0.10742
v -0.04950 0.56200 0.11071
v -0.04000 0.55320 0.11123
v -0.03122 0.55320 0.11012
v -0.02480 0.55320 0.10707
v -0.02245 0.55320 0.10292
v -0.02480 0.55320 0.09876
v -0.03122 0.55320 0.09571
v -0.04000 0.55320 0.09460
v -0.04878 0.55320 0.09571
v -0.05520 0.55320 0.09876
v -0.05755 0.55320 0.10292
v -0.05520 0.55320 0.10707
v -0.04878 0.55320 0.11012
v -0.04000 0.54574 0.10928
v -0.03328 0.54574 0.10843
v -0.02836 0.54574 0.10610
v -0.02656 0.54574 0.10292
v -0.02836 0.54574 0.09973
v -0.03328 0.54574 0.09740
v -0.04000 0.54574 0.09655
v -0.04672 0.54574 0.09740
v -0.05164 0.54574 0.09973
v -0.05344 0.54574 0.10292
v -0.05164 0.54574 0.10610
v -0.04672 0.54574 0.10843
v -0.04000 0.54075 0.10636
v -0.03636 0.54075 0.10590
v -0.03370 0.54075 0.10464
v -0.03273 0.54075 0.10292
v -0.03370 0.54075 0.10119
v -0.03636 0.54075 0.09993
v -0.04000 0.54075 0.09947
v -0.04364 0.54075 0.09993
v -0.04630 0.54075 0.10119
v -0.04727 0.54075 0.10292
v -0.04630 0.54075 0.10464
v -0.04364 0.54075 0.10590
v -0.04000 0.53900 0.10292
v -0.04000 0.53900 0.10292
v -0.04000 0.53900 0.10292
v -0.04000 0.53900 0.10292
v -0.04000 0.53900 0.10292
v -0.04000 0.53900 0.10292
v -0.04000 0.53900 0.10292
v -0.04000 0.53900 0.10292
v -0.04000 0.53900 0.10292
v -0.04000 0.53900 0.10292
v -0.04000 0.53900 0.10292
v -0.04000 0.53900 0.10292
vn 0.0000 1.0000 0.0000
vn 0.0000 1.0000 0.0000
vn 0.0000 1.0000 0.0000
vn 0.0000 1.0000 0.0000
vn 0.0000 1.0000 -0.0000
vn 0.0000 1.0000 -0.0000
vn 0.0000 1.0000 -0.0000
vn -0.0000 1.0000 -0.0000
vn -0.0000 1.0000 -0.0000
vn -0.0000 1.0000 -0.0000
vn -0.0000 1.0000 0.0000
vn -0.0000 1.0000 0.0000
vn 0.0000 0.6867 0.7269
vn 0.1817 0.7249 0.6645
vn 0.3583 0.8252 0.4367
vn 0.4482 0.8939 0.0000
vn 0.3583 0.8252 -0.4367
vn 0.1817 0.7249 -0.6645
vn 0.0000 0.6867 -0.7269
vn -0.1817 0.7249 -0.6645
vn -0.3583 0.8252 -0.4367
vn -0.4482 0.8939 -0.0000
vn -0.3583 0.8252 0.4367
vn -0.1817 0.7249 0.6645
vn 0.0000 0.3644 0.9312
vn 0.2418 0.3995 0.8842
vn 0.5427 0.5177 0.6615
vn 0.7710 0.6369 0.0000
vn 0.5427 0.5177 -0.6615
vn 0.2418 0.3995 -0.8842
vn 0.0000 0.3644 -0.9312
vn -0.2418 0.3995 -0.8842
vn -0.5427 0.5177 -0.6615
vn -0.7710 0.6369 -0.0000
vn -0.5427 0.5177 0.6615
vn -0.2418 0.3995 0.8842
vn 0.0000 0.1600 0.9871
vn 0.2596 0.1777 0.9492
vn 0.6153 0.2431 0.7499
vn 0.9461 0.3237 0.0000
vn 0.6153 0.2431 -0.7499
vn 0.2596 0.1777 -0.9492
vn 0.0000 0.1600 -0.9871
vn -0.2596 0.1777 -0.9492
vn -0.6153 0.2431 -0.7499
vn -0.9461 0.3237 -0.0000
vn -0.6153 0.2431 0.7499
vn -0.2596 0.1777 0.9492
vn 0.0000 0.0000 1.0000
vn 0.2638 0.0000 0.9646
vn 0.6343 0.0000 0.7731
vn 1.0000 0.0000 0.0000
vn 0.6343 0.0000 -0.7731
vn 0.2638 0.0000 -0.9646
vn 0.0000 0.0000 -1.0000
vn -0.2638 0.0000 -0.9646
vn -0.6343 0.0000 -0.7731
vn -1.0000 0.0000 -0.0000
vn -0.6343 0.0000 0.7731
vn -0.2638 0.0000 0.9646
vn 0.0000 -0.1600 0.9871
vn 0.2596 -0.1777 0.9492
vn 0.6153 -0.2431 0.7499
vn 0.9461 -0.3237 0.0000
vn 0.6153 -0.2431 -0.7499
vn 0.2596 -0.1777 -0.9492
vn 0.0000 -0.1600 -0.9871
vn -0.2596 -0.1777 -0.9492
vn -0.6153 -0.2431 -0.7499
vn -0.9461 -0.3237 -0.0000
vn -0.6153 -0.2431 0.7499
vn -0.2596 -0.1777 0.9492
vn 0.0000 -0.3644 0.9312
vn 0.2418 -0.3995 0.8842
vn 0.5427 -0.5177 0.6615
vn 0.7710 -0.6369 0.0000
vn 0.5427 -0.5177 -0.6615
vn 0.2418 -0.3995 -0.8842
vn 0.0000 -0.3644 -0.9312
vn -0.2418 -0.3995 -0.8842
vn -0.5427 -0.5177 -0.6615
vn -0.7710 -0.6369 -0.0000
vn -0.5427 -0.5177 0.6615
vn -0.2418 -0.3995 0.8842
vn 0.0000 -0.6867 0.7269
vn 0.1817 -0.7249 0.6645
vn 0.3583 -0.8252 0.4367
vn 0.4482 -0.8939 0.0000
vn 0.3583 -0.8252 -0.4367
vn 0.1817 -0.7249 -0.6645
vn 0.0000 -0.6867 -0.7269
vn -0.1817 -0.7249 -0.6645
vn -0.3583 -0.8252 -0.4367
vn -0.4482 -0.8939 -0.0000
vn -0.3583 -0.8252 0.4367
vn -0.1817 -0.7249 0.6645
vn 0.0000 -1.0000 0.0000
vn 0.0000 -1.0000 0.0000
vn 0.0000 -1.0000 0.0000
vn 0.0000 -1.0000 0.0000
vn 0.0000 -1.0000 -0.0000
vn 0.0000 -1.0000 -0.0000
vn 0.0000 -1.0000 -0.0000
vn -0.0000 -1.0000 -0.0000
vn -0.0000 -1.0000 -0.0000
vn -0.0000 -1.0000 -0.0000
vn -0.0000 -1.0000 0.0000
vn -0.0000 -1.0000 0.0000
f 233//233 234//234 222//222 221//221
f 234//234 235//235 223//223 222//222
f 235//235 236//236 224//224 223//223
f 236//236 237//237 225//225 224//224
f 237//237 238//238 226//226 225//225
f 238//238 239//239 227//227 226//226
f 239//239 240//240 228//228 227//227
f 240//240 241//241 229//229 228//228
f 241//241 242//242 230//230 229//229
f 242//242 243//243 231//231 230//230
f 243//243 244//244 232//232 231//231
f 244//244 233//233 221//221 232//232
f 245//245 246//246 234//234 233//233
f 246//246 247//247 235//235 234//234
f 247//247 248//248 236//236 235//235
f 248//248 249//249 237//237 236//236
f 249//249 250//250 238//238 237//237
f 250//250 251//251 239//239 238//238
f 251//251 252//252 240//240 239//239
f 252//252 253//253 241//241 240//240
f 253//253 254//254 242//242 241//241
f 254//254 255//255 243//243 242//242
f 255//255 256//256 244//244 243//243
f 256//256 245//245 233//233 244//244
f 257//257 258//258 246//246 245//245
f 258//258 259//259 247//247 246//246
f 259//259 260//260 248//248 247//247
f 260//260 261//261 249//249 248//248
f 261//261 262//262 250//250 249//249
f 262//262 263//263 251//251 250//250
f 263//263 264//264 252//252 251//251
f 264//264 265//265 253//253 252//252
f 265//265 266//266 254//254 253//253
f 266//266 267//267 255//255 254//254
f 267//267 268//268 256//256 255//255
f 268//268 257//257 245//245 256//256
f 269//269 270//270 258//258 257//257
f 270//270 271//271 259//259 258//258
f 271//271 272//272 260//260 259//259
f 272//272 273//273 261//261 260//260
f 273//273 274//274 262//262 261//261
f 274//274 275//275 263//263 262//262
f 275//275 276//276 264//264 263//263
f 276//276 277//277 265//265 264//264
f 277//277 278//278 266//266 265//265
f 278//278 279//279 267//267 266//266
f 279//279 280//280 268//268 267//267
f 280//280 269//269 257//257 268//268
f 281//281 282//282 270//270 269//269
f 282//282 283//283 271//271 270//270
f 283//283 284//284 272//272 271//271
f 284//284 285//285 273//273 272//272
f 285//285 286//286 274//274 273//273
f 286//286 287//287 275//275 274//274
f 287//287 288//288 276//276 275//275
f 288//288 289//289 277//277 276//276
f 289//289 290//290 278//278 277//277
f 290//290 291//291 279//279 278//278
f 291//291 292//292 280//280 279//279
f 292//292 281//281 269//269 280//280
f 293//293 294//294 282//282 281//281
f 294//294 295//295 283//283 282//282
f 295//295 296//296 284//284 283//283
f 296//296 297//297 285//285 284//284
f 297//297 298//298 286//286 285//285
f 298//298 299//299 287//287 286//286
f 299//299 300//300 288//288 287//287
f 300//300 301//301 289//289 288//288
f 301//301 302//302 290//290 289//289
f 302//302 303//303 291//291 290//290
f 303//303 304//304 292//292 291//291
f 304//304 293//293 281//281 292//292
f 305//305 306//306 294//294 293//293
f 306//306 307//307 295//295 294//294
f 307//307 308//308 296//296 295//295
f 308//308 309//309 297//297 296//296
f 309//309 310//310 298//298 297//297
f 310//310 311//311 299//299 298//298
f 311//311 312//312 300//300 299//299
f 312//312 313//313 301//301 300//300
f 313//313 314//314 302//302 301//301
f 314//314 315//315 303//303 302//302
f 315//315 316//316 304//304 303//303
f 316//316 305//305 293//293 304//304
f 317//317 318//318 306//306 305//305
f 318//318 319//319 307//307 306//306
f 319//319 320//320 308//308 307//307
f 320//320 321//321 309//309 308//308
f 321//321 322//322 310//310 309//309
f 322//322 323//323 311//311 310//310
f 323//323 324//324 312//312 311//311
f 324//324 325//325 313//313 312//312
f 325//325 326//326 314//314 313//313
f 326//326 327//327 315//315 314//314
f 327//327 328//328 316//316 315//315
f 328//328 317//317 305//305 316//316
g part4
usemtl pupil
v -0.04000 0.57440 0.10914
v -0.04000 0.57440 0.10914
v -0.04000 0.57440 0.10914
v -0.04000 0.57440 0.10914
v -0.04000 0.57440 0.10914
v -0.04000 0.57440 0.10914
v -0.04000 0.57440 0.10914
v -0.04000 0.57440 0.10914
v -0.04000 0.57247 0.11114
v -0.03576 0.57247 0.11055
v -0.03400 0.57247 0.10914
v -0.03576 0.57247 0.10772
v -0.04000 0.57247 0.10714
v -0.04424 0.57247 0.10772
v -0.04600 0.57247 0.10914
v -0.04424 0.57247 0.11055
v -0.04000 0.56720 0.11260
v -0.03265 0.56720 0.11159
v -0.02961 0.56720 0.10914
v -0.03265 0.56720 0.10669
v -0.04000 0.56720 0.10567
v -0.04735 0.56720 0.10669
v -0.05039 0.56720 0.10914
v -0.04735 0.56720 0.11159
v -0.04000 0.56000 0.11314
v -0.03151 0.56000 0.11196
v -0.02800 0.56000 0.10914
v -0.03151 0.56000 0.10631
v -0.04000 0.56000 0.10514
v -0.04849 0.56000 0.10631
v -0.05200 0.56000 0.10914
v -0.04849 0.56000 0.11196
v -0.04000 0.55280 0.11260
v -0.03265 0.55280 0.11159
v -0.02961 0.55280 0.10914
v -0.03265 0.55280 0.10669
v -0.04000 0.55280 0.10567
v -0.04735 0.55280 0.10669
v -0.05039 0.55280 0.10914
v -0.04735 0.55280 0.11159
v -0.04000 0.54753 0.11114
v -0.03576 0.54753 0.11055
v -0.03400 0.54753 0.10914
v -0.03576 0.54753 0.10772
v -0.04000 0.54753 0.10714
v -0.04424 0.54753 0.10772
v -0.04600 0.54753 0.10914
v -0.04424 0.54753 0.11055
v -0.04000 0.54560 0.10914
v -0.04000 0.54560 0.10914
v -0.04000 0.54560 0.10914
v -0.04000 0.54560 0.10914
v -0.04000 0.54560 0.10914
v -0.04000 0.54560 0.10914
v -0.04000 0.54560 0.10914
v -0.04000 0.54560 0.10914
vn 0.0000 1.0000 0.0000
vn 0.0000 1.0000 0.0000
vn 0.0000 1.0000 0.0000
vn 0.0000 1.0000 -0.0000
vn 0.0000 1.0000 -0.0000
vn -0.0000 1.0000 -0.0000
vn -0.0000 1.0000 -0.0000
vn -0.0000 1.0000 0.0000
vn 0.0000 0.4336 0.9011
vn 0.2657 0.5423 0.7971
vn 0.5695 0.8220 0.0000
vn 0.2657 0.5423 -0.7971
vn 0.0000 0.4336 -0.9011
vn -0.2657 0.5423 -0.7971
vn -0.5695 0.8220 -0.0000
vn -0.2657 0.5423 0.7971
vn 0.0000 0.1584 0.9874
vn 0.3092 0.2104 0.9275
vn 0.9011 0.4336 0.0000
vn 0.3092 0.2104 -0.9275
vn 0.0000 0.1584 -0.9874
vn -0.3092 0.2104 -0.9275
vn -0.9011 0.4336 -0.0000
vn -0.3092 0.2104 0.9275
vn 0.0000 0.0000 1.0000
vn 0.3162 0.0000 0.9487
vn 1.0000 0.0000 0.0000
vn 0.3162 0.0000 -0.9487
vn 0.0000 0.0000 -1.0000
vn -0.3162 0.0000 -0.9487
vn -1.0000 0.0000 -0.0000
vn -0.3162 0.0000 0.9487
vn 0.0000 -0.1584 0.9874
vn 0.3092 -0.2104 0.9275
vn 0.9011 -0.4336 0.0000
vn 0.3092 -0.2104 -0.9275
vn 0.0000 -0.1584 -0.9874
vn -0.3092 -0.2104 -0.9275
vn -0.9011 -0.4336 -0.0000
vn -0.3092 -0.2104 0.9275
vn 0.0000 -0.4336 0.9011
vn 0.2657 -0.5423 0.7971
vn 0.5695 -0.8220 0.0000
vn 0.2657 -0.5423 -0.7971
vn 0.0000 -0.4336 -0.9011
vn -0.2657 -0.5423 -0.7971
vn -0.5695 -0.8220 -0.0000
vn -0.2657 -0.5423 0.7971
vn 0.0000 -1.0000 0.0000
vn 0.0000 -1.0000 0.0000
vn 0.0000 -1.0000 0.0000
vn 0.0000 -1.0000 -0.0000
vn 0.0000 -1.0000 -0.0000
vn -0.0000 -1.0000 -0.0000
vn -0.0000 -1.0000 -0.0000
vn -0.0000 -1.0000 0.0000
f 337//337 338//338 330//330 329//329
f 338//338 339//339 331//331 330//330
f 339//339 340//340 332//332 331//331
f 340//340 341//341 333//333 332//332
f 341//341 342//342 334//334 333//333
f 342//342 343//343 335//335 334//334
f 343//343 344//344 336//336 335//335
f 344//344 337//337 329//329 336//336
f 345//345 346//346 338//338 337//337
f 346//346 347//347 339//339 338//338
f 347//347 348//348 340//340 339//339
f 348//348 349//349 341//341 340//340
f 349//349 350//350 342//342 341//341
f 350//350 351//351 343//343 342//342
f 351//351 352//352 344//344 343//343
f 352//352 345//345 337//337 344//344
f 353//353 354//354 346//346 345//345
f 354//354 355//355 347//347 346//346
f 355//355 356//356 348//348 347//347
f 356//356 357//357 349//349 348//348
f 357//357 358//358 350//350 349//349
f 358//358 359//359 351//351 350//350
f 359//359 360//360 352//352 351//351
f 360//360 353//353 345//345 352//352
f 361//361 362//362 354//354 353//353
f 362//362 363//363 355//355 354//354
f 363//363 364//364 356//356 355//355
f 364//364 365//365 357//357 356//356
f 365//365 366//366 358//358 357//357
f 366//366 367//367 359//359 358//358
f 367//367 368//368 360//360 359//359
f 368//368 361//361 353//353 360//360
f 369//369 370//370 362//362 361//361
f 370//370 371//371 363//363 362//362
f 371//371 372//372 364//364 363//363
f 372//372 373//373 365//365 364//364
f 373//373 374//374 366//366 365//365
f 374//374 375//375 367//367 366//366
f 375//375 376//376 368//368 367//367
f 376//376 369//369 361//361 368//368
f 377//377 378//378 370//370 369//369
f 378//378 379//379 371//371 370//370
f 379//379 380//380 372//372 371//371
f 380//380 381//381 373//373 372//372
f 381//381 382//382 374//374 373//373
f 382//382 383//383 375//375 374//374
f 383//383 384//384 376//376 375//375
f 384//384 377//377 369//369 376//376
g part5
usemtl brow
v -0.06749 0.60561 0.06987
v -0.06846 0.60381 0.07331
v -0.06697 0.60019 0.07416
v -0.06451 0.59839 0.07158
v -0.06354 0.60019 0.06814
v -0.06503 0.60381 0.06729
v -0.05898 0.61072 0.07474
v -0.06005 0.60873 0.07852
v -0.05841 0.60475 0.07946
v -0.05569 0.60276 0.07661
v -0.05462 0.60475 0.07283
v -0.05626 0.60873 0.07189
v -0.05009 0.61601 0.07982
v -0.05148 0.61373 0.08382
v -0.05006 0.60920 0.08463
v -0.04724 0.60695 0.08143
v -0.04585 0.60924 0.07743
v -0.04727 0.61377 0.07662
v -0.04032 0.61899 0.08574
v -0.04246 0.61643 0.08946
v -0.04214 0.61144 0.08957
v -0.03968 0.60901 0.08595
v -0.03754 0.61157 0.08223
v -0.03786 0.61656 0.08212
v -0.03052 0.61752 0.09216
v -0.03326 0.61509 0.09529
v -0.03407 0.61039 0.09464
v -0.03214 0.60811 0.09086
v -0.02941 0.61054 0.08773
v -0.02860 0.61524 0.08838
v -0.02158 0.61360 0.09827
v -0.02430 0.61144 0.10100
v -0.02538 0.60725 0.10017
v -0.02375 0.60522 0.09662
v -0.02104 0.60737 0.09389
v -0.01995 0.61156 0.09472
v -0.01302 0.60980 0.10413
v -0.01548 0.60785 0.10660
v -0.01646 0.60404 0.10585
v -0.01498 0.60220 0.10262
v -0.01252 0.60415 0.10015
v -0.01154 0.60796 0.10090
v -0.06749 0.60561 0.06987
v -0.06846 0.60381 0.07331
v -0.06697 0.60019 0.07416
v -0.06451 0.59839 0.07158
v -0.06354 0.60019 0.06814
v -0.06503 0.60381 0.06729
v -0.06600 0.60200 0.07072
v -0.01302 0.60980 0.10413
v -0.01548 0.60785 0.10660
v -0.01646 0.60404 0.10585
v -0.01498 0.60220 0.10262
v -0.01252 0.60415 0.10015
v -0.01154 0.60796 0.10090
v -0.01400 0.60600 0.10338
vn -0.4011 0.8869 -0.2292
vn -0.6444 0.4355 0.6286
vn -0.2721 -0.4671 0.8413
vn 0.3434 -0.9185 0.1962
vn 0.5866 -0.4671 -0.6616
vn 0.2143 0.4355 -0.8743
vn -0.3998 0.8877 -0.2284
vn -0.6440 0.4357 0.6288
vn -0.2722 -0.4672 0.8412
vn 0.3436 -0.9184 0.1963
vn 0.5864 -0.4672 -0.6617
vn 0.2150 0.4359 -0.8739
vn -0.3101 0.9343 -0.1762
vn -0.6053 0.4574 0.6515
vn -0.3103 -0.4830 0.8188
vn 0.2782 -0.9475 0.1575
vn 0.5624 -0.4753 -0.6766
vn 0.2701 0.4662 -0.8425
vn -0.0634 0.9978 -0.0212
vn -0.4915 0.4852 0.7232
vn -0.4279 -0.5125 0.7444
vn 0.0635 -0.9978 0.0212
vn 0.4914 -0.4852 -0.7232
vn 0.4280 0.5125 -0.7444
vn 0.1831 0.9724 0.1446
vn -0.3792 0.4670 0.7988
vn -0.5472 -0.5092 0.6643
vn -0.1511 -0.9808 -0.1233
vn 0.4222 -0.4784 -0.7700
vn 0.5875 0.4986 -0.6374
vn 0.2729 0.9396 0.2064
vn -0.3411 0.4506 0.8250
vn -0.5860 -0.5000 0.6377
vn -0.2166 -0.9617 -0.1679
vn 0.3987 -0.4733 -0.7855
vn 0.6433 0.4774 -0.5985
vn 0.2743 0.9390 0.2073
vn -0.3407 0.4505 0.8252
vn -0.5860 -0.4999 0.6377
vn -0.2164 -0.9618 -0.1677
vn 0.3986 -0.4733 -0.7856
vn 0.6439 0.4772 -0.5981
vn -0.7843 -0.4290 -0.4481
vn -0.7843 -0.4290 -0.4481
vn -0.7843 -0.4290 -0.4481
vn -0.7843 -0.4290 -0.4481
vn -0.7843 -0.4290 -0.4481
vn -0.7843 -0.4290 -0.4481
vn -0.7843 -0.4290 -0.4481
vn 0.7849 -0.3086 0.5373
vn 0.7849 -0.3086 0.5373
vn 0.7849 -0.3086 0.5373
vn 0.7849 -0.3086 0.5373
vn 0.7849 -0.3086 0.5373
vn 0.7849 -0.3086 0.5373
vn 0.7849 -0.3086 0.5373
f 385//385 386//386 392//392 391//391
f 386//386 387//387 393//393 392//392
f 387//387 388//388 394//394 393//393
f 388//388 389//389 395//395 394//394
f 389//389 390//390 396//396 395//395
f 390//390 385//385 391//391 396//396
f 391//391 392//392 398//398 397//397
f 392//392 393//393 399//399 398//398
f 393//393 394//394 400//400 399//399
f 394//394 395//395 401//401 400//400
f 395//395 396//396 402//402 401//401
f 396//396 391//391 397//397 402//402
f 397//397 398//398 404//404 403//403
f 398//398 399//399 405//405 404//404
f 399//399 400//400 406//406 405//405
f 400//400 401//401 407//407 406//406
f 401//401 402//402 408//408 407//407
f 402//402 397//397 403//403 408//408
f 403//403 404//404 410//410 409//409
f 404//404 405//405 411//411 410//410
f 405//405 406//406 412//412 411//411
f 406//406 407//407 413//413 412//412
f 407//407 408//408 414//414 413//413
f 408//408 403//403 409//409 414//414
f 409//409 410//410 416//416 415//415
f 410//410 411//411 417//417 416//416
f 411//411 412//412 418//418 417//417
f 412//412 413//413 419//419 418//418
f 413//413 414//414 420//420 419//419
f 414//414 409//409 415//415 420//420
f 415//415 416//416 422//422 421//421
f 416//416 417//417 423//423 422//422
f 417//417 418//418 424//424 423//423
f 418//418 419//419 425//425 424//424
f 419//419 420//420 426//426 425//425
f 420//420 415//415 421//421 426//426
f 428//428 433//433 427//427
f 429//429 433//433 428//428
f 430//430 433//433 429//429
f 431//431 433//433 430//430
f 432//432 433//433 431//431
f 427//427 433//433 432//432
f 435//435 440//440 434//434
f 436//436 440//440 435//435
f 437//437 440//440 436//436
f 438//438 440//440 437//437
f 439//439 440//440 438//438
f 434//434 440//440 439//439
g part6
usemtl mouth
v -0.03631 0.55073 0.10815
v -0.03867 0.54977 0.11149
v -0.04236 0.54783 0.11096
v -0.04369 0.54687 0.10710
v -0.04133 0.54783 0.10376
v -0.03764 0.54977 0.10429
v -0.03162 0.54219 0.10882
v -0.03413 0.54116 0.11238
v -0.03807 0.53911 0.11182
v -0.03949 0.53808 0.10770
v -0.03698 0.53911 0.10414
v -0.03304 0.54116 0.10470
v -0.02699 0.53376 0.10948
v -0.02959 0.53254 0.11327
v -0.03371 0.53025 0.11268
v -0.03524 0.52918 0.10830
v -0.03263 0.53040 0.10451
v -0.02851 0.53269 0.10510
v -0.02251 0.52661 0.10975
v -0.02501 0.52492 0.11374
v -0.02917 0.52222 0.11311
v -0.03083 0.52121 0.10850
v -0.02832 0.52290 0.10452
v -0.02416 0.52560 0.10515
v -0.01817 0.52100 0.10938
v -0.02041 0.51872 0.11347
v -0.02447 0.51555 0.11278
v -0.02628 0.51465 0.10799
v -0.02403 0.51693 0.10390
v -0.01998 0.52011 0.10459
v -0.01397 0.51654 0.10863
v -0.01595 0.51380 0.11279
v -0.01976 0.51011 0.11200
v -0.02159 0.50916 0.10706
v -0.01960 0.51190 0.10290
v -0.01579 0.51559 0.10369
v -0.01000 0.51326 0.10801
v -0.01171 0.51016 0.11222
v -0.01504 0.50588 0.11131
v -0.01666 0.50470 0.10619
v -0.01496 0.50780 0.10198
v -0.01163 0.51208 0.10289
v -0.00633 0.51112 0.10760
v -0.00758 0.50764 0.11185
v -0.01015 0.50273 0.11080
v -0.01145 0.50130 0.10551
v -0.01019 0.50479 0.10126
v -0.00763 0.50970 0.10231
v -0.00300 0.50999 0.10729
v -0.00364 0.50619 0.11156
v -0.00508 0.50075 0.11037
v -0.00588 0.49911 0.10492
v -0.00525 0.50291 0.10065
v -0.00381 0.50835 0.10183
v -0.00000 0.50967 0.10715
v -0.00000 0.50577 0.11144
v 0.00000 0.50010 0.11020
v 0.00000 0.49833 0.10468
v 0.00000 0.50223 0.10039
v -0.00000 0.50790 0.10162
v 0.00301 0.51000 0.10726
v 0.00364 0.50622 0.11155
v 0.00508 0.50077 0.11039
v 0.00588 0.49911 0.10494
v 0.00525 0.50289 0.10066
v 0.00381 0.50834 0.10181
v 0.00633 0.51112 0.10759
v 0.00758 0.50765 0.11185
v 0.01014 0.50273 0.11081
v 0.01145 0.50130 0.10552
v 0.01020 0.50478 0.10126
v 0.00764 0.50969 0.10230
v 0.01000 0.51326 0.10802
v 0.01171 0.51015 0.11222
v 0.01504 0.50587 0.11131
v 0.01666 0.50470 0.10619
v 0.01496 0.50780 0.10198
v 0.01163 0.51208 0.10289
v 0.01397 0.51653 0.10865
v 0.01596 0.51379 0.11280
v 0.01977 0.51010 0.11199
v 0.02159 0.50917 0.10704
v 0.01959 0.51191 0.10289
v 0.01578 0.51559 0.10370
v 0.01817 0.52100 0.10942
v 0.02044 0.51870 0.11349
v 0.02450 0.51553 0.11275
v 0.02627 0.51466 0.10795
v 0.02400 0.51696 0.10388
v 0.01995 0.52013 0.10462
v 0.02251 0.52661 0.10984
v 0.02507 0.52488 0.11377
v 0.02923 0.52218 0.11306
v 0.03082 0.52122 0.10842
v 0.02826 0.52294 0.10449
v 0.02411 0.52564 0.10520
v 0.02700 0.53376 0.10958
v 0.02967 0.53250 0.11330
v 0.03378 0.53021 0.11262
v 0.03522 0.52918 0.10820
v 0.03255 0.53044 0.10448
v 0.02844 0.53273 0.10516
v 0.03163 0.54219 0.10891
v 0.03421 0.54113 0.11241
v 0.03814 0.53907 0.11176
v 0.03948 0.53808 0.10760
v 0.03690 0.53914 0.10410
v 0.03298 0.54120 0.10476
v 0.03632 0.55073 0.10824
v 0.03874 0.54973 0.11152
v 0.04242 0.54780 0.11091
v 0.04368 0.54687 0.10701
v 0.04126 0.54787 0.10373
v 0.03758 0.54980 0.10434
v -0.03631 0.55073 0.10815
v -0.03867 0.54977 0.11149
v -0.04236 0.54783 0.11096
v -0.04369 0.54687 0.10710
v -0.04133 0.54783 0.10376
v -0.03764 0.54977 0.10429
v -0.04000 0.54880 0.10763
v 0.03632 0.55073 0.10824
v 0.03874 0.54973 0.11152
v 0.04242 0.54780 0.11091
v 0.04368 0.54687 0.10701
v 0.04126 0.54787 0.10373
v 0.03758 0.54980 0.10434
v 0.04000 0.54880 0.10763
vn 0.8658 0.4851 0.1231
vn 0.3046 0.2552 0.9177
vn -0.5742 -0.2046 0.7928
vn -0.8917 -0.4346 -0.1268
vn -0.3305 -0.2046 -0.9214
vn 0.5482 0.2552 -0.7964
vn 0.8657 0.4852 0.1231
vn 0.3046 0.2551 0.9177
vn -0.5740 -0.2049 0.7928
vn -0.8916 -0.4348 -0.1267
vn -0.3305 -0.2046 -0.9214
vn 0.5482 0.2553 -0.7964
vn 0.8535 0.5065 0.1225
vn 0.3066 0.2491 0.9186
vn -0.5597 -0.2340 0.7950
vn -0.8801 -0.4581 -0.1251
vn -0.3336 -0.1999 -0.9213
vn 0.5336 0.2815 -0.7975
vn 0.8166 0.5634 0.1253
vn 0.3167 0.2241 0.9217
vn -0.5140 -0.3179 0.7967
vn -0.8457 -0.5189 -0.1246
vn -0.3462 -0.1788 -0.9210
vn 0.4855 0.3615 -0.7960
vn 0.7633 0.6316 0.1358
vn 0.3322 0.1922 0.9234
vn -0.4470 -0.4197 0.7899
vn -0.7941 -0.5934 -0.1314
vn -0.3638 -0.1528 -0.9189
vn 0.4142 0.4604 -0.7851
vn 0.6935 0.7047 0.1503
vn 0.3238 0.1938 0.9261
vn -0.3861 -0.4945 0.7787
vn -0.7247 -0.6737 -0.1448
vn -0.3565 -0.1612 -0.9203
vn 0.3514 0.5289 -0.7725
vn 0.5848 0.7936 0.1680
vn 0.2749 0.2303 0.9335
vn -0.3270 -0.5506 0.7680
vn -0.6201 -0.7674 -0.1629
vn -0.3137 -0.2013 -0.9279
vn 0.2888 0.5791 -0.7624
vn 0.4312 0.8824 0.1884
vn 0.2077 0.2645 0.9418
vn -0.2420 -0.6087 0.7556
vn -0.4692 -0.8637 -0.1841
vn -0.2509 -0.2431 -0.9370
vn 0.1986 0.6302 -0.7506
vn 0.2335 0.9500 0.2071
vn 0.1231 0.2893 0.9493
vn -0.1263 -0.6568 0.7434
vn -0.2595 -0.9437 -0.2052
vn -0.1516 -0.2822 -0.9473
vn 0.0902 0.6658 -0.7407
vn -0.0000 0.9771 0.2127
vn 0.0001 0.3044 0.9525
vn -0.0000 -0.6727 0.7399
vn -0.0000 -0.9771 -0.2127
vn 0.0000 -0.3044 -0.9525
vn -0.0000 0.6727 -0.7399
vn -0.2334 0.9510 0.2028
vn -0.1240 0.2934 0.9479
vn 0.1253 -0.6537 0.7463
vn 0.2594 -0.9446 -0.2009
vn 0.1525 -0.2863 -0.9459
vn -0.0892 0.6626 -0.7436
vn -0.4312 0.8827 0.1868
vn -0.2083 0.2659 0.9412
vn 0.2414 -0.6077 0.7566
vn 0.4692 -0.8640 -0.1826
vn 0.2515 -0.2445 -0.9365
vn -0.1979 0.6292 -0.7516
vn -0.5848 0.7933 0.1693
vn -0.2742 0.2293 0.9339
vn 0.3277 -0.5514 0.7672
vn 0.6201 -0.7672 -0.1642
vn 0.3130 -0.2003 -0.9284
vn -0.2895 0.5798 -0.7616
vn -0.6934 0.7040 0.1533
vn -0.3218 0.1917 0.9272
vn 0.3880 -0.4961 0.7768
vn 0.7247 -0.6731 -0.1478
vn 0.3546 -0.1591 -0.9214
vn -0.3533 0.5305 -0.7706
vn -0.7629 0.6303 0.1441
vn -0.3263 0.1871 0.9266
vn 0.4525 -0.4235 0.7848
vn 0.7937 -0.5921 -0.1397
vn 0.3580 -0.1476 -0.9220
vn -0.4197 0.4642 -0.7800
vn -0.8149 0.5620 0.1415
vn -0.3041 0.2157 0.9279
vn 0.5249 -0.3248 0.7868
vn 0.8440 -0.5176 -0.1408
vn 0.3336 -0.1705 -0.9272
vn -0.4964 0.3685 -0.7860
vn -0.8505 0.5060 0.1433
vn -0.2894 0.2401 0.9266
vn 0.5740 -0.2425 0.7821
vn 0.8771 -0.4576 -0.1459
vn 0.3164 -0.1909 -0.9292
vn -0.5479 0.2901 -0.7846
vn -0.8625 0.4851 0.1444
vn -0.2866 0.2465 0.9258
vn 0.5888 -0.2135 0.7796
vn 0.8883 -0.4347 -0.1481
vn 0.3125 -0.1960 -0.9295
vn -0.5630 0.2638 -0.7833
vn -0.8625 0.4850 0.1444
vn -0.2866 0.2465 0.9258
vn 0.5889 -0.2132 0.7796
vn 0.8884 -0.4344 -0.1481
vn 0.3125 -0.1960 -0.9295
vn -0.5630 0.2637 -0.7833
vn -0.4554 0.8879 -0.0647
vn -0.4554 0.8879 -0.0647
vn -0.4554 0.8879 -0.0647
vn -0.4554 0.8879 -0.0647
vn -0.4554 0.8879 -0.0647
vn -0.4554 0.8879 -0.0647
vn -0.4554 0.8879 -0.0647
vn 0.4554 0.8879 -0.0647
vn 0.4554 0.8879 -0.0647
vn 0.4554 0.8879 -0.0647
vn 0.4554 0.8879 -0.0647
vn 0.4554 0.8879 -0.0647
vn 0.4554 0.8879 -0.0647
vn 0.4554 0.8879 -0.0647
f 441//441 442//442 448//448 447//447
f 442//442 443//443 449//449 448//448
f 443//443 444//444 450//450 449//449
f 444//444 445//445 451//451 450//450
f 445//445 446//446 452//452 451//451
f 446//446 441//441 447//447 452//452
f 447//447 448//448 454//454 453//453
f 448//448 449//449 455//455 454//454
f 449//449 450//450 456//456 455//455
f 450//450 451//451 457//457 456//456
f 451//451 452//452 458//458 457//457
f 452//452 447//447 453//453 458//458
f 453//453 454//454 460//460 459//459
f 454//454 455//455 461//461 460//460
f 455//455 456//456 462//462 461//461
f 456//456 457//457 463//463 462//462
f 457//457 458//458 464//464 463//463
f 458//458 453//453 459//459 464//464
f 459//459 460//460 466//466 465//465
f 460//460 461//461 467//467 466//466
f 461//461 462//462 468//468 467//467
f 462//462 463//463 469//469 468//468
f 463//463 464//464 470//470 469//469
f 464//464 459//459 465//465 470//470
f 465//465 466//466 472//472 471//471
f 466//466 467//467 473//473 472//472
f 467//467 468//468 474//474 473//473
f 468//468 469//469 475//475 474//474
f 469//469 470//470 476//476 475//475
f 470//470 465//465 471//471 476//476
f 471//471 472//472 478//478 477//477
f 472//472 473//473 479//479 478//478
f 473//473 474//474 480//480 479//479
f 474//474 475//475 481//481 480//480
f 475//475 476//476 482//482 481//481
f 476//476 471//471 477//477 482//482
f 477//477 478//478 484//484 483//483
f 478//478 479//479 485//485 484//484
f 479//479 480//480 486//486 485//485
f 480//480 481//481 487//487 486//486
f 481//481 482//482 488//488 487//487
f 482//482 477//477 483//483 488//488
f 483//483 484//484 490//490 489//489
f 484//484 485//485 491//491 490//490
f 485//485 486//486 492//492 491//491
f 486//486 487//487 493//493 492//492
f 487//487 488//488 494//494 493//493
f 488//488 483//483 489//489 494//494
f 489//489 490//490 496//496 495//495
f 490//490 491//491 497//497 496//496
f 491//491 492//492 498//498 497//497
f 492//492 493//493 499//499 498//498
f 493//493 494//494 500//500 499//499
f 494//494 489//489 495//495 500//500
f 495//495 496//496 502//502 501//501
f 496//496 497//497 503//503 502//502
f 497//497 498//498 504//504 503//503
f 498//498 499//499 505//505 504//504
f 499//499 500//500 506//506 505//505
f 500//500 495//495 501//501 506//506
f 501//501 502//502 508//508 507//507
f 502//502 503//503 509//509 508//508
f 503//503 504//504 510//510 509//509
f 504//504 505//505 511//511 510//510
f 505//505 506//506 512//512 511//511
f 506//506 501//501 507//507 512//512
f 507//507 508//508 514//514 513//513
f 508//508 509//509 515//515 514//514
f 509//509 510//510 516//516 515//515
f 510//510 511//511 517//517 516//516
f 511//511 512//512 518//518 517//517
f 512//512 507//507 513//513 518//518
f 513//513 514//514 520//520 519//519
f 514//514 515//515 521//521 520//520
f 515//515 516//516 522//522 521//521
f 516//516 517//517 523//523 522//522
f 517//517 518//518 524//524 523//523
f 518//518 513//513 519//519 524//524
f 519//519 520//520 526//526 525//525
f 520//520 521//521 527//527 526//526
f 521//521 522//522 528//528 527//527
f 522//522 523//523 529//529 528//528
f 523//523 524//524 530//530 529//529
f 524//524 519//519 525//525 530//530
f 525//525 526//526 532//532 531//531
f 526//526 527//527 533//533 532//532
f 527//527 528//528 534//534 533//533
f 528//528 529//529 535//535 534//534
f 529//529 530//530 536//536 535//535
f 530//530 525//525 531//531 536//536
f 531//531 532//532 538//538 537//537
f 532//532 533//533 539//539 538//538
f 533//533 534//534 540//540 539//539
f 534//534 535//535 541//541 540//540
f 535//535 536//536 542//542 541//541
f 536//536 531//531 537//537 542//542
f 537//537 538//538 544//544 543//543
f 538//538 539//539 545//545 544//544
f 539//539 540//540 546//546 545//545
f 540//540 541//541 547//547 546//546
f 541//541 542//542 548//548 547//547
f 542//542 537//537 543//543 548//548
f 543//543 544//544 550//550 549//549
f 544//544 545//545 551//551 550//550
f 545//545 546//546 552//552 551//551
f 546//546 547//547 553//553 552//552
f 547//547 548//548 554//554 553//553
f 548//548 543//543 549//549 554//554
f 556//556 561//561 555//555
f 557//557 561//561 556//556
f 558//558 561//561 557//557
f 559//559 561//561 558//558
f 560//560 561//561 559//559
f 555//555 561//561 560//560
f 563//563 568//568 562//562
f 564//564 568//568 563//563
f 565//565 568//568 564//564
f 566//566 568//568 565//565
f 567//567 568//568 566//566
f 562//562 568//568 567//567
