# generated by a generate_*.py
mtllib gnome.mtl
o gnome_leg_l
g part0
usemtl trousers
v 0.04500 0.23000 0.04200
v 0.02031 0.23000 0.03398
v 0.00506 0.23000 0.01298
v 0.00506 0.23000 -0.01298
v 0.02031 0.23000 -0.03398
v 0.04500 0.23000 -0.04200
v 0.06969 0.23000 -0.03398
v 0.08494 0.23000 -0.01298
v 0.08494 0.23000 0.01298
v 0.06969 0.23000 0.03398
v 0.04500 0.20736 0.04120
v 0.02078 0.20736 0.03333
v 0.00582 0.20736 0.01273
v 0.00582 0.20736 -0.01273
v 0.02078 0.20736 -0.03333
v 0.04500 0.20736 -0.04120
v 0.06922 0.20736 -0.03333
v 0.08418 0.20736 -0.01273
v 0.08418 0.20736 0.01273
v 0.06922 0.20736 0.03333
v 0.04500 0.18408 0.04040
v 0.02125 0.18408 0.03268
v 0.00658 0.18408 0.01248
v 0.00658 0.18408 -0.01248
v 0.02125 0.18408 -0.03268
v 0.04500 0.18408 -0.04040
v 0.06875 0.18408 -0.03268
v 0.08342 0.18408 -0.01248
v 0.08342 0.18408 0.01248
v 0.06875 0.18408 0.03268
v 0.04500 0.16112 0.03960
v 0.02172 0.16112 0.03204
v 0.00734 0.16112 0.01224
v 0.00734 0.16112 -0.01224
v 0.02172 0.16112 -0.03204
v 0.04500 0.16112 -0.03960
v 0.06828 0.16112 -0.03204
v 0.08266 0.16112 -0.01224
v 0.08266 0.16112 0.01224
v 0.06828 0.16112 0.03204
v 0.04500 0.13944 0.03880
v 0.02219 0.13944 0.03139
v 0.00810 0.13944 0.01199
v 0.00810 0.13944 -0.01199
v 0.02219 0.13944 -0.03139
v 0.04500 0.13944 -0.03880
v 0.06781 0.13944 -0.03139
v 0.08190 0.13944 -0.01199
v 0.08190 0.13944 0.01199
v 0.06781 0.13944 0.03139
v 0.04500 0.12000 0.03800
v 0.02266 0.12000 0.03074
v 0.00886 0.12000 0.01174
v 0.00886 0.12000 -0.01174
v 0.02266 0.12000 -0.03074
v 0.04500 0.12000 -0.03800
v 0.06734 0.12000 -0.03074
v 0.08114 0.12000 -0.01174
v 0.08114 0.12000 0.01174
v 0.06734 0.12000 0.03074
v 0.04500 0.10344 0.03720
v 0.02313 0.10344 0.03010
v 0.00962 0.10344 0.01150
v 0.00962 0.10344 -0.01150
v 0.02313 0.10344 -0.03010
v 0.04500 0.10344 -0.03720
v 0.06687 0.10344 -0.03010
v 0.08038 0.10344 -0.01150
v 0.08038 0.10344 0.01150
v 0.06687 0.10344 0.03010
v 0.04500 0.08912 0.03640
v 0.02360 0.08912 0.02945
v 0.01038 0.08912 0.01125
v 0.01038 0.08912 -0.01125
v 0.02360 0.08912 -0.02945
v 0.04500 0.08912 -0.03640
v 0.06640 0.08912 -0.02945
v 0.07962 0.08912 -0.01125
v 0.07962 0.08912 0.01125
v 0.06640 0.08912 0.02945
v 0.04500 0.07608 0.03560
v 0.02407 0.07608 0.02880
v 0.01114 0.07608 0.01100
v 0.01114 0.07608 -0.01100
v 0.02407 0.07608 -0.02880
v 0.04500 0.07608 -0.03560
v 0.06593 0.07608 -0.02880
v 0.07886 0.07608 -0.01100
v 0.07886 0.07608 0.01100
v 0.06593 0.07608 0.02880
v 0.04500 0.06336 0.03480
v 0.02455 0.06336 0.02815
v 0.01190 0.06336 0.01075
v 0.01190 0.06336 -0.01075
v 0.02455 0.06336 -0.02815
v 0.04500 0.06336 -0.03480
v 0.06545 0.06336 -0.02815
v 0.07810 0.06336 -0.01075
v 0.07810 0.06336 0.01075
v 0.06545 0.06336 0.02815
v 0.04500 0.05000 0.03400
v 0.02502 0.05000 0.02751
v 0.01266 0.05000 0.01051
v 0.01266 0.05000 -0.01051
v 0.02502 0.05000 -0.02751
v 0.04500 0.05000 -0.03400
v 0.06498 0.05000 -0.02751
v 0.07734 0.05000 -0.01051
v 0.07734 0.05000 0.01051
v 0.06498 0.05000 0.02751
v 0.04500 0.23000 0.04200
v 0.02031 0.23000 0.03398
v 0.00506 0.23000 0.01298
v 0.00506 0.23000 -0.01298
v 0.02031 0.23000 -0.03398
v 0.04500 0.23000 -0.04200
v 0.06969 0.23000 -0.03398
v 0.08494 0.23000 -0.01298
v 0.08494 0.23000 0.01298
v 0.06969 0.23000 0.03398
v 0.04500 0.23000 0.00000
v 0.04500 0.05000 0.03400
v 0.02502 0.05000 0.02751
v 0.01266 0.05000 0.01051
v 0.01266 0.05000 -0.01051
v 0.02502 0.05000 -0.02751
v 0.04500 0.05000 -0.03400
v 0.06498 0.05000 -0.02751
v 0.07734 0.05000 -0.01051
v 0.07734 0.05000 0.01051
v 0.06498 0.05000 0.02751
v 0.04500 0.05000 0.00000
vn 0.0000 -0.0353 0.9994
vn -0.5874 -0.0353 0.8085
vn -0.9505 -0.0353 0.3088
vn -0.9505 -0.0353 -0.3088
vn -0.5874 -0.0353 -0.8085
vn -0.0000 -0.0353 -0.9994
vn 0.5874 -0.0353 -0.8085
vn 0.9505 -0.0353 -0.3088
vn 0.9505 -0.0353 0.3088
vn 0.5874 -0.0353 0.8085
vn 0.0000 -0.0348 0.9994
vn -0.5874 -0.0348 0.8085
vn -0.9505 -0.0348 0.3088
vn -0.9505 -0.0348 -0.3088
vn -0.5874 -0.0348 -0.8085
vn -0.0000 -0.0348 -0.9994
vn 0.5874 -0.0348 -0.8085
vn 0.9505 -0.0348 -0.3088
vn 0.9505 -0.0348 0.3088
vn 0.5874 -0.0348 0.8085
vn 0.0000 -0.0346 0.9994
vn -0.5874 -0.0346 0.8085
vn -0.9505 -0.0346 0.3088
vn -0.9505 -0.0346 -0.3088
vn -0.5874 -0.0346 -0.8085
vn -0.0000 -0.0346 -0.9994
vn 0.5874 -0.0346 -0.8085
vn 0.9505 -0.0346 -0.3088
vn 0.9505 -0.0346 0.3088
vn 0.5874 -0.0346 0.8085
vn 0.0000 -0.0358 0.9994
vn -0.5874 -0.0358 0.8085
vn -0.9504 -0.0358 0.3088
vn -0.9504 -0.0358 -0.3088
vn -0.5874 -0.0358 -0.8085
vn -0.0000 -0.0358 -0.9994
vn 0.5874 -0.0358 -0.8085
vn 0.9504 -0.0358 -0.3088
vn 0.9504 -0.0358 0.3088
vn 0.5874 -0.0358 0.8085
vn 0.0000 -0.0389 0.9992
vn -0.5873 -0.0389 0.8084
vn -0.9503 -0.0389 0.3088
vn -0.9503 -0.0389 -0.3088
vn -0.5873 -0.0389 -0.8084
vn -0.0000 -0.0389 -0.9992
vn 0.5873 -0.0389 -0.8084
vn 0.9503 -0.0389 -0.3088
vn 0.9503 -0.0389 0.3088
vn 0.5873 -0.0389 0.8084
vn 0.0000 -0.0444 0.9990
vn -0.5872 -0.0444 0.8082
vn -0.9501 -0.0444 0.3087
vn -0.9501 -0.0444 -0.3087
vn -0.5872 -0.0444 -0.8082
vn -0.0000 -0.0444 -0.9990
vn 0.5872 -0.0444 -0.8082
vn 0.9501 -0.0444 -0.3087
vn 0.9501 -0.0444 0.3087
vn 0.5872 -0.0444 0.8082
vn 0.0000 -0.0517 0.9987
vn -0.5870 -0.0517 0.8079
vn -0.9498 -0.0517 0.3086
vn -0.9498 -0.0517 -0.3086
vn -0.5870 -0.0517 -0.8079
vn -0.0000 -0.0517 -0.9987
vn 0.5870 -0.0517 -0.8079
vn 0.9498 -0.0517 -0.3086
vn 0.9498 -0.0517 0.3086
vn 0.5870 -0.0517 0.8079
vn 0.0000 -0.0584 0.9983
vn -0.5868 -0.0584 0.8076
vn -0.9494 -0.0584 0.3085
vn -0.9494 -0.0584 -0.3085
vn -0.5868 -0.0584 -0.8076
vn -0.0000 -0.0584 -0.9983
vn 0.5868 -0.0584 -0.8076
vn 0.9494 -0.0584 -0.3085
vn 0.9494 -0.0584 0.3085
vn 0.5868 -0.0584 0.8076
vn 0.0000 -0.0620 0.9981
vn -0.5867 -0.0620 0.8075
vn -0.9492 -0.0620 0.3084
vn -0.9492 -0.0620 -0.3084
vn -0.5867 -0.0620 -0.8075
vn -0.0000 -0.0620 -0.9981
vn 0.5867 -0.0620 -0.8075
vn 0.9492 -0.0620 -0.3084
vn 0.9492 -0.0620 0.3084
vn 0.5867 -0.0620 0.8075
vn 0.0000 -0.0612 0.9981
vn -0.5867 -0.0612 0.8075
vn -0.9493 -0.0612 0.3084
vn -0.9493 -0.0612 -0.3084
vn -0.5867 -0.0612 -0.8075
vn -0.0000 -0.0612 -0.9981
vn 0.5867 -0.0612 -0.8075
vn 0.9493 -0.0612 -0.3084
vn 0.9493 -0.0612 0.3084
vn 0.5867 -0.0612 0.8075
vn 0.0000 -0.0598 0.9982
vn -0.5867 -0.0598 0.8076
vn -0.9494 -0.0598 0.3085
vn -0.9494 -0.0598 -0.3085
vn -0.5867 -0.0598 -0.8076
vn -0.0000 -0.0598 -0.9982
vn 0.5867 -0.0598 -0.8076
vn 0.9494 -0.0598 -0.3085
vn 0.9494 -0.0598 0.3085
vn 0.5867 -0.0598 0.8076
vn -0.0000 1.0000 -0.0000
vn -0.0000 1.0000 -0.0000
vn -0.0000 1.0000 -0.0000
vn -0.0000 1.0000 -0.0000
vn -0.0000 1.0000 -0.0000
vn -0.0000 1.0000 -0.0000
vn -0.0000 1.0000 -0.0000
vn -0.0000 1.0000 -0.0000
vn -0.0000 1.0000 -0.0000
vn -0.0000 1.0000 -0.0000
vn -0.0000 1.0000 -0.0000
vn -0.0000 -1.0000 0.0000
vn -0.0000 -1.0000 0.0000
vn -0.0000 -1.0000 0.0000
vn -0.0000 -1.0000 0.0000
vn -0.0000 -1.0000 0.0000
vn -0.0000 -1.0000 0.0000
vn -0.0000 -1.0000 0.0000
vn -0.0000 -1.0000 0.0000
vn -0.0000 -1.0000 0.0000
vn -0.0000 -1.0000 0.0000
vn -0.0000 -1.0000 0.0000
f 1//1 2//2 12//12 11//11
f 2//2 3//3 13//13 12//12
f 3//3 4//4 14//14 13//13
f 4//4 5//5 15//15 14//14
f 5//5 6//6 16//16 15//15
f 6//6 7//7 17//17 16//16
f 7//7 8//8 18//18 17//17
f 8//8 9//9 19//19 18//18
f 9//9 10//10 20//20 19//19
f 10//10 1//1 11//11 20//20
f 11//11 12//12 22//22 21//21
f 12//12 13//13 23//23 22//22
f 13//13 14//14 24//24 23//23
f 14//14 15//15 25//25 24//24
f 15//15 16//16 26//26 25//25
f 16//16 17//17 27//27 26//26
f 17//17 18//18 28//28 27//27
f 18//18 19//19 29//29 28//28
f 19//19 20//20 30//30 29//29
f 20//20 11//11 21//21 30//30
f 21//21 22//22 32//32 31//31
f 22//22 23//23 33//33 32//32
f 23//23 24//24 34//34 33//33
f 24//24 25//25 35//35 34//34
f 25//25 26//26 36//36 35//35
f 26//26 27//27 37//37 36//36
f 27//27 28//28 38//38 37//37
f 28//28 29//29 39//39 38//38
f 29//29 30//30 40//40 39//39
f 30//30 21//21 31//31 40//40
f 31//31 32//32 42//42 41//41
f 32//32 33//33 43//43 42//42
f 33//33 34//34 44//44 43//43
f 34//34 35//35 45//45 44//44
f 35//35 36//36 46//46 45//45
f 36//36 37//37 47//47 46//46
f 37//37 38//38 48//48 47//47
f 38//38 39//39 49//49 48//48
f 39//39 40//40 50//50 49//49
f 40//40 31//31 41//41 50//50
f 41//41 42//42 52//52 51//51
f 42//42 43//43 53//53 52//52
f 43//43 44//44 54//54 53//53
f 44//44 45//45 55//55 54//54
f 45//45 46//46 56//56 55//55
f 46//46 47//47 57//57 56//56
f 47//47 48//48 58//58 57//57
f 48//48 49//49 59//59 58//58
f 49//49 50//50 60//60 59//59
f 50//50 41//41 51//51 60//60
f 51//51 52//52 62//62 61//61
f 52//52 53//53 63//63 62//62
f 53//53 54//54 64//64 63//63
f 54//54 55//55 65//65 64//64
f 55//55 56//56 66//66 65//65
f 56//56 57//57 67//67 66//66
f 57//57 58//58 68//68 67//67
f 58//58 59//59 69//69 68//68
f 59//59 60//60 70//70 69//69
f 60//60 51//51 61//61 70//70
f 61//61 62//62 72//72 71//71
f 62//62 63//63 73//73 72//72
f 63//63 64//64 74//74 73//73
f 64//64 65//65 75//75 74//74
f 65//65 66//66 76//76 75//75
f 66//66 67//67 77//77 76//76
f 67//67 68//68 78//78 77//77
f 68//68 69//69 79//79 78//78
f 69//69 70//70 80//80 79//79
f 70//70 61//61 71//71 80//80
f 71//71 72//72 82//82 81//81
f 72//72 73//73 83//83 82//82
f 73//73 74//74 84//84 83//83
f 74//74 75//75 85//85 84//84
f 75//75 76//76 86//86 85//85
f 76//76 77//77 87//87 86//86
f 77//77 78//78 88//88 87//87
f 78//78 79//79 89//89 88//88
f 79//79 80//80 90//90 89//89
f 80//80 71//71 81//81 90//90
f 81//81 82//82 92//92 91//91
f 82//82 83//83 93//93 92//92
f 83//83 84//84 94//94 93//93
f 84//84 85//85 95//95 94//94
f 85//85 86//86 96//96 95//95
f 86//86 87//87 97//97 96//96
f 87//87 88//88 98//98 97//97
f 88//88 89//89 99//99 98//98
f 89//89 90//90 100//100 99//99
f 90//90 81//81 91//91 100//100
f 91//91 92//92 102//102 101//101
f 92//92 93//93 103//103 102//102
f 93//93 94//94 104//104 103//103
f 94//94 95//95 105//105 104//104
f 95//95 96//96 106//106 105//105
f 96//96 97//97 107//107 106//106
f 97//97 98//98 108//108 107//107
f 98//98 99//99 109//109 108//108
f 99//99 100//100 110//110 109//109
f 100//100 91//91 101//101 110//110
f 112//112 121//121 111//111
f 113//113 121//121 112//112
f 114//114 121//121 113//113
f 115//115 121//121 114//114
f 116//116 121//121 115//115
f 117//117 121//121 116//116
f 118//118 121//121 117//117
f 119//119 121//121 118//118
f 120//120 121//121 119//119
f 111//111 121//121 120//120
f 123//123 132//132 122//122
f 124//124 132//132 123//123
f 125//125 132//132 124//124
f 126//126 132//132 125//125
f 127//127 132//132 126//126
f 128//128 132//132 127//127
f 129//129 132//132 128//128
f 130//130 132//132 129//129
f 131//131 132//132 130//130
f 122//122 132//132 131//131
g part1
usemtl boot
v 0.04500 0.06400 0.02500
v 0.04500 0.06400 0.02500
v 0.04500 0.06400 0.02500
v 0.04500 0.06400 0.02500
v 0.04500 0.06400 0.02500
v 0.04500 0.06400 0.02500
v 0.04500 0.06400 0.02500
v 0.04500 0.06400 0.02500
v 0.04500 0.06400 0.02500
v 0.04500 0.06400 0.02500
v 0.04500 0.06400 0.02500
v 0.04500 0.06400 0.02500
v 0.04500 0.06156 0.04873
v 0.05208 0.06156 0.04555
v 0.05726 0.06156 0.03686
v 0.05916 0.06156 0.02500
v 0.05726 0.06156 0.01314
v 0.05208 0.06156 0.00445
v 0.04500 0.06156 0.00127
v 0.03792 0.06156 0.00445
v 0.03274 0.06156 0.01314
v 0.03084 0.06156 0.02500
v 0.03274 0.06156 0.03686
v 0.03792 0.06156 0.04555
v 0.04500 0.05463 0.06884
v 0.05808 0.05463 0.06297
v 0.06766 0.05463 0.04692
v 0.07116 0.05463 0.02500
v 0.06766 0.05463 0.00308
v 0.05808 0.05463 -0.01297
v 0.04500 0.05463 -0.01884
v 0.03192 0.05463 -0.01297
v 0.02234 0.05463 0.00308
v 0.01884 0.05463 0.02500
v 0.02234 0.05463 0.04692
v 0.03192 0.05463 0.06297
v 0.04500 0.04425 0.08228
v 0.06209 0.04425 0.07461
v 0.07460 0.04425 0.05364
v 0.07918 0.04425 0.02500
v 0.07460 0.04425 -0.00364
v 0.06209 0.04425 -0.02461
v 0.04500 0.04425 -0.03228
v 0.02791 0.04425 -0.02461
v 0.01540 0.04425 -0.00364
v 0.01082 0.04425 0.02500
v 0.01540 0.04425 0.05364
v 0.02791 0.04425 0.07461
v 0.04500 0.03200 0.08700
v 0.06350 0.03200 0.07869
v 0.07704 0.03200 0.05600
v 0.08200 0.03200 0.02500
v 0.07704 0.03200 -0.00600
v 0.06350 0.03200 -0.02869
v 0.04500 0.03200 -0.03700
v 0.02650 0.03200 -0.02869
v 0.01296 0.03200 -0.00600
v 0.00800 0.03200 0.02500
v 0.01296 0.03200 0.05600
v 0.02650 0.03200 0.07869
v 0.04500 0.01975 0.08228
v 0.06209 0.01975 0.07461
v 0.07460 0.01975 0.05364
v 0.07918 0.01975 0.02500
v 0.07460 0.01975 -0.00364
v 0.06209 0.01975 -0.02461
v 0.04500 0.01975 -0.03228
v 0.02791 0.01975 -0.02461
v 0.01540 0.01975 -0.00364
v 0.01082 0.01975 0.02500
v 0.01540 0.01975 0.05364
v 0.02791 0.01975 0.07461
v 0.04500 0.00937 0.06884
v 0.05808 0.00937 0.06297
v 0.06766 0.00937 0.04692
v 0.07116 0.00937 0.02500
v 0.06766 0.00937 0.00308
v 0.05808 0.00937 -0.01297
v 0.04500 0.00937 -0.01884
v 0.03192 0.00937 -0.01297
v 0.02234 0.00937 0.00308
v 0.01884 0.00937 0.02500
v 0.02234 0.00937 0.04692
v 0.03192 0.00937 0.06297
v 0.04500 0.00244 0.04873
v 0.05208 0.00244 0.04555
v 0.05726 0.00244 0.03686
v 0.05916 0.00244 0.02500
v 0.05726 0.00244 0.01314
v 0.05208 0.00244 0.00445
v 0.04500 0.00244 0.00127
v 0.03792 0.00244 0.00445
v 0.03274 0.00244 0.01314
v 0.03084 0.00244 0.02500
v 0.03274 0.00244 0.03686
v 0.03792 0.00244 0.04555
v 0.04500 0.00000 0.02500
v 0.04500 0.00000 0.02500
v 0.04500 0.00000 0.02500
v 0.04500 0.00000 0.02500
v 0.04500 0.00000 0.02500
v 0.04500 0.00000 0.02500
v 0.04500 0.00000 0.02500
v 0.04500 0.00000 0.02500
v 0.04500 0.00000 0.02500
v 0.04500 0.00000 0.02500
v 0.04500 0.00000 0.02500
v 0.04500 0.00000 0.02500
vn 0.0000 1.0000 0.0000
vn 0.0000 1.0000 0.0000
vn 0.0000 1.0000 0.0000
vn 0.0000 1.0000 0.0000
vn 0.0000 1.0000 -0.0000
vn 0.0000 1.0000 -0.0000
vn 0.0000 1.0000 -0.0000
vn -0.0000 1.0000 -0.0000
vn -0.0000 1.0000 -0.0000
vn -0.0000 1.0000 -0.0000
vn -0.0000 1.0000 0.0000
vn -0.0000 1.0000 0.0000
vn 0.0000 0.9779 0.2091
vn 0.1735 0.9684 0.1793
vn 0.2948 0.9502 0.1016
vn 0.3373 0.9414 0.0000
vn 0.2948 0.9502 -0.1016
vn 0.1735 0.9684 -0.1793
vn 0.0000 0.9779 -0.2091
vn -0.1735 0.9684 -0.1793
vn -0.2948 0.9502 -0.1016
vn -0.3373 0.9414 -0.0000
vn -0.2948 0.9502 0.1016
vn -0.1735 0.9684 0.1793
vn 0.0000 0.8886 0.4586
vn 0.3672 0.8492 0.3796
vn 0.5871 0.7838 0.2023
vn 0.6542 0.7564 0.0000
vn 0.5871 0.7838 -0.2023
vn 0.3672 0.8492 -0.3796
vn 0.0000 0.8886 -0.4586
vn -0.3672 0.8492 -0.3796
vn -0.5871 0.7838 -0.2023
vn -0.6542 0.7564 -0.0000
vn -0.5871 0.7838 0.2023
vn -0.3672 0.8492 0.3796
vn 0.0000 0.6259 0.7799
vn 0.5787 0.5543 0.5982
vn 0.8378 0.4633 0.2887
vn 0.9019 0.4319 0.0000
vn 0.8378 0.4633 -0.2887
vn 0.5787 0.5543 -0.5982
vn 0.0000 0.6259 -0.7799
vn -0.5787 0.5543 -0.5982
vn -0.8378 0.4633 -0.2887
vn -0.9019 0.4319 -0.0000
vn -0.8378 0.4633 0.2887
vn -0.5787 0.5543 0.5982
vn 0.0000 0.0000 1.0000
vn 0.6953 0.0000 0.7187
vn 0.9455 0.0000 0.3258
vn 1.0000 0.0000 0.0000
vn 0.9455 0.0000 -0.3258
vn 0.6953 0.0000 -0.7187
vn 0.0000 0.0000 -1.0000
vn -0.6953 0.0000 -0.7187
vn -0.9455 0.0000 -0.3258
vn -1.0000 0.0000 -0.0000
vn -0.9455 0.0000 0.3258
vn -0.6953 0.0000 0.7187
vn 0.0000 -0.6259 0.7799
vn 0.5787 -0.5543 0.5982
vn 0.8378 -0.4633 0.2887
vn 0.9019 -0.4319 0.0000
vn 0.8378 -0.4633 -0.2887
vn 0.5787 -0.5543 -0.5982
vn 0.0000 -0.6259 -0.7799
vn -0.5787 -0.5543 -0.5982
vn -0.8378 -0.4633 -0.2887
vn -0.9019 -0.4319 -0.0000
vn -0.8378 -0.4633 0.2887
vn -0.5787 -0.5543 0.5982
vn 0.0000 -0.8886 0.4586
vn 0.3672 -0.8492 0.3796
vn 0.5871 -0.7838 0.2023
vn 0.6542 -0.7564 0.0000
vn 0.5871 -0.7838 -0.2023
vn 0.3672 -0.8492 -0.3796
vn 0.0000 -0.8886 -0.4586
vn -0.3672 -0.8492 -0.3796
vn -0.5871 -0.7838 -0.2023
vn -0.6542 -0.7564 -0.0000
vn -0.5871 -0.7838 0.2023
vn -0.3672 -0.8492 0.3796
vn 0.0000 -0.9779 0.2091
vn 0.1735 -0.9684 0.1793
vn 0.2948 -0.9502 0.1016
vn 0.3373 -0.9414 0.0000
vn 0.2948 -0.9502 -0.1016
vn 0.1735 -0.9684 -0.1793
vn 0.0000 -0.9779 -0.2091
vn -0.1735 -0.9684 -0.1793
vn -0.2948 -0.9502 -0.1016
vn -0.3373 -0.9414 -0.0000
vn -0.2948 -0.9502 0.1016
vn -0.1735 -0.9684 0.1793
vn 0.0000 -1.0000 0.0000
vn 0.0000 -1.0000 0.0000
vn 0.0000 -1.0000 0.0000
vn 0.0000 -1.0000 0.0000
vn 0.0000 -1.0000 -0.0000
vn 0.0000 -1.0000 -0.0000
vn 0.0000 -1.0000 -0.0000
vn -0.0000 -1.0000 -0.0000
vn -0.0000 -1.0000 -0.0000
vn -0.0000 -1.0000 -0.0000
vn -0.0000 -1.0000 0.0000
vn -0.0000 -1.0000 0.0000
f 145//145 146//146 134//134 133//133
f 146//146 147//147 135//135 134//134
f 147//147 148//148 136//136 135//135
f 148//148 149//149 137//137 136//136
f 149//149 150//150 138//138 137//137
f 150//150 151//151 139//139 138//138
f 151//151 152//152 140//140 139//139
f 152//152 153//153 141//141 140//140
f 153//153 154//154 142//142 141//141
f 154//154 155//155 143//143 142//142
f 155//155 156//156 144//144 143//143
f 156//156 145//145 133//133 144//144
f 157//157 158//158 146//146 145//145
f 158//158 159//159 147//147 146//146
f 159//159 160//160 148//148 147//147
f 160//160 161//161 149//149 148//148
f 161//161 162//162 150//150 149//149
f 162//162 163//163 151//151 150//150
f 163//163 164//164 152//152 151//151
f 164//164 165//165 153//153 152//152
f 165//165 166//166 154//154 153//153
f 166//166 167//167 155//155 154//154
f 167//167 168//168 156//156 155//155
f 168//168 157//157 145//145 156//156
f 169//169 170//170 158//158 157//157
f 170//170 171//171 159//159 158//158
f 171//171 172//172 160//160 159//159
f 172//172 173//173 161//161 160//160
f 173//173 174//174 162//162 161//161
f 174//174 175//175 163//163 162//162
f 175//175 176//176 164//164 163//163
f 176//176 177//177 165//165 164//164
f 177//177 178//178 166//166 165//165
f 178//178 179//179 167//167 166//166
f 179//179 180//180 168//168 167//167
f 180//180 169//169 157//157 168//168
f 181//181 182//182 170//170 169//169
f 182//182 183//183 171//171 170//170
f 183//183 184//184 172//172 171//171
f 184//184 185//185 173//173 172//172
f 185//185 186//186 174//174 173//173
f 186//186 187//187 175//175 174//174
f 187//187 188//188 176//176 175//175
f 188//188 189//189 177//177 176//176
f 189//189 190//190 178//178 177//177
f 190//190 191//191 179//179 178//178
f 191//191 192//192 180//180 179//179
f 192//192 181//181 169//169 180//180
f 193//193 194//194 182//182 181//181
f 194//194 195//195 183//183 182//182
f 195//195 196//196 184//184 183//183
f 196//196 197//197 185//185 184//184
f 197//197 198//198 186//186 185//185
f 198//198 199//199 187//187 186//186
f 199//199 200//200 188//188 187//187
f 200//200 201//201 189//189 188//188
f 201//201 202//202 190//190 189//189
f 202//202 203//203 191//191 190//190
f 203//203 204//204 192//192 191//191
f 204//204 193//193 181//181 192//192
f 205//205 206//206 194//194 193//193
f 206//206 207//207 195//195 194//194
f 207//207 208//208 196//196 195//195
f 208//208 209//209 197//197 196//196
f 209//209 210//210 198//198 197//197
f 210//210 211//211 199//199 198//198
f 211//211 212//212 200//200 199//199
f 212//212 213//213 201//201 200//200
f 213//213 214//214 202//202 201//201
f 214//214 215//215 203//203 202//202
f 215//215 216//216 204//204 203//203
f 216//216 205//205 193//193 204//204
f 217//217 218//218 206//206 205//205
f 218//218 219//219 207//207 206//206
f 219//219 220//220 208//208 207//207
f 220//220 221//221 209//209 208//208
f 221//221 222//222 210//210 209//209
f 222//222 223//223 211//211 210//210
f 223//223 224//224 212//212 211//211
f 224//224 225//225 213//213 212//212
f 225//225 226//226 214//214 213//213
f 226//226 227//227 215//215 214//214
f 227//227 228//228 216//216 215//215
f 228//228 217//217 205//205 216//216
f 229//229 230//230 218//218 217//217
f 230//230 231//231 219//219 218//218
f 231//231 232//232 220//220 219//219
f 232//232 233//233 221//221 220//220
f 233//233 234//234 222//222 221//221
f 234//234 235//235 223//223 222//222
f 235//235 236//236 224//224 223//223
f 236//236 237//237 225//225 224//224
f 237//237 238//238 226//226 225//225
f 238//238 239//239 227//227 226//226
f 239//239 240//240 228//228 227//227
f 240//240 229//229 217//217 228//228
