# generated by a generate_*.py
mtllib gnome.mtl
o gnome_knife
g part0
usemtl handle
v -0.12000 0.27500 0.04600
v -0.12778 0.27500 0.04278
v -0.13100 0.27500 0.03500
v -0.12778 0.27500 0.02722
v -0.12000 0.27500 0.02400
v -0.11222 0.27500 0.02722
v -0.10900 0.27500 0.03500
v -0.11222 0.27500 0.04278
v -0.12000 0.23500 0.04600
v -0.12778 0.23500 0.04278
v -0.13100 0.23500 0.03500
v -0.12778 0.23500 0.02722
v -0.12000 0.23500 0.02400
v -0.11222 0.23500 0.02722
v -0.10900 0.23500 0.03500
v -0.11222 0.23500 0.04278
v -0.12000 0.27500 0.04600
v -0.12778 0.27500 0.04278
v -0.13100 0.27500 0.03500
v -0.12778 0.27500 0.02722
v -0.12000 0.27500 0.02400
v -0.11222 0.27500 0.02722
v -0.10900 0.27500 0.03500
v -0.11222 0.27500 0.04278
v -0.12000 0.27500 0.03500
v -0.12000 0.23500 0.04600
v -0.12778 0.23500 0.04278
v -0.13100 0.23500 0.03500
v -0.12778 0.23500 0.02722
v -0.12000 0.23500 0.02400
v -0.11222 0.23500 0.02722
v -0.10900 0.23500 0.03500
v -0.11222 0.23500 0.04278
v -0.12000 0.23500 0.03500
vn 0.0000 0.0000 1.0000
vn -0.7071 0.0000 0.7071
vn -1.0000 -0.0000 -0.0000
vn -0.7071 -0.0000 -0.7071
vn 0.0000 0.0000 -1.0000
vn 0.7071 0.0000 -0.7071
vn 1.0000 0.0000 -0.0000
vn 0.7071 0.0000 0.7071
vn 0.0000 0.0000 1.0000
vn -0.7071 0.0000 0.7071
vn -1.0000 -0.0000 -0.0000
vn -0.7071 -0.0000 -0.7071
vn 0.0000 0.0000 -1.0000
vn 0.7071 0.0000 -0.7071
vn 1.0000 0.0000 -0.0000
vn 0.7071 0.0000 0.7071
vn -0.0000 1.0000 -0.0000
vn -0.0000 1.0000 -0.0000
vn -0.0000 1.0000 -0.0000
vn -0.0000 1.0000 -0.0000
vn -0.0000 1.0000 -0.0000
vn -0.0000 1.0000 -0.0000
vn -0.0000 1.0000 -0.0000
vn -0.0000 1.0000 -0.0000
vn -0.0000 1.0000 -0.0000
vn 0.0000 -1.0000 0.0000
vn 0.0000 -1.0000 0.0000
vn 0.0000 -1.0000 0.0000
vn 0.0000 -1.0000 0.0000
vn 0.0000 -1.0000 0.0000
vn 0.0000 -1.0000 0.0000
vn 0.0000 -1.0000 0.0000
vn 0.0000 -1.0000 0.0000
vn 0.0000 -1.0000 0.0000
f 1//1 2//2 10//10 9//9
f 2//2 3//3 11//11 10//10
f 3//3 4//4 12//12 11//11
f 4//4 5//5 13//13 12//12
f 5//5 6//6 14//14 13//13
f 6//6 7//7 15//15 14//14
f 7//7 8//8 16//16 15//15
f 8//8 1//1 9//9 16//16
f 18//18 25//25 17//17
f 19//19 25//25 18//18
f 20//20 25//25 19//19
f 21//21 25//25 20//20
f 22//22 25//25 21//21
f 23//23 25//25 22//22
f 24//24 25//25 23//23
f 17//17 25//25 24//24
f 27//27 34//34 26//26
f 28//28 34//34 27//27
f 29//29 34//34 28//28
f 30//30 34//34 29//29
f 31//31 34//34 30//30
f 32//32 34//34 31//31
f 33//33 34//34 32//32
f 26//26 34//34 33//33
g part1
usemtl buckle
v -0.12000 0.23700 0.03500
v -0.12000 0.23700 0.03500
v -0.12000 0.23700 0.03500
v -0.12000 0.23700 0.03500
v -0.12000 0.23700 0.03500
v -0.12000 0.23700 0.03500
v -0.12000 0.23700 0.03500
v -0.12000 0.23700 0.03500
v -0.12000 0.23583 0.04631
v -0.11200 0.23583 0.04300
v -0.10869 0.23583 0.03500
v -0.11200 0.23583 0.02700
v -0.12000 0.23583 0.02369
v -0.12800 0.23583 0.02700
v -0.13131 0.23583 0.03500
v -0.12800 0.23583 0.04300
v -0.12000 0.23300 0.05100
v -0.10869 0.23300 0.04631
v -0.10400 0.23300 0.03500
v -0.10869 0.23300 0.02369
v -0.12000 0.23300 0.01900
v -0.13131 0.23300 0.02369
v -0.13600 0.23300 0.03500
v -0.13131 0.23300 0.04631
v -0.12000 0.23017 0.04631
v -0.11200 0.23017 0.04300
v -0.10869 0.23017 0.03500
v -0.11200 0.23017 0.02700
v -0.12000 0.23017 0.02369
v -0.12800 0.23017 0.02700
v -0.13131 0.23017 0.03500
v -0.12800 0.23017 0.04300
v -0.12000 0.22900 0.03500
v -0.12000 0.22900 0.03500
v -0.12000 0.22900 0.03500
v -0.12000 0.22900 0.03500
v -0.12000 0.22900 0.03500
v -0.12000 0.22900 0.03500
v -0.12000 0.22900 0.03500
v -0.12000 0.22900 0.03500
vn 0.0000 1.0000 0.0000
vn 0.0000 1.0000 0.0000
vn 0.0000 1.0000 0.0000
vn 0.0000 1.0000 -0.0000
vn 0.0000 1.0000 -0.0000
vn -0.0000 1.0000 -0.0000
vn -0.0000 1.0000 -0.0000
vn -0.0000 1.0000 0.0000
vn 0.0000 0.9701 0.2425
vn 0.1715 0.9701 0.1715
vn 0.2425 0.9701 0.0000
vn 0.1715 0.9701 -0.1715
vn 0.0000 0.9701 -0.2425
vn -0.1715 0.9701 -0.1715
vn -0.2425 0.9701 -0.0000
vn -0.1715 0.9701 0.1715
vn 0.0000 0.0000 1.0000
vn 0.7071 0.0000 0.7071
vn 1.0000 0.0000 0.0000
vn 0.7071 0.0000 -0.7071
vn 0.0000 0.0000 -1.0000
vn -0.7071 0.0000 -0.7071
vn -1.0000 0.0000 -0.0000
vn -0.7071 0.0000 0.7071
vn 0.0000 -0.9701 0.2425
vn 0.1715 -0.9701 0.1715
vn 0.2425 -0.9701 0.0000
vn 0.1715 -0.9701 -0.1715
vn 0.0000 -0.9701 -0.2425
vn -0.1715 -0.9701 -0.1715
vn -0.2425 -0.9701 -0.0000
vn -0.1715 -0.9701 0.1715
vn 0.0000 -1.0000 0.0000
vn 0.0000 -1.0000 0.0000
vn 0.0000 -1.0000 0.0000
vn 0.0000 -1.0000 -0.0000
vn 0.0000 -1.0000 -0.0000
vn -0.0000 -1.0000 -0.0000
vn -0.0000 -1.0000 -0.0000
vn -0.0000 -1.0000 0.0000
f 43//43 44//44 36//36 35//35
f 44//44 45//45 37//37 36//36
f 45//45 46//46 38//38 37//37
f 46//46 47//47 39//39 38//38
f 47//47 48//48 40//40 39//39
f 48//48 49//49 41//41 40//40
f 49//49 50//50 42//42 41//41
f 50//50 43//43 35//35 42//42
f 51//51 52//52 44//44 43//43
f 52//52 53//53 45//45 44//44
f 53//53 54//54 46//46 45//45
f 54//54 55//55 47//47 46//46
f 55//55 56//56 48//48 47//47
f 56//56 57//57 49//49 48//48
f 57//57 58//58 50//50 49//49
f 58//58 51//51 43//43 50//50
f 59//59 60//60 52//52 51//51
f 60//60 61//61 53//53 52//52
f 61//61 62//62 54//54 53//53
f 62//62 63//63 55//55 54//54
f 63//63 64//64 56//56 55//55
f 64//64 65//65 57//57 56//56
f 65//65 66//66 58//58 57//57
f 66//66 59//59 51//51 58//58
f 67//67 68//68 60//60 59//59
f 68//68 69//69 61//61 60//60
f 69//69 70//70 62//62 61//61
f 70//70 71//71 63//63 62//62
f 71//71 72//72 64//64 63//63
f 72//72 73//73 65//65 64//64
f 73//73 74//74 66//66 65//65
f 74//74 67//67 59//59 66//66
g part2
usemtl steel
v -0.12000 0.24000 0.03500
v -0.12000 0.24000 0.03500
v -0.12000 0.24000 0.03500
v -0.12000 0.24000 0.03500
v -0.12000 0.24000 0.03500
v -0.12000 0.24000 0.03500
v -0.12000 0.24000 0.03500
v -0.12000 0.24000 0.03500
v -0.12000 0.23353 0.04074
v -0.11905 0.23353 0.03906
v -0.11866 0.23353 0.03500
v -0.11905 0.23353 0.03094
v -0.12000 0.23353 0.02926
v -0.12095 0.23353 0.03094
v -0.12134 0.23353 0.03500
v -0.12095 0.23353 0.03906
v -0.12000 0.21510 0.04561
v -0.11825 0.21510 0.04250
v -0.11753 0.21510 0.03500
v -0.11825 0.21510 0.02750
v -0.12000 0.21510 0.02439
v -0.12175 0.21510 0.02750
v -0.12247 0.21510 0.03500
v -0.12175 0.21510 0.04250
v -0.12000 0.18753 0.04886
v -0.11771 0.18753 0.04480
v -0.11677 0.18753 0.03500
v -0.11771 0.18753 0.02520
v -0.12000 0.18753 0.02114
v -0.12229 0.18753 0.02520
v -0.12323 0.18753 0.03500
v -0.12229 0.18753 0.04480
v -0.12000 0.15500 0.05000
v -0.11753 0.15500 0.04561
v -0.11650 0.15500 0.03500
v -0.11753 0.15500 0.02439
v -0.12000 0.15500 0.02000
v -0.12247 0.15500 0.02439
v -0.12350 0.15500 0.03500
v -0.12247 0.15500 0.04561
v -0.12000 0.12247 0.04886
v -0.11771 0.12247 0.04480
v -0.11677 0.12247 0.03500
v -0.11771 0.12247 0.02520
v -0.12000 0.12247 0.02114
v -0.12229 0.12247 0.02520
v -0.12323 0.12247 0.03500
v -0.12229 0.12247 0.04480
v -0.12000 0.09490 0.04561
v -0.11825 0.09490 0.04250
v -0.11753 0.09490 0.03500
v -0.11825 0.09490 0.02750
v -0.12000 0.09490 0.02439
v -0.12175 0.09490 0.02750
v -0.12247 0.09490 0.03500
v -0.12175 0.09490 0.04250
v -0.12000 0.07647 0.04074
v -0.11905 0.07647 0.03906
v -0.11866 0.07647 0.03500
v -0.11905 0.07647 0.03094
v -0.12000 0.07647 0.02926
v -0.12095 0.07647 0.03094
v -0.12134 0.07647 0.03500
v -0.12095 0.07647 0.03906
v -0.12000 0.07000 0.03500
v -0.12000 0.07000 0.03500
v -0.12000 0.07000 0.03500
v -0.12000 0.07000 0.03500
v -0.12000 0.07000 0.03500
v -0.12000 0.07000 0.03500
v -0.12000 0.07000 0.03500
v -0.12000 0.07000 0.03500
vn 0.0000 1.0000 0.0000
vn 0.0000 1.0000 0.0000
vn 0.0000 1.0000 0.0000
vn 0.0000 1.0000 -0.0000
vn 0.0000 1.0000 -0.0000
vn -0.0000 1.0000 -0.0000
vn -0.0000 1.0000 -0.0000
vn -0.0000 1.0000 0.0000
vn 0.0000 0.3919 0.9200
vn 0.9648 0.1356 0.2251
vn 0.9951 0.0989 0.0000
vn 0.9648 0.1356 -0.2251
vn 0.0000 0.3919 -0.9200
vn -0.9648 0.1356 -0.2251
vn -0.9951 0.0989 -0.0000
vn -0.9648 0.1356 0.2251
vn 0.0000 0.1738 0.9848
vn 0.9723 0.0566 0.2269
vn 0.9992 0.0411 0.0000
vn 0.9723 0.0566 -0.2269
vn 0.0000 0.1738 -0.9848
vn -0.9723 0.0566 -0.2269
vn -0.9992 0.0411 -0.0000
vn -0.9723 0.0566 0.2269
vn 0.0000 0.0729 0.9973
vn 0.9736 0.0235 0.2272
vn 0.9999 0.0171 0.0000
vn 0.9736 0.0235 -0.2272
vn 0.0000 0.0729 -0.9973
vn -0.9736 0.0235 -0.2272
vn -0.9999 0.0171 -0.0000
vn -0.9736 0.0235 0.2272
vn 0.0000 0.0000 1.0000
vn 0.9738 0.0000 0.2272
vn 1.0000 0.0000 0.0000
vn 0.9738 0.0000 -0.2272
vn 0.0000 0.0000 -1.0000
vn -0.9738 0.0000 -0.2272
vn -1.0000 0.0000 -0.0000
vn -0.9738 0.0000 0.2272
vn 0.0000 -0.0729 0.9973
vn 0.9736 -0.0235 0.2272
vn 0.9999 -0.0171 0.0000
vn 0.9736 -0.0235 -0.2272
vn 0.0000 -0.0729 -0.9973
vn -0.9736 -0.0235 -0.2272
vn -0.9999 -0.0171 -0.0000
vn -0.9736 -0.0235 0.2272
vn 0.0000 -0.1738 0.9848
vn 0.9723 -0.0566 0.2269
vn 0.9992 -0.0411 0.0000
vn 0.9723 -0.0566 -0.2269
vn 0.0000 -0.1738 -0.9848
vn -0.9723 -0.0566 -0.2269
vn -0.9992 -0.0411 -0.0000
vn -0.9723 -0.0566 0.2269
vn 0.0000 -0.3919 0.9200
vn 0.9648 -0.1356 0.2251
vn 0.9951 -0.0989 0.0000
vn 0.9648 -0.1356 -0.2251
vn 0.0000 -0.3919 -0.9200
vn -0.9648 -0.1356 -0.2251
vn -0.9951 -0.0989 -0.0000
vn -0.9648 -0.1356 0.2251
vn 0.0000 -1.0000 0.0000
vn 0.0000 -1.0000 0.0000
vn 0.0000 -1.0000 0.0000
vn 0.0000 -1.0000 -0.0000
vn 0.0000 -1.0000 -0.0000
vn -0.0000 -1.0000 -0.0000
vn -0.0000 -1.0000 -0.0000
vn -0.0000 -1.0000 0.0000
f 83//83 84//84 76//76 75//75
f 84//84 85//85 77//77 76//76
f 85//85 86//86 78//78 77//77
f 86//86 87//87 79//79 78//78
f 87//87 88//88 80//80 79//79
f 88//88 89//89 81//81 80//80
f 89//89 90//90 82//82 81//81
f 90//90 83//83 75//75 82//82
f 91//91 92//92 84//84 83//83
f 92//92 93//93 85//85 84//84
f 93//93 94//94 86//86 85//85
f 94//94 95//95 87//87 86//86
f 95//95 96//96 88//88 87//87
f 96//96 97//97 89//89 88//88
f 97//97 98//98 90//90 89//89
f 98//98 91//91 83//83 90//90
f 99//99 100//100 92//92 91//91
f 100//100 101//101 93//93 92//92
f 101//101 102//102 94//94 93//93
f 102//102 103//103 95//95 94//94
f 103//103 104//104 96//96 95//95
f 104//104 105//105 97//97 96//96
f 105//105 106//106 98//98 97//97
f 106//106 99//99 91//91 98//98
f 107//107 108//108 100//100 99//99
f 108//108 109//109 101//101 100//100
f 109//109 110//110 102//102 101//101
f 110//110 111//111 103//103 102//102
f 111//111 112//112 104//104 103//103
f 112//112 113//113 105//105 104//104
f 113//113 114//114 106//106 105//105
f 114//114 107//107 99//99 106//106
f 115//115 116//116 108//108 107//107
f 116//116 117//117 109//109 108//108
f 117//117 118//118 110//110 109//109
f 118//118 119//119 111//111 110//110
f 119//119 120//120 112//112 111//111
f 120//120 121//121 113//113 112//112
f 121//121 122//122 114//114 113//113
f 122//122 115//115 107//107 114//114
f 123//123 124//124 116//116 115//115
f 124//124 125//125 117//117 116//116
f 125//125 126//126 118//118 117//117
f 126//126 127//127 119//119 118//118
f 127//127 128//128 120//120 119//119
f 128//128 129//129 121//121 120//120
f 129//129 130//130 122//122 121//121
f 130//130 123//123 115//115 122//122
f 131//131 132//132 124//124 123//123
f 132//132 133//133 125//125 124//124
f 133//133 134//134 126//126 125//125
f 134//134 135//135 127//127 126//126
f 135//135 136//136 128//128 127//127
f 136//136 137//137 129//129 128//128
f 137//137 138//138 130//130 129//129
f 138//138 131//131 123//123 130//130
f 139//139 140//140 132//132 131//131
f 140//140 141//141 133//133 132//132
f 141//141 142//142 134//134 133//133
f 142//142 143//143 135//135 134//134
f 143//143 144//144 136//136 135//135
f 144//144 145//145 137//137 136//136
f 145//145 146//146 138//138 137//137
f 146//146 139//139 131//131 138//138
