# generated by a generate_*.py
mtllib gnome.mtl
o gnome_face_1
g part0
usemtl eye_white
v 0.04000 0.58400 0.10292
v 0.04000 0.58400 0.10292
v 0.04000 0.58400 0.10292
v 0.04000 0.58400 0.10292
v 0.04000 0.58400 0.10292
v 0.04000 0.58400 0.10292
v 0.04000 0.58400 0.10292
v 0.04000 0.58400 0.10292
v 0.04000 0.58400 0.10292
v 0.04000 0.58400 0.10292
v 0.04000 0.58400 0.10292
v 0.04000 0.58400 0.10292
v 0.04000 0.58233 0.10636
v 0.04364 0.58233 0.10590
v 0.04630 0.58233 0.10464
v 0.04727 0.58233 0.10292
v 0.04630 0.58233 0.10119
v 0.04364 0.58233 0.09993
v 0.04000 0.58233 0.09947
v 0.03636 0.58233 0.09993
v 0.03370 0.58233 0.10119
v 0.03273 0.58233 0.10292
v 0.03370 0.58233 0.10464
v 0.03636 0.58233 0.10590
v 0.04000 0.57756 0.10928
v 0.04672 0.57756 0.10843
v 0.05164 0.57756 0.10610
v 0.05344 0.57756 0.10292
v 0.05164 0.57756 0.09973
v 0.04672 0.57756 0.09740
v 0.04000 0.57756 0.09655
v 0.03328 0.57756 0.09740
v 0.02836 0.57756 0.09973
v 0.02656 0.57756 0.10292
v 0.02836 0.57756 0.10610
v 0.03328 0.57756 0.10843
v 0.04000 0.57042 0.11123
v 0.04878 0.57042 0.11012
v 0.05520 0.57042 0.10707
v 0.05755 0.57042 0.10292
v 0.05520 0.57042 0.09876
v 0.04878 0.57042 0.09571
v 0.04000 0.57042 0.09460
v 0.03122 0.57042 0.09571
v 0.02480 0.57042 0.09876
v 0.02245 0.57042 0.10292
v 0.02480 0.57042 0.10707
v 0.03122 0.57042 0.11012
v 0.04000 0.56200 0.11192
v 0.04950 0.56200 0.11071
v 0.05645 0.56200 0.10742
v 0.05900 0.56200 0.10292
v 0.05645 0.56200 0.09842
v 0.04950 0.56200 0.09512
v 0.04000 0.56200 0.09392
v 0.03050 0.56200 0.09512
v 0.02355 0.56200 0.09842
v 0.02100 0.56200 0.10292
v 0.02355 0.56200 0.10742
v 0.03050 0.56200 0.11071
v 0.04000 0.55358 0.11123
v 0.04878 0.55358 0.11012
v 0.05520 0.55358 0.10707
v 0.05755 0.55358 0.10292
v 0.05520 0.55358 0.09876
v 0.04878 0.55358 0.09571
v 0.04000 0.55358 0.09460
v 0.03122 0.55358 0.09571
v 0.02480 0.55358 0.09876
v 0.02245 0.55358 0.10292
v 0.02480 0.55358 0.10707
v 0.03122 0.55358 0.11012
v 0.04000 0.54644 0.10928
v 0.04672 0.54644 0.10843
v 0.05164 0.54644 0.10610
v 0.05344 0.54644 0.10292
v 0.05164 0.54644 0.09973
v 0.04672 0.54644 0.09740
v 0.04000 0.54644 0.09655
v 0.03328 0.54644 0.09740
v 0.02836 0.54644 0.09973
v 0.02656 0.54644 0.10292
v 0.02836 0.54644 0.10610
v 0.03328 0.54644 0.10843
v 0.04000 0.54167 0.10636
v 0.04364 0.54167 0.10590
v 0.04630 0.54167 0.10464
v 0.04727 0.54167 0.10292
v 0.04630 0.54167 0.10119
v 0.04364 0.54167 0.09993
v 0.04000 0.54167 0.09947
v 0.03636 0.54167 0.09993
v 0.03370 0.54167 0.10119
v 0.03273 0.54167 0.10292
v 0.03370 0.54167 0.10464
v 0.03636 0.54167 0.10590
v 0.04000 0.54000 0.10292
v 0.04000 0.54000 0.10292
v 0.04000 0.54000 0.10292
v 0.04000 0.54000 0.10292
v 0.04000 0.54000 0.10292
v 0.04000 0.54000 0.10292
v 0.04000 0.54000 0.10292
v 0.04000 0.54000 0.10292
v 0.04000 0.54000 0.10292
v 0.04000 0.54000 0.10292
v 0.04000 0.54000 0.10292
v 0.04000 0.54000 0.10292
vn 0.0000 1.0000 0.0000
vn 0.0000 1.0000 0.0000
vn 0.0000 1.0000 0.0000
vn 0.0000 1.0000 0.0000
vn 0.0000 1.0000 -0.0000
vn 0.0000 1.0000 -0.0000
vn 0.0000 1.0000 -0.0000
vn -0.0000 1.0000 -0.0000
vn -0.0000 1.0000 -0.0000
vn -0.0000 1.0000 -0.0000
vn -0.0000 1.0000 0.0000
vn -0.0000 1.0000 0.0000
vn 0.0000 0.7027 0.7115
vn 0.1774 0.7399 0.6488
vn 0.3475 0.8366 0.4235
vn 0.4324 0.9017 0.0000
vn 0.3475 0.8366 -0.4235
vn 0.1774 0.7399 -0.6488
vn 0.0000 0.7027 -0.7115
vn -0.1774 0.7399 -0.6488
vn -0.3475 0.8366 -0.4235
vn -0.4324 0.9017 -0.0000
vn -0.3475 0.8366 0.4235
vn -0.1774 0.7399 0.6488
vn 0.0000 0.3786 0.9255
vn 0.2401 0.4146 0.8778
vn 0.5360 0.5346 0.6534
vn 0.7568 0.6536 0.0000
vn 0.5360 0.5346 -0.6534
vn 0.2401 0.4146 -0.8778
vn 0.0000 0.3786 -0.9255
vn -0.2401 0.4146 -0.8778
vn -0.5360 0.5346 -0.6534
vn -0.7568 0.6536 -0.0000
vn -0.5360 0.5346 0.6534
vn -0.2401 0.4146 0.8778
vn 0.0000 0.1671 0.9859
vn 0.2592 0.1855 0.9478
vn 0.6136 0.2534 0.7479
vn 0.9416 0.3368 0.0000
vn 0.6136 0.2534 -0.7479
vn 0.2592 0.1855 -0.9478
vn 0.0000 0.1671 -0.9859
vn -0.2592 0.1855 -0.9478
vn -0.6136 0.2534 -0.7479
vn -0.9416 0.3368 -0.0000
vn -0.6136 0.2534 0.7479
vn -0.2592 0.1855 0.9478
vn 0.0000 0.0000 1.0000
vn 0.2638 0.0000 0.9646
vn 0.6343 0.0000 0.7731
vn 1.0000 0.0000 0.0000
vn 0.6343 0.0000 -0.7731
vn 0.2638 0.0000 -0.9646
vn 0.0000 0.0000 -1.0000
vn -0.2638 0.0000 -0.9646
vn -0.6343 0.0000 -0.7731
vn -1.0000 0.0000 -0.0000
vn -0.6343 0.0000 0.7731
vn -0.2638 0.0000 0.9646
vn 0.0000 -0.1671 0.9859
vn 0.2592 -0.1855 0.9478
vn 0.6136 -0.2534 0.7479
vn 0.9416 -0.3368 0.0000
vn 0.6136 -0.2534 -0.7479
vn 0.2592 -0.1855 -0.9478
vn 0.0000 -0.1671 -0.9859
vn -0.2592 -0.1855 -0.9478
vn -0.6136 -0.2534 -0.7479
vn -0.9416 -0.3368 -0.0000
vn -0.6136 -0.2534 0.7479
vn -0.2592 -0.1855 0.9478
vn 0.0000 -0.3786 0.9255
vn 0.2401 -0.4146 0.8778
vn 0.5360 -0.5346 0.6534
vn 0.7568 -0.6536 0.0000
vn 0.5360 -0.5346 -0.6534
vn 0.2401 -0.4146 -0.8778
vn 0.0000 -0.3786 -0.9255
vn -0.2401 -0.4146 -0.8778
vn -0.5360 -0.5346 -0.6534
vn -0.7568 -0.6536 -0.0000
vn -0.5360 -0.5346 0.6534
vn -0.2401 -0.4146 0.8778
vn 0.0000 -0.7027 0.7115
vn 0.1774 -0.7399 0.6488
vn 0.3475 -0.8366 0.4235
vn 0.4324 -0.9017 0.0000
vn 0.3475 -0.8366 -0.4235
vn 0.1774 -0.7399 -0.6488
vn 0.0000 -0.7027 -0.7115
vn -0.1774 -0.7399 -0.6488
vn -0.3475 -0.8366 -0.4235
vn -0.4324 -0.9017 -0.0000
vn -0.3475 -0.8366 0.4235
vn -0.1774 -0.7399 0.6488
vn 0.0000 -1.0000 0.0000
vn 0.0000 -1.0000 0.0000
vn 0.0000 -1.0000 0.0000
vn 0.0000 -1.0000 0.0000
vn 0.0000 -1.0000 -0.0000
vn 0.0000 -1.0000 -0.0000
vn 0.0000 -1.0000 -0.0000
vn -0.0000 -1.0000 -0.0000
vn -0.0000 -1.0000 -0.0000
vn -0.0000 -1.0000 -0.0000
vn -0.0000 -1.0000 0.0000
vn -0.0000 -1.0000 0.0000
f 13//13 14//14 2//2 1//1
f 14//14 15//15 3//3 2//2
f 15//15 16//16 4//4 3//3
f 16//16 17//17 5//5 4//4
f 17//17 18//18 6//6 5//5
f 18//18 19//19 7//7 6//6
f 19//19 20//20 8//8 7//7
f 20//20 21//21 9//9 8//8
f 21//21 22//22 10//10 9//9
f 22//22 23//23 11//11 10//10
f 23//23 24//24 12//12 11//11
f 24//24 13//13 1//1 12//12
f 25//25 26//26 14//14 13//13
f 26//26 27//27 15//15 14//14
f 27//27 28//28 16//16 15//15
f 28//28 29//29 17//17 16//16
f 29//29 30//30 18//18 17//17
f 30//30 31//31 19//19 18//18
f 31//31 32//32 20//20 19//19
f 32//32 33//33 21//21 20//20
f 33//33 34//34 22//22 21//21
f 34//34 35//35 23//23 22//22
f 35//35 36//36 24//24 23//23
f 36//36 25//25 13//13 24//24
f 37//37 38//38 26//26 25//25
f 38//38 39//39 27//27 26//26
f 39//39 40//40 28//28 27//27
f 40//40 41//41 29//29 28//28
f 41//41 42//42 30//30 29//29
f 42//42 43//43 31//31 30//30
f 43//43 44//44 32//32 31//31
f 44//44 45//45 33//33 32//32
f 45//45 46//46 34//34 33//33
f 46//46 47//47 35//35 34//34
f 47//47 48//48 36//36 35//35
f 48//48 37//37 25//25 36//36
f 49//49 50//50 38//38 37//37
f 50//50 51//51 39//39 38//38
f 51//51 52//52 40//40 39//39
f 52//52 53//53 41//41 40//40
f 53//53 54//54 42//42 41//41
f 54//54 55//55 43//43 42//42
f 55//55 56//56 44//44 43//43
f 56//56 57//57 45//45 44//44
f 57//57 58//58 46//46 45//45
f 58//58 59//59 47//47 46//46
f 59//59 60//60 48//48 47//47
f 60//60 49//49 37//37 48//48
f 61//61 62//62 50//50 49//49
f 62//62 63//63 51//51 50//50
f 63//63 64//64 52//52 51//51
f 64//64 65//65 53//53 52//52
f 65//65 66//66 54//54 53//53
f 66//66 67//67 55//55 54//54
f 67//67 68//68 56//56 55//55
f 68//68 69//69 57//57 56//56
f 69//69 70//70 58//58 57//57
f 70//70 71//71 59//59 58//58
f 71//71 72//72 60//60 59//59
f 72//72 61//61 49//49 60//60
f 73//73 74//74 62//62 61//61
f 74//74 75//75 63//63 62//62
f 75//75 76//76 64//64 63//63
f 76//76 77//77 65//65 64//64
f 77//77 78//78 66//66 65//65
f 78//78 79//79 67//67 66//66
f 79//79 80//80 68//68 67//67
f 80//80 81//81 69//69 68//68
f 81//81 82//82 70//70 69//69
f 82//82 83//83 71//71 70//70
f 83//83 84//84 72//72 71//71
f 84//84 73//73 61//61 72//72
f 85//85 86//86 74//74 73//73
f 86//86 87//87 75//75 74//74
f 87//87 88//88 76//76 75//75
f 88//88 89//89 77//77 76//76
f 89//89 90//90 78//78 77//77
f 90//90 91//91 79//79 78//78
f 91//91 92//92 80//80 79//79
f 92//92 93//93 81//81 80//80
f 93//93 94//94 82//82 81//81
f 94//94 95//95 83//83 82//82
f 95//95 96//96 84//84 83//83
f 96//96 85//85 73//73 84//84
f 97//97 98//98 86//86 85//85
f 98//98 99//99 87//87 86//86
f 99//99 100//100 88//88 87//87
f 100//100 101//101 89//89 88//88
f 101//101 102//102 90//90 89//89
f 102//102 103//103 91//91 90//90
f 103//103 104//104 92//92 91//91
f 104//104 105//105 93//93 92//92
f 105//105 106//106 94//94 93//93
f 106//106 107//107 95//95 94//94
f 107//107 108//108 96//96 95//95
f 108//108 97//97 85//85 96//96
g part1
usemtl pupil
v 0.04000 0.57320 0.10914
v 0.04000 0.57320 0.10914
v 0.04000 0.57320 0.10914
v 0.04000 0.57320 0.10914
v 0.04000 0.57320 0.10914
v 0.04000 0.57320 0.10914
v 0.04000 0.57320 0.10914
v 0.04000 0.57320 0.10914
v 0.04000 0.57143 0.11114
v 0.04389 0.57143 0.11055
v 0.04550 0.57143 0.10914
v 0.04389 0.57143 0.10772
v 0.04000 0.57143 0.10714
v 0.03611 0.57143 0.10772
v 0.03450 0.57143 0.10914
v 0.03611 0.57143 0.11055
v 0.04000 0.56660 0.11260
v 0.04674 0.56660 0.11159
v 0.04953 0.56660 0.10914
v 0.04674 0.56660 0.10669
v 0.04000 0.56660 0.10567
v 0.03326 0.56660 0.10669
v 0.03047 0.56660 0.10914
v 0.03326 0.56660 0.11159
v 0.04000 0.56000 0.11314
v 0.04778 0.56000 0.11196
v 0.05100 0.56000 0.10914
v 0.04778 0.56000 0.10631
v 0.04000 0.56000 0.10514
v 0.03222 0.56000 0.10631
v 0.02900 0.56000 0.10914
v 0.03222 0.56000 0.11196
v 0.04000 0.55340 0.11260
v 0.04674 0.55340 0.11159
v 0.04953 0.55340 0.10914
v 0.04674 0.55340 0.10669
v 0.04000 0.55340 0.10567
v 0.03326 0.55340 0.10669
v 0.03047 0.55340 0.10914
v 0.03326 0.55340 0.11159
v 0.04000 0.54857 0.11114
v 0.04389 0.54857 0.11055
v 0.04550 0.54857 0.10914
v 0.04389 0.54857 0.10772
v 0.04000 0.54857 0.10714
v 0.03611 0.54857 0.10772
v 0.03450 0.54857 0.10914
v 0.03611 0.54857 0.11055
v 0.04000 0.54680 0.10914
v 0.04000 0.54680 0.10914
v 0.04000 0.54680 0.10914
v 0.04000 0.54680 0.10914
v 0.04000 0.54680 0.10914
v 0.04000 0.54680 0.10914
v 0.04000 0.54680 0.10914
v 0.04000 0.54680 0.10914
vn 0.0000 1.0000 0.0000
vn 0.0000 1.0000 0.0000
vn 0.0000 1.0000 0.0000
vn 0.0000 1.0000 -0.0000
vn 0.0000 1.0000 -0.0000
vn -0.0000 1.0000 -0.0000
vn -0.0000 1.0000 -0.0000
vn -0.0000 1.0000 0.0000
vn 0.0000 0.4647 0.8854
vn 0.2803 0.5721 0.7708
vn 0.5695 0.8220 0.0000
vn 0.2803 0.5721 -0.7708
vn 0.0000 0.4647 -0.8854
vn -0.2803 0.5721 -0.7708
vn -0.5695 0.8220 -0.0000
vn -0.2803 0.5721 0.7708
vn 0.0000 0.1723 0.9850
vn 0.3329 0.2265 0.9154
vn 0.9011 0.4336 0.0000
vn 0.3329 0.2265 -0.9154
vn 0.0000 0.1723 -0.9850
vn -0.3329 0.2265 -0.9154
vn -0.9011 0.4336 -0.0000
vn -0.3329 0.2265 0.9154
vn 0.0000 0.0000 1.0000
vn 0.3417 0.0000 0.9398
vn 1.0000 0.0000 0.0000
vn 0.3417 0.0000 -0.9398
vn 0.0000 0.0000 -1.0000
vn -0.3417 0.0000 -0.9398
vn -1.0000 0.0000 -0.0000
vn -0.3417 0.0000 0.9398
vn 0.0000 -0.1723 0.9850
vn 0.3329 -0.2265 0.9154
vn 0.9011 -0.4336 0.0000
vn 0.3329 -0.2265 -0.9154
vn 0.0000 -0.1723 -0.9850
vn -0.3329 -0.2265 -0.9154
vn -0.9011 -0.4336 -0.0000
vn -0.3329 -0.2265 0.9154
vn 0.0000 -0.4647 0.8854
vn 0.2803 -0.5721 0.7708
vn 0.5695 -0.8220 0.0000
vn 0.2803 -0.5721 -0.7708
vn 0.0000 -0.4647 -0.8854
vn -0.2803 -0.5721 -0.7708
vn -0.5695 -0.8220 -0.0000
vn -0.2803 -0.5721 0.7708
vn 0.0000 -1.0000 0.0000
vn 0.0000 -1.0000 0.0000
vn 0.0000 -1.0000 0.0000
vn 0.0000 -1.0000 -0.0000
vn 0.0000 -1.0000 -0.0000
vn -0.0000 -1.0000 -0.0000
vn -0.0000 -1.0000 -0.0000
vn -0.0000 -1.0000 0.0000
f 117//117 118//118 110//110 109//109
f 118//118 119//119 111//111 110//110
f 119//119 120//120 112//112 111//111
f 120//120 121//121 113//113 112//112
f 121//121 122//122 114//114 113//113
f 122//122 123//123 115//115 114//114
f 123//123 124//124 116//116 115//115
f 124//124 117//117 109//109 116//116
f 125//125 126//126 118//118 117//117
f 126//126 127//127 119//119 118//118
f 127//127 128//128 120//120 119//119
f 128//128 129//129 121//121 120//120
f 129//129 130//130 122//122 121//121
f 130//130 131//131 123//123 122//122
f 131//131 132//132 124//124 123//123
f 132//132 125//125 117//117 124//124
f 133//133 134//134 126//126 125//125
f 134//134 135//135 127//127 126//126
f 135//135 136//136 128//128 127//127
f 136//136 137//137 129//129 128//128
f 137//137 138//138 130//130 129//129
f 138//138 139//139 131//131 130//130
f 139//139 140//140 132//132 131//131
f 140//140 133//133 125//125 132//132
f 141//141 142//142 134//134 133//133
f 142//142 143//143 135//135 134//134
f 143//143 144//144 136//136 135//135
f 144//144 145//145 137//137 136//136
f 145//145 146//146 138//138 137//137
f 146//146 147//147 139//139 138//138
f 147//147 148//148 140//140 139//139
f 148//148 141//141 133//133 140//140
f 149//149 150//150 142//142 141//141
f 150//150 151//151 143//143 142//142
f 151//151 152//152 144//144 143//143
f 152//152 153//153 145//145 144//144
f 153//153 154//154 146//146 145//145
f 154//154 155//155 147//147 146//146
f 155//155 156//156 148//148 147//147
f 156//156 149//149 141//141 148//148
f 157//157 158//158 150//150 149//149
f 158//158 159//159 151//151 150//150
f 159//159 160//160 152//152 151//151
f 160//160 161//161 153//153 152//152
f 161//161 162//162 154//154 153//153
f 162//162 163//163 155//155 154//154
f 163//163 164//164 156//156 155//155
f 164//164 157//157 149//149 156//156
g part2
usemtl brow
v 0.06645 0.59996 0.07540
v 0.06403 0.59798 0.07290
v 0.06359 0.59402 0.07326
v 0.06555 0.59204 0.07613
v 0.06797 0.59402 0.07863
v 0.06841 0.59798 0.07827
v 0.05783 0.60199 0.08243
v 0.05517 0.59981 0.07967
v 0.05468 0.59545 0.08007
v 0.05684 0.59327 0.08323
v 0.05950 0.59545 0.08599
v 0.05999 0.59981 0.08559
v 0.04907 0.60405 0.08956
v 0.04633 0.60163 0.08642
v 0.04593 0.59685 0.08675
v 0.04827 0.59447 0.09023
v 0.05100 0.59688 0.09337
v 0.05140 0.60167 0.09304
v 0.03996 0.60500 0.09605
v 0.03766 0.60244 0.09243
v 0.03770 0.59744 0.09248
v 0.04004 0.59500 0.09617
v 0.04234 0.59756 0.09979
v 0.04230 0.60256 0.09974
v 0.03078 0.60404 0.10111
v 0.02919 0.60159 0.09728
v 0.02974 0.59681 0.09708
v 0.03188 0.59448 0.10071
v 0.03348 0.59693 0.10453
v 0.03293 0.60171 0.10474
v 0.02197 0.60197 0.10513
v 0.02074 0.59977 0.10152
v 0.02144 0.59542 0.10124
v 0.02336 0.59329 0.10458
v 0.02459 0.59549 0.10820
v 0.02390 0.59984 0.10847
v 0.01337 0.59994 0.10905
v 0.01225 0.59794 0.10577
v 0.01288 0.59400 0.10553
v 0.01463 0.59206 0.10856
v 0.01575 0.59406 0.11184
v 0.01512 0.59800 0.11208
v 0.06645 0.59996 0.07540
v 0.06403 0.59798 0.07290
v 0.06359 0.59402 0.07326
v 0.06555 0.59204 0.07613
v 0.06797 0.59402 0.07863
v 0.06841 0.59798 0.07827
v 0.06600 0.59600 0.07576
v 0.01337 0.59994 0.10905
v 0.01225 0.59794 0.10577
v 0.01288 0.59400 0.10553
v 0.01463 0.59206 0.10856
v 0.01575 0.59406 0.11184
v 0.01512 0.59800 0.11208
v 0.01400 0.59600 0.10880
vn 0.1393 0.9837 -0.1136
vn -0.4634 0.4893 -0.7389
vn -0.5751 -0.4996 -0.6478
vn -0.0841 -0.9941 0.0685
vn 0.5186 -0.4996 0.6938
vn 0.6303 0.4893 0.6027
vn 0.1390 0.9838 -0.1133
vn -0.4633 0.4892 -0.7389
vn -0.5750 -0.4997 -0.6479
vn -0.0840 -0.9941 0.0685
vn 0.5186 -0.4996 0.6939
vn 0.6299 0.4893 0.6031
vn 0.1027 0.9911 -0.0842
vn -0.4640 0.4902 -0.7379
vn -0.5476 -0.5035 -0.6683
vn -0.0620 -0.9967 0.0530
vn 0.5064 -0.4960 0.7053
vn 0.5875 0.4981 0.6378
vn -0.0077 0.9999 -0.0115
vn -0.4681 0.4879 -0.7367
vn -0.4612 -0.5120 -0.7247
vn 0.0071 -0.9999 0.0119
vn 0.4681 -0.4879 0.7368
vn 0.4602 0.5120 0.7253
vn -0.1388 0.9888 0.0545
vn -0.4728 0.4804 -0.7387
vn -0.3575 -0.5116 -0.7814
vn 0.0879 -0.9957 -0.0288
vn 0.4193 -0.4877 0.7657
vn 0.3079 0.5048 0.8064
vn -0.1942 0.9778 0.0785
vn -0.4739 0.4775 -0.7399
vn -0.3169 -0.5073 -0.8014
vn 0.1191 -0.9919 -0.0443
vn 0.3984 -0.4917 0.7743
vn 0.2421 0.4932 0.8356
vn -0.1949 0.9777 0.0788
vn -0.4738 0.4775 -0.7399
vn -0.3167 -0.5072 -0.8015
vn 0.1193 -0.9919 -0.0444
vn 0.3982 -0.4917 0.7743
vn 0.2411 0.4930 0.8359
vn 0.7670 -0.1442 -0.6253
vn 0.7670 -0.1442 -0.6253
vn 0.7670 -0.1442 -0.6253
vn 0.7670 -0.1442 -0.6253
vn 0.7670 -0.1442 -0.6253
vn 0.7670 -0.1442 -0.6253
vn 0.7670 -0.1442 -0.6253
vn -0.8970 -0.1687 0.4086
vn -0.8970 -0.1687 0.4086
vn -0.8970 -0.1687 0.4086
vn -0.8970 -0.1687 0.4086
vn -0.8970 -0.1687 0.4086
vn -0.8970 -0.1687 0.4086
vn -0.8970 -0.1687 0.4086
f 165//165 166//166 172//172 171//171
f 166//166 167//167 173//173 172//172
f 167//167 168//168 174//174 173//173
f 168//168 169//169 175//175 174//174
f 169//169 170//170 176//176 175//175
f 170//170 165//165 171//171 176//176
f 171//171 172//172 178//178 177//177
f 172//172 173//173 179//179 178//178
f 173//173 174//174 180//180 179//179
f 174//174 175//175 181//181 180//180
f 175//175 176//176 182//182 181//181
f 176//176 171//171 177//177 182//182
f 177//177 178//178 184//184 183//183
f 178//178 179//179 185//185 184//184
f 179//179 180//180 186//186 185//185
f 180//180 181//181 187//187 186//186
f 181//181 182//182 188//188 187//187
f 182//182 177//177 183//183 188//188
f 183//183 184//184 190//190 189//189
f 184//184 185//185 191//191 190//190
f 185//185 186//186 192//192 191//191
f 186//186 187//187 193//193 192//192
f 187//187 188//188 194//194 193//193
f 188//188 183//183 189//189 194//194
f 189//189 190//190 196//196 195//195
f 190//190 191//191 197//197 196//196
f 191//191 192//192 198//198 197//197
f 192//192 193//193 199//199 198//198
f 193//193 194//194 200//200 199//199
f 194//194 189//189 195//195 200//200
f 195//195 196//196 202//202 201//201
f 196//196 197//197 203//203 202//202
f 197//197 198//198 204//204 203//203
f 198//198 199//199 205//205 204//204
f 199//199 200//200 206//206 205//205
f 200//200 195//195 201//201 206//206
f 208//208 213//213 207//207
f 209//209 213//213 208//208
f 210//210 213//213 209//209
f 211//211 213//213 210//210
f 212//212 213//213 211//211
f 207//207 213//213 212//212
f 215//215 220//220 214//214
f 216//216 220//220 215//215
f 217//217 220//220 216//216
f 218//218 220//220 217//217
f 219//219 220//220 218//218
f 214//214 220//220 219//219
g part3
usemtl eye_white
v -0.04000 0.58400 0.10292
v -0.04000 0.58400 0.10292
v -0.04000 0.58400 0.10292
v -0.04000 0.58400 0.10292
v -0.04000 0.58400 0.10292
v -0.04000 0.58400 0.10292
v -0.04000 0.58400 0.10292
v -0.04000 0.58400 0.10292
v -0.04000 0.58400 0.10292
v -0.04000 0.58400 0.10292
v -0.04000 0.58400 0.10292
v -0.04000 0.58400 0.10292
v -0.04000 0.58233 0.10636
v -0.03636 0.58233 0.10590
v -0.03370 0.58233 0.10464
v -0.03273 0.58233 0.10292
v -0.03370 0.58233 0.10119
v -0.03636 0.58233 0.09993
v -0.04000 0.58233 0.09947
v -0.04364 0.58233 0.09993
v -0.04630 0.58233 0.10119
v -0.04727 0.58233 0.10292
v -0.04630 0.58233 0.10464
v -0.04364 0.58233 0.10590
v -0.04000 0.57756 0.10928
v -0.03328 0.57756 0.10843
v -0.02836 0.57756 0.10610
v -0.02656 0.57756 0.10292
v -0.02836 0.57756 0.09973
v -0.03328 0.57756 0.09740
v -0.04000 0.57756 0.09655
v -0.04672 0.57756 0.09740
v -0.05164 0.57756 0.09973
v -0.05344 0.57756 0.10292
v -0.05164 0.57756 0.10610
v -0.04672 0.57756 0.10843
v -0.04000 0.57042 0.11123
v -0.03122 0.57042 0.11012
v -0.02480 0.57042 0.10707
v -0.02245 0.57042 0.10292
v -0.02480 0.57042 0.09876
v -0.03122 0.57042 0.09571
v -0.04000 0.57042 0.09460
v -0.04878 0.57042 0.09571
v -0.05520 0.57042 0.09876
v -0.05755 0.57042 0.10292
v -0.05520 0.57042 0.10707
v -0.04878 0.57042 0.11012
v -0.04000 0.56200 0.11192
v -0.03050 0.56200 0.11071
v -0.02355 0.56200 0.10742
v -0.02100 0.56200 0.10292
v -0.02355 0.56200 0.09842
v -0.03050 0.56200 0.09512
v -0.04000 0.56200 0.09392
v -0.04950 0.56200 0.09512
v -0.05645 0.56200 0.09842
v -0.05900 0.56200 0.10292
v -0.05645 0.56200 0.10742
v -0.04950 0.56200 0.11071
v -0.04000 0.55358 0.11123
v -0.03122 0.55358 0.11012
v -0.02480 0.55358 0.10707
v -0.02245 0.55358 0.10292
v -0.02480 0.55358 0.09876
v -0.03122 0.55358 0.09571
v -0.04000 0.55358 0.09460
v -0.04878 0.55358 0.09571
v -0.05520 0.55358 0.09876
v -0.05755 0.55358 0.10292
v -0.05520 0.55358 0.10707
v -0.04878 0.55358 0.11012
v -0.04000 0.54644 0.10928
v -0.03328 0.54644 0.10843
v -0.02836 0.54644 0.10610
v -0.02656 0.54644 0.10292
v -0.02836 0.54644 0.09973
v -0.03328 0.54644 0.09740
v -0.04000 0.54644 0.09655
v -0.04672 0.54644 0.09740
v -0.05164 0.54644 0.09973
v -0.05344 0.54644 0.10292
v -0.05164 0.54644 0.10610
v -0.04672 0.54644 0.10843
v -0.04000 0.54167 0.10636
v -0.03636 0.54167 0.10590
v -0.03370 0.54167 0.10464
v -0.03273 0.54167 0.10292
v -0.03370 0.54167 0.10119
v -0.03636 0.54167 0.09993
v -0.04000 0.54167 0.09947
v -0.04364 0.54167 0.09993
v -0.04630 0.54167 0.10119
v -0.04727 0.54167 0.10292
v -0.04630 0.54167 0.10464
v -0.04364 0.54167 0.10590
v -0.04000 0.54000 0.10292
v -0.04000 0.54000 0.10292
v -0.04000 0.54000 0.10292
v -0.04000 0.54000 0.10292
v -0.04000 0.54000 0.10292
v -0.04000 0.54000 0.10292
v -0.04000 0.54000 0.10292
v -0.04000 0.54000 0.10292
v -0.04000 0.54000 0.10292
v -0.04000 0.54000 0.10292
v -0.04000 0.54000 0.10292
v -0.04000 0.54000 0.10292
vn 0.0000 1.0000 0.0000
vn 0.0000 1.0000 0.0000
vn 0.0000 1.0000 0.0000
vn 0.0000 1.0000 0.0000
vn 0.0000 1.0000 -0.0000
vn 0.0000 1.0000 -0.0000
vn 0.0000 1.0000 -0.0000
vn -0.0000 1.0000 -0.0000
vn -0.0000 1.0000 -0.0000
vn -0.0000 1.0000 -0.0000
vn -0.0000 1.0000 0.0000
vn -0.0000 1.0000 0.0000
vn 0.0000 0.7027 0.7115
vn 0.1774 0.7399 0.6488
vn 0.3475 0.8366 0.4235
vn 0.4324 0.9017 0.0000
vn 0.3475 0.8366 -0.4235
vn 0.1774 0.7399 -0.6488
vn 0.0000 0.7027 -0.7115
vn -0.1774 0.7399 -0.6488
vn -0.3475 0.8366 -0.4235
vn -0.4324 0.9017 -0.0000
vn -0.3475 0.8366 0.4235
vn -0.1774 0.7399 0.6488
vn 0.0000 0.3786 0.9255
vn 0.2401 0.4146 0.8778
vn 0.5360 0.5346 0.6534
vn 0.7568 0.6536 0.0000
vn 0.5360 0.5346 -0.6534
vn 0.2401 0.4146 -0.8778
vn 0.0000 0.3786 -0.9255
vn -0.2401 0.4146 -0.8778
vn -0.5360 0.5346 -0.6534
vn -0.7568 0.6536 -0.0000
vn -0.5360 0.5346 0.6534
vn -0.2401 0.4146 0.8778
vn 0.0000 0.1671 0.9859
vn 0.2592 0.1855 0.9478
vn 0.6136 0.2534 0.7479
vn 0.9416 0.3368 0.0000
vn 0.6136 0.2534 -0.7479
vn 0.2592 0.1855 -0.9478
vn 0.0000 0.1671 -0.9859
vn -0.2592 0.1855 -0.9478
vn -0.6136 0.2534 -0.7479
vn -0.9416 0.3368 -0.0000
vn -0.6136 0.2534 0.7479
vn -0.2592 0.1855 0.9478
vn 0.0000 0.0000 1.0000
vn 0.2638 0.0000 0.9646
vn 0.6343 0.0000 0.7731
vn 1.0000 0.0000 0.0000
vn 0.6343 0.0000 -0.7731
vn 0.2638 0.0000 -0.9646
vn 0.0000 0.0000 -1.0000
vn -0.2638 0.0000 -0.9646
vn -0.6343 0.0000 -0.7731
vn -1.0000 0.0000 -0.0000
vn -0.6343 0.0000 0.7731
vn -0.2638 0.0000 0.9646
vn 0.0000 -0.1671 0.9859
vn 0.2592 -0.1855 0.9478
vn 0.6136 -0.2534 0.7479
vn 0.9416 -0.3368 0.0000
vn 0.6136 -0.2534 -0.7479
vn 0.2592 -0.1855 -0.9478
vn 0.0000 -0.1671 -0.9859
vn -0.2592 -0.1855 -0.9478
vn -0.6136 -0.2534 -0.7479
vn -0.9416 -0.3368 -0.0000
vn -0.6136 -0.2534 0.7479
vn -0.2592 -0.1855 0.9478
vn 0.0000 -0.3786 0.9255
vn 0.2401 -0.4146 0.8778
vn 0.5360 -0.5346 0.6534
vn 0.7568 -0.6536 0.0000
vn 0.5360 -0.5346 -0.6534
vn 0.2401 -0.4146 -0.8778
vn 0.0000 -0.3786 -0.9255
vn -0.2401 -0.4146 -0.8778
vn -0.5360 -0.5346 -0.6534
vn -0.7568 -0.6536 -0.0000
vn -0.5360 -0.5346 0.6534
vn -0.2401 -0.4146 0.8778
vn 0.0000 -0.7027 0.7115
vn 0.1774 -0.7399 0.6488
vn 0.3475 -0.8366 0.4235
vn 0.4324 -0.9017 0.0000
vn 0.3475 -0.8366 -0.4235
vn 0.1774 -0.7399 -0.6488
vn 0.0000 -0.7027 -0.7115
vn -0.1774 -0.7399 -0.6488
vn -0.3475 -0.8366 -0.4235
vn -0.4324 -0.9017 -0.0000
vn -0.3475 -0.8366 0.4235
vn -0.1774 -0.7399 0.6488
vn 0.0000 -1.0000 0.0000
vn 0.0000 -1.0000 0.0000
vn 0.0000 -1.0000 0.0000
vn 0.0000 -1.0000 0.0000
vn 0.0000 -1.0000 -0.0000
vn 0.0000 -1.0000 -0.0000
vn 0.0000 -1.0000 -0.0000
vn -0.0000 -1.0000 -0.0000
vn -0.0000 -1.0000 -0.0000
vn -0.0000 -1.0000 -0.0000
vn -0.0000 -1.0000 0.0000
vn -0.0000 -1.0000 0.0000
f 233//233 234//234 222//222 221//221
f 234//234 235//235 223//223 222//222
f 235//235 236//236 224//224 223//223
f 236//236 237//237 225//225 224//224
f 237//237 238//238 226//226 225//225
f 238//238 239//239 227//227 226//226
f 239//239 240//240 228//228 227//227
f 240//240 241//241 229//229 228//228
f 241//241 242//242 230//230 229//229
f 242//242 243//243 231//231 230//230
f 243//243 244//244 232//232 231//231
f 244//244 233//233 221//221 232//232
f 245//245 246//246 234//234 233//233
f 246//246 247//247 235//235 234//234
f 247//247 248//248 236//236 235//235
f 248//248 249//249 237//237 236//236
f 249//249 250//250 238//238 237//237
f 250//250 251//251 239//239 238//238
f 251//251 252//252 240//240 239//239
f 252//252 253//253 241//241 240//240
f 253//253 254//254 242//242 241//241
f 254//254 255//255 243//243 242//242
f 255//255 256//256 244//244 243//243
f 256//256 245//245 233//233 244//244
f 257//257 258//258 246//246 245//245
f 258//258 259//259 247//247 246//246
f 259//259 260//260 248//248 247//247
f 260//260 261//261 249//249 248//248
f 261//261 262//262 250//250 249//249
f 262//262 263//263 251//251 250//250
f 263//263 264//264 252//252 251//251
f 264//264 265//265 253//253 252//252
f 265//265 266//266 254//254 253//253
f 266//266 267//267 255//255 254//254
f 267//267 268//268 256//256 255//255
f 268//268 257//257 245//245 256//256
f 269//269 270//270 258//258 257//257
f 270//270 271//271 259//259 258//258
f 271//271 272//272 260//260 259//259
f 272//272 273//273 261//261 260//260
f 273//273 274//274 262//262 261//261
f 274//274 275//275 263//263 262//262
f 275//275 276//276 264//264 263//263
f 276//276 277//277 265//265 264//264
f 277//277 278//278 266//266 265//265
f 278//278 279//279 267//267 266//266
f 279//279 280//280 268//268 267//267
f 280//280 269//269 257//257 268//268
f 281//281 282//282 270//270 269//269
f 282//282 283//283 271//271 270//270
f 283//283 284//284 272//272 271//271
f 284//284 285//285 273//273 272//272
f 285//285 286//286 274//274 273//273
f 286//286 287//287 275//275 274//274
f 287//287 288//288 276//276 275//275
f 288//288 289//289 277//277 276//276
f 289//289 290//290 278//278 277//277
f 290//290 291//291 279//279 278//278
f 291//291 292//292 280//280 279//279
f 292//292 281//281 269//269 280//280
f 293//293 294//294 282//282 281//281
f 294//294 295//295 283//283 282//282
f 295//295 296//296 284//284 283//283
f 296//296 297//297 285//285 284//284
f 297//297 298//298 286//286 285//285
f 298//298 299//299 287//287 286//286
f 299//299 300//300 288//288 287//287
f 300//300 301//301 289//289 288//288
f 301//301 302//302 290//290 289//289
f 302//302 303//303 291//291 290//290
f 303//303 304//304 292//292 291//291
f 304//304 293//293 281//281 292//292
f 305//305 306//306 294//294 293//293
f 306//306 307//307 295//295 294//294
f 307//307 308//308 296//296 295//295
f 308//308 309//309 297//297 296//296
f 309//309 310//310 298//298 297//297
f 310//310 311//311 299//299 298//298
f 311//311 312//312 300//300 299//299
f 312//312 313//313 301//301 300//300
f 313//313 314//314 302//302 301//301
f 314//314 315//315 303//303 302//302
f 315//315 316//316 304//304 303//303
f 316//316 305//305 293//293 304//304
f 317//317 318//318 306//306 305//305
f 318//318 319//319 307//307 306//306
f 319//319 320//320 308//308 307//307
f 320//320 321//321 309//309 308//308
f 321//321 322//322 310//310 309//309
f 322//322 323//323 311//311 310//310
f 323//323 324//324 312//312 311//311
f 324//324 325//325 313//313 312//312
f 325//325 326//326 314//314 313//313
f 326//326 327//327 315//315 314//314
f 327//327 328//328 316//316 315//315
f 328//328 317//317 305//305 316//316
g part4
usemtl pupil
v -0.04000 0.57320 0.10914
v -0.04000 0.57320 0.10914
v -0.04000 0.57320 0.10914
v -0.04000 0.57320 0.10914
v -0.04000 0.57320 0.10914
v -0.04000 0.57320 0.10914
v -0.04000 0.57320 0.10914
v -0.04000 0.57320 0.10914
v -0.04000 0.57143 0.11114
v -0.03611 0.57143 0.11055
v -0.03450 0.57143 0.10914
v -0.03611 0.57143 0.10772
v -0.04000 0.57143 0.10714
v -0.04389 0.57143 0.10772
v -0.04550 0.57143 0.10914
v -0.04389 0.57143 0.11055
v -0.04000 0.56660 0.11260
v -0.03326 0.56660 0.11159
v -0.03047 0.56660 0.10914
v -0.03326 0.56660 0.10669
v -0.04000 0.56660 0.10567
v -0.04674 0.56660 0.10669
v -0.04953 0.56660 0.10914
v -0.04674 0.56660 0.11159
v -0.04000 0.56000 0.11314
v -0.03222 0.56000 0.11196
v -0.02900 0.56000 0.10914
v -0.03222 0.56000 0.10631
v -0.04000 0.56000 0.10514
v -0.04778 0.56000 0.10631
v -0.05100 0.56000 0.10914
v -0.04778 0.56000 0.11196
v -0.04000 0.55340 0.11260
v -0.03326 0.55340 0.11159
v -0.03047 0.55340 0.10914
v -0.03326 0.55340 0.10669
v -0.04000 0.55340 0.10567
v -0.04674 0.55340 0.10669
v -0.04953 0.55340 0.10914
v -0.04674 0.55340 0.11159
v -0.04000 0.54857 0.11114
v -0.03611 0.54857 0.11055
v -0.03450 0.54857 0.10914
v -0.03611 0.54857 0.10772
v -0.04000 0.54857 0.10714
v -0.04389 0.54857 0.10772
v -0.04550 0.54857 0.10914
v -0.04389 0.54857 0.11055
v -0.04000 0.54680 0.10914
v -0.04000 0.54680 0.10914
v -0.04000 0.54680 0.10914
v -0.04000 0.54680 0.10914
v -0.04000 0.54680 0.10914
v -0.04000 0.54680 0.10914
v -0.04000 0.54680 0.10914
v -0.04000 0.54680 0.10914
vn 0.0000 1.0000 0.0000
vn 0.0000 1.0000 0.0000
vn 0.0000 1.0000 0.0000
vn 0.0000 1.0000 -0.0000
vn 0.0000 1.0000 -0.0000
vn -0.0000 1.0000 -0.0000
vn -0.0000 1.0000 -0.0000
vn -0.0000 1.0000 0.0000
vn 0.0000 0.4647 0.8854
vn 0.2803 0.5721 0.7708
vn 0.5695 0.8220 0.0000
vn 0.2803 0.5721 -0.7708
vn 0.0000 0.4647 -0.8854
vn -0.2803 0.5721 -0.7708
vn -0.5695 0.8220 -0.0000
vn -0.2803 0.5721 0.7708
vn 0.0000 0.1723 0.9850
vn 0.3329 0.2265 0.9154
vn 0.9011 0.4336 0.0000
vn 0.3329 0.2265 -0.9154
vn 0.0000 0.1723 -0.9850
vn -0.3329 0.2265 -0.9154
vn -0.9011 0.4336 -0.0000
vn -0.3329 0.2265 0.9154
vn 0.0000 0.0000 1.0000
vn 0.3417 0.0000 0.9398
vn 1.0000 0.0000 0.0000
vn 0.3417 0.0000 -0.9398
vn 0.0000 0.0000 -1.0000
vn -0.3417 0.0000 -0.9398
vn -1.0000 0.0000 -0.0000
vn -0.3417 0.0000 0.9398
vn 0.0000 -0.1723 0.9850
vn 0.3329 -0.2265 0.9154
vn 0.9011 -0.4336 0.0000
vn 0.3329 -0.2265 -0.9154
vn 0.0000 -0.1723 -0.9850
vn -0.3329 -0.2265 -0.9154
vn -0.9011 -0.4336 -0.0000
vn -0.3329 -0.2265 0.9154
vn 0.0000 -0.4647 0.8854
vn 0.2803 -0.5721 0.7708
vn 0.5695 -0.8220 0.0000
vn 0.2803 -0.5721 -0.7708
vn 0.0000 -0.4647 -0.8854
vn -0.2803 -0.5721 -0.7708
vn -0.5695 -0.8220 -0.0000
vn -0.2803 -0.5721 0.7708
vn 0.0000 -1.0000 0.0000
vn 0.0000 -1.0000 0.0000
vn 0.0000 -1.0000 0.0000
vn 0.0000 -1.0000 -0.0000
vn 0.0000 -1.0000 -0.0000
vn -0.0000 -1.0000 -0.0000
vn -0.0000 -1.0000 -0.0000
vn -0.0000 -1.0000 0.0000
f 337//337 338//338 330//330 329//329
f 338//338 339//339 331//331 330//330
f 339//339 340//340 332//332 331//331
f 340//340 341//341 333//333 332//332
f 341//341 342//342 334//334 333//333
f 342//342 343//343 335//335 334//334
f 343//343 344//344 336//336 335//335
f 344//344 337//337 329//329 336//336
f 345//345 346//346 338//338 337//337
f 346//346 347//347 339//339 338//338
f 347//347 348//348 340//340 339//339
f 348//348 349//349 341//341 340//340
f 349//349 350//350 342//342 341//341
f 350//350 351//351 343//343 342//342
f 351//351 352//352 344//344 343//343
f 352//352 345//345 337//337 344//344
f 353//353 354//354 346//346 345//345
f 354//354 355//355 347//347 346//346
f 355//355 356//356 348//348 347//347
f 356//356 357//357 349//349 348//348
f 357//357 358//358 350//350 349//349
f 358//358 359//359 351//351 350//350
f 359//359 360//360 352//352 351//351
f 360//360 353//353 345//345 352//352
f 361//361 362//362 354//354 353//353
f 362//362 363//363 355//355 354//354
f 363//363 364//364 356//356 355//355
f 364//364 365//365 357//357 356//356
f 365//365 366//366 358//358 357//357
f 366//366 367//367 359//359 358//358
f 367//367 368//368 360//360 359//359
f 368//368 361//361 353//353 360//360
f 369//369 370//370 362//362 361//361
f 370//370 371//371 363//363 362//362
f 371//371 372//372 364//364 363//363
f 372//372 373//373 365//365 364//364
f 373//373 374//374 366//366 365//365
f 374//374 375//375 367//367 366//366
f 375//375 376//376 368//368 367//367
f 376//376 369//369 361//361 368//368
f 377//377 378//378 370//370 369//369
f 378//378 379//379 371//371 370//370
f 379//379 380//380 372//372 371//371
f 380//380 381//381 373//373 372//372
f 381//381 382//382 374//374 373//373
f 382//382 383//383 375//375 374//374
f 383//383 384//384 376//376 375//375
f 384//384 377//377 369//369 376//376
g part5
usemtl brow
v -0.06645 0.59996 0.07540
v -0.06841 0.59798 0.07827
v -0.06797 0.59402 0.07863
v -0.06555 0.59204 0.07613
v -0.06359 0.59402 0.07326
v -0.06403 0.59798 0.07290
v -0.05783 0.60199 0.08243
v -0.05999 0.59981 0.08559
v -0.05950 0.59545 0.08599
v -0.05684 0.59327 0.08323
v -0.05468 0.59545 0.08007
v -0.05517 0.59981 0.07967
v -0.04907 0.60405 0.08956
v -0.05140 0.60167 0.09304
v -0.05100 0.59688 0.09337
v -0.04827 0.59447 0.09023
v -0.04593 0.59685 0.08675
v -0.04633 0.60163 0.08642
v -0.03996 0.60500 0.09605
v -0.04230 0.60256 0.09974
v -0.04234 0.59756 0.09979
v -0.04004 0.59500 0.09617
v -0.03770 0.59744 0.09248
v -0.03766 0.60244 0.09243
v -0.03078 0.60404 0.10111
v -0.03293 0.60171 0.10474
v -0.03348 0.59693 0.10453
v -0.03188 0.59448 0.10071
v -0.02974 0.59681 0.09708
v -0.02919 0.60159 0.09728
v -0.02197 0.60197 0.10513
v -0.02390 0.59984 0.10847
v -0.02459 0.59549 0.10820
v -0.02336 0.59329 0.10458
v -0.02144 0.59542 0.10124
v -0.02074 0.59977 0.10152
v -0.01337 0.59994 0.10905
v -0.01512 0.59800 0.11208
v -0.01575 0.59406 0.11184
v -0.01463 0.59206 0.10856
v -0.01288 0.59400 0.10553
v -0.01225 0.59794 0.10577
v -0.06645 0.59996 0.07540
v -0.06841 0.59798 0.07827
v -0.06797 0.59402 0.07863
v -0.06555 0.59204 0.07613
v -0.06359 0.59402 0.07326
v -0.06403 0.59798 0.07290
v -0.06600 0.59600 0.07576
v -0.01337 0.59994 0.10905
v -0.01512 0.59800 0.11208
v -0.01575 0.59406 0.11184
v -0.01463 0.59206 0.10856
v -0.01288 0.59400 0.10553
v -0.01225 0.59794 0.10577
v -0.01400 0.59600 0.10880
vn -0.1393 0.9837 -0.1136
vn -0.6303 0.4893 0.6027
vn -0.5186 -0.4996 0.6938
vn 0.0841 -0.9941 0.0685
vn 0.5751 -0.4996 -0.6478
vn 0.4634 0.4893 -0.7389
vn -0.1390 0.9838 -0.1133
vn -0.6299 0.4893 0.6031
vn -0.5186 -0.4996 0.6939
vn 0.0840 -0.9941 0.0685
vn 0.5750 -0.4997 -0.6479
vn 0.4633 0.4892 -0.7389
vn -0.1027 0.9911 -0.0842
vn -0.5875 0.4981 0.6378
vn -0.5064 -0.4960 0.7053
vn 0.0620 -0.9967 0.0530
vn 0.5476 -0.5035 -0.6683
vn 0.4640 0.4902 -0.7379
vn 0.0077 0.9999 -0.0115
vn -0.4602 0.5120 0.7253
vn -0.4681 -0.4879 0.7368
vn -0.0071 -0.9999 0.0119
vn 0.4612 -0.5120 -0.7247
vn 0.4681 0.4879 -0.7367
vn 0.1388 0.9888 0.0545
vn -0.3079 0.5048 0.8064
vn -0.4193 -0.4877 0.7657
vn -0.0879 -0.9957 -0.0288
vn 0.3575 -0.5116 -0.7814
vn 0.4728 0.4804 -0.7387
vn 0.1942 0.9778 0.0785
vn -0.2421 0.4932 0.8356
vn -0.3984 -0.4917 0.7743
vn -0.1191 -0.9919 -0.0443
vn 0.3169 -0.5073 -0.8014
vn 0.4739 0.4775 -0.7399
vn 0.1949 0.9777 0.0788
vn -0.2411 0.4930 0.8359
vn -0.3982 -0.4917 0.7743
vn -0.1193 -0.9919 -0.0444
vn 0.3167 -0.5072 -0.8015
vn 0.4738 0.4775 -0.7399
vn -0.7670 -0.1442 -0.6253
vn -0.7670 -0.1442 -0.6253
vn -0.7670 -0.1442 -0.6253
vn -0.7670 -0.1442 -0.6253
vn -0.7670 -0.1442 -0.6253
vn -0.7670 -0.1442 -0.6253
vn -0.7670 -0.1442 -0.6253
vn 0.8970 -0.1687 0.4086
vn 0.8970 -0.1687 0.4086
vn 0.8970 -0.1687 0.4086
vn 0.8970 -0.1687 0.4086
vn 0.8970 -0.1687 0.4086
vn 0.8970 -0.1687 0.4086
vn 0.8970 -0.1687 0.4086
f 385//385 386//386 392//392 391//391
f 386//386 387//387 393//393 392//392
f 387//387 388//388 394//394 393//393
f 388//388 389//389 395//395 394//394
f 389//389 390//390 396//396 395//395
f 390//390 385//385 391//391 396//396
f 391//391 392//392 398//398 397//397
f 392//392 393//393 399//399 398//398
f 393//393 394//394 400//400 399//399
f 394//394 395//395 401//401 400//400
f 395//395 396//396 402//402 401//401
f 396//396 391//391 397//397 402//402
f 397//397 398//398 404//404 403//403
f 398//398 399//399 405//405 404//404
f 399//399 400//400 406//406 405//405
f 400//400 401//401 407//407 406//406
f 401//401 402//402 408//408 407//407
f 402//402 397//397 403//403 408//408
f 403//403 404//404 410//410 409//409
f 404//404 405//405 411//411 410//410
f 405//405 406//406 412//412 411//411
f 406//406 407//407 413//413 412//412
f 407//407 408//408 414//414 413//413
f 408//408 403//403 409//409 414//414
f 409//409 410//410 416//416 415//415
f 410//410 411//411 417//417 416//416
f 411//411 412//412 418//418 417//417
f 412//412 413//413 419//419 418//418
f 413//413 414//414 420//420 419//419
f 414//414 409//409 415//415 420//420
f 415//415 416//416 422//422 421//421
f 416//416 417//417 423//423 422//422
f 417//417 418//418 424//424 423//423
f 418//418 419//419 425//425 424//424
f 419//419 420//420 426//426 425//425
f 420//420 415//415 421//421 426//426
f 428//428 433//433 427//427
f 429//429 433//433 428//428
f 430//430 433//433 429//429
f 431//431 433//433 430//430
f 432//432 433//433 431//431
f 427//427 433//433 432//432
f 435//435 440//440 434//434
f 436//436 440//440 435//435
f 437//437 440//440 436//436
f 438//438 440//440 437//437
f 439//439 440//440 438//438
f 434//434 440//440 439//439
g part6
usemtl mouth
v -0.03711 0.53242 0.10588
v -0.03903 0.53091 0.10930
v -0.04192 0.52789 0.10892
v -0.04289 0.52638 0.10512
v -0.04097 0.52789 0.10170
v -0.03808 0.53091 0.10208
v -0.03247 0.52829 0.10649
v -0.03452 0.52668 0.11013
v -0.03760 0.52346 0.10973
v -0.03864 0.52185 0.10568
v -0.03659 0.52346 0.10204
v -0.03351 0.52668 0.10244
v -0.02794 0.52426 0.10709
v -0.03003 0.52246 0.11097
v -0.03319 0.51894 0.11055
v -0.03428 0.51721 0.10625
v -0.03219 0.51901 0.10237
v -0.02903 0.52253 0.10279
v -0.02365 0.52092 0.10752
v -0.02557 0.51879 0.11162
v -0.02858 0.51483 0.11120
v -0.02968 0.51299 0.10668
v -0.02777 0.51512 0.10258
v -0.02475 0.51908 0.10300
v -0.01949 0.51832 0.10771
v -0.02113 0.51585 0.11198
v -0.02386 0.51145 0.11155
v -0.02495 0.50951 0.10685
v -0.02331 0.51198 0.10258
v -0.02059 0.51638 0.10301
v -0.01540 0.51621 0.10775
v -0.01677 0.51348 0.11216
v -0.01915 0.50870 0.11171
v -0.02016 0.50664 0.10687
v -0.01879 0.50937 0.10246
v -0.01641 0.51415 0.10291
v -0.01142 0.51462 0.10777
v -0.01251 0.51169 0.11228
v -0.01443 0.50655 0.11183
v -0.01525 0.50435 0.10685
v -0.01416 0.50729 0.10233
v -0.01224 0.51243 0.10279
v -0.00753 0.51356 0.10778
v -0.00829 0.51043 0.11241
v -0.00965 0.50498 0.11193
v -0.01025 0.50266 0.10683
v -0.00949 0.50578 0.10221
v -0.00813 0.51123 0.10268
v -0.00373 0.51296 0.10776
v -0.00411 0.50970 0.11248
v -0.00482 0.50401 0.11199
v -0.00515 0.50159 0.10678
v -0.00478 0.50486 0.10207
v -0.00407 0.51054 0.10256
v -0.00000 0.51278 0.10775
v -0.00000 0.50946 0.11251
v -0.00000 0.50368 0.11201
v 0.00000 0.50122 0.10676
v 0.00000 0.50454 0.10200
v 0.00000 0.51032 0.10250
v 0.00373 0.51296 0.10777
v 0.00411 0.50969 0.11248
v 0.00482 0.50401 0.11199
v 0.00515 0.50159 0.10678
v 0.00478 0.50486 0.10206
v 0.00406 0.51055 0.10256
v 0.00753 0.51356 0.10779
v 0.00829 0.51042 0.11241
v 0.00965 0.50497 0.11193
v 0.01025 0.50266 0.10682
v 0.00948 0.50579 0.10220
v 0.00813 0.51124 0.10268
v 0.01142 0.51462 0.10778
v 0.01252 0.51167 0.11229
v 0.01443 0.50654 0.11182
v 0.01525 0.50436 0.10683
v 0.01415 0.50731 0.10233
v 0.01223 0.51244 0.10280
v 0.01540 0.51620 0.10778
v 0.01678 0.51346 0.11217
v 0.01916 0.50868 0.11170
v 0.02016 0.50664 0.10684
v 0.01878 0.50939 0.10245
v 0.01640 0.51417 0.10292
v 0.01950 0.51831 0.10775
v 0.02115 0.51582 0.11200
v 0.02387 0.51142 0.11153
v 0.02495 0.50951 0.10682
v 0.02330 0.51201 0.10257
v 0.02057 0.51641 0.10303
v 0.02366 0.52092 0.10758
v 0.02560 0.51875 0.11164
v 0.02861 0.51479 0.11117
v 0.02968 0.51299 0.10663
v 0.02773 0.51516 0.10256
v 0.02472 0.51912 0.10303
v 0.02795 0.52426 0.10716
v 0.03007 0.52242 0.11100
v 0.03323 0.51889 0.11051
v 0.03427 0.51721 0.10618
v 0.03215 0.51905 0.10234
v 0.02899 0.52258 0.10283
v 0.03248 0.52829 0.10656
v 0.03456 0.52664 0.11016
v 0.03764 0.52342 0.10969
v 0.03863 0.52185 0.10561
v 0.03655 0.52350 0.10201
v 0.03347 0.52672 0.10248
v 0.03711 0.53242 0.10594
v 0.03907 0.53087 0.10932
v 0.04195 0.52785 0.10888
v 0.04289 0.52638 0.10506
v 0.04093 0.52793 0.10168
v 0.03805 0.53095 0.10212
v -0.03711 0.53242 0.10588
v -0.03903 0.53091 0.10930
v -0.04192 0.52789 0.10892
v -0.04289 0.52638 0.10512
v -0.04097 0.52789 0.10170
v -0.03808 0.53091 0.10208
v -0.04000 0.52940 0.10550
v 0.03711 0.53242 0.10594
v 0.03907 0.53087 0.10932
v 0.04195 0.52785 0.10888
v 0.04289 0.52638 0.10506
v 0.04093 0.52793 0.10168
v 0.03805 0.53095 0.10212
v 0.04000 0.52940 0.10550
vn 0.6566 0.7493 0.0864
vn 0.1995 0.3901 0.8989
vn -0.4888 -0.3282 0.8083
vn -0.7201 -0.6874 -0.0948
vn -0.2630 -0.3282 -0.9073
vn 0.4253 0.3901 -0.8166
vn 0.6563 0.7495 0.0864
vn 0.1995 0.3902 0.8989
vn -0.4884 -0.3287 0.8084
vn -0.7196 -0.6879 -0.0947
vn -0.2629 -0.3283 -0.9072
vn 0.4251 0.3903 -0.8167
vn 0.6329 0.7696 0.0843
vn 0.1956 0.3916 0.8991
vn -0.4677 -0.3504 0.8115
vn -0.6950 -0.7132 -0.0914
vn -0.2592 -0.3336 -0.9064
vn 0.4053 0.4072 -0.8185
vn 0.5693 0.8181 0.0815
vn 0.1883 0.3914 0.9007
vn -0.4116 -0.4034 0.8172
vn -0.6310 -0.7710 -0.0858
vn -0.2505 -0.3437 -0.9051
vn 0.3499 0.4506 -0.8213
vn 0.4927 0.8664 0.0815
vn 0.1805 0.3902 0.9028
vn -0.3422 -0.4576 0.8207
vn -0.5514 -0.8301 -0.0829
vn -0.2386 -0.3541 -0.9042
vn 0.2828 0.4945 -0.8219
vn 0.4138 0.9066 0.0823
vn 0.1599 0.3970 0.9038
vn -0.2814 -0.4961 0.8214
vn -0.4679 -0.8799 -0.0825
vn -0.2142 -0.3700 -0.9040
vn 0.2261 0.5235 -0.8215
vn 0.3178 0.9445 0.0829
vn 0.1207 0.4099 0.9041
vn -0.2243 -0.5246 0.8213
vn -0.3722 -0.9244 -0.0829
vn -0.1755 -0.3895 -0.9042
vn 0.1696 0.5449 -0.8211
vn 0.2105 0.9740 0.0840
vn 0.0779 0.4190 0.9047
vn -0.1593 -0.5485 0.8208
vn -0.2637 -0.9610 -0.0838
vn -0.1311 -0.4058 -0.9045
vn 0.1059 0.5617 -0.8205
vn 0.1027 0.9910 0.0853
vn 0.0385 0.4228 0.9054
vn -0.0827 -0.5660 0.8202
vn -0.1387 -0.9867 -0.0851
vn -0.0742 -0.4184 -0.9052
vn 0.0460 0.5705 -0.8200
vn -0.0000 0.9963 0.0859
vn -0.0000 0.4238 0.9058
vn 0.0000 -0.5725 0.8199
vn -0.0000 -0.9963 -0.0859
vn -0.0000 -0.4238 -0.9058
vn 0.0000 0.5725 -0.8199
vn -0.1027 0.9910 0.0859
vn -0.0385 0.4222 0.9057
vn 0.0827 -0.5665 0.8199
vn 0.1387 -0.9866 -0.0857
vn 0.0741 -0.4178 -0.9055
vn -0.0461 0.5710 -0.8196
vn -0.2105 0.9738 0.0861
vn -0.0774 0.4172 0.9055
vn 0.1597 -0.5501 0.8197
vn 0.2637 -0.9608 -0.0859
vn 0.1307 -0.4039 -0.9054
vn -0.1063 0.5634 -0.8193
vn -0.3177 0.9442 0.0864
vn -0.1196 0.4069 0.9056
vn 0.2253 -0.5273 0.8193
vn 0.3721 -0.9241 -0.0864
vn 0.1744 -0.3865 -0.9057
vn -0.1706 0.5477 -0.8191
vn -0.4136 0.9063 0.0871
vn -0.1580 0.3931 0.9058
vn 0.2831 -0.4996 0.8187
vn 0.4677 -0.8796 -0.0873
vn 0.2123 -0.3662 -0.9060
vn -0.2278 0.5270 -0.8187
vn -0.4923 0.8659 0.0886
vn -0.1771 0.3848 0.9059
vn 0.3452 -0.4626 0.8166
vn 0.5510 -0.8296 -0.0900
vn 0.2351 -0.3487 -0.9073
vn -0.2858 0.4995 -0.8178
vn -0.5682 0.8176 0.0927
vn -0.1819 0.3835 0.9055
vn 0.4169 -0.4109 0.8108
vn 0.6299 -0.7706 -0.0969
vn 0.2441 -0.3358 -0.9098
vn -0.3551 0.4581 -0.8149
vn -0.6311 0.7694 0.0984
vn -0.1865 0.3823 0.9050
vn 0.4750 -0.3595 0.8032
vn 0.6932 -0.7130 -0.1055
vn 0.2501 -0.3243 -0.9123
vn -0.4127 0.4163 -0.8102
vn -0.6543 0.7494 0.1009
vn -0.1897 0.3810 0.9049
vn 0.4961 -0.3378 0.7999
vn 0.7176 -0.6879 -0.1093
vn 0.2532 -0.3191 -0.9133
vn -0.4329 0.3994 -0.8082
vn -0.6546 0.7492 0.1010
vn -0.1898 0.3809 0.9049
vn 0.4966 -0.3373 0.7998
vn 0.7181 -0.6873 -0.1093
vn 0.2532 -0.3191 -0.9133
vn -0.4331 0.3992 -0.8081
vn -0.7129 0.6950 -0.0938
vn -0.7129 0.6950 -0.0938
vn -0.7129 0.6950 -0.0938
vn -0.7129 0.6950 -0.0938
vn -0.7129 0.6950 -0.0938
vn -0.7129 0.6950 -0.0938
vn -0.7129 0.6950 -0.0938
vn 0.7129 0.6950 -0.0938
vn 0.7129 0.6950 -0.0938
vn 0.7129 0.6950 -0.0938
vn 0.7129 0.6950 -0.0938
vn 0.7129 0.6950 -0.0938
vn 0.7129 0.6950 -0.0938
vn 0.7129 0.6950 -0.0938
f 441//441 442//442 448//448 447//447
f 442//442 443//443 449//449 448//448
f 443//443 444//444 450//450 449//449
f 444//444 445//445 451//451 450//450
f 445//445 446//446 452//452 451//451
f 446//446 441//441 447//447 452//452
f 447//447 448//448 454//454 453//453
f 448//448 449//449 455//455 454//454
f 449//449 450//450 456//456 455//455
f 450//450 451//451 457//457 456//456
f 451//451 452//452 458//458 457//457
f 452//452 447//447 453//453 458//458
f 453//453 454//454 460//460 459//459
f 454//454 455//455 461//461 460//460
f 455//455 456//456 462//462 461//461
f 456//456 457//457 463//463 462//462
f 457//457 458//458 464//464 463//463
f 458//458 453//453 459//459 464//464
f 459//459 460//460 466//466 465//465
f 460//460 461//461 467//467 466//466
f 461//461 462//462 468//468 467//467
f 462//462 463//463 469//469 468//468
f 463//463 464//464 470//470 469//469
f 464//464 459//459 465//465 470//470
f 465//465 466//466 472//472 471//471
f 466//466 467//467 473//473 472//472
f 467//467 468//468 474//474 473//473
f 468//468 469//469 475//475 474//474
f 469//469 470//470 476//476 475//475
f 470//470 465//465 471//471 476//476
f 471//471 472//472 478//478 477//477
f 472//472 473//473 479//479 478//478
f 473//473 474//474 480//480 479//479
f 474//474 475//475 481//481 480//480
f 475//475 476//476 482//482 481//481
f 476//476 471//471 477//477 482//482
f 477//477 478//478 484//484 483//483
f 478//478 479//479 485//485 484//484
f 479//479 480//480 486//486 485//485
f 480//480 481//481 487//487 486//486
f 481//481 482//482 488//488 487//487
f 482//482 477//477 483//483 488//488
f 483//483 484//484 490//490 489//489
f 484//484 485//485 491//491 490//490
f 485//485 486//486 492//492 491//491
f 486//486 487//487 493//493 492//492
f 487//487 488//488 494//494 493//493
f 488//488 483//483 489//489 494//494
f 489//489 490//490 496//496 495//495
f 490//490 491//491 497//497 496//496
f 491//491 492//492 498//498 497//497
f 492//492 493//493 499//499 498//498
f 493//493 494//494 500//500 499//499
f 494//494 489//489 495//495 500//500
f 495//495 496//496 502//502 501//501
f 496//496 497//497 503//503 502//502
f 497//497 498//498 504//504 503//503
f 498//498 499//499 505//505 504//504
f 499//499 500//500 506//506 505//505
f 500//500 495//495 501//501 506//506
f 501//501 502//502 508//508 507//507
f 502//502 503//503 509//509 508//508
f 503//503 504//504 510//510 509//509
f 504//504 505//505 511//511 510//510
f 505//505 506//506 512//512 511//511
f 506//506 501//501 507//507 512//512
f 507//507 508//508 514//514 513//513
f 508//508 509//509 515//515 514//514
f 509//509 510//510 516//516 515//515
f 510//510 511//511 517//517 516//516
f 511//511 512//512 518//518 517//517
f 512//512 507//507 513//513 518//518
f 513//513 514//514 520//520 519//519
f 514//514 515//515 521//521 520//520
f 515//515 516//516 522//522 521//521
f 516//516 517//517 523//523 522//522
f 517//517 518//518 524//524 523//523
f 518//518 513//513 519//519 524//524
f 519//519 520//520 526//526 525//525
f 520//520 521//521 527//527 526//526
f 521//521 522//522 528//528 527//527
f 522//522 523//523 529//529 528//528
f 523//523 524//524 530//530 529//529
f 524//524 519//519 525//525 530//530
f 525//525 526//526 532//532 531//531
f 526//526 527//527 533//533 532//532
f 527//527 528//528 534//534 533//533
f 528//528 529//529 535//535 534//534
f 529//529 530//530 536//536 535//535
f 530//530 525//525 531//531 536//536
f 531//531 532//532 538//538 537//537
f 532//532 533//533 539//539 538//538
f 533//533 534//534 540//540 539//539
f 534//534 535//535 541//541 540//540
f 535//535 536//536 542//542 541//541
f 536//536 531//531 537//537 542//542
f 537//537 538//538 544//544 543//543
f 538//538 539//539 545//545 544//544
f 539//539 540//540 546//546 545//545
f 540//540 541//541 547//547 546//546
f 541//541 542//542 548//548 547//547
f 542//542 537//537 543//543 548//548
f 543//543 544//544 550//550 549//549
f 544//544 545//545 551//551 550//550
f 545//545 546//546 552//552 551//551
f 546//546 547//547 553//553 552//552
f 547//547 548//548 554//554 553//553
f 548//548 543//543 549//549 554//554
f 556//556 561//561 555//555
f 557//557 561//561 556//556
f 558//558 561//561 557//557
f 559//559 561//561 558//558
f 560//560 561//561 559//559
f 555//555 561//561 560//560
f 563//563 568//568 562//562
f 564//564 568//568 563//563
f 565//565 568//568 564//564
f 566//566 568//568 565//565
f 567//567 568//568 566//566
f 562//562 568//568 567//567
