# Made by prepare_house.py: the house's door, origin on its hinge (shut: it lies along -z)
mtllib house.mtl
v -0.00003 1.15422 0.00157
v -0.00003 1.15422 -1.13557
v -0.00003 3.31407 -1.13557
v -0.00003 3.31407 0.00157
v -0.09976 1.15422 -1.13557
v -0.09976 3.31407 -1.13557
v -0.09976 1.15422 0.00157
v -0.09976 3.31407 0.00157
v -0.02750 2.30466 -0.99341
v 0.05091 2.30466 -1.02119
v 0.05091 2.29234 -1.01998
v -0.02750 2.29776 -0.99273
v 0.05091 2.28049 -1.01639
v -0.02750 2.29112 -0.99072
v 0.05091 2.26957 -1.01055
v -0.02750 2.28501 -0.98745
v 0.05091 2.26000 -1.00269
v -0.02750 2.27965 -0.98305
v 0.05091 2.25214 -0.99312
v -0.02750 2.27525 -0.97769
v 0.05091 2.24631 -0.98220
v -0.02750 2.27198 -0.97157
v 0.05091 2.24271 -0.97035
v -0.02750 2.26996 -0.96493
v 0.05091 2.24150 -0.95803
v -0.02750 2.26928 -0.95803
v 0.05091 2.24271 -0.94571
v -0.02750 2.26996 -0.95113
v 0.05091 2.24631 -0.93386
v -0.02750 2.27198 -0.94449
v 0.05091 2.25214 -0.92294
v -0.02750 2.27525 -0.93837
v 0.05091 2.26000 -0.91337
v -0.02750 2.27965 -0.93301
v 0.05091 2.26957 -0.90551
v -0.02750 2.28501 -0.92861
v 0.05091 2.28049 -0.89967
v -0.02750 2.29112 -0.92534
v 0.05091 2.29234 -0.89608
v -0.02750 2.29776 -0.92333
v 0.05091 2.30466 -0.89487
v -0.02750 2.30466 -0.92265
v 0.05091 2.31699 -0.89608
v -0.02750 2.31156 -0.92333
v 0.05091 2.32883 -0.89967
v -0.02750 2.31820 -0.92534
v 0.05091 2.33975 -0.90551
v -0.02750 2.32432 -0.92861
v 0.05091 2.34933 -0.91337
v -0.02750 2.32968 -0.93301
v 0.05091 2.35718 -0.92294
v -0.02750 2.33408 -0.93837
v 0.05091 2.36302 -0.93386
v -0.02750 2.33735 -0.94449
v 0.05091 2.36661 -0.94571
v -0.02750 2.33936 -0.95113
v 0.05091 2.36783 -0.95803
v -0.02750 2.34004 -0.95803
v 0.05091 2.36661 -0.97035
v -0.02750 2.33936 -0.96493
v 0.05091 2.36302 -0.98220
v -0.02750 2.33735 -0.97157
v 0.05091 2.35718 -0.99312
v -0.02750 2.33408 -0.97769
v 0.05091 2.34933 -1.00269
v -0.02750 2.32968 -0.98305
v 0.05091 2.33975 -1.01055
v -0.02750 2.32432 -0.98745
v 0.05091 2.32883 -1.01639
v -0.02750 2.31820 -0.99072
v 0.05091 2.31699 -1.01998
v -0.02750 2.31156 -0.99273
v -0.14192 2.31699 -1.01998
v -0.06351 2.31156 -0.99273
v -0.06351 2.30466 -0.99341
v -0.14192 2.30466 -1.02119
v -0.14192 2.32883 -1.01639
v -0.06351 2.31820 -0.99072
v -0.14192 2.33975 -1.01055
v -0.06351 2.32432 -0.98745
v -0.14192 2.34933 -1.00269
v -0.06351 2.32968 -0.98305
v -0.14192 2.35718 -0.99312
v -0.06351 2.33408 -0.97769
v -0.14192 2.36302 -0.98220
v -0.06351 2.33735 -0.97157
v -0.14192 2.36661 -0.97035
v -0.06351 2.33936 -0.96493
v -0.14192 2.36783 -0.95803
v -0.06351 2.34004 -0.95803
v -0.14192 2.36661 -0.94571
v -0.06351 2.33936 -0.95113
v -0.14192 2.36302 -0.93386
v -0.06351 2.33735 -0.94449
v -0.14192 2.35718 -0.92294
v -0.06351 2.33408 -0.93837
v -0.14192 2.34933 -0.91337
v -0.06351 2.32968 -0.93301
v -0.14192 2.33975 -0.90551
v -0.06351 2.32432 -0.92861
v -0.14192 2.32883 -0.89967
v -0.06351 2.31820 -0.92534
v -0.14192 2.31699 -0.89608
v -0.06351 2.31156 -0.92333
v -0.14192 2.30466 -0.89487
v -0.06351 2.30466 -0.92265
v -0.14192 2.29234 -0.89608
v -0.06351 2.29776 -0.92333
v -0.14192 2.28049 -0.89967
v -0.06351 2.29112 -0.92534
v -0.14192 2.26957 -0.90551
v -0.06351 2.28501 -0.92861
v -0.14192 2.26000 -0.91337
v -0.06351 2.27965 -0.93301
v -0.14192 2.25214 -0.92294
v -0.06351 2.27525 -0.93837
v -0.14192 2.24631 -0.93386
v -0.06351 2.27198 -0.94449
v -0.14192 2.24271 -0.94571
v -0.06351 2.26996 -0.95113
v -0.14192 2.24150 -0.95803
v -0.06351 2.26928 -0.95803
v -0.14192 2.24271 -0.97035
v -0.06351 2.26996 -0.96493
v -0.14192 2.24631 -0.98220
v -0.06351 2.27198 -0.97157
v -0.14192 2.25214 -0.99312
v -0.06351 2.27525 -0.97769
v -0.14192 2.26000 -1.00269
v -0.06351 2.27965 -0.98305
v -0.14192 2.26957 -1.01055
v -0.06351 2.28501 -0.98745
v -0.14192 2.28049 -1.01639
v -0.06351 2.29112 -0.99072
v -0.14192 2.29234 -1.01998
v -0.06351 2.29776 -0.99273
v 0.07099 2.30466 -1.02119
v 0.07099 2.29234 -1.01998
v 0.07099 2.31699 -1.01998
v 0.07099 2.32883 -1.01639
v 0.07099 2.33975 -1.01055
v 0.07099 2.34933 -1.00269
v 0.07099 2.35718 -0.99312
v 0.07099 2.36302 -0.98220
v 0.07099 2.36661 -0.97035
v 0.07099 2.36783 -0.95803
v 0.07099 2.36661 -0.94571
v 0.07099 2.36302 -0.93386
v 0.07099 2.35718 -0.92294
v 0.07099 2.34933 -0.91337
v 0.07099 2.33975 -0.90551
v 0.07099 2.32883 -0.89967
v 0.07099 2.31699 -0.89608
v 0.07099 2.30466 -0.89487
v 0.07099 2.29234 -0.89608
v 0.07099 2.28049 -0.89967
v 0.07099 2.26957 -0.90551
v 0.07099 2.26000 -0.91337
v 0.07099 2.25214 -0.92294
v 0.07099 2.24631 -0.93386
v 0.07099 2.24271 -0.94571
v 0.07099 2.24150 -0.95803
v 0.07099 2.24271 -0.97035
v 0.07099 2.24631 -0.98220
v 0.07099 2.25214 -0.99312
v 0.07099 2.26000 -1.00269
v 0.07099 2.26957 -1.01055
v 0.07099 2.28049 -1.01639
v -0.16200 2.29234 -1.01998
v -0.16200 2.30466 -1.02119
v -0.16200 2.28049 -1.01639
v -0.16200 2.26957 -1.01055
v -0.16200 2.26000 -1.00269
v -0.16200 2.25214 -0.99312
v -0.16200 2.24631 -0.98220
v -0.16200 2.24271 -0.97035
v -0.16200 2.24150 -0.95803
v -0.16200 2.24271 -0.94571
v -0.16200 2.24631 -0.93386
v -0.16200 2.25214 -0.92294
v -0.16200 2.26000 -0.91337
v -0.16200 2.26957 -0.90551
v -0.16200 2.28049 -0.89967
v -0.16200 2.29234 -0.89608
v -0.16200 2.30466 -0.89487
v -0.16200 2.31699 -0.89608
v -0.16200 2.32883 -0.89967
v -0.16200 2.33975 -0.90551
v -0.16200 2.34933 -0.91337
v -0.16200 2.35718 -0.92294
v -0.16200 2.36302 -0.93386
v -0.16200 2.36661 -0.94571
v -0.16200 2.36783 -0.95803
v -0.16200 2.36661 -0.97035
v -0.16200 2.36302 -0.98220
v -0.16200 2.35718 -0.99312
v -0.16200 2.34933 -1.00269
v -0.16200 2.33975 -1.01055
v -0.16200 2.32883 -1.01639
v -0.16200 2.31699 -1.01998
v 0.08283 2.30466 -1.01557
v 0.08283 2.29344 -1.01446
v 0.08033 2.29266 -1.01836
v 0.08033 2.30466 -1.01955
v 0.07428 2.29234 -1.01998
v 0.07428 2.30466 -1.02119
v 0.08283 2.31589 -1.01446
v 0.08033 2.31666 -1.01836
v 0.07428 2.31699 -1.01998
v 0.08283 2.32668 -1.01119
v 0.08033 2.32820 -1.01486
v 0.07428 2.32883 -1.01639
v 0.08283 2.33663 -1.00587
v 0.08033 2.33884 -1.00918
v 0.07428 2.33975 -1.01055
v 0.08283 2.34535 -0.99871
v 0.08033 2.34816 -1.00153
v 0.07428 2.34933 -1.00269
v 0.08283 2.35250 -0.99000
v 0.08033 2.35581 -0.99221
v 0.07428 2.35718 -0.99312
v 0.08283 2.35782 -0.98005
v 0.08033 2.36150 -0.98157
v 0.07428 2.36302 -0.98220
v 0.08283 2.36109 -0.96925
v 0.08033 2.36500 -0.97003
v 0.07428 2.36661 -0.97035
v 0.08283 2.36220 -0.95803
v 0.08033 2.36618 -0.95803
v 0.07428 2.36783 -0.95803
v 0.08283 2.36109 -0.94681
v 0.08033 2.36500 -0.94603
v 0.07428 2.36661 -0.94571
v 0.08283 2.35782 -0.93601
v 0.08033 2.36150 -0.93449
v 0.07428 2.36302 -0.93386
v 0.08283 2.35250 -0.92606
v 0.08033 2.35581 -0.92385
v 0.07428 2.35718 -0.92294
v 0.08283 2.34535 -0.91735
v 0.08033 2.34816 -0.91453
v 0.07428 2.34933 -0.91337
v 0.08283 2.33663 -0.91019
v 0.08033 2.33884 -0.90688
v 0.07428 2.33975 -0.90551
v 0.08283 2.32668 -0.90487
v 0.08033 2.32820 -0.90120
v 0.07428 2.32883 -0.89967
v 0.08283 2.31589 -0.90160
v 0.08033 2.31666 -0.89770
v 0.07428 2.31699 -0.89608
v 0.08283 2.30466 -0.90049
v 0.08033 2.30466 -0.89651
v 0.07428 2.30466 -0.89487
v 0.08283 2.29344 -0.90160
v 0.08033 2.29266 -0.89770
v 0.07428 2.29234 -0.89608
v 0.08283 2.28264 -0.90487
v 0.08033 2.28112 -0.90120
v 0.07428 2.28049 -0.89967
v 0.08283 2.27270 -0.91019
v 0.08033 2.27049 -0.90688
v 0.07428 2.26957 -0.90551
v 0.08283 2.26398 -0.91735
v 0.08033 2.26116 -0.91453
v 0.07428 2.26000 -0.91337
v 0.08283 2.25682 -0.92606
v 0.08033 2.25351 -0.92385
v 0.07428 2.25214 -0.92294
v 0.08283 2.25151 -0.93601
v 0.08033 2.24783 -0.93449
v 0.07428 2.24631 -0.93386
v 0.08283 2.24823 -0.94681
v 0.08033 2.24433 -0.94603
v 0.07428 2.24271 -0.94571
v 0.08283 2.24713 -0.95803
v 0.08033 2.24315 -0.95803
v 0.07428 2.24150 -0.95803
v 0.08283 2.24823 -0.96925
v 0.08033 2.24433 -0.97003
v 0.07428 2.24271 -0.97035
v 0.08283 2.25151 -0.98005
v 0.08033 2.24783 -0.98157
v 0.07428 2.24631 -0.98220
v 0.08283 2.25682 -0.99000
v 0.08033 2.25351 -0.99221
v 0.07428 2.25214 -0.99312
v 0.08283 2.26398 -0.99871
v 0.08033 2.26116 -1.00153
v 0.07428 2.26000 -1.00269
v 0.08283 2.27270 -1.00587
v 0.08033 2.27049 -1.00918
v 0.07428 2.26957 -1.01055
v 0.08283 2.28264 -1.01119
v 0.08033 2.28112 -1.01486
v 0.07428 2.28049 -1.01639
v -0.17384 2.29344 -1.01446
v -0.17384 2.30466 -1.01557
v -0.17134 2.30466 -1.01955
v -0.17134 2.29266 -1.01836
v -0.16529 2.30466 -1.02119
v -0.16529 2.29234 -1.01998
v -0.17384 2.28264 -1.01119
v -0.17134 2.28112 -1.01486
v -0.16529 2.28049 -1.01639
v -0.17384 2.27270 -1.00587
v -0.17134 2.27049 -1.00918
v -0.16529 2.26957 -1.01055
v -0.17384 2.26398 -0.99871
v -0.17134 2.26116 -1.00153
v -0.16529 2.26000 -1.00269
v -0.17384 2.25682 -0.99000
v -0.17134 2.25351 -0.99221
v -0.16529 2.25214 -0.99312
v -0.17384 2.25151 -0.98005
v -0.17134 2.24783 -0.98157
v -0.16529 2.24631 -0.98220
v -0.17384 2.24823 -0.96925
v -0.17134 2.24433 -0.97003
v -0.16529 2.24271 -0.97035
v -0.17384 2.24713 -0.95803
v -0.17134 2.24315 -0.95803
v -0.16529 2.24150 -0.95803
v -0.17384 2.24823 -0.94681
v -0.17134 2.24433 -0.94603
v -0.16529 2.24271 -0.94571
v -0.17384 2.25151 -0.93601
v -0.17134 2.24783 -0.93449
v -0.16529 2.24631 -0.93386
v -0.17384 2.25682 -0.92606
v -0.17134 2.25351 -0.92385
v -0.16529 2.25214 -0.92294
v -0.17384 2.26398 -0.91735
v -0.17134 2.26116 -0.91453
v -0.16529 2.26000 -0.91337
v -0.17384 2.27270 -0.91019
v -0.17134 2.27049 -0.90688
v -0.16529 2.26957 -0.90551
v -0.17384 2.28264 -0.90487
v -0.17134 2.28112 -0.90120
v -0.16529 2.28049 -0.89967
v -0.17384 2.29344 -0.90160
v -0.17134 2.29266 -0.89770
v -0.16529 2.29234 -0.89608
v -0.17384 2.30466 -0.90049
v -0.17134 2.30466 -0.89651
v -0.16529 2.30466 -0.89487
v -0.17384 2.31589 -0.90160
v -0.17134 2.31666 -0.89770
v -0.16529 2.31699 -0.89608
v -0.17384 2.32668 -0.90487
v -0.17134 2.32820 -0.90120
v -0.16529 2.32883 -0.89967
v -0.17384 2.33663 -0.91019
v -0.17134 2.33884 -0.90688
v -0.16529 2.33975 -0.90551
v -0.17384 2.34535 -0.91735
v -0.17134 2.34816 -0.91453
v -0.16529 2.34933 -0.91337
v -0.17384 2.35250 -0.92606
v -0.17134 2.35581 -0.92385
v -0.16529 2.35718 -0.92294
v -0.17384 2.35782 -0.93601
v -0.17134 2.36150 -0.93449
v -0.16529 2.36302 -0.93386
v -0.17384 2.36109 -0.94681
v -0.17134 2.36500 -0.94603
v -0.16529 2.36661 -0.94571
v -0.17384 2.36220 -0.95803
v -0.17134 2.36618 -0.95803
v -0.16529 2.36783 -0.95803
v -0.17384 2.36109 -0.96925
v -0.17134 2.36500 -0.97003
v -0.16529 2.36661 -0.97035
v -0.17384 2.35782 -0.98005
v -0.17134 2.36150 -0.98157
v -0.16529 2.36302 -0.98220
v -0.17384 2.35250 -0.99000
v -0.17134 2.35581 -0.99221
v -0.16529 2.35718 -0.99312
v -0.17384 2.34535 -0.99871
v -0.17134 2.34816 -1.00153
v -0.16529 2.34933 -1.00269
v -0.17384 2.33663 -1.00587
v -0.17134 2.33884 -1.00918
v -0.16529 2.33975 -1.01055
v -0.17384 2.32668 -1.01119
v -0.17134 2.32820 -1.01486
v -0.16529 2.32883 -1.01639
v -0.17384 2.31589 -1.01446
v -0.17134 2.31666 -1.01836
v -0.16529 2.31699 -1.01998
vt 0.375000 0.000000
vt 0.375000 0.250000
vt 0.625000 0.250000
vt 0.625000 0.000000
vt 0.375000 0.500000
vt 0.625000 0.500000
vt 0.375000 0.750000
vt 0.625000 0.750000
vt 0.375000 1.000000
vt 0.625000 1.000000
vt 0.125000 0.500000
vt 0.125000 0.750000
vt 0.875000 0.750000
vt 0.875000 0.500000
vt 1.000000 0.833333
vt 1.000000 1.000000
vt 0.968750 1.000000
vt 0.968750 0.833333
vt 0.937500 1.000000
vt 0.937500 0.833333
vt 0.906250 1.000000
vt 0.906250 0.833333
vt 0.875000 1.000000
vt 0.875000 0.833333
vt 0.843750 1.000000
vt 0.843750 0.833333
vt 0.812500 1.000000
vt 0.812500 0.833333
vt 0.781250 1.000000
vt 0.781250 0.833333
vt 0.750000 1.000000
vt 0.750000 0.833333
vt 0.718750 1.000000
vt 0.718750 0.833333
vt 0.687500 1.000000
vt 0.687500 0.833333
vt 0.656250 1.000000
vt 0.656250 0.833333
vt 0.625000 1.000000
vt 0.625000 0.833333
vt 0.593750 1.000000
vt 0.593750 0.833333
vt 0.562500 1.000000
vt 0.562500 0.833333
vt 0.531250 1.000000
vt 0.531250 0.833333
vt 0.500000 1.000000
vt 0.500000 0.833333
vt 0.468750 1.000000
vt 0.468750 0.833333
vt 0.437500 1.000000
vt 0.437500 0.833333
vt 0.406250 1.000000
vt 0.406250 0.833333
vt 0.375000 1.000000
vt 0.375000 0.833333
vt 0.343750 1.000000
vt 0.343750 0.833333
vt 0.312500 1.000000
vt 0.312500 0.833333
vt 0.281250 1.000000
vt 0.281250 0.833333
vt 0.250000 1.000000
vt 0.250000 0.833333
vt 0.218750 1.000000
vt 0.218750 0.833333
vt 0.187500 1.000000
vt 0.187500 0.833333
vt 0.156250 1.000000
vt 0.156250 0.833333
vt 0.125000 1.000000
vt 0.125000 0.833333
vt 0.093750 1.000000
vt 0.093750 0.833333
vt 0.062500 1.000000
vt 0.062500 0.833333
vt 0.031250 1.000000
vt 0.031250 0.833333
vt 0.000000 1.000000
vt 0.000000 0.833333
vt 0.031250 0.500000
vt 0.031250 0.666667
vt 0.000000 0.666667
vt 0.000000 0.500000
vt 0.062500 0.500000
vt 0.062500 0.666667
vt 0.093750 0.500000
vt 0.093750 0.666667
vt 0.125000 0.500000
vt 0.125000 0.666667
vt 0.156250 0.500000
vt 0.156250 0.666667
vt 0.187500 0.500000
vt 0.187500 0.666667
vt 0.218750 0.500000
vt 0.218750 0.666667
vt 0.250000 0.500000
vt 0.250000 0.666667
vt 0.281250 0.500000
vt 0.281250 0.666667
vt 0.312500 0.500000
vt 0.312500 0.666667
vt 0.343750 0.500000
vt 0.343750 0.666667
vt 0.375000 0.500000
vt 0.375000 0.666667
vt 0.406250 0.500000
vt 0.406250 0.666667
vt 0.437500 0.500000
vt 0.437500 0.666667
vt 0.468750 0.500000
vt 0.468750 0.666667
vt 0.500000 0.500000
vt 0.500000 0.666667
vt 0.531250 0.500000
vt 0.531250 0.666667
vt 0.562500 0.500000
vt 0.562500 0.666667
vt 0.593750 0.500000
vt 0.593750 0.666667
vt 0.625000 0.500000
vt 0.625000 0.666667
vt 0.656250 0.500000
vt 0.656250 0.666667
vt 0.687500 0.500000
vt 0.687500 0.666667
vt 0.718750 0.500000
vt 0.718750 0.666667
vt 0.750000 0.500000
vt 0.750000 0.666667
vt 0.781250 0.500000
vt 0.781250 0.666667
vt 0.812500 0.500000
vt 0.812500 0.666667
vt 0.843750 0.500000
vt 0.843750 0.666667
vt 0.875000 0.500000
vt 0.875000 0.666667
vt 0.906250 0.500000
vt 0.906250 0.666667
vt 0.937500 0.500000
vt 0.937500 0.666667
vt 0.968750 0.500000
vt 0.968750 0.666667
vt 1.000000 0.500000
vt 1.000000 0.666667
vt 0.250000 0.490000
vt 0.296822 0.485388
vt 0.203178 0.485388
vt 0.158156 0.471731
vt 0.116663 0.449553
vt 0.080294 0.419706
vt 0.050447 0.383337
vt 0.028269 0.341844
vt 0.014612 0.296822
vt 0.010000 0.250000
vt 0.014612 0.203178
vt 0.028269 0.158156
vt 0.050447 0.116663
vt 0.080294 0.080294
vt 0.116663 0.050447
vt 0.158156 0.028269
vt 0.203178 0.014612
vt 0.250000 0.010000
vt 0.296822 0.014612
vt 0.341844 0.028269
vt 0.383337 0.050447
vt 0.419706 0.080294
vt 0.449553 0.116663
vt 0.471731 0.158156
vt 0.485388 0.203178
vt 0.490000 0.250000
vt 0.485388 0.296822
vt 0.471731 0.341844
vt 0.449553 0.383337
vt 0.419706 0.419706
vt 0.383337 0.449553
vt 0.341844 0.471731
vt 0.796822 0.485388
vt 0.750000 0.490000
vt 0.841844 0.471731
vt 0.883337 0.449553
vt 0.919706 0.419706
vt 0.949553 0.383337
vt 0.971731 0.341844
vt 0.985388 0.296822
vt 0.990000 0.250000
vt 0.985388 0.203178
vt 0.971731 0.158156
vt 0.949553 0.116663
vt 0.919706 0.080294
vt 0.883337 0.050447
vt 0.841844 0.028269
vt 0.796822 0.014612
vt 0.750000 0.010000
vt 0.703178 0.014612
vt 0.658156 0.028269
vt 0.616663 0.050447
vt 0.580294 0.080294
vt 0.550447 0.116663
vt 0.528269 0.158156
vt 0.514612 0.203178
vt 0.510000 0.250000
vt 0.514612 0.296822
vt 0.528269 0.341844
vt 0.550447 0.383337
vt 0.580294 0.419706
vt 0.616663 0.449553
vt 0.658156 0.471731
vt 0.703178 0.485388
vt 0.250000 0.468616
vt 0.292650 0.464415
vt 0.296810 0.485329
vt 0.250000 0.489940
vt 0.207350 0.464415
vt 0.203190 0.485329
vt 0.166339 0.451975
vt 0.158179 0.471675
vt 0.128544 0.431772
vt 0.116697 0.449503
vt 0.095415 0.404585
vt 0.080337 0.419663
vt 0.068228 0.371456
vt 0.050497 0.383303
vt 0.048025 0.333661
vt 0.028325 0.341821
vt 0.035585 0.292650
vt 0.014671 0.296810
vt 0.031384 0.250000
vt 0.010060 0.250000
vt 0.035585 0.207350
vt 0.014671 0.203190
vt 0.048025 0.166339
vt 0.028325 0.158179
vt 0.068228 0.128544
vt 0.050497 0.116697
vt 0.050447 0.116663
vt 0.095415 0.095415
vt 0.080337 0.080337
vt 0.128544 0.068228
vt 0.116697 0.050497
vt 0.166339 0.048025
vt 0.158179 0.028325
vt 0.207350 0.035585
vt 0.203190 0.014671
vt 0.250000 0.031384
vt 0.250000 0.010060
vt 0.292650 0.035585
vt 0.296810 0.014671
vt 0.333661 0.048025
vt 0.341821 0.028325
vt 0.371456 0.068228
vt 0.383303 0.050497
vt 0.383337 0.050447
vt 0.404585 0.095415
vt 0.419663 0.080337
vt 0.431772 0.128544
vt 0.449503 0.116697
vt 0.451975 0.166339
vt 0.471675 0.158179
vt 0.464415 0.207350
vt 0.485329 0.203190
vt 0.468616 0.250000
vt 0.489940 0.250000
vt 0.464415 0.292650
vt 0.485329 0.296810
vt 0.451975 0.333661
vt 0.471675 0.341821
vt 0.431772 0.371456
vt 0.449503 0.383303
vt 0.404585 0.404585
vt 0.419663 0.419663
vt 0.371456 0.431772
vt 0.383303 0.449503
vt 0.333661 0.451975
vt 0.341821 0.471675
vt 0.792650 0.464415
vt 0.750000 0.468616
vt 0.750000 0.489940
vt 0.796810 0.485329
vt 0.796822 0.485388
vt 0.833661 0.451975
vt 0.841821 0.471675
vt 0.841844 0.471731
vt 0.871457 0.431772
vt 0.883303 0.449503
vt 0.883337 0.449553
vt 0.904585 0.404585
vt 0.919663 0.419663
vt 0.931772 0.371456
vt 0.949503 0.383303
vt 0.949553 0.383337
vt 0.951975 0.333661
vt 0.971676 0.341821
vt 0.964415 0.292650
vt 0.985330 0.296810
vt 0.968616 0.250000
vt 0.989940 0.250000
vt 0.990000 0.250000
vt 0.964415 0.207350
vt 0.985329 0.203190
vt 0.985388 0.203178
vt 0.951975 0.166339
vt 0.971676 0.158179
vt 0.931772 0.128544
vt 0.949503 0.116697
vt 0.949553 0.116663
vt 0.904585 0.095415
vt 0.919663 0.080337
vt 0.871457 0.068228
vt 0.883303 0.050497
vt 0.883337 0.050447
vt 0.833661 0.048025
vt 0.841821 0.028325
vt 0.841844 0.028269
vt 0.792650 0.035585
vt 0.796810 0.014671
vt 0.796822 0.014612
vt 0.750000 0.031384
vt 0.750000 0.010060
vt 0.707350 0.035585
vt 0.703190 0.014671
vt 0.703178 0.014612
vt 0.666340 0.048025
vt 0.658179 0.028325
vt 0.658156 0.028269
vt 0.628544 0.068228
vt 0.616697 0.050497
vt 0.616663 0.050447
vt 0.595415 0.095415
vt 0.580337 0.080337
vt 0.568228 0.128544
vt 0.550497 0.116697
vt 0.548026 0.166339
vt 0.528324 0.158179
vt 0.535585 0.207350
vt 0.514671 0.203190
vt 0.531384 0.250000
vt 0.510060 0.250000
vt 0.535585 0.292650
vt 0.514671 0.296810
vt 0.548025 0.333661
vt 0.528324 0.341821
vt 0.568228 0.371456
vt 0.550497 0.383303
vt 0.595415 0.404585
vt 0.580337 0.419663
vt 0.628544 0.431772
vt 0.616697 0.449503
vt 0.666339 0.451975
vt 0.658179 0.471675
vt 0.658156 0.471731
vt 0.707350 0.464415
vt 0.703190 0.485329
vt 0.703178 0.485388
vn 1.0000 -0.0000 -0.0000
vn -0.0000 -0.0000 -1.0000
vn -1.0000 -0.0000 -0.0000
vn -0.0000 -0.0000 1.0000
vn -0.0000 -1.0000 -0.0000
vn -0.0000 1.0000 -0.0000
vn -0.3326 -0.0924 -0.9385
vn -0.3326 -0.2738 -0.9025
vn -0.3326 -0.4446 -0.8317
vn -0.3326 -0.5983 -0.7290
vn -0.3326 -0.7290 -0.5983
vn -0.3326 -0.8317 -0.4446
vn -0.3326 -0.9025 -0.2738
vn -0.3326 -0.9385 -0.0924
vn -0.3326 -0.9385 0.0924
vn -0.3326 -0.9025 0.2738
vn -0.3326 -0.8317 0.4446
vn -0.3326 -0.7290 0.5983
vn -0.3326 -0.5983 0.7290
vn -0.3326 -0.4446 0.8317
vn -0.3326 -0.2738 0.9025
vn -0.3326 -0.0924 0.9385
vn -0.3326 0.0924 0.9385
vn -0.3326 0.2738 0.9025
vn -0.3326 0.4446 0.8317
vn -0.3326 0.5983 0.7290
vn -0.3326 0.7290 0.5983
vn -0.3326 0.8317 0.4446
vn -0.3326 0.9025 0.2738
vn -0.3326 0.9385 0.0924
vn -0.3326 0.9385 -0.0924
vn -0.3326 0.9025 -0.2738
vn -0.3326 0.8317 -0.4446
vn -0.3326 0.7290 -0.5983
vn -0.3326 0.5983 -0.7290
vn -0.3326 0.4446 -0.8317
vn -0.3326 0.2738 -0.9025
vn -0.3326 0.0924 -0.9385
vn 0.3326 0.0924 -0.9385
vn -0.0000 0.0980 -0.9952
vn 0.3326 0.2738 -0.9025
vn -0.0000 0.2903 -0.9569
vn 0.3326 0.4446 -0.8317
vn -0.0000 0.4714 -0.8819
vn 0.3326 0.5983 -0.7290
vn -0.0000 0.6344 -0.7730
vn 0.3326 0.7290 -0.5983
vn -0.0000 0.7730 -0.6344
vn 0.3326 0.8317 -0.4446
vn -0.0000 0.8819 -0.4714
vn 0.3326 0.9025 -0.2738
vn -0.0000 0.9569 -0.2903
vn 0.3326 0.9385 -0.0924
vn -0.0000 0.9952 -0.0980
vn 0.3326 0.9385 0.0924
vn -0.0000 0.9952 0.0980
vn 0.3326 0.9025 0.2738
vn -0.0000 0.9569 0.2903
vn 0.3326 0.8317 0.4446
vn -0.0000 0.8819 0.4714
vn 0.3326 0.7290 0.5983
vn -0.0000 0.7730 0.6344
vn 0.3326 0.5983 0.7290
vn -0.0000 0.6344 0.7730
vn 0.3326 0.4446 0.8317
vn -0.0000 0.4714 0.8819
vn 0.3326 0.2738 0.9025
vn -0.0000 0.2903 0.9569
vn 0.3326 0.0924 0.9385
vn -0.0000 0.0980 0.9952
vn 0.3326 -0.0924 0.9385
vn -0.0000 -0.0980 0.9952
vn 0.3326 -0.2738 0.9025
vn -0.0000 -0.2903 0.9569
vn 0.3326 -0.4446 0.8317
vn -0.0000 -0.4714 0.8819
vn 0.3326 -0.5983 0.7290
vn -0.0000 -0.6344 0.7730
vn 0.3326 -0.7290 0.5983
vn -0.0000 -0.7730 0.6344
vn 0.3326 -0.8317 0.4446
vn -0.0000 -0.8819 0.4714
vn 0.3326 -0.9025 0.2738
vn -0.0000 -0.9569 0.2903
vn 0.3326 -0.9385 0.0924
vn -0.0000 -0.9952 0.0980
vn 0.3326 -0.9385 -0.0924
vn -0.0000 -0.9952 -0.0980
vn 0.3326 -0.9025 -0.2738
vn -0.0000 -0.9569 -0.2903
vn 0.3326 -0.8317 -0.4446
vn -0.0000 -0.8819 -0.4714
vn 0.3326 -0.7290 -0.5983
vn -0.0000 -0.7730 -0.6344
vn 0.3326 -0.5983 -0.7290
vn -0.0000 -0.6344 -0.7730
vn 0.3326 -0.4446 -0.8317
vn -0.0000 -0.4714 -0.8819
vn 0.3326 -0.2738 -0.9025
vn -0.0000 -0.2903 -0.9569
vn 0.3326 -0.0924 -0.9385
vn -0.0000 -0.0980 -0.9952
vn 0.8452 -0.0524 -0.5318
vn 0.2619 -0.0946 -0.9605
vn 0.8452 0.0524 -0.5318
vn 0.2619 0.0946 -0.9605
vn 0.8452 0.1551 -0.5114
vn 0.2619 0.2802 -0.9235
vn 0.8452 0.2519 -0.4713
vn 0.2619 0.4549 -0.8511
vn 0.8452 0.3390 -0.4131
vn 0.2619 0.6123 -0.7460
vn 0.8452 0.4131 -0.3390
vn 0.2619 0.7460 -0.6123
vn 0.8452 0.4713 -0.2519
vn 0.2619 0.8511 -0.4549
vn 0.8452 0.5114 -0.1551
vn 0.2619 0.9235 -0.2802
vn 0.8452 0.5318 -0.0524
vn 0.2619 0.9605 -0.0946
vn 0.8452 0.5318 0.0524
vn 0.2619 0.9605 0.0946
vn 0.8452 0.5114 0.1551
vn 0.2619 0.9235 0.2802
vn 0.8452 0.4713 0.2519
vn 0.2619 0.8511 0.4549
vn 0.8452 0.4131 0.3390
vn 0.2619 0.7460 0.6123
vn 0.8452 0.3390 0.4131
vn 0.2619 0.6123 0.7460
vn 0.8452 0.2519 0.4713
vn 0.2619 0.4549 0.8511
vn 0.8452 0.1551 0.5114
vn 0.2619 0.2802 0.9235
vn 0.8452 0.0524 0.5318
vn 0.2619 0.0946 0.9605
vn 0.8452 -0.0524 0.5318
vn 0.2619 -0.0946 0.9605
vn 0.8452 -0.1551 0.5114
vn 0.2619 -0.2802 0.9235
vn 0.8452 -0.2519 0.4713
vn 0.2619 -0.4549 0.8511
vn 0.8452 -0.3390 0.4131
vn 0.2619 -0.6123 0.7460
vn 0.8452 -0.4131 0.3390
vn 0.2619 -0.7460 0.6123
vn 0.8452 -0.4713 0.2519
vn 0.2619 -0.8511 0.4549
vn 0.8452 -0.5114 0.1551
vn 0.2619 -0.9235 0.2802
vn 0.8452 -0.5318 0.0524
vn 0.2619 -0.9605 0.0946
vn 0.8452 -0.5318 -0.0524
vn 0.2619 -0.9605 -0.0946
vn 0.8452 -0.5114 -0.1551
vn 0.2619 -0.9235 -0.2802
vn 0.8452 -0.4713 -0.2519
vn 0.2619 -0.8511 -0.4549
vn 0.8452 -0.4131 -0.3390
vn 0.2619 -0.7460 -0.6123
vn 0.8452 -0.3390 -0.4131
vn 0.2619 -0.6123 -0.7460
vn 0.8452 -0.2519 -0.4713
vn 0.2619 -0.4549 -0.8511
vn 0.8452 -0.1551 -0.5114
vn 0.2619 -0.2802 -0.9235
vn -0.8452 -0.0524 -0.5318
vn -0.2619 -0.0946 -0.9605
vn -0.8452 -0.1551 -0.5114
vn -0.2619 -0.2802 -0.9235
vn -0.8452 -0.2519 -0.4713
vn -0.2619 -0.4549 -0.8511
vn -0.8452 -0.3390 -0.4131
vn -0.2619 -0.6123 -0.7460
vn -0.8452 -0.4131 -0.3390
vn -0.2619 -0.7460 -0.6123
vn -0.8452 -0.4713 -0.2519
vn -0.2619 -0.8511 -0.4549
vn -0.8452 -0.5114 -0.1551
vn -0.2619 -0.9235 -0.2802
vn -0.8452 -0.5318 -0.0524
vn -0.2619 -0.9605 -0.0946
vn -0.8452 -0.5318 0.0524
vn -0.2619 -0.9605 0.0946
vn -0.8452 -0.5114 0.1551
vn -0.2619 -0.9235 0.2802
vn -0.8452 -0.4713 0.2519
vn -0.2619 -0.8511 0.4549
vn -0.8452 -0.4131 0.3390
vn -0.2619 -0.7460 0.6123
vn -0.8452 -0.3390 0.4131
vn -0.2619 -0.6123 0.7460
vn -0.8452 -0.2519 0.4713
vn -0.2619 -0.4549 0.8511
vn -0.8452 -0.1551 0.5114
vn -0.2619 -0.2802 0.9235
vn -0.8452 -0.0524 0.5318
vn -0.2619 -0.0946 0.9605
vn -0.8452 0.0524 0.5318
vn -0.2619 0.0946 0.9605
vn -0.8452 0.1551 0.5114
vn -0.2619 0.2802 0.9235
vn -0.8452 0.2519 0.4713
vn -0.2619 0.4549 0.8511
vn -0.8452 0.3390 0.4131
vn -0.2619 0.6123 0.7460
vn -0.8452 0.4131 0.3390
vn -0.2619 0.7460 0.6123
vn -0.8452 0.4713 0.2519
vn -0.2619 0.8511 0.4549
vn -0.8452 0.5114 0.1551
vn -0.2619 0.9235 0.2802
vn -0.8452 0.5318 0.0524
vn -0.2619 0.9605 0.0946
vn -0.8452 0.5318 -0.0524
vn -0.2619 0.9605 -0.0946
vn -0.8452 0.5114 -0.1551
vn -0.2619 0.9235 -0.2802
vn -0.8452 0.4713 -0.2519
vn -0.2619 0.8511 -0.4549
vn -0.8452 0.4131 -0.3390
vn -0.2619 0.7460 -0.6123
vn -0.8452 0.3390 -0.4131
vn -0.2619 0.6123 -0.7460
vn -0.8452 0.2519 -0.4713
vn -0.2619 0.4549 -0.8511
vn -0.8452 0.1551 -0.5114
vn -0.2619 0.2802 -0.9235
vn -0.8452 0.0524 -0.5318
vn -0.2619 0.0946 -0.9605
vn 1.0000 -0.0000 -0.0000
vn -1.0000 -0.0000 -0.0000
usemtl Pomo
f 9/15/7 10/16/7 11/17/7 12/18/7
f 12/18/8 11/17/8 13/19/8 14/20/8
f 14/20/9 13/19/9 15/21/9 16/22/9
f 16/22/10 15/21/10 17/23/10 18/24/10
f 18/24/11 17/23/11 19/25/11 20/26/11
f 20/26/12 19/25/12 21/27/12 22/28/12
f 22/28/13 21/27/13 23/29/13 24/30/13
f 24/30/14 23/29/14 25/31/14 26/32/14
f 26/32/15 25/31/15 27/33/15 28/34/15
f 28/34/16 27/33/16 29/35/16 30/36/16
f 30/36/17 29/35/17 31/37/17 32/38/17
f 32/38/18 31/37/18 33/39/18 34/40/18
f 34/40/19 33/39/19 35/41/19 36/42/19
f 36/42/20 35/41/20 37/43/20 38/44/20
f 38/44/21 37/43/21 39/45/21 40/46/21
f 40/46/22 39/45/22 41/47/22 42/48/22
f 42/48/23 41/47/23 43/49/23 44/50/23
f 44/50/24 43/49/24 45/51/24 46/52/24
f 46/52/25 45/51/25 47/53/25 48/54/25
f 48/54/26 47/53/26 49/55/26 50/56/26
f 50/56/27 49/55/27 51/57/27 52/58/27
f 52/58/28 51/57/28 53/59/28 54/60/28
f 54/60/29 53/59/29 55/61/29 56/62/29
f 56/62/30 55/61/30 57/63/30 58/64/30
f 58/64/31 57/63/31 59/65/31 60/66/31
f 60/66/32 59/65/32 61/67/32 62/68/32
f 62/68/33 61/67/33 63/69/33 64/70/33
f 64/70/34 63/69/34 65/71/34 66/72/34
f 66/72/35 65/71/35 67/73/35 68/74/35
f 68/74/36 67/73/36 69/75/36 70/76/36
f 70/76/37 69/75/37 71/77/37 72/78/37
f 72/78/38 71/77/38 10/79/38 9/80/38
f 73/81/39 74/82/39 75/83/39 76/84/39
f 74/82/40 72/78/40 9/80/40 75/83/40
f 77/85/41 78/86/41 74/82/41 73/81/41
f 78/86/42 70/76/42 72/78/42 74/82/42
f 79/87/43 80/88/43 78/86/43 77/85/43
f 80/88/44 68/74/44 70/76/44 78/86/44
f 81/89/45 82/90/45 80/88/45 79/87/45
f 82/90/46 66/72/46 68/74/46 80/88/46
f 83/91/47 84/92/47 82/90/47 81/89/47
f 84/92/48 64/70/48 66/72/48 82/90/48
f 85/93/49 86/94/49 84/92/49 83/91/49
f 86/94/50 62/68/50 64/70/50 84/92/50
f 87/95/51 88/96/51 86/94/51 85/93/51
f 88/96/52 60/66/52 62/68/52 86/94/52
f 89/97/53 90/98/53 88/96/53 87/95/53
f 90/98/54 58/64/54 60/66/54 88/96/54
f 91/99/55 92/100/55 90/98/55 89/97/55
f 92/100/56 56/62/56 58/64/56 90/98/56
f 93/101/57 94/102/57 92/100/57 91/99/57
f 94/102/58 54/60/58 56/62/58 92/100/58
f 95/103/59 96/104/59 94/102/59 93/101/59
f 96/104/60 52/58/60 54/60/60 94/102/60
f 97/105/61 98/106/61 96/104/61 95/103/61
f 98/106/62 50/56/62 52/58/62 96/104/62
f 99/107/63 100/108/63 98/106/63 97/105/63
f 100/108/64 48/54/64 50/56/64 98/106/64
f 101/109/65 102/110/65 100/108/65 99/107/65
f 102/110/66 46/52/66 48/54/66 100/108/66
f 103/111/67 104/112/67 102/110/67 101/109/67
f 104/112/68 44/50/68 46/52/68 102/110/68
f 105/113/69 106/114/69 104/112/69 103/111/69
f 106/114/70 42/48/70 44/50/70 104/112/70
f 107/115/71 108/116/71 106/114/71 105/113/71
f 108/116/72 40/46/72 42/48/72 106/114/72
f 109/117/73 110/118/73 108/116/73 107/115/73
f 110/118/74 38/44/74 40/46/74 108/116/74
f 111/119/75 112/120/75 110/118/75 109/117/75
f 112/120/76 36/42/76 38/44/76 110/118/76
f 113/121/77 114/122/77 112/120/77 111/119/77
f 114/122/78 34/40/78 36/42/78 112/120/78
f 115/123/79 116/124/79 114/122/79 113/121/79
f 116/124/80 32/38/80 34/40/80 114/122/80
f 117/125/81 118/126/81 116/124/81 115/123/81
f 118/126/82 30/36/82 32/38/82 116/124/82
f 119/127/83 120/128/83 118/126/83 117/125/83
f 120/128/84 28/34/84 30/36/84 118/126/84
f 121/129/85 122/130/85 120/128/85 119/127/85
f 122/130/86 26/32/86 28/34/86 120/128/86
f 123/131/87 124/132/87 122/130/87 121/129/87
f 124/132/88 24/30/88 26/32/88 122/130/88
f 125/133/89 126/134/89 124/132/89 123/131/89
f 126/134/90 22/28/90 24/30/90 124/132/90
f 127/135/91 128/136/91 126/134/91 125/133/91
f 128/136/92 20/26/92 22/28/92 126/134/92
f 129/137/93 130/138/93 128/136/93 127/135/93
f 130/138/94 18/24/94 20/26/94 128/136/94
f 131/139/95 132/140/95 130/138/95 129/137/95
f 132/140/96 16/22/96 18/24/96 130/138/96
f 133/141/97 134/142/97 132/140/97 131/139/97
f 134/142/98 14/20/98 16/22/98 132/140/98
f 135/143/99 136/144/99 134/142/99 133/141/99
f 136/144/100 12/18/100 14/20/100 134/142/100
f 76/145/101 75/146/101 136/144/101 135/143/101
f 75/146/102 9/15/102 12/18/102 136/144/102
f 10/147/102 137/147/102 138/148/102 11/148/102
f 71/149/40 139/149/40 137/147/40 10/147/40
f 69/150/42 140/150/42 139/149/42 71/149/42
f 67/151/44 141/151/44 140/150/44 69/150/44
f 65/152/46 142/152/46 141/151/46 67/151/46
f 63/153/48 143/153/48 142/152/48 65/152/48
f 61/154/50 144/154/50 143/153/50 63/153/50
f 59/155/52 145/155/52 144/154/52 61/154/52
f 57/156/54 146/156/54 145/155/54 59/155/54
f 55/157/56 147/157/56 146/156/56 57/156/56
f 53/158/58 148/158/58 147/157/58 55/157/58
f 51/159/60 149/159/60 148/158/60 53/158/60
f 49/160/62 150/160/62 149/159/62 51/159/62
f 47/161/64 151/161/64 150/160/64 49/160/64
f 45/162/66 152/162/66 151/161/66 47/161/66
f 43/163/68 153/163/68 152/162/68 45/162/68
f 41/164/70 154/164/70 153/163/70 43/163/70
f 39/165/72 155/165/72 154/164/72 41/164/72
f 37/166/74 156/166/74 155/165/74 39/165/74
f 35/167/76 157/167/76 156/166/76 37/166/76
f 33/168/78 158/168/78 157/167/78 35/167/78
f 31/169/80 159/169/80 158/168/80 33/168/80
f 29/170/82 160/170/82 159/169/82 31/169/82
f 27/171/84 161/171/84 160/170/84 29/170/84
f 25/172/86 162/172/86 161/171/86 27/171/86
f 23/173/88 163/173/88 162/172/88 25/172/88
f 21/174/90 164/174/90 163/173/90 23/173/90
f 19/175/92 165/175/92 164/174/92 21/174/92
f 17/176/94 166/176/94 165/175/94 19/175/94
f 15/177/96 167/177/96 166/176/96 17/176/96
f 13/178/98 168/178/98 167/177/98 15/177/98
f 11/148/100 138/148/100 168/178/100 13/178/100
f 135/179/102 169/179/102 170/180/102 76/180/102
f 133/181/100 171/181/100 169/179/100 135/179/100
f 131/182/98 172/182/98 171/181/98 133/181/98
f 129/183/96 173/183/96 172/182/96 131/182/96
f 127/184/94 174/184/94 173/183/94 129/183/94
f 125/185/92 175/185/92 174/184/92 127/184/92
f 123/186/90 176/186/90 175/185/90 125/185/90
f 121/187/88 177/187/88 176/186/88 123/186/88
f 119/188/86 178/188/86 177/187/86 121/187/86
f 117/189/84 179/189/84 178/188/84 119/188/84
f 115/190/82 180/190/82 179/189/82 117/189/82
f 113/191/80 181/191/80 180/190/80 115/190/80
f 111/192/78 182/192/78 181/191/78 113/191/78
f 109/193/76 183/193/76 182/192/76 111/192/76
f 107/194/74 184/194/74 183/193/74 109/193/74
f 105/195/72 185/195/72 184/194/72 107/194/72
f 103/196/70 186/196/70 185/195/70 105/195/70
f 101/197/68 187/197/68 186/196/68 103/196/68
f 99/198/66 188/198/66 187/197/66 101/197/66
f 97/199/64 189/199/64 188/198/64 99/198/64
f 95/200/62 190/200/62 189/199/62 97/199/62
f 93/201/60 191/201/60 190/200/60 95/200/60
f 91/202/58 192/202/58 191/201/58 93/201/58
f 89/203/56 193/203/56 192/202/56 91/202/56
f 87/204/54 194/204/54 193/203/54 89/203/54
f 85/205/52 195/205/52 194/204/52 87/204/52
f 83/206/50 196/206/50 195/205/50 85/205/50
f 81/207/48 197/207/48 196/206/48 83/206/48
f 79/208/46 198/208/46 197/207/46 81/207/46
f 77/209/44 199/209/44 198/208/44 79/208/44
f 73/210/42 200/210/42 199/209/42 77/209/42
f 76/180/40 170/180/40 200/210/40 73/210/40
f 201/211/103 202/212/103 203/213/103 204/214/103
f 204/214/104 203/213/104 205/148/104 206/147/104
f 207/215/105 201/211/105 204/214/105 208/216/105
f 208/216/106 204/214/106 206/147/106 209/149/106
f 210/217/107 207/215/107 208/216/107 211/218/107
f 211/218/108 208/216/108 209/149/108 212/150/108
f 213/219/109 210/217/109 211/218/109 214/220/109
f 214/220/110 211/218/110 212/150/110 215/151/110
f 216/221/111 213/219/111 214/220/111 217/222/111
f 217/222/112 214/220/112 215/151/112 218/152/112
f 219/223/113 216/221/113 217/222/113 220/224/113
f 220/224/114 217/222/114 218/152/114 221/153/114
f 222/225/115 219/223/115 220/224/115 223/226/115
f 223/226/116 220/224/116 221/153/116 224/154/116
f 225/227/117 222/225/117 223/226/117 226/228/117
f 226/228/118 223/226/118 224/154/118 227/155/118
f 228/229/119 225/227/119 226/228/119 229/230/119
f 229/230/120 226/228/120 227/155/120 230/156/120
f 231/231/121 228/229/121 229/230/121 232/232/121
f 232/232/122 229/230/122 230/156/122 233/157/122
f 234/233/123 231/231/123 232/232/123 235/234/123
f 235/234/124 232/232/124 233/157/124 236/158/124
f 237/235/125 234/233/125 235/234/125 238/236/125
f 238/236/126 235/234/126 236/158/126 239/237/126
f 240/238/127 237/235/127 238/236/127 241/239/127
f 241/239/128 238/236/128 239/237/128 242/160/128
f 243/240/129 240/238/129 241/239/129 244/241/129
f 244/241/130 241/239/130 242/160/130 245/161/130
f 246/242/131 243/240/131 244/241/131 247/243/131
f 247/243/132 244/241/132 245/161/132 248/162/132
f 249/244/133 246/242/133 247/243/133 250/245/133
f 250/245/134 247/243/134 248/162/134 251/163/134
f 252/246/135 249/244/135 250/245/135 253/247/135
f 253/247/136 250/245/136 251/163/136 254/164/136
f 255/248/137 252/246/137 253/247/137 256/249/137
f 256/249/138 253/247/138 254/164/138 257/165/138
f 258/250/139 255/248/139 256/249/139 259/251/139
f 259/251/140 256/249/140 257/165/140 260/166/140
f 261/252/141 258/250/141 259/251/141 262/253/141
f 262/253/142 259/251/142 260/166/142 263/254/142
f 264/255/143 261/252/143 262/253/143 265/256/143
f 265/256/144 262/253/144 263/254/144 266/168/144
f 267/257/145 264/255/145 265/256/145 268/258/145
f 268/258/146 265/256/146 266/168/146 269/169/146
f 270/259/147 267/257/147 268/258/147 271/260/147
f 271/260/148 268/258/148 269/169/148 272/170/148
f 273/261/149 270/259/149 271/260/149 274/262/149
f 274/262/150 271/260/150 272/170/150 275/171/150
f 276/263/151 273/261/151 274/262/151 277/264/151
f 277/264/152 274/262/152 275/171/152 278/172/152
f 279/265/153 276/263/153 277/264/153 280/266/153
f 280/266/154 277/264/154 278/172/154 281/173/154
f 282/267/155 279/265/155 280/266/155 283/268/155
f 283/268/156 280/266/156 281/173/156 284/174/156
f 285/269/157 282/267/157 283/268/157 286/270/157
f 286/270/158 283/268/158 284/174/158 287/175/158
f 288/271/159 285/269/159 286/270/159 289/272/159
f 289/272/160 286/270/160 287/175/160 290/176/160
f 291/273/161 288/271/161 289/272/161 292/274/161
f 292/274/162 289/272/162 290/176/162 293/177/162
f 294/275/163 291/273/163 292/274/163 295/276/163
f 295/276/164 292/274/164 293/177/164 296/178/164
f 202/212/165 294/275/165 295/276/165 203/213/165
f 203/213/166 295/276/166 296/178/166 205/148/166
f 297/277/167 298/278/167 299/279/167 300/280/167
f 300/280/168 299/279/168 301/180/168 302/281/168
f 303/282/169 297/277/169 300/280/169 304/283/169
f 304/283/170 300/280/170 302/281/170 305/284/170
f 306/285/171 303/282/171 304/283/171 307/286/171
f 307/286/172 304/283/172 305/284/172 308/287/172
f 309/288/173 306/285/173 307/286/173 310/289/173
f 310/289/174 307/286/174 308/287/174 311/183/174
f 312/290/175 309/288/175 310/289/175 313/291/175
f 313/291/176 310/289/176 311/183/176 314/292/176
f 315/293/177 312/290/177 313/291/177 316/294/177
f 316/294/178 313/291/178 314/292/178 317/185/178
f 318/295/179 315/293/179 316/294/179 319/296/179
f 319/296/180 316/294/180 317/185/180 320/186/180
f 321/297/181 318/295/181 319/296/181 322/298/181
f 322/298/182 319/296/182 320/186/182 323/299/182
f 324/300/183 321/297/183 322/298/183 325/301/183
f 325/301/184 322/298/184 323/299/184 326/302/184
f 327/303/185 324/300/185 325/301/185 328/304/185
f 328/304/186 325/301/186 326/302/186 329/189/186
f 330/305/187 327/303/187 328/304/187 331/306/187
f 331/306/188 328/304/188 329/189/188 332/307/188
f 333/308/189 330/305/189 331/306/189 334/309/189
f 334/309/190 331/306/190 332/307/190 335/191/190
f 336/310/191 333/308/191 334/309/191 337/311/191
f 337/311/192 334/309/192 335/191/192 338/312/192
f 339/313/193 336/310/193 337/311/193 340/314/193
f 340/314/194 337/311/194 338/312/194 341/315/194
f 342/316/195 339/313/195 340/314/195 343/317/195
f 343/317/196 340/314/196 341/315/196 344/318/196
f 345/319/197 342/316/197 343/317/197 346/320/197
f 346/320/198 343/317/198 344/318/198 347/195/198
f 348/321/199 345/319/199 346/320/199 349/322/199
f 349/322/200 346/320/200 347/195/200 350/323/200
f 351/324/201 348/321/201 349/322/201 352/325/201
f 352/325/202 349/322/202 350/323/202 353/326/202
f 354/327/203 351/324/203 352/325/203 355/328/203
f 355/328/204 352/325/204 353/326/204 356/329/204
f 357/330/205 354/327/205 355/328/205 358/331/205
f 358/331/206 355/328/206 356/329/206 359/199/206
f 360/332/207 357/330/207 358/331/207 361/333/207
f 361/333/208 358/331/208 359/199/208 362/200/208
f 363/334/209 360/332/209 361/333/209 364/335/209
f 364/335/210 361/333/210 362/200/210 365/201/210
f 366/336/211 363/334/211 364/335/211 367/337/211
f 367/337/212 364/335/212 365/201/212 368/202/212
f 369/338/213 366/336/213 367/337/213 370/339/213
f 370/339/214 367/337/214 368/202/214 371/203/214
f 372/340/215 369/338/215 370/339/215 373/341/215
f 373/341/216 370/339/216 371/203/216 374/204/216
f 375/342/217 372/340/217 373/341/217 376/343/217
f 376/343/218 373/341/218 374/204/218 377/205/218
f 378/344/219 375/342/219 376/343/219 379/345/219
f 379/345/220 376/343/220 377/205/220 380/206/220
f 381/346/221 378/344/221 379/345/221 382/347/221
f 382/347/222 379/345/222 380/206/222 383/207/222
f 384/348/223 381/346/223 382/347/223 385/349/223
f 385/349/224 382/347/224 383/207/224 386/208/224
f 387/350/225 384/348/225 385/349/225 388/351/225
f 388/351/226 385/349/226 386/208/226 389/352/226
f 390/353/227 387/350/227 388/351/227 391/354/227
f 391/354/228 388/351/228 389/352/228 392/355/228
f 298/278/229 390/353/229 391/354/229 299/279/229
f 299/279/230 391/354/230 392/355/230 301/180/230
f 202/212/231 201/211/231 207/215/231 210/217/231 213/219/231 216/221/231 219/223/231 222/225/231 225/227/231 228/229/231 231/231/231 234/233/231 237/235/231 240/238/231 243/240/231 246/242/231 249/244/231 252/246/231 255/248/231 258/250/231 261/252/231 264/255/231 267/257/231 270/259/231 273/261/231 276/263/231 279/265/231 282/267/231 285/269/231 288/271/231 291/273/231 294/275/231
f 138/148/100 205/148/100 296/178/100 168/178/100
f 137/147/102 206/147/102 205/148/102 138/148/102
f 139/149/40 209/149/40 206/147/40 137/147/40
f 140/150/42 212/150/42 209/149/42 139/149/42
f 141/151/44 215/151/44 212/150/44 140/150/44
f 142/152/46 218/152/46 215/151/46 141/151/46
f 143/153/48 221/153/48 218/152/48 142/152/48
f 144/154/50 224/154/50 221/153/50 143/153/50
f 145/155/52 227/155/52 224/154/52 144/154/52
f 146/156/54 230/156/54 227/155/54 145/155/54
f 147/157/56 233/157/56 230/156/56 146/156/56
f 148/158/58 236/158/58 233/157/58 147/157/58
f 149/159/60 239/237/60 236/158/60 148/158/60
f 150/160/62 242/160/62 239/237/62 149/159/62
f 151/161/64 245/161/64 242/160/64 150/160/64
f 152/162/66 248/162/66 245/161/66 151/161/66
f 153/163/68 251/163/68 248/162/68 152/162/68
f 154/164/70 254/164/70 251/163/70 153/163/70
f 155/165/72 257/165/72 254/164/72 154/164/72
f 156/166/74 260/166/74 257/165/74 155/165/74
f 157/167/76 263/254/76 260/166/76 156/166/76
f 158/168/78 266/168/78 263/254/78 157/167/78
f 159/169/80 269/169/80 266/168/80 158/168/80
f 160/170/82 272/170/82 269/169/82 159/169/82
f 161/171/84 275/171/84 272/170/84 160/170/84
f 162/172/86 278/172/86 275/171/86 161/171/86
f 163/173/88 281/173/88 278/172/88 162/172/88
f 164/174/90 284/174/90 281/173/90 163/173/90
f 165/175/92 287/175/92 284/174/92 164/174/92
f 166/176/94 290/176/94 287/175/94 165/175/94
f 167/177/96 293/177/96 290/176/96 166/176/96
f 168/178/98 296/178/98 293/177/98 167/177/98
f 169/179/102 302/281/102 301/180/102 170/180/102
f 298/278/232 297/277/232 303/282/232 306/285/232 309/288/232 312/290/232 315/293/232 318/295/232 321/297/232 324/300/232 327/303/232 330/305/232 333/308/232 336/310/232 339/313/232 342/316/232 345/319/232 348/321/232 351/324/232 354/327/232 357/330/232 360/332/232 363/334/232 366/336/232 369/338/232 372/340/232 375/342/232 378/344/232 381/346/232 384/348/232 387/350/232 390/353/232
f 170/180/40 301/180/40 392/355/40 200/210/40
f 171/181/100 305/284/100 302/281/100 169/179/100
f 172/182/98 308/287/98 305/284/98 171/181/98
f 173/183/96 311/183/96 308/287/96 172/182/96
f 174/184/94 314/292/94 311/183/94 173/183/94
f 175/185/92 317/185/92 314/292/92 174/184/92
f 176/186/90 320/186/90 317/185/90 175/185/90
f 177/187/88 323/299/88 320/186/88 176/186/88
f 178/188/86 326/302/86 323/299/86 177/187/86
f 179/189/84 329/189/84 326/302/84 178/188/84
f 180/190/82 332/307/82 329/189/82 179/189/82
f 181/191/80 335/191/80 332/307/80 180/190/80
f 182/192/78 338/312/78 335/191/78 181/191/78
f 183/193/76 341/315/76 338/312/76 182/192/76
f 184/194/74 344/318/74 341/315/74 183/193/74
f 185/195/72 347/195/72 344/318/72 184/194/72
f 186/196/70 350/323/70 347/195/70 185/195/70
f 187/197/68 353/326/68 350/323/68 186/196/68
f 188/198/66 356/329/66 353/326/66 187/197/66
f 189/199/64 359/199/64 356/329/64 188/198/64
f 190/200/62 362/200/62 359/199/62 189/199/62
f 191/201/60 365/201/60 362/200/60 190/200/60
f 192/202/58 368/202/58 365/201/58 191/201/58
f 193/203/56 371/203/56 368/202/56 192/202/56
f 194/204/54 374/204/54 371/203/54 193/203/54
f 195/205/52 377/205/52 374/204/52 194/204/52
f 196/206/50 380/206/50 377/205/50 195/205/50
f 197/207/48 383/207/48 380/206/48 196/206/48
f 198/208/46 386/208/46 383/207/46 197/207/46
f 199/209/44 389/352/44 386/208/44 198/208/44
f 200/210/42 392/355/42 389/352/42 199/209/42
usemtl Puerta
f 1/1/1 2/2/1 3/3/1 4/4/1
f 2/2/2 5/5/2 6/6/2 3/3/2
f 5/5/3 7/7/3 8/8/3 6/6/3
f 7/7/4 1/9/4 4/10/4 8/8/4
f 2/11/5 1/12/5 7/7/5 5/5/5
f 6/6/6 8/8/6 4/13/6 3/14/6
