# generated by generate_sign.py
mtllib sign.mtl
o sign
usemtl sign
v -0.0700 0.0000 0.0700
v 0.0700 0.0000 0.0700
v 0.0700 1.2500 0.0700
v -0.0700 1.2500 0.0700
vt 0.75000 0.00000
vt 1.00000 0.00000
vt 1.00000 1.00000
vt 0.75000 1.00000
vn 0 0 1
f 1/1/1 2/2/1 3/3/1
f 1/1/1 3/3/1 4/4/1
v 0.0700 0.0000 -0.0700
v -0.0700 0.0000 -0.0700
v -0.0700 1.2500 -0.0700
v 0.0700 1.2500 -0.0700
vt 0.75000 0.00000
vt 1.00000 0.00000
vt 1.00000 1.00000
vt 0.75000 1.00000
vn 0 0 -1
f 5/5/2 6/6/2 7/7/2
f 5/5/2 7/7/2 8/8/2
v 0.0700 0.0000 0.0700
v 0.0700 0.0000 -0.0700
v 0.0700 1.2500 -0.0700
v 0.0700 1.2500 0.0700
vt 0.75000 0.00000
vt 1.00000 0.00000
vt 1.00000 1.00000
vt 0.75000 1.00000
vn 1 0 0
f 9/9/3 10/10/3 11/11/3
f 9/9/3 11/11/3 12/12/3
v -0.0700 0.0000 -0.0700
v -0.0700 0.0000 0.0700
v -0.0700 1.2500 0.0700
v -0.0700 1.2500 -0.0700
vt 0.75000 0.00000
vt 1.00000 0.00000
vt 1.00000 1.00000
vt 0.75000 1.00000
vn -1 0 0
f 13/13/4 14/14/4 15/15/4
f 13/13/4 15/15/4 16/16/4
v -0.0700 1.2500 0.0700
v 0.0700 1.2500 0.0700
v 0.0700 1.2500 -0.0700
v -0.0700 1.2500 -0.0700
vt 0.75000 0.00000
vt 1.00000 0.00000
vt 1.00000 1.00000
vt 0.75000 1.00000
vn 0 1 0
f 17/17/5 18/18/5 19/19/5
f 17/17/5 19/19/5 20/20/5
v -0.0700 0.0000 -0.0700
v 0.0700 0.0000 -0.0700
v 0.0700 0.0000 0.0700
v -0.0700 0.0000 0.0700
vt 0.75000 0.00000
vt 1.00000 0.00000
vt 1.00000 1.00000
vt 0.75000 1.00000
vn 0 -1 0
f 21/21/6 22/22/6 23/23/6
f 21/21/6 23/23/6 24/24/6
v -0.6000 0.9200 0.1300
v 0.6000 0.9200 0.1300
v 0.6000 1.6800 0.1300
v -0.6000 1.6800 0.1300
vt 0.00000 0.00000
vt 0.75000 0.00000
vt 0.75000 1.00000
vt 0.00000 1.00000
vn 0 0 1
f 25/25/7 26/26/7 27/27/7
f 25/25/7 27/27/7 28/28/7
v 0.6000 0.9200 0.0700
v -0.6000 0.9200 0.0700
v -0.6000 1.6800 0.0700
v 0.6000 1.6800 0.0700
vt 0.75000 0.00000
vt 1.00000 0.00000
vt 1.00000 1.00000
vt 0.75000 1.00000
vn 0 0 -1
f 29/29/8 30/30/8 31/31/8
f 29/29/8 31/31/8 32/32/8
v 0.6000 0.9200 0.1300
v 0.6000 0.9200 0.0700
v 0.6000 1.6800 0.0700
v 0.6000 1.6800 0.1300
vt 0.75000 0.00000
vt 1.00000 0.00000
vt 1.00000 1.00000
vt 0.75000 1.00000
vn 1 0 0
f 33/33/9 34/34/9 35/35/9
f 33/33/9 35/35/9 36/36/9
v -0.6000 0.9200 0.0700
v -0.6000 0.9200 0.1300
v -0.6000 1.6800 0.1300
v -0.6000 1.6800 0.0700
vt 0.75000 0.00000
vt 1.00000 0.00000
vt 1.00000 1.00000
vt 0.75000 1.00000
vn -1 0 0
f 37/37/10 38/38/10 39/39/10
f 37/37/10 39/39/10 40/40/10
v -0.6000 1.6800 0.1300
v 0.6000 1.6800 0.1300
v 0.6000 1.6800 0.0700
v -0.6000 1.6800 0.0700
vt 0.75000 0.00000
vt 1.00000 0.00000
vt 1.00000 1.00000
vt 0.75000 1.00000
vn 0 1 0
f 41/41/11 42/42/11 43/43/11
f 41/41/11 43/43/11 44/44/11
v -0.6000 0.9200 0.0700
v 0.6000 0.9200 0.0700
v 0.6000 0.9200 0.1300
v -0.6000 0.9200 0.1300
vt 0.75000 0.00000
vt 1.00000 0.00000
vt 1.00000 1.00000
vt 0.75000 1.00000
vn 0 -1 0
f 45/45/12 46/46/12 47/47/12
f 45/45/12 47/47/12 48/48/12
