# generated by generate_beer_can.py
mtllib beer_can.mtl
o beer_can
g part0
usemtl alu
v 0.00000 -0.06375 0.00000
v 0.02558 -0.07125 0.00000
v 0.02508 -0.07125 0.00499
v 0.02363 -0.07125 0.00979
v 0.02126 -0.07125 0.01421
v 0.01808 -0.07125 0.01808
v 0.01421 -0.07125 0.02126
v 0.00979 -0.07125 0.02363
v 0.00499 -0.07125 0.02508
v 0.00000 -0.07125 0.02558
v -0.00499 -0.07125 0.02508
v -0.00979 -0.07125 0.02363
v -0.01421 -0.07125 0.02126
v -0.01808 -0.07125 0.01808
v -0.02126 -0.07125 0.01421
v -0.02363 -0.07125 0.00979
v -0.02508 -0.07125 0.00499
v -0.02558 -0.07125 0.00000
v -0.02508 -0.07125 -0.00499
v -0.02363 -0.07125 -0.00979
v -0.02126 -0.07125 -0.01421
v -0.01808 -0.07125 -0.01808
v -0.01421 -0.07125 -0.02126
v -0.00979 -0.07125 -0.02363
v -0.00499 -0.07125 -0.02508
v -0.00000 -0.07125 -0.02558
v 0.00499 -0.07125 -0.02508
v 0.00979 -0.07125 -0.02363
v 0.01421 -0.07125 -0.02126
v 0.01808 -0.07125 -0.01808
v 0.02126 -0.07125 -0.01421
v 0.02363 -0.07125 -0.00979
v 0.02508 -0.07125 -0.00499
v 0.03300 -0.07625 0.00000
v 0.03237 -0.07625 0.00644
v 0.03049 -0.07625 0.01263
v 0.02744 -0.07625 0.01833
v 0.02333 -0.07625 0.02333
v 0.01833 -0.07625 0.02744
v 0.01263 -0.07625 0.03049
v 0.00644 -0.07625 0.03237
v 0.00000 -0.07625 0.03300
v -0.00644 -0.07625 0.03237
v -0.01263 -0.07625 0.03049
v -0.01833 -0.07625 0.02744
v -0.02333 -0.07625 0.02333
v -0.02744 -0.07625 0.01833
v -0.03049 -0.07625 0.01263
v -0.03237 -0.07625 0.00644
v -0.03300 -0.07625 0.00000
v -0.03237 -0.07625 -0.00644
v -0.03049 -0.07625 -0.01263
v -0.02744 -0.07625 -0.01833
v -0.02333 -0.07625 -0.02333
v -0.01833 -0.07625 -0.02744
v -0.01263 -0.07625 -0.03049
v -0.00644 -0.07625 -0.03237
v -0.00000 -0.07625 -0.03300
v 0.00644 -0.07625 -0.03237
v 0.01263 -0.07625 -0.03049
v 0.01833 -0.07625 -0.02744
v 0.02333 -0.07625 -0.02333
v 0.02744 -0.07625 -0.01833
v 0.03049 -0.07625 -0.01263
v 0.03237 -0.07625 -0.00644
v 0.03836 -0.07125 0.00000
v 0.03763 -0.07125 0.00748
v 0.03544 -0.07125 0.01468
v 0.03190 -0.07125 0.02131
v 0.02713 -0.07125 0.02713
v 0.02131 -0.07125 0.03190
v 0.01468 -0.07125 0.03544
v 0.00748 -0.07125 0.03763
v 0.00000 -0.07125 0.03836
v -0.00748 -0.07125 0.03763
v -0.01468 -0.07125 0.03544
v -0.02131 -0.07125 0.03190
v -0.02713 -0.07125 0.02713
v -0.03190 -0.07125 0.02131
v -0.03544 -0.07125 0.01468
v -0.03763 -0.07125 0.00748
v -0.03836 -0.07125 0.00000
v -0.03763 -0.07125 -0.00748
v -0.03544 -0.07125 -0.01468
v -0.03190 -0.07125 -0.02131
v -0.02713 -0.07125 -0.02713
v -0.02131 -0.07125 -0.03190
v -0.01468 -0.07125 -0.03544
v -0.00748 -0.07125 -0.03763
v -0.00000 -0.07125 -0.03836
v 0.00748 -0.07125 -0.03763
v 0.01468 -0.07125 -0.03544
v 0.02131 -0.07125 -0.03190
v 0.02713 -0.07125 -0.02713
v 0.03190 -0.07125 -0.02131
v 0.03544 -0.07125 -0.01468
v 0.03763 -0.07125 -0.00748
v 0.04125 -0.06125 0.00000
v 0.04046 -0.06125 0.00805
v 0.03811 -0.06125 0.01579
v 0.03430 -0.06125 0.02292
v 0.02917 -0.06125 0.02917
v 0.02292 -0.06125 0.03430
v 0.01579 -0.06125 0.03811
v 0.00805 -0.06125 0.04046
v 0.00000 -0.06125 0.04125
v -0.00805 -0.06125 0.04046
v -0.01579 -0.06125 0.03811
v -0.02292 -0.06125 0.03430
v -0.02917 -0.06125 0.02917
v -0.03430 -0.06125 0.02292
v -0.03811 -0.06125 0.01579
v -0.04046 -0.06125 0.00805
v -0.04125 -0.06125 0.00000
v -0.04046 -0.06125 -0.00805
v -0.03811 -0.06125 -0.01579
v -0.03430 -0.06125 -0.02292
v -0.02917 -0.06125 -0.02917
v -0.02292 -0.06125 -0.03430
v -0.01579 -0.06125 -0.03811
v -0.00805 -0.06125 -0.04046
v -0.00000 -0.06125 -0.04125
v 0.00805 -0.06125 -0.04046
v 0.01579 -0.06125 -0.03811
v 0.02292 -0.06125 -0.03430
v 0.02917 -0.06125 -0.02917
v 0.03430 -0.06125 -0.02292
v 0.03811 -0.06125 -0.01579
v 0.04046 -0.06125 -0.00805
vn 0.0000 -1.0000 0.0000
vn -0.3542 -0.9352 -0.0000
vn -0.3474 -0.9352 -0.0691
vn -0.3273 -0.9352 -0.1356
vn -0.2945 -0.9352 -0.1968
vn -0.2505 -0.9352 -0.2505
vn -0.1968 -0.9352 -0.2945
vn -0.1356 -0.9352 -0.3273
vn -0.0691 -0.9352 -0.3474
vn -0.0000 -0.9352 -0.3542
vn 0.0691 -0.9352 -0.3474
vn 0.1356 -0.9352 -0.3273
vn 0.1968 -0.9352 -0.2945
vn 0.2505 -0.9352 -0.2505
vn 0.2945 -0.9352 -0.1968
vn 0.3273 -0.9352 -0.1356
vn 0.3474 -0.9352 -0.0691
vn 0.3542 -0.9352 -0.0000
vn 0.3474 -0.9352 0.0691
vn 0.3273 -0.9352 0.1356
vn 0.2945 -0.9352 0.1968
vn 0.2505 -0.9352 0.2505
vn 0.1968 -0.9352 0.2945
vn 0.1356 -0.9352 0.3273
vn 0.0691 -0.9352 0.3474
vn 0.0000 -0.9352 0.3542
vn -0.0691 -0.9352 0.3474
vn -0.1356 -0.9352 0.3273
vn -0.1968 -0.9352 0.2945
vn -0.2505 -0.9352 0.2505
vn -0.2945 -0.9352 0.1968
vn -0.3273 -0.9352 0.1356
vn -0.3474 -0.9352 0.0691
vn 0.0000 -1.0000 0.0000
vn 0.0000 -1.0000 0.0000
vn 0.0000 -1.0000 0.0000
vn 0.0000 -1.0000 0.0000
vn 0.0000 -1.0000 0.0000
vn 0.0000 -1.0000 0.0000
vn 0.0000 -1.0000 0.0000
vn 0.0000 -1.0000 0.0000
vn 0.0000 -1.0000 0.0000
vn -0.0000 -1.0000 0.0000
vn -0.0000 -1.0000 0.0000
vn -0.0000 -1.0000 0.0000
vn -0.0000 -1.0000 0.0000
vn -0.0000 -1.0000 0.0000
vn -0.0000 -1.0000 0.0000
vn -0.0000 -1.0000 0.0000
vn -0.0000 -1.0000 0.0000
vn -0.0000 -1.0000 -0.0000
vn -0.0000 -1.0000 -0.0000
vn -0.0000 -1.0000 -0.0000
vn -0.0000 -1.0000 -0.0000
vn -0.0000 -1.0000 -0.0000
vn -0.0000 -1.0000 -0.0000
vn -0.0000 -1.0000 -0.0000
vn -0.0000 -1.0000 -0.0000
vn 0.0000 -1.0000 -0.0000
vn 0.0000 -1.0000 -0.0000
vn 0.0000 -1.0000 -0.0000
vn 0.0000 -1.0000 -0.0000
vn 0.0000 -1.0000 -0.0000
vn 0.0000 -1.0000 -0.0000
vn 0.0000 -1.0000 -0.0000
vn 0.8762 -0.4819 0.0000
vn 0.8594 -0.4819 0.1709
vn 0.8095 -0.4819 0.3353
vn 0.7285 -0.4819 0.4868
vn 0.6196 -0.4819 0.6196
vn 0.4868 -0.4819 0.7285
vn 0.3353 -0.4819 0.8095
vn 0.1709 -0.4819 0.8594
vn 0.0000 -0.4819 0.8762
vn -0.1709 -0.4819 0.8594
vn -0.3353 -0.4819 0.8095
vn -0.4868 -0.4819 0.7285
vn -0.6196 -0.4819 0.6196
vn -0.7285 -0.4819 0.4868
vn -0.8095 -0.4819 0.3353
vn -0.8594 -0.4819 0.1709
vn -0.8762 -0.4819 0.0000
vn -0.8594 -0.4819 -0.1709
vn -0.8095 -0.4819 -0.3353
vn -0.7285 -0.4819 -0.4868
vn -0.6196 -0.4819 -0.6196
vn -0.4868 -0.4819 -0.7285
vn -0.3353 -0.4819 -0.8095
vn -0.1709 -0.4819 -0.8594
vn -0.0000 -0.4819 -0.8762
vn 0.1709 -0.4819 -0.8594
vn 0.3353 -0.4819 -0.8095
vn 0.4868 -0.4819 -0.7285
vn 0.6196 -0.4819 -0.6196
vn 0.7285 -0.4819 -0.4868
vn 0.8095 -0.4819 -0.3353
vn 0.8594 -0.4819 -0.1709
vn 0.9607 -0.2774 0.0000
vn 0.9423 -0.2774 0.1874
vn 0.8876 -0.2774 0.3677
vn 0.7988 -0.2774 0.5338
vn 0.6794 -0.2774 0.6794
vn 0.5338 -0.2774 0.7988
vn 0.3677 -0.2774 0.8876
vn 0.1874 -0.2774 0.9423
vn 0.0000 -0.2774 0.9607
vn -0.1874 -0.2774 0.9423
vn -0.3677 -0.2774 0.8876
vn -0.5338 -0.2774 0.7988
vn -0.6794 -0.2774 0.6794
vn -0.7988 -0.2774 0.5338
vn -0.8876 -0.2774 0.3677
vn -0.9423 -0.2774 0.1874
vn -0.9607 -0.2774 0.0000
vn -0.9423 -0.2774 -0.1874
vn -0.8876 -0.2774 -0.3677
vn -0.7988 -0.2774 -0.5338
vn -0.6794 -0.2774 -0.6794
vn -0.5338 -0.2774 -0.7988
vn -0.3677 -0.2774 -0.8876
vn -0.1874 -0.2774 -0.9423
vn -0.0000 -0.2774 -0.9607
vn 0.1874 -0.2774 -0.9423
vn 0.3677 -0.2774 -0.8876
vn 0.5338 -0.2774 -0.7988
vn 0.6794 -0.2774 -0.6794
vn 0.7988 -0.2774 -0.5338
vn 0.8876 -0.2774 -0.3677
vn 0.9423 -0.2774 -0.1874
f 2//2 3//3 1//1
f 3//3 4//4 1//1
f 4//4 5//5 1//1
f 5//5 6//6 1//1
f 6//6 7//7 1//1
f 7//7 8//8 1//1
f 8//8 9//9 1//1
f 9//9 10//10 1//1
f 10//10 11//11 1//1
f 11//11 12//12 1//1
f 12//12 13//13 1//1
f 13//13 14//14 1//1
f 14//14 15//15 1//1
f 15//15 16//16 1//1
f 16//16 17//17 1//1
f 17//17 18//18 1//1
f 18//18 19//19 1//1
f 19//19 20//20 1//1
f 20//20 21//21 1//1
f 21//21 22//22 1//1
f 22//22 23//23 1//1
f 23//23 24//24 1//1
f 24//24 25//25 1//1
f 25//25 26//26 1//1
f 26//26 27//27 1//1
f 27//27 28//28 1//1
f 28//28 29//29 1//1
f 29//29 30//30 1//1
f 30//30 31//31 1//1
f 31//31 32//32 1//1
f 32//32 33//33 1//1
f 33//33 2//2 1//1
f 34//34 35//35 3//3 2//2
f 35//35 36//36 4//4 3//3
f 36//36 37//37 5//5 4//4
f 37//37 38//38 6//6 5//5
f 38//38 39//39 7//7 6//6
f 39//39 40//40 8//8 7//7
f 40//40 41//41 9//9 8//8
f 41//41 42//42 10//10 9//9
f 42//42 43//43 11//11 10//10
f 43//43 44//44 12//12 11//11
f 44//44 45//45 13//13 12//12
f 45//45 46//46 14//14 13//13
f 46//46 47//47 15//15 14//14
f 47//47 48//48 16//16 15//15
f 48//48 49//49 17//17 16//16
f 49//49 50//50 18//18 17//17
f 50//50 51//51 19//19 18//18
f 51//51 52//52 20//20 19//19
f 52//52 53//53 21//21 20//20
f 53//53 54//54 22//22 21//21
f 54//54 55//55 23//23 22//22
f 55//55 56//56 24//24 23//23
f 56//56 57//57 25//25 24//24
f 57//57 58//58 26//26 25//25
f 58//58 59//59 27//27 26//26
f 59//59 60//60 28//28 27//27
f 60//60 61//61 29//29 28//28
f 61//61 62//62 30//30 29//29
f 62//62 63//63 31//31 30//30
f 63//63 64//64 32//32 31//31
f 64//64 65//65 33//33 32//32
f 65//65 34//34 2//2 33//33
f 66//66 67//67 35//35 34//34
f 67//67 68//68 36//36 35//35
f 68//68 69//69 37//37 36//36
f 69//69 70//70 38//38 37//37
f 70//70 71//71 39//39 38//38
f 71//71 72//72 40//40 39//39
f 72//72 73//73 41//41 40//40
f 73//73 74//74 42//42 41//41
f 74//74 75//75 43//43 42//42
f 75//75 76//76 44//44 43//43
f 76//76 77//77 45//45 44//44
f 77//77 78//78 46//46 45//45
f 78//78 79//79 47//47 46//46
f 79//79 80//80 48//48 47//47
f 80//80 81//81 49//49 48//48
f 81//81 82//82 50//50 49//49
f 82//82 83//83 51//51 50//50
f 83//83 84//84 52//52 51//51
f 84//84 85//85 53//53 52//52
f 85//85 86//86 54//54 53//53
f 86//86 87//87 55//55 54//54
f 87//87 88//88 56//56 55//55
f 88//88 89//89 57//57 56//56
f 89//89 90//90 58//58 57//57
f 90//90 91//91 59//59 58//58
f 91//91 92//92 60//60 59//59
f 92//92 93//93 61//61 60//60
f 93//93 94//94 62//62 61//61
f 94//94 95//95 63//63 62//62
f 95//95 96//96 64//64 63//63
f 96//96 97//97 65//65 64//64
f 97//97 66//66 34//34 65//65
f 98//98 99//99 67//67 66//66
f 99//99 100//100 68//68 67//67
f 100//100 101//101 69//69 68//68
f 101//101 102//102 70//70 69//69
f 102//102 103//103 71//71 70//70
f 103//103 104//104 72//72 71//71
f 104//104 105//105 73//73 72//72
f 105//105 106//106 74//74 73//73
f 106//106 107//107 75//75 74//74
f 107//107 108//108 76//76 75//75
f 108//108 109//109 77//77 76//76
f 109//109 110//110 78//78 77//77
f 110//110 111//111 79//79 78//78
f 111//111 112//112 80//80 79//79
f 112//112 113//113 81//81 80//80
f 113//113 114//114 82//82 81//81
f 114//114 115//115 83//83 82//82
f 115//115 116//116 84//84 83//83
f 116//116 117//117 85//85 84//84
f 117//117 118//118 86//86 85//85
f 118//118 119//119 87//87 86//86
f 119//119 120//120 88//88 87//87
f 120//120 121//121 89//89 88//88
f 121//121 122//122 90//90 89//89
f 122//122 123//123 91//91 90//90
f 123//123 124//124 92//92 91//91
f 124//124 125//125 93//93 92//92
f 125//125 126//126 94//94 93//93
f 126//126 127//127 95//95 94//94
f 127//127 128//128 96//96 95//95
f 128//128 129//129 97//97 96//96
f 129//129 98//98 66//66 97//97
g part1
usemtl red
v 0.04125 -0.06125 0.00000
v 0.04046 -0.06125 0.00805
v 0.03811 -0.06125 0.01579
v 0.03430 -0.06125 0.02292
v 0.02917 -0.06125 0.02917
v 0.02292 -0.06125 0.03430
v 0.01579 -0.06125 0.03811
v 0.00805 -0.06125 0.04046
v 0.00000 -0.06125 0.04125
v -0.00805 -0.06125 0.04046
v -0.01579 -0.06125 0.03811
v -0.02292 -0.06125 0.03430
v -0.02917 -0.06125 0.02917
v -0.03430 -0.06125 0.02292
v -0.03811 -0.06125 0.01579
v -0.04046 -0.06125 0.00805
v -0.04125 -0.06125 0.00000
v -0.04046 -0.06125 -0.00805
v -0.03811 -0.06125 -0.01579
v -0.03430 -0.06125 -0.02292
v -0.02917 -0.06125 -0.02917
v -0.02292 -0.06125 -0.03430
v -0.01579 -0.06125 -0.03811
v -0.00805 -0.06125 -0.04046
v -0.00000 -0.06125 -0.04125
v 0.00805 -0.06125 -0.04046
v 0.01579 -0.06125 -0.03811
v 0.02292 -0.06125 -0.03430
v 0.02917 -0.06125 -0.02917
v 0.03430 -0.06125 -0.02292
v 0.03811 -0.06125 -0.01579
v 0.04046 -0.06125 -0.00805
v 0.04125 -0.01375 0.00000
v 0.04046 -0.01375 0.00805
v 0.03811 -0.01375 0.01579
v 0.03430 -0.01375 0.02292
v 0.02917 -0.01375 0.02917
v 0.02292 -0.01375 0.03430
v 0.01579 -0.01375 0.03811
v 0.00805 -0.01375 0.04046
v 0.00000 -0.01375 0.04125
v -0.00805 -0.01375 0.04046
v -0.01579 -0.01375 0.03811
v -0.02292 -0.01375 0.03430
v -0.02917 -0.01375 0.02917
v -0.03430 -0.01375 0.02292
v -0.03811 -0.01375 0.01579
v -0.04046 -0.01375 0.00805
v -0.04125 -0.01375 0.00000
v -0.04046 -0.01375 -0.00805
v -0.03811 -0.01375 -0.01579
v -0.03430 -0.01375 -0.02292
v -0.02917 -0.01375 -0.02917
v -0.02292 -0.01375 -0.03430
v -0.01579 -0.01375 -0.03811
v -0.00805 -0.01375 -0.04046
v -0.00000 -0.01375 -0.04125
v 0.00805 -0.01375 -0.04046
v 0.01579 -0.01375 -0.03811
v 0.02292 -0.01375 -0.03430
v 0.02917 -0.01375 -0.02917
v 0.03430 -0.01375 -0.02292
v 0.03811 -0.01375 -0.01579
v 0.04046 -0.01375 -0.00805
vn 1.0000 -0.0000 0.0000
vn 0.9808 -0.0000 0.1951
vn 0.9239 -0.0000 0.3827
vn 0.8315 -0.0000 0.5556
vn 0.7071 -0.0000 0.7071
vn 0.5556 -0.0000 0.8315
vn 0.3827 -0.0000 0.9239
vn 0.1951 -0.0000 0.9808
vn 0.0000 -0.0000 1.0000
vn -0.1951 -0.0000 0.9808
vn -0.3827 -0.0000 0.9239
vn -0.5556 -0.0000 0.8315
vn -0.7071 -0.0000 0.7071
vn -0.8315 -0.0000 0.5556
vn -0.9239 -0.0000 0.3827
vn -0.9808 -0.0000 0.1951
vn -1.0000 -0.0000 0.0000
vn -0.9808 -0.0000 -0.1951
vn -0.9239 -0.0000 -0.3827
vn -0.8315 -0.0000 -0.5556
vn -0.7071 -0.0000 -0.7071
vn -0.5556 -0.0000 -0.8315
vn -0.3827 -0.0000 -0.9239
vn -0.1951 -0.0000 -0.9808
vn -0.0000 -0.0000 -1.0000
vn 0.1951 -0.0000 -0.9808
vn 0.3827 -0.0000 -0.9239
vn 0.5556 -0.0000 -0.8315
vn 0.7071 -0.0000 -0.7071
vn 0.8315 -0.0000 -0.5556
vn 0.9239 -0.0000 -0.3827
vn 0.9808 -0.0000 -0.1951
vn 1.0000 -0.0000 0.0000
vn 0.9808 -0.0000 0.1951
vn 0.9239 -0.0000 0.3827
vn 0.8315 -0.0000 0.5556
vn 0.7071 -0.0000 0.7071
vn 0.5556 -0.0000 0.8315
vn 0.3827 -0.0000 0.9239
vn 0.1951 -0.0000 0.9808
vn 0.0000 -0.0000 1.0000
vn -0.1951 -0.0000 0.9808
vn -0.3827 -0.0000 0.9239
vn -0.5556 -0.0000 0.8315
vn -0.7071 -0.0000 0.7071
vn -0.8315 -0.0000 0.5556
vn -0.9239 -0.0000 0.3827
vn -0.9808 -0.0000 0.1951
vn -1.0000 -0.0000 0.0000
vn -0.9808 -0.0000 -0.1951
vn -0.9239 -0.0000 -0.3827
vn -0.8315 -0.0000 -0.5556
vn -0.7071 -0.0000 -0.7071
vn -0.5556 -0.0000 -0.8315
vn -0.3827 -0.0000 -0.9239
vn -0.1951 -0.0000 -0.9808
vn -0.0000 -0.0000 -1.0000
vn 0.1951 -0.0000 -0.9808
vn 0.3827 -0.0000 -0.9239
vn 0.5556 -0.0000 -0.8315
vn 0.7071 -0.0000 -0.7071
vn 0.8315 -0.0000 -0.5556
vn 0.9239 -0.0000 -0.3827
vn 0.9808 -0.0000 -0.1951
f 162//162 163//163 131//131 130//130
f 163//163 164//164 132//132 131//131
f 164//164 165//165 133//133 132//132
f 165//165 166//166 134//134 133//133
f 166//166 167//167 135//135 134//134
f 167//167 168//168 136//136 135//135
f 168//168 169//169 137//137 136//136
f 169//169 170//170 138//138 137//137
f 170//170 171//171 139//139 138//138
f 171//171 172//172 140//140 139//139
f 172//172 173//173 141//141 140//140
f 173//173 174//174 142//142 141//141
f 174//174 175//175 143//143 142//142
f 175//175 176//176 144//144 143//143
f 176//176 177//177 145//145 144//144
f 177//177 178//178 146//146 145//145
f 178//178 179//179 147//147 146//146
f 179//179 180//180 148//148 147//147
f 180//180 181//181 149//149 148//148
f 181//181 182//182 150//150 149//149
f 182//182 183//183 151//151 150//150
f 183//183 184//184 152//152 151//151
f 184//184 185//185 153//153 152//152
f 185//185 186//186 154//154 153//153
f 186//186 187//187 155//155 154//154
f 187//187 188//188 156//156 155//155
f 188//188 189//189 157//157 156//156
f 189//189 190//190 158//158 157//157
f 190//190 191//191 159//159 158//158
f 191//191 192//192 160//160 159//159
f 192//192 193//193 161//161 160//160
f 193//193 162//162 130//130 161//161
g part2
usemtl gold
v 0.04125 -0.01375 0.00000
v 0.04046 -0.01375 0.00805
v 0.03811 -0.01375 0.01579
v 0.03430 -0.01375 0.02292
v 0.02917 -0.01375 0.02917
v 0.02292 -0.01375 0.03430
v 0.01579 -0.01375 0.03811
v 0.00805 -0.01375 0.04046
v 0.00000 -0.01375 0.04125
v -0.00805 -0.01375 0.04046
v -0.01579 -0.01375 0.03811
v -0.02292 -0.01375 0.03430
v -0.02917 -0.01375 0.02917
v -0.03430 -0.01375 0.02292
v -0.03811 -0.01375 0.01579
v -0.04046 -0.01375 0.00805
v -0.04125 -0.01375 0.00000
v -0.04046 -0.01375 -0.00805
v -0.03811 -0.01375 -0.01579
v -0.03430 -0.01375 -0.02292
v -0.02917 -0.01375 -0.02917
v -0.02292 -0.01375 -0.03430
v -0.01579 -0.01375 -0.03811
v -0.00805 -0.01375 -0.04046
v -0.00000 -0.01375 -0.04125
v 0.00805 -0.01375 -0.04046
v 0.01579 -0.01375 -0.03811
v 0.02292 -0.01375 -0.03430
v 0.02917 -0.01375 -0.02917
v 0.03430 -0.01375 -0.02292
v 0.03811 -0.01375 -0.01579
v 0.04046 -0.01375 -0.00805
v 0.04125 -0.01000 0.00000
v 0.04046 -0.01000 0.00805
v 0.03811 -0.01000 0.01579
v 0.03430 -0.01000 0.02292
v 0.02917 -0.01000 0.02917
v 0.02292 -0.01000 0.03430
v 0.01579 -0.01000 0.03811
v 0.00805 -0.01000 0.04046
v 0.00000 -0.01000 0.04125
v -0.00805 -0.01000 0.04046
v -0.01579 -0.01000 0.03811
v -0.02292 -0.01000 0.03430
v -0.02917 -0.01000 0.02917
v -0.03430 -0.01000 0.02292
v -0.03811 -0.01000 0.01579
v -0.04046 -0.01000 0.00805
v -0.04125 -0.01000 0.00000
v -0.04046 -0.01000 -0.00805
v -0.03811 -0.01000 -0.01579
v -0.03430 -0.01000 -0.02292
v -0.02917 -0.01000 -0.02917
v -0.02292 -0.01000 -0.03430
v -0.01579 -0.01000 -0.03811
v -0.00805 -0.01000 -0.04046
v -0.00000 -0.01000 -0.04125
v 0.00805 -0.01000 -0.04046
v 0.01579 -0.01000 -0.03811
v 0.02292 -0.01000 -0.03430
v 0.02917 -0.01000 -0.02917
v 0.03430 -0.01000 -0.02292
v 0.03811 -0.01000 -0.01579
v 0.04046 -0.01000 -0.00805
vn 1.0000 -0.0000 0.0000
vn 0.9808 -0.0000 0.1951
vn 0.9239 -0.0000 0.3827
vn 0.8315 -0.0000 0.5556
vn 0.7071 -0.0000 0.7071
vn 0.5556 -0.0000 0.8315
vn 0.3827 -0.0000 0.9239
vn 0.1951 -0.0000 0.9808
vn 0.0000 -0.0000 1.0000
vn -0.1951 -0.0000 0.9808
vn -0.3827 -0.0000 0.9239
vn -0.5556 -0.0000 0.8315
vn -0.7071 -0.0000 0.7071
vn -0.8315 -0.0000 0.5556
vn -0.9239 -0.0000 0.3827
vn -0.9808 -0.0000 0.1951
vn -1.0000 -0.0000 0.0000
vn -0.9808 -0.0000 -0.1951
vn -0.9239 -0.0000 -0.3827
vn -0.8315 -0.0000 -0.5556
vn -0.7071 -0.0000 -0.7071
vn -0.5556 -0.0000 -0.8315
vn -0.3827 -0.0000 -0.9239
vn -0.1951 -0.0000 -0.9808
vn -0.0000 -0.0000 -1.0000
vn 0.1951 -0.0000 -0.9808
vn 0.3827 -0.0000 -0.9239
vn 0.5556 -0.0000 -0.8315
vn 0.7071 -0.0000 -0.7071
vn 0.8315 -0.0000 -0.5556
vn 0.9239 -0.0000 -0.3827
vn 0.9808 -0.0000 -0.1951
vn 1.0000 -0.0000 0.0000
vn 0.9808 -0.0000 0.1951
vn 0.9239 -0.0000 0.3827
vn 0.8315 -0.0000 0.5556
vn 0.7071 -0.0000 0.7071
vn 0.5556 -0.0000 0.8315
vn 0.3827 -0.0000 0.9239
vn 0.1951 -0.0000 0.9808
vn 0.0000 -0.0000 1.0000
vn -0.1951 -0.0000 0.9808
vn -0.3827 -0.0000 0.9239
vn -0.5556 -0.0000 0.8315
vn -0.7071 -0.0000 0.7071
vn -0.8315 -0.0000 0.5556
vn -0.9239 -0.0000 0.3827
vn -0.9808 -0.0000 0.1951
vn -1.0000 -0.0000 0.0000
vn -0.9808 -0.0000 -0.1951
vn -0.9239 -0.0000 -0.3827
vn -0.8315 -0.0000 -0.5556
vn -0.7071 -0.0000 -0.7071
vn -0.5556 -0.0000 -0.8315
vn -0.3827 -0.0000 -0.9239
vn -0.1951 -0.0000 -0.9808
vn -0.0000 -0.0000 -1.0000
vn 0.1951 -0.0000 -0.9808
vn 0.3827 -0.0000 -0.9239
vn 0.5556 -0.0000 -0.8315
vn 0.7071 -0.0000 -0.7071
vn 0.8315 -0.0000 -0.5556
vn 0.9239 -0.0000 -0.3827
vn 0.9808 -0.0000 -0.1951
f 226//226 227//227 195//195 194//194
f 227//227 228//228 196//196 195//195
f 228//228 229//229 197//197 196//196
f 229//229 230//230 198//198 197//197
f 230//230 231//231 199//199 198//198
f 231//231 232//232 200//200 199//199
f 232//232 233//233 201//201 200//200
f 233//233 234//234 202//202 201//201
f 234//234 235//235 203//203 202//202
f 235//235 236//236 204//204 203//203
f 236//236 237//237 205//205 204//204
f 237//237 238//238 206//206 205//205
f 238//238 239//239 207//207 206//206
f 239//239 240//240 208//208 207//207
f 240//240 241//241 209//209 208//208
f 241//241 242//242 210//210 209//209
f 242//242 243//243 211//211 210//210
f 243//243 244//244 212//212 211//211
f 244//244 245//245 213//213 212//212
f 245//245 246//246 214//214 213//213
f 246//246 247//247 215//215 214//214
f 247//247 248//248 216//216 215//215
f 248//248 249//249 217//217 216//216
f 249//249 250//250 218//218 217//217
f 250//250 251//251 219//219 218//218
f 251//251 252//252 220//220 219//219
f 252//252 253//253 221//221 220//220
f 253//253 254//254 222//222 221//221
f 254//254 255//255 223//223 222//222
f 255//255 256//256 224//224 223//223
f 256//256 257//257 225//225 224//224
f 257//257 226//226 194//194 225//225
g part3
usemtl cream
v 0.04125 -0.01000 0.00000
v 0.04046 -0.01000 0.00805
v 0.03811 -0.01000 0.01579
v 0.03430 -0.01000 0.02292
v 0.02917 -0.01000 0.02917
v 0.02292 -0.01000 0.03430
v 0.01579 -0.01000 0.03811
v 0.00805 -0.01000 0.04046
v 0.00000 -0.01000 0.04125
v -0.00805 -0.01000 0.04046
v -0.01579 -0.01000 0.03811
v -0.02292 -0.01000 0.03430
v -0.02917 -0.01000 0.02917
v -0.03430 -0.01000 0.02292
v -0.03811 -0.01000 0.01579
v -0.04046 -0.01000 0.00805
v -0.04125 -0.01000 0.00000
v -0.04046 -0.01000 -0.00805
v -0.03811 -0.01000 -0.01579
v -0.03430 -0.01000 -0.02292
v -0.02917 -0.01000 -0.02917
v -0.02292 -0.01000 -0.03430
v -0.01579 -0.01000 -0.03811
v -0.00805 -0.01000 -0.04046
v -0.00000 -0.01000 -0.04125
v 0.00805 -0.01000 -0.04046
v 0.01579 -0.01000 -0.03811
v 0.02292 -0.01000 -0.03430
v 0.02917 -0.01000 -0.02917
v 0.03430 -0.01000 -0.02292
v 0.03811 -0.01000 -0.01579
v 0.04046 -0.01000 -0.00805
v 0.04125 0.02000 0.00000
v 0.04046 0.02000 0.00805
v 0.03811 0.02000 0.01579
v 0.03430 0.02000 0.02292
v 0.02917 0.02000 0.02917
v 0.02292 0.02000 0.03430
v 0.01579 0.02000 0.03811
v 0.00805 0.02000 0.04046
v 0.00000 0.02000 0.04125
v -0.00805 0.02000 0.04046
v -0.01579 0.02000 0.03811
v -0.02292 0.02000 0.03430
v -0.02917 0.02000 0.02917
v -0.03430 0.02000 0.02292
v -0.03811 0.02000 0.01579
v -0.04046 0.02000 0.00805
v -0.04125 0.02000 0.00000
v -0.04046 0.02000 -0.00805
v -0.03811 0.02000 -0.01579
v -0.03430 0.02000 -0.02292
v -0.02917 0.02000 -0.02917
v -0.02292 0.02000 -0.03430
v -0.01579 0.02000 -0.03811
v -0.00805 0.02000 -0.04046
v -0.00000 0.02000 -0.04125
v 0.00805 0.02000 -0.04046
v 0.01579 0.02000 -0.03811
v 0.02292 0.02000 -0.03430
v 0.02917 0.02000 -0.02917
v 0.03430 0.02000 -0.02292
v 0.03811 0.02000 -0.01579
v 0.04046 0.02000 -0.00805
vn 1.0000 -0.0000 0.0000
vn 0.9808 -0.0000 0.1951
vn 0.9239 -0.0000 0.3827
vn 0.8315 -0.0000 0.5556
vn 0.7071 -0.0000 0.7071
vn 0.5556 -0.0000 0.8315
vn 0.3827 -0.0000 0.9239
vn 0.1951 -0.0000 0.9808
vn 0.0000 -0.0000 1.0000
vn -0.1951 -0.0000 0.9808
vn -0.3827 -0.0000 0.9239
vn -0.5556 -0.0000 0.8315
vn -0.7071 -0.0000 0.7071
vn -0.8315 -0.0000 0.5556
vn -0.9239 -0.0000 0.3827
vn -0.9808 -0.0000 0.1951
vn -1.0000 -0.0000 0.0000
vn -0.9808 -0.0000 -0.1951
vn -0.9239 -0.0000 -0.3827
vn -0.8315 -0.0000 -0.5556
vn -0.7071 -0.0000 -0.7071
vn -0.5556 -0.0000 -0.8315
vn -0.3827 -0.0000 -0.9239
vn -0.1951 -0.0000 -0.9808
vn -0.0000 -0.0000 -1.0000
vn 0.1951 -0.0000 -0.9808
vn 0.3827 -0.0000 -0.9239
vn 0.5556 -0.0000 -0.8315
vn 0.7071 -0.0000 -0.7071
vn 0.8315 -0.0000 -0.5556
vn 0.9239 -0.0000 -0.3827
vn 0.9808 -0.0000 -0.1951
vn 1.0000 -0.0000 0.0000
vn 0.9808 -0.0000 0.1951
vn 0.9239 -0.0000 0.3827
vn 0.8315 -0.0000 0.5556
vn 0.7071 -0.0000 0.7071
vn 0.5556 -0.0000 0.8315
vn 0.3827 -0.0000 0.9239
vn 0.1951 -0.0000 0.9808
vn 0.0000 -0.0000 1.0000
vn -0.1951 -0.0000 0.9808
vn -0.3827 -0.0000 0.9239
vn -0.5556 -0.0000 0.8315
vn -0.7071 -0.0000 0.7071
vn -0.8315 -0.0000 0.5556
vn -0.9239 -0.0000 0.3827
vn -0.9808 -0.0000 0.1951
vn -1.0000 -0.0000 0.0000
vn -0.9808 -0.0000 -0.1951
vn -0.9239 -0.0000 -0.3827
vn -0.8315 -0.0000 -0.5556
vn -0.7071 -0.0000 -0.7071
vn -0.5556 -0.0000 -0.8315
vn -0.3827 -0.0000 -0.9239
vn -0.1951 -0.0000 -0.9808
vn -0.0000 -0.0000 -1.0000
vn 0.1951 -0.0000 -0.9808
vn 0.3827 -0.0000 -0.9239
vn 0.5556 -0.0000 -0.8315
vn 0.7071 -0.0000 -0.7071
vn 0.8315 -0.0000 -0.5556
vn 0.9239 -0.0000 -0.3827
vn 0.9808 -0.0000 -0.1951
f 290//290 291//291 259//259 258//258
f 291//291 292//292 260//260 259//259
f 292//292 293//293 261//261 260//260
f 293//293 294//294 262//262 261//261
f 294//294 295//295 263//263 262//262
f 295//295 296//296 264//264 263//263
f 296//296 297//297 265//265 264//264
f 297//297 298//298 266//266 265//265
f 298//298 299//299 267//267 266//266
f 299//299 300//300 268//268 267//267
f 300//300 301//301 269//269 268//268
f 301//301 302//302 270//270 269//269
f 302//302 303//303 271//271 270//270
f 303//303 304//304 272//272 271//271
f 304//304 305//305 273//273 272//272
f 305//305 306//306 274//274 273//273
f 306//306 307//307 275//275 274//274
f 307//307 308//308 276//276 275//275
f 308//308 309//309 277//277 276//276
f 309//309 310//310 278//278 277//277
f 310//310 311//311 279//279 278//278
f 311//311 312//312 280//280 279//279
f 312//312 313//313 281//281 280//280
f 313//313 314//314 282//282 281//281
f 314//314 315//315 283//283 282//282
f 315//315 316//316 284//284 283//283
f 316//316 317//317 285//285 284//284
f 317//317 318//318 286//286 285//285
f 318//318 319//319 287//287 286//286
f 319//319 320//320 288//288 287//287
f 320//320 321//321 289//289 288//288
f 321//321 290//290 258//258 289//289
g part4
usemtl gold
v 0.04125 0.02000 0.00000
v 0.04046 0.02000 0.00805
v 0.03811 0.02000 0.01579
v 0.03430 0.02000 0.02292
v 0.02917 0.02000 0.02917
v 0.02292 0.02000 0.03430
v 0.01579 0.02000 0.03811
v 0.00805 0.02000 0.04046
v 0.00000 0.02000 0.04125
v -0.00805 0.02000 0.04046
v -0.01579 0.02000 0.03811
v -0.02292 0.02000 0.03430
v -0.02917 0.02000 0.02917
v -0.03430 0.02000 0.02292
v -0.03811 0.02000 0.01579
v -0.04046 0.02000 0.00805
v -0.04125 0.02000 0.00000
v -0.04046 0.02000 -0.00805
v -0.03811 0.02000 -0.01579
v -0.03430 0.02000 -0.02292
v -0.02917 0.02000 -0.02917
v -0.02292 0.02000 -0.03430
v -0.01579 0.02000 -0.03811
v -0.00805 0.02000 -0.04046
v -0.00000 0.02000 -0.04125
v 0.00805 0.02000 -0.04046
v 0.01579 0.02000 -0.03811
v 0.02292 0.02000 -0.03430
v 0.02917 0.02000 -0.02917
v 0.03430 0.02000 -0.02292
v 0.03811 0.02000 -0.01579
v 0.04046 0.02000 -0.00805
v 0.04125 0.02375 0.00000
v 0.04046 0.02375 0.00805
v 0.03811 0.02375 0.01579
v 0.03430 0.02375 0.02292
v 0.02917 0.02375 0.02917
v 0.02292 0.02375 0.03430
v 0.01579 0.02375 0.03811
v 0.00805 0.02375 0.04046
v 0.00000 0.02375 0.04125
v -0.00805 0.02375 0.04046
v -0.01579 0.02375 0.03811
v -0.02292 0.02375 0.03430
v -0.02917 0.02375 0.02917
v -0.03430 0.02375 0.02292
v -0.03811 0.02375 0.01579
v -0.04046 0.02375 0.00805
v -0.04125 0.02375 0.00000
v -0.04046 0.02375 -0.00805
v -0.03811 0.02375 -0.01579
v -0.03430 0.02375 -0.02292
v -0.02917 0.02375 -0.02917
v -0.02292 0.02375 -0.03430
v -0.01579 0.02375 -0.03811
v -0.00805 0.02375 -0.04046
v -0.00000 0.02375 -0.04125
v 0.00805 0.02375 -0.04046
v 0.01579 0.02375 -0.03811
v 0.02292 0.02375 -0.03430
v 0.02917 0.02375 -0.02917
v 0.03430 0.02375 -0.02292
v 0.03811 0.02375 -0.01579
v 0.04046 0.02375 -0.00805
vn 1.0000 -0.0000 0.0000
vn 0.9808 -0.0000 0.1951
vn 0.9239 -0.0000 0.3827
vn 0.8315 -0.0000 0.5556
vn 0.7071 -0.0000 0.7071
vn 0.5556 -0.0000 0.8315
vn 0.3827 -0.0000 0.9239
vn 0.1951 -0.0000 0.9808
vn 0.0000 -0.0000 1.0000
vn -0.1951 -0.0000 0.9808
vn -0.3827 -0.0000 0.9239
vn -0.5556 -0.0000 0.8315
vn -0.7071 -0.0000 0.7071
vn -0.8315 -0.0000 0.5556
vn -0.9239 -0.0000 0.3827
vn -0.9808 -0.0000 0.1951
vn -1.0000 -0.0000 0.0000
vn -0.9808 -0.0000 -0.1951
vn -0.9239 -0.0000 -0.3827
vn -0.8315 -0.0000 -0.5556
vn -0.7071 -0.0000 -0.7071
vn -0.5556 -0.0000 -0.8315
vn -0.3827 -0.0000 -0.9239
vn -0.1951 -0.0000 -0.9808
vn -0.0000 -0.0000 -1.0000
vn 0.1951 -0.0000 -0.9808
vn 0.3827 -0.0000 -0.9239
vn 0.5556 -0.0000 -0.8315
vn 0.7071 -0.0000 -0.7071
vn 0.8315 -0.0000 -0.5556
vn 0.9239 -0.0000 -0.3827
vn 0.9808 -0.0000 -0.1951
vn 1.0000 -0.0000 0.0000
vn 0.9808 -0.0000 0.1951
vn 0.9239 -0.0000 0.3827
vn 0.8315 -0.0000 0.5556
vn 0.7071 -0.0000 0.7071
vn 0.5556 -0.0000 0.8315
vn 0.3827 -0.0000 0.9239
vn 0.1951 -0.0000 0.9808
vn 0.0000 -0.0000 1.0000
vn -0.1951 -0.0000 0.9808
vn -0.3827 -0.0000 0.9239
vn -0.5556 -0.0000 0.8315
vn -0.7071 -0.0000 0.7071
vn -0.8315 -0.0000 0.5556
vn -0.9239 -0.0000 0.3827
vn -0.9808 -0.0000 0.1951
vn -1.0000 -0.0000 0.0000
vn -0.9808 -0.0000 -0.1951
vn -0.9239 -0.0000 -0.3827
vn -0.8315 -0.0000 -0.5556
vn -0.7071 -0.0000 -0.7071
vn -0.5556 -0.0000 -0.8315
vn -0.3827 -0.0000 -0.9239
vn -0.1951 -0.0000 -0.9808
vn -0.0000 -0.0000 -1.0000
vn 0.1951 -0.0000 -0.9808
vn 0.3827 -0.0000 -0.9239
vn 0.5556 -0.0000 -0.8315
vn 0.7071 -0.0000 -0.7071
vn 0.8315 -0.0000 -0.5556
vn 0.9239 -0.0000 -0.3827
vn 0.9808 -0.0000 -0.1951
f 354//354 355//355 323//323 322//322
f 355//355 356//356 324//324 323//323
f 356//356 357//357 325//325 324//324
f 357//357 358//358 326//326 325//325
f 358//358 359//359 327//327 326//326
f 359//359 360//360 328//328 327//327
f 360//360 361//361 329//329 328//328
f 361//361 362//362 330//330 329//329
f 362//362 363//363 331//331 330//330
f 363//363 364//364 332//332 331//331
f 364//364 365//365 333//333 332//332
f 365//365 366//366 334//334 333//333
f 366//366 367//367 335//335 334//334
f 367//367 368//368 336//336 335//335
f 368//368 369//369 337//337 336//336
f 369//369 370//370 338//338 337//337
f 370//370 371//371 339//339 338//338
f 371//371 372//372 340//340 339//339
f 372//372 373//373 341//341 340//340
f 373//373 374//374 342//342 341//341
f 374//374 375//375 343//343 342//342
f 375//375 376//376 344//344 343//343
f 376//376 377//377 345//345 344//344
f 377//377 378//378 346//346 345//345
f 378//378 379//379 347//347 346//346
f 379//379 380//380 348//348 347//347
f 380//380 381//381 349//349 348//348
f 381//381 382//382 350//350 349//349
f 382//382 383//383 351//351 350//350
f 383//383 384//384 352//352 351//351
f 384//384 385//385 353//353 352//352
f 385//385 354//354 322//322 353//353
g part5
usemtl red
v 0.04125 0.02375 0.00000
v 0.04046 0.02375 0.00805
v 0.03811 0.02375 0.01579
v 0.03430 0.02375 0.02292
v 0.02917 0.02375 0.02917
v 0.02292 0.02375 0.03430
v 0.01579 0.02375 0.03811
v 0.00805 0.02375 0.04046
v 0.00000 0.02375 0.04125
v -0.00805 0.02375 0.04046
v -0.01579 0.02375 0.03811
v -0.02292 0.02375 0.03430
v -0.02917 0.02375 0.02917
v -0.03430 0.02375 0.02292
v -0.03811 0.02375 0.01579
v -0.04046 0.02375 0.00805
v -0.04125 0.02375 0.00000
v -0.04046 0.02375 -0.00805
v -0.03811 0.02375 -0.01579
v -0.03430 0.02375 -0.02292
v -0.02917 0.02375 -0.02917
v -0.02292 0.02375 -0.03430
v -0.01579 0.02375 -0.03811
v -0.00805 0.02375 -0.04046
v -0.00000 0.02375 -0.04125
v 0.00805 0.02375 -0.04046
v 0.01579 0.02375 -0.03811
v 0.02292 0.02375 -0.03430
v 0.02917 0.02375 -0.02917
v 0.03430 0.02375 -0.02292
v 0.03811 0.02375 -0.01579
v 0.04046 0.02375 -0.00805
v 0.04125 0.05875 0.00000
v 0.04046 0.05875 0.00805
v 0.03811 0.05875 0.01579
v 0.03430 0.05875 0.02292
v 0.02917 0.05875 0.02917
v 0.02292 0.05875 0.03430
v 0.01579 0.05875 0.03811
v 0.00805 0.05875 0.04046
v 0.00000 0.05875 0.04125
v -0.00805 0.05875 0.04046
v -0.01579 0.05875 0.03811
v -0.02292 0.05875 0.03430
v -0.02917 0.05875 0.02917
v -0.03430 0.05875 0.02292
v -0.03811 0.05875 0.01579
v -0.04046 0.05875 0.00805
v -0.04125 0.05875 0.00000
v -0.04046 0.05875 -0.00805
v -0.03811 0.05875 -0.01579
v -0.03430 0.05875 -0.02292
v -0.02917 0.05875 -0.02917
v -0.02292 0.05875 -0.03430
v -0.01579 0.05875 -0.03811
v -0.00805 0.05875 -0.04046
v -0.00000 0.05875 -0.04125
v 0.00805 0.05875 -0.04046
v 0.01579 0.05875 -0.03811
v 0.02292 0.05875 -0.03430
v 0.02917 0.05875 -0.02917
v 0.03430 0.05875 -0.02292
v 0.03811 0.05875 -0.01579
v 0.04046 0.05875 -0.00805
vn 1.0000 -0.0000 0.0000
vn 0.9808 -0.0000 0.1951
vn 0.9239 -0.0000 0.3827
vn 0.8315 -0.0000 0.5556
vn 0.7071 -0.0000 0.7071
vn 0.5556 -0.0000 0.8315
vn 0.3827 -0.0000 0.9239
vn 0.1951 -0.0000 0.9808
vn 0.0000 -0.0000 1.0000
vn -0.1951 -0.0000 0.9808
vn -0.3827 -0.0000 0.9239
vn -0.5556 -0.0000 0.8315
vn -0.7071 -0.0000 0.7071
vn -0.8315 -0.0000 0.5556
vn -0.9239 -0.0000 0.3827
vn -0.9808 -0.0000 0.1951
vn -1.0000 -0.0000 0.0000
vn -0.9808 -0.0000 -0.1951
vn -0.9239 -0.0000 -0.3827
vn -0.8315 -0.0000 -0.5556
vn -0.7071 -0.0000 -0.7071
vn -0.5556 -0.0000 -0.8315
vn -0.3827 -0.0000 -0.9239
vn -0.1951 -0.0000 -0.9808
vn -0.0000 -0.0000 -1.0000
vn 0.1951 -0.0000 -0.9808
vn 0.3827 -0.0000 -0.9239
vn 0.5556 -0.0000 -0.8315
vn 0.7071 -0.0000 -0.7071
vn 0.8315 -0.0000 -0.5556
vn 0.9239 -0.0000 -0.3827
vn 0.9808 -0.0000 -0.1951
vn 1.0000 -0.0000 0.0000
vn 0.9808 -0.0000 0.1951
vn 0.9239 -0.0000 0.3827
vn 0.8315 -0.0000 0.5556
vn 0.7071 -0.0000 0.7071
vn 0.5556 -0.0000 0.8315
vn 0.3827 -0.0000 0.9239
vn 0.1951 -0.0000 0.9808
vn 0.0000 -0.0000 1.0000
vn -0.1951 -0.0000 0.9808
vn -0.3827 -0.0000 0.9239
vn -0.5556 -0.0000 0.8315
vn -0.7071 -0.0000 0.7071
vn -0.8315 -0.0000 0.5556
vn -0.9239 -0.0000 0.3827
vn -0.9808 -0.0000 0.1951
vn -1.0000 -0.0000 0.0000
vn -0.9808 -0.0000 -0.1951
vn -0.9239 -0.0000 -0.3827
vn -0.8315 -0.0000 -0.5556
vn -0.7071 -0.0000 -0.7071
vn -0.5556 -0.0000 -0.8315
vn -0.3827 -0.0000 -0.9239
vn -0.1951 -0.0000 -0.9808
vn -0.0000 -0.0000 -1.0000
vn 0.1951 -0.0000 -0.9808
vn 0.3827 -0.0000 -0.9239
vn 0.5556 -0.0000 -0.8315
vn 0.7071 -0.0000 -0.7071
vn 0.8315 -0.0000 -0.5556
vn 0.9239 -0.0000 -0.3827
vn 0.9808 -0.0000 -0.1951
f 418//418 419//419 387//387 386//386
f 419//419 420//420 388//388 387//387
f 420//420 421//421 389//389 388//388
f 421//421 422//422 390//390 389//389
f 422//422 423//423 391//391 390//390
f 423//423 424//424 392//392 391//391
f 424//424 425//425 393//393 392//392
f 425//425 426//426 394//394 393//393
f 426//426 427//427 395//395 394//394
f 427//427 428//428 396//396 395//395
f 428//428 429//429 397//397 396//396
f 429//429 430//430 398//398 397//397
f 430//430 431//431 399//399 398//398
f 431//431 432//432 400//400 399//399
f 432//432 433//433 401//401 400//400
f 433//433 434//434 402//402 401//401
f 434//434 435//435 403//403 402//402
f 435//435 436//436 404//404 403//403
f 436//436 437//437 405//405 404//404
f 437//437 438//438 406//406 405//405
f 438//438 439//439 407//407 406//406
f 439//439 440//440 408//408 407//407
f 440//440 441//441 409//409 408//408
f 441//441 442//442 410//410 409//409
f 442//442 443//443 411//411 410//410
f 443//443 444//444 412//412 411//411
f 444//444 445//445 413//413 412//412
f 445//445 446//446 414//414 413//413
f 446//446 447//447 415//415 414//414
f 447//447 448//448 416//416 415//415
f 448//448 449//449 417//417 416//416
f 449//449 418//418 386//386 417//417
g part6
usemtl alu
v 0.04125 0.05875 0.00000
v 0.04046 0.05875 0.00805
v 0.03811 0.05875 0.01579
v 0.03430 0.05875 0.02292
v 0.02917 0.05875 0.02917
v 0.02292 0.05875 0.03430
v 0.01579 0.05875 0.03811
v 0.00805 0.05875 0.04046
v 0.00000 0.05875 0.04125
v -0.00805 0.05875 0.04046
v -0.01579 0.05875 0.03811
v -0.02292 0.05875 0.03430
v -0.02917 0.05875 0.02917
v -0.03430 0.05875 0.02292
v -0.03811 0.05875 0.01579
v -0.04046 0.05875 0.00805
v -0.04125 0.05875 0.00000
v -0.04046 0.05875 -0.00805
v -0.03811 0.05875 -0.01579
v -0.03430 0.05875 -0.02292
v -0.02917 0.05875 -0.02917
v -0.02292 0.05875 -0.03430
v -0.01579 0.05875 -0.03811
v -0.00805 0.05875 -0.04046
v -0.00000 0.05875 -0.04125
v 0.00805 0.05875 -0.04046
v 0.01579 0.05875 -0.03811
v 0.02292 0.05875 -0.03430
v 0.02917 0.05875 -0.02917
v 0.03430 0.05875 -0.02292
v 0.03811 0.05875 -0.01579
v 0.04046 0.05875 -0.00805
v 0.03919 0.06625 0.00000
v 0.03843 0.06625 0.00765
v 0.03620 0.06625 0.01500
v 0.03258 0.06625 0.02177
v 0.02771 0.06625 0.02771
v 0.02177 0.06625 0.03258
v 0.01500 0.06625 0.03620
v 0.00765 0.06625 0.03843
v 0.00000 0.06625 0.03919
v -0.00765 0.06625 0.03843
v -0.01500 0.06625 0.03620
v -0.02177 0.06625 0.03258
v -0.02771 0.06625 0.02771
v -0.03258 0.06625 0.02177
v -0.03620 0.06625 0.01500
v -0.03843 0.06625 0.00765
v -0.03919 0.06625 0.00000
v -0.03843 0.06625 -0.00765
v -0.03620 0.06625 -0.01500
v -0.03258 0.06625 -0.02177
v -0.02771 0.06625 -0.02771
v -0.02177 0.06625 -0.03258
v -0.01500 0.06625 -0.03620
v -0.00765 0.06625 -0.03843
v -0.00000 0.06625 -0.03919
v 0.00765 0.06625 -0.03843
v 0.01500 0.06625 -0.03620
v 0.02177 0.06625 -0.03258
v 0.02771 0.06625 -0.02771
v 0.03258 0.06625 -0.02177
v 0.03620 0.06625 -0.01500
v 0.03843 0.06625 -0.00765
v 0.03533 0.07250 0.00000
v 0.03465 0.07250 0.00689
v 0.03264 0.07250 0.01352
v 0.02937 0.07250 0.01963
v 0.02498 0.07250 0.02498
v 0.01963 0.07250 0.02937
v 0.01352 0.07250 0.03264
v 0.00689 0.07250 0.03465
v 0.00000 0.07250 0.03533
v -0.00689 0.07250 0.03465
v -0.01352 0.07250 0.03264
v -0.01963 0.07250 0.02937
v -0.02498 0.07250 0.02498
v -0.02937 0.07250 0.01963
v -0.03264 0.07250 0.01352
v -0.03465 0.07250 0.00689
v -0.03533 0.07250 0.00000
v -0.03465 0.07250 -0.00689
v -0.03264 0.07250 -0.01352
v -0.02937 0.07250 -0.01963
v -0.02498 0.07250 -0.02498
v -0.01963 0.07250 -0.02937
v -0.01352 0.07250 -0.03264
v -0.00689 0.07250 -0.03465
v -0.00000 0.07250 -0.03533
v 0.00689 0.07250 -0.03465
v 0.01352 0.07250 -0.03264
v 0.01963 0.07250 -0.02937
v 0.02498 0.07250 -0.02498
v 0.02937 0.07250 -0.01963
v 0.03264 0.07250 -0.01352
v 0.03465 0.07250 -0.00689
v 0.03633 0.07625 0.00000
v 0.03563 0.07625 0.00709
v 0.03356 0.07625 0.01390
v 0.03020 0.07625 0.02018
v 0.02569 0.07625 0.02569
v 0.02018 0.07625 0.03020
v 0.01390 0.07625 0.03356
v 0.00709 0.07625 0.03563
v 0.00000 0.07625 0.03633
v -0.00709 0.07625 0.03563
v -0.01390 0.07625 0.03356
v -0.02018 0.07625 0.03020
v -0.02569 0.07625 0.02569
v -0.03020 0.07625 0.02018
v -0.03356 0.07625 0.01390
v -0.03563 0.07625 0.00709
v -0.03633 0.07625 0.00000
v -0.03563 0.07625 -0.00709
v -0.03356 0.07625 -0.01390
v -0.03020 0.07625 -0.02018
v -0.02569 0.07625 -0.02569
v -0.02018 0.07625 -0.03020
v -0.01390 0.07625 -0.03356
v -0.00709 0.07625 -0.03563
v -0.00000 0.07625 -0.03633
v 0.00709 0.07625 -0.03563
v 0.01390 0.07625 -0.03356
v 0.02018 0.07625 -0.03020
v 0.02569 0.07625 -0.02569
v 0.03020 0.07625 -0.02018
v 0.03356 0.07625 -0.01390
v 0.03563 0.07625 -0.00709
v 0.03383 0.07625 0.00000
v 0.03318 0.07625 0.00660
v 0.03125 0.07625 0.01294
v 0.02812 0.07625 0.01879
v 0.02392 0.07625 0.02392
v 0.01879 0.07625 0.02812
v 0.01294 0.07625 0.03125
v 0.00660 0.07625 0.03318
v 0.00000 0.07625 0.03383
v -0.00660 0.07625 0.03318
v -0.01294 0.07625 0.03125
v -0.01879 0.07625 0.02812
v -0.02392 0.07625 0.02392
v -0.02812 0.07625 0.01879
v -0.03125 0.07625 0.01294
v -0.03318 0.07625 0.00660
v -0.03383 0.07625 0.00000
v -0.03318 0.07625 -0.00660
v -0.03125 0.07625 -0.01294
v -0.02812 0.07625 -0.01879
v -0.02392 0.07625 -0.02392
v -0.01879 0.07625 -0.02812
v -0.01294 0.07625 -0.03125
v -0.00660 0.07625 -0.03318
v -0.00000 0.07625 -0.03383
v 0.00660 0.07625 -0.03318
v 0.01294 0.07625 -0.03125
v 0.01879 0.07625 -0.02812
v 0.02392 0.07625 -0.02392
v 0.02812 0.07625 -0.01879
v 0.03125 0.07625 -0.01294
v 0.03318 0.07625 -0.00660
v 0.03283 0.07125 0.00000
v 0.03219 0.07125 0.00640
v 0.03033 0.07125 0.01256
v 0.02729 0.07125 0.01824
v 0.02321 0.07125 0.02321
v 0.01824 0.07125 0.02729
v 0.01256 0.07125 0.03033
v 0.00640 0.07125 0.03219
v 0.00000 0.07125 0.03283
v -0.00640 0.07125 0.03219
v -0.01256 0.07125 0.03033
v -0.01824 0.07125 0.02729
v -0.02321 0.07125 0.02321
v -0.02729 0.07125 0.01824
v -0.03033 0.07125 0.01256
v -0.03219 0.07125 0.00640
v -0.03283 0.07125 0.00000
v -0.03219 0.07125 -0.00640
v -0.03033 0.07125 -0.01256
v -0.02729 0.07125 -0.01824
v -0.02321 0.07125 -0.02321
v -0.01824 0.07125 -0.02729
v -0.01256 0.07125 -0.03033
v -0.00640 0.07125 -0.03219
v -0.00000 0.07125 -0.03283
v 0.00640 0.07125 -0.03219
v 0.01256 0.07125 -0.03033
v 0.01824 0.07125 -0.02729
v 0.02321 0.07125 -0.02321
v 0.02729 0.07125 -0.01824
v 0.03033 0.07125 -0.01256
v 0.03219 0.07125 -0.00640
vn 0.9642 0.2652 0.0000
vn 0.9457 0.2652 0.1881
vn 0.8908 0.2652 0.3690
vn 0.8017 0.2652 0.5357
vn 0.6818 0.2652 0.6818
vn 0.5357 0.2652 0.8017
vn 0.3690 0.2652 0.8908
vn 0.1881 0.2652 0.9457
vn 0.0000 0.2652 0.9642
vn -0.1881 0.2652 0.9457
vn -0.3690 0.2652 0.8908
vn -0.5357 0.2652 0.8017
vn -0.6818 0.2652 0.6818
vn -0.8017 0.2652 0.5357
vn -0.8908 0.2652 0.3690
vn -0.9457 0.2652 0.1881
vn -0.9642 0.2652 0.0000
vn -0.9457 0.2652 -0.1881
vn -0.8908 0.2652 -0.3690
vn -0.8017 0.2652 -0.5357
vn -0.6818 0.2652 -0.6818
vn -0.5357 0.2652 -0.8017
vn -0.3690 0.2652 -0.8908
vn -0.1881 0.2652 -0.9457
vn -0.0000 0.2652 -0.9642
vn 0.1881 0.2652 -0.9457
vn 0.3690 0.2652 -0.8908
vn 0.5357 0.2652 -0.8017
vn 0.6818 0.2652 -0.6818
vn 0.8017 0.2652 -0.5357
vn 0.8908 0.2652 -0.3690
vn 0.9457 0.2652 -0.1881
vn 0.9184 0.3957 0.0000
vn 0.9007 0.3957 0.1792
vn 0.8485 0.3957 0.3514
vn 0.7636 0.3957 0.5102
vn 0.6494 0.3957 0.6494
vn 0.5102 0.3957 0.7636
vn 0.3514 0.3957 0.8485
vn 0.1792 0.3957 0.9007
vn 0.0000 0.3957 0.9184
vn -0.1792 0.3957 0.9007
vn -0.3514 0.3957 0.8485
vn -0.5102 0.3957 0.7636
vn -0.6494 0.3957 0.6494
vn -0.7636 0.3957 0.5102
vn -0.8485 0.3957 0.3514
vn -0.9007 0.3957 0.1792
vn -0.9184 0.3957 0.0000
vn -0.9007 0.3957 -0.1792
vn -0.8485 0.3957 -0.3514
vn -0.7636 0.3957 -0.5102
vn -0.6494 0.3957 -0.6494
vn -0.5102 0.3957 -0.7636
vn -0.3514 0.3957 -0.8485
vn -0.1792 0.3957 -0.9007
vn -0.0000 0.3957 -0.9184
vn 0.1792 0.3957 -0.9007
vn 0.3514 0.3957 -0.8485
vn 0.5102 0.3957 -0.7636
vn 0.6494 0.3957 -0.6494
vn 0.7636 0.3957 -0.5102
vn 0.8485 0.3957 -0.3514
vn 0.9007 0.3957 -0.1792
vn 0.9614 0.2752 0.0000
vn 0.9429 0.2752 0.1876
vn 0.8882 0.2752 0.3679
vn 0.7994 0.2752 0.5341
vn 0.6798 0.2752 0.6798
vn 0.5341 0.2752 0.7994
vn 0.3679 0.2752 0.8882
vn 0.1876 0.2752 0.9429
vn 0.0000 0.2752 0.9614
vn -0.1876 0.2752 0.9429
vn -0.3679 0.2752 0.8882
vn -0.5341 0.2752 0.7994
vn -0.6798 0.2752 0.6798
vn -0.7994 0.2752 0.5341
vn -0.8882 0.2752 0.3679
vn -0.9429 0.2752 0.1876
vn -0.9614 0.2752 0.0000
vn -0.9429 0.2752 -0.1876
vn -0.8882 0.2752 -0.3679
vn -0.7994 0.2752 -0.5341
vn -0.6798 0.2752 -0.6798
vn -0.5341 0.2752 -0.7994
vn -0.3679 0.2752 -0.8882
vn -0.1876 0.2752 -0.9429
vn -0.0000 0.2752 -0.9614
vn 0.1876 0.2752 -0.9429
vn 0.3679 0.2752 -0.8882
vn 0.5341 0.2752 -0.7994
vn 0.6798 0.2752 -0.6798
vn 0.7994 0.2752 -0.5341
vn 0.8882 0.2752 -0.3679
vn 0.9429 0.2752 -0.1876
vn 0.9285 0.3714 0.0000
vn 0.9106 0.3714 0.1811
vn 0.8578 0.3714 0.3553
vn 0.7720 0.3714 0.5158
vn 0.6565 0.3714 0.6565
vn 0.5158 0.3714 0.7720
vn 0.3553 0.3714 0.8578
vn 0.1811 0.3714 0.9106
vn 0.0000 0.3714 0.9285
vn -0.1811 0.3714 0.9106
vn -0.3553 0.3714 0.8578
vn -0.5158 0.3714 0.7720
vn -0.6565 0.3714 0.6565
vn -0.7720 0.3714 0.5158
vn -0.8578 0.3714 0.3553
vn -0.9106 0.3714 0.1811
vn -0.9285 0.3714 0.0000
vn -0.9106 0.3714 -0.1811
vn -0.8578 0.3714 -0.3553
vn -0.7720 0.3714 -0.5158
vn -0.6565 0.3714 -0.6565
vn -0.5158 0.3714 -0.7720
vn -0.3553 0.3714 -0.8578
vn -0.1811 0.3714 -0.9106
vn -0.0000 0.3714 -0.9285
vn 0.1811 0.3714 -0.9106
vn 0.3553 0.3714 -0.8578
vn 0.5158 0.3714 -0.7720
vn 0.6565 0.3714 -0.6565
vn 0.7720 0.3714 -0.5158
vn 0.8578 0.3714 -0.3553
vn 0.9106 0.3714 -0.1811
vn -0.8192 0.5735 -0.0000
vn -0.8035 0.5735 -0.1598
vn -0.7569 0.5735 -0.3135
vn -0.6812 0.5735 -0.4551
vn -0.5793 0.5735 -0.5793
vn -0.4551 0.5735 -0.6812
vn -0.3135 0.5735 -0.7569
vn -0.1598 0.5735 -0.8035
vn -0.0000 0.5735 -0.8192
vn 0.1598 0.5735 -0.8035
vn 0.3135 0.5735 -0.7569
vn 0.4551 0.5735 -0.6812
vn 0.5793 0.5735 -0.5793
vn 0.6812 0.5735 -0.4551
vn 0.7569 0.5735 -0.3135
vn 0.8035 0.5735 -0.1598
vn 0.8192 0.5735 -0.0000
vn 0.8035 0.5735 0.1598
vn 0.7569 0.5735 0.3135
vn 0.6812 0.5735 0.4551
vn 0.5793 0.5735 0.5793
vn 0.4551 0.5735 0.6812
vn 0.3135 0.5735 0.7569
vn 0.1598 0.5735 0.8035
vn 0.0000 0.5735 0.8192
vn -0.1598 0.5735 0.8035
vn -0.3135 0.5735 0.7569
vn -0.4551 0.5735 0.6812
vn -0.5793 0.5735 0.5793
vn -0.6812 0.5735 0.4551
vn -0.7569 0.5735 0.3135
vn -0.8035 0.5735 0.1598
vn -0.9806 0.1961 -0.0000
vn -0.9617 0.1961 -0.1913
vn -0.9059 0.1961 -0.3753
vn -0.8153 0.1961 -0.5448
vn -0.6934 0.1961 -0.6934
vn -0.5448 0.1961 -0.8153
vn -0.3753 0.1961 -0.9059
vn -0.1913 0.1961 -0.9617
vn -0.0000 0.1961 -0.9806
vn 0.1913 0.1961 -0.9617
vn 0.3753 0.1961 -0.9059
vn 0.5448 0.1961 -0.8153
vn 0.6934 0.1961 -0.6934
vn 0.8153 0.1961 -0.5448
vn 0.9059 0.1961 -0.3753
vn 0.9617 0.1961 -0.1913
vn 0.9806 0.1961 -0.0000
vn 0.9617 0.1961 0.1913
vn 0.9059 0.1961 0.3753
vn 0.8153 0.1961 0.5448
vn 0.6934 0.1961 0.6934
vn 0.5448 0.1961 0.8153
vn 0.3753 0.1961 0.9059
vn 0.1913 0.1961 0.9617
vn 0.0000 0.1961 0.9806
vn -0.1913 0.1961 0.9617
vn -0.3753 0.1961 0.9059
vn -0.5448 0.1961 0.8153
vn -0.6934 0.1961 0.6934
vn -0.8153 0.1961 0.5448
vn -0.9059 0.1961 0.3753
vn -0.9617 0.1961 0.1913
f 482//482 483//483 451//451 450//450
f 483//483 484//484 452//452 451//451
f 484//484 485//485 453//453 452//452
f 485//485 486//486 454//454 453//453
f 486//486 487//487 455//455 454//454
f 487//487 488//488 456//456 455//455
f 488//488 489//489 457//457 456//456
f 489//489 490//490 458//458 457//457
f 490//490 491//491 459//459 458//458
f 491//491 492//492 460//460 459//459
f 492//492 493//493 461//461 460//460
f 493//493 494//494 462//462 461//461
f 494//494 495//495 463//463 462//462
f 495//495 496//496 464//464 463//463
f 496//496 497//497 465//465 464//464
f 497//497 498//498 466//466 465//465
f 498//498 499//499 467//467 466//466
f 499//499 500//500 468//468 467//467
f 500//500 501//501 469//469 468//468
f 501//501 502//502 470//470 469//469
f 502//502 503//503 471//471 470//470
f 503//503 504//504 472//472 471//471
f 504//504 505//505 473//473 472//472
f 505//505 506//506 474//474 473//473
f 506//506 507//507 475//475 474//474
f 507//507 508//508 476//476 475//475
f 508//508 509//509 477//477 476//476
f 509//509 510//510 478//478 477//477
f 510//510 511//511 479//479 478//478
f 511//511 512//512 480//480 479//479
f 512//512 513//513 481//481 480//480
f 513//513 482//482 450//450 481//481
f 514//514 515//515 483//483 482//482
f 515//515 516//516 484//484 483//483
f 516//516 517//517 485//485 484//484
f 517//517 518//518 486//486 485//485
f 518//518 519//519 487//487 486//486
f 519//519 520//520 488//488 487//487
f 520//520 521//521 489//489 488//488
f 521//521 522//522 490//490 489//489
f 522//522 523//523 491//491 490//490
f 523//523 524//524 492//492 491//491
f 524//524 525//525 493//493 492//492
f 525//525 526//526 494//494 493//493
f 526//526 527//527 495//495 494//494
f 527//527 528//528 496//496 495//495
f 528//528 529//529 497//497 496//496
f 529//529 530//530 498//498 497//497
f 530//530 531//531 499//499 498//498
f 531//531 532//532 500//500 499//499
f 532//532 533//533 501//501 500//500
f 533//533 534//534 502//502 501//501
f 534//534 535//535 503//503 502//502
f 535//535 536//536 504//504 503//503
f 536//536 537//537 505//505 504//504
f 537//537 538//538 506//506 505//505
f 538//538 539//539 507//507 506//506
f 539//539 540//540 508//508 507//507
f 540//540 541//541 509//509 508//508
f 541//541 542//542 510//510 509//509
f 542//542 543//543 511//511 510//510
f 543//543 544//544 512//512 511//511
f 544//544 545//545 513//513 512//512
f 545//545 514//514 482//482 513//513
f 546//546 547//547 515//515 514//514
f 547//547 548//548 516//516 515//515
f 548//548 549//549 517//517 516//516
f 549//549 550//550 518//518 517//517
f 550//550 551//551 519//519 518//518
f 551//551 552//552 520//520 519//519
f 552//552 553//553 521//521 520//520
f 553//553 554//554 522//522 521//521
f 554//554 555//555 523//523 522//522
f 555//555 556//556 524//524 523//523
f 556//556 557//557 525//525 524//524
f 557//557 558//558 526//526 525//525
f 558//558 559//559 527//527 526//526
f 559//559 560//560 528//528 527//527
f 560//560 561//561 529//529 528//528
f 561//561 562//562 530//530 529//529
f 562//562 563//563 531//531 530//530
f 563//563 564//564 532//532 531//531
f 564//564 565//565 533//533 532//532
f 565//565 566//566 534//534 533//533
f 566//566 567//567 535//535 534//534
f 567//567 568//568 536//536 535//535
f 568//568 569//569 537//537 536//536
f 569//569 570//570 538//538 537//537
f 570//570 571//571 539//539 538//538
f 571//571 572//572 540//540 539//539
f 572//572 573//573 541//541 540//540
f 573//573 574//574 542//542 541//541
f 574//574 575//575 543//543 542//542
f 575//575 576//576 544//544 543//543
f 576//576 577//577 545//545 544//544
f 577//577 546//546 514//514 545//545
f 578//578 579//579 547//547 546//546
f 579//579 580//580 548//548 547//547
f 580//580 581//581 549//549 548//548
f 581//581 582//582 550//550 549//549
f 582//582 583//583 551//551 550//550
f 583//583 584//584 552//552 551//551
f 584//584 585//585 553//553 552//552
f 585//585 586//586 554//554 553//553
f 586//586 587//587 555//555 554//554
f 587//587 588//588 556//556 555//555
f 588//588 589//589 557//557 556//556
f 589//589 590//590 558//558 557//557
f 590//590 591//591 559//559 558//558
f 591//591 592//592 560//560 559//559
f 592//592 593//593 561//561 560//560
f 593//593 594//594 562//562 561//561
f 594//594 595//595 563//563 562//562
f 595//595 596//596 564//564 563//563
f 596//596 597//597 565//565 564//564
f 597//597 598//598 566//566 565//565
f 598//598 599//599 567//567 566//566
f 599//599 600//600 568//568 567//567
f 600//600 601//601 569//569 568//568
f 601//601 602//602 570//570 569//569
f 602//602 603//603 571//571 570//570
f 603//603 604//604 572//572 571//571
f 604//604 605//605 573//573 572//572
f 605//605 606//606 574//574 573//573
f 606//606 607//607 575//575 574//574
f 607//607 608//608 576//576 575//575
f 608//608 609//609 577//577 576//576
f 609//609 578//578 546//546 577//577
f 610//610 611//611 579//579 578//578
f 611//611 612//612 580//580 579//579
f 612//612 613//613 581//581 580//580
f 613//613 614//614 582//582 581//581
f 614//614 615//615 583//583 582//582
f 615//615 616//616 584//584 583//583
f 616//616 617//617 585//585 584//584
f 617//617 618//618 586//586 585//585
f 618//618 619//619 587//587 586//586
f 619//619 620//620 588//588 587//587
f 620//620 621//621 589//589 588//588
f 621//621 622//622 590//590 589//589
f 622//622 623//623 591//591 590//590
f 623//623 624//624 592//592 591//591
f 624//624 625//625 593//593 592//592
f 625//625 626//626 594//594 593//593
f 626//626 627//627 595//595 594//594
f 627//627 628//628 596//596 595//595
f 628//628 629//629 597//597 596//596
f 629//629 630//630 598//598 597//597
f 630//630 631//631 599//599 598//598
f 631//631 632//632 600//600 599//599
f 632//632 633//633 601//601 600//600
f 633//633 634//634 602//602 601//601
f 634//634 635//635 603//603 602//602
f 635//635 636//636 604//604 603//603
f 636//636 637//637 605//605 604//604
f 637//637 638//638 606//606 605//605
f 638//638 639//639 607//607 606//606
f 639//639 640//640 608//608 607//607
f 640//640 641//641 609//609 608//608
f 641//641 610//610 578//578 609//609
g part7
usemtl lid
v 0.03283 0.07125 0.00000
v 0.03219 0.07125 0.00640
v 0.03033 0.07125 0.01256
v 0.02729 0.07125 0.01824
v 0.02321 0.07125 0.02321
v 0.01824 0.07125 0.02729
v 0.01256 0.07125 0.03033
v 0.00640 0.07125 0.03219
v 0.00000 0.07125 0.03283
v -0.00640 0.07125 0.03219
v -0.01256 0.07125 0.03033
v -0.01824 0.07125 0.02729
v -0.02321 0.07125 0.02321
v -0.02729 0.07125 0.01824
v -0.03033 0.07125 0.01256
v -0.03219 0.07125 0.00640
v -0.03283 0.07125 0.00000
v -0.03219 0.07125 -0.00640
v -0.03033 0.07125 -0.01256
v -0.02729 0.07125 -0.01824
v -0.02321 0.07125 -0.02321
v -0.01824 0.07125 -0.02729
v -0.01256 0.07125 -0.03033
v -0.00640 0.07125 -0.03219
v -0.00000 0.07125 -0.03283
v 0.00640 0.07125 -0.03219
v 0.01256 0.07125 -0.03033
v 0.01824 0.07125 -0.02729
v 0.02321 0.07125 -0.02321
v 0.02729 0.07125 -0.01824
v 0.03033 0.07125 -0.01256
v 0.03219 0.07125 -0.00640
v 0.00000 0.07125 0.00000
vn 0.0000 1.0000 0.0000
vn 0.0000 1.0000 0.0000
vn 0.0000 1.0000 0.0000
vn 0.0000 1.0000 0.0000
vn 0.0000 1.0000 0.0000
vn 0.0000 1.0000 0.0000
vn 0.0000 1.0000 0.0000
vn 0.0000 1.0000 0.0000
vn 0.0000 1.0000 0.0000
vn -0.0000 1.0000 0.0000
vn -0.0000 1.0000 0.0000
vn -0.0000 1.0000 0.0000
vn -0.0000 1.0000 0.0000
vn -0.0000 1.0000 0.0000
vn -0.0000 1.0000 0.0000
vn -0.0000 1.0000 0.0000
vn -0.0000 1.0000 0.0000
vn -0.0000 1.0000 -0.0000
vn -0.0000 1.0000 -0.0000
vn -0.0000 1.0000 -0.0000
vn -0.0000 1.0000 -0.0000
vn -0.0000 1.0000 -0.0000
vn -0.0000 1.0000 -0.0000
vn -0.0000 1.0000 -0.0000
vn -0.0000 1.0000 -0.0000
vn 0.0000 1.0000 -0.0000
vn 0.0000 1.0000 -0.0000
vn 0.0000 1.0000 -0.0000
vn 0.0000 1.0000 -0.0000
vn 0.0000 1.0000 -0.0000
vn 0.0000 1.0000 -0.0000
vn 0.0000 1.0000 -0.0000
vn 0.0000 1.0000 0.0000
f 674//674 643//643 642//642
f 674//674 644//644 643//643
f 674//674 645//645 644//644
f 674//674 646//646 645//645
f 674//674 647//647 646//646
f 674//674 648//648 647//647
f 674//674 649//649 648//648
f 674//674 650//650 649//649
f 674//674 651//651 650//650
f 674//674 652//652 651//651
f 674//674 653//653 652//652
f 674//674 654//654 653//653
f 674//674 655//655 654//654
f 674//674 656//656 655//655
f 674//674 657//657 656//656
f 674//674 658//658 657//657
f 674//674 659//659 658//658
f 674//674 660//660 659//659
f 674//674 661//661 660//660
f 674//674 662//662 661//661
f 674//674 663//663 662//662
f 674//674 664//664 663//663
f 674//674 665//665 664//664
f 674//674 666//666 665//665
f 674//674 667//667 666//666
f 674//674 668//668 667//667
f 674//674 669//669 668//668
f 674//674 670//670 669//669
f 674//674 671//671 670//670
f 674//674 672//672 671//671
f 674//674 673//673 672//672
f 674//674 642//642 673//673
g part8
usemtl tab
v -0.00750 0.07125 -0.00500
v -0.00750 0.07275 -0.00500
v -0.00750 0.07275 0.02000
v -0.00750 0.07125 0.02000
v 0.00750 0.07125 -0.00500
v 0.00750 0.07275 -0.00500
v 0.00750 0.07275 0.02000
v 0.00750 0.07125 0.02000
v -0.00750 0.07125 -0.00500
v 0.00750 0.07125 -0.00500
v 0.00750 0.07125 0.02000
v -0.00750 0.07125 0.02000
v -0.00750 0.07275 -0.00500
v 0.00750 0.07275 -0.00500
v 0.00750 0.07275 0.02000
v -0.00750 0.07275 0.02000
v -0.00750 0.07125 -0.00500
v 0.00750 0.07125 -0.00500
v 0.00750 0.07275 -0.00500
v -0.00750 0.07275 -0.00500
v -0.00750 0.07125 0.02000
v 0.00750 0.07125 0.02000
v 0.00750 0.07275 0.02000
v -0.00750 0.07275 0.02000
vn -1.0000 0.0000 0.0000
vn -1.0000 0.0000 0.0000
vn -1.0000 0.0000 0.0000
vn -1.0000 0.0000 0.0000
vn 1.0000 0.0000 0.0000
vn 1.0000 0.0000 0.0000
vn 1.0000 0.0000 0.0000
vn 1.0000 0.0000 0.0000
vn 0.0000 -1.0000 0.0000
vn 0.0000 -1.0000 0.0000
vn 0.0000 -1.0000 0.0000
vn 0.0000 -1.0000 0.0000
vn 0.0000 1.0000 0.0000
vn 0.0000 1.0000 0.0000
vn 0.0000 1.0000 0.0000
vn 0.0000 1.0000 0.0000
vn 0.0000 0.0000 -1.0000
vn 0.0000 0.0000 -1.0000
vn 0.0000 0.0000 -1.0000
vn 0.0000 0.0000 -1.0000
vn 0.0000 0.0000 1.0000
vn 0.0000 0.0000 1.0000
vn 0.0000 0.0000 1.0000
vn 0.0000 0.0000 1.0000
f 678//678 677//677 676//676 675//675
f 679//679 680//680 681//681 682//682
f 683//683 684//684 685//685 686//686
f 690//690 689//689 688//688 687//687
f 694//694 693//693 692//692 691//691
f 695//695 696//696 697//697 698//698
g part9
usemtl tab
v -0.00150 0.07125 -0.00250
v -0.00150 0.07425 -0.00250
v -0.00150 0.07425 0.00000
v -0.00150 0.07125 0.00000
v 0.00150 0.07125 -0.00250
v 0.00150 0.07425 -0.00250
v 0.00150 0.07425 0.00000
v 0.00150 0.07125 0.00000
v -0.00150 0.07125 -0.00250
v 0.00150 0.07125 -0.00250
v 0.00150 0.07125 0.00000
v -0.00150 0.07125 0.00000
v -0.00150 0.07425 -0.00250
v 0.00150 0.07425 -0.00250
v 0.00150 0.07425 0.00000
v -0.00150 0.07425 0.00000
v -0.00150 0.07125 -0.00250
v 0.00150 0.07125 -0.00250
v 0.00150 0.07425 -0.00250
v -0.00150 0.07425 -0.00250
v -0.00150 0.07125 0.00000
v 0.00150 0.07125 0.00000
v 0.00150 0.07425 0.00000
v -0.00150 0.07425 0.00000
vn -1.0000 0.0000 0.0000
vn -1.0000 0.0000 0.0000
vn -1.0000 0.0000 0.0000
vn -1.0000 0.0000 0.0000
vn 1.0000 0.0000 0.0000
vn 1.0000 0.0000 0.0000
vn 1.0000 0.0000 0.0000
vn 1.0000 0.0000 0.0000
vn 0.0000 -1.0000 0.0000
vn 0.0000 -1.0000 0.0000
vn 0.0000 -1.0000 0.0000
vn 0.0000 -1.0000 0.0000
vn 0.0000 1.0000 0.0000
vn 0.0000 1.0000 0.0000
vn 0.0000 1.0000 0.0000
vn 0.0000 1.0000 0.0000
vn 0.0000 0.0000 -1.0000
vn 0.0000 0.0000 -1.0000
vn 0.0000 0.0000 -1.0000
vn 0.0000 0.0000 -1.0000
vn 0.0000 0.0000 1.0000
vn 0.0000 0.0000 1.0000
vn 0.0000 0.0000 1.0000
vn 0.0000 0.0000 1.0000
f 702//702 701//701 700//700 699//699
f 703//703 704//704 705//705 706//706
f 707//707 708//708 709//709 710//710
f 714//714 713//713 712//712 711//711
f 718//718 717//717 716//716 715//715
f 719//719 720//720 721//721 722//722
