# generated by generate_dashboard.py: the orange lost-tyre lamp
mtllib dashboard_tire.mtl
o dashboard_tire
g part0
usemtl tire
v 0.27350 1.85628 2.76048
v 0.27285 1.85910 2.76210
v 0.27101 1.86149 2.76348
v 0.26825 1.86309 2.76440
v 0.26500 1.86365 2.76472
v 0.26175 1.86309 2.76440
v 0.25899 1.86149 2.76348
v 0.25715 1.85910 2.76210
v 0.25650 1.85628 2.76048
v 0.25715 1.85346 2.75886
v 0.25899 1.85107 2.75749
v 0.26175 1.84948 2.75657
v 0.26500 1.84892 2.75625
v 0.26825 1.84948 2.75657
v 0.27101 1.85107 2.75749
v 0.27285 1.85346 2.75886
v 0.27350 1.85803 2.75745
v 0.27285 1.86085 2.75907
v 0.27101 1.86324 2.76045
v 0.26825 1.86484 2.76136
v 0.26500 1.86540 2.76169
v 0.26175 1.86484 2.76136
v 0.25899 1.86324 2.76045
v 0.25715 1.86085 2.75907
v 0.25650 1.85803 2.75745
v 0.25715 1.85521 2.75583
v 0.25899 1.85282 2.75445
v 0.26175 1.85122 2.75353
v 0.26500 1.85066 2.75321
v 0.26825 1.85122 2.75353
v 0.27101 1.85282 2.75445
v 0.27285 1.85521 2.75583
f 1 2 3 4 5 6 7 8 9 10 11 12 13 14 15 16
f 32 31 30 29 28 27 26 25 24 23 22 21 20 19 18 17
f 1 17 18 2
f 2 18 19 3
f 3 19 20 4
f 4 20 21 5
f 5 21 22 6
f 6 22 23 7
f 7 23 24 8
f 8 24 25 9
f 9 25 26 10
f 10 26 27 11
f 11 27 28 12
f 12 28 29 13
f 13 29 30 14
f 14 30 31 15
f 15 31 32 16
f 16 32 17 1
