# generated by generate_dashboard.py: what lights up with the front lights
mtllib dashboard_glow.mtl
o dashboard_glow
g part0
usemtl glowtick
v 0.73260 1.70915 2.65569
v 0.73977 1.70293 2.65212
v 0.74296 1.70569 2.65371
v 0.73579 1.71191 2.65728
v 0.73260 1.70990 2.65439
v 0.73977 1.70368 2.65082
v 0.74296 1.70644 2.65241
v 0.73579 1.71266 2.65598
f 2 3 4 1
f 8 7 6 5
f 5 6 2 1
f 6 7 3 2
f 7 8 4 3
f 8 5 1 4
g part1
usemtl glowtick
v 0.74699 1.73008 2.66773
v 0.75694 1.72837 2.66674
v 0.75781 1.73219 2.66894
v 0.74787 1.73391 2.66993
v 0.74699 1.73083 2.66643
v 0.75694 1.72911 2.66544
v 0.75781 1.73294 2.66764
v 0.74787 1.73465 2.66863
f 10 11 12 9
f 16 15 14 13
f 13 14 10 9
f 14 15 11 10
f 15 16 12 11
f 16 13 9 12
g part2
usemtl glowtick
v 0.74554 1.75441 2.68172
v 0.75491 1.75778 2.68366
v 0.75319 1.76138 2.68573
v 0.74382 1.75802 2.68379
v 0.74554 1.75516 2.68042
v 0.75491 1.75853 2.68236
v 0.75319 1.76213 2.68443
v 0.74382 1.75877 2.68249
f 18 19 20 17
f 24 23 22 21
f 21 22 18 17
f 22 23 19 18
f 23 24 20 19
f 24 21 17 20
g part3
usemtl glowtick
v 0.72874 1.77395 2.69295
v 0.73437 1.78126 2.69716
v 0.73063 1.78342 2.69840
v 0.72500 1.77611 2.69420
v 0.72874 1.77469 2.69165
v 0.73437 1.78200 2.69586
v 0.73063 1.78417 2.69710
v 0.72500 1.77686 2.69290
f 26 27 28 25
f 32 31 30 29
f 29 30 26 25
f 30 31 27 26
f 31 32 28 27
f 32 29 25 28
g part4
usemtl glowtick
v 0.70225 1.78210 2.69764
v 0.70225 1.79089 2.70269
v 0.69775 1.79089 2.70269
v 0.69775 1.78210 2.69764
v 0.70225 1.78284 2.69634
v 0.70225 1.79163 2.70139
v 0.69775 1.79163 2.70139
v 0.69775 1.78284 2.69634
f 34 35 36 33
f 40 39 38 37
f 37 38 34 33
f 38 39 35 34
f 39 40 36 35
f 40 37 33 36
g part5
usemtl glowtick
v 0.67500 1.77611 2.69420
v 0.66937 1.78342 2.69840
v 0.66563 1.78126 2.69716
v 0.67126 1.77395 2.69295
v 0.67500 1.77686 2.69290
v 0.66937 1.78417 2.69710
v 0.66563 1.78200 2.69586
v 0.67126 1.77469 2.69165
f 42 43 44 41
f 48 47 46 45
f 45 46 42 41
f 46 47 43 42
f 47 48 44 43
f 48 45 41 44
g part6
usemtl glowtick
v 0.65618 1.75802 2.68379
v 0.64681 1.76138 2.68573
v 0.64509 1.75778 2.68366
v 0.65446 1.75441 2.68172
v 0.65618 1.75877 2.68249
v 0.64681 1.76213 2.68443
v 0.64509 1.75853 2.68236
v 0.65446 1.75516 2.68042
f 50 51 52 49
f 56 55 54 53
f 53 54 50 49
f 54 55 51 50
f 55 56 52 51
f 56 53 49 52
g part7
usemtl glowtick
v 0.65213 1.73391 2.66993
v 0.64219 1.73219 2.66894
v 0.64306 1.72837 2.66674
v 0.65301 1.73008 2.66773
v 0.65213 1.73465 2.66863
v 0.64219 1.73294 2.66764
v 0.64306 1.72911 2.66544
v 0.65301 1.73083 2.66643
f 58 59 60 57
f 64 63 62 61
f 61 62 58 57
f 62 63 59 58
f 63 64 60 59
f 64 61 57 60
g part8
usemtl glowtick
v 0.66421 1.71191 2.65728
v 0.65704 1.70569 2.65371
v 0.66023 1.70293 2.65212
v 0.66740 1.70915 2.65569
v 0.66421 1.71266 2.65598
v 0.65704 1.70644 2.65241
v 0.66023 1.70368 2.65082
v 0.66740 1.70990 2.65439
f 66 67 68 65
f 72 71 70 69
f 69 70 66 65
f 70 71 67 66
f 71 72 68 67
f 72 69 65 68
g part9
usemtl glowtick
v 0.56301 1.75945 2.68461
v 0.57179 1.76384 2.68714
v 0.56954 1.76722 2.68908
v 0.56076 1.76282 2.68656
v 0.56301 1.76019 2.68331
v 0.57179 1.76459 2.68584
v 0.56954 1.76797 2.68778
v 0.56076 1.76357 2.68526
f 74 75 76 73
f 80 79 78 77
f 77 78 74 73
f 78 79 75 74
f 79 80 76 75
f 80 77 73 76
g part10
usemtl glowtick
v 0.54613 1.77550 2.69385
v 0.55120 1.78312 2.69823
v 0.54730 1.78507 2.69935
v 0.54223 1.77745 2.69497
v 0.54613 1.77625 2.69255
v 0.55120 1.78386 2.69693
v 0.54730 1.78582 2.69805
v 0.54223 1.77820 2.69367
f 82 83 84 81
f 88 87 86 85
f 85 86 82 81
f 86 87 83 82
f 87 88 84 83
f 88 85 81 84
g part11
usemtl glowtick
v 0.52225 1.78210 2.69764
v 0.52225 1.79089 2.70269
v 0.51775 1.79089 2.70269
v 0.51775 1.78210 2.69764
v 0.52225 1.78284 2.69634
v 0.52225 1.79163 2.70139
v 0.51775 1.79163 2.70139
v 0.51775 1.78284 2.69634
f 90 91 92 89
f 96 95 94 93
f 93 94 90 89
f 94 95 91 90
f 95 96 92 91
f 96 93 89 92
g part12
usemtl glowtick
v 0.49777 1.77745 2.69497
v 0.49270 1.78507 2.69935
v 0.48880 1.78312 2.69823
v 0.49387 1.77550 2.69385
v 0.49777 1.77820 2.69367
v 0.49270 1.78582 2.69805
v 0.48880 1.78386 2.69693
v 0.49387 1.77625 2.69255
f 98 99 100 97
f 104 103 102 101
f 101 102 98 97
f 102 103 99 98
f 103 104 100 99
f 104 101 97 100
g part13
usemtl glowtick
v 0.47924 1.76282 2.68656
v 0.47046 1.76722 2.68908
v 0.46821 1.76384 2.68714
v 0.47699 1.75945 2.68461
v 0.47924 1.76357 2.68526
v 0.47046 1.76797 2.68778
v 0.46821 1.76459 2.68584
v 0.47699 1.76019 2.68331
f 106 107 108 105
f 112 111 110 109
f 109 110 106 105
f 110 111 107 106
f 111 112 108 107
f 112 109 105 108
g part14
usemtl glowlcd
v 0.83700 1.65678 2.64404
v 0.93900 1.65678 2.64404
v 0.93900 1.65703 2.64360
v 0.83700 1.65703 2.64360
v 0.83700 1.72526 2.68342
v 0.93900 1.72526 2.68342
v 0.93900 1.72551 2.68298
v 0.83700 1.72551 2.68298
f 113 116 115 114
f 117 118 119 120
f 113 114 118 117
f 114 115 119 118
f 115 116 120 119
f 116 113 117 120
g part15
usemtl glowlamp
v 0.27150 1.85653 2.76005
v 0.27063 1.85935 2.76167
v 0.26825 1.86141 2.76286
v 0.26500 1.86217 2.76329
v 0.26175 1.86141 2.76286
v 0.25937 1.85935 2.76167
v 0.25850 1.85653 2.76005
v 0.25937 1.85372 2.75843
v 0.26175 1.85165 2.75724
v 0.26500 1.85090 2.75681
v 0.26825 1.85165 2.75724
v 0.27063 1.85372 2.75843
v 0.27150 1.85728 2.75875
v 0.27063 1.86010 2.76037
v 0.26825 1.86216 2.76156
v 0.26500 1.86292 2.76199
v 0.26175 1.86216 2.76156
v 0.25937 1.86010 2.76037
v 0.25850 1.85728 2.75875
v 0.25937 1.85446 2.75713
v 0.26175 1.85240 2.75594
v 0.26500 1.85165 2.75551
v 0.26825 1.85240 2.75594
v 0.27063 1.85446 2.75713
f 121 122 123 124 125 126 127 128 129 130 131 132
f 144 143 142 141 140 139 138 137 136 135 134 133
f 121 133 134 122
f 122 134 135 123
f 123 135 136 124
f 124 136 137 125
f 125 137 138 126
f 126 138 139 127
f 127 139 140 128
f 128 140 141 129
f 129 141 142 130
f 130 142 143 131
f 131 143 144 132
f 132 144 133 121
g part16
usemtl glowlamp
v 0.27150 1.78718 2.72017
v 0.27063 1.79000 2.72179
v 0.26825 1.79206 2.72298
v 0.26500 1.79282 2.72341
v 0.26175 1.79206 2.72298
v 0.25937 1.79000 2.72179
v 0.25850 1.78718 2.72017
v 0.25937 1.78436 2.71855
v 0.26175 1.78230 2.71737
v 0.26500 1.78155 2.71693
v 0.26825 1.78230 2.71737
v 0.27063 1.78436 2.71855
v 0.27150 1.78793 2.71887
v 0.27063 1.79075 2.72049
v 0.26825 1.79281 2.72168
v 0.26500 1.79356 2.72211
v 0.26175 1.79281 2.72168
v 0.25937 1.79075 2.72049
v 0.25850 1.78793 2.71887
v 0.25937 1.78511 2.71725
v 0.26175 1.78305 2.71607
v 0.26500 1.78229 2.71563
v 0.26825 1.78305 2.71607
v 0.27063 1.78511 2.71725
f 145 146 147 148 149 150 151 152 153 154 155 156
f 168 167 166 165 164 163 162 161 160 159 158 157
f 145 157 158 146
f 146 158 159 147
f 147 159 160 148
f 148 160 161 149
f 149 161 162 150
f 150 162 163 151
f 151 163 164 152
f 152 164 165 153
f 153 165 166 154
f 154 166 167 155
f 155 167 168 156
f 156 168 157 145
g part17
usemtl glowlamp
v 0.27150 1.71783 2.68029
v 0.27063 1.72065 2.68191
v 0.26825 1.72271 2.68310
v 0.26500 1.72346 2.68353
v 0.26175 1.72271 2.68310
v 0.25937 1.72065 2.68191
v 0.25850 1.71783 2.68029
v 0.25937 1.71501 2.67867
v 0.26175 1.71295 2.67749
v 0.26500 1.71219 2.67705
v 0.26825 1.71295 2.67749
v 0.27063 1.71501 2.67867
v 0.27150 1.71858 2.67899
v 0.27063 1.72139 2.68061
v 0.26825 1.72346 2.68180
v 0.26500 1.72421 2.68223
v 0.26175 1.72346 2.68180
v 0.25937 1.72139 2.68061
v 0.25850 1.71858 2.67899
v 0.25937 1.71576 2.67737
v 0.26175 1.71370 2.67619
v 0.26500 1.71294 2.67575
v 0.26825 1.71370 2.67619
v 0.27063 1.71576 2.67737
f 169 170 171 172 173 174 175 176 177 178 179 180
f 192 191 190 189 188 187 186 185 184 183 182 181
f 169 181 182 170
f 170 182 183 171
f 171 183 184 172
f 172 184 185 173
f 173 185 186 174
f 174 186 187 175
f 175 187 188 176
f 176 188 189 177
f 177 189 190 178
f 178 190 191 179
f 179 191 192 180
f 180 192 181 169
g part18
usemtl glowlamp
v 0.15150 1.85653 2.76005
v 0.15063 1.85935 2.76167
v 0.14825 1.86141 2.76286
v 0.14500 1.86217 2.76329
v 0.14175 1.86141 2.76286
v 0.13937 1.85935 2.76167
v 0.13850 1.85653 2.76005
v 0.13937 1.85372 2.75843
v 0.14175 1.85165 2.75724
v 0.14500 1.85090 2.75681
v 0.14825 1.85165 2.75724
v 0.15063 1.85372 2.75843
v 0.15150 1.85728 2.75875
v 0.15063 1.86010 2.76037
v 0.14825 1.86216 2.76156
v 0.14500 1.86292 2.76199
v 0.14175 1.86216 2.76156
v 0.13937 1.86010 2.76037
v 0.13850 1.85728 2.75875
v 0.13937 1.85446 2.75713
v 0.14175 1.85240 2.75594
v 0.14500 1.85165 2.75551
v 0.14825 1.85240 2.75594
v 0.15063 1.85446 2.75713
f 193 194 195 196 197 198 199 200 201 202 203 204
f 216 215 214 213 212 211 210 209 208 207 206 205
f 193 205 206 194
f 194 206 207 195
f 195 207 208 196
f 196 208 209 197
f 197 209 210 198
f 198 210 211 199
f 199 211 212 200
f 200 212 213 201
f 201 213 214 202
f 202 214 215 203
f 203 215 216 204
f 204 216 205 193
g part19
usemtl glowlamp
v 0.15150 1.78718 2.72017
v 0.15063 1.79000 2.72179
v 0.14825 1.79206 2.72298
v 0.14500 1.79282 2.72341
v 0.14175 1.79206 2.72298
v 0.13937 1.79000 2.72179
v 0.13850 1.78718 2.72017
v 0.13937 1.78436 2.71855
v 0.14175 1.78230 2.71737
v 0.14500 1.78155 2.71693
v 0.14825 1.78230 2.71737
v 0.15063 1.78436 2.71855
v 0.15150 1.78793 2.71887
v 0.15063 1.79075 2.72049
v 0.14825 1.79281 2.72168
v 0.14500 1.79356 2.72211
v 0.14175 1.79281 2.72168
v 0.13937 1.79075 2.72049
v 0.13850 1.78793 2.71887
v 0.13937 1.78511 2.71725
v 0.14175 1.78305 2.71607
v 0.14500 1.78229 2.71563
v 0.14825 1.78305 2.71607
v 0.15063 1.78511 2.71725
f 217 218 219 220 221 222 223 224 225 226 227 228
f 240 239 238 237 236 235 234 233 232 231 230 229
f 217 229 230 218
f 218 230 231 219
f 219 231 232 220
f 220 232 233 221
f 221 233 234 222
f 222 234 235 223
f 223 235 236 224
f 224 236 237 225
f 225 237 238 226
f 226 238 239 227
f 227 239 240 228
f 228 240 229 217
g part20
usemtl glowlamp
v 0.15150 1.71783 2.68029
v 0.15063 1.72065 2.68191
v 0.14825 1.72271 2.68310
v 0.14500 1.72346 2.68353
v 0.14175 1.72271 2.68310
v 0.13937 1.72065 2.68191
v 0.13850 1.71783 2.68029
v 0.13937 1.71501 2.67867
v 0.14175 1.71295 2.67749
v 0.14500 1.71219 2.67705
v 0.14825 1.71295 2.67749
v 0.15063 1.71501 2.67867
v 0.15150 1.71858 2.67899
v 0.15063 1.72139 2.68061
v 0.14825 1.72346 2.68180
v 0.14500 1.72421 2.68223
v 0.14175 1.72346 2.68180
v 0.13937 1.72139 2.68061
v 0.13850 1.71858 2.67899
v 0.13937 1.71576 2.67737
v 0.14175 1.71370 2.67619
v 0.14500 1.71294 2.67575
v 0.14825 1.71370 2.67619
v 0.15063 1.71576 2.67737
f 241 242 243 244 245 246 247 248 249 250 251 252
f 264 263 262 261 260 259 258 257 256 255 254 253
f 241 253 254 242
f 242 254 255 243
f 243 255 256 244
f 244 256 257 245
f 245 257 258 246
f 246 258 259 247
f 247 259 260 248
f 248 260 261 249
f 249 261 262 250
f 250 262 263 251
f 251 263 264 252
f 252 264 253 241
