# generated by generate_dashboard.py
mtllib dashboard.mtl
o dashboard
g part0
usemtl vinyl
v -1.15000 1.30000 3.50000
v -1.15000 1.78000 3.50000
v -1.15000 1.80000 3.20000
v -1.15000 1.77000 2.95000
v -1.15000 1.70000 2.78000
v -1.15000 1.30000 2.55000
v 1.15000 1.30000 3.50000
v 1.15000 1.78000 3.50000
v 1.15000 1.80000 3.20000
v 1.15000 1.77000 2.95000
v 1.15000 1.70000 2.78000
v 1.15000 1.30000 2.55000
f 1 2 3 4 5 6
f 12 11 10 9 8 7
f 1 7 8 2
f 2 8 9 3
f 3 9 10 4
f 4 10 11 5
f 5 11 12 6
f 6 12 7 1
g part1
usemtl panel
v -1.15000 1.05000 2.55000
v -1.15000 1.05000 3.50000
v -1.15000 1.30000 3.50000
v -1.15000 1.30000 2.55000
v 1.15000 1.05000 2.55000
v 1.15000 1.05000 3.50000
v 1.15000 1.30000 3.50000
v 1.15000 1.30000 2.55000
f 13 14 15 16
f 20 19 18 17
f 13 17 18 14
f 14 18 19 15
f 15 19 20 16
f 16 20 17 13
g part2
usemtl orange
v -1.15000 1.20000 2.54600
v 1.15000 1.20000 2.54600
v 1.15000 1.20000 2.55000
v -1.15000 1.20000 2.55000
v -1.15000 1.24000 2.54600
v 1.15000 1.24000 2.54600
v 1.15000 1.24000 2.55000
v -1.15000 1.24000 2.55000
f 22 23 24 21
f 28 27 26 25
f 25 26 22 21
f 26 27 23 22
f 27 28 24 23
f 28 25 21 24
g part3
usemtl teal
v -1.15000 1.24000 2.54600
v 1.15000 1.24000 2.54600
v 1.15000 1.24000 2.55000
v -1.15000 1.24000 2.55000
v -1.15000 1.28000 2.54600
v 1.15000 1.28000 2.54600
v 1.15000 1.28000 2.55000
v -1.15000 1.28000 2.55000
f 30 31 32 29
f 36 35 34 33
f 33 34 30 29
f 34 35 31 30
f 35 36 32 31
f 36 33 29 32
g part4
usemtl vinyl
v 0.00000 1.45000 2.58500
v 0.00000 1.45000 3.10000
v 0.00000 1.92000 3.10000
v 0.00000 1.92000 2.81500
v 0.00000 1.52000 2.58500
v 1.00000 1.45000 2.58500
v 1.00000 1.45000 3.10000
v 1.00000 1.92000 3.10000
v 1.00000 1.92000 2.81500
v 1.00000 1.52000 2.58500
f 37 38 39 40 41
f 46 45 44 43 42
f 37 42 43 38
f 38 43 44 39
f 39 44 45 40
f 40 45 46 41
f 41 46 42 37
g part5
usemtl slot
v -1.00000 1.78000 3.30000
v -0.08000 1.78000 3.30000
v -0.08000 1.78000 3.40000
v -1.00000 1.78000 3.40000
v -1.00000 1.79700 3.30000
v -0.08000 1.79700 3.30000
v -0.08000 1.79700 3.40000
v -1.00000 1.79700 3.40000
f 48 49 50 47
f 54 53 52 51
f 51 52 48 47
f 52 53 49 48
f 53 54 50 49
f 54 51 47 50
g part6
usemtl slot
v 0.08000 1.78000 3.30000
v 1.00000 1.78000 3.30000
v 1.00000 1.78000 3.40000
v 0.08000 1.78000 3.40000
v 0.08000 1.79700 3.30000
v 1.00000 1.79700 3.30000
v 1.00000 1.79700 3.40000
v 0.08000 1.79700 3.40000
f 56 57 58 55
f 62 61 60 59
f 59 60 56 55
f 60 61 57 56
f 61 62 58 57
f 62 59 55 58
g part7
usemtl cluster
v 0.04000 1.57201 2.61491
v 0.96000 1.57201 2.61491
v 0.96000 1.57600 2.60797
v 0.04000 1.57600 2.60797
v 0.04000 1.87543 2.78937
v 0.96000 1.87543 2.78937
v 0.96000 1.87942 2.78244
v 0.04000 1.87942 2.78244
f 63 66 65 64
f 67 68 69 70
f 63 64 68 67
f 64 65 69 68
f 65 66 70 69
f 66 63 67 70
g part8
usemtl panel
v 0.02000 1.87543 2.78937
v 0.98000 1.87543 2.78937
v 0.98000 1.88241 2.77724
v 0.02000 1.88241 2.77724
v 0.02000 1.89277 2.79934
v 0.98000 1.89277 2.79934
v 0.98000 1.89975 2.78721
v 0.02000 1.89975 2.78721
f 71 74 73 72
f 75 76 77 78
f 71 72 76 75
f 72 73 77 76
f 73 74 78 77
f 74 71 75 78
g part9
usemtl panel
v 0.02000 1.55468 2.60494
v 0.98000 1.55468 2.60494
v 0.98000 1.56165 2.59280
v 0.02000 1.56165 2.59280
v 0.02000 1.57201 2.61491
v 0.98000 1.57201 2.61491
v 0.98000 1.57899 2.60277
v 0.02000 1.57899 2.60277
f 79 82 81 80
f 83 84 85 86
f 79 80 84 83
f 80 81 85 84
f 81 82 86 85
f 82 79 83 86
g part10
usemtl panel
v 0.02000 1.57201 2.61491
v 0.04000 1.57201 2.61491
v 0.04000 1.57899 2.60277
v 0.02000 1.57899 2.60277
v 0.02000 1.87543 2.78937
v 0.04000 1.87543 2.78937
v 0.04000 1.88241 2.77724
v 0.02000 1.88241 2.77724
f 87 90 89 88
f 91 92 93 94
f 87 88 92 91
f 88 89 93 92
f 89 90 94 93
f 90 87 91 94
g part11
usemtl panel
v 0.96000 1.57201 2.61491
v 0.98000 1.57201 2.61491
v 0.98000 1.57899 2.60277
v 0.96000 1.57899 2.60277
v 0.96000 1.87543 2.78937
v 0.98000 1.87543 2.78937
v 0.98000 1.88241 2.77724
v 0.96000 1.88241 2.77724
f 95 98 97 96
f 99 100 101 102
f 95 96 100 99
f 96 97 101 100
f 97 98 102 101
f 98 95 99 102
g part12
usemtl chrome
v 0.77500 1.61935 2.63290
v 0.81500 1.65402 2.65284
v 0.81500 1.80140 2.73758
v 0.77500 1.83607 2.75751
v 0.44500 1.83607 2.75751
v 0.40500 1.80140 2.73758
v 0.40500 1.65402 2.65284
v 0.44500 1.61935 2.63290
v 0.77500 1.62234 2.62770
v 0.81500 1.65701 2.64763
v 0.81500 1.80439 2.73237
v 0.77500 1.83906 2.75231
v 0.44500 1.83906 2.75231
v 0.40500 1.80439 2.73237
v 0.40500 1.65701 2.64763
v 0.44500 1.62234 2.62770
f 103 104 105 106 107 108 109 110
f 118 117 116 115 114 113 112 111
f 103 111 112 104
f 104 112 113 105
f 105 113 114 106
f 106 114 115 107
f 107 115 116 108
f 108 116 117 109
f 109 117 118 110
f 110 118 111 103
g part13
usemtl cluster
v 0.76900 1.63621 2.63567
v 0.79900 1.66222 2.65062
v 0.79900 1.79919 2.72938
v 0.76900 1.82519 2.74434
v 0.45100 1.82519 2.74434
v 0.42100 1.79919 2.72938
v 0.42100 1.66222 2.65062
v 0.45100 1.63621 2.63567
v 0.76900 1.63721 2.63394
v 0.79900 1.66321 2.64889
v 0.79900 1.80018 2.72765
v 0.76900 1.82619 2.74260
v 0.45100 1.82619 2.74260
v 0.42100 1.80018 2.72765
v 0.42100 1.66321 2.64889
v 0.45100 1.63721 2.63394
f 119 120 121 122 123 124 125 126
f 134 133 132 131 130 129 128 127
f 119 127 128 120
f 120 128 129 121
f 121 129 130 122
f 122 130 131 123
f 123 131 132 124
f 124 132 133 125
f 125 133 134 126
f 126 134 127 119
g part14
usemtl chrome
v 0.77800 1.73070 2.69000
v 0.77604 1.74575 2.69866
v 0.77028 1.76004 2.70687
v 0.76098 1.77286 2.71425
v 0.74863 1.78357 2.72040
v 0.73384 1.79162 2.72503
v 0.71736 1.79662 2.72791
v 0.70000 1.79832 2.72888
v 0.68264 1.79662 2.72791
v 0.66616 1.79162 2.72503
v 0.65137 1.78357 2.72040
v 0.63902 1.77286 2.71425
v 0.62972 1.76004 2.70687
v 0.62396 1.74575 2.69866
v 0.62200 1.73070 2.69000
v 0.62396 1.71566 2.68135
v 0.62972 1.70136 2.67313
v 0.63902 1.68854 2.66576
v 0.65137 1.67784 2.65961
v 0.66616 1.66978 2.65497
v 0.68264 1.66478 2.65210
v 0.70000 1.66308 2.65112
v 0.71736 1.66478 2.65210
v 0.73384 1.66978 2.65497
v 0.74863 1.67784 2.65961
v 0.76098 1.68854 2.66576
v 0.77028 1.70136 2.67313
v 0.77604 1.71566 2.68135
v 0.77800 1.73668 2.67960
v 0.77604 1.75173 2.68825
v 0.77028 1.76602 2.69647
v 0.76098 1.77884 2.70384
v 0.74863 1.78955 2.71000
v 0.73384 1.79761 2.71463
v 0.71736 1.80261 2.71751
v 0.70000 1.80430 2.71848
v 0.68264 1.80261 2.71751
v 0.66616 1.79761 2.71463
v 0.65137 1.78955 2.71000
v 0.63902 1.77884 2.70384
v 0.62972 1.76602 2.69647
v 0.62396 1.75173 2.68825
v 0.62200 1.73668 2.67960
v 0.62396 1.72164 2.67095
v 0.62972 1.70734 2.66273
v 0.63902 1.69452 2.65536
v 0.65137 1.68382 2.64920
v 0.66616 1.67576 2.64457
v 0.68264 1.67076 2.64170
v 0.70000 1.66906 2.64072
v 0.71736 1.67076 2.64170
v 0.73384 1.67576 2.64457
v 0.74863 1.68382 2.64920
v 0.76098 1.69452 2.65536
v 0.77028 1.70734 2.66273
v 0.77604 1.72164 2.67095
f 135 136 137 138 139 140 141 142 143 144 145 146 147 148 149 150 151 152 153 154 155 156 157 158 159 160 161 162
f 190 189 188 187 186 185 184 183 182 181 180 179 178 177 176 175 174 173 172 171 170 169 168 167 166 165 164 163
f 135 163 164 136
f 136 164 165 137
f 137 165 166 138
f 138 166 167 139
f 139 167 168 140
f 140 168 169 141
f 141 169 170 142
f 142 170 171 143
f 143 171 172 144
f 144 172 173 145
f 145 173 174 146
f 146 174 175 147
f 147 175 176 148
f 148 176 177 149
f 149 177 178 150
f 150 178 179 151
f 151 179 180 152
f 152 180 181 153
f 153 181 182 154
f 154 182 183 155
f 155 183 184 156
f 156 184 185 157
f 157 185 186 158
f 158 186 187 159
f 159 187 188 160
f 160 188 189 161
f 161 189 190 162
f 162 190 163 135
g part15
usemtl gauge
v 0.76708 1.73070 2.69000
v 0.76540 1.74364 2.69744
v 0.76044 1.75593 2.70451
v 0.75245 1.76696 2.71085
v 0.74182 1.77617 2.71615
v 0.72910 1.78309 2.72013
v 0.71493 1.78740 2.72260
v 0.70000 1.78885 2.72344
v 0.68507 1.78740 2.72260
v 0.67090 1.78309 2.72013
v 0.65818 1.77617 2.71615
v 0.64755 1.76696 2.71085
v 0.63956 1.75593 2.70451
v 0.63460 1.74364 2.69744
v 0.63292 1.73070 2.69000
v 0.63460 1.71776 2.68256
v 0.63956 1.70547 2.67550
v 0.64755 1.69444 2.66916
v 0.65818 1.68524 2.66386
v 0.67090 1.67831 2.65988
v 0.68507 1.67401 2.65740
v 0.70000 1.67255 2.65657
v 0.71493 1.67401 2.65740
v 0.72910 1.67831 2.65988
v 0.74182 1.68524 2.66386
v 0.75245 1.69444 2.66916
v 0.76044 1.70547 2.67550
v 0.76540 1.71776 2.68256
v 0.76708 1.73868 2.67613
v 0.76540 1.75162 2.68357
v 0.76044 1.76391 2.69064
v 0.75245 1.77493 2.69698
v 0.74182 1.78414 2.70228
v 0.72910 1.79107 2.70626
v 0.71493 1.79537 2.70873
v 0.70000 1.79683 2.70957
v 0.68507 1.79537 2.70873
v 0.67090 1.79107 2.70626
v 0.65818 1.78414 2.70228
v 0.64755 1.77493 2.69698
v 0.63956 1.76391 2.69064
v 0.63460 1.75162 2.68357
v 0.63292 1.73868 2.67613
v 0.63460 1.72574 2.66869
v 0.63956 1.71345 2.66163
v 0.64755 1.70242 2.65529
v 0.65818 1.69321 2.64999
v 0.67090 1.68628 2.64601
v 0.68507 1.68198 2.64353
v 0.70000 1.68053 2.64270
v 0.71493 1.68198 2.64353
v 0.72910 1.68628 2.64601
v 0.74182 1.69321 2.64999
v 0.75245 1.70242 2.65529
v 0.76044 1.71345 2.66163
v 0.76540 1.72574 2.66869
f 191 192 193 194 195 196 197 198 199 200 201 202 203 204 205 206 207 208 209 210 211 212 213 214 215 216 217 218
f 246 245 244 243 242 241 240 239 238 237 236 235 234 233 232 231 230 229 228 227 226 225 224 223 222 221 220 219
f 191 219 220 192
f 192 220 221 193
f 193 221 222 194
f 194 222 223 195
f 195 223 224 196
f 196 224 225 197
f 197 225 226 198
f 198 226 227 199
f 199 227 228 200
f 200 228 229 201
f 201 229 230 202
f 202 230 231 203
f 203 231 232 204
f 204 232 233 205
f 205 233 234 206
f 206 234 235 207
f 207 235 236 208
f 208 236 237 209
f 209 237 238 210
f 210 238 239 211
f 211 239 240 212
f 212 240 241 213
f 213 241 242 214
f 214 242 243 215
f 215 243 244 216
f 216 244 245 217
f 217 245 246 218
f 218 246 219 191
g part16
usemtl tick
v 0.73260 1.70765 2.65829
v 0.73977 1.70144 2.65472
v 0.74296 1.70420 2.65631
v 0.73579 1.71041 2.65988
v 0.73260 1.70915 2.65569
v 0.73977 1.70293 2.65212
v 0.74296 1.70569 2.65371
v 0.73579 1.71191 2.65728
f 248 249 250 247
f 254 253 252 251
f 251 252 248 247
f 252 253 249 248
f 253 254 250 249
f 254 251 247 250
g part17
usemtl tick
v 0.74699 1.72859 2.67033
v 0.75694 1.72687 2.66934
v 0.75781 1.73070 2.67154
v 0.74787 1.73241 2.67253
v 0.74699 1.73008 2.66773
v 0.75694 1.72837 2.66674
v 0.75781 1.73219 2.66894
v 0.74787 1.73391 2.66993
f 256 257 258 255
f 262 261 260 259
f 259 260 256 255
f 260 261 257 256
f 261 262 258 257
f 262 259 255 258
g part18
usemtl tick
v 0.74554 1.75292 2.68432
v 0.75491 1.75628 2.68626
v 0.75319 1.75989 2.68833
v 0.74382 1.75652 2.68639
v 0.74554 1.75441 2.68172
v 0.75491 1.75778 2.68366
v 0.75319 1.76138 2.68573
v 0.74382 1.75802 2.68379
f 264 265 266 263
f 270 269 268 267
f 267 268 264 263
f 268 269 265 264
f 269 270 266 265
f 270 267 263 266
g part19
usemtl tick
v 0.72874 1.77245 2.69555
v 0.73437 1.77976 2.69976
v 0.73063 1.78193 2.70100
v 0.72500 1.77462 2.69680
v 0.72874 1.77395 2.69295
v 0.73437 1.78126 2.69716
v 0.73063 1.78342 2.69840
v 0.72500 1.77611 2.69420
f 272 273 274 271
f 278 277 276 275
f 275 276 272 271
f 276 277 273 272
f 277 278 274 273
f 278 275 271 274
g part20
usemtl tick
v 0.70225 1.78060 2.70024
v 0.70225 1.78939 2.70529
v 0.69775 1.78939 2.70529
v 0.69775 1.78060 2.70024
v 0.70225 1.78210 2.69764
v 0.70225 1.79089 2.70269
v 0.69775 1.79089 2.70269
v 0.69775 1.78210 2.69764
f 280 281 282 279
f 286 285 284 283
f 283 284 280 279
f 284 285 281 280
f 285 286 282 281
f 286 283 279 282
g part21
usemtl tick
v 0.67500 1.77462 2.69680
v 0.66937 1.78193 2.70100
v 0.66563 1.77976 2.69976
v 0.67126 1.77245 2.69555
v 0.67500 1.77611 2.69420
v 0.66937 1.78342 2.69840
v 0.66563 1.78126 2.69716
v 0.67126 1.77395 2.69295
f 288 289 290 287
f 294 293 292 291
f 291 292 288 287
f 292 293 289 288
f 293 294 290 289
f 294 291 287 290
g part22
usemtl tick
v 0.65618 1.75652 2.68639
v 0.64681 1.75989 2.68833
v 0.64509 1.75628 2.68626
v 0.65446 1.75292 2.68432
v 0.65618 1.75802 2.68379
v 0.64681 1.76138 2.68573
v 0.64509 1.75778 2.68366
v 0.65446 1.75441 2.68172
f 296 297 298 295
f 302 301 300 299
f 299 300 296 295
f 300 301 297 296
f 301 302 298 297
f 302 299 295 298
g part23
usemtl tick
v 0.65213 1.73241 2.67253
v 0.64219 1.73070 2.67154
v 0.64306 1.72687 2.66934
v 0.65301 1.72859 2.67033
v 0.65213 1.73391 2.66993
v 0.64219 1.73219 2.66894
v 0.64306 1.72837 2.66674
v 0.65301 1.73008 2.66773
f 304 305 306 303
f 310 309 308 307
f 307 308 304 303
f 308 309 305 304
f 309 310 306 305
f 310 307 303 306
g part24
usemtl tick
v 0.66421 1.71041 2.65988
v 0.65704 1.70420 2.65631
v 0.66023 1.70144 2.65472
v 0.66740 1.70765 2.65829
v 0.66421 1.71191 2.65728
v 0.65704 1.70569 2.65371
v 0.66023 1.70293 2.65212
v 0.66740 1.70915 2.65569
f 312 313 314 311
f 318 317 316 315
f 315 316 312 311
f 316 317 313 312
f 317 318 314 313
f 318 315 311 314
g part25
usemtl chrome
v 0.70950 1.74017 2.67353
v 0.70904 1.74272 2.67500
v 0.70769 1.74501 2.67632
v 0.70558 1.74684 2.67736
v 0.70294 1.74801 2.67804
v 0.70000 1.74841 2.67827
v 0.69706 1.74801 2.67804
v 0.69442 1.74684 2.67736
v 0.69231 1.74501 2.67632
v 0.69096 1.74272 2.67500
v 0.69050 1.74017 2.67353
v 0.69096 1.73763 2.67207
v 0.69231 1.73533 2.67075
v 0.69442 1.73351 2.66970
v 0.69706 1.73234 2.66903
v 0.70000 1.73194 2.66880
v 0.70294 1.73234 2.66903
v 0.70558 1.73351 2.66970
v 0.70769 1.73533 2.67075
v 0.70904 1.73763 2.67207
v 0.70950 1.74391 2.66703
v 0.70904 1.74646 2.66849
v 0.70769 1.74875 2.66981
v 0.70558 1.75057 2.67086
v 0.70294 1.75174 2.67153
v 0.70000 1.75215 2.67177
v 0.69706 1.75174 2.67153
v 0.69442 1.75057 2.67086
v 0.69231 1.74875 2.66981
v 0.69096 1.74646 2.66849
v 0.69050 1.74391 2.66703
v 0.69096 1.74137 2.66557
v 0.69231 1.73907 2.66425
v 0.69442 1.73725 2.66320
v 0.69706 1.73608 2.66253
v 0.70000 1.73568 2.66230
v 0.70294 1.73608 2.66253
v 0.70558 1.73725 2.66320
v 0.70769 1.73907 2.66425
v 0.70904 1.74137 2.66557
f 319 320 321 322 323 324 325 326 327 328 329 330 331 332 333 334 335 336 337 338
f 358 357 356 355 354 353 352 351 350 349 348 347 346 345 344 343 342 341 340 339
f 319 339 340 320
f 320 340 341 321
f 321 341 342 322
f 322 342 343 323
f 323 343 344 324
f 324 344 345 325
f 325 345 346 326
f 326 346 347 327
f 327 347 348 328
f 328 348 349 329
f 329 349 350 330
f 330 350 351 331
f 331 351 352 332
f 332 352 353 333
f 333 353 354 334
f 334 354 355 335
f 335 355 356 336
f 336 356 357 337
f 337 357 358 338
f 338 358 339 319
g part26
usemtl chrome
v 0.59800 1.73070 2.69000
v 0.59604 1.74575 2.69866
v 0.59028 1.76004 2.70687
v 0.58098 1.77286 2.71425
v 0.56863 1.78357 2.72040
v 0.55384 1.79162 2.72503
v 0.53736 1.79662 2.72791
v 0.52000 1.79832 2.72888
v 0.50264 1.79662 2.72791
v 0.48616 1.79162 2.72503
v 0.47137 1.78357 2.72040
v 0.45902 1.77286 2.71425
v 0.44972 1.76004 2.70687
v 0.44396 1.74575 2.69866
v 0.44200 1.73070 2.69000
v 0.44396 1.71566 2.68135
v 0.44972 1.70136 2.67313
v 0.45902 1.68854 2.66576
v 0.47137 1.67784 2.65961
v 0.48616 1.66978 2.65497
v 0.50264 1.66478 2.65210
v 0.52000 1.66308 2.65112
v 0.53736 1.66478 2.65210
v 0.55384 1.66978 2.65497
v 0.56863 1.67784 2.65961
v 0.58098 1.68854 2.66576
v 0.59028 1.70136 2.67313
v 0.59604 1.71566 2.68135
v 0.59800 1.73668 2.67960
v 0.59604 1.75173 2.68825
v 0.59028 1.76602 2.69647
v 0.58098 1.77884 2.70384
v 0.56863 1.78955 2.71000
v 0.55384 1.79761 2.71463
v 0.53736 1.80261 2.71751
v 0.52000 1.80430 2.71848
v 0.50264 1.80261 2.71751
v 0.48616 1.79761 2.71463
v 0.47137 1.78955 2.71000
v 0.45902 1.77884 2.70384
v 0.44972 1.76602 2.69647
v 0.44396 1.75173 2.68825
v 0.44200 1.73668 2.67960
v 0.44396 1.72164 2.67095
v 0.44972 1.70734 2.66273
v 0.45902 1.69452 2.65536
v 0.47137 1.68382 2.64920
v 0.48616 1.67576 2.64457
v 0.50264 1.67076 2.64170
v 0.52000 1.66906 2.64072
v 0.53736 1.67076 2.64170
v 0.55384 1.67576 2.64457
v 0.56863 1.68382 2.64920
v 0.58098 1.69452 2.65536
v 0.59028 1.70734 2.66273
v 0.59604 1.72164 2.67095
f 359 360 361 362 363 364 365 366 367 368 369 370 371 372 373 374 375 376 377 378 379 380 381 382 383 384 385 386
f 414 413 412 411 410 409 408 407 406 405 404 403 402 401 400 399 398 397 396 395 394 393 392 391 390 389 388 387
f 359 387 388 360
f 360 388 389 361
f 361 389 390 362
f 362 390 391 363
f 363 391 392 364
f 364 392 393 365
f 365 393 394 366
f 366 394 395 367
f 367 395 396 368
f 368 396 397 369
f 369 397 398 370
f 370 398 399 371
f 371 399 400 372
f 372 400 401 373
f 373 401 402 374
f 374 402 403 375
f 375 403 404 376
f 376 404 405 377
f 377 405 406 378
f 378 406 407 379
f 379 407 408 380
f 380 408 409 381
f 381 409 410 382
f 382 410 411 383
f 383 411 412 384
f 384 412 413 385
f 385 413 414 386
f 386 414 387 359
g part27
usemtl gauge
v 0.58708 1.73070 2.69000
v 0.58540 1.74364 2.69744
v 0.58044 1.75593 2.70451
v 0.57245 1.76696 2.71085
v 0.56182 1.77617 2.71615
v 0.54910 1.78309 2.72013
v 0.53493 1.78740 2.72260
v 0.52000 1.78885 2.72344
v 0.50507 1.78740 2.72260
v 0.49090 1.78309 2.72013
v 0.47818 1.77617 2.71615
v 0.46755 1.76696 2.71085
v 0.45956 1.75593 2.70451
v 0.45460 1.74364 2.69744
v 0.45292 1.73070 2.69000
v 0.45460 1.71776 2.68256
v 0.45956 1.70547 2.67550
v 0.46755 1.69444 2.66916
v 0.47818 1.68524 2.66386
v 0.49090 1.67831 2.65988
v 0.50507 1.67401 2.65740
v 0.52000 1.67255 2.65657
v 0.53493 1.67401 2.65740
v 0.54910 1.67831 2.65988
v 0.56182 1.68524 2.66386
v 0.57245 1.69444 2.66916
v 0.58044 1.70547 2.67550
v 0.58540 1.71776 2.68256
v 0.58708 1.73868 2.67613
v 0.58540 1.75162 2.68357
v 0.58044 1.76391 2.69064
v 0.57245 1.77493 2.69698
v 0.56182 1.78414 2.70228
v 0.54910 1.79107 2.70626
v 0.53493 1.79537 2.70873
v 0.52000 1.79683 2.70957
v 0.50507 1.79537 2.70873
v 0.49090 1.79107 2.70626
v 0.47818 1.78414 2.70228
v 0.46755 1.77493 2.69698
v 0.45956 1.76391 2.69064
v 0.45460 1.75162 2.68357
v 0.45292 1.73868 2.67613
v 0.45460 1.72574 2.66869
v 0.45956 1.71345 2.66163
v 0.46755 1.70242 2.65529
v 0.47818 1.69321 2.64999
v 0.49090 1.68628 2.64601
v 0.50507 1.68198 2.64353
v 0.52000 1.68053 2.64270
v 0.53493 1.68198 2.64353
v 0.54910 1.68628 2.64601
v 0.56182 1.69321 2.64999
v 0.57245 1.70242 2.65529
v 0.58044 1.71345 2.66163
v 0.58540 1.72574 2.66869
f 415 416 417 418 419 420 421 422 423 424 425 426 427 428 429 430 431 432 433 434 435 436 437 438 439 440 441 442
f 470 469 468 467 466 465 464 463 462 461 460 459 458 457 456 455 454 453 452 451 450 449 448 447 446 445 444 443
f 415 443 444 416
f 416 444 445 417
f 417 445 446 418
f 418 446 447 419
f 419 447 448 420
f 420 448 449 421
f 421 449 450 422
f 422 450 451 423
f 423 451 452 424
f 424 452 453 425
f 425 453 454 426
f 426 454 455 427
f 427 455 456 428
f 428 456 457 429
f 429 457 458 430
f 430 458 459 431
f 431 459 460 432
f 432 460 461 433
f 433 461 462 434
f 434 462 463 435
f 435 463 464 436
f 436 464 465 437
f 437 465 466 438
f 438 466 467 439
f 439 467 468 440
f 440 468 469 441
f 441 469 470 442
f 442 470 443 415
g part28
usemtl tick
v 0.56301 1.75795 2.68722
v 0.57179 1.76234 2.68974
v 0.56954 1.76572 2.69169
v 0.56076 1.76133 2.68916
v 0.56301 1.75945 2.68461
v 0.57179 1.76384 2.68714
v 0.56954 1.76722 2.68908
v 0.56076 1.76282 2.68656
f 472 473 474 471
f 478 477 476 475
f 475 476 472 471
f 476 477 473 472
f 477 478 474 473
f 478 475 471 474
g part29
usemtl tick
v 0.54613 1.77401 2.69645
v 0.55120 1.78162 2.70083
v 0.54730 1.78357 2.70195
v 0.54223 1.77596 2.69757
v 0.54613 1.77550 2.69385
v 0.55120 1.78312 2.69823
v 0.54730 1.78507 2.69935
v 0.54223 1.77745 2.69497
f 480 481 482 479
f 486 485 484 483
f 483 484 480 479
f 484 485 481 480
f 485 486 482 481
f 486 483 479 482
g part30
usemtl tick
v 0.52225 1.78060 2.70024
v 0.52225 1.78939 2.70529
v 0.51775 1.78939 2.70529
v 0.51775 1.78060 2.70024
v 0.52225 1.78210 2.69764
v 0.52225 1.79089 2.70269
v 0.51775 1.79089 2.70269
v 0.51775 1.78210 2.69764
f 488 489 490 487
f 494 493 492 491
f 491 492 488 487
f 492 493 489 488
f 493 494 490 489
f 494 491 487 490
g part31
usemtl tick
v 0.49777 1.77596 2.69757
v 0.49270 1.78357 2.70195
v 0.48880 1.78162 2.70083
v 0.49387 1.77401 2.69645
v 0.49777 1.77745 2.69497
v 0.49270 1.78507 2.69935
v 0.48880 1.78312 2.69823
v 0.49387 1.77550 2.69385
f 496 497 498 495
f 502 501 500 499
f 499 500 496 495
f 500 501 497 496
f 501 502 498 497
f 502 499 495 498
g part32
usemtl tick
v 0.47924 1.76133 2.68916
v 0.47046 1.76572 2.69169
v 0.46821 1.76234 2.68974
v 0.47699 1.75795 2.68722
v 0.47924 1.76282 2.68656
v 0.47046 1.76722 2.68908
v 0.46821 1.76384 2.68714
v 0.47699 1.75945 2.68461
f 504 505 506 503
f 510 509 508 507
f 507 508 504 503
f 508 509 505 504
f 509 510 506 505
f 510 507 503 506
g part33
usemtl chrome
v 0.52950 1.74017 2.67353
v 0.52904 1.74272 2.67500
v 0.52769 1.74501 2.67632
v 0.52558 1.74684 2.67736
v 0.52294 1.74801 2.67804
v 0.52000 1.74841 2.67827
v 0.51706 1.74801 2.67804
v 0.51442 1.74684 2.67736
v 0.51231 1.74501 2.67632
v 0.51096 1.74272 2.67500
v 0.51050 1.74017 2.67353
v 0.51096 1.73763 2.67207
v 0.51231 1.73533 2.67075
v 0.51442 1.73351 2.66970
v 0.51706 1.73234 2.66903
v 0.52000 1.73194 2.66880
v 0.52294 1.73234 2.66903
v 0.52558 1.73351 2.66970
v 0.52769 1.73533 2.67075
v 0.52904 1.73763 2.67207
v 0.52950 1.74391 2.66703
v 0.52904 1.74646 2.66849
v 0.52769 1.74875 2.66981
v 0.52558 1.75057 2.67086
v 0.52294 1.75174 2.67153
v 0.52000 1.75215 2.67177
v 0.51706 1.75174 2.67153
v 0.51442 1.75057 2.67086
v 0.51231 1.74875 2.66981
v 0.51096 1.74646 2.66849
v 0.51050 1.74391 2.66703
v 0.51096 1.74137 2.66557
v 0.51231 1.73907 2.66425
v 0.51442 1.73725 2.66320
v 0.51706 1.73608 2.66253
v 0.52000 1.73568 2.66230
v 0.52294 1.73608 2.66253
v 0.52558 1.73725 2.66320
v 0.52769 1.73907 2.66425
v 0.52904 1.74137 2.66557
f 511 512 513 514 515 516 517 518 519 520 521 522 523 524 525 526 527 528 529 530
f 550 549 548 547 546 545 544 543 542 541 540 539 538 537 536 535 534 533 532 531
f 511 531 532 512
f 512 532 533 513
f 513 533 534 514
f 514 534 535 515
f 515 535 536 516
f 516 536 537 517
f 517 537 538 518
f 518 538 539 519
f 519 539 540 520
f 520 540 541 521
f 521 541 542 522
f 522 542 543 523
f 523 543 544 524
f 524 544 545 525
f 525 545 546 526
f 526 546 547 527
f 527 547 548 528
f 528 548 549 529
f 529 549 550 530
f 530 550 531 511
g part34
usemtl redmark
v 0.56363 1.75701 2.68668
v 0.57444 1.76242 2.68979
v 0.57094 1.76768 2.69281
v 0.56013 1.76227 2.68970
v 0.56363 1.75901 2.68321
v 0.57444 1.76441 2.68632
v 0.57094 1.76967 2.68934
v 0.56013 1.76426 2.68623
f 552 553 554 551
f 558 557 556 555
f 555 556 552 551
f 556 557 553 552
f 557 558 554 553
f 558 555 551 554
g part35
usemtl chrome
v 0.83000 1.64535 2.64785
v 0.94600 1.64535 2.64785
v 0.94600 1.64835 2.64265
v 0.83000 1.64835 2.64265
v 0.83000 1.72771 2.69521
v 0.94600 1.72771 2.69521
v 0.94600 1.73070 2.69000
v 0.83000 1.73070 2.69000
f 559 562 561 560
f 563 564 565 566
f 559 560 564 563
f 560 561 565 564
f 561 562 566 565
f 562 559 563 566
g part36
usemtl dial
v 0.83700 1.65528 2.64664
v 0.93900 1.65528 2.64664
v 0.93900 1.65678 2.64404
v 0.83700 1.65678 2.64404
v 0.83700 1.72377 2.68602
v 0.93900 1.72377 2.68602
v 0.93900 1.72526 2.68342
v 0.83700 1.72526 2.68342
f 567 570 569 568
f 571 572 573 574
f 567 568 572 571
f 568 569 573 572
f 569 570 574 573
f 570 567 571 574
g part37
usemtl gauge
v 0.91800 1.66718 2.65002
v 0.93200 1.66718 2.65002
v 0.93200 1.66818 2.64828
v 0.91800 1.66818 2.64828
v 0.91800 1.71486 2.67743
v 0.93200 1.71486 2.67743
v 0.93200 1.71586 2.67570
v 0.91800 1.71586 2.67570
f 575 578 577 576
f 579 580 581 582
f 575 576 580 579
f 576 577 581 580
f 577 578 582 581
f 578 575 579 582
g part38
usemtl gauge
v 0.89500 1.66718 2.65002
v 0.90900 1.66718 2.65002
v 0.90900 1.66818 2.64828
v 0.89500 1.66818 2.64828
v 0.89500 1.71486 2.67743
v 0.90900 1.71486 2.67743
v 0.90900 1.71586 2.67570
v 0.89500 1.71586 2.67570
f 583 586 585 584
f 587 588 589 590
f 583 584 588 587
f 584 585 589 588
f 585 586 590 589
f 586 583 587 590
g part39
usemtl gauge
v 0.87200 1.66718 2.65002
v 0.88600 1.66718 2.65002
v 0.88600 1.66818 2.64828
v 0.87200 1.66818 2.64828
v 0.87200 1.71486 2.67743
v 0.88600 1.71486 2.67743
v 0.88600 1.71586 2.67570
v 0.87200 1.71586 2.67570
f 591 594 593 592
f 595 596 597 598
f 591 592 596 595
f 592 593 597 596
f 593 594 598 597
f 594 591 595 598
g part40
usemtl gauge
v 0.84900 1.66718 2.65002
v 0.86300 1.66718 2.65002
v 0.86300 1.66818 2.64828
v 0.84900 1.66818 2.64828
v 0.84900 1.71486 2.67743
v 0.86300 1.71486 2.67743
v 0.86300 1.71586 2.67570
v 0.84900 1.71586 2.67570
f 599 602 601 600
f 603 604 605 606
f 599 600 604 603
f 600 601 605 604
f 601 602 606 605
f 602 599 603 606
g part41
usemtl chrome
v 0.38900 1.64535 2.64785
v 0.38815 1.65191 2.65162
v 0.38563 1.65814 2.65520
v 0.38158 1.66373 2.65842
v 0.37620 1.66840 2.66110
v 0.36975 1.67191 2.66312
v 0.36257 1.67409 2.66437
v 0.35500 1.67483 2.66480
v 0.34743 1.67409 2.66437
v 0.34025 1.67191 2.66312
v 0.33380 1.66840 2.66110
v 0.32842 1.66373 2.65842
v 0.32437 1.65814 2.65520
v 0.32185 1.65191 2.65162
v 0.32100 1.64535 2.64785
v 0.32185 1.63880 2.64408
v 0.32437 1.63257 2.64050
v 0.32842 1.62698 2.63728
v 0.33380 1.62231 2.63460
v 0.34025 1.61880 2.63258
v 0.34743 1.61662 2.63133
v 0.35500 1.61588 2.63090
v 0.36257 1.61662 2.63133
v 0.36975 1.61880 2.63258
v 0.37620 1.62231 2.63460
v 0.38158 1.62698 2.63728
v 0.38563 1.63257 2.64050
v 0.38815 1.63880 2.64408
v 0.38900 1.65233 2.63571
v 0.38815 1.65889 2.63949
v 0.38563 1.66512 2.64307
v 0.38158 1.67071 2.64628
v 0.37620 1.67538 2.64896
v 0.36975 1.67889 2.65098
v 0.36257 1.68107 2.65224
v 0.35500 1.68181 2.65266
v 0.34743 1.68107 2.65224
v 0.34025 1.67889 2.65098
v 0.33380 1.67538 2.64896
v 0.32842 1.67071 2.64628
v 0.32437 1.66512 2.64307
v 0.32185 1.65889 2.63949
v 0.32100 1.65233 2.63571
v 0.32185 1.64577 2.63194
v 0.32437 1.63954 2.62836
v 0.32842 1.63396 2.62515
v 0.33380 1.62929 2.62246
v 0.34025 1.62578 2.62044
v 0.34743 1.62360 2.61919
v 0.35500 1.62286 2.61877
v 0.36257 1.62360 2.61919
v 0.36975 1.62578 2.62044
v 0.37620 1.62929 2.62246
v 0.38158 1.63396 2.62515
v 0.38563 1.63954 2.62836
v 0.38815 1.64577 2.63194
f 607 608 609 610 611 612 613 614 615 616 617 618 619 620 621 622 623 624 625 626 627 628 629 630 631 632 633 634
f 662 661 660 659 658 657 656 655 654 653 652 651 650 649 648 647 646 645 644 643 642 641 640 639 638 637 636 635
f 607 635 636 608
f 608 636 637 609
f 609 637 638 610
f 610 638 639 611
f 611 639 640 612
f 612 640 641 613
f 613 641 642 614
f 614 642 643 615
f 615 643 644 616
f 616 644 645 617
f 617 645 646 618
f 618 646 647 619
f 619 647 648 620
f 620 648 649 621
f 621 649 650 622
f 622 650 651 623
f 623 651 652 624
f 624 652 653 625
f 625 653 654 626
f 626 654 655 627
f 627 655 656 628
f 628 656 657 629
f 629 657 658 630
f 630 658 659 631
f 631 659 660 632
f 632 660 661 633
f 633 661 662 634
f 634 662 635 607
g part42
usemtl cluster
v 0.38100 1.65233 2.63571
v 0.38035 1.65735 2.63860
v 0.37843 1.66211 2.64134
v 0.37533 1.66639 2.64379
v 0.37121 1.66996 2.64585
v 0.36628 1.67264 2.64739
v 0.36079 1.67431 2.64835
v 0.35500 1.67487 2.64867
v 0.34921 1.67431 2.64835
v 0.34372 1.67264 2.64739
v 0.33879 1.66996 2.64585
v 0.33467 1.66639 2.64379
v 0.33157 1.66211 2.64134
v 0.32965 1.65735 2.63860
v 0.32900 1.65233 2.63571
v 0.32965 1.64732 2.63283
v 0.33157 1.64255 2.63009
v 0.33467 1.63828 2.62763
v 0.33879 1.63471 2.62558
v 0.34372 1.63203 2.62404
v 0.34921 1.63036 2.62308
v 0.35500 1.62979 2.62275
v 0.36079 1.63036 2.62308
v 0.36628 1.63203 2.62404
v 0.37121 1.63471 2.62558
v 0.37533 1.63828 2.62763
v 0.37843 1.64255 2.63009
v 0.38035 1.64732 2.63283
v 0.38100 1.65333 2.63398
v 0.38035 1.65835 2.63686
v 0.37843 1.66311 2.63960
v 0.37533 1.66738 2.64206
v 0.37121 1.67095 2.64411
v 0.36628 1.67364 2.64566
v 0.36079 1.67530 2.64662
v 0.35500 1.67587 2.64694
v 0.34921 1.67530 2.64662
v 0.34372 1.67364 2.64566
v 0.33879 1.67095 2.64411
v 0.33467 1.66738 2.64206
v 0.33157 1.66311 2.63960
v 0.32965 1.65835 2.63686
v 0.32900 1.65333 2.63398
v 0.32965 1.64831 2.63110
v 0.33157 1.64355 2.62836
v 0.33467 1.63928 2.62590
v 0.33879 1.63571 2.62385
v 0.34372 1.63302 2.62230
v 0.34921 1.63136 2.62134
v 0.35500 1.63079 2.62102
v 0.36079 1.63136 2.62134
v 0.36628 1.63302 2.62230
v 0.37121 1.63571 2.62385
v 0.37533 1.63928 2.62590
v 0.37843 1.64355 2.62836
v 0.38035 1.64831 2.63110
f 663 664 665 666 667 668 669 670 671 672 673 674 675 676 677 678 679 680 681 682 683 684 685 686 687 688 689 690
f 718 717 716 715 714 713 712 711 710 709 708 707 706 705 704 703 702 701 700 699 698 697 696 695 694 693 692 691
f 663 691 692 664
f 664 692 693 665
f 665 693 694 666
f 666 694 695 667
f 667 695 696 668
f 668 696 697 669
f 669 697 698 670
f 670 698 699 671
f 671 699 700 672
f 672 700 701 673
f 673 701 702 674
f 674 702 703 675
f 675 703 704 676
f 676 704 705 677
f 677 705 706 678
f 678 706 707 679
f 679 707 708 680
f 680 708 709 681
f 681 709 710 682
f 682 710 711 683
f 683 711 712 684
f 684 712 713 685
f 685 713 714 686
f 686 714 715 687
f 687 715 716 688
f 688 716 717 689
f 689 717 718 690
f 690 718 691 663
g part43
usemtl chrome
v 0.37400 1.65333 2.63398
v 0.37335 1.65759 2.63643
v 0.37145 1.66157 2.63872
v 0.36844 1.66498 2.64068
v 0.36450 1.66759 2.64218
v 0.35992 1.66924 2.64313
v 0.35500 1.66980 2.64345
v 0.35008 1.66924 2.64313
v 0.34550 1.66759 2.64218
v 0.34156 1.66498 2.64068
v 0.33855 1.66157 2.63872
v 0.33665 1.65759 2.63643
v 0.33600 1.65333 2.63398
v 0.33665 1.64907 2.63153
v 0.33855 1.64509 2.62924
v 0.34156 1.64168 2.62728
v 0.34550 1.63907 2.62578
v 0.35008 1.63742 2.62483
v 0.35500 1.63686 2.62451
v 0.35992 1.63742 2.62483
v 0.36450 1.63907 2.62578
v 0.36844 1.64168 2.62728
v 0.37145 1.64509 2.62924
v 0.37335 1.64907 2.63153
v 0.37400 1.65483 2.63138
v 0.37335 1.65909 2.63383
v 0.37145 1.66306 2.63611
v 0.36844 1.66647 2.63808
v 0.36450 1.66909 2.63958
v 0.35992 1.67074 2.64053
v 0.35500 1.67130 2.64085
v 0.35008 1.67074 2.64053
v 0.34550 1.66909 2.63958
v 0.34156 1.66647 2.63808
v 0.33855 1.66306 2.63611
v 0.33665 1.65909 2.63383
v 0.33600 1.65483 2.63138
v 0.33665 1.65056 2.62893
v 0.33855 1.64659 2.62664
v 0.34156 1.64318 2.62468
v 0.34550 1.64056 2.62318
v 0.35008 1.63892 2.62223
v 0.35500 1.63835 2.62191
v 0.35992 1.63892 2.62223
v 0.36450 1.64056 2.62318
v 0.36844 1.64318 2.62468
v 0.37145 1.64659 2.62664
v 0.37335 1.65056 2.62893
f 719 720 721 722 723 724 725 726 727 728 729 730 731 732 733 734 735 736 737 738 739 740 741 742
f 766 765 764 763 762 761 760 759 758 757 756 755 754 753 752 751 750 749 748 747 746 745 744 743
f 719 743 744 720
f 720 744 745 721
f 721 745 746 722
f 722 746 747 723
f 723 747 748 724
f 724 748 749 725
f 725 749 750 726
f 726 750 751 727
f 727 751 752 728
f 728 752 753 729
f 729 753 754 730
f 730 754 755 731
f 731 755 756 732
f 732 756 757 733
f 733 757 758 734
f 734 758 759 735
f 735 759 760 736
f 736 760 761 737
f 737 761 762 738
f 738 762 763 739
f 739 763 764 740
f 740 764 765 741
f 741 765 766 742
f 742 766 743 719
g part44
usemtl gauge
v 0.36250 1.66003 2.63437
v 0.36176 1.66285 2.63599
v 0.35968 1.66511 2.63729
v 0.35667 1.66637 2.63802
v 0.35333 1.66637 2.63802
v 0.35032 1.66511 2.63729
v 0.34824 1.66285 2.63599
v 0.34750 1.66003 2.63437
v 0.34824 1.65721 2.63275
v 0.35032 1.65494 2.63145
v 0.35333 1.65369 2.63073
v 0.35667 1.65369 2.63073
v 0.35968 1.65494 2.63145
v 0.36176 1.65721 2.63275
v 0.36250 1.66102 2.63264
v 0.36176 1.66385 2.63426
v 0.35968 1.66611 2.63556
v 0.35667 1.66736 2.63628
v 0.35333 1.66736 2.63628
v 0.35032 1.66611 2.63556
v 0.34824 1.66385 2.63426
v 0.34750 1.66102 2.63264
v 0.34824 1.65820 2.63101
v 0.35032 1.65594 2.62971
v 0.35333 1.65469 2.62899
v 0.35667 1.65469 2.62899
v 0.35968 1.65594 2.62971
v 0.36176 1.65820 2.63101
f 767 768 769 770 771 772 773 774 775 776 777 778 779 780
f 794 793 792 791 790 789 788 787 786 785 784 783 782 781
f 767 781 782 768
f 768 782 783 769
f 769 783 784 770
f 770 784 785 771
f 771 785 786 772
f 772 786 787 773
f 773 787 788 774
f 774 788 789 775
f 775 789 790 776
f 776 790 791 777
f 777 791 792 778
f 778 792 793 779
f 779 793 794 780
f 780 794 781 767
g part45
usemtl gauge
v 0.35075 1.66003 2.63437
v 0.35075 1.64096 2.62340
v 0.35925 1.64096 2.62340
v 0.35925 1.66003 2.63437
v 0.35075 1.66102 2.63264
v 0.35075 1.64195 2.62167
v 0.35925 1.64195 2.62167
v 0.35925 1.66102 2.63264
f 796 797 798 795
f 802 801 800 799
f 799 800 796 795
f 800 801 797 796
f 801 802 798 797
f 802 799 795 798
g part46
usemtl switch
v 0.24300 1.80400 2.73907
v 0.28700 1.80400 2.73907
v 0.28700 1.80998 2.72867
v 0.24300 1.80998 2.72867
v 0.24300 1.84214 2.76100
v 0.28700 1.84214 2.76100
v 0.28700 1.84812 2.75060
v 0.24300 1.84812 2.75060
f 803 806 805 804
f 807 808 809 810
f 803 804 808 807
f 804 805 809 808
f 805 806 810 809
f 806 803 807 810
g part47
usemtl rocker
v 0.24900 1.81518 2.73166
v 0.28100 1.81518 2.73166
v 0.28100 1.81817 2.72646
v 0.24900 1.81817 2.72646
v 0.24900 1.83079 2.74063
v 0.28100 1.83079 2.74063
v 0.28100 1.83378 2.73543
v 0.24900 1.83378 2.73543
f 811 814 813 812
f 815 816 817 818
f 811 812 816 815
f 812 813 817 816
f 813 814 818 817
f 814 811 815 818
g part48
usemtl lamp_off
v 0.27150 1.85255 2.76699
v 0.27063 1.85536 2.76861
v 0.26825 1.85743 2.76979
v 0.26500 1.85818 2.77023
v 0.26175 1.85743 2.76979
v 0.25937 1.85536 2.76861
v 0.25850 1.85255 2.76699
v 0.25937 1.84973 2.76537
v 0.26175 1.84767 2.76418
v 0.26500 1.84691 2.76375
v 0.26825 1.84767 2.76418
v 0.27063 1.84973 2.76537
v 0.27150 1.85653 2.76005
v 0.27063 1.85935 2.76167
v 0.26825 1.86141 2.76286
v 0.26500 1.86217 2.76329
v 0.26175 1.86141 2.76286
v 0.25937 1.85935 2.76167
v 0.25850 1.85653 2.76005
v 0.25937 1.85372 2.75843
v 0.26175 1.85165 2.75724
v 0.26500 1.85090 2.75681
v 0.26825 1.85165 2.75724
v 0.27063 1.85372 2.75843
f 819 820 821 822 823 824 825 826 827 828 829 830
f 842 841 840 839 838 837 836 835 834 833 832 831
f 819 831 832 820
f 820 832 833 821
f 821 833 834 822
f 822 834 835 823
f 823 835 836 824
f 824 836 837 825
f 825 837 838 826
f 826 838 839 827
f 827 839 840 828
f 828 840 841 829
f 829 841 842 830
f 830 842 831 819
g part49
usemtl switch
v 0.24300 1.73465 2.69919
v 0.28700 1.73465 2.69919
v 0.28700 1.74063 2.68879
v 0.24300 1.74063 2.68879
v 0.24300 1.77279 2.72113
v 0.28700 1.77279 2.72113
v 0.28700 1.77877 2.71072
v 0.24300 1.77877 2.71072
f 843 846 845 844
f 847 848 849 850
f 843 844 848 847
f 844 845 849 848
f 845 846 850 849
f 846 843 847 850
g part50
usemtl rocker
v 0.24900 1.74583 2.69178
v 0.28100 1.74583 2.69178
v 0.28100 1.74882 2.68658
v 0.24900 1.74882 2.68658
v 0.24900 1.76143 2.70075
v 0.28100 1.76143 2.70075
v 0.28100 1.76442 2.69555
v 0.24900 1.76442 2.69555
f 851 854 853 852
f 855 856 857 858
f 851 852 856 855
f 852 853 857 856
f 853 854 858 857
f 854 851 855 858
g part51
usemtl lamp_off
v 0.27150 1.78319 2.72711
v 0.27063 1.78601 2.72873
v 0.26825 1.78807 2.72991
v 0.26500 1.78883 2.73035
v 0.26175 1.78807 2.72991
v 0.25937 1.78601 2.72873
v 0.25850 1.78319 2.72711
v 0.25937 1.78038 2.72549
v 0.26175 1.77831 2.72430
v 0.26500 1.77756 2.72387
v 0.26825 1.77831 2.72430
v 0.27063 1.78038 2.72549
v 0.27150 1.78718 2.72017
v 0.27063 1.79000 2.72179
v 0.26825 1.79206 2.72298
v 0.26500 1.79282 2.72341
v 0.26175 1.79206 2.72298
v 0.25937 1.79000 2.72179
v 0.25850 1.78718 2.72017
v 0.25937 1.78436 2.71855
v 0.26175 1.78230 2.71737
v 0.26500 1.78155 2.71693
v 0.26825 1.78230 2.71737
v 0.27063 1.78436 2.71855
f 859 860 861 862 863 864 865 866 867 868 869 870
f 882 881 880 879 878 877 876 875 874 873 872 871
f 859 871 872 860
f 860 872 873 861
f 861 873 874 862
f 862 874 875 863
f 863 875 876 864
f 864 876 877 865
f 865 877 878 866
f 866 878 879 867
f 867 879 880 868
f 868 880 881 869
f 869 881 882 870
f 870 882 871 859
g part52
usemtl switch
v 0.24300 1.66529 2.65932
v 0.28700 1.66529 2.65932
v 0.28700 1.67128 2.64891
v 0.24300 1.67128 2.64891
v 0.24300 1.70344 2.68125
v 0.28700 1.70344 2.68125
v 0.28700 1.70942 2.67085
v 0.24300 1.70942 2.67085
f 883 886 885 884
f 887 888 889 890
f 883 884 888 887
f 884 885 889 888
f 885 886 890 889
f 886 883 887 890
g part53
usemtl rocker
v 0.24900 1.67648 2.65190
v 0.28100 1.67648 2.65190
v 0.28100 1.67947 2.64670
v 0.24900 1.67947 2.64670
v 0.24900 1.69208 2.66088
v 0.28100 1.69208 2.66088
v 0.28100 1.69507 2.65567
v 0.24900 1.69507 2.65567
f 891 894 893 892
f 895 896 897 898
f 891 892 896 895
f 892 893 897 896
f 893 894 898 897
f 894 891 895 898
g part54
usemtl lamp_off
v 0.27150 1.71384 2.68723
v 0.27063 1.71666 2.68885
v 0.26825 1.71872 2.69004
v 0.26500 1.71948 2.69047
v 0.26175 1.71872 2.69004
v 0.25937 1.71666 2.68885
v 0.25850 1.71384 2.68723
v 0.25937 1.71102 2.68561
v 0.26175 1.70896 2.68442
v 0.26500 1.70821 2.68399
v 0.26825 1.70896 2.68442
v 0.27063 1.71102 2.68561
v 0.27150 1.71783 2.68029
v 0.27063 1.72065 2.68191
v 0.26825 1.72271 2.68310
v 0.26500 1.72346 2.68353
v 0.26175 1.72271 2.68310
v 0.25937 1.72065 2.68191
v 0.25850 1.71783 2.68029
v 0.25937 1.71501 2.67867
v 0.26175 1.71295 2.67749
v 0.26500 1.71219 2.67705
v 0.26825 1.71295 2.67749
v 0.27063 1.71501 2.67867
f 899 900 901 902 903 904 905 906 907 908 909 910
f 922 921 920 919 918 917 916 915 914 913 912 911
f 899 911 912 900
f 900 912 913 901
f 901 913 914 902
f 902 914 915 903
f 903 915 916 904
f 904 916 917 905
f 905 917 918 906
f 906 918 919 907
f 907 919 920 908
f 908 920 921 909
f 909 921 922 910
f 910 922 911 899
g part55
usemtl switch
v 0.12300 1.80400 2.73907
v 0.16700 1.80400 2.73907
v 0.16700 1.80998 2.72867
v 0.12300 1.80998 2.72867
v 0.12300 1.84214 2.76100
v 0.16700 1.84214 2.76100
v 0.16700 1.84812 2.75060
v 0.12300 1.84812 2.75060
f 923 926 925 924
f 927 928 929 930
f 923 924 928 927
f 924 925 929 928
f 925 926 930 929
f 926 923 927 930
g part56
usemtl rocker
v 0.12900 1.81518 2.73166
v 0.16100 1.81518 2.73166
v 0.16100 1.81817 2.72646
v 0.12900 1.81817 2.72646
v 0.12900 1.83079 2.74063
v 0.16100 1.83079 2.74063
v 0.16100 1.83378 2.73543
v 0.12900 1.83378 2.73543
f 931 934 933 932
f 935 936 937 938
f 931 932 936 935
f 932 933 937 936
f 933 934 938 937
f 934 931 935 938
g part57
usemtl lamp_off
v 0.15150 1.85255 2.76699
v 0.15063 1.85536 2.76861
v 0.14825 1.85743 2.76979
v 0.14500 1.85818 2.77023
v 0.14175 1.85743 2.76979
v 0.13937 1.85536 2.76861
v 0.13850 1.85255 2.76699
v 0.13937 1.84973 2.76537
v 0.14175 1.84767 2.76418
v 0.14500 1.84691 2.76375
v 0.14825 1.84767 2.76418
v 0.15063 1.84973 2.76537
v 0.15150 1.85653 2.76005
v 0.15063 1.85935 2.76167
v 0.14825 1.86141 2.76286
v 0.14500 1.86217 2.76329
v 0.14175 1.86141 2.76286
v 0.13937 1.85935 2.76167
v 0.13850 1.85653 2.76005
v 0.13937 1.85372 2.75843
v 0.14175 1.85165 2.75724
v 0.14500 1.85090 2.75681
v 0.14825 1.85165 2.75724
v 0.15063 1.85372 2.75843
f 939 940 941 942 943 944 945 946 947 948 949 950
f 962 961 960 959 958 957 956 955 954 953 952 951
f 939 951 952 940
f 940 952 953 941
f 941 953 954 942
f 942 954 955 943
f 943 955 956 944
f 944 956 957 945
f 945 957 958 946
f 946 958 959 947
f 947 959 960 948
f 948 960 961 949
f 949 961 962 950
f 950 962 951 939
g part58
usemtl switch
v 0.12300 1.73465 2.69919
v 0.16700 1.73465 2.69919
v 0.16700 1.74063 2.68879
v 0.12300 1.74063 2.68879
v 0.12300 1.77279 2.72113
v 0.16700 1.77279 2.72113
v 0.16700 1.77877 2.71072
v 0.12300 1.77877 2.71072
f 963 966 965 964
f 967 968 969 970
f 963 964 968 967
f 964 965 969 968
f 965 966 970 969
f 966 963 967 970
g part59
usemtl rocker
v 0.12900 1.74583 2.69178
v 0.16100 1.74583 2.69178
v 0.16100 1.74882 2.68658
v 0.12900 1.74882 2.68658
v 0.12900 1.76143 2.70075
v 0.16100 1.76143 2.70075
v 0.16100 1.76442 2.69555
v 0.12900 1.76442 2.69555
f 971 974 973 972
f 975 976 977 978
f 971 972 976 975
f 972 973 977 976
f 973 974 978 977
f 974 971 975 978
g part60
usemtl lamp_off
v 0.15150 1.78319 2.72711
v 0.15063 1.78601 2.72873
v 0.14825 1.78807 2.72991
v 0.14500 1.78883 2.73035
v 0.14175 1.78807 2.72991
v 0.13937 1.78601 2.72873
v 0.13850 1.78319 2.72711
v 0.13937 1.78038 2.72549
v 0.14175 1.77831 2.72430
v 0.14500 1.77756 2.72387
v 0.14825 1.77831 2.72430
v 0.15063 1.78038 2.72549
v 0.15150 1.78718 2.72017
v 0.15063 1.79000 2.72179
v 0.14825 1.79206 2.72298
v 0.14500 1.79282 2.72341
v 0.14175 1.79206 2.72298
v 0.13937 1.79000 2.72179
v 0.13850 1.78718 2.72017
v 0.13937 1.78436 2.71855
v 0.14175 1.78230 2.71737
v 0.14500 1.78155 2.71693
v 0.14825 1.78230 2.71737
v 0.15063 1.78436 2.71855
f 979 980 981 982 983 984 985 986 987 988 989 990
f 1002 1001 1000 999 998 997 996 995 994 993 992 991
f 979 991 992 980
f 980 992 993 981
f 981 993 994 982
f 982 994 995 983
f 983 995 996 984
f 984 996 997 985
f 985 997 998 986
f 986 998 999 987
f 987 999 1000 988
f 988 1000 1001 989
f 989 1001 1002 990
f 990 1002 991 979
g part61
usemtl switch
v 0.12300 1.66529 2.65932
v 0.16700 1.66529 2.65932
v 0.16700 1.67128 2.64891
v 0.12300 1.67128 2.64891
v 0.12300 1.70344 2.68125
v 0.16700 1.70344 2.68125
v 0.16700 1.70942 2.67085
v 0.12300 1.70942 2.67085
f 1003 1006 1005 1004
f 1007 1008 1009 1010
f 1003 1004 1008 1007
f 1004 1005 1009 1008
f 1005 1006 1010 1009
f 1006 1003 1007 1010
g part62
usemtl rocker
v 0.12900 1.67648 2.65190
v 0.16100 1.67648 2.65190
v 0.16100 1.67947 2.64670
v 0.12900 1.67947 2.64670
v 0.12900 1.69208 2.66088
v 0.16100 1.69208 2.66088
v 0.16100 1.69507 2.65567
v 0.12900 1.69507 2.65567
f 1011 1014 1013 1012
f 1015 1016 1017 1018
f 1011 1012 1016 1015
f 1012 1013 1017 1016
f 1013 1014 1018 1017
f 1014 1011 1015 1018
g part63
usemtl lamp_off
v 0.15150 1.71384 2.68723
v 0.15063 1.71666 2.68885
v 0.14825 1.71872 2.69004
v 0.14500 1.71948 2.69047
v 0.14175 1.71872 2.69004
v 0.13937 1.71666 2.68885
v 0.13850 1.71384 2.68723
v 0.13937 1.71102 2.68561
v 0.14175 1.70896 2.68442
v 0.14500 1.70821 2.68399
v 0.14825 1.70896 2.68442
v 0.15063 1.71102 2.68561
v 0.15150 1.71783 2.68029
v 0.15063 1.72065 2.68191
v 0.14825 1.72271 2.68310
v 0.14500 1.72346 2.68353
v 0.14175 1.72271 2.68310
v 0.13937 1.72065 2.68191
v 0.13850 1.71783 2.68029
v 0.13937 1.71501 2.67867
v 0.14175 1.71295 2.67749
v 0.14500 1.71219 2.67705
v 0.14825 1.71295 2.67749
v 0.15063 1.71501 2.67867
f 1019 1020 1021 1022 1023 1024 1025 1026 1027 1028 1029 1030
f 1042 1041 1040 1039 1038 1037 1036 1035 1034 1033 1032 1031
f 1019 1031 1032 1020
f 1020 1032 1033 1021
f 1021 1033 1034 1022
f 1022 1034 1035 1023
f 1023 1035 1036 1024
f 1024 1036 1037 1025
f 1025 1037 1038 1026
f 1026 1038 1039 1027
f 1027 1039 1040 1028
f 1028 1040 1041 1029
f 1029 1041 1042 1030
f 1030 1042 1031 1019
g part64
usemtl chrome
v 0.29500 1.61501 2.63040
v 0.29425 1.62080 2.63373
v 0.29203 1.62630 2.63689
v 0.28845 1.63123 2.63973
v 0.28370 1.63535 2.64210
v 0.27802 1.63844 2.64388
v 0.27168 1.64037 2.64498
v 0.26500 1.64102 2.64536
v 0.25832 1.64037 2.64498
v 0.25198 1.63844 2.64388
v 0.24630 1.63535 2.64210
v 0.24155 1.63123 2.63973
v 0.23797 1.62630 2.63689
v 0.23575 1.62080 2.63373
v 0.23500 1.61501 2.63040
v 0.23575 1.60923 2.62708
v 0.23797 1.60373 2.62392
v 0.24155 1.59880 2.62108
v 0.24630 1.59468 2.61871
v 0.25198 1.59158 2.61693
v 0.25832 1.58966 2.61583
v 0.26500 1.58901 2.61545
v 0.27168 1.58966 2.61583
v 0.27802 1.59158 2.61693
v 0.28370 1.59468 2.61871
v 0.28845 1.59880 2.62108
v 0.29203 1.60373 2.62392
v 0.29425 1.60923 2.62708
v 0.29500 1.62000 2.62174
v 0.29425 1.62578 2.62506
v 0.29203 1.63128 2.62822
v 0.28845 1.63621 2.63106
v 0.28370 1.64033 2.63343
v 0.27802 1.64343 2.63521
v 0.27168 1.64535 2.63631
v 0.26500 1.64600 2.63669
v 0.25832 1.64535 2.63631
v 0.25198 1.64343 2.63521
v 0.24630 1.64033 2.63343
v 0.24155 1.63621 2.63106
v 0.23797 1.63128 2.62822
v 0.23575 1.62578 2.62506
v 0.23500 1.62000 2.62174
v 0.23575 1.61421 2.61841
v 0.23797 1.60871 2.61525
v 0.24155 1.60378 2.61241
v 0.24630 1.59966 2.61004
v 0.25198 1.59657 2.60826
v 0.25832 1.59464 2.60716
v 0.26500 1.59399 2.60678
v 0.27168 1.59464 2.60716
v 0.27802 1.59657 2.60826
v 0.28370 1.59966 2.61004
v 0.28845 1.60378 2.61241
v 0.29203 1.60871 2.61525
v 0.29425 1.61421 2.61841
f 1043 1044 1045 1046 1047 1048 1049 1050 1051 1052 1053 1054 1055 1056 1057 1058 1059 1060 1061 1062 1063 1064 1065 1066 1067 1068 1069 1070
f 1098 1097 1096 1095 1094 1093 1092 1091 1090 1089 1088 1087 1086 1085 1084 1083 1082 1081 1080 1079 1078 1077 1076 1075 1074 1073 1072 1071
f 1043 1071 1072 1044
f 1044 1072 1073 1045
f 1045 1073 1074 1046
f 1046 1074 1075 1047
f 1047 1075 1076 1048
f 1048 1076 1077 1049
f 1049 1077 1078 1050
f 1050 1078 1079 1051
f 1051 1079 1080 1052
f 1052 1080 1081 1053
f 1053 1081 1082 1054
f 1054 1082 1083 1055
f 1055 1083 1084 1056
f 1056 1084 1085 1057
f 1057 1085 1086 1058
f 1058 1086 1087 1059
f 1059 1087 1088 1060
f 1060 1088 1089 1061
f 1061 1089 1090 1062
f 1062 1090 1091 1063
f 1063 1091 1092 1064
f 1064 1092 1093 1065
f 1065 1093 1094 1066
f 1066 1094 1095 1067
f 1067 1095 1096 1068
f 1068 1096 1097 1069
f 1069 1097 1098 1070
f 1070 1098 1071 1043
g part65
usemtl knob
v 0.28900 1.62000 2.62174
v 0.28783 1.62643 2.62543
v 0.28442 1.63223 2.62877
v 0.27911 1.63683 2.63141
v 0.27242 1.63979 2.63311
v 0.26500 1.64080 2.63370
v 0.25758 1.63979 2.63311
v 0.25089 1.63683 2.63141
v 0.24558 1.63223 2.62877
v 0.24217 1.62643 2.62543
v 0.24100 1.62000 2.62174
v 0.24217 1.61357 2.61804
v 0.24558 1.60777 2.61470
v 0.25089 1.60317 2.61206
v 0.25758 1.60021 2.61036
v 0.26500 1.59919 2.60977
v 0.27242 1.60021 2.61036
v 0.27911 1.60317 2.61206
v 0.28442 1.60777 2.61470
v 0.28783 1.61357 2.61804
v 0.28900 1.62797 2.60786
v 0.28783 1.63440 2.61156
v 0.28442 1.64020 2.61490
v 0.27911 1.64481 2.61754
v 0.27242 1.64776 2.61924
v 0.26500 1.64878 2.61983
v 0.25758 1.64776 2.61924
v 0.25089 1.64481 2.61754
v 0.24558 1.64020 2.61490
v 0.24217 1.63440 2.61156
v 0.24100 1.62797 2.60786
v 0.24217 1.62154 2.60417
v 0.24558 1.61574 2.60083
v 0.25089 1.61114 2.59819
v 0.25758 1.60819 2.59649
v 0.26500 1.60717 2.59590
v 0.27242 1.60819 2.59649
v 0.27911 1.61114 2.59819
v 0.28442 1.61574 2.60083
v 0.28783 1.62154 2.60417
f 1099 1100 1101 1102 1103 1104 1105 1106 1107 1108 1109 1110 1111 1112 1113 1114 1115 1116 1117 1118
f 1138 1137 1136 1135 1134 1133 1132 1131 1130 1129 1128 1127 1126 1125 1124 1123 1122 1121 1120 1119
f 1099 1119 1120 1100
f 1100 1120 1121 1101
f 1101 1121 1122 1102
f 1102 1122 1123 1103
f 1103 1123 1124 1104
f 1104 1124 1125 1105
f 1105 1125 1126 1106
f 1106 1126 1127 1107
f 1107 1127 1128 1108
f 1108 1128 1129 1109
f 1109 1129 1130 1110
f 1110 1130 1131 1111
f 1111 1131 1132 1112
f 1112 1132 1133 1113
f 1113 1133 1134 1114
f 1114 1134 1135 1115
f 1115 1135 1136 1116
f 1116 1136 1137 1117
f 1117 1137 1138 1118
f 1118 1138 1119 1099
g part66
usemtl chrome
v 0.26750 1.62797 2.60786
v 0.26750 1.64531 2.61783
v 0.26250 1.64531 2.61783
v 0.26250 1.62797 2.60786
v 0.26750 1.62997 2.60440
v 0.26750 1.64731 2.61437
v 0.26250 1.64731 2.61437
v 0.26250 1.62997 2.60440
f 1140 1141 1142 1139
f 1146 1145 1144 1143
f 1143 1144 1140 1139
f 1144 1145 1141 1140
f 1145 1146 1142 1141
f 1146 1143 1139 1142
g part67
usemtl chrome
v 0.17500 1.61501 2.63040
v 0.17425 1.62080 2.63373
v 0.17203 1.62630 2.63689
v 0.16845 1.63123 2.63973
v 0.16370 1.63535 2.64210
v 0.15802 1.63844 2.64388
v 0.15168 1.64037 2.64498
v 0.14500 1.64102 2.64536
v 0.13832 1.64037 2.64498
v 0.13198 1.63844 2.64388
v 0.12630 1.63535 2.64210
v 0.12155 1.63123 2.63973
v 0.11797 1.62630 2.63689
v 0.11575 1.62080 2.63373
v 0.11500 1.61501 2.63040
v 0.11575 1.60923 2.62708
v 0.11797 1.60373 2.62392
v 0.12155 1.59880 2.62108
v 0.12630 1.59468 2.61871
v 0.13198 1.59158 2.61693
v 0.13832 1.58966 2.61583
v 0.14500 1.58901 2.61545
v 0.15168 1.58966 2.61583
v 0.15802 1.59158 2.61693
v 0.16370 1.59468 2.61871
v 0.16845 1.59880 2.62108
v 0.17203 1.60373 2.62392
v 0.17425 1.60923 2.62708
v 0.17500 1.62000 2.62174
v 0.17425 1.62578 2.62506
v 0.17203 1.63128 2.62822
v 0.16845 1.63621 2.63106
v 0.16370 1.64033 2.63343
v 0.15802 1.64343 2.63521
v 0.15168 1.64535 2.63631
v 0.14500 1.64600 2.63669
v 0.13832 1.64535 2.63631
v 0.13198 1.64343 2.63521
v 0.12630 1.64033 2.63343
v 0.12155 1.63621 2.63106
v 0.11797 1.63128 2.62822
v 0.11575 1.62578 2.62506
v 0.11500 1.62000 2.62174
v 0.11575 1.61421 2.61841
v 0.11797 1.60871 2.61525
v 0.12155 1.60378 2.61241
v 0.12630 1.59966 2.61004
v 0.13198 1.59657 2.60826
v 0.13832 1.59464 2.60716
v 0.14500 1.59399 2.60678
v 0.15168 1.59464 2.60716
v 0.15802 1.59657 2.60826
v 0.16370 1.59966 2.61004
v 0.16845 1.60378 2.61241
v 0.17203 1.60871 2.61525
v 0.17425 1.61421 2.61841
f 1147 1148 1149 1150 1151 1152 1153 1154 1155 1156 1157 1158 1159 1160 1161 1162 1163 1164 1165 1166 1167 1168 1169 1170 1171 1172 1173 1174
f 1202 1201 1200 1199 1198 1197 1196 1195 1194 1193 1192 1191 1190 1189 1188 1187 1186 1185 1184 1183 1182 1181 1180 1179 1178 1177 1176 1175
f 1147 1175 1176 1148
f 1148 1176 1177 1149
f 1149 1177 1178 1150
f 1150 1178 1179 1151
f 1151 1179 1180 1152
f 1152 1180 1181 1153
f 1153 1181 1182 1154
f 1154 1182 1183 1155
f 1155 1183 1184 1156
f 1156 1184 1185 1157
f 1157 1185 1186 1158
f 1158 1186 1187 1159
f 1159 1187 1188 1160
f 1160 1188 1189 1161
f 1161 1189 1190 1162
f 1162 1190 1191 1163
f 1163 1191 1192 1164
f 1164 1192 1193 1165
f 1165 1193 1194 1166
f 1166 1194 1195 1167
f 1167 1195 1196 1168
f 1168 1196 1197 1169
f 1169 1197 1198 1170
f 1170 1198 1199 1171
f 1171 1199 1200 1172
f 1172 1200 1201 1173
f 1173 1201 1202 1174
f 1174 1202 1175 1147
g part68
usemtl knob
v 0.16900 1.62000 2.62174
v 0.16783 1.62643 2.62543
v 0.16442 1.63223 2.62877
v 0.15911 1.63683 2.63141
v 0.15242 1.63979 2.63311
v 0.14500 1.64080 2.63370
v 0.13758 1.63979 2.63311
v 0.13089 1.63683 2.63141
v 0.12558 1.63223 2.62877
v 0.12217 1.62643 2.62543
v 0.12100 1.62000 2.62174
v 0.12217 1.61357 2.61804
v 0.12558 1.60777 2.61470
v 0.13089 1.60317 2.61206
v 0.13758 1.60021 2.61036
v 0.14500 1.59919 2.60977
v 0.15242 1.60021 2.61036
v 0.15911 1.60317 2.61206
v 0.16442 1.60777 2.61470
v 0.16783 1.61357 2.61804
v 0.16900 1.62797 2.60786
v 0.16783 1.63440 2.61156
v 0.16442 1.64020 2.61490
v 0.15911 1.64481 2.61754
v 0.15242 1.64776 2.61924
v 0.14500 1.64878 2.61983
v 0.13758 1.64776 2.61924
v 0.13089 1.64481 2.61754
v 0.12558 1.64020 2.61490
v 0.12217 1.63440 2.61156
v 0.12100 1.62797 2.60786
v 0.12217 1.62154 2.60417
v 0.12558 1.61574 2.60083
v 0.13089 1.61114 2.59819
v 0.13758 1.60819 2.59649
v 0.14500 1.60717 2.59590
v 0.15242 1.60819 2.59649
v 0.15911 1.61114 2.59819
v 0.16442 1.61574 2.60083
v 0.16783 1.62154 2.60417
f 1203 1204 1205 1206 1207 1208 1209 1210 1211 1212 1213 1214 1215 1216 1217 1218 1219 1220 1221 1222
f 1242 1241 1240 1239 1238 1237 1236 1235 1234 1233 1232 1231 1230 1229 1228 1227 1226 1225 1224 1223
f 1203 1223 1224 1204
f 1204 1224 1225 1205
f 1205 1225 1226 1206
f 1206 1226 1227 1207
f 1207 1227 1228 1208
f 1208 1228 1229 1209
f 1209 1229 1230 1210
f 1210 1230 1231 1211
f 1211 1231 1232 1212
f 1212 1232 1233 1213
f 1213 1233 1234 1214
f 1214 1234 1235 1215
f 1215 1235 1236 1216
f 1216 1236 1237 1217
f 1217 1237 1238 1218
f 1218 1238 1239 1219
f 1219 1239 1240 1220
f 1220 1240 1241 1221
f 1221 1241 1242 1222
f 1222 1242 1223 1203
g part69
usemtl chrome
v 0.14750 1.62797 2.60786
v 0.14750 1.64531 2.61783
v 0.14250 1.64531 2.61783
v 0.14250 1.62797 2.60786
v 0.14750 1.62997 2.60440
v 0.14750 1.64731 2.61437
v 0.14250 1.64731 2.61437
v 0.14250 1.62997 2.60440
f 1244 1245 1246 1243
f 1250 1249 1248 1247
f 1247 1248 1244 1243
f 1248 1249 1245 1244
f 1249 1250 1246 1245
f 1250 1247 1243 1246
g part70
usemtl radio
v -0.44000 1.47338 2.64969
v -0.06000 1.47338 2.64969
v -0.06000 1.48136 2.63582
v -0.44000 1.48136 2.63582
v -0.44000 1.58608 2.71450
v -0.06000 1.58608 2.71450
v -0.06000 1.59405 2.70062
v -0.44000 1.59405 2.70062
f 1251 1254 1253 1252
f 1255 1256 1257 1258
f 1251 1252 1256 1255
f 1252 1253 1257 1256
f 1253 1254 1258 1257
f 1254 1251 1255 1258
g part71
usemtl dial
v -0.37000 1.53337 2.66573
v -0.13000 1.53337 2.66573
v -0.13000 1.53487 2.66313
v -0.37000 1.53487 2.66313
v -0.37000 1.57672 2.69066
v -0.13000 1.57672 2.69066
v -0.13000 1.57821 2.68805
v -0.37000 1.57821 2.68805
f 1259 1262 1261 1260
f 1263 1264 1265 1266
f 1259 1260 1264 1263
f 1260 1261 1265 1264
f 1261 1262 1266 1265
f 1262 1259 1263 1266
g part72
usemtl needle
v -0.27000 1.53487 2.66313
v -0.26500 1.53487 2.66313
v -0.26500 1.53586 2.66140
v -0.27000 1.53586 2.66140
v -0.27000 1.57821 2.68805
v -0.26500 1.57821 2.68805
v -0.26500 1.57921 2.68632
v -0.27000 1.57921 2.68632
f 1267 1270 1269 1268
f 1271 1272 1273 1274
f 1267 1268 1272 1271
f 1268 1269 1273 1272
f 1269 1270 1274 1273
f 1270 1267 1271 1274
g part73
usemtl knob
v -0.39500 1.53771 2.66822
v -0.39621 1.54364 2.67163
v -0.39968 1.54885 2.67463
v -0.40500 1.55272 2.67686
v -0.41153 1.55478 2.67804
v -0.41847 1.55478 2.67804
v -0.42500 1.55272 2.67686
v -0.43032 1.54885 2.67463
v -0.43379 1.54364 2.67163
v -0.43500 1.53771 2.66822
v -0.43379 1.53178 2.66481
v -0.43032 1.52656 2.66182
v -0.42500 1.52269 2.65959
v -0.41847 1.52063 2.65841
v -0.41153 1.52063 2.65841
v -0.40500 1.52269 2.65959
v -0.39968 1.52656 2.66182
v -0.39621 1.53178 2.66481
v -0.39500 1.54867 2.64915
v -0.39621 1.55460 2.65256
v -0.39968 1.55982 2.65556
v -0.40500 1.56369 2.65779
v -0.41153 1.56575 2.65897
v -0.41847 1.56575 2.65897
v -0.42500 1.56369 2.65779
v -0.43032 1.55982 2.65556
v -0.43379 1.55460 2.65256
v -0.43500 1.54867 2.64915
v -0.43379 1.54274 2.64574
v -0.43032 1.53753 2.64274
v -0.42500 1.53366 2.64052
v -0.41847 1.53160 2.63933
v -0.41153 1.53160 2.63933
v -0.40500 1.53366 2.64052
v -0.39968 1.53753 2.64274
v -0.39621 1.54274 2.64574
f 1275 1276 1277 1278 1279 1280 1281 1282 1283 1284 1285 1286 1287 1288 1289 1290 1291 1292
f 1310 1309 1308 1307 1306 1305 1304 1303 1302 1301 1300 1299 1298 1297 1296 1295 1294 1293
f 1275 1293 1294 1276
f 1276 1294 1295 1277
f 1277 1295 1296 1278
f 1278 1296 1297 1279
f 1279 1297 1298 1280
f 1280 1298 1299 1281
f 1281 1299 1300 1282
f 1282 1300 1301 1283
f 1283 1301 1302 1284
f 1284 1302 1303 1285
f 1285 1303 1304 1286
f 1286 1304 1305 1287
f 1287 1305 1306 1288
f 1288 1306 1307 1289
f 1289 1307 1308 1290
f 1290 1308 1309 1291
f 1291 1309 1310 1292
f 1292 1310 1293 1275
g part74
usemtl knob
v -0.06500 1.53771 2.66822
v -0.06621 1.54364 2.67163
v -0.06968 1.54885 2.67463
v -0.07500 1.55272 2.67686
v -0.08153 1.55478 2.67804
v -0.08847 1.55478 2.67804
v -0.09500 1.55272 2.67686
v -0.10032 1.54885 2.67463
v -0.10379 1.54364 2.67163
v -0.10500 1.53771 2.66822
v -0.10379 1.53178 2.66481
v -0.10032 1.52656 2.66182
v -0.09500 1.52269 2.65959
v -0.08847 1.52063 2.65841
v -0.08153 1.52063 2.65841
v -0.07500 1.52269 2.65959
v -0.06968 1.52656 2.66182
v -0.06621 1.53178 2.66481
v -0.06500 1.54867 2.64915
v -0.06621 1.55460 2.65256
v -0.06968 1.55982 2.65556
v -0.07500 1.56369 2.65779
v -0.08153 1.56575 2.65897
v -0.08847 1.56575 2.65897
v -0.09500 1.56369 2.65779
v -0.10032 1.55982 2.65556
v -0.10379 1.55460 2.65256
v -0.10500 1.54867 2.64915
v -0.10379 1.54274 2.64574
v -0.10032 1.53753 2.64274
v -0.09500 1.53366 2.64052
v -0.08847 1.53160 2.63933
v -0.08153 1.53160 2.63933
v -0.07500 1.53366 2.64052
v -0.06968 1.53753 2.64274
v -0.06621 1.54274 2.64574
f 1311 1312 1313 1314 1315 1316 1317 1318 1319 1320 1321 1322 1323 1324 1325 1326 1327 1328
f 1346 1345 1344 1343 1342 1341 1340 1339 1338 1337 1336 1335 1334 1333 1332 1331 1330 1329
f 1311 1329 1330 1312
f 1312 1330 1331 1313
f 1313 1331 1332 1314
f 1314 1332 1333 1315
f 1315 1333 1334 1316
f 1316 1334 1335 1317
f 1317 1335 1336 1318
f 1318 1336 1337 1319
f 1319 1337 1338 1320
f 1320 1338 1339 1321
f 1321 1339 1340 1322
f 1322 1340 1341 1323
f 1323 1341 1342 1324
f 1324 1342 1343 1325
f 1325 1343 1344 1326
f 1326 1344 1345 1327
f 1327 1345 1346 1328
f 1328 1346 1329 1311
g part75
usemtl chrome
v -0.37000 1.49436 2.64330
v -0.33400 1.49436 2.64330
v -0.33400 1.49735 2.63810
v -0.37000 1.49735 2.63810
v -0.37000 1.52037 2.65825
v -0.33400 1.52037 2.65825
v -0.33400 1.52336 2.65305
v -0.37000 1.52336 2.65305
f 1347 1350 1349 1348
f 1351 1352 1353 1354
f 1347 1348 1352 1351
f 1348 1349 1353 1352
f 1349 1350 1354 1353
f 1350 1347 1351 1354
g part76
usemtl chrome
v -0.31800 1.49436 2.64330
v -0.28200 1.49436 2.64330
v -0.28200 1.49735 2.63810
v -0.31800 1.49735 2.63810
v -0.31800 1.52037 2.65825
v -0.28200 1.52037 2.65825
v -0.28200 1.52336 2.65305
v -0.31800 1.52336 2.65305
f 1355 1358 1357 1356
f 1359 1360 1361 1362
f 1355 1356 1360 1359
f 1356 1357 1361 1360
f 1357 1358 1362 1361
f 1358 1355 1359 1362
g part77
usemtl chrome
v -0.26600 1.49436 2.64330
v -0.23000 1.49436 2.64330
v -0.23000 1.49735 2.63810
v -0.26600 1.49735 2.63810
v -0.26600 1.52037 2.65825
v -0.23000 1.52037 2.65825
v -0.23000 1.52336 2.65305
v -0.26600 1.52336 2.65305
f 1363 1366 1365 1364
f 1367 1368 1369 1370
f 1363 1364 1368 1367
f 1364 1365 1369 1368
f 1365 1366 1370 1369
f 1366 1363 1367 1370
g part78
usemtl chrome
v -0.21400 1.49436 2.64330
v -0.17800 1.49436 2.64330
v -0.17800 1.49735 2.63810
v -0.21400 1.49735 2.63810
v -0.21400 1.52037 2.65825
v -0.17800 1.52037 2.65825
v -0.17800 1.52336 2.65305
v -0.21400 1.52336 2.65305
f 1371 1374 1373 1372
f 1375 1376 1377 1378
f 1371 1372 1376 1375
f 1372 1373 1377 1376
f 1373 1374 1378 1377
f 1374 1371 1375 1378
g part79
usemtl chrome
v -0.16200 1.49436 2.64330
v -0.12600 1.49436 2.64330
v -0.12600 1.49735 2.63810
v -0.16200 1.49735 2.63810
v -0.16200 1.52037 2.65825
v -0.12600 1.52037 2.65825
v -0.12600 1.52336 2.65305
v -0.16200 1.52336 2.65305
f 1379 1382 1381 1380
f 1383 1384 1385 1386
f 1379 1380 1384 1383
f 1380 1381 1385 1384
f 1381 1382 1386 1385
f 1382 1379 1383 1386
g part80
usemtl slot
v -0.44000 1.34335 2.57492
v -0.06000 1.34335 2.57492
v -0.06000 1.34833 2.56625
v -0.44000 1.34833 2.56625
v -0.44000 1.43871 2.62976
v -0.06000 1.43871 2.62976
v -0.06000 1.44369 2.62109
v -0.44000 1.44369 2.62109
f 1387 1390 1389 1388
f 1391 1392 1393 1394
f 1387 1388 1392 1391
f 1388 1389 1393 1392
f 1389 1390 1394 1393
f 1390 1387 1391 1394
g part81
usemtl chrome
v -0.43000 1.36133 2.57373
v -0.07000 1.36133 2.57373
v -0.07000 1.36432 2.56853
v -0.43000 1.36432 2.56853
v -0.43000 1.36740 2.57722
v -0.07000 1.36740 2.57722
v -0.07000 1.37039 2.57202
v -0.43000 1.37039 2.57202
f 1395 1398 1397 1396
f 1399 1400 1401 1402
f 1395 1396 1400 1399
f 1396 1397 1401 1400
f 1397 1398 1402 1401
f 1398 1395 1399 1402
g part82
usemtl chrome
v -0.43000 1.37780 2.58320
v -0.07000 1.37780 2.58320
v -0.07000 1.38080 2.57800
v -0.43000 1.38080 2.57800
v -0.43000 1.38387 2.58669
v -0.07000 1.38387 2.58669
v -0.07000 1.38686 2.58149
v -0.43000 1.38686 2.58149
f 1403 1406 1405 1404
f 1407 1408 1409 1410
f 1403 1404 1408 1407
f 1404 1405 1409 1408
f 1405 1406 1410 1409
f 1406 1403 1407 1410
g part83
usemtl chrome
v -0.43000 1.39428 2.59267
v -0.07000 1.39428 2.59267
v -0.07000 1.39727 2.58747
v -0.43000 1.39727 2.58747
v -0.43000 1.40034 2.59616
v -0.07000 1.40034 2.59616
v -0.07000 1.40334 2.59096
v -0.43000 1.40334 2.59096
f 1411 1414 1413 1412
f 1415 1416 1417 1418
f 1411 1412 1416 1415
f 1412 1413 1417 1416
f 1413 1414 1418 1417
f 1414 1411 1415 1418
g part84
usemtl chrome
v -0.43000 1.41075 2.60214
v -0.07000 1.41075 2.60214
v -0.07000 1.41374 2.59694
v -0.43000 1.41374 2.59694
v -0.43000 1.41682 2.60563
v -0.07000 1.41682 2.60563
v -0.07000 1.41981 2.60043
v -0.43000 1.41981 2.60043
f 1419 1422 1421 1420
f 1423 1424 1425 1426
f 1419 1420 1424 1423
f 1420 1421 1425 1424
f 1421 1422 1426 1425
f 1422 1419 1423 1426
g part85
usemtl chrome
v -0.43000 1.42722 2.61162
v -0.07000 1.42722 2.61162
v -0.07000 1.43021 2.60641
v -0.43000 1.43021 2.60641
v -0.43000 1.43329 2.61510
v -0.07000 1.43329 2.61510
v -0.07000 1.43628 2.60990
v -0.43000 1.43628 2.60990
f 1427 1430 1429 1428
f 1431 1432 1433 1434
f 1427 1428 1432 1431
f 1428 1429 1433 1432
f 1429 1430 1434 1433
f 1430 1427 1431 1434
g part86
usemtl panel
v -1.08000 1.33468 2.56994
v -0.55000 1.33468 2.56994
v -0.55000 1.34165 2.55780
v -1.08000 1.34165 2.55780
v -1.08000 1.59475 2.71948
v -0.55000 1.59475 2.71948
v -0.55000 1.60173 2.70734
v -1.08000 1.60173 2.70734
f 1435 1438 1437 1436
f 1439 1440 1441 1442
f 1435 1436 1440 1439
f 1436 1437 1441 1440
f 1437 1438 1442 1441
f 1438 1435 1439 1442
g part87
usemtl slot
v -1.08000 1.59215 2.71798
v -0.55000 1.59215 2.71798
v -0.55000 1.60012 2.70411
v -1.08000 1.60012 2.70411
v -1.08000 1.59908 2.72197
v -0.55000 1.59908 2.72197
v -0.55000 1.60706 2.70810
v -1.08000 1.60706 2.70810
f 1443 1446 1445 1444
f 1447 1448 1449 1450
f 1443 1444 1448 1447
f 1444 1445 1449 1448
f 1445 1446 1450 1449
f 1446 1443 1447 1450
g part88
usemtl chrome
v -0.92000 1.55405 2.67993
v -0.72000 1.55405 2.67993
v -0.72000 1.56003 2.66952
v -0.92000 1.56003 2.66952
v -0.92000 1.57139 2.68990
v -0.72000 1.57139 2.68990
v -0.72000 1.57737 2.67949
v -0.92000 1.57737 2.67949
f 1451 1454 1453 1452
f 1455 1456 1457 1458
f 1451 1452 1456 1455
f 1452 1453 1457 1456
f 1453 1454 1458 1457
f 1454 1451 1455 1458
g part89
usemtl chrome
v -0.80000 1.34165 2.55780
v -0.78000 1.34165 2.55780
v -0.78000 1.34465 2.55260
v -0.80000 1.34465 2.55260
v -0.80000 1.36766 2.57276
v -0.78000 1.36766 2.57276
v -0.78000 1.37065 2.56755
v -0.80000 1.37065 2.56755
f 1459 1462 1461 1460
f 1463 1464 1465 1466
f 1459 1460 1464 1463
f 1460 1461 1465 1464
f 1461 1462 1466 1465
f 1462 1459 1463 1466
