# generated by generate_rv.py
mtllib rv.mtl
o door
g part0
usemtl door
v -0.02000 0.00000 -0.94000
v 0.02000 0.00000 -0.94000
v 0.02000 0.00000 0.00000
v -0.02000 0.00000 0.00000
v -0.02000 1.89000 -0.94000
v 0.02000 1.89000 -0.94000
v 0.02000 1.89000 0.00000
v -0.02000 1.89000 0.00000
f 2 3 4 1
f 8 7 6 5
f 5 6 2 1
f 6 7 3 2
f 7 8 4 3
f 8 5 1 4
g part1
usemtl glass
v 0.02000 1.02000 -0.77000
v 0.04000 1.02000 -0.77000
v 0.04000 1.02000 -0.17000
v 0.02000 1.02000 -0.17000
v 0.02000 1.77000 -0.77000
v 0.04000 1.77000 -0.77000
v 0.04000 1.77000 -0.17000
v 0.02000 1.77000 -0.17000
f 10 11 12 9
f 16 15 14 13
f 13 14 10 9
f 14 15 11 10
f 15 16 12 11
f 16 13 9 12
g part2
usemtl rack
v 0.02000 0.42000 -0.27000
v 0.07000 0.42000 -0.27000
v 0.07000 0.42000 -0.17000
v 0.02000 0.42000 -0.17000
v 0.02000 0.50000 -0.27000
v 0.07000 0.50000 -0.27000
v 0.07000 0.50000 -0.17000
v 0.02000 0.50000 -0.17000
f 18 19 20 17
f 24 23 22 21
f 21 22 18 17
f 22 23 19 18
f 23 24 20 19
f 24 21 17 20
