# generated by generate_handbrake.py
mtllib handbrake_lever.mtl
o handbrake_lever
g part0
usemtl metal
v -0.00320 -0.04000 -0.01600
v -0.00320 -0.04000 0.01600
v -0.00320 0.40000 0.01100
v -0.00320 0.40000 -0.01100
v 0.00320 -0.04000 -0.01600
v 0.00320 -0.04000 0.01600
v 0.00320 0.40000 0.01100
v 0.00320 0.40000 -0.01100
f 1 2 3 4
f 8 7 6 5
f 1 5 6 2
f 2 6 7 3
f 3 7 8 4
f 4 8 5 1
g part1
usemtl grip
v 0.01400 0.36000 0.00000
v 0.01352 0.36000 0.00290
v 0.01212 0.36000 0.00560
v 0.00990 0.36000 0.00792
v 0.00700 0.36000 0.00970
v 0.00362 0.36000 0.01082
v 0.00000 0.36000 0.01120
v -0.00362 0.36000 0.01082
v -0.00700 0.36000 0.00970
v -0.00990 0.36000 0.00792
v -0.01212 0.36000 0.00560
v -0.01352 0.36000 0.00290
v -0.01400 0.36000 0.00000
v -0.01352 0.36000 -0.00290
v -0.01212 0.36000 -0.00560
v -0.00990 0.36000 -0.00792
v -0.00700 0.36000 -0.00970
v -0.00362 0.36000 -0.01082
v -0.00000 0.36000 -0.01120
v 0.00362 0.36000 -0.01082
v 0.00700 0.36000 -0.00970
v 0.00990 0.36000 -0.00792
v 0.01212 0.36000 -0.00560
v 0.01352 0.36000 -0.00290
v 0.01482 0.37000 0.00000
v 0.01431 0.37000 0.00307
v 0.01283 0.37000 0.00593
v 0.01048 0.37000 0.00838
v 0.00741 0.37000 0.01027
v 0.00383 0.37000 0.01145
v 0.00000 0.37000 0.01185
v -0.00383 0.37000 0.01145
v -0.00741 0.37000 0.01027
v -0.01048 0.37000 0.00838
v -0.01283 0.37000 0.00593
v -0.01431 0.37000 0.00307
v -0.01482 0.37000 0.00000
v -0.01431 0.37000 -0.00307
v -0.01283 0.37000 -0.00593
v -0.01048 0.37000 -0.00838
v -0.00741 0.37000 -0.01027
v -0.00383 0.37000 -0.01145
v -0.00000 0.37000 -0.01185
v 0.00383 0.37000 -0.01145
v 0.00741 0.37000 -0.01027
v 0.01048 0.37000 -0.00838
v 0.01283 0.37000 -0.00593
v 0.01431 0.37000 -0.00307
v 0.01559 0.38000 0.00000
v 0.01506 0.38000 0.00323
v 0.01350 0.38000 0.00624
v 0.01102 0.38000 0.00882
v 0.00779 0.38000 0.01080
v 0.00403 0.38000 0.01205
v 0.00000 0.38000 0.01247
v -0.00403 0.38000 0.01205
v -0.00779 0.38000 0.01080
v -0.01102 0.38000 0.00882
v -0.01350 0.38000 0.00624
v -0.01506 0.38000 0.00323
v -0.01559 0.38000 0.00000
v -0.01506 0.38000 -0.00323
v -0.01350 0.38000 -0.00624
v -0.01102 0.38000 -0.00882
v -0.00779 0.38000 -0.01080
v -0.00403 0.38000 -0.01205
v -0.00000 0.38000 -0.01247
v 0.00403 0.38000 -0.01205
v 0.00779 0.38000 -0.01080
v 0.01102 0.38000 -0.00882
v 0.01350 0.38000 -0.00624
v 0.01506 0.38000 -0.00323
v 0.01627 0.39000 0.00000
v 0.01572 0.39000 0.00337
v 0.01409 0.39000 0.00651
v 0.01150 0.39000 0.00920
v 0.00814 0.39000 0.01127
v 0.00421 0.39000 0.01257
v 0.00000 0.39000 0.01302
v -0.00421 0.39000 0.01257
v -0.00814 0.39000 0.01127
v -0.01150 0.39000 0.00920
v -0.01409 0.39000 0.00651
v -0.01572 0.39000 0.00337
v -0.01627 0.39000 0.00000
v -0.01572 0.39000 -0.00337
v -0.01409 0.39000 -0.00651
v -0.01150 0.39000 -0.00920
v -0.00814 0.39000 -0.01127
v -0.00421 0.39000 -0.01257
v -0.00000 0.39000 -0.01302
v 0.00421 0.39000 -0.01257
v 0.00814 0.39000 -0.01127
v 0.01150 0.39000 -0.00920
v 0.01409 0.39000 -0.00651
v 0.01572 0.39000 -0.00337
v 0.01583 0.40000 0.00000
v 0.01529 0.40000 0.00328
v 0.01371 0.40000 0.00633
v 0.01120 0.40000 0.00896
v 0.00792 0.40000 0.01097
v 0.00410 0.40000 0.01224
v 0.00000 0.40000 0.01267
v -0.00410 0.40000 0.01224
v -0.00792 0.40000 0.01097
v -0.01120 0.40000 0.00896
v -0.01371 0.40000 0.00633
v -0.01529 0.40000 0.00328
v -0.01583 0.40000 0.00000
v -0.01529 0.40000 -0.00328
v -0.01371 0.40000 -0.00633
v -0.01120 0.40000 -0.00896
v -0.00792 0.40000 -0.01097
v -0.00410 0.40000 -0.01224
v -0.00000 0.40000 -0.01267
v 0.00410 0.40000 -0.01224
v 0.00792 0.40000 -0.01097
v 0.01120 0.40000 -0.00896
v 0.01371 0.40000 -0.00633
v 0.01529 0.40000 -0.00328
v 0.01715 0.41000 0.00000
v 0.01657 0.41000 0.00355
v 0.01485 0.41000 0.00686
v 0.01213 0.41000 0.00970
v 0.00857 0.41000 0.01188
v 0.00444 0.41000 0.01325
v 0.00000 0.41000 0.01372
v -0.00444 0.41000 0.01325
v -0.00857 0.41000 0.01188
v -0.01213 0.41000 0.00970
v -0.01485 0.41000 0.00686
v -0.01657 0.41000 0.00355
v -0.01715 0.41000 0.00000
v -0.01657 0.41000 -0.00355
v -0.01485 0.41000 -0.00686
v -0.01213 0.41000 -0.00970
v -0.00857 0.41000 -0.01188
v -0.00444 0.41000 -0.01325
v -0.00000 0.41000 -0.01372
v 0.00444 0.41000 -0.01325
v 0.00857 0.41000 -0.01188
v 0.01213 0.41000 -0.00970
v 0.01485 0.41000 -0.00686
v 0.01657 0.41000 -0.00355
v 0.01744 0.42000 0.00000
v 0.01684 0.42000 0.00361
v 0.01510 0.42000 0.00698
v 0.01233 0.42000 0.00986
v 0.00872 0.42000 0.01208
v 0.00451 0.42000 0.01347
v 0.00000 0.42000 0.01395
v -0.00451 0.42000 0.01347
v -0.00872 0.42000 0.01208
v -0.01233 0.42000 0.00986
v -0.01510 0.42000 0.00698
v -0.01684 0.42000 0.00361
v -0.01744 0.42000 0.00000
v -0.01684 0.42000 -0.00361
v -0.01510 0.42000 -0.00698
v -0.01233 0.42000 -0.00986
v -0.00872 0.42000 -0.01208
v -0.00451 0.42000 -0.01347
v -0.00000 0.42000 -0.01395
v 0.00451 0.42000 -0.01347
v 0.00872 0.42000 -0.01208
v 0.01233 0.42000 -0.00986
v 0.01510 0.42000 -0.00698
v 0.01684 0.42000 -0.00361
v 0.01626 0.43000 0.00000
v 0.01571 0.43000 0.00337
v 0.01409 0.43000 0.00651
v 0.01150 0.43000 0.00920
v 0.00813 0.43000 0.01127
v 0.00421 0.43000 0.01257
v 0.00000 0.43000 0.01301
v -0.00421 0.43000 0.01257
v -0.00813 0.43000 0.01127
v -0.01150 0.43000 0.00920
v -0.01409 0.43000 0.00651
v -0.01571 0.43000 0.00337
v -0.01626 0.43000 0.00000
v -0.01571 0.43000 -0.00337
v -0.01409 0.43000 -0.00651
v -0.01150 0.43000 -0.00920
v -0.00813 0.43000 -0.01127
v -0.00421 0.43000 -0.01257
v -0.00000 0.43000 -0.01301
v 0.00421 0.43000 -0.01257
v 0.00813 0.43000 -0.01127
v 0.01150 0.43000 -0.00920
v 0.01409 0.43000 -0.00651
v 0.01571 0.43000 -0.00337
v 0.01731 0.44000 0.00000
v 0.01672 0.44000 0.00358
v 0.01499 0.44000 0.00692
v 0.01224 0.44000 0.00979
v 0.00865 0.44000 0.01199
v 0.00448 0.44000 0.01338
v 0.00000 0.44000 0.01385
v -0.00448 0.44000 0.01338
v -0.00865 0.44000 0.01199
v -0.01224 0.44000 0.00979
v -0.01499 0.44000 0.00692
v -0.01672 0.44000 0.00358
v -0.01731 0.44000 0.00000
v -0.01672 0.44000 -0.00358
v -0.01499 0.44000 -0.00692
v -0.01224 0.44000 -0.00979
v -0.00865 0.44000 -0.01199
v -0.00448 0.44000 -0.01338
v -0.00000 0.44000 -0.01385
v 0.00448 0.44000 -0.01338
v 0.00865 0.44000 -0.01199
v 0.01224 0.44000 -0.00979
v 0.01499 0.44000 -0.00692
v 0.01672 0.44000 -0.00358
v 0.01690 0.45000 0.00000
v 0.01633 0.45000 0.00350
v 0.01464 0.45000 0.00676
v 0.01195 0.45000 0.00956
v 0.00845 0.45000 0.01171
v 0.00437 0.45000 0.01306
v 0.00000 0.45000 0.01352
v -0.00437 0.45000 0.01306
v -0.00845 0.45000 0.01171
v -0.01195 0.45000 0.00956
v -0.01464 0.45000 0.00676
v -0.01633 0.45000 0.00350
v -0.01690 0.45000 0.00000
v -0.01633 0.45000 -0.00350
v -0.01464 0.45000 -0.00676
v -0.01195 0.45000 -0.00956
v -0.00845 0.45000 -0.01171
v -0.00437 0.45000 -0.01306
v -0.00000 0.45000 -0.01352
v 0.00437 0.45000 -0.01306
v 0.00845 0.45000 -0.01171
v 0.01195 0.45000 -0.00956
v 0.01464 0.45000 -0.00676
v 0.01633 0.45000 -0.00350
v 0.01550 0.46000 0.00000
v 0.01497 0.46000 0.00321
v 0.01342 0.46000 0.00620
v 0.01096 0.46000 0.00877
v 0.00775 0.46000 0.01074
v 0.00401 0.46000 0.01198
v 0.00000 0.46000 0.01240
v -0.00401 0.46000 0.01198
v -0.00775 0.46000 0.01074
v -0.01096 0.46000 0.00877
v -0.01342 0.46000 0.00620
v -0.01497 0.46000 0.00321
v -0.01550 0.46000 0.00000
v -0.01497 0.46000 -0.00321
v -0.01342 0.46000 -0.00620
v -0.01096 0.46000 -0.00877
v -0.00775 0.46000 -0.01074
v -0.00401 0.46000 -0.01198
v -0.00000 0.46000 -0.01240
v 0.00401 0.46000 -0.01198
v 0.00775 0.46000 -0.01074
v 0.01096 0.46000 -0.00877
v 0.01342 0.46000 -0.00620
v 0.01497 0.46000 -0.00321
v 0.01583 0.47000 0.00000
v 0.01529 0.47000 0.00328
v 0.01371 0.47000 0.00633
v 0.01119 0.47000 0.00895
v 0.00791 0.47000 0.01096
v 0.00410 0.47000 0.01223
v 0.00000 0.47000 0.01266
v -0.00410 0.47000 0.01223
v -0.00791 0.47000 0.01096
v -0.01119 0.47000 0.00895
v -0.01371 0.47000 0.00633
v -0.01529 0.47000 0.00328
v -0.01583 0.47000 0.00000
v -0.01529 0.47000 -0.00328
v -0.01371 0.47000 -0.00633
v -0.01119 0.47000 -0.00895
v -0.00791 0.47000 -0.01096
v -0.00410 0.47000 -0.01223
v -0.00000 0.47000 -0.01266
v 0.00410 0.47000 -0.01223
v 0.00791 0.47000 -0.01096
v 0.01119 0.47000 -0.00895
v 0.01371 0.47000 -0.00633
v 0.01529 0.47000 -0.00328
v 0.01508 0.48000 0.00000
v 0.01457 0.48000 0.00312
v 0.01306 0.48000 0.00603
v 0.01066 0.48000 0.00853
v 0.00754 0.48000 0.01045
v 0.00390 0.48000 0.01165
v 0.00000 0.48000 0.01207
v -0.00390 0.48000 0.01165
v -0.00754 0.48000 0.01045
v -0.01066 0.48000 0.00853
v -0.01306 0.48000 0.00603
v -0.01457 0.48000 0.00312
v -0.01508 0.48000 0.00000
v -0.01457 0.48000 -0.00312
v -0.01306 0.48000 -0.00603
v -0.01066 0.48000 -0.00853
v -0.00754 0.48000 -0.01045
v -0.00390 0.48000 -0.01165
v -0.00000 0.48000 -0.01207
v 0.00390 0.48000 -0.01165
v 0.00754 0.48000 -0.01045
v 0.01066 0.48000 -0.00853
v 0.01306 0.48000 -0.00603
v 0.01457 0.48000 -0.00312
v 0.01427 0.49000 0.00000
v 0.01379 0.49000 0.00296
v 0.01236 0.49000 0.00571
v 0.01009 0.49000 0.00807
v 0.00714 0.49000 0.00989
v 0.00369 0.49000 0.01103
v 0.00000 0.49000 0.01142
v -0.00369 0.49000 0.01103
v -0.00714 0.49000 0.00989
v -0.01009 0.49000 0.00807
v -0.01236 0.49000 0.00571
v -0.01379 0.49000 0.00296
v -0.01427 0.49000 0.00000
v -0.01379 0.49000 -0.00296
v -0.01236 0.49000 -0.00571
v -0.01009 0.49000 -0.00807
v -0.00714 0.49000 -0.00989
v -0.00369 0.49000 -0.01103
v -0.00000 0.49000 -0.01142
v 0.00369 0.49000 -0.01103
v 0.00714 0.49000 -0.00989
v 0.01009 0.49000 -0.00807
v 0.01236 0.49000 -0.00571
v 0.01379 0.49000 -0.00296
v 0.01120 0.50000 0.00000
v 0.01082 0.50000 0.00232
v 0.00970 0.50000 0.00448
v 0.00792 0.50000 0.00634
v 0.00560 0.50000 0.00776
v 0.00290 0.50000 0.00865
v 0.00000 0.50000 0.00896
v -0.00290 0.50000 0.00865
v -0.00560 0.50000 0.00776
v -0.00792 0.50000 0.00634
v -0.00970 0.50000 0.00448
v -0.01082 0.50000 0.00232
v -0.01120 0.50000 0.00000
v -0.01082 0.50000 -0.00232
v -0.00970 0.50000 -0.00448
v -0.00792 0.50000 -0.00634
v -0.00560 0.50000 -0.00776
v -0.00290 0.50000 -0.00865
v -0.00000 0.50000 -0.00896
v 0.00290 0.50000 -0.00865
v 0.00560 0.50000 -0.00776
v 0.00792 0.50000 -0.00634
v 0.00970 0.50000 -0.00448
v 0.01082 0.50000 -0.00232
f 9 10 11 12 13 14 15 16 17 18 19 20 21 22 23 24 25 26 27 28 29 30 31 32
f 368 367 366 365 364 363 362 361 360 359 358 357 356 355 354 353 352 351 350 349 348 347 346 345
f 9 33 34 10
f 10 34 35 11
f 11 35 36 12
f 12 36 37 13
f 13 37 38 14
f 14 38 39 15
f 15 39 40 16
f 16 40 41 17
f 17 41 42 18
f 18 42 43 19
f 19 43 44 20
f 20 44 45 21
f 21 45 46 22
f 22 46 47 23
f 23 47 48 24
f 24 48 49 25
f 25 49 50 26
f 26 50 51 27
f 27 51 52 28
f 28 52 53 29
f 29 53 54 30
f 30 54 55 31
f 31 55 56 32
f 32 56 33 9
f 33 57 58 34
f 34 58 59 35
f 35 59 60 36
f 36 60 61 37
f 37 61 62 38
f 38 62 63 39
f 39 63 64 40
f 40 64 65 41
f 41 65 66 42
f 42 66 67 43
f 43 67 68 44
f 44 68 69 45
f 45 69 70 46
f 46 70 71 47
f 47 71 72 48
f 48 72 73 49
f 49 73 74 50
f 50 74 75 51
f 51 75 76 52
f 52 76 77 53
f 53 77 78 54
f 54 78 79 55
f 55 79 80 56
f 56 80 57 33
f 57 81 82 58
f 58 82 83 59
f 59 83 84 60
f 60 84 85 61
f 61 85 86 62
f 62 86 87 63
f 63 87 88 64
f 64 88 89 65
f 65 89 90 66
f 66 90 91 67
f 67 91 92 68
f 68 92 93 69
f 69 93 94 70
f 70 94 95 71
f 71 95 96 72
f 72 96 97 73
f 73 97 98 74
f 74 98 99 75
f 75 99 100 76
f 76 100 101 77
f 77 101 102 78
f 78 102 103 79
f 79 103 104 80
f 80 104 81 57
f 81 105 106 82
f 82 106 107 83
f 83 107 108 84
f 84 108 109 85
f 85 109 110 86
f 86 110 111 87
f 87 111 112 88
f 88 112 113 89
f 89 113 114 90
f 90 114 115 91
f 91 115 116 92
f 92 116 117 93
f 93 117 118 94
f 94 118 119 95
f 95 119 120 96
f 96 120 121 97
f 97 121 122 98
f 98 122 123 99
f 99 123 124 100
f 100 124 125 101
f 101 125 126 102
f 102 126 127 103
f 103 127 128 104
f 104 128 105 81
f 105 129 130 106
f 106 130 131 107
f 107 131 132 108
f 108 132 133 109
f 109 133 134 110
f 110 134 135 111
f 111 135 136 112
f 112 136 137 113
f 113 137 138 114
f 114 138 139 115
f 115 139 140 116
f 116 140 141 117
f 117 141 142 118
f 118 142 143 119
f 119 143 144 120
f 120 144 145 121
f 121 145 146 122
f 122 146 147 123
f 123 147 148 124
f 124 148 149 125
f 125 149 150 126
f 126 150 151 127
f 127 151 152 128
f 128 152 129 105
f 129 153 154 130
f 130 154 155 131
f 131 155 156 132
f 132 156 157 133
f 133 157 158 134
f 134 158 159 135
f 135 159 160 136
f 136 160 161 137
f 137 161 162 138
f 138 162 163 139
f 139 163 164 140
f 140 164 165 141
f 141 165 166 142
f 142 166 167 143
f 143 167 168 144
f 144 168 169 145
f 145 169 170 146
f 146 170 171 147
f 147 171 172 148
f 148 172 173 149
f 149 173 174 150
f 150 174 175 151
f 151 175 176 152
f 152 176 153 129
f 153 177 178 154
f 154 178 179 155
f 155 179 180 156
f 156 180 181 157
f 157 181 182 158
f 158 182 183 159
f 159 183 184 160
f 160 184 185 161
f 161 185 186 162
f 162 186 187 163
f 163 187 188 164
f 164 188 189 165
f 165 189 190 166
f 166 190 191 167
f 167 191 192 168
f 168 192 193 169
f 169 193 194 170
f 170 194 195 171
f 171 195 196 172
f 172 196 197 173
f 173 197 198 174
f 174 198 199 175
f 175 199 200 176
f 176 200 177 153
f 177 201 202 178
f 178 202 203 179
f 179 203 204 180
f 180 204 205 181
f 181 205 206 182
f 182 206 207 183
f 183 207 208 184
f 184 208 209 185
f 185 209 210 186
f 186 210 211 187
f 187 211 212 188
f 188 212 213 189
f 189 213 214 190
f 190 214 215 191
f 191 215 216 192
f 192 216 217 193
f 193 217 218 194
f 194 218 219 195
f 195 219 220 196
f 196 220 221 197
f 197 221 222 198
f 198 222 223 199
f 199 223 224 200
f 200 224 201 177
f 201 225 226 202
f 202 226 227 203
f 203 227 228 204
f 204 228 229 205
f 205 229 230 206
f 206 230 231 207
f 207 231 232 208
f 208 232 233 209
f 209 233 234 210
f 210 234 235 211
f 211 235 236 212
f 212 236 237 213
f 213 237 238 214
f 214 238 239 215
f 215 239 240 216
f 216 240 241 217
f 217 241 242 218
f 218 242 243 219
f 219 243 244 220
f 220 244 245 221
f 221 245 246 222
f 222 246 247 223
f 223 247 248 224
f 224 248 225 201
f 225 249 250 226
f 226 250 251 227
f 227 251 252 228
f 228 252 253 229
f 229 253 254 230
f 230 254 255 231
f 231 255 256 232
f 232 256 257 233
f 233 257 258 234
f 234 258 259 235
f 235 259 260 236
f 236 260 261 237
f 237 261 262 238
f 238 262 263 239
f 239 263 264 240
f 240 264 265 241
f 241 265 266 242
f 242 266 267 243
f 243 267 268 244
f 244 268 269 245
f 245 269 270 246
f 246 270 271 247
f 247 271 272 248
f 248 272 249 225
f 249 273 274 250
f 250 274 275 251
f 251 275 276 252
f 252 276 277 253
f 253 277 278 254
f 254 278 279 255
f 255 279 280 256
f 256 280 281 257
f 257 281 282 258
f 258 282 283 259
f 259 283 284 260
f 260 284 285 261
f 261 285 286 262
f 262 286 287 263
f 263 287 288 264
f 264 288 289 265
f 265 289 290 266
f 266 290 291 267
f 267 291 292 268
f 268 292 293 269
f 269 293 294 270
f 270 294 295 271
f 271 295 296 272
f 272 296 273 249
f 273 297 298 274
f 274 298 299 275
f 275 299 300 276
f 276 300 301 277
f 277 301 302 278
f 278 302 303 279
f 279 303 304 280
f 280 304 305 281
f 281 305 306 282
f 282 306 307 283
f 283 307 308 284
f 284 308 309 285
f 285 309 310 286
f 286 310 311 287
f 287 311 312 288
f 288 312 313 289
f 289 313 314 290
f 290 314 315 291
f 291 315 316 292
f 292 316 317 293
f 293 317 318 294
f 294 318 319 295
f 295 319 320 296
f 296 320 297 273
f 297 321 322 298
f 298 322 323 299
f 299 323 324 300
f 300 324 325 301
f 301 325 326 302
f 302 326 327 303
f 303 327 328 304
f 304 328 329 305
f 305 329 330 306
f 306 330 331 307
f 307 331 332 308
f 308 332 333 309
f 309 333 334 310
f 310 334 335 311
f 311 335 336 312
f 312 336 337 313
f 313 337 338 314
f 314 338 339 315
f 315 339 340 316
f 316 340 341 317
f 317 341 342 318
f 318 342 343 319
f 319 343 344 320
f 320 344 321 297
f 321 345 346 322
f 322 346 347 323
f 323 347 348 324
f 324 348 349 325
f 325 349 350 326
f 326 350 351 327
f 327 351 352 328
f 328 352 353 329
f 329 353 354 330
f 330 354 355 331
f 331 355 356 332
f 332 356 357 333
f 333 357 358 334
f 334 358 359 335
f 335 359 360 336
f 336 360 361 337
f 337 361 362 338
f 338 362 363 339
f 339 363 364 340
f 340 364 365 341
f 341 365 366 342
f 342 366 367 343
f 343 367 368 344
f 344 368 345 321
g part2
usemtl chrome
v -0.01050 0.49900 -0.00750
v 0.01050 0.49900 -0.00750
v 0.01050 0.49900 0.00750
v -0.01050 0.49900 0.00750
v -0.01050 0.50700 -0.00750
v 0.01050 0.50700 -0.00750
v 0.01050 0.50700 0.00750
v -0.01050 0.50700 0.00750
f 370 371 372 369
f 376 375 374 373
f 373 374 370 369
f 374 375 371 370
f 375 376 372 371
f 376 373 369 372
