# generated by generate_rv.py
mtllib rv.mtl
o headlight_glow
g part0
usemtl glow
v -0.93200 0.90000 3.61300
v -0.93718 0.92602 3.61300
v -0.95192 0.94808 3.61300
v -0.97398 0.96282 3.61300
v -1.00000 0.96800 3.61300
v -1.02602 0.96282 3.61300
v -1.04808 0.94808 3.61300
v -1.06282 0.92602 3.61300
v -1.06800 0.90000 3.61300
v -1.06282 0.87398 3.61300
v -1.04808 0.85192 3.61300
v -1.02602 0.83718 3.61300
v -1.00000 0.83200 3.61300
v -0.97398 0.83718 3.61300
v -0.95192 0.85192 3.61300
v -0.93718 0.87398 3.61300
f 1 2 3 4 5 6 7 8 9 10 11 12 13 14 15 16
g part1
usemtl glow
v -0.93200 1.08000 3.61300
v -0.93718 1.10602 3.61300
v -0.95192 1.12808 3.61300
v -0.97398 1.14282 3.61300
v -1.00000 1.14800 3.61300
v -1.02602 1.14282 3.61300
v -1.04808 1.12808 3.61300
v -1.06282 1.10602 3.61300
v -1.06800 1.08000 3.61300
v -1.06282 1.05398 3.61300
v -1.04808 1.03192 3.61300
v -1.02602 1.01718 3.61300
v -1.00000 1.01200 3.61300
v -0.97398 1.01718 3.61300
v -0.95192 1.03192 3.61300
v -0.93718 1.05398 3.61300
f 17 18 19 20 21 22 23 24 25 26 27 28 29 30 31 32
g part2
usemtl glow
v 1.06800 0.90000 3.61300
v 1.06282 0.92602 3.61300
v 1.04808 0.94808 3.61300
v 1.02602 0.96282 3.61300
v 1.00000 0.96800 3.61300
v 0.97398 0.96282 3.61300
v 0.95192 0.94808 3.61300
v 0.93718 0.92602 3.61300
v 0.93200 0.90000 3.61300
v 0.93718 0.87398 3.61300
v 0.95192 0.85192 3.61300
v 0.97398 0.83718 3.61300
v 1.00000 0.83200 3.61300
v 1.02602 0.83718 3.61300
v 1.04808 0.85192 3.61300
v 1.06282 0.87398 3.61300
f 33 34 35 36 37 38 39 40 41 42 43 44 45 46 47 48
g part3
usemtl glow
v 1.06800 1.08000 3.61300
v 1.06282 1.10602 3.61300
v 1.04808 1.12808 3.61300
v 1.02602 1.14282 3.61300
v 1.00000 1.14800 3.61300
v 0.97398 1.14282 3.61300
v 0.95192 1.12808 3.61300
v 0.93718 1.10602 3.61300
v 0.93200 1.08000 3.61300
v 0.93718 1.05398 3.61300
v 0.95192 1.03192 3.61300
v 0.97398 1.01718 3.61300
v 1.00000 1.01200 3.61300
v 1.02602 1.01718 3.61300
v 1.04808 1.03192 3.61300
v 1.06282 1.05398 3.61300
f 49 50 51 52 53 54 55 56 57 58 59 60 61 62 63 64
