# generated by generate_key.py
mtllib key.mtl
o key
g part0
usemtl brass
v -0.00130 0.00700 0.00000
v -0.00130 0.00700 -0.04700
v -0.00130 0.00100 -0.04700
v -0.00130 -0.00500 -0.04400
v -0.00130 -0.00500 -0.03800
v -0.00130 -0.00200 -0.03800
v -0.00130 -0.00200 -0.03200
v -0.00130 -0.00650 -0.03200
v -0.00130 -0.00650 -0.02500
v -0.00130 -0.00300 -0.02500
v -0.00130 -0.00300 -0.01900
v -0.00130 -0.00700 -0.01900
v -0.00130 -0.00700 -0.01200
v -0.00130 -0.00350 -0.01200
v -0.00130 -0.00350 -0.00600
v -0.00130 -0.00700 -0.00600
v -0.00130 -0.00700 0.00000
v 0.00130 0.00700 0.00000
v 0.00130 0.00700 -0.04700
v 0.00130 0.00100 -0.04700
v 0.00130 -0.00500 -0.04400
v 0.00130 -0.00500 -0.03800
v 0.00130 -0.00200 -0.03800
v 0.00130 -0.00200 -0.03200
v 0.00130 -0.00650 -0.03200
v 0.00130 -0.00650 -0.02500
v 0.00130 -0.00300 -0.02500
v 0.00130 -0.00300 -0.01900
v 0.00130 -0.00700 -0.01900
v 0.00130 -0.00700 -0.01200
v 0.00130 -0.00350 -0.01200
v 0.00130 -0.00350 -0.00600
v 0.00130 -0.00700 -0.00600
v 0.00130 -0.00700 0.00000
f 1 2 3 4 5 6 7 8 9 10 11 12 13 14 15 16 17
f 34 33 32 31 30 29 28 27 26 25 24 23 22 21 20 19 18
f 1 18 19 2
f 2 19 20 3
f 3 20 21 4
f 4 21 22 5
f 5 22 23 6
f 6 23 24 7
f 7 24 25 8
f 8 25 26 9
f 9 26 27 10
f 10 27 28 11
f 11 28 29 12
f 12 29 30 13
f 13 30 31 14
f 14 31 32 15
f 15 32 33 16
f 16 33 34 17
f 17 34 18 1
g part1
usemtl brass
v -0.00300 -0.00950 0.00000
v 0.00300 -0.00950 0.00000
v 0.00300 -0.00950 0.00350
v -0.00300 -0.00950 0.00350
v -0.00300 0.00950 0.00000
v 0.00300 0.00950 0.00000
v 0.00300 0.00950 0.00350
v -0.00300 0.00950 0.00350
f 36 37 38 35
f 42 41 40 39
f 39 40 36 35
f 40 41 37 36
f 41 42 38 37
f 42 39 35 38
g part2
usemtl plastic
v -0.00320 -0.00750 0.00350
v 0.00320 -0.00750 0.00350
v 0.00320 -0.00750 0.01400
v -0.00320 -0.00750 0.01400
v -0.00320 0.00750 0.00350
v 0.00320 0.00750 0.00350
v 0.00320 0.00750 0.01400
v -0.00320 0.00750 0.01400
f 44 45 46 43
f 50 49 48 47
f 47 48 44 43
f 48 49 45 44
f 49 50 46 45
f 50 47 43 46
g part3
usemtl plastic
v -0.00320 0.00000 0.06350
v -0.00320 0.00321 0.06311
v -0.00320 0.00633 0.06196
v -0.00320 0.00925 0.06008
v -0.00320 0.01189 0.05753
v -0.00320 0.01417 0.05439
v -0.00320 0.01602 0.05075
v -0.00320 0.01738 0.04672
v -0.00320 0.01822 0.04243
v -0.00320 0.01850 0.03800
v -0.00320 0.01822 0.03357
v -0.00320 0.01738 0.02928
v -0.00320 0.01602 0.02525
v -0.00320 0.01417 0.02161
v -0.00320 0.01189 0.01847
v -0.00320 0.00925 0.01592
v -0.00320 0.00633 0.01404
v -0.00320 0.00321 0.01289
v -0.00320 0.00000 0.01250
v -0.00320 -0.00321 0.01289
v -0.00320 -0.00633 0.01404
v -0.00320 -0.00925 0.01592
v -0.00320 -0.01189 0.01847
v -0.00320 -0.01417 0.02161
v -0.00320 -0.01602 0.02525
v -0.00320 -0.01738 0.02928
v -0.00320 -0.01822 0.03357
v -0.00320 -0.01850 0.03800
v -0.00320 -0.01822 0.04243
v -0.00320 -0.01738 0.04672
v -0.00320 -0.01602 0.05075
v -0.00320 -0.01417 0.05439
v -0.00320 -0.01189 0.05753
v -0.00320 -0.00925 0.06008
v -0.00320 -0.00633 0.06196
v -0.00320 -0.00321 0.06311
v 0.00320 0.00000 0.06350
v 0.00320 0.00321 0.06311
v 0.00320 0.00633 0.06196
v 0.00320 0.00925 0.06008
v 0.00320 0.01189 0.05753
v 0.00320 0.01417 0.05439
v 0.00320 0.01602 0.05075
v 0.00320 0.01738 0.04672
v 0.00320 0.01822 0.04243
v 0.00320 0.01850 0.03800
v 0.00320 0.01822 0.03357
v 0.00320 0.01738 0.02928
v 0.00320 0.01602 0.02525
v 0.00320 0.01417 0.02161
v 0.00320 0.01189 0.01847
v 0.00320 0.00925 0.01592
v 0.00320 0.00633 0.01404
v 0.00320 0.00321 0.01289
v 0.00320 0.00000 0.01250
v 0.00320 -0.00321 0.01289
v 0.00320 -0.00633 0.01404
v 0.00320 -0.00925 0.01592
v 0.00320 -0.01189 0.01847
v 0.00320 -0.01417 0.02161
v 0.00320 -0.01602 0.02525
v 0.00320 -0.01738 0.02928
v 0.00320 -0.01822 0.03357
v 0.00320 -0.01850 0.03800
v 0.00320 -0.01822 0.04243
v 0.00320 -0.01738 0.04672
v 0.00320 -0.01602 0.05075
v 0.00320 -0.01417 0.05439
v 0.00320 -0.01189 0.05753
v 0.00320 -0.00925 0.06008
v 0.00320 -0.00633 0.06196
v 0.00320 -0.00321 0.06311
v -0.00320 0.00000 0.05550
v -0.00320 0.00087 0.05542
v -0.00320 0.00171 0.05520
v -0.00320 0.00250 0.05483
v -0.00320 0.00321 0.05433
v -0.00320 0.00383 0.05371
v -0.00320 0.00433 0.05300
v -0.00320 0.00470 0.05221
v -0.00320 0.00492 0.05137
v -0.00320 0.00500 0.05050
v -0.00320 0.00492 0.04963
v -0.00320 0.00470 0.04879
v -0.00320 0.00433 0.04800
v -0.00320 0.00383 0.04729
v -0.00320 0.00321 0.04667
v -0.00320 0.00250 0.04617
v -0.00320 0.00171 0.04580
v -0.00320 0.00087 0.04558
v -0.00320 0.00000 0.04550
v -0.00320 -0.00087 0.04558
v -0.00320 -0.00171 0.04580
v -0.00320 -0.00250 0.04617
v -0.00320 -0.00321 0.04667
v -0.00320 -0.00383 0.04729
v -0.00320 -0.00433 0.04800
v -0.00320 -0.00470 0.04879
v -0.00320 -0.00492 0.04963
v -0.00320 -0.00500 0.05050
v -0.00320 -0.00492 0.05137
v -0.00320 -0.00470 0.05221
v -0.00320 -0.00433 0.05300
v -0.00320 -0.00383 0.05371
v -0.00320 -0.00321 0.05433
v -0.00320 -0.00250 0.05483
v -0.00320 -0.00171 0.05520
v -0.00320 -0.00087 0.05542
v 0.00320 0.00000 0.05550
v 0.00320 0.00087 0.05542
v 0.00320 0.00171 0.05520
v 0.00320 0.00250 0.05483
v 0.00320 0.00321 0.05433
v 0.00320 0.00383 0.05371
v 0.00320 0.00433 0.05300
v 0.00320 0.00470 0.05221
v 0.00320 0.00492 0.05137
v 0.00320 0.00500 0.05050
v 0.00320 0.00492 0.04963
v 0.00320 0.00470 0.04879
v 0.00320 0.00433 0.04800
v 0.00320 0.00383 0.04729
v 0.00320 0.00321 0.04667
v 0.00320 0.00250 0.04617
v 0.00320 0.00171 0.04580
v 0.00320 0.00087 0.04558
v 0.00320 0.00000 0.04550
v 0.00320 -0.00087 0.04558
v 0.00320 -0.00171 0.04580
v 0.00320 -0.00250 0.04617
v 0.00320 -0.00321 0.04667
v 0.00320 -0.00383 0.04729
v 0.00320 -0.00433 0.04800
v 0.00320 -0.00470 0.04879
v 0.00320 -0.00492 0.04963
v 0.00320 -0.00500 0.05050
v 0.00320 -0.00492 0.05137
v 0.00320 -0.00470 0.05221
v 0.00320 -0.00433 0.05300
v 0.00320 -0.00383 0.05371
v 0.00320 -0.00321 0.05433
v 0.00320 -0.00250 0.05483
v 0.00320 -0.00171 0.05520
v 0.00320 -0.00087 0.05542
f 51 52 124 123
f 87 159 160 88
f 51 87 88 52
f 123 124 160 159
f 52 53 125 124
f 88 160 161 89
f 52 88 89 53
f 124 125 161 160
f 53 54 126 125
f 89 161 162 90
f 53 89 90 54
f 125 126 162 161
f 54 55 127 126
f 90 162 163 91
f 54 90 91 55
f 126 127 163 162
f 55 56 128 127
f 91 163 164 92
f 55 91 92 56
f 127 128 164 163
f 56 57 129 128
f 92 164 165 93
f 56 92 93 57
f 128 129 165 164
f 57 58 130 129
f 93 165 166 94
f 57 93 94 58
f 129 130 166 165
f 58 59 131 130
f 94 166 167 95
f 58 94 95 59
f 130 131 167 166
f 59 60 132 131
f 95 167 168 96
f 59 95 96 60
f 131 132 168 167
f 60 61 133 132
f 96 168 169 97
f 60 96 97 61
f 132 133 169 168
f 61 62 134 133
f 97 169 170 98
f 61 97 98 62
f 133 134 170 169
f 62 63 135 134
f 98 170 171 99
f 62 98 99 63
f 134 135 171 170
f 63 64 136 135
f 99 171 172 100
f 63 99 100 64
f 135 136 172 171
f 64 65 137 136
f 100 172 173 101
f 64 100 101 65
f 136 137 173 172
f 65 66 138 137
f 101 173 174 102
f 65 101 102 66
f 137 138 174 173
f 66 67 139 138
f 102 174 175 103
f 66 102 103 67
f 138 139 175 174
f 67 68 140 139
f 103 175 176 104
f 67 103 104 68
f 139 140 176 175
f 68 69 141 140
f 104 176 177 105
f 68 104 105 69
f 140 141 177 176
f 69 70 142 141
f 105 177 178 106
f 69 105 106 70
f 141 142 178 177
f 70 71 143 142
f 106 178 179 107
f 70 106 107 71
f 142 143 179 178
f 71 72 144 143
f 107 179 180 108
f 71 107 108 72
f 143 144 180 179
f 72 73 145 144
f 108 180 181 109
f 72 108 109 73
f 144 145 181 180
f 73 74 146 145
f 109 181 182 110
f 73 109 110 74
f 145 146 182 181
f 74 75 147 146
f 110 182 183 111
f 74 110 111 75
f 146 147 183 182
f 75 76 148 147
f 111 183 184 112
f 75 111 112 76
f 147 148 184 183
f 76 77 149 148
f 112 184 185 113
f 76 112 113 77
f 148 149 185 184
f 77 78 150 149
f 113 185 186 114
f 77 113 114 78
f 149 150 186 185
f 78 79 151 150
f 114 186 187 115
f 78 114 115 79
f 150 151 187 186
f 79 80 152 151
f 115 187 188 116
f 79 115 116 80
f 151 152 188 187
f 80 81 153 152
f 116 188 189 117
f 80 116 117 81
f 152 153 189 188
f 81 82 154 153
f 117 189 190 118
f 81 117 118 82
f 153 154 190 189
f 82 83 155 154
f 118 190 191 119
f 82 118 119 83
f 154 155 191 190
f 83 84 156 155
f 119 191 192 120
f 83 119 120 84
f 155 156 192 191
f 84 85 157 156
f 120 192 193 121
f 84 120 121 85
f 156 157 193 192
f 85 86 158 157
f 121 193 194 122
f 85 121 122 86
f 157 158 194 193
f 86 51 123 158
f 122 194 159 87
f 86 122 87 51
f 158 123 159 194
