# generated by generate_needle.py
mtllib needle.mtl
o needle
g part0
usemtl redneedle
v 0.00350 0.00200 0.00000
v 0.00090 0.05000 0.00000
v -0.00090 0.05000 0.00000
v -0.00350 0.00200 0.00000
v -0.00450 -0.00600 0.00000
v -0.00300 -0.01200 0.00000
v 0.00300 -0.01200 0.00000
v 0.00450 -0.00600 0.00000
v 0.00350 0.00200 0.00300
v 0.00090 0.05000 0.00300
v -0.00090 0.05000 0.00300
v -0.00350 0.00200 0.00300
v -0.00450 -0.00600 0.00300
v -0.00300 -0.01200 0.00300
v 0.00300 -0.01200 0.00300
v 0.00450 -0.00600 0.00300
f 8 7 6 5 4 3 2 1
f 9 10 11 12 13 14 15 16
f 2 10 9 1
f 3 11 10 2
f 4 12 11 3
f 5 13 12 4
f 6 14 13 5
f 7 15 14 6
f 8 16 15 7
f 1 9 16 8
