# generated by generate_rv.py
mtllib rv.mtl
o rv
g part0
usemtl body
v -1.20000 0.55000 -3.55000
v -1.20000 0.55000 3.55000
v -1.20000 1.70000 3.55000
v -1.20000 2.95000 3.00000
v -1.20000 3.05000 2.85000
v -1.20000 3.05000 -3.40000
v -1.20000 2.90000 -3.55000
v 1.20000 0.55000 -3.55000
v 1.20000 0.55000 3.55000
v 1.20000 1.70000 3.55000
v 1.20000 2.95000 3.00000
v 1.20000 3.05000 2.85000
v 1.20000 3.05000 -3.40000
v 1.20000 2.90000 -3.55000
f 7 6 5 4 3 2 1
f 8 9 10 11 12 13 14
f 8 9 2 1
f 9 10 3 2
f 10 11 4 3
f 11 12 5 4
f 12 13 6 5
f 13 14 7 6
f 14 8 1 7
g part1
usemtl glass
v -1.05000 1.92500 3.45100
v -0.03000 1.92500 3.45100
v -0.03000 2.76250 3.08250
v -1.05000 2.76250 3.08250
v -1.05000 1.93708 3.47846
v -0.03000 1.93708 3.47846
v -0.03000 2.77458 3.10996
v -1.05000 2.77458 3.10996
f 15 18 17 16
f 19 20 21 22
f 15 16 20 19
f 16 17 21 20
f 17 18 22 21
f 18 15 19 22
g part2
usemtl glass
v 0.03000 1.92500 3.45100
v 1.05000 1.92500 3.45100
v 1.05000 2.76250 3.08250
v 0.03000 2.76250 3.08250
v 0.03000 1.93708 3.47846
v 1.05000 1.93708 3.47846
v 1.05000 2.77458 3.10996
v 0.03000 2.77458 3.10996
f 23 26 25 24
f 27 28 29 30
f 23 24 28 27
f 24 25 29 28
f 25 26 30 29
f 26 23 27 30
g part3
usemtl grille
v -0.85000 0.85000 3.53000
v -0.05000 0.85000 3.53000
v -0.05000 0.85000 3.59000
v -0.85000 0.85000 3.59000
v -0.85000 1.20000 3.53000
v -0.05000 1.20000 3.53000
v -0.05000 1.20000 3.59000
v -0.85000 1.20000 3.59000
f 32 33 34 31
f 38 37 36 35
f 35 36 32 31
f 36 37 33 32
f 37 38 34 33
f 38 35 31 34
g part4
usemtl grille
v 0.05000 0.85000 3.53000
v 0.85000 0.85000 3.53000
v 0.85000 0.85000 3.59000
v 0.05000 0.85000 3.59000
v 0.05000 1.20000 3.53000
v 0.85000 1.20000 3.53000
v 0.85000 1.20000 3.59000
v 0.05000 1.20000 3.59000
f 40 41 42 39
f 46 45 44 43
f 43 44 40 39
f 44 45 41 40
f 45 46 42 41
f 46 43 39 42
g part5
usemtl light
v -0.92500 0.90000 3.55000
v -0.93071 0.92870 3.55000
v -0.94697 0.95303 3.55000
v -0.97130 0.96929 3.55000
v -1.00000 0.97500 3.55000
v -1.02870 0.96929 3.55000
v -1.05303 0.95303 3.55000
v -1.06929 0.92870 3.55000
v -1.07500 0.90000 3.55000
v -1.06929 0.87130 3.55000
v -1.05303 0.84697 3.55000
v -1.02870 0.83071 3.55000
v -1.00000 0.82500 3.55000
v -0.97130 0.83071 3.55000
v -0.94697 0.84697 3.55000
v -0.93071 0.87130 3.55000
v -0.92500 0.90000 3.61000
v -0.93071 0.92870 3.61000
v -0.94697 0.95303 3.61000
v -0.97130 0.96929 3.61000
v -1.00000 0.97500 3.61000
v -1.02870 0.96929 3.61000
v -1.05303 0.95303 3.61000
v -1.06929 0.92870 3.61000
v -1.07500 0.90000 3.61000
v -1.06929 0.87130 3.61000
v -1.05303 0.84697 3.61000
v -1.02870 0.83071 3.61000
v -1.00000 0.82500 3.61000
v -0.97130 0.83071 3.61000
v -0.94697 0.84697 3.61000
v -0.93071 0.87130 3.61000
f 47 48 49 50 51 52 53 54 55 56 57 58 59 60 61 62
f 78 77 76 75 74 73 72 71 70 69 68 67 66 65 64 63
f 47 48 64 63
f 48 49 65 64
f 49 50 66 65
f 50 51 67 66
f 51 52 68 67
f 52 53 69 68
f 53 54 70 69
f 54 55 71 70
f 55 56 72 71
f 56 57 73 72
f 57 58 74 73
f 58 59 75 74
f 59 60 76 75
f 60 61 77 76
f 61 62 78 77
f 62 47 63 78
g part6
usemtl light
v -0.92500 1.08000 3.55000
v -0.93071 1.10870 3.55000
v -0.94697 1.13303 3.55000
v -0.97130 1.14929 3.55000
v -1.00000 1.15500 3.55000
v -1.02870 1.14929 3.55000
v -1.05303 1.13303 3.55000
v -1.06929 1.10870 3.55000
v -1.07500 1.08000 3.55000
v -1.06929 1.05130 3.55000
v -1.05303 1.02697 3.55000
v -1.02870 1.01071 3.55000
v -1.00000 1.00500 3.55000
v -0.97130 1.01071 3.55000
v -0.94697 1.02697 3.55000
v -0.93071 1.05130 3.55000
v -0.92500 1.08000 3.61000
v -0.93071 1.10870 3.61000
v -0.94697 1.13303 3.61000
v -0.97130 1.14929 3.61000
v -1.00000 1.15500 3.61000
v -1.02870 1.14929 3.61000
v -1.05303 1.13303 3.61000
v -1.06929 1.10870 3.61000
v -1.07500 1.08000 3.61000
v -1.06929 1.05130 3.61000
v -1.05303 1.02697 3.61000
v -1.02870 1.01071 3.61000
v -1.00000 1.00500 3.61000
v -0.97130 1.01071 3.61000
v -0.94697 1.02697 3.61000
v -0.93071 1.05130 3.61000
f 79 80 81 82 83 84 85 86 87 88 89 90 91 92 93 94
f 110 109 108 107 106 105 104 103 102 101 100 99 98 97 96 95
f 79 80 96 95
f 80 81 97 96
f 81 82 98 97
f 82 83 99 98
f 83 84 100 99
f 84 85 101 100
f 85 86 102 101
f 86 87 103 102
f 87 88 104 103
f 88 89 105 104
f 89 90 106 105
f 90 91 107 106
f 91 92 108 107
f 92 93 109 108
f 93 94 110 109
f 94 79 95 110
g part7
usemtl light
v 1.07500 0.90000 3.55000
v 1.06929 0.92870 3.55000
v 1.05303 0.95303 3.55000
v 1.02870 0.96929 3.55000
v 1.00000 0.97500 3.55000
v 0.97130 0.96929 3.55000
v 0.94697 0.95303 3.55000
v 0.93071 0.92870 3.55000
v 0.92500 0.90000 3.55000
v 0.93071 0.87130 3.55000
v 0.94697 0.84697 3.55000
v 0.97130 0.83071 3.55000
v 1.00000 0.82500 3.55000
v 1.02870 0.83071 3.55000
v 1.05303 0.84697 3.55000
v 1.06929 0.87130 3.55000
v 1.07500 0.90000 3.61000
v 1.06929 0.92870 3.61000
v 1.05303 0.95303 3.61000
v 1.02870 0.96929 3.61000
v 1.00000 0.97500 3.61000
v 0.97130 0.96929 3.61000
v 0.94697 0.95303 3.61000
v 0.93071 0.92870 3.61000
v 0.92500 0.90000 3.61000
v 0.93071 0.87130 3.61000
v 0.94697 0.84697 3.61000
v 0.97130 0.83071 3.61000
v 1.00000 0.82500 3.61000
v 1.02870 0.83071 3.61000
v 1.05303 0.84697 3.61000
v 1.06929 0.87130 3.61000
f 111 112 113 114 115 116 117 118 119 120 121 122 123 124 125 126
f 142 141 140 139 138 137 136 135 134 133 132 131 130 129 128 127
f 111 112 128 127
f 112 113 129 128
f 113 114 130 129
f 114 115 131 130
f 115 116 132 131
f 116 117 133 132
f 117 118 134 133
f 118 119 135 134
f 119 120 136 135
f 120 121 137 136
f 121 122 138 137
f 122 123 139 138
f 123 124 140 139
f 124 125 141 140
f 125 126 142 141
f 126 111 127 142
g part8
usemtl light
v 1.07500 1.08000 3.55000
v 1.06929 1.10870 3.55000
v 1.05303 1.13303 3.55000
v 1.02870 1.14929 3.55000
v 1.00000 1.15500 3.55000
v 0.97130 1.14929 3.55000
v 0.94697 1.13303 3.55000
v 0.93071 1.10870 3.55000
v 0.92500 1.08000 3.55000
v 0.93071 1.05130 3.55000
v 0.94697 1.02697 3.55000
v 0.97130 1.01071 3.55000
v 1.00000 1.00500 3.55000
v 1.02870 1.01071 3.55000
v 1.05303 1.02697 3.55000
v 1.06929 1.05130 3.55000
v 1.07500 1.08000 3.61000
v 1.06929 1.10870 3.61000
v 1.05303 1.13303 3.61000
v 1.02870 1.14929 3.61000
v 1.00000 1.15500 3.61000
v 0.97130 1.14929 3.61000
v 0.94697 1.13303 3.61000
v 0.93071 1.10870 3.61000
v 0.92500 1.08000 3.61000
v 0.93071 1.05130 3.61000
v 0.94697 1.02697 3.61000
v 0.97130 1.01071 3.61000
v 1.00000 1.00500 3.61000
v 1.02870 1.01071 3.61000
v 1.05303 1.02697 3.61000
v 1.06929 1.05130 3.61000
f 143 144 145 146 147 148 149 150 151 152 153 154 155 156 157 158
f 174 173 172 171 170 169 168 167 166 165 164 163 162 161 160 159
f 143 144 160 159
f 144 145 161 160
f 145 146 162 161
f 146 147 163 162
f 147 148 164 163
f 148 149 165 164
f 149 150 166 165
f 150 151 167 166
f 151 152 168 167
f 152 153 169 168
f 153 154 170 169
f 154 155 171 170
f 155 156 172 171
f 156 157 173 172
f 157 158 174 173
f 158 143 159 174
g part9
usemtl bumper
v -1.25000 0.50000 3.35000
v 1.25000 0.50000 3.35000
v 1.25000 0.50000 3.70000
v -1.25000 0.50000 3.70000
v -1.25000 0.75000 3.35000
v 1.25000 0.75000 3.35000
v 1.25000 0.75000 3.70000
v -1.25000 0.75000 3.70000
f 176 177 178 175
f 182 181 180 179
f 179 180 176 175
f 180 181 177 176
f 181 182 178 177
f 182 179 175 178
g part10
usemtl bumper
v -1.25000 0.50000 -3.70000
v 1.25000 0.50000 -3.70000
v 1.25000 0.50000 -3.40000
v -1.25000 0.50000 -3.40000
v -1.25000 0.75000 -3.70000
v 1.25000 0.75000 -3.70000
v 1.25000 0.75000 -3.40000
v -1.25000 0.75000 -3.40000
f 184 185 186 183
f 190 189 188 187
f 187 188 184 183
f 188 189 185 184
f 189 190 186 185
f 190 187 183 186
g part11
usemtl orange
v -1.22000 2.55000 -3.55000
v -1.20000 2.55000 -3.55000
v -1.20000 2.55000 3.08000
v -1.22000 2.55000 3.08000
v -1.22000 2.75000 -3.55000
v -1.20000 2.75000 -3.55000
v -1.20000 2.75000 3.08000
v -1.22000 2.75000 3.08000
f 192 193 194 191
f 198 197 196 195
f 195 196 192 191
f 196 197 193 192
f 197 198 194 193
f 198 195 191 194
g part12
usemtl teal
v -1.22000 1.30000 -3.55000
v -1.20000 1.30000 -3.55000
v -1.20000 1.30000 3.55000
v -1.22000 1.30000 3.55000
v -1.22000 1.40000 -3.55000
v -1.20000 1.40000 -3.55000
v -1.20000 1.40000 3.55000
v -1.22000 1.40000 3.55000
f 200 201 202 199
f 206 205 204 203
f 203 204 200 199
f 204 205 201 200
f 205 206 202 201
f 206 203 199 202
g part13
usemtl orange
v -1.22000 1.20000 -3.55000
v -1.20000 1.20000 -3.55000
v -1.20000 1.20000 3.55000
v -1.22000 1.20000 3.55000
v -1.22000 1.30000 -3.55000
v -1.20000 1.30000 -3.55000
v -1.20000 1.30000 3.55000
v -1.22000 1.30000 3.55000
f 208 209 210 207
f 214 213 212 211
f 211 212 208 207
f 212 213 209 208
f 213 214 210 209
f 214 211 207 210
g part14
usemtl glass
v -1.23000 1.60000 -3.10000
v -1.20000 1.60000 -3.10000
v -1.20000 1.60000 -2.20000
v -1.23000 1.60000 -2.20000
v -1.23000 2.35000 -3.10000
v -1.20000 2.35000 -3.10000
v -1.20000 2.35000 -2.20000
v -1.23000 2.35000 -2.20000
f 216 217 218 215
f 222 221 220 219
f 219 220 216 215
f 220 221 217 216
f 221 222 218 217
f 222 219 215 218
g part15
usemtl glass
v -1.23000 1.60000 -1.90000
v -1.20000 1.60000 -1.90000
v -1.20000 1.60000 -1.00000
v -1.23000 1.60000 -1.00000
v -1.23000 2.35000 -1.90000
v -1.20000 2.35000 -1.90000
v -1.20000 2.35000 -1.00000
v -1.23000 2.35000 -1.00000
f 224 225 226 223
f 230 229 228 227
f 227 228 224 223
f 228 229 225 224
f 229 230 226 225
f 230 227 223 226
g part16
usemtl glass
v -1.23000 1.90000 0.45000
v -1.20000 1.90000 0.45000
v -1.20000 1.90000 0.90000
v -1.23000 1.90000 0.90000
v -1.23000 2.50000 0.45000
v -1.20000 2.50000 0.45000
v -1.20000 2.50000 0.90000
v -1.23000 2.50000 0.90000
f 232 233 234 231
f 238 237 236 235
f 235 236 232 231
f 236 237 233 232
f 237 238 234 233
f 238 235 231 234
g part17
usemtl glass
v -1.23000 1.60000 -0.70000
v -1.20000 1.60000 -0.70000
v -1.20000 1.60000 0.00000
v -1.23000 1.60000 0.00000
v -1.23000 2.35000 -0.70000
v -1.20000 2.35000 -0.70000
v -1.20000 2.35000 0.00000
v -1.23000 2.35000 0.00000
f 240 241 242 239
f 246 245 244 243
f 243 244 240 239
f 244 245 241 240
f 245 246 242 241
f 246 243 239 242
g part18
usemtl mirror
v -1.40000 2.00000 2.98000
v -1.20000 2.00000 2.98000
v -1.20000 2.00000 3.02000
v -1.40000 2.00000 3.02000
v -1.40000 2.06000 2.98000
v -1.20000 2.06000 2.98000
v -1.20000 2.06000 3.02000
v -1.40000 2.06000 3.02000
f 248 249 250 247
f 254 253 252 251
f 251 252 248 247
f 252 253 249 248
f 253 254 250 249
f 254 251 247 250
g part19
usemtl mirror
v -1.50000 1.75000 2.93000
v -1.40000 1.75000 2.93000
v -1.40000 1.75000 3.07000
v -1.50000 1.75000 3.07000
v -1.50000 2.30000 2.93000
v -1.40000 2.30000 2.93000
v -1.40000 2.30000 3.07000
v -1.50000 2.30000 3.07000
f 256 257 258 255
f 262 261 260 259
f 259 260 256 255
f 260 261 257 256
f 261 262 258 257
f 262 259 255 258
g part20
usemtl arch
v -1.22000 0.56000 3.02000
v -1.22000 0.63796 3.00446
v -1.22000 0.76901 2.95860
v -1.22000 0.88656 2.88474
v -1.22000 0.98474 2.78656
v -1.22000 1.05860 2.66901
v -1.22000 1.10446 2.53796
v -1.22000 1.12000 2.40000
v -1.22000 1.10446 2.26204
v -1.22000 1.05860 2.13099
v -1.22000 0.98474 2.01344
v -1.22000 0.88656 1.91526
v -1.22000 0.76901 1.84140
v -1.22000 0.63796 1.79554
v -1.22000 0.56000 1.78000
v -1.22000 0.56000 1.79554
v -1.22000 0.56000 1.84140
v -1.22000 0.56000 1.91526
v -1.22000 0.56000 2.01344
v -1.22000 0.56000 2.13099
v -1.22000 0.56000 2.26204
v -1.22000 0.56000 2.40000
v -1.22000 0.56000 2.53796
v -1.22000 0.56000 2.66901
v -1.22000 0.56000 2.78656
v -1.22000 0.56000 2.88474
v -1.22000 0.56000 2.95860
v -1.22000 0.56000 3.00446
v -1.21000 0.56000 3.02000
v -1.21000 0.63796 3.00446
v -1.21000 0.76901 2.95860
v -1.21000 0.88656 2.88474
v -1.21000 0.98474 2.78656
v -1.21000 1.05860 2.66901
v -1.21000 1.10446 2.53796
v -1.21000 1.12000 2.40000
v -1.21000 1.10446 2.26204
v -1.21000 1.05860 2.13099
v -1.21000 0.98474 2.01344
v -1.21000 0.88656 1.91526
v -1.21000 0.76901 1.84140
v -1.21000 0.63796 1.79554
v -1.21000 0.56000 1.78000
v -1.21000 0.56000 1.79554
v -1.21000 0.56000 1.84140
v -1.21000 0.56000 1.91526
v -1.21000 0.56000 2.01344
v -1.21000 0.56000 2.13099
v -1.21000 0.56000 2.26204
v -1.21000 0.56000 2.40000
v -1.21000 0.56000 2.53796
v -1.21000 0.56000 2.66901
v -1.21000 0.56000 2.78656
v -1.21000 0.56000 2.88474
v -1.21000 0.56000 2.95860
v -1.21000 0.56000 3.00446
f 290 289 288 287 286 285 284 283 282 281 280 279 278 277 276 275 274 273 272 271 270 269 268 267 266 265 264 263
f 291 292 293 294 295 296 297 298 299 300 301 302 303 304 305 306 307 308 309 310 311 312 313 314 315 316 317 318
f 291 292 264 263
f 292 293 265 264
f 293 294 266 265
f 294 295 267 266
f 295 296 268 267
f 296 297 269 268
f 297 298 270 269
f 298 299 271 270
f 299 300 272 271
f 300 301 273 272
f 301 302 274 273
f 302 303 275 274
f 303 304 276 275
f 304 305 277 276
f 305 306 278 277
f 306 307 279 278
f 307 308 280 279
f 308 309 281 280
f 309 310 282 281
f 310 311 283 282
f 311 312 284 283
f 312 313 285 284
f 313 314 286 285
f 314 315 287 286
f 315 316 288 287
f 316 317 289 288
f 317 318 290 289
f 318 291 263 290
g part21
usemtl tire
v -1.38000 0.50000 2.90000
v -1.38000 0.61126 2.88746
v -1.38000 0.71694 2.85048
v -1.38000 0.81174 2.79092
v -1.38000 0.89092 2.71174
v -1.38000 0.95048 2.61694
v -1.38000 0.98746 2.51126
v -1.38000 1.00000 2.40000
v -1.38000 0.98746 2.28874
v -1.38000 0.95048 2.18306
v -1.38000 0.89092 2.08826
v -1.38000 0.81174 2.00908
v -1.38000 0.71694 1.94952
v -1.38000 0.61126 1.91254
v -1.38000 0.50000 1.90000
v -1.38000 0.38874 1.91254
v -1.38000 0.28306 1.94952
v -1.38000 0.18826 2.00908
v -1.38000 0.10908 2.08826
v -1.38000 0.04952 2.18306
v -1.38000 0.01254 2.28874
v -1.38000 0.00000 2.40000
v -1.38000 0.01254 2.51126
v -1.38000 0.04952 2.61694
v -1.38000 0.10908 2.71174
v -1.38000 0.18826 2.79092
v -1.38000 0.28306 2.85048
v -1.38000 0.38874 2.88746
v -1.00000 0.50000 2.90000
v -1.00000 0.61126 2.88746
v -1.00000 0.71694 2.85048
v -1.00000 0.81174 2.79092
v -1.00000 0.89092 2.71174
v -1.00000 0.95048 2.61694
v -1.00000 0.98746 2.51126
v -1.00000 1.00000 2.40000
v -1.00000 0.98746 2.28874
v -1.00000 0.95048 2.18306
v -1.00000 0.89092 2.08826
v -1.00000 0.81174 2.00908
v -1.00000 0.71694 1.94952
v -1.00000 0.61126 1.91254
v -1.00000 0.50000 1.90000
v -1.00000 0.38874 1.91254
v -1.00000 0.28306 1.94952
v -1.00000 0.18826 2.00908
v -1.00000 0.10908 2.08826
v -1.00000 0.04952 2.18306
v -1.00000 0.01254 2.28874
v -1.00000 0.00000 2.40000
v -1.00000 0.01254 2.51126
v -1.00000 0.04952 2.61694
v -1.00000 0.10908 2.71174
v -1.00000 0.18826 2.79092
v -1.00000 0.28306 2.85048
v -1.00000 0.38874 2.88746
f 346 345 344 343 342 341 340 339 338 337 336 335 334 333 332 331 330 329 328 327 326 325 324 323 322 321 320 319
f 347 348 349 350 351 352 353 354 355 356 357 358 359 360 361 362 363 364 365 366 367 368 369 370 371 372 373 374
f 347 348 320 319
f 348 349 321 320
f 349 350 322 321
f 350 351 323 322
f 351 352 324 323
f 352 353 325 324
f 353 354 326 325
f 354 355 327 326
f 355 356 328 327
f 356 357 329 328
f 357 358 330 329
f 358 359 331 330
f 359 360 332 331
f 360 361 333 332
f 361 362 334 333
f 362 363 335 334
f 363 364 336 335
f 364 365 337 336
f 365 366 338 337
f 366 367 339 338
f 367 368 340 339
f 368 369 341 340
f 369 370 342 341
f 370 371 343 342
f 371 372 344 343
f 372 373 345 344
f 373 374 346 345
f 374 347 319 346
g part22
usemtl hub
v -1.40000 0.50000 2.68000
v -1.40000 0.58652 2.66630
v -1.40000 0.66458 2.62652
v -1.40000 0.72652 2.56458
v -1.40000 0.76630 2.48652
v -1.40000 0.78000 2.40000
v -1.40000 0.76630 2.31348
v -1.40000 0.72652 2.23542
v -1.40000 0.66458 2.17348
v -1.40000 0.58652 2.13370
v -1.40000 0.50000 2.12000
v -1.40000 0.41348 2.13370
v -1.40000 0.33542 2.17348
v -1.40000 0.27348 2.23542
v -1.40000 0.23370 2.31348
v -1.40000 0.22000 2.40000
v -1.40000 0.23370 2.48652
v -1.40000 0.27348 2.56458
v -1.40000 0.33542 2.62652
v -1.40000 0.41348 2.66630
v -1.38000 0.50000 2.68000
v -1.38000 0.58652 2.66630
v -1.38000 0.66458 2.62652
v -1.38000 0.72652 2.56458
v -1.38000 0.76630 2.48652
v -1.38000 0.78000 2.40000
v -1.38000 0.76630 2.31348
v -1.38000 0.72652 2.23542
v -1.38000 0.66458 2.17348
v -1.38000 0.58652 2.13370
v -1.38000 0.50000 2.12000
v -1.38000 0.41348 2.13370
v -1.38000 0.33542 2.17348
v -1.38000 0.27348 2.23542
v -1.38000 0.23370 2.31348
v -1.38000 0.22000 2.40000
v -1.38000 0.23370 2.48652
v -1.38000 0.27348 2.56458
v -1.38000 0.33542 2.62652
v -1.38000 0.41348 2.66630
f 394 393 392 391 390 389 388 387 386 385 384 383 382 381 380 379 378 377 376 375
f 395 396 397 398 399 400 401 402 403 404 405 406 407 408 409 410 411 412 413 414
f 395 396 376 375
f 396 397 377 376
f 397 398 378 377
f 398 399 379 378
f 399 400 380 379
f 400 401 381 380
f 401 402 382 381
f 402 403 383 382
f 403 404 384 383
f 404 405 385 384
f 405 406 386 385
f 406 407 387 386
f 407 408 388 387
f 408 409 389 388
f 409 410 390 389
f 410 411 391 390
f 411 412 392 391
f 412 413 393 392
f 413 414 394 393
f 414 395 375 394
g part23
usemtl cap
v -1.42000 0.50000 2.49000
v -1.42000 0.54500 2.47794
v -1.42000 0.57794 2.44500
v -1.42000 0.59000 2.40000
v -1.42000 0.57794 2.35500
v -1.42000 0.54500 2.32206
v -1.42000 0.50000 2.31000
v -1.42000 0.45500 2.32206
v -1.42000 0.42206 2.35500
v -1.42000 0.41000 2.40000
v -1.42000 0.42206 2.44500
v -1.42000 0.45500 2.47794
v -1.40000 0.50000 2.49000
v -1.40000 0.54500 2.47794
v -1.40000 0.57794 2.44500
v -1.40000 0.59000 2.40000
v -1.40000 0.57794 2.35500
v -1.40000 0.54500 2.32206
v -1.40000 0.50000 2.31000
v -1.40000 0.45500 2.32206
v -1.40000 0.42206 2.35500
v -1.40000 0.41000 2.40000
v -1.40000 0.42206 2.44500
v -1.40000 0.45500 2.47794
f 426 425 424 423 422 421 420 419 418 417 416 415
f 427 428 429 430 431 432 433 434 435 436 437 438
f 427 428 416 415
f 428 429 417 416
f 429 430 418 417
f 430 431 419 418
f 431 432 420 419
f 432 433 421 420
f 433 434 422 421
f 434 435 423 422
f 435 436 424 423
f 436 437 425 424
f 437 438 426 425
f 438 427 415 426
g part24
usemtl arch
v -1.22000 0.56000 -1.68000
v -1.22000 0.63796 -1.69554
v -1.22000 0.76901 -1.74140
v -1.22000 0.88656 -1.81526
v -1.22000 0.98474 -1.91344
v -1.22000 1.05860 -2.03099
v -1.22000 1.10446 -2.16204
v -1.22000 1.12000 -2.30000
v -1.22000 1.10446 -2.43796
v -1.22000 1.05860 -2.56901
v -1.22000 0.98474 -2.68656
v -1.22000 0.88656 -2.78474
v -1.22000 0.76901 -2.85860
v -1.22000 0.63796 -2.90446
v -1.22000 0.56000 -2.92000
v -1.22000 0.56000 -2.90446
v -1.22000 0.56000 -2.85860
v -1.22000 0.56000 -2.78474
v -1.22000 0.56000 -2.68656
v -1.22000 0.56000 -2.56901
v -1.22000 0.56000 -2.43796
v -1.22000 0.56000 -2.30000
v -1.22000 0.56000 -2.16204
v -1.22000 0.56000 -2.03099
v -1.22000 0.56000 -1.91344
v -1.22000 0.56000 -1.81526
v -1.22000 0.56000 -1.74140
v -1.22000 0.56000 -1.69554
v -1.21000 0.56000 -1.68000
v -1.21000 0.63796 -1.69554
v -1.21000 0.76901 -1.74140
v -1.21000 0.88656 -1.81526
v -1.21000 0.98474 -1.91344
v -1.21000 1.05860 -2.03099
v -1.21000 1.10446 -2.16204
v -1.21000 1.12000 -2.30000
v -1.21000 1.10446 -2.43796
v -1.21000 1.05860 -2.56901
v -1.21000 0.98474 -2.68656
v -1.21000 0.88656 -2.78474
v -1.21000 0.76901 -2.85860
v -1.21000 0.63796 -2.90446
v -1.21000 0.56000 -2.92000
v -1.21000 0.56000 -2.90446
v -1.21000 0.56000 -2.85860
v -1.21000 0.56000 -2.78474
v -1.21000 0.56000 -2.68656
v -1.21000 0.56000 -2.56901
v -1.21000 0.56000 -2.43796
v -1.21000 0.56000 -2.30000
v -1.21000 0.56000 -2.16204
v -1.21000 0.56000 -2.03099
v -1.21000 0.56000 -1.91344
v -1.21000 0.56000 -1.81526
v -1.21000 0.56000 -1.74140
v -1.21000 0.56000 -1.69554
f 466 465 464 463 462 461 460 459 458 457 456 455 454 453 452 451 450 449 448 447 446 445 444 443 442 441 440 439
f 467 468 469 470 471 472 473 474 475 476 477 478 479 480 481 482 483 484 485 486 487 488 489 490 491 492 493 494
f 467 468 440 439
f 468 469 441 440
f 469 470 442 441
f 470 471 443 442
f 471 472 444 443
f 472 473 445 444
f 473 474 446 445
f 474 475 447 446
f 475 476 448 447
f 476 477 449 448
f 477 478 450 449
f 478 479 451 450
f 479 480 452 451
f 480 481 453 452
f 481 482 454 453
f 482 483 455 454
f 483 484 456 455
f 484 485 457 456
f 485 486 458 457
f 486 487 459 458
f 487 488 460 459
f 488 489 461 460
f 489 490 462 461
f 490 491 463 462
f 491 492 464 463
f 492 493 465 464
f 493 494 466 465
f 494 467 439 466
g part25
usemtl tire
v -1.38000 0.50000 -1.80000
v -1.38000 0.61126 -1.81254
v -1.38000 0.71694 -1.84952
v -1.38000 0.81174 -1.90908
v -1.38000 0.89092 -1.98826
v -1.38000 0.95048 -2.08306
v -1.38000 0.98746 -2.18874
v -1.38000 1.00000 -2.30000
v -1.38000 0.98746 -2.41126
v -1.38000 0.95048 -2.51694
v -1.38000 0.89092 -2.61174
v -1.38000 0.81174 -2.69092
v -1.38000 0.71694 -2.75048
v -1.38000 0.61126 -2.78746
v -1.38000 0.50000 -2.80000
v -1.38000 0.38874 -2.78746
v -1.38000 0.28306 -2.75048
v -1.38000 0.18826 -2.69092
v -1.38000 0.10908 -2.61174
v -1.38000 0.04952 -2.51694
v -1.38000 0.01254 -2.41126
v -1.38000 0.00000 -2.30000
v -1.38000 0.01254 -2.18874
v -1.38000 0.04952 -2.08306
v -1.38000 0.10908 -1.98826
v -1.38000 0.18826 -1.90908
v -1.38000 0.28306 -1.84952
v -1.38000 0.38874 -1.81254
v -1.00000 0.50000 -1.80000
v -1.00000 0.61126 -1.81254
v -1.00000 0.71694 -1.84952
v -1.00000 0.81174 -1.90908
v -1.00000 0.89092 -1.98826
v -1.00000 0.95048 -2.08306
v -1.00000 0.98746 -2.18874
v -1.00000 1.00000 -2.30000
v -1.00000 0.98746 -2.41126
v -1.00000 0.95048 -2.51694
v -1.00000 0.89092 -2.61174
v -1.00000 0.81174 -2.69092
v -1.00000 0.71694 -2.75048
v -1.00000 0.61126 -2.78746
v -1.00000 0.50000 -2.80000
v -1.00000 0.38874 -2.78746
v -1.00000 0.28306 -2.75048
v -1.00000 0.18826 -2.69092
v -1.00000 0.10908 -2.61174
v -1.00000 0.04952 -2.51694
v -1.00000 0.01254 -2.41126
v -1.00000 0.00000 -2.30000
v -1.00000 0.01254 -2.18874
v -1.00000 0.04952 -2.08306
v -1.00000 0.10908 -1.98826
v -1.00000 0.18826 -1.90908
v -1.00000 0.28306 -1.84952
v -1.00000 0.38874 -1.81254
f 522 521 520 519 518 517 516 515 514 513 512 511 510 509 508 507 506 505 504 503 502 501 500 499 498 497 496 495
f 523 524 525 526 527 528 529 530 531 532 533 534 535 536 537 538 539 540 541 542 543 544 545 546 547 548 549 550
f 523 524 496 495
f 524 525 497 496
f 525 526 498 497
f 526 527 499 498
f 527 528 500 499
f 528 529 501 500
f 529 530 502 501
f 530 531 503 502
f 531 532 504 503
f 532 533 505 504
f 533 534 506 505
f 534 535 507 506
f 535 536 508 507
f 536 537 509 508
f 537 538 510 509
f 538 539 511 510
f 539 540 512 511
f 540 541 513 512
f 541 542 514 513
f 542 543 515 514
f 543 544 516 515
f 544 545 517 516
f 545 546 518 517
f 546 547 519 518
f 547 548 520 519
f 548 549 521 520
f 549 550 522 521
f 550 523 495 522
g part26
usemtl hub
v -1.40000 0.50000 -2.02000
v -1.40000 0.58652 -2.03370
v -1.40000 0.66458 -2.07348
v -1.40000 0.72652 -2.13542
v -1.40000 0.76630 -2.21348
v -1.40000 0.78000 -2.30000
v -1.40000 0.76630 -2.38652
v -1.40000 0.72652 -2.46458
v -1.40000 0.66458 -2.52652
v -1.40000 0.58652 -2.56630
v -1.40000 0.50000 -2.58000
v -1.40000 0.41348 -2.56630
v -1.40000 0.33542 -2.52652
v -1.40000 0.27348 -2.46458
v -1.40000 0.23370 -2.38652
v -1.40000 0.22000 -2.30000
v -1.40000 0.23370 -2.21348
v -1.40000 0.27348 -2.13542
v -1.40000 0.33542 -2.07348
v -1.40000 0.41348 -2.03370
v -1.38000 0.50000 -2.02000
v -1.38000 0.58652 -2.03370
v -1.38000 0.66458 -2.07348
v -1.38000 0.72652 -2.13542
v -1.38000 0.76630 -2.21348
v -1.38000 0.78000 -2.30000
v -1.38000 0.76630 -2.38652
v -1.38000 0.72652 -2.46458
v -1.38000 0.66458 -2.52652
v -1.38000 0.58652 -2.56630
v -1.38000 0.50000 -2.58000
v -1.38000 0.41348 -2.56630
v -1.38000 0.33542 -2.52652
v -1.38000 0.27348 -2.46458
v -1.38000 0.23370 -2.38652
v -1.38000 0.22000 -2.30000
v -1.38000 0.23370 -2.21348
v -1.38000 0.27348 -2.13542
v -1.38000 0.33542 -2.07348
v -1.38000 0.41348 -2.03370
f 570 569 568 567 566 565 564 563 562 561 560 559 558 557 556 555 554 553 552 551
f 571 572 573 574 575 576 577 578 579 580 581 582 583 584 585 586 587 588 589 590
f 571 572 552 551
f 572 573 553 552
f 573 574 554 553
f 574 575 555 554
f 575 576 556 555
f 576 577 557 556
f 577 578 558 557
f 578 579 559 558
f 579 580 560 559
f 580 581 561 560
f 581 582 562 561
f 582 583 563 562
f 583 584 564 563
f 584 585 565 564
f 585 586 566 565
f 586 587 567 566
f 587 588 568 567
f 588 589 569 568
f 589 590 570 569
f 590 571 551 570
g part27
usemtl cap
v -1.42000 0.50000 -2.21000
v -1.42000 0.54500 -2.22206
v -1.42000 0.57794 -2.25500
v -1.42000 0.59000 -2.30000
v -1.42000 0.57794 -2.34500
v -1.42000 0.54500 -2.37794
v -1.42000 0.50000 -2.39000
v -1.42000 0.45500 -2.37794
v -1.42000 0.42206 -2.34500
v -1.42000 0.41000 -2.30000
v -1.42000 0.42206 -2.25500
v -1.42000 0.45500 -2.22206
v -1.40000 0.50000 -2.21000
v -1.40000 0.54500 -2.22206
v -1.40000 0.57794 -2.25500
v -1.40000 0.59000 -2.30000
v -1.40000 0.57794 -2.34500
v -1.40000 0.54500 -2.37794
v -1.40000 0.50000 -2.39000
v -1.40000 0.45500 -2.37794
v -1.40000 0.42206 -2.34500
v -1.40000 0.41000 -2.30000
v -1.40000 0.42206 -2.25500
v -1.40000 0.45500 -2.22206
f 602 601 600 599 598 597 596 595 594 593 592 591
f 603 604 605 606 607 608 609 610 611 612 613 614
f 603 604 592 591
f 604 605 593 592
f 605 606 594 593
f 606 607 595 594
f 607 608 596 595
f 608 609 597 596
f 609 610 598 597
f 610 611 599 598
f 611 612 600 599
f 612 613 601 600
f 613 614 602 601
f 614 603 591 602
g part28
usemtl orange
v 1.20000 2.55000 -3.55000
v 1.22000 2.55000 -3.55000
v 1.22000 2.55000 3.08000
v 1.20000 2.55000 3.08000
v 1.20000 2.75000 -3.55000
v 1.22000 2.75000 -3.55000
v 1.22000 2.75000 3.08000
v 1.20000 2.75000 3.08000
f 616 617 618 615
f 622 621 620 619
f 619 620 616 615
f 620 621 617 616
f 621 622 618 617
f 622 619 615 618
g part29
usemtl teal
v 1.20000 1.30000 -3.55000
v 1.22000 1.30000 -3.55000
v 1.22000 1.30000 3.55000
v 1.20000 1.30000 3.55000
v 1.20000 1.40000 -3.55000
v 1.22000 1.40000 -3.55000
v 1.22000 1.40000 3.55000
v 1.20000 1.40000 3.55000
f 624 625 626 623
f 630 629 628 627
f 627 628 624 623
f 628 629 625 624
f 629 630 626 625
f 630 627 623 626
g part30
usemtl orange
v 1.20000 1.20000 -3.55000
v 1.22000 1.20000 -3.55000
v 1.22000 1.20000 3.55000
v 1.20000 1.20000 3.55000
v 1.20000 1.30000 -3.55000
v 1.22000 1.30000 -3.55000
v 1.22000 1.30000 3.55000
v 1.20000 1.30000 3.55000
f 632 633 634 631
f 638 637 636 635
f 635 636 632 631
f 636 637 633 632
f 637 638 634 633
f 638 635 631 634
g part31
usemtl glass
v 1.20000 1.60000 -3.10000
v 1.23000 1.60000 -3.10000
v 1.23000 1.60000 -2.20000
v 1.20000 1.60000 -2.20000
v 1.20000 2.35000 -3.10000
v 1.23000 2.35000 -3.10000
v 1.23000 2.35000 -2.20000
v 1.20000 2.35000 -2.20000
f 640 641 642 639
f 646 645 644 643
f 643 644 640 639
f 644 645 641 640
f 645 646 642 641
f 646 643 639 642
g part32
usemtl glass
v 1.20000 1.60000 -1.90000
v 1.23000 1.60000 -1.90000
v 1.23000 1.60000 -1.00000
v 1.20000 1.60000 -1.00000
v 1.20000 2.35000 -1.90000
v 1.23000 2.35000 -1.90000
v 1.23000 2.35000 -1.00000
v 1.20000 2.35000 -1.00000
f 648 649 650 647
f 654 653 652 651
f 651 652 648 647
f 652 653 649 648
f 653 654 650 649
f 654 651 647 650
g part33
usemtl glass
v 1.20000 1.90000 0.45000
v 1.23000 1.90000 0.45000
v 1.23000 1.90000 0.90000
v 1.20000 1.90000 0.90000
v 1.20000 2.50000 0.45000
v 1.23000 2.50000 0.45000
v 1.23000 2.50000 0.90000
v 1.20000 2.50000 0.90000
f 656 657 658 655
f 662 661 660 659
f 659 660 656 655
f 660 661 657 656
f 661 662 658 657
f 662 659 655 658
g part34
usemtl door
v 1.20000 0.60000 -0.80000
v 1.24000 0.60000 -0.80000
v 1.24000 0.60000 0.10000
v 1.20000 0.60000 0.10000
v 1.20000 2.45000 -0.80000
v 1.24000 2.45000 -0.80000
v 1.24000 2.45000 0.10000
v 1.20000 2.45000 0.10000
f 664 665 666 663
f 670 669 668 667
f 667 668 664 663
f 668 669 665 664
f 669 670 666 665
f 670 667 663 666
g part35
usemtl glass
v 1.24000 1.60000 -0.65000
v 1.26000 1.60000 -0.65000
v 1.26000 1.60000 -0.05000
v 1.24000 1.60000 -0.05000
v 1.24000 2.35000 -0.65000
v 1.26000 2.35000 -0.65000
v 1.26000 2.35000 -0.05000
v 1.24000 2.35000 -0.05000
f 672 673 674 671
f 678 677 676 675
f 675 676 672 671
f 676 677 673 672
f 677 678 674 673
f 678 675 671 674
g part36
usemtl rack
v 1.24000 1.00000 -0.15000
v 1.29000 1.00000 -0.15000
v 1.29000 1.00000 -0.05000
v 1.24000 1.00000 -0.05000
v 1.24000 1.08000 -0.15000
v 1.29000 1.08000 -0.15000
v 1.29000 1.08000 -0.05000
v 1.24000 1.08000 -0.05000
f 680 681 682 679
f 686 685 684 683
f 683 684 680 679
f 684 685 681 680
f 685 686 682 681
f 686 683 679 682
g part37
usemtl mirror
v 1.20000 2.00000 2.98000
v 1.40000 2.00000 2.98000
v 1.40000 2.00000 3.02000
v 1.20000 2.00000 3.02000
v 1.20000 2.06000 2.98000
v 1.40000 2.06000 2.98000
v 1.40000 2.06000 3.02000
v 1.20000 2.06000 3.02000
f 688 689 690 687
f 694 693 692 691
f 691 692 688 687
f 692 693 689 688
f 693 694 690 689
f 694 691 687 690
g part38
usemtl mirror
v 1.40000 1.75000 2.93000
v 1.50000 1.75000 2.93000
v 1.50000 1.75000 3.07000
v 1.40000 1.75000 3.07000
v 1.40000 2.30000 2.93000
v 1.50000 2.30000 2.93000
v 1.50000 2.30000 3.07000
v 1.40000 2.30000 3.07000
f 696 697 698 695
f 702 701 700 699
f 699 700 696 695
f 700 701 697 696
f 701 702 698 697
f 702 699 695 698
g part39
usemtl arch
v 1.21000 0.56000 3.02000
v 1.21000 0.63796 3.00446
v 1.21000 0.76901 2.95860
v 1.21000 0.88656 2.88474
v 1.21000 0.98474 2.78656
v 1.21000 1.05860 2.66901
v 1.21000 1.10446 2.53796
v 1.21000 1.12000 2.40000
v 1.21000 1.10446 2.26204
v 1.21000 1.05860 2.13099
v 1.21000 0.98474 2.01344
v 1.21000 0.88656 1.91526
v 1.21000 0.76901 1.84140
v 1.21000 0.63796 1.79554
v 1.21000 0.56000 1.78000
v 1.21000 0.56000 1.79554
v 1.21000 0.56000 1.84140
v 1.21000 0.56000 1.91526
v 1.21000 0.56000 2.01344
v 1.21000 0.56000 2.13099
v 1.21000 0.56000 2.26204
v 1.21000 0.56000 2.40000
v 1.21000 0.56000 2.53796
v 1.21000 0.56000 2.66901
v 1.21000 0.56000 2.78656
v 1.21000 0.56000 2.88474
v 1.21000 0.56000 2.95860
v 1.21000 0.56000 3.00446
v 1.22000 0.56000 3.02000
v 1.22000 0.63796 3.00446
v 1.22000 0.76901 2.95860
v 1.22000 0.88656 2.88474
v 1.22000 0.98474 2.78656
v 1.22000 1.05860 2.66901
v 1.22000 1.10446 2.53796
v 1.22000 1.12000 2.40000
v 1.22000 1.10446 2.26204
v 1.22000 1.05860 2.13099
v 1.22000 0.98474 2.01344
v 1.22000 0.88656 1.91526
v 1.22000 0.76901 1.84140
v 1.22000 0.63796 1.79554
v 1.22000 0.56000 1.78000
v 1.22000 0.56000 1.79554
v 1.22000 0.56000 1.84140
v 1.22000 0.56000 1.91526
v 1.22000 0.56000 2.01344
v 1.22000 0.56000 2.13099
v 1.22000 0.56000 2.26204
v 1.22000 0.56000 2.40000
v 1.22000 0.56000 2.53796
v 1.22000 0.56000 2.66901
v 1.22000 0.56000 2.78656
v 1.22000 0.56000 2.88474
v 1.22000 0.56000 2.95860
v 1.22000 0.56000 3.00446
f 730 729 728 727 726 725 724 723 722 721 720 719 718 717 716 715 714 713 712 711 710 709 708 707 706 705 704 703
f 731 732 733 734 735 736 737 738 739 740 741 742 743 744 745 746 747 748 749 750 751 752 753 754 755 756 757 758
f 731 732 704 703
f 732 733 705 704
f 733 734 706 705
f 734 735 707 706
f 735 736 708 707
f 736 737 709 708
f 737 738 710 709
f 738 739 711 710
f 739 740 712 711
f 740 741 713 712
f 741 742 714 713
f 742 743 715 714
f 743 744 716 715
f 744 745 717 716
f 745 746 718 717
f 746 747 719 718
f 747 748 720 719
f 748 749 721 720
f 749 750 722 721
f 750 751 723 722
f 751 752 724 723
f 752 753 725 724
f 753 754 726 725
f 754 755 727 726
f 755 756 728 727
f 756 757 729 728
f 757 758 730 729
f 758 731 703 730
g part40
usemtl tire
v 1.00000 0.50000 2.90000
v 1.00000 0.61126 2.88746
v 1.00000 0.71694 2.85048
v 1.00000 0.81174 2.79092
v 1.00000 0.89092 2.71174
v 1.00000 0.95048 2.61694
v 1.00000 0.98746 2.51126
v 1.00000 1.00000 2.40000
v 1.00000 0.98746 2.28874
v 1.00000 0.95048 2.18306
v 1.00000 0.89092 2.08826
v 1.00000 0.81174 2.00908
v 1.00000 0.71694 1.94952
v 1.00000 0.61126 1.91254
v 1.00000 0.50000 1.90000
v 1.00000 0.38874 1.91254
v 1.00000 0.28306 1.94952
v 1.00000 0.18826 2.00908
v 1.00000 0.10908 2.08826
v 1.00000 0.04952 2.18306
v 1.00000 0.01254 2.28874
v 1.00000 0.00000 2.40000
v 1.00000 0.01254 2.51126
v 1.00000 0.04952 2.61694
v 1.00000 0.10908 2.71174
v 1.00000 0.18826 2.79092
v 1.00000 0.28306 2.85048
v 1.00000 0.38874 2.88746
v 1.38000 0.50000 2.90000
v 1.38000 0.61126 2.88746
v 1.38000 0.71694 2.85048
v 1.38000 0.81174 2.79092
v 1.38000 0.89092 2.71174
v 1.38000 0.95048 2.61694
v 1.38000 0.98746 2.51126
v 1.38000 1.00000 2.40000
v 1.38000 0.98746 2.28874
v 1.38000 0.95048 2.18306
v 1.38000 0.89092 2.08826
v 1.38000 0.81174 2.00908
v 1.38000 0.71694 1.94952
v 1.38000 0.61126 1.91254
v 1.38000 0.50000 1.90000
v 1.38000 0.38874 1.91254
v 1.38000 0.28306 1.94952
v 1.38000 0.18826 2.00908
v 1.38000 0.10908 2.08826
v 1.38000 0.04952 2.18306
v 1.38000 0.01254 2.28874
v 1.38000 0.00000 2.40000
v 1.38000 0.01254 2.51126
v 1.38000 0.04952 2.61694
v 1.38000 0.10908 2.71174
v 1.38000 0.18826 2.79092
v 1.38000 0.28306 2.85048
v 1.38000 0.38874 2.88746
f 786 785 784 783 782 781 780 779 778 777 776 775 774 773 772 771 770 769 768 767 766 765 764 763 762 761 760 759
f 787 788 789 790 791 792 793 794 795 796 797 798 799 800 801 802 803 804 805 806 807 808 809 810 811 812 813 814
f 787 788 760 759
f 788 789 761 760
f 789 790 762 761
f 790 791 763 762
f 791 792 764 763
f 792 793 765 764
f 793 794 766 765
f 794 795 767 766
f 795 796 768 767
f 796 797 769 768
f 797 798 770 769
f 798 799 771 770
f 799 800 772 771
f 800 801 773 772
f 801 802 774 773
f 802 803 775 774
f 803 804 776 775
f 804 805 777 776
f 805 806 778 777
f 806 807 779 778
f 807 808 780 779
f 808 809 781 780
f 809 810 782 781
f 810 811 783 782
f 811 812 784 783
f 812 813 785 784
f 813 814 786 785
f 814 787 759 786
g part41
usemtl hub
v 1.38000 0.50000 2.68000
v 1.38000 0.58652 2.66630
v 1.38000 0.66458 2.62652
v 1.38000 0.72652 2.56458
v 1.38000 0.76630 2.48652
v 1.38000 0.78000 2.40000
v 1.38000 0.76630 2.31348
v 1.38000 0.72652 2.23542
v 1.38000 0.66458 2.17348
v 1.38000 0.58652 2.13370
v 1.38000 0.50000 2.12000
v 1.38000 0.41348 2.13370
v 1.38000 0.33542 2.17348
v 1.38000 0.27348 2.23542
v 1.38000 0.23370 2.31348
v 1.38000 0.22000 2.40000
v 1.38000 0.23370 2.48652
v 1.38000 0.27348 2.56458
v 1.38000 0.33542 2.62652
v 1.38000 0.41348 2.66630
v 1.40000 0.50000 2.68000
v 1.40000 0.58652 2.66630
v 1.40000 0.66458 2.62652
v 1.40000 0.72652 2.56458
v 1.40000 0.76630 2.48652
v 1.40000 0.78000 2.40000
v 1.40000 0.76630 2.31348
v 1.40000 0.72652 2.23542
v 1.40000 0.66458 2.17348
v 1.40000 0.58652 2.13370
v 1.40000 0.50000 2.12000
v 1.40000 0.41348 2.13370
v 1.40000 0.33542 2.17348
v 1.40000 0.27348 2.23542
v 1.40000 0.23370 2.31348
v 1.40000 0.22000 2.40000
v 1.40000 0.23370 2.48652
v 1.40000 0.27348 2.56458
v 1.40000 0.33542 2.62652
v 1.40000 0.41348 2.66630
f 834 833 832 831 830 829 828 827 826 825 824 823 822 821 820 819 818 817 816 815
f 835 836 837 838 839 840 841 842 843 844 845 846 847 848 849 850 851 852 853 854
f 835 836 816 815
f 836 837 817 816
f 837 838 818 817
f 838 839 819 818
f 839 840 820 819
f 840 841 821 820
f 841 842 822 821
f 842 843 823 822
f 843 844 824 823
f 844 845 825 824
f 845 846 826 825
f 846 847 827 826
f 847 848 828 827
f 848 849 829 828
f 849 850 830 829
f 850 851 831 830
f 851 852 832 831
f 852 853 833 832
f 853 854 834 833
f 854 835 815 834
g part42
usemtl cap
v 1.40000 0.50000 2.49000
v 1.40000 0.54500 2.47794
v 1.40000 0.57794 2.44500
v 1.40000 0.59000 2.40000
v 1.40000 0.57794 2.35500
v 1.40000 0.54500 2.32206
v 1.40000 0.50000 2.31000
v 1.40000 0.45500 2.32206
v 1.40000 0.42206 2.35500
v 1.40000 0.41000 2.40000
v 1.40000 0.42206 2.44500
v 1.40000 0.45500 2.47794
v 1.42000 0.50000 2.49000
v 1.42000 0.54500 2.47794
v 1.42000 0.57794 2.44500
v 1.42000 0.59000 2.40000
v 1.42000 0.57794 2.35500
v 1.42000 0.54500 2.32206
v 1.42000 0.50000 2.31000
v 1.42000 0.45500 2.32206
v 1.42000 0.42206 2.35500
v 1.42000 0.41000 2.40000
v 1.42000 0.42206 2.44500
v 1.42000 0.45500 2.47794
f 866 865 864 863 862 861 860 859 858 857 856 855
f 867 868 869 870 871 872 873 874 875 876 877 878
f 867 868 856 855
f 868 869 857 856
f 869 870 858 857
f 870 871 859 858
f 871 872 860 859
f 872 873 861 860
f 873 874 862 861
f 874 875 863 862
f 875 876 864 863
f 876 877 865 864
f 877 878 866 865
f 878 867 855 866
g part43
usemtl arch
v 1.21000 0.56000 -1.68000
v 1.21000 0.63796 -1.69554
v 1.21000 0.76901 -1.74140
v 1.21000 0.88656 -1.81526
v 1.21000 0.98474 -1.91344
v 1.21000 1.05860 -2.03099
v 1.21000 1.10446 -2.16204
v 1.21000 1.12000 -2.30000
v 1.21000 1.10446 -2.43796
v 1.21000 1.05860 -2.56901
v 1.21000 0.98474 -2.68656
v 1.21000 0.88656 -2.78474
v 1.21000 0.76901 -2.85860
v 1.21000 0.63796 -2.90446
v 1.21000 0.56000 -2.92000
v 1.21000 0.56000 -2.90446
v 1.21000 0.56000 -2.85860
v 1.21000 0.56000 -2.78474
v 1.21000 0.56000 -2.68656
v 1.21000 0.56000 -2.56901
v 1.21000 0.56000 -2.43796
v 1.21000 0.56000 -2.30000
v 1.21000 0.56000 -2.16204
v 1.21000 0.56000 -2.03099
v 1.21000 0.56000 -1.91344
v 1.21000 0.56000 -1.81526
v 1.21000 0.56000 -1.74140
v 1.21000 0.56000 -1.69554
v 1.22000 0.56000 -1.68000
v 1.22000 0.63796 -1.69554
v 1.22000 0.76901 -1.74140
v 1.22000 0.88656 -1.81526
v 1.22000 0.98474 -1.91344
v 1.22000 1.05860 -2.03099
v 1.22000 1.10446 -2.16204
v 1.22000 1.12000 -2.30000
v 1.22000 1.10446 -2.43796
v 1.22000 1.05860 -2.56901
v 1.22000 0.98474 -2.68656
v 1.22000 0.88656 -2.78474
v 1.22000 0.76901 -2.85860
v 1.22000 0.63796 -2.90446
v 1.22000 0.56000 -2.92000
v 1.22000 0.56000 -2.90446
v 1.22000 0.56000 -2.85860
v 1.22000 0.56000 -2.78474
v 1.22000 0.56000 -2.68656
v 1.22000 0.56000 -2.56901
v 1.22000 0.56000 -2.43796
v 1.22000 0.56000 -2.30000
v 1.22000 0.56000 -2.16204
v 1.22000 0.56000 -2.03099
v 1.22000 0.56000 -1.91344
v 1.22000 0.56000 -1.81526
v 1.22000 0.56000 -1.74140
v 1.22000 0.56000 -1.69554
f 906 905 904 903 902 901 900 899 898 897 896 895 894 893 892 891 890 889 888 887 886 885 884 883 882 881 880 879
f 907 908 909 910 911 912 913 914 915 916 917 918 919 920 921 922 923 924 925 926 927 928 929 930 931 932 933 934
f 907 908 880 879
f 908 909 881 880
f 909 910 882 881
f 910 911 883 882
f 911 912 884 883
f 912 913 885 884
f 913 914 886 885
f 914 915 887 886
f 915 916 888 887
f 916 917 889 888
f 917 918 890 889
f 918 919 891 890
f 919 920 892 891
f 920 921 893 892
f 921 922 894 893
f 922 923 895 894
f 923 924 896 895
f 924 925 897 896
f 925 926 898 897
f 926 927 899 898
f 927 928 900 899
f 928 929 901 900
f 929 930 902 901
f 930 931 903 902
f 931 932 904 903
f 932 933 905 904
f 933 934 906 905
f 934 907 879 906
g part44
usemtl tire
v 1.00000 0.50000 -1.80000
v 1.00000 0.61126 -1.81254
v 1.00000 0.71694 -1.84952
v 1.00000 0.81174 -1.90908
v 1.00000 0.89092 -1.98826
v 1.00000 0.95048 -2.08306
v 1.00000 0.98746 -2.18874
v 1.00000 1.00000 -2.30000
v 1.00000 0.98746 -2.41126
v 1.00000 0.95048 -2.51694
v 1.00000 0.89092 -2.61174
v 1.00000 0.81174 -2.69092
v 1.00000 0.71694 -2.75048
v 1.00000 0.61126 -2.78746
v 1.00000 0.50000 -2.80000
v 1.00000 0.38874 -2.78746
v 1.00000 0.28306 -2.75048
v 1.00000 0.18826 -2.69092
v 1.00000 0.10908 -2.61174
v 1.00000 0.04952 -2.51694
v 1.00000 0.01254 -2.41126
v 1.00000 0.00000 -2.30000
v 1.00000 0.01254 -2.18874
v 1.00000 0.04952 -2.08306
v 1.00000 0.10908 -1.98826
v 1.00000 0.18826 -1.90908
v 1.00000 0.28306 -1.84952
v 1.00000 0.38874 -1.81254
v 1.38000 0.50000 -1.80000
v 1.38000 0.61126 -1.81254
v 1.38000 0.71694 -1.84952
v 1.38000 0.81174 -1.90908
v 1.38000 0.89092 -1.98826
v 1.38000 0.95048 -2.08306
v 1.38000 0.98746 -2.18874
v 1.38000 1.00000 -2.30000
v 1.38000 0.98746 -2.41126
v 1.38000 0.95048 -2.51694
v 1.38000 0.89092 -2.61174
v 1.38000 0.81174 -2.69092
v 1.38000 0.71694 -2.75048
v 1.38000 0.61126 -2.78746
v 1.38000 0.50000 -2.80000
v 1.38000 0.38874 -2.78746
v 1.38000 0.28306 -2.75048
v 1.38000 0.18826 -2.69092
v 1.38000 0.10908 -2.61174
v 1.38000 0.04952 -2.51694
v 1.38000 0.01254 -2.41126
v 1.38000 0.00000 -2.30000
v 1.38000 0.01254 -2.18874
v 1.38000 0.04952 -2.08306
v 1.38000 0.10908 -1.98826
v 1.38000 0.18826 -1.90908
v 1.38000 0.28306 -1.84952
v 1.38000 0.38874 -1.81254
f 962 961 960 959 958 957 956 955 954 953 952 951 950 949 948 947 946 945 944 943 942 941 940 939 938 937 936 935
f 963 964 965 966 967 968 969 970 971 972 973 974 975 976 977 978 979 980 981 982 983 984 985 986 987 988 989 990
f 963 964 936 935
f 964 965 937 936
f 965 966 938 937
f 966 967 939 938
f 967 968 940 939
f 968 969 941 940
f 969 970 942 941
f 970 971 943 942
f 971 972 944 943
f 972 973 945 944
f 973 974 946 945
f 974 975 947 946
f 975 976 948 947
f 976 977 949 948
f 977 978 950 949
f 978 979 951 950
f 979 980 952 951
f 980 981 953 952
f 981 982 954 953
f 982 983 955 954
f 983 984 956 955
f 984 985 957 956
f 985 986 958 957
f 986 987 959 958
f 987 988 960 959
f 988 989 961 960
f 989 990 962 961
f 990 963 935 962
g part45
usemtl hub
v 1.38000 0.50000 -2.02000
v 1.38000 0.58652 -2.03370
v 1.38000 0.66458 -2.07348
v 1.38000 0.72652 -2.13542
v 1.38000 0.76630 -2.21348
v 1.38000 0.78000 -2.30000
v 1.38000 0.76630 -2.38652
v 1.38000 0.72652 -2.46458
v 1.38000 0.66458 -2.52652
v 1.38000 0.58652 -2.56630
v 1.38000 0.50000 -2.58000
v 1.38000 0.41348 -2.56630
v 1.38000 0.33542 -2.52652
v 1.38000 0.27348 -2.46458
v 1.38000 0.23370 -2.38652
v 1.38000 0.22000 -2.30000
v 1.38000 0.23370 -2.21348
v 1.38000 0.27348 -2.13542
v 1.38000 0.33542 -2.07348
v 1.38000 0.41348 -2.03370
v 1.40000 0.50000 -2.02000
v 1.40000 0.58652 -2.03370
v 1.40000 0.66458 -2.07348
v 1.40000 0.72652 -2.13542
v 1.40000 0.76630 -2.21348
v 1.40000 0.78000 -2.30000
v 1.40000 0.76630 -2.38652
v 1.40000 0.72652 -2.46458
v 1.40000 0.66458 -2.52652
v 1.40000 0.58652 -2.56630
v 1.40000 0.50000 -2.58000
v 1.40000 0.41348 -2.56630
v 1.40000 0.33542 -2.52652
v 1.40000 0.27348 -2.46458
v 1.40000 0.23370 -2.38652
v 1.40000 0.22000 -2.30000
v 1.40000 0.23370 -2.21348
v 1.40000 0.27348 -2.13542
v 1.40000 0.33542 -2.07348
v 1.40000 0.41348 -2.03370
f 1010 1009 1008 1007 1006 1005 1004 1003 1002 1001 1000 999 998 997 996 995 994 993 992 991
f 1011 1012 1013 1014 1015 1016 1017 1018 1019 1020 1021 1022 1023 1024 1025 1026 1027 1028 1029 1030
f 1011 1012 992 991
f 1012 1013 993 992
f 1013 1014 994 993
f 1014 1015 995 994
f 1015 1016 996 995
f 1016 1017 997 996
f 1017 1018 998 997
f 1018 1019 999 998
f 1019 1020 1000 999
f 1020 1021 1001 1000
f 1021 1022 1002 1001
f 1022 1023 1003 1002
f 1023 1024 1004 1003
f 1024 1025 1005 1004
f 1025 1026 1006 1005
f 1026 1027 1007 1006
f 1027 1028 1008 1007
f 1028 1029 1009 1008
f 1029 1030 1010 1009
f 1030 1011 991 1010
g part46
usemtl cap
v 1.40000 0.50000 -2.21000
v 1.40000 0.54500 -2.22206
v 1.40000 0.57794 -2.25500
v 1.40000 0.59000 -2.30000
v 1.40000 0.57794 -2.34500
v 1.40000 0.54500 -2.37794
v 1.40000 0.50000 -2.39000
v 1.40000 0.45500 -2.37794
v 1.40000 0.42206 -2.34500
v 1.40000 0.41000 -2.30000
v 1.40000 0.42206 -2.25500
v 1.40000 0.45500 -2.22206
v 1.42000 0.50000 -2.21000
v 1.42000 0.54500 -2.22206
v 1.42000 0.57794 -2.25500
v 1.42000 0.59000 -2.30000
v 1.42000 0.57794 -2.34500
v 1.42000 0.54500 -2.37794
v 1.42000 0.50000 -2.39000
v 1.42000 0.45500 -2.37794
v 1.42000 0.42206 -2.34500
v 1.42000 0.41000 -2.30000
v 1.42000 0.42206 -2.25500
v 1.42000 0.45500 -2.22206
f 1042 1041 1040 1039 1038 1037 1036 1035 1034 1033 1032 1031
f 1043 1044 1045 1046 1047 1048 1049 1050 1051 1052 1053 1054
f 1043 1044 1032 1031
f 1044 1045 1033 1032
f 1045 1046 1034 1033
f 1046 1047 1035 1034
f 1047 1048 1036 1035
f 1048 1049 1037 1036
f 1049 1050 1038 1037
f 1050 1051 1039 1038
f 1051 1052 1040 1039
f 1052 1053 1041 1040
f 1053 1054 1042 1041
f 1054 1043 1031 1042
g part47
usemtl glass
v -1.00000 1.60000 -3.58000
v 0.45000 1.60000 -3.58000
v 0.45000 1.60000 -3.55000
v -1.00000 1.60000 -3.55000
v -1.00000 2.35000 -3.58000
v 0.45000 2.35000 -3.58000
v 0.45000 2.35000 -3.55000
v -1.00000 2.35000 -3.55000
f 1056 1057 1058 1055
f 1062 1061 1060 1059
f 1059 1060 1056 1055
f 1060 1061 1057 1056
f 1061 1062 1058 1057
f 1062 1059 1055 1058
g part48
usemtl orange
v -1.20000 2.55000 -3.57000
v 1.20000 2.55000 -3.57000
v 1.20000 2.55000 -3.55000
v -1.20000 2.55000 -3.55000
v -1.20000 2.75000 -3.57000
v 1.20000 2.75000 -3.57000
v 1.20000 2.75000 -3.55000
v -1.20000 2.75000 -3.55000
f 1064 1065 1066 1063
f 1070 1069 1068 1067
f 1067 1068 1064 1063
f 1068 1069 1065 1064
f 1069 1070 1066 1065
f 1070 1067 1063 1066
g part49
usemtl rack
v 0.67500 0.85000 -3.65000
v 0.72500 0.85000 -3.65000
v 0.72500 0.85000 -3.60000
v 0.67500 0.85000 -3.60000
v 0.67500 2.95000 -3.65000
v 0.72500 2.95000 -3.65000
v 0.72500 2.95000 -3.60000
v 0.67500 2.95000 -3.60000
f 1072 1073 1074 1071
f 1078 1077 1076 1075
f 1075 1076 1072 1071
f 1076 1077 1073 1072
f 1077 1078 1074 1073
f 1078 1075 1071 1074
g part50
usemtl rack
v 0.68000 0.85000 -3.65000
v 0.72000 0.85000 -3.65000
v 0.72000 0.85000 -3.55000
v 0.68000 0.85000 -3.55000
v 0.68000 0.90000 -3.65000
v 0.72000 0.90000 -3.65000
v 0.72000 0.90000 -3.55000
v 0.68000 0.90000 -3.55000
f 1080 1081 1082 1079
f 1086 1085 1084 1083
f 1083 1084 1080 1079
f 1084 1085 1081 1080
f 1085 1086 1082 1081
f 1086 1083 1079 1082
g part51
usemtl rack
v 0.68000 2.90000 -3.65000
v 0.72000 2.90000 -3.65000
v 0.72000 2.90000 -3.55000
v 0.68000 2.90000 -3.55000
v 0.68000 2.95000 -3.65000
v 0.72000 2.95000 -3.65000
v 0.72000 2.95000 -3.55000
v 0.68000 2.95000 -3.55000
f 1088 1089 1090 1087
f 1094 1093 1092 1091
f 1091 1092 1088 1087
f 1092 1093 1089 1088
f 1093 1094 1090 1089
f 1094 1091 1087 1090
g part52
usemtl rack
v 0.97500 0.85000 -3.65000
v 1.02500 0.85000 -3.65000
v 1.02500 0.85000 -3.60000
v 0.97500 0.85000 -3.60000
v 0.97500 2.95000 -3.65000
v 1.02500 2.95000 -3.65000
v 1.02500 2.95000 -3.60000
v 0.97500 2.95000 -3.60000
f 1096 1097 1098 1095
f 1102 1101 1100 1099
f 1099 1100 1096 1095
f 1100 1101 1097 1096
f 1101 1102 1098 1097
f 1102 1099 1095 1098
g part53
usemtl rack
v 0.98000 0.85000 -3.65000
v 1.02000 0.85000 -3.65000
v 1.02000 0.85000 -3.55000
v 0.98000 0.85000 -3.55000
v 0.98000 0.90000 -3.65000
v 1.02000 0.90000 -3.65000
v 1.02000 0.90000 -3.55000
v 0.98000 0.90000 -3.55000
f 1104 1105 1106 1103
f 1110 1109 1108 1107
f 1107 1108 1104 1103
f 1108 1109 1105 1104
f 1109 1110 1106 1105
f 1110 1107 1103 1106
g part54
usemtl rack
v 0.98000 2.90000 -3.65000
v 1.02000 2.90000 -3.65000
v 1.02000 2.90000 -3.55000
v 0.98000 2.90000 -3.55000
v 0.98000 2.95000 -3.65000
v 1.02000 2.95000 -3.65000
v 1.02000 2.95000 -3.55000
v 0.98000 2.95000 -3.55000
f 1112 1113 1114 1111
f 1118 1117 1116 1115
f 1115 1116 1112 1111
f 1116 1117 1113 1112
f 1117 1118 1114 1113
f 1118 1115 1111 1114
g part55
usemtl rack
v 0.70000 1.00000 -3.65000
v 1.00000 1.00000 -3.65000
v 1.00000 1.00000 -3.61000
v 0.70000 1.00000 -3.61000
v 0.70000 1.04000 -3.65000
v 1.00000 1.04000 -3.65000
v 1.00000 1.04000 -3.61000
v 0.70000 1.04000 -3.61000
f 1120 1121 1122 1119
f 1126 1125 1124 1123
f 1123 1124 1120 1119
f 1124 1125 1121 1120
f 1125 1126 1122 1121
f 1126 1123 1119 1122
g part56
usemtl rack
v 0.70000 1.25000 -3.65000
v 1.00000 1.25000 -3.65000
v 1.00000 1.25000 -3.61000
v 0.70000 1.25000 -3.61000
v 0.70000 1.29000 -3.65000
v 1.00000 1.29000 -3.65000
v 1.00000 1.29000 -3.61000
v 0.70000 1.29000 -3.61000
f 1128 1129 1130 1127
f 1134 1133 1132 1131
f 1131 1132 1128 1127
f 1132 1133 1129 1128
f 1133 1134 1130 1129
f 1134 1131 1127 1130
g part57
usemtl rack
v 0.70000 1.50000 -3.65000
v 1.00000 1.50000 -3.65000
v 1.00000 1.50000 -3.61000
v 0.70000 1.50000 -3.61000
v 0.70000 1.54000 -3.65000
v 1.00000 1.54000 -3.65000
v 1.00000 1.54000 -3.61000
v 0.70000 1.54000 -3.61000
f 1136 1137 1138 1135
f 1142 1141 1140 1139
f 1139 1140 1136 1135
f 1140 1141 1137 1136
f 1141 1142 1138 1137
f 1142 1139 1135 1138
g part58
usemtl rack
v 0.70000 1.75000 -3.65000
v 1.00000 1.75000 -3.65000
v 1.00000 1.75000 -3.61000
v 0.70000 1.75000 -3.61000
v 0.70000 1.79000 -3.65000
v 1.00000 1.79000 -3.65000
v 1.00000 1.79000 -3.61000
v 0.70000 1.79000 -3.61000
f 1144 1145 1146 1143
f 1150 1149 1148 1147
f 1147 1148 1144 1143
f 1148 1149 1145 1144
f 1149 1150 1146 1145
f 1150 1147 1143 1146
g part59
usemtl rack
v 0.70000 2.00000 -3.65000
v 1.00000 2.00000 -3.65000
v 1.00000 2.00000 -3.61000
v 0.70000 2.00000 -3.61000
v 0.70000 2.04000 -3.65000
v 1.00000 2.04000 -3.65000
v 1.00000 2.04000 -3.61000
v 0.70000 2.04000 -3.61000
f 1152 1153 1154 1151
f 1158 1157 1156 1155
f 1155 1156 1152 1151
f 1156 1157 1153 1152
f 1157 1158 1154 1153
f 1158 1155 1151 1154
g part60
usemtl rack
v 0.70000 2.25000 -3.65000
v 1.00000 2.25000 -3.65000
v 1.00000 2.25000 -3.61000
v 0.70000 2.25000 -3.61000
v 0.70000 2.29000 -3.65000
v 1.00000 2.29000 -3.65000
v 1.00000 2.29000 -3.61000
v 0.70000 2.29000 -3.61000
f 1160 1161 1162 1159
f 1166 1165 1164 1163
f 1163 1164 1160 1159
f 1164 1165 1161 1160
f 1165 1166 1162 1161
f 1166 1163 1159 1162
g part61
usemtl rack
v 0.70000 2.50000 -3.65000
v 1.00000 2.50000 -3.65000
v 1.00000 2.50000 -3.61000
v 0.70000 2.50000 -3.61000
v 0.70000 2.54000 -3.65000
v 1.00000 2.54000 -3.65000
v 1.00000 2.54000 -3.61000
v 0.70000 2.54000 -3.61000
f 1168 1169 1170 1167
f 1174 1173 1172 1171
f 1171 1172 1168 1167
f 1172 1173 1169 1168
f 1173 1174 1170 1169
f 1174 1171 1167 1170
g part62
usemtl rack
v 0.70000 2.75000 -3.65000
v 1.00000 2.75000 -3.65000
v 1.00000 2.75000 -3.61000
v 0.70000 2.75000 -3.61000
v 0.70000 2.79000 -3.65000
v 1.00000 2.79000 -3.65000
v 1.00000 2.79000 -3.61000
v 0.70000 2.79000 -3.61000
f 1176 1177 1178 1175
f 1182 1181 1180 1179
f 1179 1180 1176 1175
f 1180 1181 1177 1176
f 1181 1182 1178 1177
f 1182 1179 1175 1178
g part63
usemtl orange
v -1.20000 1.20000 3.55000
v 1.20000 1.20000 3.55000
v 1.20000 1.20000 3.57000
v -1.20000 1.20000 3.57000
v -1.20000 1.30000 3.55000
v 1.20000 1.30000 3.55000
v 1.20000 1.30000 3.57000
v -1.20000 1.30000 3.57000
f 1184 1185 1186 1183
f 1190 1189 1188 1187
f 1187 1188 1184 1183
f 1188 1189 1185 1184
f 1189 1190 1186 1185
f 1190 1187 1183 1186
g part64
usemtl teal
v -1.20000 1.30000 3.55000
v 1.20000 1.30000 3.55000
v 1.20000 1.30000 3.57000
v -1.20000 1.30000 3.57000
v -1.20000 1.40000 3.55000
v 1.20000 1.40000 3.55000
v 1.20000 1.40000 3.57000
v -1.20000 1.40000 3.57000
f 1192 1193 1194 1191
f 1198 1197 1196 1195
f 1195 1196 1192 1191
f 1196 1197 1193 1192
f 1197 1198 1194 1193
f 1198 1195 1191 1194
g part65
usemtl rack
v -0.93000 3.05000 -3.30000
v -0.87000 3.05000 -3.30000
v -0.87000 3.05000 -3.24000
v -0.93000 3.05000 -3.24000
v -0.93000 3.30000 -3.30000
v -0.87000 3.30000 -3.30000
v -0.87000 3.30000 -3.24000
v -0.93000 3.30000 -3.24000
f 1200 1201 1202 1199
f 1206 1205 1204 1203
f 1203 1204 1200 1199
f 1204 1205 1201 1200
f 1205 1206 1202 1201
f 1206 1203 1199 1202
g part66
usemtl rack
v -0.93000 3.05000 -0.50000
v -0.87000 3.05000 -0.50000
v -0.87000 3.05000 -0.44000
v -0.93000 3.05000 -0.44000
v -0.93000 3.30000 -0.50000
v -0.87000 3.30000 -0.50000
v -0.87000 3.30000 -0.44000
v -0.93000 3.30000 -0.44000
f 1208 1209 1210 1207
f 1214 1213 1212 1211
f 1211 1212 1208 1207
f 1212 1213 1209 1208
f 1213 1214 1210 1209
f 1214 1211 1207 1210
g part67
usemtl rack
v 0.87000 3.05000 -3.30000
v 0.93000 3.05000 -3.30000
v 0.93000 3.05000 -3.24000
v 0.87000 3.05000 -3.24000
v 0.87000 3.30000 -3.30000
v 0.93000 3.30000 -3.30000
v 0.93000 3.30000 -3.24000
v 0.87000 3.30000 -3.24000
f 1216 1217 1218 1215
f 1222 1221 1220 1219
f 1219 1220 1216 1215
f 1220 1221 1217 1216
f 1221 1222 1218 1217
f 1222 1219 1215 1218
g part68
usemtl rack
v 0.87000 3.05000 -0.50000
v 0.93000 3.05000 -0.50000
v 0.93000 3.05000 -0.44000
v 0.87000 3.05000 -0.44000
v 0.87000 3.30000 -0.50000
v 0.93000 3.30000 -0.50000
v 0.93000 3.30000 -0.44000
v 0.87000 3.30000 -0.44000
f 1224 1225 1226 1223
f 1230 1229 1228 1227
f 1227 1228 1224 1223
f 1228 1229 1225 1224
f 1229 1230 1226 1225
f 1230 1227 1223 1226
g part69
usemtl rack
v -0.93000 3.27000 -3.30000
v 0.93000 3.27000 -3.30000
v 0.93000 3.27000 -0.44000
v -0.93000 3.27000 -0.44000
v -0.93000 3.33000 -3.30000
v 0.93000 3.33000 -3.30000
v 0.93000 3.33000 -0.44000
v -0.93000 3.33000 -0.44000
f 1232 1233 1234 1231
f 1238 1237 1236 1235
f 1235 1236 1232 1231
f 1236 1237 1233 1232
f 1237 1238 1234 1233
f 1238 1235 1231 1234
g part70
usemtl rack
v -0.45000 3.05000 0.30000
v 0.45000 3.05000 0.30000
v 0.45000 3.05000 2.30000
v -0.45000 3.05000 2.30000
v -0.45000 3.20000 0.30000
v 0.45000 3.20000 0.30000
v 0.45000 3.20000 2.30000
v -0.45000 3.20000 2.30000
f 1240 1241 1242 1239
f 1246 1245 1244 1243
f 1243 1244 1240 1239
f 1244 1245 1241 1240
f 1245 1246 1242 1241
f 1246 1243 1239 1242
