# generated by generate_rv.py
mtllib rv.mtl
o wheel_negx
g part0
usemtl tire
v -0.18000 0.00000 0.50000
v -0.18000 0.11126 0.48746
v -0.18000 0.21694 0.45048
v -0.18000 0.31174 0.39092
v -0.18000 0.39092 0.31174
v -0.18000 0.45048 0.21694
v -0.18000 0.48746 0.11126
v -0.18000 0.50000 0.00000
v -0.18000 0.48746 -0.11126
v -0.18000 0.45048 -0.21694
v -0.18000 0.39092 -0.31174
v -0.18000 0.31174 -0.39092
v -0.18000 0.21694 -0.45048
v -0.18000 0.11126 -0.48746
v -0.18000 0.00000 -0.50000
v -0.18000 -0.11126 -0.48746
v -0.18000 -0.21694 -0.45048
v -0.18000 -0.31174 -0.39092
v -0.18000 -0.39092 -0.31174
v -0.18000 -0.45048 -0.21694
v -0.18000 -0.48746 -0.11126
v -0.18000 -0.50000 0.00000
v -0.18000 -0.48746 0.11126
v -0.18000 -0.45048 0.21694
v -0.18000 -0.39092 0.31174
v -0.18000 -0.31174 0.39092
v -0.18000 -0.21694 0.45048
v -0.18000 -0.11126 0.48746
v 0.20000 0.00000 0.50000
v 0.20000 0.11126 0.48746
v 0.20000 0.21694 0.45048
v 0.20000 0.31174 0.39092
v 0.20000 0.39092 0.31174
v 0.20000 0.45048 0.21694
v 0.20000 0.48746 0.11126
v 0.20000 0.50000 0.00000
v 0.20000 0.48746 -0.11126
v 0.20000 0.45048 -0.21694
v 0.20000 0.39092 -0.31174
v 0.20000 0.31174 -0.39092
v 0.20000 0.21694 -0.45048
v 0.20000 0.11126 -0.48746
v 0.20000 0.00000 -0.50000
v 0.20000 -0.11126 -0.48746
v 0.20000 -0.21694 -0.45048
v 0.20000 -0.31174 -0.39092
v 0.20000 -0.39092 -0.31174
v 0.20000 -0.45048 -0.21694
v 0.20000 -0.48746 -0.11126
v 0.20000 -0.50000 0.00000
v 0.20000 -0.48746 0.11126
v 0.20000 -0.45048 0.21694
v 0.20000 -0.39092 0.31174
v 0.20000 -0.31174 0.39092
v 0.20000 -0.21694 0.45048
v 0.20000 -0.11126 0.48746
f 28 27 26 25 24 23 22 21 20 19 18 17 16 15 14 13 12 11 10 9 8 7 6 5 4 3 2 1
f 29 30 31 32 33 34 35 36 37 38 39 40 41 42 43 44 45 46 47 48 49 50 51 52 53 54 55 56
f 29 30 2 1
f 30 31 3 2
f 31 32 4 3
f 32 33 5 4
f 33 34 6 5
f 34 35 7 6
f 35 36 8 7
f 36 37 9 8
f 37 38 10 9
f 38 39 11 10
f 39 40 12 11
f 40 41 13 12
f 41 42 14 13
f 42 43 15 14
f 43 44 16 15
f 44 45 17 16
f 45 46 18 17
f 46 47 19 18
f 47 48 20 19
f 48 49 21 20
f 49 50 22 21
f 50 51 23 22
f 51 52 24 23
f 52 53 25 24
f 53 54 26 25
f 54 55 27 26
f 55 56 28 27
f 56 29 1 28
g part1
usemtl hub
v -0.20000 0.00000 0.28000
v -0.20000 0.08652 0.26630
v -0.20000 0.16458 0.22652
v -0.20000 0.22652 0.16458
v -0.20000 0.26630 0.08652
v -0.20000 0.28000 0.00000
v -0.20000 0.26630 -0.08652
v -0.20000 0.22652 -0.16458
v -0.20000 0.16458 -0.22652
v -0.20000 0.08652 -0.26630
v -0.20000 0.00000 -0.28000
v -0.20000 -0.08652 -0.26630
v -0.20000 -0.16458 -0.22652
v -0.20000 -0.22652 -0.16458
v -0.20000 -0.26630 -0.08652
v -0.20000 -0.28000 0.00000
v -0.20000 -0.26630 0.08652
v -0.20000 -0.22652 0.16458
v -0.20000 -0.16458 0.22652
v -0.20000 -0.08652 0.26630
v -0.18000 0.00000 0.28000
v -0.18000 0.08652 0.26630
v -0.18000 0.16458 0.22652
v -0.18000 0.22652 0.16458
v -0.18000 0.26630 0.08652
v -0.18000 0.28000 0.00000
v -0.18000 0.26630 -0.08652
v -0.18000 0.22652 -0.16458
v -0.18000 0.16458 -0.22652
v -0.18000 0.08652 -0.26630
v -0.18000 0.00000 -0.28000
v -0.18000 -0.08652 -0.26630
v -0.18000 -0.16458 -0.22652
v -0.18000 -0.22652 -0.16458
v -0.18000 -0.26630 -0.08652
v -0.18000 -0.28000 0.00000
v -0.18000 -0.26630 0.08652
v -0.18000 -0.22652 0.16458
v -0.18000 -0.16458 0.22652
v -0.18000 -0.08652 0.26630
f 76 75 74 73 72 71 70 69 68 67 66 65 64 63 62 61 60 59 58 57
f 77 78 79 80 81 82 83 84 85 86 87 88 89 90 91 92 93 94 95 96
f 77 78 58 57
f 78 79 59 58
f 79 80 60 59
f 80 81 61 60
f 81 82 62 61
f 82 83 63 62
f 83 84 64 63
f 84 85 65 64
f 85 86 66 65
f 86 87 67 66
f 87 88 68 67
f 88 89 69 68
f 89 90 70 69
f 90 91 71 70
f 91 92 72 71
f 92 93 73 72
f 93 94 74 73
f 94 95 75 74
f 95 96 76 75
f 96 77 57 76
g part2
usemtl cap
v -0.22000 0.00000 0.09000
v -0.22000 0.04500 0.07794
v -0.22000 0.07794 0.04500
v -0.22000 0.09000 0.00000
v -0.22000 0.07794 -0.04500
v -0.22000 0.04500 -0.07794
v -0.22000 0.00000 -0.09000
v -0.22000 -0.04500 -0.07794
v -0.22000 -0.07794 -0.04500
v -0.22000 -0.09000 0.00000
v -0.22000 -0.07794 0.04500
v -0.22000 -0.04500 0.07794
v -0.20000 0.00000 0.09000
v -0.20000 0.04500 0.07794
v -0.20000 0.07794 0.04500
v -0.20000 0.09000 0.00000
v -0.20000 0.07794 -0.04500
v -0.20000 0.04500 -0.07794
v -0.20000 0.00000 -0.09000
v -0.20000 -0.04500 -0.07794
v -0.20000 -0.07794 -0.04500
v -0.20000 -0.09000 0.00000
v -0.20000 -0.07794 0.04500
v -0.20000 -0.04500 0.07794
f 108 107 106 105 104 103 102 101 100 99 98 97
f 109 110 111 112 113 114 115 116 117 118 119 120
f 109 110 98 97
f 110 111 99 98
f 111 112 100 99
f 112 113 101 100
f 113 114 102 101
f 114 115 103 102
f 115 116 104 103
f 116 117 105 104
f 117 118 106 105
f 118 119 107 106
f 119 120 108 107
f 120 109 97 108
