# generated by generate_windshield.py
mtllib windshield.mtl
o windshield
g intact
usemtl windshield
v -1.05000 1.79597 3.49685
v -0.03000 1.79597 3.49685
v -0.03000 2.75847 3.07335
v -1.05000 2.75847 3.07335
v -1.05000 1.80403 3.51515
v -0.03000 1.80403 3.51515
v -0.03000 2.76653 3.09165
v -1.05000 2.76653 3.09165
v 0.03000 1.79597 3.49685
v 1.05000 1.79597 3.49685
v 1.05000 2.75847 3.07335
v 0.03000 2.75847 3.07335
v 0.03000 1.80403 3.51515
v 1.05000 1.80403 3.51515
v 1.05000 2.76653 3.09165
v 0.03000 2.76653 3.09165
f 1 4 3 2
f 5 6 7 8
f 1 2 6 5
f 2 3 7 6
f 3 4 8 7
f 4 1 5 8
f 9 12 11 10
f 13 14 15 16
f 9 10 14 13
f 10 11 15 14
f 11 12 16 15
f 12 9 13 16
