# generated by generate_windshield.py
mtllib windshield_broken.mtl
o windshield_broken
g broken
usemtl windshield_cracked
v -1.05000 1.80000 3.50600
v -0.03000 1.80000 3.50600
v -0.03000 2.76250 3.08250
v -1.05000 2.76250 3.08250
vt 0.00000 0.00000
vt 0.48571 0.00000
vt 0.48571 1.00000
vt 0.00000 1.00000
f 1/1 2/2 3/3 4/4
v 0.03000 1.80000 3.50600
v 1.05000 1.80000 3.50600
v 1.05000 2.76250 3.08250
v 0.03000 2.76250 3.08250
vt 0.51429 0.00000
vt 1.00000 0.00000
vt 1.00000 1.00000
vt 0.51429 1.00000
f 5/5 6/6 7/7 8/8
