# Blender 5.1.1
# www.blender.org
mtllib antena.mtl
o Cube.002
v -0.147775 1.092008 -1.836036
v -0.147775 1.300993 -1.627051
v -0.147775 1.300993 -2.045022
v -0.147775 1.509978 -1.836036
v 0.147775 1.092008 -1.836036
v 0.147775 1.300993 -1.627051
v 0.147775 1.300993 -2.045022
v 0.147775 1.509978 -1.836036
v -0.147775 1.506307 -1.421737
v -0.147775 1.715292 -1.630722
v 0.147775 1.715292 -1.630722
v 0.147775 1.506307 -1.421737
v -0.126067 1.875892 -1.082851
v -0.126067 2.054178 -1.261137
v 0.126067 2.054178 -1.261137
v 0.126067 1.875892 -1.082851
v -0.085444 2.206652 -0.809541
v -0.085444 2.327488 -0.930377
v 0.085444 2.327488 -0.930377
v 0.085444 2.206652 -0.809541
v 0.758741 0.237494 -0.758741
v 0.758741 -0.237494 -0.758741
v 0.758741 0.237494 0.758741
v 0.758741 -0.237494 0.758741
v -0.758741 0.237494 -0.758741
v -0.758741 -0.237494 -0.758741
v -0.758741 0.237494 0.758741
v -0.758741 -0.237494 0.758741
v -0.835455 -0.034396 -0.780085
v -0.835455 0.297734 -0.437930
v 0.835455 -0.034396 -0.780085
v 0.835455 0.297734 -0.437930
v -1.000000 0.196232 -1.003956
v -1.000000 1.048526 -1.791693
v 1.000000 0.196232 -1.003956
v 1.000000 1.048526 -1.791693
v -2.215072 1.211253 -1.989238
v 1.109371 1.231037 -1.968857
v -1.054844 1.231037 -1.968857
v 2.269598 1.211253 -1.989238
v -0.356003 1.401779 -2.134596
v -0.191459 1.591210 -2.318478
v -0.835455 2.403936 -3.146977
v 0.835455 2.403936 -3.146977
v 0.191459 1.591210 -2.318478
v 1.000000 2.214505 -2.963096
v -1.000000 2.214505 -2.963096
v 0.356003 1.401779 -2.134596
v -1.522553 0.196232 -1.003956
v -2.215072 0.693141 -1.486307
v 1.096498 1.048526 -1.791693
v 1.109371 1.057763 -1.800659
v 2.269598 0.693141 -1.486307
v 1.577080 0.196232 -1.003956
v -1.054844 1.057763 -1.800659
v -1.041971 1.048526 -1.791693
v 1.109371 1.392542 -2.125630
v 1.096498 1.401779 -2.134596
v 1.577080 2.214505 -2.963096
v 2.269598 1.717595 -2.480745
v -1.041971 1.401779 -2.134596
v -1.054844 1.392542 -2.125630
v -2.215072 1.717595 -2.480745
v -1.522553 2.214505 -2.963096
v -1.000000 0.528361 -0.661801
v 1.000000 0.528361 -0.661801
v -1.000000 2.546634 -2.620942
v -0.835455 2.736066 -2.804823
v 0.835455 2.736066 -2.804823
v 1.000000 2.546634 -2.620942
v 2.269598 1.025271 -1.144152
v 1.577080 0.528361 -0.661801
v -1.522553 0.528361 -0.661801
v -2.215072 1.025271 -1.144152
v 1.577080 2.546634 -2.620942
v 2.269598 2.049725 -2.138591
v -2.215072 2.049725 -2.138591
v -1.522553 2.546634 -2.620942
v -2.215072 1.543382 -1.647084
v 2.269598 1.543382 -1.647084
v -1.000000 0.603017 -0.915572
v 1.000000 0.603017 -0.915572
v -0.872156 2.290757 -2.553864
v -0.707612 2.480188 -2.737745
v 0.707612 2.480188 -2.737745
v 0.872156 2.290757 -2.553864
v 2.039275 1.003116 -1.303948
v 1.481677 0.603017 -0.915572
v -1.427150 0.603017 -0.915572
v -1.984748 1.003116 -1.303948
v 1.481677 2.290757 -2.553864
v 2.039275 1.890658 -2.165487
v -1.984748 1.890658 -2.165487
v -1.427150 2.290757 -2.553864
v -1.984748 1.452771 -1.740430
v 2.039275 1.452771 -1.740430
v -1.000000 0.902321 -1.448941
v 1.000000 0.902321 -1.448941
v -0.546744 1.748726 -2.270548
v -0.382200 1.938157 -2.454429
v 0.382200 1.938157 -2.454429
v 0.546744 1.748726 -2.270548
v 1.453011 1.055998 -1.598116
v 1.238839 0.902321 -1.448941
v -1.184312 0.902321 -1.448941
v -1.398485 1.055998 -1.598116
v 1.238839 1.748726 -2.270548
v 1.453011 1.595048 -2.121373
v -1.398485 1.595048 -2.121373
v -1.184312 1.748726 -2.270548
v -1.398485 1.331408 -1.865456
v 1.453011 1.331408 -1.865456
v 0.000000 2.065204 -0.905964
v 0.108411 2.148022 -0.827200
v -0.041408 2.148022 -0.778520
v -0.134003 2.148022 -0.905964
v -0.041408 2.148022 -1.033408
v 0.108411 2.148022 -0.984728
v 0.041408 2.282027 -0.778520
v -0.108411 2.282027 -0.827200
v -0.108411 2.282027 -0.984728
v 0.041408 2.282027 -1.033408
v 0.134003 2.282026 -0.905964
v 0.000000 2.364844 -0.905964
v -0.024339 2.087579 -0.831055
v 0.063722 2.087579 -0.859668
v 0.039383 2.136258 -0.784758
v 0.127444 2.136259 -0.905964
v 0.063722 2.087579 -0.952260
v -0.078765 2.087580 -0.905964
v -0.103104 2.136258 -0.831055
v -0.024339 2.087579 -0.980873
v -0.103104 2.136258 -0.980874
v 0.039383 2.136258 -1.027170
v 0.142487 2.215024 -0.859668
v 0.142487 2.215024 -0.952260
v 0.000000 2.215024 -0.756145
v 0.088062 2.215024 -0.784758
v -0.142487 2.215024 -0.859668
v -0.088062 2.215024 -0.784758
v -0.088062 2.215024 -1.027171
v -0.142487 2.215024 -0.952260
v 0.088062 2.215024 -1.027171
v 0.000000 2.215024 -1.055784
v 0.103104 2.293790 -0.831055
v -0.039383 2.293790 -0.784758
v -0.127444 2.293790 -0.905964
v -0.039383 2.293790 -1.027170
v 0.103104 2.293790 -0.980874
v 0.024339 2.342469 -0.831055
v 0.078765 2.342469 -0.905964
v -0.063722 2.342469 -0.859668
v -0.063722 2.342469 -0.952260
v 0.024339 2.342469 -0.980873
vn -1.0000 -0.0000 -0.0000
vn -0.0000 0.7071 -0.7071
vn 1.0000 -0.0000 -0.0000
vn -0.0000 -0.7071 0.7071
vn -0.0000 -0.7071 -0.7071
vn -0.0000 -0.6758 0.7371
vn 0.9955 0.0669 0.0669
vn -0.0000 0.7371 -0.6758
vn 0.9991 0.0306 0.0306
vn -0.9991 0.0306 0.0306
vn -0.0000 0.7071 0.7071
vn -0.9955 0.0669 0.0669
vn -0.0000 -0.6370 0.7709
vn -0.0000 0.7709 -0.6370
vn -0.0000 1.0000 -0.0000
vn -0.0000 -0.0000 1.0000
vn -0.0000 -1.0000 -0.0000
vn -0.0000 -0.0000 -1.0000
vn 0.8901 -0.3270 0.3174
vn -0.0000 -0.7175 0.6965
vn -0.0000 -0.6965 -0.7175
vn -0.0000 0.6965 0.7175
vn -0.8901 -0.3270 0.3174
vn -0.8487 0.3795 -0.3684
vn -0.0000 0.7175 -0.6965
vn 0.8487 0.3795 -0.3684
vn 0.7071 -0.5074 0.4925
vn -0.7071 -0.5074 0.4925
vn 0.7071 0.5074 -0.4925
vn -0.7071 0.5074 -0.4925
vn -0.0000 0.9593 0.2822
vn 0.4174 0.4198 0.8060
vn -0.0000 0.2536 0.9673
vn -0.4174 0.4198 0.8060
vn -0.3478 0.8560 0.3826
vn 0.3478 0.8560 0.3826
vn -0.3478 0.3569 0.8670
vn 0.3478 0.3569 0.8670
vn 0.4918 0.6065 0.6248
vn -0.4918 0.6065 0.6248
vn -0.0000 0.8721 0.4894
vn 0.2418 0.5595 0.7928
vn -0.0000 0.4632 0.8862
vn -0.2418 0.5595 0.7928
vn -0.2015 0.8122 0.5475
vn 0.2015 0.8122 0.5475
vn -0.2015 0.5231 0.8281
vn 0.2015 0.5231 0.8281
vn 0.2849 0.6677 0.6878
vn -0.2849 0.6677 0.6878
vn -0.0000 0.9198 0.3924
vn 0.3282 0.4956 0.8042
vn -0.0000 0.3648 0.9311
vn -0.3282 0.4956 0.8042
vn -0.2735 0.8385 0.4713
vn 0.2735 0.8385 0.4713
vn -0.2735 0.4461 0.8522
vn 0.2735 0.4461 0.8522
vn 0.3867 0.6423 0.6617
vn -0.3867 0.6423 0.6617
vn 0.1024 -0.9435 0.3151
vn 0.7002 -0.6617 0.2680
vn -0.2680 -0.9435 0.1947
vn -0.2680 -0.9435 -0.1947
vn 0.1024 -0.9435 -0.3151
vn 0.9050 -0.3304 0.2680
vn 0.0247 -0.3304 0.9435
vn -0.8897 -0.3304 0.3151
vn -0.5746 -0.3304 -0.7488
vn 0.5346 -0.3304 -0.7779
vn 0.8026 -0.1256 0.5831
vn -0.3066 -0.1256 0.9435
vn -0.9921 -0.1256 -0.0000
vn -0.3066 -0.1256 -0.9435
vn 0.8026 -0.1256 -0.5831
vn 0.4089 0.6617 0.6284
vn -0.4713 0.6617 0.5831
vn -0.7002 0.6617 -0.2680
vn 0.0385 0.6617 -0.7488
vn 0.7240 0.6617 -0.1947
vn 0.2680 0.9435 -0.1947
vn 0.4911 0.7947 -0.3568
vn 0.4089 0.6617 -0.6284
vn -0.1024 0.9435 -0.3151
vn -0.1876 0.7947 -0.5773
vn -0.4713 0.6617 -0.5831
vn -0.3313 0.9435 -0.0000
vn -0.6071 0.7947 -0.0000
vn -0.7002 0.6617 0.2680
vn -0.1024 0.9435 0.3151
vn -0.1876 0.7947 0.5773
vn 0.0385 0.6617 0.7488
vn 0.2680 0.9435 0.1947
vn 0.4911 0.7947 0.3568
vn 0.7240 0.6617 0.1947
vn 0.8897 0.3304 -0.3151
vn 0.7947 0.1876 -0.5773
vn 0.5746 0.3304 -0.7488
vn -0.0247 0.3304 -0.9435
vn -0.3035 0.1876 -0.9342
vn -0.5346 0.3304 -0.7779
vn -0.9050 0.3304 -0.2680
vn -0.9822 0.1876 -0.0000
vn -0.9050 0.3304 0.2680
vn -0.5346 0.3304 0.7779
vn -0.3035 0.1876 0.9342
vn -0.0247 0.3304 0.9435
vn 0.5746 0.3304 0.7488
vn 0.7947 0.1876 0.5773
vn 0.8897 0.3304 0.3151
vn 0.3066 0.1256 -0.9435
vn 0.3035 -0.1876 -0.9342
vn 0.0247 -0.3304 -0.9435
vn -0.8026 0.1256 -0.5831
vn -0.7947 -0.1876 -0.5773
vn -0.8897 -0.3304 -0.3151
vn -0.8026 0.1256 0.5831
vn -0.7947 -0.1876 0.5773
vn -0.5746 -0.3304 0.7488
vn 0.3066 0.1256 0.9435
vn 0.3035 -0.1876 0.9342
vn 0.5346 -0.3304 0.7779
vn 0.9921 0.1256 -0.0000
vn 0.9822 -0.1876 -0.0000
vn 0.9050 -0.3304 -0.2680
vn 0.4713 -0.6617 -0.5831
vn 0.1876 -0.7947 -0.5773
vn -0.0385 -0.6617 -0.7488
vn -0.4089 -0.6617 -0.6284
vn -0.4911 -0.7947 -0.3568
vn -0.7240 -0.6617 -0.1947
vn -0.7240 -0.6617 0.1947
vn -0.4911 -0.7947 0.3568
vn -0.4089 -0.6617 0.6284
vn 0.7002 -0.6617 -0.2680
vn 0.6071 -0.7947 -0.0000
vn 0.3313 -0.9435 -0.0000
vn -0.0385 -0.6617 0.7488
vn 0.1876 -0.7947 0.5773
vn 0.4713 -0.6617 0.5831
vt 0.375000 0.000000
vt 0.625000 0.000000
vt 0.625000 0.250000
vt 0.375000 0.250000
vt 0.625000 0.500000
vt 0.375000 0.500000
vt 0.625000 0.750000
vt 0.375000 0.750000
vt 0.625000 1.000000
vt 0.375000 1.000000
vt 0.125000 0.500000
vt 0.125000 0.750000
vt 0.875000 0.500000
vt 0.875000 0.750000
vt 0.375000 0.709823
vt 0.625000 0.709823
vt 0.125000 0.709823
vt 0.875000 0.709823
vt 0.375000 0.040177
vt 0.375000 0.126742
vt 0.375000 0.217000
vt 0.375000 0.217000
vt 0.375000 0.533000
vt 0.375000 0.623258
vt 0.625000 0.040177
vt 0.625000 0.513307
vt 0.625000 0.523039
vt 0.625000 0.523123
vt 0.625000 0.505480
vt 0.625000 0.494682
vt 0.625000 0.493184
vt 0.625000 0.418269
vt 0.625000 0.398087
vt 0.625000 0.350826
vt 0.625000 0.330330
vt 0.625000 0.259907
vt 0.625000 0.258388
vt 0.625000 0.247892
vt 0.625000 0.230701
vt 0.625000 0.230888
vt 0.625000 0.235215
vt 0.625000 0.217000
vt 0.625000 0.533000
vt 0.625000 0.623258
vt 0.625000 0.126742
vt 0.625000 0.646385
vt 0.625000 0.103227
vt 0.625000 0.259506
vt 0.625000 0.270969
vt 0.625000 0.478865
vt 0.625000 0.490158
vt 0.625000 0.607316
vt 0.625000 0.674522
vt 0.625000 0.076229
vt 0.625000 0.143115
vt 0.625000 0.523778
vt 0.625000 0.528135
vt 0.625000 0.222298
vt 0.625000 0.226967
vt 0.625000 0.210210
vt 0.625000 0.540369
vt 0.625000 0.547830
vt 0.625000 0.200837
vt 0.625000 0.309615
vt 0.625000 0.326414
vt 0.625000 0.422800
vt 0.625000 0.439331
vt 0.625000 0.561303
vt 0.625000 0.571980
vt 0.625000 0.181539
vt 0.625000 0.191005
vt 0.625000 0.499021
vt 0.625000 0.513333
vt 0.625000 0.238642
vt 0.625000 0.253433
vt 0.625000 0.223248
vt 0.625000 0.528961
vt 0.181819 0.000000
vt 0.227273 0.078731
vt 0.136365 0.078731
vt 0.272728 0.157461
vt 0.318182 0.078731
vt 0.363637 0.157461
vt 0.909091 0.000000
vt 0.954545 0.078731
vt 0.863636 0.078731
vt 0.727273 0.000000
vt 0.772727 0.078731
vt 0.681818 0.078731
vt 0.545455 0.000000
vt 0.590909 0.078731
vt 0.500000 0.078731
vt 0.318182 0.236191
vt 0.090910 0.157461
vt 0.181819 0.157461
vt 0.136365 0.236191
vt 0.818182 0.157461
vt 0.909091 0.157461
vt 0.863636 0.236191
vt 0.636364 0.157461
vt 0.727273 0.157461
vt 0.681818 0.236191
vt 0.454546 0.157461
vt 0.545455 0.157461
vt 0.500000 0.236191
vt 0.227273 0.236191
vt 0.045455 0.236191
vt 0.772727 0.236191
vt 0.590909 0.236191
vt 0.409092 0.236191
vt 0.181819 0.314921
vt 0.272728 0.314921
vt 0.227273 0.393651
vt 0.000000 0.314921
vt 0.090910 0.314921
vt 0.045455 0.393651
vt 0.727273 0.314921
vt 0.818182 0.314921
vt 0.772727 0.393651
vt 0.545455 0.314921
vt 0.636364 0.314921
vt 0.590909 0.393651
vt 0.363637 0.314921
vt 0.454546 0.314921
vt 0.409092 0.393651
vt 0.500000 0.393651
vt 0.454546 0.472382
vt 0.681818 0.393651
vt 0.636364 0.472382
vt 0.863636 0.393651
vt 0.818182 0.472382
vt 0.909091 0.314921
vt 0.136365 0.393651
vt 0.090910 0.472382
vt 0.318182 0.393651
vt 0.272728 0.472382
vt 0.954545 0.236191
vt 1.000000 0.157461
vt 0.409092 0.078731
vt 0.363637 0.000000
s 0
usemtl 
f 1/1/1 2/2/1 4/3/1 3/4/1
f 3/4/2 4/3/2 8/5/2 7/6/2
f 7/6/3 8/5/3 6/7/3 5/8/3
f 5/8/4 6/7/4 2/9/4 1/10/4
f 3/11/5 7/6/5 5/8/5 1/12/5
f 4/3/1 2/2/1 9/2/1 10/3/1
f 9/9/6 12/7/6 16/7/6 13/9/6
f 2/9/4 6/7/4 12/7/4 9/9/4
f 8/5/2 4/3/2 10/3/2 11/5/2
f 6/7/3 8/5/3 11/5/3 12/7/3
f 16/7/7 15/5/7 19/5/7 20/7/7
f 11/5/8 10/3/8 14/3/8 15/5/8
f 12/7/9 11/5/9 15/5/9 16/7/9
f 10/3/10 9/2/10 13/2/10 14/3/10
f 19/5/11 18/13/11 17/14/11 20/7/11
f 14/3/12 13/2/12 17/2/12 18/3/12
f 13/9/13 16/7/13 20/7/13 17/9/13
f 15/5/14 14/3/14 18/3/14 19/5/14
f 35/15/19 66/16/19 32/7/19 31/8/19
f 31/8/20 32/7/20 30/9/20 29/10/20
f 33/17/21 35/15/21 31/8/21 29/12/21
f 66/16/22 65/18/22 30/14/22 32/7/22
f 33/19/21 49/19/21 50/20/21 37/21/21 63/22/21 64/22/21 47/21/21 43/4/21 44/6/21 46/23/21 59/23/21 60/23/21 40/23/21 53/24/21 54/15/21 35/15/21
f 29/1/23 30/2/23 65/25/23 33/19/23
f 36/26/22 51/27/22 52/28/22 38/29/22 57/30/22 58/31/22 48/32/22 45/33/22 42/34/22 41/35/22 61/36/22 62/37/22 39/38/22 55/39/22 56/40/22 34/41/22
f 47/21/24 67/42/24 68/3/24 43/4/24
f 43/4/25 68/3/25 69/5/25 44/6/25
f 44/6/26 69/5/26 70/43/26 46/23/26
f 72/16/27 54/15/27 53/24/27 71/44/27
f 74/45/28 50/20/28 49/19/28 73/25/28
f 76/43/29 60/23/29 59/23/29 75/43/29
f 78/42/30 64/22/30 63/22/30 77/42/30
f 50/20/1 74/45/1 79/42/1 37/21/1
f 33/19/20 65/25/20 73/25/20 49/19/20
f 40/23/3 80/43/3 71/44/3 53/24/3
f 66/16/20 35/15/20 54/15/20 72/16/20
f 80/43/3 40/23/3 60/23/3 76/43/3
f 46/23/25 70/43/25 75/43/25 59/23/25
f 37/21/1 79/42/1 77/42/1 63/22/1
f 67/42/25 47/21/25 64/22/25 78/42/25
f 82/46/31 81/47/31 65/25/31 66/16/31
f 83/48/32 84/49/32 68/3/32 67/42/32
f 84/49/33 85/50/33 69/5/33 68/3/33
f 85/50/34 86/51/34 70/43/34 69/5/34
f 87/52/35 88/53/35 72/16/35 71/44/35
f 89/54/36 90/55/36 74/45/36 73/25/36
f 91/56/37 92/57/37 76/43/37 75/43/37
f 93/58/38 94/59/38 78/42/38 77/42/38
f 90/55/39 95/60/39 79/42/39 74/45/39
f 96/61/40 87/52/40 71/44/40 80/43/40
f 92/57/40 96/61/40 80/43/40 76/43/40
f 95/60/39 93/58/39 77/42/39 79/42/39
f 81/47/31 89/54/31 73/25/31 65/25/31
f 88/53/31 82/46/31 66/16/31 72/16/31
f 86/51/33 91/56/33 75/43/33 70/43/33
f 94/59/33 83/48/33 67/42/33 78/42/33
f 98/62/41 97/63/41 81/47/41 82/46/41
f 99/64/42 100/65/42 84/49/42 83/48/42
f 100/65/43 101/66/43 85/50/43 84/49/43
f 101/66/44 102/67/44 86/51/44 85/50/44
f 103/68/45 104/69/45 88/53/45 87/52/45
f 105/70/46 106/71/46 90/55/46 89/54/46
f 107/72/47 108/73/47 92/57/47 91/56/47
f 109/74/48 110/75/48 94/59/48 93/58/48
f 106/71/49 111/76/49 95/60/49 90/55/49
f 112/77/50 103/68/50 87/52/50 96/61/50
f 108/73/50 112/77/50 96/61/50 92/57/50
f 111/76/49 109/74/49 93/58/49 95/60/49
f 97/63/41 105/70/41 89/54/41 81/47/41
f 104/69/41 98/62/41 82/46/41 88/53/41
f 102/67/43 107/72/43 91/56/43 86/51/43
f 110/75/43 99/64/43 83/48/43 94/59/43
f 36/26/51 34/41/51 97/63/51 98/62/51
f 41/35/52 42/34/52 100/65/52 99/64/52
f 42/34/53 45/33/53 101/66/53 100/65/53
f 45/33/54 48/32/54 102/67/54 101/66/54
f 52/28/55 51/27/55 104/69/55 103/68/55
f 56/40/56 55/39/56 106/71/56 105/70/56
f 58/31/57 57/30/57 108/73/57 107/72/57
f 62/37/58 61/36/58 110/75/58 109/74/58
f 55/39/59 39/38/59 111/76/59 106/71/59
f 38/29/60 52/28/60 103/68/60 112/77/60
f 57/30/60 38/29/60 112/77/60 108/73/60
f 39/38/59 62/37/59 109/74/59 111/76/59
f 34/41/51 56/40/51 105/70/51 97/63/51
f 51/27/51 36/26/51 98/62/51 104/69/51
f 48/32/53 58/31/53 107/72/53 102/67/53
f 61/36/53 41/35/53 99/64/53 110/75/53
f 113/78/61 126/79/61 125/80/61
f 114/81/62 126/82/62 128/83/62
f 113/84/63 125/85/63 130/86/63
f 113/87/64 130/88/64 132/89/64
f 113/90/65 132/91/65 129/92/65
f 114/81/66 128/83/66 135/93/66
f 115/94/67 127/95/67 137/96/67
f 116/97/68 131/98/68 139/99/68
f 117/100/69 133/101/69 141/102/69
f 118/103/70 134/104/70 143/105/70
f 114/81/71 135/93/71 138/106/71
f 115/94/72 137/96/72 140/107/72
f 116/97/73 139/99/73 142/108/73
f 117/100/74 141/102/74 144/109/74
f 118/103/75 143/105/75 136/110/75
f 119/111/76 145/112/76 150/113/76
f 120/114/77 146/115/77 152/116/77
f 121/117/78 147/118/78 153/119/78
f 122/120/79 148/121/79 154/122/79
f 123/123/80 149/124/80 151/125/80
f 151/125/81 154/126/81 124/127/81
f 151/125/82 149/124/82 154/126/82
f 149/124/83 122/120/83 154/126/83
f 154/122/84 153/128/84 124/129/84
f 154/122/85 148/121/85 153/128/85
f 148/121/86 121/117/86 153/128/86
f 153/119/87 152/130/87 124/131/87
f 153/119/88 147/118/88 152/130/88
f 147/118/89 120/132/89 152/130/89
f 152/116/90 150/133/90 124/134/90
f 152/116/91 146/115/91 150/133/91
f 146/115/92 119/111/92 150/133/92
f 150/113/93 151/135/93 124/136/93
f 150/113/94 145/112/94 151/135/94
f 145/112/95 123/123/95 151/135/95
f 136/110/96 149/124/96 123/123/96
f 136/110/97 143/105/97 149/124/97
f 143/105/98 122/120/98 149/124/98
f 144/109/99 148/121/99 122/120/99
f 144/109/100 141/102/100 148/121/100
f 141/102/101 121/117/101 148/121/101
f 142/108/102 147/118/102 121/117/102
f 142/108/103 139/99/103 147/118/103
f 139/99/104 120/132/104 147/118/104
f 140/107/105 146/115/105 120/114/105
f 140/107/106 137/96/106 146/115/106
f 137/96/107 119/111/107 146/115/107
f 138/106/108 145/112/108 119/111/108
f 138/106/109 135/93/109 145/112/109
f 135/93/110 123/123/110 145/112/110
f 143/105/111 144/109/111 122/120/111
f 143/105/112 134/104/112 144/109/112
f 134/104/113 117/100/113 144/109/113
f 141/102/114 142/108/114 121/117/114
f 141/102/115 133/101/115 142/108/115
f 133/101/116 116/97/116 142/108/116
f 139/99/117 140/137/117 120/132/117
f 139/99/118 131/98/118 140/137/118
f 131/98/119 115/138/119 140/137/119
f 137/96/120 138/106/120 119/111/120
f 137/96/121 127/95/121 138/106/121
f 127/95/122 114/81/122 138/106/122
f 135/93/123 136/110/123 123/123/123
f 135/93/124 128/83/124 136/110/124
f 128/83/125 118/103/125 136/110/125
f 129/92/126 134/104/126 118/103/126
f 129/92/127 132/91/127 134/104/127
f 132/91/128 117/100/128 134/104/128
f 132/89/129 133/101/129 117/100/129
f 132/89/130 130/88/130 133/101/130
f 130/88/131 116/97/131 133/101/131
f 130/86/132 131/98/132 116/97/132
f 130/86/133 125/85/133 131/98/133
f 125/85/134 115/138/134 131/98/134
f 128/83/135 129/139/135 118/103/135
f 128/83/136 126/82/136 129/139/136
f 126/82/137 113/140/137 129/139/137
f 125/80/138 127/95/138 115/94/138
f 125/80/139 126/79/139 127/95/139
f 126/79/140 114/81/140 127/95/140
usemtl Material
f 21/5/15 25/13/15 27/14/15 23/7/15
f 24/8/16 23/7/16 27/9/16 28/10/16
f 28/1/1 27/2/1 25/3/1 26/4/1
f 26/11/17 22/6/17 24/8/17 28/12/17
f 22/6/3 21/5/3 23/7/3 24/8/3
f 26/4/18 25/3/18 21/5/18 22/6/18
