# generated by generate_bob.py / generate_saucer.py
mtllib bob.mtl
o bob_forearm_r
g part0
usemtl skin
v -0.18991 0.76216 0.01591
v -0.20520 0.76238 0.01096
v -0.21468 0.76170 -0.00199
v -0.21473 0.76036 -0.01801
v -0.20534 0.75889 -0.03096
v -0.19009 0.75784 -0.03591
v -0.17480 0.75762 -0.03096
v -0.16532 0.75830 -0.01801
v -0.16527 0.75964 -0.00199
v -0.17466 0.76111 0.01096
v -0.19492 0.64191 0.02292
v -0.20844 0.64211 0.01854
v -0.21683 0.64150 0.00708
v -0.21688 0.64032 -0.00708
v -0.20857 0.63902 -0.01854
v -0.19508 0.63809 -0.02292
v -0.18156 0.63789 -0.01854
v -0.17317 0.63850 -0.00708
v -0.17312 0.63968 0.00708
v -0.18143 0.64098 0.01854
v -0.19993 0.52166 0.02993
v -0.21169 0.52183 0.02612
v -0.21898 0.52130 0.01616
v -0.21903 0.52028 0.00384
v -0.21180 0.51915 -0.00612
v -0.20007 0.51834 -0.00993
v -0.18831 0.51817 -0.00612
v -0.18102 0.51870 0.00384
v -0.18097 0.51972 0.01616
v -0.18820 0.52085 0.02612
v -0.18991 0.76216 0.01591
v -0.20520 0.76238 0.01096
v -0.21468 0.76170 -0.00199
v -0.21473 0.76036 -0.01801
v -0.20534 0.75889 -0.03096
v -0.19009 0.75784 -0.03591
v -0.17480 0.75762 -0.03096
v -0.16532 0.75830 -0.01801
v -0.16527 0.75964 -0.00199
v -0.17466 0.76111 0.01096
v -0.19000 0.76000 -0.01000
v -0.19993 0.52166 0.02993
v -0.21169 0.52183 0.02612
v -0.21898 0.52130 0.01616
v -0.21903 0.52028 0.00384
v -0.21180 0.51915 -0.00612
v -0.20007 0.51834 -0.00993
v -0.18831 0.51817 -0.00612
v -0.18102 0.51870 0.00384
v -0.18097 0.51972 0.01616
v -0.18820 0.52085 0.02612
v -0.20000 0.52000 0.01000
vn 0.0024 0.0581 0.9983
vn -0.5853 0.0667 0.8080
vn -0.9499 0.0404 0.3099
vn -0.9520 -0.0108 -0.3058
vn -0.5909 -0.0674 -0.8039
vn -0.0045 -0.1077 -0.9942
vn 0.5833 -0.1163 -0.8039
vn 0.9478 -0.0900 -0.3058
vn 0.9500 -0.0387 0.3099
vn 0.5889 0.0178 0.8080
vn 0.0024 0.0581 0.9983
vn -0.5853 0.0667 0.8080
vn -0.9499 0.0404 0.3099
vn -0.9520 -0.0108 -0.3058
vn -0.5909 -0.0674 -0.8039
vn -0.0045 -0.1077 -0.9942
vn 0.5833 -0.1163 -0.8039
vn 0.9478 -0.0900 -0.3058
vn 0.9500 -0.0387 0.3099
vn 0.5889 0.0178 0.8080
vn 0.0024 0.0581 0.9983
vn -0.5853 0.0667 0.8080
vn -0.9499 0.0404 0.3099
vn -0.9520 -0.0108 -0.3058
vn -0.5909 -0.0674 -0.8039
vn -0.0045 -0.1077 -0.9942
vn 0.5833 -0.1163 -0.8039
vn 0.9478 -0.0900 -0.3058
vn 0.9500 -0.0387 0.3099
vn 0.5889 0.0178 0.8080
vn 0.0415 0.9957 -0.0830
vn 0.0415 0.9957 -0.0830
vn 0.0415 0.9957 -0.0830
vn 0.0415 0.9957 -0.0830
vn 0.0415 0.9957 -0.0830
vn 0.0415 0.9957 -0.0830
vn 0.0415 0.9957 -0.0830
vn 0.0415 0.9957 -0.0830
vn 0.0415 0.9957 -0.0830
vn 0.0415 0.9957 -0.0830
vn 0.0415 0.9957 -0.0830
vn -0.0415 -0.9957 0.0830
vn -0.0415 -0.9957 0.0830
vn -0.0415 -0.9957 0.0830
vn -0.0415 -0.9957 0.0830
vn -0.0415 -0.9957 0.0830
vn -0.0415 -0.9957 0.0830
vn -0.0415 -0.9957 0.0830
vn -0.0415 -0.9957 0.0830
vn -0.0415 -0.9957 0.0830
vn -0.0415 -0.9957 0.0830
vn -0.0415 -0.9957 0.0830
f 1//1 2//2 12//12 11//11
f 2//2 3//3 13//13 12//12
f 3//3 4//4 14//14 13//13
f 4//4 5//5 15//15 14//14
f 5//5 6//6 16//16 15//15
f 6//6 7//7 17//17 16//16
f 7//7 8//8 18//18 17//17
f 8//8 9//9 19//19 18//18
f 9//9 10//10 20//20 19//19
f 10//10 1//1 11//11 20//20
f 11//11 12//12 22//22 21//21
f 12//12 13//13 23//23 22//22
f 13//13 14//14 24//24 23//23
f 14//14 15//15 25//25 24//24
f 15//15 16//16 26//26 25//25
f 16//16 17//17 27//27 26//26
f 17//17 18//18 28//28 27//27
f 18//18 19//19 29//29 28//28
f 19//19 20//20 30//30 29//29
f 20//20 11//11 21//21 30//30
f 32//32 41//41 31//31
f 33//33 41//41 32//32
f 34//34 41//41 33//33
f 35//35 41//41 34//34
f 36//36 41//41 35//35
f 37//37 41//41 36//36
f 38//38 41//41 37//37
f 39//39 41//41 38//38
f 40//40 41//41 39//39
f 31//31 41//41 40//40
f 43//43 52//52 42//42
f 44//44 52//52 43//43
f 45//45 52//52 44//44
f 46//46 52//52 45//45
f 47//47 52//52 46//46
f 48//48 52//52 47//47
f 49//49 52//52 48//48
f 50//50 52//52 49//49
f 51//51 52//52 50//50
f 42//42 52//52 51//51
g part1
usemtl skin
v -0.20000 0.52500 0.01000
v -0.20000 0.52500 0.01000
v -0.20000 0.52500 0.01000
v -0.20000 0.52500 0.01000
v -0.20000 0.52500 0.01000
v -0.20000 0.52500 0.01000
v -0.20000 0.52500 0.01000
v -0.20000 0.52500 0.01000
v -0.20000 0.51964 0.02500
v -0.19293 0.51964 0.02061
v -0.19000 0.51964 0.01000
v -0.19293 0.51964 -0.00061
v -0.20000 0.51964 -0.00500
v -0.20707 0.51964 -0.00061
v -0.21000 0.51964 0.01000
v -0.20707 0.51964 0.02061
v -0.20000 0.50500 0.03598
v -0.18775 0.50500 0.02837
v -0.18268 0.50500 0.01000
v -0.18775 0.50500 -0.00837
v -0.20000 0.50500 -0.01598
v -0.21225 0.50500 -0.00837
v -0.21732 0.50500 0.01000
v -0.21225 0.50500 0.02837
v -0.20000 0.48500 0.04000
v -0.18586 0.48500 0.03121
v -0.18000 0.48500 0.01000
v -0.18586 0.48500 -0.01121
v -0.20000 0.48500 -0.02000
v -0.21414 0.48500 -0.01121
v -0.22000 0.48500 0.01000
v -0.21414 0.48500 0.03121
v -0.20000 0.46500 0.03598
v -0.18775 0.46500 0.02837
v -0.18268 0.46500 0.01000
v -0.18775 0.46500 -0.00837
v -0.20000 0.46500 -0.01598
v -0.21225 0.46500 -0.00837
v -0.21732 0.46500 0.01000
v -0.21225 0.46500 0.02837
v -0.20000 0.45036 0.02500
v -0.19293 0.45036 0.02061
v -0.19000 0.45036 0.01000
v -0.19293 0.45036 -0.00061
v -0.20000 0.45036 -0.00500
v -0.20707 0.45036 -0.00061
v -0.21000 0.45036 0.01000
v -0.20707 0.45036 0.02061
v -0.20000 0.44500 0.01000
v -0.20000 0.44500 0.01000
v -0.20000 0.44500 0.01000
v -0.20000 0.44500 0.01000
v -0.20000 0.44500 0.01000
v -0.20000 0.44500 0.01000
v -0.20000 0.44500 0.01000
v -0.20000 0.44500 0.01000
vn 0.0000 1.0000 0.0000
vn 0.0000 1.0000 0.0000
vn 0.0000 1.0000 0.0000
vn 0.0000 1.0000 -0.0000
vn 0.0000 1.0000 -0.0000
vn -0.0000 1.0000 -0.0000
vn -0.0000 1.0000 -0.0000
vn -0.0000 1.0000 0.0000
vn 0.0000 0.7924 0.6100
vn 0.5828 0.7137 0.3885
vn 0.7559 0.6547 0.0000
vn 0.5828 0.7137 -0.3885
vn 0.0000 0.7924 -0.6100
vn -0.5828 0.7137 -0.3885
vn -0.7559 0.6547 -0.0000
vn -0.5828 0.7137 0.3885
vn 0.0000 0.3974 0.9177
vn 0.7878 0.3216 0.5252
vn 0.9608 0.2774 0.0000
vn 0.7878 0.3216 -0.5252
vn 0.0000 0.3974 -0.9177
vn -0.7878 0.3216 -0.5252
vn -0.9608 0.2774 -0.0000
vn -0.7878 0.3216 0.5252
vn 0.0000 0.0000 1.0000
vn 0.8321 0.0000 0.5547
vn 1.0000 0.0000 0.0000
vn 0.8321 0.0000 -0.5547
vn 0.0000 0.0000 -1.0000
vn -0.8321 0.0000 -0.5547
vn -1.0000 0.0000 -0.0000
vn -0.8321 0.0000 0.5547
vn 0.0000 -0.3974 0.9177
vn 0.7878 -0.3216 0.5252
vn 0.9608 -0.2774 0.0000
vn 0.7878 -0.3216 -0.5252
vn 0.0000 -0.3974 -0.9177
vn -0.7878 -0.3216 -0.5252
vn -0.9608 -0.2774 -0.0000
vn -0.7878 -0.3216 0.5252
vn 0.0000 -0.7924 0.6100
vn 0.5828 -0.7137 0.3885
vn 0.7559 -0.6547 0.0000
vn 0.5828 -0.7137 -0.3885
vn 0.0000 -0.7924 -0.6100
vn -0.5828 -0.7137 -0.3885
vn -0.7559 -0.6547 -0.0000
vn -0.5828 -0.7137 0.3885
vn 0.0000 -1.0000 0.0000
vn 0.0000 -1.0000 0.0000
vn 0.0000 -1.0000 0.0000
vn 0.0000 -1.0000 -0.0000
vn 0.0000 -1.0000 -0.0000
vn -0.0000 -1.0000 -0.0000
vn -0.0000 -1.0000 -0.0000
vn -0.0000 -1.0000 0.0000
f 61//61 62//62 54//54 53//53
f 62//62 63//63 55//55 54//54
f 63//63 64//64 56//56 55//55
f 64//64 65//65 57//57 56//56
f 65//65 66//66 58//58 57//57
f 66//66 67//67 59//59 58//58
f 67//67 68//68 60//60 59//59
f 68//68 61//61 53//53 60//60
f 69//69 70//70 62//62 61//61
f 70//70 71//71 63//63 62//62
f 71//71 72//72 64//64 63//63
f 72//72 73//73 65//65 64//64
f 73//73 74//74 66//66 65//65
f 74//74 75//75 67//67 66//66
f 75//75 76//76 68//68 67//67
f 76//76 69//69 61//61 68//68
f 77//77 78//78 70//70 69//69
f 78//78 79//79 71//71 70//70
f 79//79 80//80 72//72 71//71
f 80//80 81//81 73//73 72//72
f 81//81 82//82 74//74 73//73
f 82//82 83//83 75//75 74//74
f 83//83 84//84 76//76 75//75
f 84//84 77//77 69//69 76//76
f 85//85 86//86 78//78 77//77
f 86//86 87//87 79//79 78//78
f 87//87 88//88 80//80 79//79
f 88//88 89//89 81//81 80//80
f 89//89 90//90 82//82 81//81
f 90//90 91//91 83//83 82//82
f 91//91 92//92 84//84 83//83
f 92//92 85//85 77//77 84//84
f 93//93 94//94 86//86 85//85
f 94//94 95//95 87//87 86//86
f 95//95 96//96 88//88 87//87
f 96//96 97//97 89//89 88//88
f 97//97 98//98 90//90 89//89
f 98//98 99//99 91//91 90//90
f 99//99 100//100 92//92 91//91
f 100//100 93//93 85//85 92//92
f 101//101 102//102 94//94 93//93
f 102//102 103//103 95//95 94//94
f 103//103 104//104 96//96 95//95
f 104//104 105//105 97//97 96//96
f 105//105 106//106 98//98 97//97
f 106//106 107//107 99//99 98//98
f 107//107 108//108 100//100 99//99
f 108//108 101//101 93//93 100//100
g part2
usemtl skin
v -0.20000 0.46033 -0.00401
v -0.20693 0.46017 -0.00800
v -0.20693 0.45983 -0.01600
v -0.20000 0.45967 -0.01999
v -0.19307 0.45983 -0.01600
v -0.19307 0.46017 -0.00800
v -0.20000 0.44365 -0.00357
v -0.20670 0.44349 -0.00744
v -0.20670 0.44317 -0.01517
v -0.20000 0.44301 -0.01904
v -0.19330 0.44317 -0.01517
v -0.19330 0.44349 -0.00744
v -0.20000 0.42676 -0.00313
v -0.20648 0.42671 -0.00687
v -0.20648 0.42662 -0.01436
v -0.20000 0.42658 -0.01810
v -0.19352 0.42662 -0.01436
v -0.19352 0.42671 -0.00687
v -0.20000 0.40954 -0.00392
v -0.20606 0.40977 -0.00741
v -0.20606 0.41023 -0.01439
v -0.20000 0.41046 -0.01788
v -0.19394 0.41023 -0.01439
v -0.19394 0.40977 -0.00741
v -0.20000 0.39246 -0.00673
v -0.20532 0.39289 -0.00977
v -0.20532 0.39377 -0.01586
v -0.20000 0.39421 -0.01890
v -0.19468 0.39377 -0.01586
v -0.19468 0.39289 -0.00977
v -0.20000 0.37580 -0.01071
v -0.20439 0.37623 -0.01321
v -0.20439 0.37710 -0.01821
v -0.20000 0.37753 -0.02071
v -0.19561 0.37710 -0.01821
v -0.19561 0.37623 -0.01321
v -0.20000 0.35932 -0.01466
v -0.20346 0.35966 -0.01663
v -0.20346 0.36034 -0.02057
v -0.20000 0.36068 -0.02254
v -0.19654 0.36034 -0.02057
v -0.19654 0.35966 -0.01663
v -0.20000 0.46033 -0.00401
v -0.20693 0.46017 -0.00800
v -0.20693 0.45983 -0.01600
v -0.20000 0.45967 -0.01999
v -0.19307 0.45983 -0.01600
v -0.19307 0.46017 -0.00800
v -0.20000 0.46000 -0.01200
v -0.20000 0.35932 -0.01466
v -0.20346 0.35966 -0.01663
v -0.20346 0.36034 -0.02057
v -0.20000 0.36068 -0.02254
v -0.19654 0.36034 -0.02057
v -0.19654 0.35966 -0.01663
v -0.20000 0.36000 -0.01860
vn 0.0000 0.0260 0.9997
vn -0.8659 0.0052 0.5002
vn -0.8659 -0.0363 -0.4989
vn -0.0000 -0.0570 -0.9984
vn 0.8659 -0.0363 -0.4989
vn 0.8659 0.0052 0.5002
vn 0.0000 0.0260 0.9997
vn -0.8659 0.0053 0.5002
vn -0.8659 -0.0364 -0.4989
vn -0.0000 -0.0572 -0.9984
vn 0.8659 -0.0364 -0.4989
vn 0.8659 0.0053 0.5002
vn 0.0000 -0.0100 0.9999
vn -0.8658 -0.0160 0.5001
vn -0.8658 -0.0287 -0.4996
vn -0.0000 -0.0355 -0.9994
vn 0.8658 -0.0287 -0.4996
vn 0.8658 -0.0160 0.5001
vn 0.0000 -0.1043 0.9946
vn -0.8654 -0.0720 0.4959
vn -0.8653 -0.0075 -0.5012
vn -0.0000 0.0248 -0.9997
vn 0.8653 -0.0075 -0.5012
vn 0.8654 -0.0720 0.4959
vn 0.0000 -0.1974 0.9803
vn -0.8646 -0.1271 0.4860
vn -0.8646 0.0143 -0.5023
vn -0.0000 0.0854 -0.9963
vn 0.8646 0.0143 -0.5023
vn 0.8646 -0.1271 0.4860
vn 0.0000 -0.2327 0.9725
vn -0.8643 -0.1476 0.4808
vn -0.8643 0.0227 -0.5025
vn -0.0000 0.1080 -0.9942
vn 0.8643 0.0227 -0.5025
vn 0.8643 -0.1476 0.4808
vn 0.0000 -0.2331 0.9725
vn -0.8643 -0.1478 0.4808
vn -0.8643 0.0229 -0.5025
vn -0.0000 0.1082 -0.9941
vn 0.8643 0.0229 -0.5025
vn 0.8643 -0.1478 0.4808
vn -0.0000 0.9991 -0.0415
vn -0.0000 0.9991 -0.0415
vn -0.0000 0.9991 -0.0415
vn -0.0000 0.9991 -0.0415
vn -0.0000 0.9991 -0.0415
vn -0.0000 0.9991 -0.0415
vn -0.0000 0.9991 -0.0415
vn 0.0000 -0.9853 -0.1710
vn 0.0000 -0.9853 -0.1710
vn 0.0000 -0.9853 -0.1710
vn 0.0000 -0.9853 -0.1710
vn 0.0000 -0.9853 -0.1710
vn 0.0000 -0.9853 -0.1710
vn 0.0000 -0.9853 -0.1710
f 109//109 110//110 116//116 115//115
f 110//110 111//111 117//117 116//116
f 111//111 112//112 118//118 117//117
f 112//112 113//113 119//119 118//118
f 113//113 114//114 120//120 119//119
f 114//114 109//109 115//115 120//120
f 115//115 116//116 122//122 121//121
f 116//116 117//117 123//123 122//122
f 117//117 118//118 124//124 123//123
f 118//118 119//119 125//125 124//124
f 119//119 120//120 126//126 125//125
f 120//120 115//115 121//121 126//126
f 121//121 122//122 128//128 127//127
f 122//122 123//123 129//129 128//128
f 123//123 124//124 130//130 129//129
f 124//124 125//125 131//131 130//130
f 125//125 126//126 132//132 131//131
f 126//126 121//121 127//127 132//132
f 127//127 128//128 134//134 133//133
f 128//128 129//129 135//135 134//134
f 129//129 130//130 136//136 135//135
f 130//130 131//131 137//137 136//136
f 131//131 132//132 138//138 137//137
f 132//132 127//127 133//133 138//138
f 133//133 134//134 140//140 139//139
f 134//134 135//135 141//141 140//140
f 135//135 136//136 142//142 141//141
f 136//136 137//137 143//143 142//142
f 137//137 138//138 144//144 143//143
f 138//138 133//133 139//139 144//144
f 139//139 140//140 146//146 145//145
f 140//140 141//141 147//147 146//146
f 141//141 142//142 148//148 147//147
f 142//142 143//143 149//149 148//148
f 143//143 144//144 150//150 149//149
f 144//144 139//139 145//145 150//150
f 152//152 157//157 151//151
f 153//153 157//157 152//152
f 154//154 157//157 153//153
f 155//155 157//157 154//154
f 156//156 157//157 155//155
f 151//151 157//157 156//156
f 159//159 164//164 158//158
f 160//160 164//164 159//159
f 161//161 164//164 160//160
f 162//162 164//164 161//161
f 163//163 164//164 162//162
f 158//158 164//164 163//163
g part3
usemtl skin
v -0.20000 0.46000 0.01800
v -0.20693 0.46000 0.01400
v -0.20693 0.46000 0.00600
v -0.20000 0.46000 0.00200
v -0.19307 0.46000 0.00600
v -0.19307 0.46000 0.01400
v -0.20000 0.44000 0.01774
v -0.20670 0.44000 0.01387
v -0.20670 0.44000 0.00613
v -0.20000 0.44000 0.00226
v -0.19330 0.44000 0.00613
v -0.19330 0.44000 0.01387
v -0.20000 0.42000 0.01748
v -0.20648 0.42000 0.01374
v -0.20648 0.42000 0.00626
v -0.20000 0.42000 0.00252
v -0.19352 0.42000 0.00626
v -0.19352 0.42000 0.01374
v -0.20000 0.40000 0.01700
v -0.20606 0.40000 0.01350
v -0.20606 0.40000 0.00650
v -0.20000 0.40000 0.00300
v -0.19394 0.40000 0.00650
v -0.19394 0.40000 0.01350
v -0.20000 0.38000 0.01615
v -0.20532 0.38000 0.01307
v -0.20532 0.38000 0.00693
v -0.20000 0.38000 0.00385
v -0.19468 0.38000 0.00693
v -0.19468 0.38000 0.01307
v -0.20000 0.36000 0.01507
v -0.20439 0.36000 0.01254
v -0.20439 0.36000 0.00746
v -0.20000 0.36000 0.00493
v -0.19561 0.36000 0.00746
v -0.19561 0.36000 0.01254
v -0.20000 0.34000 0.01400
v -0.20346 0.34000 0.01200
v -0.20346 0.34000 0.00800
v -0.20000 0.34000 0.00600
v -0.19654 0.34000 0.00800
v -0.19654 0.34000 0.01200
v -0.20000 0.46000 0.01800
v -0.20693 0.46000 0.01400
v -0.20693 0.46000 0.00600
v -0.20000 0.46000 0.00200
v -0.19307 0.46000 0.00600
v -0.19307 0.46000 0.01400
v -0.20000 0.46000 0.01000
v -0.20000 0.34000 0.01400
v -0.20346 0.34000 0.01200
v -0.20346 0.34000 0.00800
v -0.20000 0.34000 0.00600
v -0.19654 0.34000 0.00800
v -0.19654 0.34000 0.01200
v -0.20000 0.34000 0.01000
vn 0.0000 -0.0130 0.9999
vn -0.8660 -0.0130 0.5000
vn -0.8660 -0.0130 -0.5000
vn -0.0000 -0.0130 -0.9999
vn 0.8660 -0.0130 -0.5000
vn 0.8660 -0.0130 0.5000
vn 0.0000 -0.0130 0.9999
vn -0.8660 -0.0130 0.5000
vn -0.8660 -0.0130 -0.5000
vn -0.0000 -0.0130 -0.9999
vn 0.8660 -0.0130 -0.5000
vn 0.8660 -0.0130 0.5000
vn 0.0000 -0.0185 0.9998
vn -0.8659 -0.0185 0.4999
vn -0.8659 -0.0185 -0.4999
vn -0.0000 -0.0185 -0.9998
vn 0.8659 -0.0185 -0.4999
vn 0.8659 -0.0185 0.4999
vn 0.0000 -0.0333 0.9994
vn -0.8655 -0.0333 0.4997
vn -0.8655 -0.0333 -0.4997
vn -0.0000 -0.0333 -0.9994
vn 0.8655 -0.0333 -0.4997
vn 0.8655 -0.0333 0.4997
vn 0.0000 -0.0481 0.9988
vn -0.8650 -0.0481 0.4994
vn -0.8650 -0.0481 -0.4994
vn -0.0000 -0.0481 -0.9988
vn 0.8650 -0.0481 -0.4994
vn 0.8650 -0.0481 0.4994
vn 0.0000 -0.0536 0.9986
vn -0.8648 -0.0536 0.4993
vn -0.8648 -0.0536 -0.4993
vn -0.0000 -0.0536 -0.9986
vn 0.8648 -0.0536 -0.4993
vn 0.8648 -0.0536 0.4993
vn 0.0000 -0.0536 0.9986
vn -0.8648 -0.0536 0.4993
vn -0.8648 -0.0536 -0.4993
vn -0.0000 -0.0536 -0.9986
vn 0.8648 -0.0536 -0.4993
vn 0.8648 -0.0536 0.4993
vn -0.0000 1.0000 -0.0000
vn -0.0000 1.0000 -0.0000
vn -0.0000 1.0000 -0.0000
vn -0.0000 1.0000 -0.0000
vn -0.0000 1.0000 -0.0000
vn -0.0000 1.0000 -0.0000
vn -0.0000 1.0000 -0.0000
vn 0.0000 -1.0000 0.0000
vn 0.0000 -1.0000 0.0000
vn 0.0000 -1.0000 0.0000
vn 0.0000 -1.0000 0.0000
vn 0.0000 -1.0000 0.0000
vn 0.0000 -1.0000 0.0000
vn 0.0000 -1.0000 0.0000
f 165//165 166//166 172//172 171//171
f 166//166 167//167 173//173 172//172
f 167//167 168//168 174//174 173//173
f 168//168 169//169 175//175 174//174
f 169//169 170//170 176//176 175//175
f 170//170 165//165 171//171 176//176
f 171//171 172//172 178//178 177//177
f 172//172 173//173 179//179 178//178
f 173//173 174//174 180//180 179//179
f 174//174 175//175 181//181 180//180
f 175//175 176//176 182//182 181//181
f 176//176 171//171 177//177 182//182
f 177//177 178//178 184//184 183//183
f 178//178 179//179 185//185 184//184
f 179//179 180//180 186//186 185//185
f 180//180 181//181 187//187 186//186
f 181//181 182//182 188//188 187//187
f 182//182 177//177 183//183 188//188
f 183//183 184//184 190//190 189//189
f 184//184 185//185 191//191 190//190
f 185//185 186//186 192//192 191//191
f 186//186 187//187 193//193 192//192
f 187//187 188//188 194//194 193//193
f 188//188 183//183 189//189 194//194
f 189//189 190//190 196//196 195//195
f 190//190 191//191 197//197 196//196
f 191//191 192//192 198//198 197//197
f 192//192 193//193 199//199 198//198
f 193//193 194//194 200//200 199//199
f 194//194 189//189 195//195 200//200
f 195//195 196//196 202//202 201//201
f 196//196 197//197 203//203 202//202
f 197//197 198//198 204//204 203//203
f 198//198 199//199 205//205 204//204
f 199//199 200//200 206//206 205//205
f 200//200 195//195 201//201 206//206
f 208//208 213//213 207//207
f 209//209 213//213 208//208
f 210//210 213//213 209//209
f 211//211 213//213 210//210
f 212//212 213//213 211//211
f 207//207 213//213 212//212
f 215//215 220//220 214//214
f 216//216 220//220 215//215
f 217//217 220//220 216//216
f 218//218 220//220 217//217
f 219//219 220//220 218//218
f 214//214 220//220 219//219
g part4
usemtl skin
v -0.20000 0.45967 0.03999
v -0.20693 0.45983 0.03600
v -0.20693 0.46017 0.02800
v -0.20000 0.46033 0.02401
v -0.19307 0.46017 0.02800
v -0.19307 0.45983 0.03600
v -0.20000 0.44301 0.03904
v -0.20670 0.44317 0.03517
v -0.20670 0.44349 0.02744
v -0.20000 0.44365 0.02357
v -0.19330 0.44349 0.02744
v -0.19330 0.44317 0.03517
v -0.20000 0.42658 0.03810
v -0.20648 0.42662 0.03436
v -0.20648 0.42671 0.02687
v -0.20000 0.42676 0.02313
v -0.19352 0.42671 0.02687
v -0.19352 0.42662 0.03436
v -0.20000 0.41046 0.03788
v -0.20606 0.41023 0.03439
v -0.20606 0.40977 0.02741
v -0.20000 0.40954 0.02392
v -0.19394 0.40977 0.02741
v -0.19394 0.41023 0.03439
v -0.20000 0.39421 0.03890
v -0.20532 0.39377 0.03586
v -0.20532 0.39289 0.02977
v -0.20000 0.39246 0.02673
v -0.19468 0.39289 0.02977
v -0.19468 0.39377 0.03586
v -0.20000 0.37753 0.04071
v -0.20439 0.37710 0.03821
v -0.20439 0.37623 0.03321
v -0.20000 0.37580 0.03071
v -0.19561 0.37623 0.03321
v -0.19561 0.37710 0.03821
v -0.20000 0.36068 0.04254
v -0.20346 0.36034 0.04057
v -0.20346 0.35966 0.03663
v -0.20000 0.35932 0.03466
v -0.19654 0.35966 0.03663
v -0.19654 0.36034 0.04057
v -0.20000 0.45967 0.03999
v -0.20693 0.45983 0.03600
v -0.20693 0.46017 0.02800
v -0.20000 0.46033 0.02401
v -0.19307 0.46017 0.02800
v -0.19307 0.45983 0.03600
v -0.20000 0.46000 0.03200
v -0.20000 0.36068 0.04254
v -0.20346 0.36034 0.04057
v -0.20346 0.35966 0.03663
v -0.20000 0.35932 0.03466
v -0.19654 0.35966 0.03663
v -0.19654 0.36034 0.04057
v -0.20000 0.36000 0.03860
vn 0.0000 -0.0570 0.9984
vn -0.8659 -0.0363 0.4989
vn -0.8659 0.0052 -0.5002
vn -0.0000 0.0260 -0.9997
vn 0.8659 0.0052 -0.5002
vn 0.8659 -0.0363 0.4989
vn 0.0000 -0.0572 0.9984
vn -0.8659 -0.0364 0.4989
vn -0.8659 0.0053 -0.5002
vn -0.0000 0.0260 -0.9997
vn 0.8659 0.0053 -0.5002
vn 0.8659 -0.0364 0.4989
vn 0.0000 -0.0355 0.9994
vn -0.8658 -0.0287 0.4996
vn -0.8658 -0.0160 -0.5001
vn -0.0000 -0.0100 -0.9999
vn 0.8658 -0.0160 -0.5001
vn 0.8658 -0.0287 0.4996
vn 0.0000 0.0248 0.9997
vn -0.8653 -0.0075 0.5012
vn -0.8654 -0.0720 -0.4959
vn -0.0000 -0.1043 -0.9946
vn 0.8654 -0.0720 -0.4959
vn 0.8653 -0.0075 0.5012
vn 0.0000 0.0854 0.9963
vn -0.8646 0.0143 0.5023
vn -0.8646 -0.1271 -0.4860
vn -0.0000 -0.1974 -0.9803
vn 0.8646 -0.1271 -0.4860
vn 0.8646 0.0143 0.5023
vn 0.0000 0.1080 0.9942
vn -0.8643 0.0227 0.5025
vn -0.8643 -0.1476 -0.4808
vn 0.0000 -0.2327 -0.9725
vn 0.8643 -0.1476 -0.4808
vn 0.8643 0.0227 0.5025
vn 0.0000 0.1082 0.9941
vn -0.8643 0.0229 0.5025
vn -0.8643 -0.1478 -0.4808
vn -0.0000 -0.2331 -0.9725
vn 0.8643 -0.1478 -0.4808
vn 0.8643 0.0229 0.5025
vn -0.0000 0.9991 0.0415
vn -0.0000 0.9991 0.0415
vn -0.0000 0.9991 0.0415
vn -0.0000 0.9991 0.0415
vn -0.0000 0.9991 0.0415
vn -0.0000 0.9991 0.0415
vn -0.0000 0.9991 0.0415
vn 0.0000 -0.9853 0.1710
vn 0.0000 -0.9853 0.1710
vn 0.0000 -0.9853 0.1710
vn 0.0000 -0.9853 0.1710
vn 0.0000 -0.9853 0.1710
vn 0.0000 -0.9853 0.1710
vn 0.0000 -0.9853 0.1710
f 221//221 222//222 228//228 227//227
f 222//222 223//223 229//229 228//228
f 223//223 224//224 230//230 229//229
f 224//224 225//225 231//231 230//230
f 225//225 226//226 232//232 231//231
f 226//226 221//221 227//227 232//232
f 227//227 228//228 234//234 233//233
f 228//228 229//229 235//235 234//234
f 229//229 230//230 236//236 235//235
f 230//230 231//231 237//237 236//236
f 231//231 232//232 238//238 237//237
f 232//232 227//227 233//233 238//238
f 233//233 234//234 240//240 239//239
f 234//234 235//235 241//241 240//240
f 235//235 236//236 242//242 241//241
f 236//236 237//237 243//243 242//242
f 237//237 238//238 244//244 243//243
f 238//238 233//233 239//239 244//244
f 239//239 240//240 246//246 245//245
f 240//240 241//241 247//247 246//246
f 241//241 242//242 248//248 247//247
f 242//242 243//243 249//249 248//248
f 243//243 244//244 250//250 249//249
f 244//244 239//239 245//245 250//250
f 245//245 246//246 252//252 251//251
f 246//246 247//247 253//253 252//252
f 247//247 248//248 254//254 253//253
f 248//248 249//249 255//255 254//254
f 249//249 250//250 256//256 255//255
f 250//250 245//245 251//251 256//256
f 251//251 252//252 258//258 257//257
f 252//252 253//253 259//259 258//258
f 253//253 254//254 260//260 259//259
f 254//254 255//255 261//261 260//260
f 255//255 256//256 262//262 261//261
f 256//256 251//251 257//257 262//262
f 264//264 269//269 263//263
f 265//265 269//269 264//264
f 266//266 269//269 265//265
f 267//267 269//269 266//266
f 268//268 269//269 267//267
f 263//263 269//269 268//268
f 271//271 276//276 270//270
f 272//272 276//276 271//271
f 273//273 276//276 272//272
f 274//274 276//276 273//273
f 275//275 276//276 274//274
f 270//270 276//276 275//275
