# generated by generate_bob.py / generate_saucer.py
mtllib bob.mtl
o bob_upperarm_r
g part0
usemtl skin
v -0.16513 1.01867 0.03497
v -0.18558 1.02089 0.02829
v -0.19817 1.02277 0.01081
v -0.19809 1.02360 -0.01081
v -0.18537 1.02305 -0.02829
v -0.16487 1.02133 -0.03497
v -0.14442 1.01911 -0.02829
v -0.13183 1.01723 -0.01081
v -0.13191 1.01640 0.01081
v -0.14463 1.01695 0.02829
v -0.17761 0.88884 0.02548
v -0.19544 0.89078 0.01966
v -0.20641 0.89242 0.00442
v -0.20634 0.89314 -0.01442
v -0.19525 0.89266 -0.02966
v -0.17739 0.89116 -0.03548
v -0.15956 0.88922 -0.02966
v -0.14859 0.88758 -0.01442
v -0.14866 0.88686 0.00442
v -0.15975 0.88734 0.01966
v -0.19010 0.75901 0.01598
v -0.20529 0.76066 0.01102
v -0.21464 0.76206 -0.00197
v -0.21458 0.76267 -0.01803
v -0.20514 0.76226 -0.03102
v -0.18990 0.76099 -0.03598
v -0.17471 0.75934 -0.03102
v -0.16536 0.75794 -0.01803
v -0.16542 0.75733 -0.00197
v -0.17486 0.75774 0.01102
v -0.16513 1.01867 0.03497
v -0.18558 1.02089 0.02829
v -0.19817 1.02277 0.01081
v -0.19809 1.02360 -0.01081
v -0.18537 1.02305 -0.02829
v -0.16487 1.02133 -0.03497
v -0.14442 1.01911 -0.02829
v -0.13183 1.01723 -0.01081
v -0.13191 1.01640 0.01081
v -0.14463 1.01695 0.02829
v -0.16500 1.02000 0.00000
v -0.19010 0.75901 0.01598
v -0.20529 0.76066 0.01102
v -0.21464 0.76206 -0.00197
v -0.21458 0.76267 -0.01803
v -0.20514 0.76226 -0.03102
v -0.18990 0.76099 -0.03598
v -0.17471 0.75934 -0.03102
v -0.16536 0.75794 -0.01803
v -0.16542 0.75733 -0.00197
v -0.17486 0.75774 0.01102
v -0.19000 0.76000 -0.01000
vn -0.0070 -0.0723 0.9974
vn -0.5910 -0.0088 0.8066
vn -0.9506 0.0450 0.3073
vn -0.9483 0.0685 -0.3099
vn -0.5851 0.0528 -0.8093
vn 0.0004 0.0038 -1.0000
vn 0.5844 -0.0597 -0.8093
vn 0.9440 -0.1134 -0.3099
vn 0.9417 -0.1370 0.3073
vn 0.5785 -0.1212 0.8066
vn -0.0070 -0.0723 0.9974
vn -0.5910 -0.0088 0.8066
vn -0.9506 0.0450 0.3073
vn -0.9483 0.0685 -0.3099
vn -0.5851 0.0528 -0.8093
vn 0.0004 0.0038 -1.0000
vn 0.5844 -0.0597 -0.8093
vn 0.9440 -0.1134 -0.3099
vn 0.9417 -0.1370 0.3073
vn 0.5785 -0.1212 0.8066
vn -0.0070 -0.0723 0.9974
vn -0.5910 -0.0088 0.8066
vn -0.9506 0.0450 0.3073
vn -0.9483 0.0685 -0.3099
vn -0.5851 0.0528 -0.8093
vn 0.0004 0.0038 -1.0000
vn 0.5844 -0.0597 -0.8093
vn 0.9440 -0.1134 -0.3099
vn 0.9417 -0.1370 0.3073
vn 0.5785 -0.1212 0.8066
vn 0.0956 0.9947 0.0383
vn 0.0956 0.9947 0.0383
vn 0.0956 0.9947 0.0383
vn 0.0956 0.9947 0.0383
vn 0.0956 0.9947 0.0383
vn 0.0956 0.9947 0.0383
vn 0.0956 0.9947 0.0383
vn 0.0956 0.9947 0.0383
vn 0.0956 0.9947 0.0383
vn 0.0956 0.9947 0.0383
vn 0.0956 0.9947 0.0383
vn -0.0956 -0.9947 -0.0383
vn -0.0956 -0.9947 -0.0383
vn -0.0956 -0.9947 -0.0383
vn -0.0956 -0.9947 -0.0383
vn -0.0956 -0.9947 -0.0383
vn -0.0956 -0.9947 -0.0383
vn -0.0956 -0.9947 -0.0383
vn -0.0956 -0.9947 -0.0383
vn -0.0956 -0.9947 -0.0383
vn -0.0956 -0.9947 -0.0383
vn -0.0956 -0.9947 -0.0383
f 1//1 2//2 12//12 11//11
f 2//2 3//3 13//13 12//12
f 3//3 4//4 14//14 13//13
f 4//4 5//5 15//15 14//14
f 5//5 6//6 16//16 15//15
f 6//6 7//7 17//17 16//16
f 7//7 8//8 18//18 17//17
f 8//8 9//9 19//19 18//18
f 9//9 10//10 20//20 19//19
f 10//10 1//1 11//11 20//20
f 11//11 12//12 22//22 21//21
f 12//12 13//13 23//23 22//22
f 13//13 14//14 24//24 23//23
f 14//14 15//15 25//25 24//24
f 15//15 16//16 26//26 25//25
f 16//16 17//17 27//27 26//26
f 17//17 18//18 28//28 27//27
f 18//18 19//19 29//29 28//28
f 19//19 20//20 30//30 29//29
f 20//20 11//11 21//21 30//30
f 32//32 41//41 31//31
f 33//33 41//41 32//32
f 34//34 41//41 33//33
f 35//35 41//41 34//34
f 36//36 41//41 35//35
f 37//37 41//41 36//36
f 38//38 41//41 37//37
f 39//39 41//41 38//38
f 40//40 41//41 39//39
f 31//31 41//41 40//40
f 43//43 52//52 42//42
f 44//44 52//52 43//43
f 45//45 52//52 44//44
f 46//46 52//52 45//45
f 47//47 52//52 46//46
f 48//48 52//52 47//47
f 49//49 52//52 48//48
f 50//50 52//52 49//49
f 51//51 52//52 50//50
f 42//42 52//52 51//51
g part1
usemtl skin
v -0.19000 0.78800 -0.01000
v -0.19000 0.78800 -0.01000
v -0.19000 0.78800 -0.01000
v -0.19000 0.78800 -0.01000
v -0.19000 0.78800 -0.01000
v -0.19000 0.78800 -0.01000
v -0.19000 0.78800 -0.01000
v -0.19000 0.78800 -0.01000
v -0.19000 0.78425 0.00400
v -0.18010 0.78425 -0.00010
v -0.17600 0.78425 -0.01000
v -0.18010 0.78425 -0.01990
v -0.19000 0.78425 -0.02400
v -0.19990 0.78425 -0.01990
v -0.20400 0.78425 -0.01000
v -0.19990 0.78425 -0.00010
v -0.19000 0.77400 0.01425
v -0.17285 0.77400 0.00715
v -0.16575 0.77400 -0.01000
v -0.17285 0.77400 -0.02715
v -0.19000 0.77400 -0.03425
v -0.20715 0.77400 -0.02715
v -0.21425 0.77400 -0.01000
v -0.20715 0.77400 0.00715
v -0.19000 0.76000 0.01800
v -0.17020 0.76000 0.00980
v -0.16200 0.76000 -0.01000
v -0.17020 0.76000 -0.02980
v -0.19000 0.76000 -0.03800
v -0.20980 0.76000 -0.02980
v -0.21800 0.76000 -0.01000
v -0.20980 0.76000 0.00980
v -0.19000 0.74600 0.01425
v -0.17285 0.74600 0.00715
v -0.16575 0.74600 -0.01000
v -0.17285 0.74600 -0.02715
v -0.19000 0.74600 -0.03425
v -0.20715 0.74600 -0.02715
v -0.21425 0.74600 -0.01000
v -0.20715 0.74600 0.00715
v -0.19000 0.73575 0.00400
v -0.18010 0.73575 -0.00010
v -0.17600 0.73575 -0.01000
v -0.18010 0.73575 -0.01990
v -0.19000 0.73575 -0.02400
v -0.19990 0.73575 -0.01990
v -0.20400 0.73575 -0.01000
v -0.19990 0.73575 -0.00010
v -0.19000 0.73200 -0.01000
v -0.19000 0.73200 -0.01000
v -0.19000 0.73200 -0.01000
v -0.19000 0.73200 -0.01000
v -0.19000 0.73200 -0.01000
v -0.19000 0.73200 -0.01000
v -0.19000 0.73200 -0.01000
v -0.19000 0.73200 -0.01000
vn 0.0000 1.0000 0.0000
vn 0.0000 1.0000 0.0000
vn 0.0000 1.0000 0.0000
vn 0.0000 1.0000 -0.0000
vn 0.0000 1.0000 -0.0000
vn -0.0000 1.0000 -0.0000
vn -0.0000 1.0000 -0.0000
vn -0.0000 1.0000 0.0000
vn 0.0000 0.8660 0.5000
vn 0.3536 0.8660 0.3536
vn 0.5000 0.8660 0.0000
vn 0.3536 0.8660 -0.3536
vn 0.0000 0.8660 -0.5000
vn -0.3536 0.8660 -0.3536
vn -0.5000 0.8660 -0.0000
vn -0.3536 0.8660 0.3536
vn 0.0000 0.5000 0.8660
vn 0.6124 0.5000 0.6124
vn 0.8660 0.5000 0.0000
vn 0.6124 0.5000 -0.6124
vn 0.0000 0.5000 -0.8660
vn -0.6124 0.5000 -0.6124
vn -0.8660 0.5000 -0.0000
vn -0.6124 0.5000 0.6124
vn 0.0000 0.0000 1.0000
vn 0.7071 0.0000 0.7071
vn 1.0000 0.0000 0.0000
vn 0.7071 0.0000 -0.7071
vn 0.0000 0.0000 -1.0000
vn -0.7071 0.0000 -0.7071
vn -1.0000 0.0000 -0.0000
vn -0.7071 0.0000 0.7071
vn 0.0000 -0.5000 0.8660
vn 0.6124 -0.5000 0.6124
vn 0.8660 -0.5000 0.0000
vn 0.6124 -0.5000 -0.6124
vn 0.0000 -0.5000 -0.8660
vn -0.6124 -0.5000 -0.6124
vn -0.8660 -0.5000 -0.0000
vn -0.6124 -0.5000 0.6124
vn 0.0000 -0.8660 0.5000
vn 0.3536 -0.8660 0.3536
vn 0.5000 -0.8660 0.0000
vn 0.3536 -0.8660 -0.3536
vn 0.0000 -0.8660 -0.5000
vn -0.3536 -0.8660 -0.3536
vn -0.5000 -0.8660 -0.0000
vn -0.3536 -0.8660 0.3536
vn 0.0000 -1.0000 0.0000
vn 0.0000 -1.0000 0.0000
vn 0.0000 -1.0000 0.0000
vn 0.0000 -1.0000 -0.0000
vn 0.0000 -1.0000 -0.0000
vn -0.0000 -1.0000 -0.0000
vn -0.0000 -1.0000 -0.0000
vn -0.0000 -1.0000 0.0000
f 61//61 62//62 54//54 53//53
f 62//62 63//63 55//55 54//54
f 63//63 64//64 56//56 55//55
f 64//64 65//65 57//57 56//56
f 65//65 66//66 58//58 57//57
f 66//66 67//67 59//59 58//58
f 67//67 68//68 60//60 59//59
f 68//68 61//61 53//53 60//60
f 69//69 70//70 62//62 61//61
f 70//70 71//71 63//63 62//62
f 71//71 72//72 64//64 63//63
f 72//72 73//73 65//65 64//64
f 73//73 74//74 66//66 65//65
f 74//74 75//75 67//67 66//66
f 75//75 76//76 68//68 67//67
f 76//76 69//69 61//61 68//68
f 77//77 78//78 70//70 69//69
f 78//78 79//79 71//71 70//70
f 79//79 80//80 72//72 71//71
f 80//80 81//81 73//73 72//72
f 81//81 82//82 74//74 73//73
f 82//82 83//83 75//75 74//74
f 83//83 84//84 76//76 75//75
f 84//84 77//77 69//69 76//76
f 85//85 86//86 78//78 77//77
f 86//86 87//87 79//79 78//78
f 87//87 88//88 80//80 79//79
f 88//88 89//89 81//81 80//80
f 89//89 90//90 82//82 81//81
f 90//90 91//91 83//83 82//82
f 91//91 92//92 84//84 83//83
f 92//92 85//85 77//77 84//84
f 93//93 94//94 86//86 85//85
f 94//94 95//95 87//87 86//86
f 95//95 96//96 88//88 87//87
f 96//96 97//97 89//89 88//88
f 97//97 98//98 90//90 89//89
f 98//98 99//99 91//91 90//90
f 99//99 100//100 92//92 91//91
f 100//100 93//93 85//85 92//92
f 101//101 102//102 94//94 93//93
f 102//102 103//103 95//95 94//94
f 103//103 104//104 96//96 95//95
f 104//104 105//105 97//97 96//96
f 105//105 106//106 98//98 97//97
f 106//106 107//107 99//99 98//98
f 107//107 108//108 100//100 99//99
f 108//108 101//101 93//93 100//100
