# generated by generate_bob.py / generate_saucer.py
mtllib bob.mtl
o bob_shin_l
g part0
usemtl skin
v 0.09000 0.33758 0.05391
v 0.07002 0.33804 0.04744
v 0.05766 0.33925 0.03048
v 0.05766 0.34075 0.00952
v 0.07002 0.34196 -0.00744
v 0.09000 0.34242 -0.01391
v 0.10998 0.34196 -0.00744
v 0.12234 0.34075 0.00952
v 0.12234 0.33925 0.03048
v 0.10998 0.33804 0.04744
v 0.09000 0.19786 0.03992
v 0.07237 0.19827 0.03421
v 0.06147 0.19934 0.01925
v 0.06147 0.20066 0.00075
v 0.07237 0.20173 -0.01421
v 0.09000 0.20214 -0.01992
v 0.10763 0.20173 -0.01421
v 0.11853 0.20066 0.00075
v 0.11853 0.19934 0.01925
v 0.10763 0.19827 0.03421
v 0.09000 0.05815 0.02593
v 0.07472 0.05850 0.02098
v 0.06527 0.05943 0.00801
v 0.06527 0.06057 -0.00801
v 0.07472 0.06150 -0.02098
v 0.09000 0.06185 -0.02593
v 0.10528 0.06150 -0.02098
v 0.11473 0.06057 -0.00801
v 0.11473 0.05943 0.00801
v 0.10528 0.05850 0.02098
v 0.09000 0.33758 0.05391
v 0.07002 0.33804 0.04744
v 0.05766 0.33925 0.03048
v 0.05766 0.34075 0.00952
v 0.07002 0.34196 -0.00744
v 0.09000 0.34242 -0.01391
v 0.10998 0.34196 -0.00744
v 0.12234 0.34075 0.00952
v 0.12234 0.33925 0.03048
v 0.10998 0.33804 0.04744
v 0.09000 0.34000 0.02000
v 0.09000 0.05815 0.02593
v 0.07472 0.05850 0.02098
v 0.06527 0.05943 0.00801
v 0.06527 0.06057 -0.00801
v 0.07472 0.06150 -0.02098
v 0.09000 0.06185 -0.02593
v 0.10528 0.06150 -0.02098
v 0.11473 0.06057 -0.00801
v 0.11473 0.05943 0.00801
v 0.10528 0.05850 0.02098
v 0.09000 0.06000 0.00000
vn 0.0000 -0.0996 0.9950
vn -0.5875 -0.0860 0.8046
vn -0.9507 -0.0504 0.3061
vn -0.9507 -0.0064 -0.3101
vn -0.5875 0.0292 -0.8087
vn -0.0000 0.0428 -0.9991
vn 0.5875 0.0292 -0.8087
vn 0.9507 -0.0064 -0.3101
vn 0.9507 -0.0504 0.3061
vn 0.5875 -0.0860 0.8046
vn 0.0000 -0.0996 0.9950
vn -0.5875 -0.0860 0.8046
vn -0.9507 -0.0504 0.3061
vn -0.9507 -0.0064 -0.3101
vn -0.5875 0.0292 -0.8087
vn -0.0000 0.0428 -0.9991
vn 0.5875 0.0292 -0.8087
vn 0.9507 -0.0064 -0.3101
vn 0.9507 -0.0504 0.3061
vn 0.5875 -0.0860 0.8046
vn 0.0000 -0.0996 0.9950
vn -0.5875 -0.0860 0.8046
vn -0.9507 -0.0504 0.3061
vn -0.9507 -0.0064 -0.3101
vn -0.5875 0.0292 -0.8087
vn -0.0000 0.0428 -0.9991
vn 0.5875 0.0292 -0.8087
vn 0.9507 -0.0064 -0.3101
vn 0.9507 -0.0504 0.3061
vn 0.5875 -0.0860 0.8046
vn -0.0000 0.9975 0.0712
vn -0.0000 0.9975 0.0712
vn -0.0000 0.9975 0.0712
vn -0.0000 0.9975 0.0712
vn -0.0000 0.9975 0.0712
vn -0.0000 0.9975 0.0712
vn -0.0000 0.9975 0.0712
vn -0.0000 0.9975 0.0712
vn -0.0000 0.9975 0.0712
vn -0.0000 0.9975 0.0712
vn -0.0000 0.9975 0.0712
vn 0.0000 -0.9975 -0.0712
vn 0.0000 -0.9975 -0.0712
vn 0.0000 -0.9975 -0.0712
vn 0.0000 -0.9975 -0.0712
vn 0.0000 -0.9975 -0.0712
vn 0.0000 -0.9975 -0.0712
vn 0.0000 -0.9975 -0.0712
vn 0.0000 -0.9975 -0.0712
vn 0.0000 -0.9975 -0.0712
vn 0.0000 -0.9975 -0.0712
vn 0.0000 -0.9975 -0.0712
f 1//1 2//2 12//12 11//11
f 2//2 3//3 13//13 12//12
f 3//3 4//4 14//14 13//13
f 4//4 5//5 15//15 14//14
f 5//5 6//6 16//16 15//15
f 6//6 7//7 17//17 16//16
f 7//7 8//8 18//18 17//17
f 8//8 9//9 19//19 18//18
f 9//9 10//10 20//20 19//19
f 10//10 1//1 11//11 20//20
f 11//11 12//12 22//22 21//21
f 12//12 13//13 23//23 22//22
f 13//13 14//14 24//24 23//23
f 14//14 15//15 25//25 24//24
f 15//15 16//16 26//26 25//25
f 16//16 17//17 27//27 26//26
f 17//17 18//18 28//28 27//27
f 18//18 19//19 29//29 28//28
f 19//19 20//20 30//30 29//29
f 20//20 11//11 21//21 30//30
f 32//32 41//41 31//31
f 33//33 41//41 32//32
f 34//34 41//41 33//33
f 35//35 41//41 34//34
f 36//36 41//41 35//35
f 37//37 41//41 36//36
f 38//38 41//41 37//37
f 39//39 41//41 38//38
f 40//40 41//41 39//39
f 31//31 41//41 40//40
f 43//43 52//52 42//42
f 44//44 52//52 43//43
f 45//45 52//52 44//44
f 46//46 52//52 45//45
f 47//47 52//52 46//46
f 48//48 52//52 47//47
f 49//49 52//52 48//48
f 50//50 52//52 49//49
f 51//51 52//52 50//50
f 42//42 52//52 51//51
g part1
usemtl skin
v 0.09000 0.05500 0.05000
v 0.09000 0.05500 0.05000
v 0.09000 0.05500 0.05000
v 0.09000 0.05500 0.05000
v 0.09000 0.05500 0.05000
v 0.09000 0.05500 0.05000
v 0.09000 0.05500 0.05000
v 0.09000 0.05500 0.05000
v 0.09000 0.05500 0.05000
v 0.09000 0.05500 0.05000
v 0.09000 0.05165 0.09500
v 0.10029 0.05165 0.08641
v 0.10664 0.05165 0.06391
v 0.10664 0.05165 0.03609
v 0.10029 0.05165 0.01359
v 0.09000 0.05165 0.00500
v 0.07971 0.05165 0.01359
v 0.07336 0.05165 0.03609
v 0.07336 0.05165 0.06391
v 0.07971 0.05165 0.08641
v 0.09000 0.04250 0.12794
v 0.10782 0.04250 0.11306
v 0.11883 0.04250 0.07409
v 0.11883 0.04250 0.02591
v 0.10782 0.04250 -0.01306
v 0.09000 0.04250 -0.02794
v 0.07218 0.04250 -0.01306
v 0.06117 0.04250 0.02591
v 0.06117 0.04250 0.07409
v 0.07218 0.04250 0.11306
v 0.09000 0.03000 0.14000
v 0.11057 0.03000 0.12281
v 0.12329 0.03000 0.07781
v 0.12329 0.03000 0.02219
v 0.11057 0.03000 -0.02281
v 0.09000 0.03000 -0.04000
v 0.06943 0.03000 -0.02281
v 0.05671 0.03000 0.02219
v 0.05671 0.03000 0.07781
v 0.06943 0.03000 0.12281
v 0.09000 0.01750 0.12794
v 0.10782 0.01750 0.11306
v 0.11883 0.01750 0.07409
v 0.11883 0.01750 0.02591
v 0.10782 0.01750 -0.01306
v 0.09000 0.01750 -0.02794
v 0.07218 0.01750 -0.01306
v 0.06117 0.01750 0.02591
v 0.06117 0.01750 0.07409
v 0.07218 0.01750 0.11306
v 0.09000 0.00835 0.09500
v 0.10029 0.00835 0.08641
v 0.10664 0.00835 0.06391
v 0.10664 0.00835 0.03609
v 0.10029 0.00835 0.01359
v 0.09000 0.00835 0.00500
v 0.07971 0.00835 0.01359
v 0.07336 0.00835 0.03609
v 0.07336 0.00835 0.06391
v 0.07971 0.00835 0.08641
v 0.09000 0.00500 0.05000
v 0.09000 0.00500 0.05000
v 0.09000 0.00500 0.05000
v 0.09000 0.00500 0.05000
v 0.09000 0.00500 0.05000
v 0.09000 0.00500 0.05000
v 0.09000 0.00500 0.05000
v 0.09000 0.00500 0.05000
v 0.09000 0.00500 0.05000
v 0.09000 0.00500 0.05000
vn 0.0000 1.0000 0.0000
vn 0.0000 1.0000 0.0000
vn 0.0000 1.0000 0.0000
vn 0.0000 1.0000 -0.0000
vn 0.0000 1.0000 -0.0000
vn 0.0000 1.0000 -0.0000
vn -0.0000 1.0000 -0.0000
vn -0.0000 1.0000 -0.0000
vn -0.0000 1.0000 0.0000
vn -0.0000 1.0000 0.0000
vn 0.0000 0.9874 0.1584
vn 0.2337 0.9642 0.1251
vn 0.3647 0.9300 0.0461
vn 0.3647 0.9300 -0.0461
vn 0.2337 0.9642 -0.1251
vn 0.0000 0.9874 -0.1584
vn -0.2337 0.9642 -0.1251
vn -0.3647 0.9300 -0.0461
vn -0.3647 0.9300 0.0461
vn -0.2337 0.9642 0.1251
vn 0.0000 0.9011 0.4336
vn 0.5610 0.7714 0.3003
vn 0.7585 0.6446 0.0958
vn 0.7585 0.6446 -0.0958
vn 0.5610 0.7714 -0.3003
vn 0.0000 0.9011 -0.4336
vn -0.5610 0.7714 -0.3003
vn -0.7585 0.6446 -0.0958
vn -0.7585 0.6446 0.0958
vn -0.5610 0.7714 0.3003
vn 0.0000 0.0000 1.0000
vn 0.8816 0.0000 0.4719
vn 0.9921 0.0000 0.1254
vn 0.9921 0.0000 -0.1254
vn 0.8816 0.0000 -0.4719
vn 0.0000 0.0000 -1.0000
vn -0.8816 0.0000 -0.4719
vn -0.9921 0.0000 -0.1254
vn -0.9921 0.0000 0.1254
vn -0.8816 0.0000 0.4719
vn 0.0000 -0.9011 0.4336
vn 0.5610 -0.7714 0.3003
vn 0.7585 -0.6446 0.0958
vn 0.7585 -0.6446 -0.0958
vn 0.5610 -0.7714 -0.3003
vn 0.0000 -0.9011 -0.4336
vn -0.5610 -0.7714 -0.3003
vn -0.7585 -0.6446 -0.0958
vn -0.7585 -0.6446 0.0958
vn -0.5610 -0.7714 0.3003
vn 0.0000 -0.9874 0.1584
vn 0.2337 -0.9642 0.1251
vn 0.3647 -0.9300 0.0461
vn 0.3647 -0.9300 -0.0461
vn 0.2337 -0.9642 -0.1251
vn 0.0000 -0.9874 -0.1584
vn -0.2337 -0.9642 -0.1251
vn -0.3647 -0.9300 -0.0461
vn -0.3647 -0.9300 0.0461
vn -0.2337 -0.9642 0.1251
vn 0.0000 -1.0000 0.0000
vn 0.0000 -1.0000 0.0000
vn 0.0000 -1.0000 0.0000
vn 0.0000 -1.0000 -0.0000
vn 0.0000 -1.0000 -0.0000
vn 0.0000 -1.0000 -0.0000
vn -0.0000 -1.0000 -0.0000
vn -0.0000 -1.0000 -0.0000
vn -0.0000 -1.0000 0.0000
vn -0.0000 -1.0000 0.0000
f 63//63 64//64 54//54 53//53
f 64//64 65//65 55//55 54//54
f 65//65 66//66 56//56 55//55
f 66//66 67//67 57//57 56//56
f 67//67 68//68 58//58 57//57
f 68//68 69//69 59//59 58//58
f 69//69 70//70 60//60 59//59
f 70//70 71//71 61//61 60//60
f 71//71 72//72 62//62 61//61
f 72//72 63//63 53//53 62//62
f 73//73 74//74 64//64 63//63
f 74//74 75//75 65//65 64//64
f 75//75 76//76 66//66 65//65
f 76//76 77//77 67//67 66//66
f 77//77 78//78 68//68 67//67
f 78//78 79//79 69//69 68//68
f 79//79 80//80 70//70 69//69
f 80//80 81//81 71//71 70//70
f 81//81 82//82 72//72 71//71
f 82//82 73//73 63//63 72//72
f 83//83 84//84 74//74 73//73
f 84//84 85//85 75//75 74//74
f 85//85 86//86 76//76 75//75
f 86//86 87//87 77//77 76//76
f 87//87 88//88 78//78 77//77
f 88//88 89//89 79//79 78//78
f 89//89 90//90 80//80 79//79
f 90//90 91//91 81//81 80//80
f 91//91 92//92 82//82 81//81
f 92//92 83//83 73//73 82//82
f 93//93 94//94 84//84 83//83
f 94//94 95//95 85//85 84//84
f 95//95 96//96 86//86 85//85
f 96//96 97//97 87//87 86//86
f 97//97 98//98 88//88 87//87
f 98//98 99//99 89//89 88//88
f 99//99 100//100 90//90 89//89
f 100//100 101//101 91//91 90//90
f 101//101 102//102 92//92 91//91
f 102//102 93//93 83//83 92//92
f 103//103 104//104 94//94 93//93
f 104//104 105//105 95//95 94//94
f 105//105 106//106 96//96 95//95
f 106//106 107//107 97//97 96//96
f 107//107 108//108 98//98 97//97
f 108//108 109//109 99//99 98//98
f 109//109 110//110 100//100 99//99
f 110//110 111//111 101//101 100//100
f 111//111 112//112 102//102 101//101
f 112//112 103//103 93//93 102//102
f 113//113 114//114 104//104 103//103
f 114//114 115//115 105//105 104//104
f 115//115 116//116 106//106 105//105
f 116//116 117//117 107//107 106//106
f 117//117 118//118 108//108 107//107
f 118//118 119//119 109//109 108//108
f 119//119 120//120 110//110 109//109
f 120//120 121//121 111//111 110//110
f 121//121 122//122 112//112 111//111
f 122//122 113//113 103//103 112//112
