# generated by generate_bob.py / generate_saucer.py
mtllib bob.mtl
o bob_thigh_r
g part0
usemtl skin
v -0.08494 0.64333 0.04989
v -0.11434 0.64318 0.04036
v -0.13253 0.64182 0.01542
v -0.13256 0.63976 -0.01542
v -0.11443 0.63780 -0.04036
v -0.08506 0.63667 -0.04989
v -0.05566 0.63682 -0.04036
v -0.03747 0.63818 -0.01542
v -0.03744 0.64024 0.01542
v -0.05557 0.64220 0.04036
v -0.08745 0.49286 0.05290
v -0.11273 0.49273 0.04471
v -0.12838 0.49157 0.02326
v -0.12840 0.48980 -0.00326
v -0.11281 0.48811 -0.02471
v -0.08755 0.48714 -0.03290
v -0.06227 0.48727 -0.02471
v -0.04662 0.48843 -0.00326
v -0.04660 0.49020 0.02326
v -0.06219 0.49189 0.04471
v -0.08996 0.34239 0.05592
v -0.11113 0.34229 0.04906
v -0.12422 0.34131 0.03110
v -0.12425 0.33983 0.00890
v -0.11119 0.33842 -0.00906
v -0.09004 0.33761 -0.01592
v -0.06887 0.33771 -0.00906
v -0.05578 0.33869 0.00890
v -0.05575 0.34017 0.03110
v -0.06881 0.34158 0.04906
v -0.08494 0.64333 0.04989
v -0.11434 0.64318 0.04036
v -0.13253 0.64182 0.01542
v -0.13256 0.63976 -0.01542
v -0.11443 0.63780 -0.04036
v -0.08506 0.63667 -0.04989
v -0.05566 0.63682 -0.04036
v -0.03747 0.63818 -0.01542
v -0.03744 0.64024 0.01542
v -0.05557 0.64220 0.04036
v -0.08500 0.64000 0.00000
v -0.08996 0.34239 0.05592
v -0.11113 0.34229 0.04906
v -0.12422 0.34131 0.03110
v -0.12425 0.33983 0.00890
v -0.11119 0.33842 -0.00906
v -0.09004 0.33761 -0.01592
v -0.06887 0.33771 -0.00906
v -0.05578 0.33869 0.00890
v -0.05575 0.34017 0.03110
v -0.06881 0.34158 0.04906
v -0.09000 0.34000 0.02000
vn 0.0003 0.0200 0.9998
vn -0.5869 0.0171 0.8094
vn -0.9503 -0.0100 0.3111
vn -0.9510 -0.0511 -0.3049
vn -0.5887 -0.0904 -0.8033
vn -0.0019 -0.1128 -0.9936
vn 0.5854 -0.1099 -0.8033
vn 0.9488 -0.0828 -0.3049
vn 0.9495 -0.0417 0.3111
vn 0.5872 -0.0024 0.8094
vn 0.0003 0.0200 0.9998
vn -0.5869 0.0171 0.8094
vn -0.9503 -0.0100 0.3111
vn -0.9510 -0.0511 -0.3049
vn -0.5887 -0.0904 -0.8033
vn -0.0019 -0.1128 -0.9936
vn 0.5854 -0.1099 -0.8033
vn 0.9488 -0.0828 -0.3049
vn 0.9495 -0.0417 0.3111
vn 0.5872 -0.0024 0.8094
vn 0.0003 0.0200 0.9998
vn -0.5869 0.0171 0.8094
vn -0.9503 -0.0100 0.3111
vn -0.9510 -0.0511 -0.3049
vn -0.5887 -0.0904 -0.8033
vn -0.0019 -0.1128 -0.9936
vn 0.5854 -0.1099 -0.8033
vn 0.9488 -0.0828 -0.3049
vn 0.9495 -0.0417 0.3111
vn 0.5872 -0.0024 0.8094
vn 0.0166 0.9976 -0.0665
vn 0.0166 0.9976 -0.0665
vn 0.0166 0.9976 -0.0665
vn 0.0166 0.9976 -0.0665
vn 0.0166 0.9976 -0.0665
vn 0.0166 0.9976 -0.0665
vn 0.0166 0.9976 -0.0665
vn 0.0166 0.9976 -0.0665
vn 0.0166 0.9976 -0.0665
vn 0.0166 0.9976 -0.0665
vn 0.0166 0.9976 -0.0665
vn -0.0166 -0.9976 0.0665
vn -0.0166 -0.9976 0.0665
vn -0.0166 -0.9976 0.0665
vn -0.0166 -0.9976 0.0665
vn -0.0166 -0.9976 0.0665
vn -0.0166 -0.9976 0.0665
vn -0.0166 -0.9976 0.0665
vn -0.0166 -0.9976 0.0665
vn -0.0166 -0.9976 0.0665
vn -0.0166 -0.9976 0.0665
vn -0.0166 -0.9976 0.0665
f 1//1 2//2 12//12 11//11
f 2//2 3//3 13//13 12//12
f 3//3 4//4 14//14 13//13
f 4//4 5//5 15//15 14//14
f 5//5 6//6 16//16 15//15
f 6//6 7//7 17//17 16//16
f 7//7 8//8 18//18 17//17
f 8//8 9//9 19//19 18//18
f 9//9 10//10 20//20 19//19
f 10//10 1//1 11//11 20//20
f 11//11 12//12 22//22 21//21
f 12//12 13//13 23//23 22//22
f 13//13 14//14 24//24 23//23
f 14//14 15//15 25//25 24//24
f 15//15 16//16 26//26 25//25
f 16//16 17//17 27//27 26//26
f 17//17 18//18 28//28 27//27
f 18//18 19//19 29//29 28//28
f 19//19 20//20 30//30 29//29
f 20//20 11//11 21//21 30//30
f 32//32 41//41 31//31
f 33//33 41//41 32//32
f 34//34 41//41 33//33
f 35//35 41//41 34//34
f 36//36 41//41 35//35
f 37//37 41//41 36//36
f 38//38 41//41 37//37
f 39//39 41//41 38//38
f 40//40 41//41 39//39
f 31//31 41//41 40//40
f 43//43 52//52 42//42
f 44//44 52//52 43//43
f 45//45 52//52 44//44
f 46//46 52//52 45//45
f 47//47 52//52 46//46
f 48//48 52//52 47//47
f 49//49 52//52 48//48
f 50//50 52//52 49//49
f 51//51 52//52 50//50
f 42//42 52//52 51//51
g part1
usemtl skin
v -0.09000 0.37600 0.02000
v -0.09000 0.37600 0.02000
v -0.09000 0.37600 0.02000
v -0.09000 0.37600 0.02000
v -0.09000 0.37600 0.02000
v -0.09000 0.37600 0.02000
v -0.09000 0.37600 0.02000
v -0.09000 0.37600 0.02000
v -0.09000 0.37118 0.03800
v -0.07727 0.37118 0.03273
v -0.07200 0.37118 0.02000
v -0.07727 0.37118 0.00727
v -0.09000 0.37118 0.00200
v -0.10273 0.37118 0.00727
v -0.10800 0.37118 0.02000
v -0.10273 0.37118 0.03273
v -0.09000 0.35800 0.05118
v -0.06795 0.35800 0.04205
v -0.05882 0.35800 0.02000
v -0.06795 0.35800 -0.00205
v -0.09000 0.35800 -0.01118
v -0.11205 0.35800 -0.00205
v -0.12118 0.35800 0.02000
v -0.11205 0.35800 0.04205
v -0.09000 0.34000 0.05600
v -0.06454 0.34000 0.04546
v -0.05400 0.34000 0.02000
v -0.06454 0.34000 -0.00546
v -0.09000 0.34000 -0.01600
v -0.11546 0.34000 -0.00546
v -0.12600 0.34000 0.02000
v -0.11546 0.34000 0.04546
v -0.09000 0.32200 0.05118
v -0.06795 0.32200 0.04205
v -0.05882 0.32200 0.02000
v -0.06795 0.32200 -0.00205
v -0.09000 0.32200 -0.01118
v -0.11205 0.32200 -0.00205
v -0.12118 0.32200 0.02000
v -0.11205 0.32200 0.04205
v -0.09000 0.30882 0.03800
v -0.07727 0.30882 0.03273
v -0.07200 0.30882 0.02000
v -0.07727 0.30882 0.00727
v -0.09000 0.30882 0.00200
v -0.10273 0.30882 0.00727
v -0.10800 0.30882 0.02000
v -0.10273 0.30882 0.03273
v -0.09000 0.30400 0.02000
v -0.09000 0.30400 0.02000
v -0.09000 0.30400 0.02000
v -0.09000 0.30400 0.02000
v -0.09000 0.30400 0.02000
v -0.09000 0.30400 0.02000
v -0.09000 0.30400 0.02000
v -0.09000 0.30400 0.02000
vn 0.0000 1.0000 0.0000
vn 0.0000 1.0000 0.0000
vn 0.0000 1.0000 0.0000
vn 0.0000 1.0000 -0.0000
vn 0.0000 1.0000 -0.0000
vn -0.0000 1.0000 -0.0000
vn -0.0000 1.0000 -0.0000
vn -0.0000 1.0000 0.0000
vn 0.0000 0.8660 0.5000
vn 0.3536 0.8660 0.3536
vn 0.5000 0.8660 0.0000
vn 0.3536 0.8660 -0.3536
vn 0.0000 0.8660 -0.5000
vn -0.3536 0.8660 -0.3536
vn -0.5000 0.8660 -0.0000
vn -0.3536 0.8660 0.3536
vn 0.0000 0.5000 0.8660
vn 0.6124 0.5000 0.6124
vn 0.8660 0.5000 0.0000
vn 0.6124 0.5000 -0.6124
vn 0.0000 0.5000 -0.8660
vn -0.6124 0.5000 -0.6124
vn -0.8660 0.5000 -0.0000
vn -0.6124 0.5000 0.6124
vn 0.0000 0.0000 1.0000
vn 0.7071 0.0000 0.7071
vn 1.0000 0.0000 0.0000
vn 0.7071 0.0000 -0.7071
vn 0.0000 0.0000 -1.0000
vn -0.7071 0.0000 -0.7071
vn -1.0000 0.0000 -0.0000
vn -0.7071 0.0000 0.7071
vn 0.0000 -0.5000 0.8660
vn 0.6124 -0.5000 0.6124
vn 0.8660 -0.5000 0.0000
vn 0.6124 -0.5000 -0.6124
vn 0.0000 -0.5000 -0.8660
vn -0.6124 -0.5000 -0.6124
vn -0.8660 -0.5000 -0.0000
vn -0.6124 -0.5000 0.6124
vn 0.0000 -0.8660 0.5000
vn 0.3536 -0.8660 0.3536
vn 0.5000 -0.8660 0.0000
vn 0.3536 -0.8660 -0.3536
vn 0.0000 -0.8660 -0.5000
vn -0.3536 -0.8660 -0.3536
vn -0.5000 -0.8660 -0.0000
vn -0.3536 -0.8660 0.3536
vn 0.0000 -1.0000 0.0000
vn 0.0000 -1.0000 0.0000
vn 0.0000 -1.0000 0.0000
vn 0.0000 -1.0000 -0.0000
vn 0.0000 -1.0000 -0.0000
vn -0.0000 -1.0000 -0.0000
vn -0.0000 -1.0000 -0.0000
vn -0.0000 -1.0000 0.0000
f 61//61 62//62 54//54 53//53
f 62//62 63//63 55//55 54//54
f 63//63 64//64 56//56 55//55
f 64//64 65//65 57//57 56//56
f 65//65 66//66 58//58 57//57
f 66//66 67//67 59//59 58//58
f 67//67 68//68 60//60 59//59
f 68//68 61//61 53//53 60//60
f 69//69 70//70 62//62 61//61
f 70//70 71//71 63//63 62//62
f 71//71 72//72 64//64 63//63
f 72//72 73//73 65//65 64//64
f 73//73 74//74 66//66 65//65
f 74//74 75//75 67//67 66//66
f 75//75 76//76 68//68 67//67
f 76//76 69//69 61//61 68//68
f 77//77 78//78 70//70 69//69
f 78//78 79//79 71//71 70//70
f 79//79 80//80 72//72 71//71
f 80//80 81//81 73//73 72//72
f 81//81 82//82 74//74 73//73
f 82//82 83//83 75//75 74//74
f 83//83 84//84 76//76 75//75
f 84//84 77//77 69//69 76//76
f 85//85 86//86 78//78 77//77
f 86//86 87//87 79//79 78//78
f 87//87 88//88 80//80 79//79
f 88//88 89//89 81//81 80//80
f 89//89 90//90 82//82 81//81
f 90//90 91//91 83//83 82//82
f 91//91 92//92 84//84 83//83
f 92//92 85//85 77//77 84//84
f 93//93 94//94 86//86 85//85
f 94//94 95//95 87//87 86//86
f 95//95 96//96 88//88 87//87
f 96//96 97//97 89//89 88//88
f 97//97 98//98 90//90 89//89
f 98//98 99//99 91//91 90//90
f 99//99 100//100 92//92 91//91
f 100//100 93//93 85//85 92//92
f 101//101 102//102 94//94 93//93
f 102//102 103//103 95//95 94//94
f 103//103 104//104 96//96 95//95
f 104//104 105//105 97//97 96//96
f 105//105 106//106 98//98 97//97
f 106//106 107//107 99//99 98//98
f 107//107 108//108 100//100 99//99
f 108//108 101//101 93//93 100//100
