# generated by generate_bob.py / generate_saucer.py
mtllib bob.mtl
o bob_eyes
g part0
usemtl eye
v 0.06116 1.26472 0.16784
v 0.06116 1.26472 0.16784
v 0.06116 1.26472 0.16784
v 0.06116 1.26472 0.16784
v 0.06116 1.26472 0.16784
v 0.06116 1.26472 0.16784
v 0.06116 1.26472 0.16784
v 0.06116 1.26472 0.16784
v 0.06116 1.26472 0.16784
v 0.06116 1.26472 0.16784
v 0.06116 1.26472 0.16784
v 0.06116 1.26472 0.16784
v 0.06116 1.26472 0.16784
v 0.06116 1.26472 0.16784
v 0.06610 1.26326 0.17748
v 0.07226 1.26615 0.17356
v 0.07632 1.26846 0.16845
v 0.07749 1.26974 0.16318
v 0.07553 1.26974 0.15879
v 0.07083 1.26846 0.15614
v 0.06431 1.26615 0.15576
v 0.05728 1.26326 0.15773
v 0.05113 1.26038 0.16165
v 0.04706 1.25807 0.16675
v 0.04589 1.25678 0.17202
v 0.04786 1.25678 0.17642
v 0.05256 1.25807 0.17907
v 0.05907 1.26038 0.17945
v 0.07162 1.25904 0.18570
v 0.08333 1.26453 0.17824
v 0.09106 1.26893 0.16853
v 0.09328 1.27137 0.15851
v 0.08955 1.27137 0.15015
v 0.08060 1.26893 0.14511
v 0.06822 1.26453 0.14439
v 0.05484 1.25904 0.14813
v 0.04313 1.25356 0.15559
v 0.03540 1.24916 0.16530
v 0.03318 1.24671 0.17532
v 0.03692 1.24671 0.18368
v 0.04586 1.24916 0.18872
v 0.05825 1.25356 0.18944
v 0.07718 1.25247 0.19170
v 0.09330 1.26002 0.18143
v 0.10394 1.26607 0.16807
v 0.10699 1.26944 0.15428
v 0.10185 1.26944 0.14277
v 0.08954 1.26607 0.13583
v 0.07249 1.26002 0.13484
v 0.05408 1.25247 0.13999
v 0.03796 1.24492 0.15026
v 0.02732 1.23886 0.16362
v 0.02427 1.23550 0.17741
v 0.02941 1.23550 0.18892
v 0.04172 1.23886 0.19586
v 0.05877 1.24492 0.19685
v 0.08222 1.24418 0.19489
v 0.10117 1.25306 0.18282
v 0.11368 1.26018 0.16711
v 0.11727 1.26413 0.15089
v 0.11123 1.26413 0.13737
v 0.09676 1.26018 0.12921
v 0.07672 1.25306 0.12805
v 0.05508 1.24418 0.13410
v 0.03613 1.23531 0.14617
v 0.02362 1.22819 0.16188
v 0.02003 1.22424 0.17810
v 0.02607 1.22424 0.19162
v 0.04054 1.22819 0.19978
v 0.06059 1.23531 0.20094
v 0.08627 1.23500 0.19496
v 0.10620 1.24433 0.18226
v 0.11935 1.25182 0.16575
v 0.12312 1.25597 0.14870
v 0.11677 1.25597 0.13448
v 0.10155 1.25182 0.12590
v 0.08048 1.24433 0.12468
v 0.05773 1.23500 0.13104
v 0.03780 1.22567 0.14374
v 0.02465 1.21818 0.16025
v 0.02088 1.21403 0.17730
v 0.02723 1.21403 0.19152
v 0.04245 1.21818 0.20010
v 0.06352 1.22567 0.20132
v 0.08892 1.22582 0.19190
v 0.10787 1.23469 0.17983
v 0.12038 1.24181 0.16412
v 0.12397 1.24576 0.14790
v 0.11793 1.24576 0.13438
v 0.10346 1.24181 0.12622
v 0.08341 1.23469 0.12506
v 0.06178 1.22582 0.13111
v 0.04283 1.21694 0.14318
v 0.03032 1.20982 0.15889
v 0.02673 1.20587 0.17511
v 0.03277 1.20587 0.18863
v 0.04724 1.20982 0.19679
v 0.06728 1.21694 0.19795
v 0.08992 1.21753 0.18601
v 0.10604 1.22508 0.17574
v 0.11668 1.23114 0.16238
v 0.11973 1.23450 0.14859
v 0.11459 1.23450 0.13708
v 0.10228 1.23114 0.13014
v 0.08523 1.22508 0.12915
v 0.06682 1.21753 0.13430
v 0.05070 1.20998 0.14457
v 0.04006 1.20393 0.15793
v 0.03701 1.20056 0.17172
v 0.04215 1.20056 0.18323
v 0.05446 1.20393 0.19017
v 0.07151 1.20998 0.19116
v 0.08916 1.21096 0.17787
v 0.10087 1.21644 0.17041
v 0.10860 1.22084 0.16070
v 0.11082 1.22329 0.15068
v 0.10708 1.22329 0.14232
v 0.09814 1.22084 0.13728
v 0.08575 1.21644 0.13656
v 0.07238 1.21096 0.14030
v 0.06067 1.20547 0.14776
v 0.05294 1.20107 0.15747
v 0.05072 1.19863 0.16749
v 0.05445 1.19863 0.17585
v 0.06340 1.20107 0.18089
v 0.07578 1.20547 0.18161
v 0.08672 1.20674 0.16827
v 0.09287 1.20962 0.16435
v 0.09694 1.21193 0.15925
v 0.09811 1.21322 0.15398
v 0.09614 1.21322 0.14958
v 0.09144 1.21193 0.14693
v 0.08493 1.20962 0.14655
v 0.07790 1.20674 0.14852
v 0.07174 1.20385 0.15244
v 0.06768 1.20154 0.15755
v 0.06651 1.20026 0.16282
v 0.06847 1.20026 0.16721
v 0.07317 1.20154 0.16986
v 0.07969 1.20385 0.17024
v 0.08284 1.20528 0.15816
v 0.08284 1.20528 0.15816
v 0.08284 1.20528 0.15816
v 0.08284 1.20528 0.15816
v 0.08284 1.20528 0.15816
v 0.08284 1.20528 0.15816
v 0.08284 1.20528 0.15816
v 0.08284 1.20528 0.15816
v 0.08284 1.20528 0.15816
v 0.08284 1.20528 0.15816
v 0.08284 1.20528 0.15816
v 0.08284 1.20528 0.15816
v 0.08284 1.20528 0.15816
v 0.08284 1.20528 0.15816
vn -0.3387 0.9287 0.1512
vn -0.3387 0.9287 0.1512
vn -0.3387 0.9287 0.1512
vn -0.3387 0.9287 0.1512
vn -0.3387 0.9287 0.1512
vn -0.3387 0.9287 0.1512
vn -0.3387 0.9287 0.1512
vn -0.3387 0.9287 0.1512
vn -0.3387 0.9287 0.1512
vn -0.3387 0.9287 0.1512
vn -0.3387 0.9287 0.1512
vn -0.3387 0.9287 0.1512
vn -0.3387 0.9287 0.1512
vn -0.3387 0.9287 0.1512
vn -0.2085 0.8902 0.4050
vn -0.1576 0.9224 0.3527
vn -0.1406 0.9552 0.2604
vn -0.1607 0.9766 0.1430
vn -0.2137 0.9766 0.0243
vn -0.2877 0.9552 -0.0691
vn -0.3678 0.9224 -0.1181
vn -0.4408 0.8902 -0.1150
vn -0.4949 0.8668 -0.0613
vn -0.5192 0.8539 0.0343
vn -0.5051 0.8491 0.1544
vn -0.4521 0.8491 0.2731
vn -0.3721 0.8539 0.3638
vn -0.2847 0.8668 0.4095
vn -0.0565 0.7736 0.6312
vn 0.0448 0.8429 0.5362
vn 0.0851 0.9273 0.3645
vn 0.0489 0.9906 0.1275
vn -0.0624 0.9906 -0.1215
vn -0.2146 0.9273 -0.3067
vn -0.3694 0.8429 -0.3913
vn -0.5077 0.7736 -0.3792
vn -0.6197 0.7334 -0.2795
vn -0.6863 0.7210 -0.0961
vn -0.6739 0.7231 0.1516
vn -0.5627 0.7231 0.4006
vn -0.3865 0.7210 0.5751
vn -0.2055 0.7334 0.6480
vn 0.1085 0.5778 0.8090
vn 0.2605 0.6792 0.6862
vn 0.3455 0.8189 0.4582
vn 0.3162 0.9435 0.0993
vn 0.1371 0.9435 -0.3017
vn -0.1106 0.8189 -0.5631
vn -0.3371 0.6792 -0.6520
vn -0.5299 0.5778 -0.6208
vn -0.6983 0.5212 -0.4907
vn -0.8283 0.5050 -0.2426
vn -0.8473 0.5128 0.1379
vn -0.6683 0.5128 0.5389
vn -0.3722 0.5050 0.7787
vn -0.1007 0.5212 0.8475
vn 0.2708 0.3110 0.9110
vn 0.4675 0.4257 0.7747
vn 0.6217 0.5880 0.5174
vn 0.6495 0.7589 0.0473
vn 0.3983 0.7589 -0.5152
vn 0.0296 0.5880 -0.8083
vn -0.2649 0.4257 -0.8652
vn -0.4976 0.3110 -0.8097
vn -0.7074 0.2321 -0.6676
vn -0.9020 0.1805 -0.3923
vn -0.9827 0.1548 0.1015
vn -0.7315 0.1548 0.6640
vn -0.3099 0.1805 0.9335
vn 0.0249 0.2321 0.9724
vn 0.4078 0.0000 0.9131
vn 0.6282 0.1035 0.7711
vn 0.8368 0.2238 0.4996
vn 0.9374 0.3469 -0.0312
vn 0.6489 0.3469 -0.6772
vn 0.1865 0.2238 -0.9566
vn -0.1549 0.1035 -0.9825
vn -0.4078 0.0000 -0.9131
vn -0.6282 -0.1035 -0.7711
vn -0.8368 -0.2238 -0.4996
vn -0.9374 -0.3469 0.0312
vn -0.6489 -0.3469 0.6772
vn -0.1865 -0.2238 0.9566
vn 0.1549 -0.1035 0.9825
vn 0.4976 -0.3110 0.8097
vn 0.7074 -0.2321 0.6676
vn 0.9020 -0.1805 0.3923
vn 0.9827 -0.1548 -0.1015
vn 0.7315 -0.1548 -0.6640
vn 0.3099 -0.1805 -0.9335
vn -0.0249 -0.2321 -0.9724
vn -0.2708 -0.3110 -0.9110
vn -0.4675 -0.4257 -0.7747
vn -0.6217 -0.5880 -0.5174
vn -0.6495 -0.7589 -0.0473
vn -0.3983 -0.7589 0.5152
vn -0.0296 -0.5880 0.8083
vn 0.2649 -0.4257 0.8652
vn 0.5299 -0.5778 0.6208
vn 0.6983 -0.5212 0.4907
vn 0.8283 -0.5050 0.2426
vn 0.8473 -0.5128 -0.1379
vn 0.6683 -0.5128 -0.5389
vn 0.3722 -0.5050 -0.7787
vn 0.1007 -0.5212 -0.8475
vn -0.1085 -0.5778 -0.8090
vn -0.2605 -0.6792 -0.6862
vn -0.3455 -0.8189 -0.4582
vn -0.3162 -0.9435 -0.0993
vn -0.1371 -0.9435 0.3017
vn 0.1106 -0.8189 0.5631
vn 0.3371 -0.6792 0.6520
vn 0.5077 -0.7736 0.3792
vn 0.6197 -0.7334 0.2795
vn 0.6863 -0.7210 0.0961
vn 0.6739 -0.7231 -0.1516
vn 0.5627 -0.7231 -0.4006
vn 0.3865 -0.7210 -0.5751
vn 0.2055 -0.7334 -0.6480
vn 0.0565 -0.7736 -0.6312
vn -0.0448 -0.8429 -0.5362
vn -0.0851 -0.9273 -0.3645
vn -0.0489 -0.9906 -0.1275
vn 0.0624 -0.9906 0.1215
vn 0.2146 -0.9273 0.3067
vn 0.3694 -0.8429 0.3913
vn 0.4408 -0.8902 0.1150
vn 0.4949 -0.8668 0.0613
vn 0.5192 -0.8539 -0.0343
vn 0.5051 -0.8491 -0.1544
vn 0.4521 -0.8491 -0.2731
vn 0.3721 -0.8539 -0.3638
vn 0.2847 -0.8668 -0.4095
vn 0.2085 -0.8902 -0.4050
vn 0.1576 -0.9224 -0.3527
vn 0.1406 -0.9552 -0.2604
vn 0.1607 -0.9766 -0.1430
vn 0.2137 -0.9766 -0.0243
vn 0.2877 -0.9552 0.0691
vn 0.3678 -0.9224 0.1181
vn 0.3387 -0.9287 -0.1512
vn 0.3387 -0.9287 -0.1512
vn 0.3387 -0.9287 -0.1512
vn 0.3387 -0.9287 -0.1512
vn 0.3387 -0.9287 -0.1512
vn 0.3387 -0.9287 -0.1512
vn 0.3387 -0.9287 -0.1512
vn 0.3387 -0.9287 -0.1512
vn 0.3387 -0.9287 -0.1512
vn 0.3387 -0.9287 -0.1512
vn 0.3387 -0.9287 -0.1512
vn 0.3387 -0.9287 -0.1512
vn 0.3387 -0.9287 -0.1512
vn 0.3387 -0.9287 -0.1512
f 15//15 16//16 2//2 1//1
f 16//16 17//17 3//3 2//2
f 17//17 18//18 4//4 3//3
f 18//18 19//19 5//5 4//4
f 19//19 20//20 6//6 5//5
f 20//20 21//21 7//7 6//6
f 21//21 22//22 8//8 7//7
f 22//22 23//23 9//9 8//8
f 23//23 24//24 10//10 9//9
f 24//24 25//25 11//11 10//10
f 25//25 26//26 12//12 11//11
f 26//26 27//27 13//13 12//12
f 27//27 28//28 14//14 13//13
f 28//28 15//15 1//1 14//14
f 29//29 30//30 16//16 15//15
f 30//30 31//31 17//17 16//16
f 31//31 32//32 18//18 17//17
f 32//32 33//33 19//19 18//18
f 33//33 34//34 20//20 19//19
f 34//34 35//35 21//21 20//20
f 35//35 36//36 22//22 21//21
f 36//36 37//37 23//23 22//22
f 37//37 38//38 24//24 23//23
f 38//38 39//39 25//25 24//24
f 39//39 40//40 26//26 25//25
f 40//40 41//41 27//27 26//26
f 41//41 42//42 28//28 27//27
f 42//42 29//29 15//15 28//28
f 43//43 44//44 30//30 29//29
f 44//44 45//45 31//31 30//30
f 45//45 46//46 32//32 31//31
f 46//46 47//47 33//33 32//32
f 47//47 48//48 34//34 33//33
f 48//48 49//49 35//35 34//34
f 49//49 50//50 36//36 35//35
f 50//50 51//51 37//37 36//36
f 51//51 52//52 38//38 37//37
f 52//52 53//53 39//39 38//38
f 53//53 54//54 40//40 39//39
f 54//54 55//55 41//41 40//40
f 55//55 56//56 42//42 41//41
f 56//56 43//43 29//29 42//42
f 57//57 58//58 44//44 43//43
f 58//58 59//59 45//45 44//44
f 59//59 60//60 46//46 45//45
f 60//60 61//61 47//47 46//46
f 61//61 62//62 48//48 47//47
f 62//62 63//63 49//49 48//48
f 63//63 64//64 50//50 49//49
f 64//64 65//65 51//51 50//50
f 65//65 66//66 52//52 51//51
f 66//66 67//67 53//53 52//52
f 67//67 68//68 54//54 53//53
f 68//68 69//69 55//55 54//54
f 69//69 70//70 56//56 55//55
f 70//70 57//57 43//43 56//56
f 71//71 72//72 58//58 57//57
f 72//72 73//73 59//59 58//58
f 73//73 74//74 60//60 59//59
f 74//74 75//75 61//61 60//60
f 75//75 76//76 62//62 61//61
f 76//76 77//77 63//63 62//62
f 77//77 78//78 64//64 63//63
f 78//78 79//79 65//65 64//64
f 79//79 80//80 66//66 65//65
f 80//80 81//81 67//67 66//66
f 81//81 82//82 68//68 67//67
f 82//82 83//83 69//69 68//68
f 83//83 84//84 70//70 69//69
f 84//84 71//71 57//57 70//70
f 85//85 86//86 72//72 71//71
f 86//86 87//87 73//73 72//72
f 87//87 88//88 74//74 73//73
f 88//88 89//89 75//75 74//74
f 89//89 90//90 76//76 75//75
f 90//90 91//91 77//77 76//76
f 91//91 92//92 78//78 77//77
f 92//92 93//93 79//79 78//78
f 93//93 94//94 80//80 79//79
f 94//94 95//95 81//81 80//80
f 95//95 96//96 82//82 81//81
f 96//96 97//97 83//83 82//82
f 97//97 98//98 84//84 83//83
f 98//98 85//85 71//71 84//84
f 99//99 100//100 86//86 85//85
f 100//100 101//101 87//87 86//86
f 101//101 102//102 88//88 87//87
f 102//102 103//103 89//89 88//88
f 103//103 104//104 90//90 89//89
f 104//104 105//105 91//91 90//90
f 105//105 106//106 92//92 91//91
f 106//106 107//107 93//93 92//92
f 107//107 108//108 94//94 93//93
f 108//108 109//109 95//95 94//94
f 109//109 110//110 96//96 95//95
f 110//110 111//111 97//97 96//96
f 111//111 112//112 98//98 97//97
f 112//112 99//99 85//85 98//98
f 113//113 114//114 100//100 99//99
f 114//114 115//115 101//101 100//100
f 115//115 116//116 102//102 101//101
f 116//116 117//117 103//103 102//102
f 117//117 118//118 104//104 103//103
f 118//118 119//119 105//105 104//104
f 119//119 120//120 106//106 105//105
f 120//120 121//121 107//107 106//106
f 121//121 122//122 108//108 107//107
f 122//122 123//123 109//109 108//108
f 123//123 124//124 110//110 109//109
f 124//124 125//125 111//111 110//110
f 125//125 126//126 112//112 111//111
f 126//126 113//113 99//99 112//112
f 127//127 128//128 114//114 113//113
f 128//128 129//129 115//115 114//114
f 129//129 130//130 116//116 115//115
f 130//130 131//131 117//117 116//116
f 131//131 132//132 118//118 117//117
f 132//132 133//133 119//119 118//118
f 133//133 134//134 120//120 119//119
f 134//134 135//135 121//121 120//120
f 135//135 136//136 122//122 121//121
f 136//136 137//137 123//123 122//122
f 137//137 138//138 124//124 123//123
f 138//138 139//139 125//125 124//124
f 139//139 140//140 126//126 125//125
f 140//140 127//127 113//113 126//126
f 141//141 142//142 128//128 127//127
f 142//142 143//143 129//129 128//128
f 143//143 144//144 130//130 129//129
f 144//144 145//145 131//131 130//130
f 145//145 146//146 132//132 131//131
f 146//146 147//147 133//133 132//132
f 147//147 148//148 134//134 133//133
f 148//148 149//149 135//135 134//134
f 149//149 150//150 136//136 135//135
f 150//150 151//151 137//137 136//136
f 151//151 152//152 138//138 137//137
f 152//152 153//153 139//139 138//138
f 153//153 154//154 140//140 139//139
f 154//154 141//141 127//127 140//140
g part1
usemtl eye
v -0.06116 1.26472 0.16784
v -0.06116 1.26472 0.16784
v -0.06116 1.26472 0.16784
v -0.06116 1.26472 0.16784
v -0.06116 1.26472 0.16784
v -0.06116 1.26472 0.16784
v -0.06116 1.26472 0.16784
v -0.06116 1.26472 0.16784
v -0.06116 1.26472 0.16784
v -0.06116 1.26472 0.16784
v -0.06116 1.26472 0.16784
v -0.06116 1.26472 0.16784
v -0.06116 1.26472 0.16784
v -0.06116 1.26472 0.16784
v -0.06610 1.26326 0.17748
v -0.05907 1.26038 0.17945
v -0.05256 1.25807 0.17907
v -0.04786 1.25678 0.17642
v -0.04589 1.25678 0.17202
v -0.04706 1.25807 0.16675
v -0.05113 1.26038 0.16165
v -0.05728 1.26326 0.15773
v -0.06431 1.26615 0.15576
v -0.07083 1.26846 0.15614
v -0.07553 1.26974 0.15879
v -0.07749 1.26974 0.16318
v -0.07632 1.26846 0.16845
v -0.07226 1.26615 0.17356
v -0.07162 1.25904 0.18570
v -0.05825 1.25356 0.18944
v -0.04586 1.24916 0.18872
v -0.03692 1.24671 0.18368
v -0.03318 1.24671 0.17532
v -0.03540 1.24916 0.16530
v -0.04313 1.25356 0.15559
v -0.05484 1.25904 0.14813
v -0.06822 1.26453 0.14439
v -0.08060 1.26893 0.14511
v -0.08955 1.27137 0.15015
v -0.09328 1.27137 0.15851
v -0.09106 1.26893 0.16853
v -0.08333 1.26453 0.17824
v -0.07718 1.25247 0.19170
v -0.05877 1.24492 0.19685
v -0.04172 1.23886 0.19586
v -0.02941 1.23550 0.18892
v -0.02427 1.23550 0.17741
v -0.02732 1.23886 0.16362
v -0.03796 1.24492 0.15026
v -0.05408 1.25247 0.13999
v -0.07249 1.26002 0.13484
v -0.08954 1.26607 0.13583
v -0.10185 1.26944 0.14277
v -0.10699 1.26944 0.15428
v -0.10394 1.26607 0.16807
v -0.09330 1.26002 0.18143
v -0.08222 1.24418 0.19489
v -0.06059 1.23531 0.20094
v -0.04054 1.22819 0.19978
v -0.02607 1.22424 0.19162
v -0.02003 1.22424 0.17810
v -0.02362 1.22819 0.16188
v -0.03613 1.23531 0.14617
v -0.05508 1.24418 0.13410
v -0.07672 1.25306 0.12805
v -0.09676 1.26018 0.12921
v -0.11123 1.26413 0.13737
v -0.11727 1.26413 0.15089
v -0.11368 1.26018 0.16711
v -0.10117 1.25306 0.18282
v -0.08627 1.23500 0.19496
v -0.06352 1.22567 0.20132
v -0.04245 1.21818 0.20010
v -0.02723 1.21403 0.19152
v -0.02088 1.21403 0.17730
v -0.02465 1.21818 0.16025
v -0.03780 1.22567 0.14374
v -0.05773 1.23500 0.13104
v -0.08048 1.24433 0.12468
v -0.10155 1.25182 0.12590
v -0.11677 1.25597 0.13448
v -0.12312 1.25597 0.14870
v -0.11935 1.25182 0.16575
v -0.10620 1.24433 0.18226
v -0.08892 1.22582 0.19190
v -0.06728 1.21694 0.19795
v -0.04724 1.20982 0.19679
v -0.03277 1.20587 0.18863
v -0.02673 1.20587 0.17511
v -0.03032 1.20982 0.15889
v -0.04283 1.21694 0.14318
v -0.06178 1.22582 0.13111
v -0.08341 1.23469 0.12506
v -0.10346 1.24181 0.12622
v -0.11793 1.24576 0.13438
v -0.12397 1.24576 0.14790
v -0.12038 1.24181 0.16412
v -0.10787 1.23469 0.17983
v -0.08992 1.21753 0.18601
v -0.07151 1.20998 0.19116
v -0.05446 1.20393 0.19017
v -0.04215 1.20056 0.18323
v -0.03701 1.20056 0.17172
v -0.04006 1.20393 0.15793
v -0.05070 1.20998 0.14457
v -0.06682 1.21753 0.13430
v -0.08523 1.22508 0.12915
v -0.10228 1.23114 0.13014
v -0.11459 1.23450 0.13708
v -0.11973 1.23450 0.14859
v -0.11668 1.23114 0.16238
v -0.10604 1.22508 0.17574
v -0.08916 1.21096 0.17787
v -0.07578 1.20547 0.18161
v -0.06340 1.20107 0.18089
v -0.05445 1.19863 0.17585
v -0.05072 1.19863 0.16749
v -0.05294 1.20107 0.15747
v -0.06067 1.20547 0.14776
v -0.07238 1.21096 0.14030
v -0.08575 1.21644 0.13656
v -0.09814 1.22084 0.13728
v -0.10708 1.22329 0.14232
v -0.11082 1.22329 0.15068
v -0.10860 1.22084 0.16070
v -0.10087 1.21644 0.17041
v -0.08672 1.20674 0.16827
v -0.07969 1.20385 0.17024
v -0.07317 1.20154 0.16986
v -0.06847 1.20026 0.16721
v -0.06651 1.20026 0.16282
v -0.06768 1.20154 0.15755
v -0.07174 1.20385 0.15244
v -0.07790 1.20674 0.14852
v -0.08493 1.20962 0.14655
v -0.09144 1.21193 0.14693
v -0.09614 1.21322 0.14958
v -0.09811 1.21322 0.15398
v -0.09694 1.21193 0.15925
v -0.09287 1.20962 0.16435
v -0.08284 1.20528 0.15816
v -0.08284 1.20528 0.15816
v -0.08284 1.20528 0.15816
v -0.08284 1.20528 0.15816
v -0.08284 1.20528 0.15816
v -0.08284 1.20528 0.15816
v -0.08284 1.20528 0.15816
v -0.08284 1.20528 0.15816
v -0.08284 1.20528 0.15816
v -0.08284 1.20528 0.15816
v -0.08284 1.20528 0.15816
v -0.08284 1.20528 0.15816
v -0.08284 1.20528 0.15816
v -0.08284 1.20528 0.15816
vn 0.3387 0.9287 0.1512
vn 0.3387 0.9287 0.1512
vn 0.3387 0.9287 0.1512
vn 0.3387 0.9287 0.1512
vn 0.3387 0.9287 0.1512
vn 0.3387 0.9287 0.1512
vn 0.3387 0.9287 0.1512
vn 0.3387 0.9287 0.1512
vn 0.3387 0.9287 0.1512
vn 0.3387 0.9287 0.1512
vn 0.3387 0.9287 0.1512
vn 0.3387 0.9287 0.1512
vn 0.3387 0.9287 0.1512
vn 0.3387 0.9287 0.1512
vn 0.2085 0.8902 0.4050
vn 0.2847 0.8668 0.4095
vn 0.3721 0.8539 0.3638
vn 0.4521 0.8491 0.2731
vn 0.5051 0.8491 0.1544
vn 0.5192 0.8539 0.0343
vn 0.4949 0.8668 -0.0613
vn 0.4408 0.8902 -0.1150
vn 0.3678 0.9224 -0.1181
vn 0.2877 0.9552 -0.0691
vn 0.2137 0.9766 0.0243
vn 0.1607 0.9766 0.1430
vn 0.1406 0.9552 0.2604
vn 0.1576 0.9224 0.3527
vn 0.0565 0.7736 0.6312
vn 0.2055 0.7334 0.6480
vn 0.3865 0.7210 0.5751
vn 0.5627 0.7231 0.4006
vn 0.6739 0.7231 0.1516
vn 0.6863 0.7210 -0.0961
vn 0.6197 0.7334 -0.2795
vn 0.5077 0.7736 -0.3792
vn 0.3694 0.8429 -0.3913
vn 0.2146 0.9273 -0.3067
vn 0.0624 0.9906 -0.1215
vn -0.0489 0.9906 0.1275
vn -0.0851 0.9273 0.3645
vn -0.0448 0.8429 0.5362
vn -0.1085 0.5778 0.8090
vn 0.1007 0.5212 0.8475
vn 0.3722 0.5050 0.7787
vn 0.6683 0.5128 0.5389
vn 0.8473 0.5128 0.1379
vn 0.8283 0.5050 -0.2426
vn 0.6983 0.5212 -0.4907
vn 0.5299 0.5778 -0.6208
vn 0.3371 0.6792 -0.6520
vn 0.1106 0.8189 -0.5631
vn -0.1371 0.9435 -0.3017
vn -0.3162 0.9435 0.0993
vn -0.3455 0.8189 0.4582
vn -0.2605 0.6792 0.6862
vn -0.2708 0.3110 0.9110
vn -0.0249 0.2321 0.9724
vn 0.3099 0.1805 0.9335
vn 0.7315 0.1548 0.6640
vn 0.9827 0.1548 0.1015
vn 0.9020 0.1805 -0.3923
vn 0.7074 0.2321 -0.6676
vn 0.4976 0.3110 -0.8097
vn 0.2649 0.4257 -0.8652
vn -0.0296 0.5880 -0.8083
vn -0.3983 0.7589 -0.5152
vn -0.6495 0.7589 0.0473
vn -0.6217 0.5880 0.5174
vn -0.4675 0.4257 0.7747
vn -0.4078 0.0000 0.9131
vn -0.1549 -0.1035 0.9825
vn 0.1865 -0.2238 0.9566
vn 0.6489 -0.3469 0.6772
vn 0.9374 -0.3469 0.0312
vn 0.8368 -0.2238 -0.4996
vn 0.6282 -0.1035 -0.7711
vn 0.4078 0.0000 -0.9131
vn 0.1549 0.1035 -0.9825
vn -0.1865 0.2238 -0.9566
vn -0.6489 0.3469 -0.6772
vn -0.9374 0.3469 -0.0312
vn -0.8368 0.2238 0.4996
vn -0.6282 0.1035 0.7711
vn -0.4976 -0.3110 0.8097
vn -0.2649 -0.4257 0.8652
vn 0.0296 -0.5880 0.8083
vn 0.3983 -0.7589 0.5152
vn 0.6495 -0.7589 -0.0473
vn 0.6217 -0.5880 -0.5174
vn 0.4675 -0.4257 -0.7747
vn 0.2708 -0.3110 -0.9110
vn 0.0249 -0.2321 -0.9724
vn -0.3099 -0.1805 -0.9335
vn -0.7315 -0.1548 -0.6640
vn -0.9827 -0.1548 -0.1015
vn -0.9020 -0.1805 0.3923
vn -0.7074 -0.2321 0.6676
vn -0.5299 -0.5778 0.6208
vn -0.3371 -0.6792 0.6520
vn -0.1106 -0.8189 0.5631
vn 0.1371 -0.9435 0.3017
vn 0.3162 -0.9435 -0.0993
vn 0.3455 -0.8189 -0.4582
vn 0.2605 -0.6792 -0.6862
vn 0.1085 -0.5778 -0.8090
vn -0.1007 -0.5212 -0.8475
vn -0.3722 -0.5050 -0.7787
vn -0.6683 -0.5128 -0.5389
vn -0.8473 -0.5128 -0.1379
vn -0.8283 -0.5050 0.2426
vn -0.6983 -0.5212 0.4907
vn -0.5077 -0.7736 0.3792
vn -0.3694 -0.8429 0.3913
vn -0.2146 -0.9273 0.3067
vn -0.0624 -0.9906 0.1215
vn 0.0489 -0.9906 -0.1275
vn 0.0851 -0.9273 -0.3645
vn 0.0448 -0.8429 -0.5362
vn -0.0565 -0.7736 -0.6312
vn -0.2055 -0.7334 -0.6480
vn -0.3865 -0.7210 -0.5751
vn -0.5627 -0.7231 -0.4006
vn -0.6739 -0.7231 -0.1516
vn -0.6863 -0.7210 0.0961
vn -0.6197 -0.7334 0.2795
vn -0.4408 -0.8902 0.1150
vn -0.3678 -0.9224 0.1181
vn -0.2877 -0.9552 0.0691
vn -0.2137 -0.9766 -0.0243
vn -0.1607 -0.9766 -0.1430
vn -0.1406 -0.9552 -0.2604
vn -0.1576 -0.9224 -0.3527
vn -0.2085 -0.8902 -0.4050
vn -0.2847 -0.8668 -0.4095
vn -0.3721 -0.8539 -0.3638
vn -0.4521 -0.8491 -0.2731
vn -0.5051 -0.8491 -0.1544
vn -0.5192 -0.8539 -0.0343
vn -0.4949 -0.8668 0.0613
vn -0.3387 -0.9287 -0.1512
vn -0.3387 -0.9287 -0.1512
vn -0.3387 -0.9287 -0.1512
vn -0.3387 -0.9287 -0.1512
vn -0.3387 -0.9287 -0.1512
vn -0.3387 -0.9287 -0.1512
vn -0.3387 -0.9287 -0.1512
vn -0.3387 -0.9287 -0.1512
vn -0.3387 -0.9287 -0.1512
vn -0.3387 -0.9287 -0.1512
vn -0.3387 -0.9287 -0.1512
vn -0.3387 -0.9287 -0.1512
vn -0.3387 -0.9287 -0.1512
vn -0.3387 -0.9287 -0.1512
f 169//169 170//170 156//156 155//155
f 170//170 171//171 157//157 156//156
f 171//171 172//172 158//158 157//157
f 172//172 173//173 159//159 158//158
f 173//173 174//174 160//160 159//159
f 174//174 175//175 161//161 160//160
f 175//175 176//176 162//162 161//161
f 176//176 177//177 163//163 162//162
f 177//177 178//178 164//164 163//163
f 178//178 179//179 165//165 164//164
f 179//179 180//180 166//166 165//165
f 180//180 181//181 167//167 166//166
f 181//181 182//182 168//168 167//167
f 182//182 169//169 155//155 168//168
f 183//183 184//184 170//170 169//169
f 184//184 185//185 171//171 170//170
f 185//185 186//186 172//172 171//171
f 186//186 187//187 173//173 172//172
f 187//187 188//188 174//174 173//173
f 188//188 189//189 175//175 174//174
f 189//189 190//190 176//176 175//175
f 190//190 191//191 177//177 176//176
f 191//191 192//192 178//178 177//177
f 192//192 193//193 179//179 178//178
f 193//193 194//194 180//180 179//179
f 194//194 195//195 181//181 180//180
f 195//195 196//196 182//182 181//181
f 196//196 183//183 169//169 182//182
f 197//197 198//198 184//184 183//183
f 198//198 199//199 185//185 184//184
f 199//199 200//200 186//186 185//185
f 200//200 201//201 187//187 186//186
f 201//201 202//202 188//188 187//187
f 202//202 203//203 189//189 188//188
f 203//203 204//204 190//190 189//189
f 204//204 205//205 191//191 190//190
f 205//205 206//206 192//192 191//191
f 206//206 207//207 193//193 192//192
f 207//207 208//208 194//194 193//193
f 208//208 209//209 195//195 194//194
f 209//209 210//210 196//196 195//195
f 210//210 197//197 183//183 196//196
f 211//211 212//212 198//198 197//197
f 212//212 213//213 199//199 198//198
f 213//213 214//214 200//200 199//199
f 214//214 215//215 201//201 200//200
f 215//215 216//216 202//202 201//201
f 216//216 217//217 203//203 202//202
f 217//217 218//218 204//204 203//203
f 218//218 219//219 205//205 204//204
f 219//219 220//220 206//206 205//205
f 220//220 221//221 207//207 206//206
f 221//221 222//222 208//208 207//207
f 222//222 223//223 209//209 208//208
f 223//223 224//224 210//210 209//209
f 224//224 211//211 197//197 210//210
f 225//225 226//226 212//212 211//211
f 226//226 227//227 213//213 212//212
f 227//227 228//228 214//214 213//213
f 228//228 229//229 215//215 214//214
f 229//229 230//230 216//216 215//215
f 230//230 231//231 217//217 216//216
f 231//231 232//232 218//218 217//217
f 232//232 233//233 219//219 218//218
f 233//233 234//234 220//220 219//219
f 234//234 235//235 221//221 220//220
f 235//235 236//236 222//222 221//221
f 236//236 237//237 223//223 222//222
f 237//237 238//238 224//224 223//223
f 238//238 225//225 211//211 224//224
f 239//239 240//240 226//226 225//225
f 240//240 241//241 227//227 226//226
f 241//241 242//242 228//228 227//227
f 242//242 243//243 229//229 228//228
f 243//243 244//244 230//230 229//229
f 244//244 245//245 231//231 230//230
f 245//245 246//246 232//232 231//231
f 246//246 247//247 233//233 232//232
f 247//247 248//248 234//234 233//233
f 248//248 249//249 235//235 234//234
f 249//249 250//250 236//236 235//235
f 250//250 251//251 237//237 236//236
f 251//251 252//252 238//238 237//237
f 252//252 239//239 225//225 238//238
f 253//253 254//254 240//240 239//239
f 254//254 255//255 241//241 240//240
f 255//255 256//256 242//242 241//241
f 256//256 257//257 243//243 242//242
f 257//257 258//258 244//244 243//243
f 258//258 259//259 245//245 244//244
f 259//259 260//260 246//246 245//245
f 260//260 261//261 247//247 246//246
f 261//261 262//262 248//248 247//247
f 262//262 263//263 249//249 248//248
f 263//263 264//264 250//250 249//249
f 264//264 265//265 251//251 250//250
f 265//265 266//266 252//252 251//251
f 266//266 253//253 239//239 252//252
f 267//267 268//268 254//254 253//253
f 268//268 269//269 255//255 254//254
f 269//269 270//270 256//256 255//255
f 270//270 271//271 257//257 256//256
f 271//271 272//272 258//258 257//257
f 272//272 273//273 259//259 258//258
f 273//273 274//274 260//260 259//259
f 274//274 275//275 261//261 260//260
f 275//275 276//276 262//262 261//261
f 276//276 277//277 263//263 262//262
f 277//277 278//278 264//264 263//263
f 278//278 279//279 265//265 264//264
f 279//279 280//280 266//266 265//265
f 280//280 267//267 253//253 266//266
f 281//281 282//282 268//268 267//267
f 282//282 283//283 269//269 268//268
f 283//283 284//284 270//270 269//269
f 284//284 285//285 271//271 270//270
f 285//285 286//286 272//272 271//271
f 286//286 287//287 273//273 272//272
f 287//287 288//288 274//274 273//273
f 288//288 289//289 275//275 274//274
f 289//289 290//290 276//276 275//275
f 290//290 291//291 277//277 276//276
f 291//291 292//292 278//278 277//277
f 292//292 293//293 279//279 278//278
f 293//293 294//294 280//280 279//279
f 294//294 281//281 267//267 280//280
f 295//295 296//296 282//282 281//281
f 296//296 297//297 283//283 282//282
f 297//297 298//298 284//284 283//283
f 298//298 299//299 285//285 284//284
f 299//299 300//300 286//286 285//285
f 300//300 301//301 287//287 286//286
f 301//301 302//302 288//288 287//287
f 302//302 303//303 289//289 288//288
f 303//303 304//304 290//290 289//289
f 304//304 305//305 291//291 290//290
f 305//305 306//306 292//292 291//291
f 306//306 307//307 293//293 292//292
f 307//307 308//308 294//294 293//293
f 308//308 295//295 281//281 294//294
