# generated by generate_bob.py / generate_saucer.py
mtllib saucer.mtl
o saucer_gun_mount
g part0
usemtl metal_dark
v 0.00000 1.65000 0.09000
v -0.05290 1.65000 0.07281
v -0.08560 1.65000 0.02781
v -0.08560 1.65000 -0.02781
v -0.05290 1.65000 -0.07281
v -0.00000 1.65000 -0.09000
v 0.05290 1.65000 -0.07281
v 0.08560 1.65000 -0.02781
v 0.08560 1.65000 0.02781
v 0.05290 1.65000 0.07281
v 0.00000 1.45000 0.09000
v -0.05290 1.45000 0.07281
v -0.08560 1.45000 0.02781
v -0.08560 1.45000 -0.02781
v -0.05290 1.45000 -0.07281
v -0.00000 1.45000 -0.09000
v 0.05290 1.45000 -0.07281
v 0.08560 1.45000 -0.02781
v 0.08560 1.45000 0.02781
v 0.05290 1.45000 0.07281
v 0.00000 1.65000 0.09000
v -0.05290 1.65000 0.07281
v -0.08560 1.65000 0.02781
v -0.08560 1.65000 -0.02781
v -0.05290 1.65000 -0.07281
v -0.00000 1.65000 -0.09000
v 0.05290 1.65000 -0.07281
v 0.08560 1.65000 -0.02781
v 0.08560 1.65000 0.02781
v 0.05290 1.65000 0.07281
v 0.00000 1.65000 0.00000
v 0.00000 1.45000 0.09000
v -0.05290 1.45000 0.07281
v -0.08560 1.45000 0.02781
v -0.08560 1.45000 -0.02781
v -0.05290 1.45000 -0.07281
v -0.00000 1.45000 -0.09000
v 0.05290 1.45000 -0.07281
v 0.08560 1.45000 -0.02781
v 0.08560 1.45000 0.02781
v 0.05290 1.45000 0.07281
v 0.00000 1.45000 0.00000
vn 0.0000 0.0000 1.0000
vn -0.5878 0.0000 0.8090
vn -0.9511 0.0000 0.3090
vn -0.9511 -0.0000 -0.3090
vn -0.5878 -0.0000 -0.8090
vn -0.0000 -0.0000 -1.0000
vn 0.5878 0.0000 -0.8090
vn 0.9511 0.0000 -0.3090
vn 0.9511 0.0000 0.3090
vn 0.5878 0.0000 0.8090
vn 0.0000 0.0000 1.0000
vn -0.5878 0.0000 0.8090
vn -0.9511 0.0000 0.3090
vn -0.9511 -0.0000 -0.3090
vn -0.5878 -0.0000 -0.8090
vn -0.0000 -0.0000 -1.0000
vn 0.5878 0.0000 -0.8090
vn 0.9511 0.0000 -0.3090
vn 0.9511 0.0000 0.3090
vn 0.5878 0.0000 0.8090
vn -0.0000 1.0000 -0.0000
vn -0.0000 1.0000 -0.0000
vn -0.0000 1.0000 -0.0000
vn -0.0000 1.0000 -0.0000
vn -0.0000 1.0000 -0.0000
vn -0.0000 1.0000 -0.0000
vn -0.0000 1.0000 -0.0000
vn -0.0000 1.0000 -0.0000
vn -0.0000 1.0000 -0.0000
vn -0.0000 1.0000 -0.0000
vn -0.0000 1.0000 -0.0000
vn 0.0000 -1.0000 0.0000
vn 0.0000 -1.0000 0.0000
vn 0.0000 -1.0000 0.0000
vn 0.0000 -1.0000 0.0000
vn 0.0000 -1.0000 0.0000
vn 0.0000 -1.0000 0.0000
vn 0.0000 -1.0000 0.0000
vn 0.0000 -1.0000 0.0000
vn 0.0000 -1.0000 0.0000
vn 0.0000 -1.0000 0.0000
vn 0.0000 -1.0000 0.0000
f 1//1 2//2 12//12 11//11
f 2//2 3//3 13//13 12//12
f 3//3 4//4 14//14 13//13
f 4//4 5//5 15//15 14//14
f 5//5 6//6 16//16 15//15
f 6//6 7//7 17//17 16//16
f 7//7 8//8 18//18 17//17
f 8//8 9//9 19//19 18//18
f 9//9 10//10 20//20 19//19
f 10//10 1//1 11//11 20//20
f 22//22 31//31 21//21
f 23//23 31//31 22//22
f 24//24 31//31 23//23
f 25//25 31//31 24//24
f 26//26 31//31 25//25
f 27//27 31//31 26//26
f 28//28 31//31 27//27
f 29//29 31//31 28//28
f 30//30 31//31 29//29
f 21//21 31//31 30//30
f 33//33 42//42 32//32
f 34//34 42//42 33//33
f 35//35 42//42 34//34
f 36//36 42//42 35//35
f 37//37 42//42 36//36
f 38//38 42//42 37//37
f 39//39 42//42 38//38
f 40//40 42//42 39//39
f 41//41 42//42 40//40
f 32//32 42//42 41//41
g part1
usemtl metal
v 0.00000 1.60000 0.00000
v 0.00000 1.60000 0.00000
v 0.00000 1.60000 0.00000
v 0.00000 1.60000 0.00000
v 0.00000 1.60000 0.00000
v 0.00000 1.60000 0.00000
v 0.00000 1.60000 0.00000
v 0.00000 1.60000 0.00000
v 0.00000 1.60000 0.00000
v 0.00000 1.60000 0.00000
v 0.00000 1.60000 0.00000
v 0.00000 1.60000 0.00000
v 0.00000 1.57722 0.10000
v 0.05000 1.57722 0.08660
v 0.08660 1.57722 0.05000
v 0.10000 1.57722 0.00000
v 0.08660 1.57722 -0.05000
v 0.05000 1.57722 -0.08660
v 0.00000 1.57722 -0.10000
v -0.05000 1.57722 -0.08660
v -0.08660 1.57722 -0.05000
v -0.10000 1.57722 -0.00000
v -0.08660 1.57722 0.05000
v -0.05000 1.57722 0.08660
v 0.00000 1.51500 0.17321
v 0.08660 1.51500 0.15000
v 0.15000 1.51500 0.08660
v 0.17321 1.51500 0.00000
v 0.15000 1.51500 -0.08660
v 0.08660 1.51500 -0.15000
v 0.00000 1.51500 -0.17321
v -0.08660 1.51500 -0.15000
v -0.15000 1.51500 -0.08660
v -0.17321 1.51500 -0.00000
v -0.15000 1.51500 0.08660
v -0.08660 1.51500 0.15000
v 0.00000 1.43000 0.20000
v 0.10000 1.43000 0.17321
v 0.17321 1.43000 0.10000
v 0.20000 1.43000 0.00000
v 0.17321 1.43000 -0.10000
v 0.10000 1.43000 -0.17321
v 0.00000 1.43000 -0.20000
v -0.10000 1.43000 -0.17321
v -0.17321 1.43000 -0.10000
v -0.20000 1.43000 -0.00000
v -0.17321 1.43000 0.10000
v -0.10000 1.43000 0.17321
v 0.00000 1.34500 0.17321
v 0.08660 1.34500 0.15000
v 0.15000 1.34500 0.08660
v 0.17321 1.34500 0.00000
v 0.15000 1.34500 -0.08660
v 0.08660 1.34500 -0.15000
v 0.00000 1.34500 -0.17321
v -0.08660 1.34500 -0.15000
v -0.15000 1.34500 -0.08660
v -0.17321 1.34500 -0.00000
v -0.15000 1.34500 0.08660
v -0.08660 1.34500 0.15000
v 0.00000 1.28278 0.10000
v 0.05000 1.28278 0.08660
v 0.08660 1.28278 0.05000
v 0.10000 1.28278 0.00000
v 0.08660 1.28278 -0.05000
v 0.05000 1.28278 -0.08660
v 0.00000 1.28278 -0.10000
v -0.05000 1.28278 -0.08660
v -0.08660 1.28278 -0.05000
v -0.10000 1.28278 -0.00000
v -0.08660 1.28278 0.05000
v -0.05000 1.28278 0.08660
v 0.00000 1.26000 0.00000
v 0.00000 1.26000 0.00000
v 0.00000 1.26000 0.00000
v 0.00000 1.26000 0.00000
v 0.00000 1.26000 -0.00000
v 0.00000 1.26000 -0.00000
v 0.00000 1.26000 -0.00000
v -0.00000 1.26000 -0.00000
v -0.00000 1.26000 -0.00000
v -0.00000 1.26000 -0.00000
v -0.00000 1.26000 0.00000
v -0.00000 1.26000 0.00000
vn 0.0000 1.0000 0.0000
vn 0.0000 1.0000 0.0000
vn 0.0000 1.0000 0.0000
vn 0.0000 1.0000 0.0000
vn 0.0000 1.0000 -0.0000
vn 0.0000 1.0000 -0.0000
vn 0.0000 1.0000 -0.0000
vn -0.0000 1.0000 -0.0000
vn -0.0000 1.0000 -0.0000
vn -0.0000 1.0000 -0.0000
vn -0.0000 1.0000 0.0000
vn -0.0000 1.0000 0.0000
vn 0.0000 0.8977 0.4406
vn 0.2203 0.8977 0.3815
vn 0.3815 0.8977 0.2203
vn 0.4406 0.8977 0.0000
vn 0.3815 0.8977 -0.2203
vn 0.2203 0.8977 -0.3815
vn 0.0000 0.8977 -0.4406
vn -0.2203 0.8977 -0.3815
vn -0.3815 0.8977 -0.2203
vn -0.4406 0.8977 -0.0000
vn -0.3815 0.8977 0.2203
vn -0.2203 0.8977 0.3815
vn 0.0000 0.5619 0.8272
vn 0.4136 0.5619 0.7164
vn 0.7164 0.5619 0.4136
vn 0.8272 0.5619 0.0000
vn 0.7164 0.5619 -0.4136
vn 0.4136 0.5619 -0.7164
vn 0.0000 0.5619 -0.8272
vn -0.4136 0.5619 -0.7164
vn -0.7164 0.5619 -0.4136
vn -0.8272 0.5619 -0.0000
vn -0.7164 0.5619 0.4136
vn -0.4136 0.5619 0.7164
vn 0.0000 0.0000 1.0000
vn 0.5000 0.0000 0.8660
vn 0.8660 0.0000 0.5000
vn 1.0000 0.0000 0.0000
vn 0.8660 0.0000 -0.5000
vn 0.5000 0.0000 -0.8660
vn 0.0000 0.0000 -1.0000
vn -0.5000 0.0000 -0.8660
vn -0.8660 0.0000 -0.5000
vn -1.0000 0.0000 -0.0000
vn -0.8660 0.0000 0.5000
vn -0.5000 0.0000 0.8660
vn 0.0000 -0.5619 0.8272
vn 0.4136 -0.5619 0.7164
vn 0.7164 -0.5619 0.4136
vn 0.8272 -0.5619 0.0000
vn 0.7164 -0.5619 -0.4136
vn 0.4136 -0.5619 -0.7164
vn 0.0000 -0.5619 -0.8272
vn -0.4136 -0.5619 -0.7164
vn -0.7164 -0.5619 -0.4136
vn -0.8272 -0.5619 -0.0000
vn -0.7164 -0.5619 0.4136
vn -0.4136 -0.5619 0.7164
vn 0.0000 -0.8977 0.4406
vn 0.2203 -0.8977 0.3815
vn 0.3815 -0.8977 0.2203
vn 0.4406 -0.8977 0.0000
vn 0.3815 -0.8977 -0.2203
vn 0.2203 -0.8977 -0.3815
vn 0.0000 -0.8977 -0.4406
vn -0.2203 -0.8977 -0.3815
vn -0.3815 -0.8977 -0.2203
vn -0.4406 -0.8977 -0.0000
vn -0.3815 -0.8977 0.2203
vn -0.2203 -0.8977 0.3815
vn 0.0000 -1.0000 0.0000
vn 0.0000 -1.0000 0.0000
vn 0.0000 -1.0000 0.0000
vn 0.0000 -1.0000 0.0000
vn 0.0000 -1.0000 -0.0000
vn 0.0000 -1.0000 -0.0000
vn 0.0000 -1.0000 -0.0000
vn -0.0000 -1.0000 -0.0000
vn -0.0000 -1.0000 -0.0000
vn -0.0000 -1.0000 -0.0000
vn -0.0000 -1.0000 0.0000
vn -0.0000 -1.0000 0.0000
f 55//55 56//56 44//44 43//43
f 56//56 57//57 45//45 44//44
f 57//57 58//58 46//46 45//45
f 58//58 59//59 47//47 46//46
f 59//59 60//60 48//48 47//47
f 60//60 61//61 49//49 48//48
f 61//61 62//62 50//50 49//49
f 62//62 63//63 51//51 50//50
f 63//63 64//64 52//52 51//51
f 64//64 65//65 53//53 52//52
f 65//65 66//66 54//54 53//53
f 66//66 55//55 43//43 54//54
f 67//67 68//68 56//56 55//55
f 68//68 69//69 57//57 56//56
f 69//69 70//70 58//58 57//57
f 70//70 71//71 59//59 58//58
f 71//71 72//72 60//60 59//59
f 72//72 73//73 61//61 60//60
f 73//73 74//74 62//62 61//61
f 74//74 75//75 63//63 62//62
f 75//75 76//76 64//64 63//63
f 76//76 77//77 65//65 64//64
f 77//77 78//78 66//66 65//65
f 78//78 67//67 55//55 66//66
f 79//79 80//80 68//68 67//67
f 80//80 81//81 69//69 68//68
f 81//81 82//82 70//70 69//69
f 82//82 83//83 71//71 70//70
f 83//83 84//84 72//72 71//71
f 84//84 85//85 73//73 72//72
f 85//85 86//86 74//74 73//73
f 86//86 87//87 75//75 74//74
f 87//87 88//88 76//76 75//75
f 88//88 89//89 77//77 76//76
f 89//89 90//90 78//78 77//77
f 90//90 79//79 67//67 78//78
f 91//91 92//92 80//80 79//79
f 92//92 93//93 81//81 80//80
f 93//93 94//94 82//82 81//81
f 94//94 95//95 83//83 82//82
f 95//95 96//96 84//84 83//83
f 96//96 97//97 85//85 84//84
f 97//97 98//98 86//86 85//85
f 98//98 99//99 87//87 86//86
f 99//99 100//100 88//88 87//87
f 100//100 101//101 89//89 88//88
f 101//101 102//102 90//90 89//89
f 102//102 91//91 79//79 90//90
f 103//103 104//104 92//92 91//91
f 104//104 105//105 93//93 92//92
f 105//105 106//106 94//94 93//93
f 106//106 107//107 95//95 94//94
f 107//107 108//108 96//96 95//95
f 108//108 109//109 97//97 96//96
f 109//109 110//110 98//98 97//97
f 110//110 111//111 99//99 98//98
f 111//111 112//112 100//100 99//99
f 112//112 113//113 101//101 100//100
f 113//113 114//114 102//102 101//101
f 114//114 103//103 91//91 102//102
f 115//115 116//116 104//104 103//103
f 116//116 117//117 105//105 104//104
f 117//117 118//118 106//106 105//105
f 118//118 119//119 107//107 106//106
f 119//119 120//120 108//108 107//107
f 120//120 121//121 109//109 108//108
f 121//121 122//122 110//110 109//109
f 122//122 123//123 111//111 110//110
f 123//123 124//124 112//112 111//111
f 124//124 125//125 113//113 112//112
f 125//125 126//126 114//114 113//113
f 126//126 115//115 103//103 114//114
