# generated by generate_bob.py / generate_saucer.py
mtllib saucer.mtl
o saucer_legs
g part0
usemtl metal_dark
v 2.50740 1.86386 1.53883
v 2.44753 1.84188 1.51281
v 2.42512 1.82465 1.45000
v 2.45329 1.82227 1.38719
v 2.51554 1.83614 1.36117
v 2.57541 1.85812 1.38719
v 2.59783 1.87535 1.45000
v 2.56966 1.87773 1.51281
v 2.63779 1.41973 1.60335
v 2.58499 1.40033 1.58040
v 2.56522 1.38514 1.52500
v 2.59006 1.38305 1.46960
v 2.64497 1.39527 1.44665
v 2.69777 1.41467 1.46960
v 2.71754 1.42986 1.52500
v 2.69269 1.43195 1.58040
v 2.76812 0.97578 1.66909
v 2.72155 0.95868 1.64886
v 2.70412 0.94528 1.60000
v 2.72603 0.94343 1.55114
v 2.77445 0.95422 1.53091
v 2.82101 0.97132 1.55114
v 2.83845 0.98472 1.60000
v 2.81654 0.98657 1.64886
v 2.89827 0.53242 1.73854
v 2.85545 0.51669 1.71993
v 2.83942 0.50437 1.67500
v 2.85957 0.50267 1.63007
v 2.90410 0.51258 1.61146
v 2.94692 0.52831 1.63007
v 2.96295 0.54063 1.67500
v 2.94280 0.54233 1.71993
v 3.02838 0.08924 1.80922
v 2.98846 0.07458 1.79188
v 2.97352 0.06310 1.75000
v 2.99230 0.06151 1.70812
v 3.03380 0.07076 1.69078
v 3.07372 0.08542 1.70812
v 3.08866 0.09690 1.75000
v 3.06988 0.09849 1.79188
v 2.50740 1.86386 1.53883
v 2.44753 1.84188 1.51281
v 2.42512 1.82465 1.45000
v 2.45329 1.82227 1.38719
v 2.51554 1.83614 1.36117
v 2.57541 1.85812 1.38719
v 2.59783 1.87535 1.45000
v 2.56966 1.87773 1.51281
v 2.51147 1.85000 1.45000
v 3.02838 0.08924 1.80922
v 2.98846 0.07458 1.79188
v 2.97352 0.06310 1.75000
v 2.99230 0.06151 1.70812
v 3.03380 0.07076 1.69078
v 3.07372 0.08542 1.70812
v 3.08866 0.09690 1.75000
v 3.06988 0.09849 1.79188
v 3.03109 0.08000 1.75000
vn -0.0389 0.1324 0.9904
vn -0.7039 -0.1118 0.7014
vn -0.9529 -0.3031 0.0036
vn -0.6400 -0.3295 -0.6941
vn 0.0515 -0.1755 -0.9831
vn 0.7166 0.0687 -0.6941
vn 0.9656 0.2601 0.0036
vn 0.6527 0.2865 0.7014
vn -0.0393 0.1337 0.9902
vn -0.7043 -0.1105 0.7012
vn -0.9533 -0.3019 0.0034
vn -0.6404 -0.3283 -0.6943
vn 0.0512 -0.1742 -0.9834
vn 0.7162 0.0700 -0.6943
vn 0.9652 0.2614 0.0034
vn 0.6523 0.2878 0.7012
vn -0.0407 0.1388 0.9895
vn -0.7059 -0.1055 0.7004
vn -0.9549 -0.2968 0.0026
vn -0.6420 -0.3232 -0.6953
vn 0.0497 -0.1692 -0.9843
vn 0.7148 0.0751 -0.6953
vn 0.9638 0.2664 0.0026
vn 0.6509 0.2928 0.7004
vn -0.0422 0.1439 0.9887
vn -0.7074 -0.1004 0.6996
vn -0.9565 -0.2918 0.0017
vn -0.6435 -0.3182 -0.6962
vn 0.0482 -0.1641 -0.9853
vn 0.7134 0.0801 -0.6962
vn 0.9624 0.2715 0.0017
vn 0.6494 0.2979 0.6996
vn -0.0426 0.1451 0.9885
vn -0.7078 -0.0991 0.6994
vn -0.9569 -0.2905 0.0015
vn -0.6439 -0.3169 -0.6964
vn 0.0478 -0.1629 -0.9855
vn 0.7130 0.0814 -0.6964
vn 0.9621 0.2728 0.0015
vn 0.6491 0.2992 0.6994
vn -0.2780 0.9471 -0.1605
vn -0.2780 0.9471 -0.1605
vn -0.2780 0.9471 -0.1605
vn -0.2780 0.9471 -0.1605
vn -0.2780 0.9471 -0.1605
vn -0.2780 0.9471 -0.1605
vn -0.2780 0.9471 -0.1605
vn -0.2780 0.9471 -0.1605
vn -0.2780 0.9471 -0.1605
vn 0.2780 -0.9471 0.1605
vn 0.2780 -0.9471 0.1605
vn 0.2780 -0.9471 0.1605
vn 0.2780 -0.9471 0.1605
vn 0.2780 -0.9471 0.1605
vn 0.2780 -0.9471 0.1605
vn 0.2780 -0.9471 0.1605
vn 0.2780 -0.9471 0.1605
vn 0.2780 -0.9471 0.1605
f 1//1 2//2 10//10 9//9
f 2//2 3//3 11//11 10//10
f 3//3 4//4 12//12 11//11
f 4//4 5//5 13//13 12//12
f 5//5 6//6 14//14 13//13
f 6//6 7//7 15//15 14//14
f 7//7 8//8 16//16 15//15
f 8//8 1//1 9//9 16//16
f 9//9 10//10 18//18 17//17
f 10//10 11//11 19//19 18//18
f 11//11 12//12 20//20 19//19
f 12//12 13//13 21//21 20//20
f 13//13 14//14 22//22 21//21
f 14//14 15//15 23//23 22//22
f 15//15 16//16 24//24 23//23
f 16//16 9//9 17//17 24//24
f 17//17 18//18 26//26 25//25
f 18//18 19//19 27//27 26//26
f 19//19 20//20 28//28 27//27
f 20//20 21//21 29//29 28//28
f 21//21 22//22 30//30 29//29
f 22//22 23//23 31//31 30//30
f 23//23 24//24 32//32 31//31
f 24//24 17//17 25//25 32//32
f 25//25 26//26 34//34 33//33
f 26//26 27//27 35//35 34//34
f 27//27 28//28 36//36 35//35
f 28//28 29//29 37//37 36//36
f 29//29 30//30 38//38 37//37
f 30//30 31//31 39//39 38//38
f 31//31 32//32 40//40 39//39
f 32//32 25//25 33//33 40//40
f 42//42 49//49 41//41
f 43//43 49//49 42//42
f 44//44 49//49 43//43
f 45//45 49//49 44//44
f 46//46 49//49 45//45
f 47//47 49//49 46//46
f 48//48 49//49 47//47
f 41//41 49//49 48//48
f 51//51 58//58 50//50
f 52//52 58//58 51//51
f 53//53 58//58 52//52
f 54//54 58//58 53//53
f 55//55 58//58 54//54
f 56//56 58//58 55//55
f 57//57 58//58 56//56
f 50//50 58//58 57//57
g part1
usemtl metal
v 3.03109 0.10000 1.75000
v 3.03109 0.10000 1.75000
v 3.03109 0.10000 1.75000
v 3.03109 0.10000 1.75000
v 3.03109 0.10000 1.75000
v 3.03109 0.10000 1.75000
v 3.03109 0.10000 1.75000
v 3.03109 0.10000 1.75000
v 3.03109 0.10000 1.75000
v 3.03109 0.10000 1.75000
v 3.03109 0.08854 1.92634
v 3.13474 0.08854 1.89266
v 3.19879 0.08854 1.80449
v 3.19879 0.08854 1.69551
v 3.13474 0.08854 1.60734
v 3.03109 0.08854 1.57366
v 2.92744 0.08854 1.60734
v 2.86338 0.08854 1.69551
v 2.86338 0.08854 1.80449
v 2.92744 0.08854 1.89266
v 3.03109 0.05854 2.03532
v 3.19879 0.05854 1.98083
v 3.30244 0.05854 1.83817
v 3.30244 0.05854 1.66183
v 3.19879 0.05854 1.51917
v 3.03109 0.05854 1.46468
v 2.86338 0.05854 1.51917
v 2.75974 0.05854 1.66183
v 2.75974 0.05854 1.83817
v 2.86338 0.05854 1.98083
v 3.03109 0.02146 2.03532
v 3.19879 0.02146 1.98083
v 3.30244 0.02146 1.83817
v 3.30244 0.02146 1.66183
v 3.19879 0.02146 1.51917
v 3.03109 0.02146 1.46468
v 2.86338 0.02146 1.51917
v 2.75974 0.02146 1.66183
v 2.75974 0.02146 1.83817
v 2.86338 0.02146 1.98083
v 3.03109 -0.00854 1.92634
v 3.13474 -0.00854 1.89266
v 3.19879 -0.00854 1.80449
v 3.19879 -0.00854 1.69551
v 3.13474 -0.00854 1.60734
v 3.03109 -0.00854 1.57366
v 2.92744 -0.00854 1.60734
v 2.86338 -0.00854 1.69551
v 2.86338 -0.00854 1.80449
v 2.92744 -0.00854 1.89266
v 3.03109 -0.02000 1.75000
v 3.03109 -0.02000 1.75000
v 3.03109 -0.02000 1.75000
v 3.03109 -0.02000 1.75000
v 3.03109 -0.02000 1.75000
v 3.03109 -0.02000 1.75000
v 3.03109 -0.02000 1.75000
v 3.03109 -0.02000 1.75000
v 3.03109 -0.02000 1.75000
v 3.03109 -0.02000 1.75000
vn 0.0000 1.0000 0.0000
vn 0.0000 1.0000 0.0000
vn 0.0000 1.0000 0.0000
vn 0.0000 1.0000 -0.0000
vn 0.0000 1.0000 -0.0000
vn 0.0000 1.0000 -0.0000
vn -0.0000 1.0000 -0.0000
vn -0.0000 1.0000 -0.0000
vn -0.0000 1.0000 0.0000
vn -0.0000 1.0000 0.0000
vn 0.0000 0.9896 0.1438
vn 0.0845 0.9896 0.1163
vn 0.1368 0.9896 0.0444
vn 0.1368 0.9896 -0.0444
vn 0.0845 0.9896 -0.1163
vn 0.0000 0.9896 -0.1438
vn -0.0845 0.9896 -0.1163
vn -0.1368 0.9896 -0.0444
vn -0.1368 0.9896 0.0444
vn -0.0845 0.9896 0.1163
vn 0.0000 0.8516 0.5242
vn 0.3081 0.8516 0.4241
vn 0.4985 0.8516 0.1620
vn 0.4985 0.8516 -0.1620
vn 0.3081 0.8516 -0.4241
vn 0.0000 0.8516 -0.5242
vn -0.3081 0.8516 -0.4241
vn -0.4985 0.8516 -0.1620
vn -0.4985 0.8516 0.1620
vn -0.3081 0.8516 0.4241
vn 0.0000 -0.8516 0.5242
vn 0.3081 -0.8516 0.4241
vn 0.4985 -0.8516 0.1620
vn 0.4985 -0.8516 -0.1620
vn 0.3081 -0.8516 -0.4241
vn 0.0000 -0.8516 -0.5242
vn -0.3081 -0.8516 -0.4241
vn -0.4985 -0.8516 -0.1620
vn -0.4985 -0.8516 0.1620
vn -0.3081 -0.8516 0.4241
vn 0.0000 -0.9896 0.1438
vn 0.0845 -0.9896 0.1163
vn 0.1368 -0.9896 0.0444
vn 0.1368 -0.9896 -0.0444
vn 0.0845 -0.9896 -0.1163
vn 0.0000 -0.9896 -0.1438
vn -0.0845 -0.9896 -0.1163
vn -0.1368 -0.9896 -0.0444
vn -0.1368 -0.9896 0.0444
vn -0.0845 -0.9896 0.1163
vn 0.0000 -1.0000 0.0000
vn 0.0000 -1.0000 0.0000
vn 0.0000 -1.0000 0.0000
vn 0.0000 -1.0000 -0.0000
vn 0.0000 -1.0000 -0.0000
vn 0.0000 -1.0000 -0.0000
vn -0.0000 -1.0000 -0.0000
vn -0.0000 -1.0000 -0.0000
vn -0.0000 -1.0000 0.0000
vn -0.0000 -1.0000 0.0000
f 69//69 70//70 60//60 59//59
f 70//70 71//71 61//61 60//60
f 71//71 72//72 62//62 61//61
f 72//72 73//73 63//63 62//62
f 73//73 74//74 64//64 63//63
f 74//74 75//75 65//65 64//64
f 75//75 76//76 66//66 65//65
f 76//76 77//77 67//67 66//66
f 77//77 78//78 68//68 67//67
f 78//78 69//69 59//59 68//68
f 79//79 80//80 70//70 69//69
f 80//80 81//81 71//71 70//70
f 81//81 82//82 72//72 71//71
f 82//82 83//83 73//73 72//72
f 83//83 84//84 74//74 73//73
f 84//84 85//85 75//75 74//74
f 85//85 86//86 76//76 75//75
f 86//86 87//87 77//77 76//76
f 87//87 88//88 78//78 77//77
f 88//88 79//79 69//69 78//78
f 89//89 90//90 80//80 79//79
f 90//90 91//91 81//81 80//80
f 91//91 92//92 82//82 81//81
f 92//92 93//93 83//83 82//82
f 93//93 94//94 84//84 83//83
f 94//94 95//95 85//85 84//84
f 95//95 96//96 86//86 85//85
f 96//96 97//97 87//87 86//86
f 97//97 98//98 88//88 87//87
f 98//98 89//89 79//79 88//88
f 99//99 100//100 90//90 89//89
f 100//100 101//101 91//91 90//90
f 101//101 102//102 92//92 91//91
f 102//102 103//103 93//93 92//92
f 103//103 104//104 94//94 93//93
f 104//104 105//105 95//95 94//94
f 105//105 106//106 96//96 95//95
f 106//106 107//107 97//97 96//96
f 107//107 108//108 98//98 97//97
f 108//108 99//99 89//89 98//98
f 109//109 110//110 100//100 99//99
f 110//110 111//111 101//101 100//100
f 111//111 112//112 102//102 101//101
f 112//112 113//113 103//103 102//102
f 113//113 114//114 104//104 103//103
f 114//114 115//115 105//105 104//104
f 115//115 116//116 106//106 105//105
f 116//116 117//117 107//107 106//106
f 117//117 118//118 108//108 107//107
f 118//118 109//109 99//99 108//108
g part2
usemtl metal_dark
v -2.50740 1.86386 1.53883
v -2.56966 1.87773 1.51281
v -2.59783 1.87535 1.45000
v -2.57541 1.85812 1.38719
v -2.51554 1.83614 1.36117
v -2.45329 1.82227 1.38719
v -2.42512 1.82465 1.45000
v -2.44753 1.84188 1.51281
v -2.63779 1.41973 1.60335
v -2.69269 1.43195 1.58040
v -2.71754 1.42986 1.52500
v -2.69777 1.41467 1.46960
v -2.64497 1.39527 1.44665
v -2.59006 1.38305 1.46960
v -2.56522 1.38514 1.52500
v -2.58499 1.40033 1.58040
v -2.76812 0.97578 1.66909
v -2.81654 0.98657 1.64886
v -2.83845 0.98472 1.60000
v -2.82101 0.97132 1.55114
v -2.77445 0.95422 1.53091
v -2.72603 0.94343 1.55114
v -2.70412 0.94528 1.60000
v -2.72155 0.95868 1.64886
v -2.89827 0.53242 1.73854
v -2.94280 0.54233 1.71993
v -2.96295 0.54063 1.67500
v -2.94692 0.52831 1.63007
v -2.90410 0.51258 1.61146
v -2.85957 0.50267 1.63007
v -2.83942 0.50437 1.67500
v -2.85545 0.51669 1.71993
v -3.02838 0.08924 1.80922
v -3.06988 0.09849 1.79188
v -3.08866 0.09690 1.75000
v -3.07372 0.08542 1.70812
v -3.03380 0.07076 1.69078
v -2.99230 0.06151 1.70812
v -2.97352 0.06310 1.75000
v -2.98846 0.07458 1.79188
v -2.50740 1.86386 1.53883
v -2.56966 1.87773 1.51281
v -2.59783 1.87535 1.45000
v -2.57541 1.85812 1.38719
v -2.51554 1.83614 1.36117
v -2.45329 1.82227 1.38719
v -2.42512 1.82465 1.45000
v -2.44753 1.84188 1.51281
v -2.51147 1.85000 1.45000
v -3.02838 0.08924 1.80922
v -3.06988 0.09849 1.79188
v -3.08866 0.09690 1.75000
v -3.07372 0.08542 1.70812
v -3.03380 0.07076 1.69078
v -2.99230 0.06151 1.70812
v -2.97352 0.06310 1.75000
v -2.98846 0.07458 1.79188
v -3.03109 0.08000 1.75000
vn 0.0389 0.1324 0.9904
vn -0.6527 0.2865 0.7014
vn -0.9656 0.2601 0.0036
vn -0.7166 0.0687 -0.6941
vn -0.0515 -0.1755 -0.9831
vn 0.6400 -0.3295 -0.6941
vn 0.9529 -0.3031 0.0036
vn 0.7039 -0.1118 0.7014
vn 0.0393 0.1337 0.9902
vn -0.6523 0.2878 0.7012
vn -0.9652 0.2614 0.0034
vn -0.7162 0.0700 -0.6943
vn -0.0512 -0.1742 -0.9834
vn 0.6404 -0.3283 -0.6943
vn 0.9533 -0.3019 0.0034
vn 0.7043 -0.1105 0.7012
vn 0.0407 0.1388 0.9895
vn -0.6509 0.2928 0.7004
vn -0.9638 0.2664 0.0026
vn -0.7148 0.0751 -0.6953
vn -0.0497 -0.1692 -0.9843
vn 0.6420 -0.3232 -0.6953
vn 0.9549 -0.2968 0.0026
vn 0.7059 -0.1055 0.7004
vn 0.0422 0.1439 0.9887
vn -0.6494 0.2979 0.6996
vn -0.9624 0.2715 0.0017
vn -0.7134 0.0801 -0.6962
vn -0.0482 -0.1641 -0.9853
vn 0.6435 -0.3182 -0.6962
vn 0.9565 -0.2918 0.0017
vn 0.7074 -0.1004 0.6996
vn 0.0426 0.1451 0.9885
vn -0.6491 0.2992 0.6994
vn -0.9621 0.2728 0.0015
vn -0.7130 0.0814 -0.6964
vn -0.0478 -0.1629 -0.9855
vn 0.6439 -0.3169 -0.6964
vn 0.9569 -0.2905 0.0015
vn 0.7078 -0.0991 0.6994
vn 0.2780 0.9471 -0.1605
vn 0.2780 0.9471 -0.1605
vn 0.2780 0.9471 -0.1605
vn 0.2780 0.9471 -0.1605
vn 0.2780 0.9471 -0.1605
vn 0.2780 0.9471 -0.1605
vn 0.2780 0.9471 -0.1605
vn 0.2780 0.9471 -0.1605
vn 0.2780 0.9471 -0.1605
vn -0.2780 -0.9471 0.1605
vn -0.2780 -0.9471 0.1605
vn -0.2780 -0.9471 0.1605
vn -0.2780 -0.9471 0.1605
vn -0.2780 -0.9471 0.1605
vn -0.2780 -0.9471 0.1605
vn -0.2780 -0.9471 0.1605
vn -0.2780 -0.9471 0.1605
vn -0.2780 -0.9471 0.1605
f 119//119 120//120 128//128 127//127
f 120//120 121//121 129//129 128//128
f 121//121 122//122 130//130 129//129
f 122//122 123//123 131//131 130//130
f 123//123 124//124 132//132 131//131
f 124//124 125//125 133//133 132//132
f 125//125 126//126 134//134 133//133
f 126//126 119//119 127//127 134//134
f 127//127 128//128 136//136 135//135
f 128//128 129//129 137//137 136//136
f 129//129 130//130 138//138 137//137
f 130//130 131//131 139//139 138//138
f 131//131 132//132 140//140 139//139
f 132//132 133//133 141//141 140//140
f 133//133 134//134 142//142 141//141
f 134//134 127//127 135//135 142//142
f 135//135 136//136 144//144 143//143
f 136//136 137//137 145//145 144//144
f 137//137 138//138 146//146 145//145
f 138//138 139//139 147//147 146//146
f 139//139 140//140 148//148 147//147
f 140//140 141//141 149//149 148//148
f 141//141 142//142 150//150 149//149
f 142//142 135//135 143//143 150//150
f 143//143 144//144 152//152 151//151
f 144//144 145//145 153//153 152//152
f 145//145 146//146 154//154 153//153
f 146//146 147//147 155//155 154//154
f 147//147 148//148 156//156 155//155
f 148//148 149//149 157//157 156//156
f 149//149 150//150 158//158 157//157
f 150//150 143//143 151//151 158//158
f 160//160 167//167 159//159
f 161//161 167//167 160//160
f 162//162 167//167 161//161
f 163//163 167//167 162//162
f 164//164 167//167 163//163
f 165//165 167//167 164//164
f 166//166 167//167 165//165
f 159//159 167//167 166//166
f 169//169 176//176 168//168
f 170//170 176//176 169//169
f 171//171 176//176 170//170
f 172//172 176//176 171//171
f 173//173 176//176 172//172
f 174//174 176//176 173//173
f 175//175 176//176 174//174
f 168//168 176//176 175//175
g part3
usemtl metal
v -3.03109 0.10000 1.75000
v -3.03109 0.10000 1.75000
v -3.03109 0.10000 1.75000
v -3.03109 0.10000 1.75000
v -3.03109 0.10000 1.75000
v -3.03109 0.10000 1.75000
v -3.03109 0.10000 1.75000
v -3.03109 0.10000 1.75000
v -3.03109 0.10000 1.75000
v -3.03109 0.10000 1.75000
v -3.03109 0.08854 1.92634
v -2.92744 0.08854 1.89266
v -2.86338 0.08854 1.80449
v -2.86338 0.08854 1.69551
v -2.92744 0.08854 1.60734
v -3.03109 0.08854 1.57366
v -3.13474 0.08854 1.60734
v -3.19879 0.08854 1.69551
v -3.19879 0.08854 1.80449
v -3.13474 0.08854 1.89266
v -3.03109 0.05854 2.03532
v -2.86338 0.05854 1.98083
v -2.75974 0.05854 1.83817
v -2.75974 0.05854 1.66183
v -2.86338 0.05854 1.51917
v -3.03109 0.05854 1.46468
v -3.19879 0.05854 1.51917
v -3.30244 0.05854 1.66183
v -3.30244 0.05854 1.83817
v -3.19879 0.05854 1.98083
v -3.03109 0.02146 2.03532
v -2.86338 0.02146 1.98083
v -2.75974 0.02146 1.83817
v -2.75974 0.02146 1.66183
v -2.86338 0.02146 1.51917
v -3.03109 0.02146 1.46468
v -3.19879 0.02146 1.51917
v -3.30244 0.02146 1.66183
v -3.30244 0.02146 1.83817
v -3.19879 0.02146 1.98083
v -3.03109 -0.00854 1.92634
v -2.92744 -0.00854 1.89266
v -2.86338 -0.00854 1.80449
v -2.86338 -0.00854 1.69551
v -2.92744 -0.00854 1.60734
v -3.03109 -0.00854 1.57366
v -3.13474 -0.00854 1.60734
v -3.19879 -0.00854 1.69551
v -3.19879 -0.00854 1.80449
v -3.13474 -0.00854 1.89266
v -3.03109 -0.02000 1.75000
v -3.03109 -0.02000 1.75000
v -3.03109 -0.02000 1.75000
v -3.03109 -0.02000 1.75000
v -3.03109 -0.02000 1.75000
v -3.03109 -0.02000 1.75000
v -3.03109 -0.02000 1.75000
v -3.03109 -0.02000 1.75000
v -3.03109 -0.02000 1.75000
v -3.03109 -0.02000 1.75000
vn 0.0000 1.0000 0.0000
vn 0.0000 1.0000 0.0000
vn 0.0000 1.0000 0.0000
vn 0.0000 1.0000 -0.0000
vn 0.0000 1.0000 -0.0000
vn 0.0000 1.0000 -0.0000
vn -0.0000 1.0000 -0.0000
vn -0.0000 1.0000 -0.0000
vn -0.0000 1.0000 0.0000
vn -0.0000 1.0000 0.0000
vn 0.0000 0.9896 0.1438
vn 0.0845 0.9896 0.1163
vn 0.1368 0.9896 0.0444
vn 0.1368 0.9896 -0.0444
vn 0.0845 0.9896 -0.1163
vn 0.0000 0.9896 -0.1438
vn -0.0845 0.9896 -0.1163
vn -0.1368 0.9896 -0.0444
vn -0.1368 0.9896 0.0444
vn -0.0845 0.9896 0.1163
vn 0.0000 0.8516 0.5242
vn 0.3081 0.8516 0.4241
vn 0.4985 0.8516 0.1620
vn 0.4985 0.8516 -0.1620
vn 0.3081 0.8516 -0.4241
vn 0.0000 0.8516 -0.5242
vn -0.3081 0.8516 -0.4241
vn -0.4985 0.8516 -0.1620
vn -0.4985 0.8516 0.1620
vn -0.3081 0.8516 0.4241
vn 0.0000 -0.8516 0.5242
vn 0.3081 -0.8516 0.4241
vn 0.4985 -0.8516 0.1620
vn 0.4985 -0.8516 -0.1620
vn 0.3081 -0.8516 -0.4241
vn 0.0000 -0.8516 -0.5242
vn -0.3081 -0.8516 -0.4241
vn -0.4985 -0.8516 -0.1620
vn -0.4985 -0.8516 0.1620
vn -0.3081 -0.8516 0.4241
vn 0.0000 -0.9896 0.1438
vn 0.0845 -0.9896 0.1163
vn 0.1368 -0.9896 0.0444
vn 0.1368 -0.9896 -0.0444
vn 0.0845 -0.9896 -0.1163
vn 0.0000 -0.9896 -0.1438
vn -0.0845 -0.9896 -0.1163
vn -0.1368 -0.9896 -0.0444
vn -0.1368 -0.9896 0.0444
vn -0.0845 -0.9896 0.1163
vn 0.0000 -1.0000 0.0000
vn 0.0000 -1.0000 0.0000
vn 0.0000 -1.0000 0.0000
vn 0.0000 -1.0000 -0.0000
vn 0.0000 -1.0000 -0.0000
vn 0.0000 -1.0000 -0.0000
vn -0.0000 -1.0000 -0.0000
vn -0.0000 -1.0000 -0.0000
vn -0.0000 -1.0000 0.0000
vn -0.0000 -1.0000 0.0000
f 187//187 188//188 178//178 177//177
f 188//188 189//189 179//179 178//178
f 189//189 190//190 180//180 179//179
f 190//190 191//191 181//181 180//180
f 191//191 192//192 182//182 181//181
f 192//192 193//193 183//183 182//182
f 193//193 194//194 184//184 183//183
f 194//194 195//195 185//185 184//184
f 195//195 196//196 186//186 185//185
f 196//196 187//187 177//177 186//186
f 197//197 198//198 188//188 187//187
f 198//198 199//199 189//189 188//188
f 199//199 200//200 190//190 189//189
f 200//200 201//201 191//191 190//190
f 201//201 202//202 192//192 191//191
f 202//202 203//203 193//193 192//192
f 203//203 204//204 194//194 193//193
f 204//204 205//205 195//195 194//194
f 205//205 206//206 196//196 195//195
f 206//206 197//197 187//187 196//196
f 207//207 208//208 198//198 197//197
f 208//208 209//209 199//199 198//198
f 209//209 210//210 200//200 199//199
f 210//210 211//211 201//201 200//200
f 211//211 212//212 202//202 201//201
f 212//212 213//213 203//203 202//202
f 213//213 214//214 204//204 203//203
f 214//214 215//215 205//205 204//204
f 215//215 216//216 206//206 205//205
f 216//216 207//207 197//197 206//206
f 217//217 218//218 208//208 207//207
f 218//218 219//219 209//209 208//208
f 219//219 220//220 210//210 209//209
f 220//220 221//221 211//211 210//210
f 221//221 222//222 212//212 211//211
f 222//222 223//223 213//213 212//212
f 223//223 224//224 214//214 213//213
f 224//224 225//225 215//215 214//214
f 225//225 226//226 216//216 215//215
f 226//226 217//217 207//207 216//216
f 227//227 228//228 218//218 217//217
f 228//228 229//229 219//219 218//218
f 229//229 230//230 220//220 219//219
f 230//230 231//231 221//221 220//220
f 231//231 232//232 222//222 221//221
f 232//232 233//233 223//223 222//222
f 233//233 234//234 224//224 223//223
f 234//234 235//235 225//225 224//224
f 235//235 236//236 226//226 225//225
f 236//236 227//227 217//217 226//226
g part4
usemtl metal_dark
v -0.00000 1.82111 -2.81476
v -0.06364 1.82957 -2.83973
v -0.09000 1.85000 -2.90000
v -0.06364 1.87043 -2.96027
v -0.00000 1.87889 -2.98524
v 0.06364 1.87043 -2.96027
v 0.09000 1.85000 -2.90000
v 0.06364 1.82957 -2.83973
v -0.00000 1.38202 -2.97483
v -0.05613 1.38948 -2.99684
v -0.07938 1.40750 -3.05000
v -0.05613 1.42552 -3.10316
v -0.00000 1.43298 -3.12517
v 0.05613 1.42552 -3.10316
v 0.07937 1.40750 -3.05000
v 0.05613 1.38948 -2.99684
v -0.00000 0.94253 -3.13371
v -0.04950 0.94911 -3.15312
v -0.07000 0.96500 -3.20000
v -0.04950 0.98089 -3.24688
v -0.00000 0.98747 -3.26629
v 0.04950 0.98089 -3.24688
v 0.07000 0.96500 -3.20000
v 0.04950 0.94911 -3.15312
v -0.00000 0.50183 -3.28903
v -0.04552 0.50789 -3.30689
v -0.06438 0.52250 -3.35000
v -0.04552 0.53711 -3.39311
v -0.00000 0.54317 -3.41097
v 0.04552 0.53711 -3.39311
v 0.06437 0.52250 -3.35000
v 0.04552 0.50789 -3.30689
v -0.00000 0.06074 -3.44318
v -0.04243 0.06638 -3.45982
v -0.06000 0.08000 -3.50000
v -0.04243 0.09362 -3.54018
v -0.00000 0.09926 -3.55682
v 0.04243 0.09362 -3.54018
v 0.06000 0.08000 -3.50000
v 0.04243 0.06638 -3.45982
v -0.00000 1.82111 -2.81476
v -0.06364 1.82957 -2.83973
v -0.09000 1.85000 -2.90000
v -0.06364 1.87043 -2.96027
v -0.00000 1.87889 -2.98524
v 0.06364 1.87043 -2.96027
v 0.09000 1.85000 -2.90000
v 0.06364 1.82957 -2.83973
v -0.00000 1.85000 -2.90000
v -0.00000 0.06074 -3.44318
v -0.04243 0.06638 -3.45982
v -0.06000 0.08000 -3.50000
v -0.04243 0.09362 -3.54018
v -0.00000 0.09926 -3.55682
v 0.04243 0.09362 -3.54018
v 0.06000 0.08000 -3.50000
v 0.04243 0.06638 -3.45982
v -0.00000 0.08000 -3.50000
vn 0.0000 -0.3425 0.9395
vn -0.7069 -0.2485 0.6622
vn -0.9997 -0.0215 -0.0073
vn -0.7069 0.2054 -0.6768
vn 0.0000 0.2994 -0.9541
vn 0.7069 0.2054 -0.6768
vn 0.9997 -0.0215 -0.0073
vn 0.7069 -0.2485 0.6622
vn 0.0000 -0.3412 0.9400
vn -0.7069 -0.2472 0.6627
vn -0.9998 -0.0203 -0.0069
vn -0.7069 0.2067 -0.6764
vn 0.0000 0.3007 -0.9537
vn 0.7069 0.2067 -0.6764
vn 0.9998 -0.0203 -0.0069
vn 0.7069 -0.2472 0.6627
vn 0.0000 -0.3362 0.9418
vn -0.7070 -0.2422 0.6644
vn -0.9999 -0.0152 -0.0052
vn -0.7070 0.2118 -0.6747
vn -0.0000 0.3058 -0.9521
vn 0.7070 0.2118 -0.6747
vn 0.9999 -0.0152 -0.0052
vn 0.7070 -0.2422 0.6644
vn 0.0000 -0.3312 0.9436
vn -0.7071 -0.2371 0.6662
vn -0.9999 -0.0101 -0.0034
vn -0.7071 0.2169 -0.6731
vn 0.0000 0.3109 -0.9504
vn 0.7071 0.2169 -0.6731
vn 0.9999 -0.0101 -0.0034
vn 0.7071 -0.2371 0.6662
vn 0.0000 -0.3299 0.9440
vn -0.7071 -0.2359 0.6666
vn -1.0000 -0.0089 -0.0030
vn -0.7071 0.2181 -0.6727
vn 0.0000 0.3122 -0.9500
vn 0.7071 0.2181 -0.6727
vn 1.0000 -0.0089 -0.0030
vn 0.7071 -0.2359 0.6666
vn 0.0000 0.9471 0.3210
vn 0.0000 0.9471 0.3210
vn 0.0000 0.9471 0.3210
vn 0.0000 0.9471 0.3210
vn 0.0000 0.9471 0.3210
vn 0.0000 0.9471 0.3210
vn 0.0000 0.9471 0.3210
vn 0.0000 0.9471 0.3210
vn 0.0000 0.9471 0.3210
vn -0.0000 -0.9471 -0.3210
vn -0.0000 -0.9471 -0.3210
vn -0.0000 -0.9471 -0.3210
vn -0.0000 -0.9471 -0.3210
vn -0.0000 -0.9471 -0.3210
vn -0.0000 -0.9471 -0.3210
vn -0.0000 -0.9471 -0.3210
vn -0.0000 -0.9471 -0.3210
vn -0.0000 -0.9471 -0.3210
f 237//237 238//238 246//246 245//245
f 238//238 239//239 247//247 246//246
f 239//239 240//240 248//248 247//247
f 240//240 241//241 249//249 248//248
f 241//241 242//242 250//250 249//249
f 242//242 243//243 251//251 250//250
f 243//243 244//244 252//252 251//251
f 244//244 237//237 245//245 252//252
f 245//245 246//246 254//254 253//253
f 246//246 247//247 255//255 254//254
f 247//247 248//248 256//256 255//255
f 248//248 249//249 257//257 256//256
f 249//249 250//250 258//258 257//257
f 250//250 251//251 259//259 258//258
f 251//251 252//252 260//260 259//259
f 252//252 245//245 253//253 260//260
f 253//253 254//254 262//262 261//261
f 254//254 255//255 263//263 262//262
f 255//255 256//256 264//264 263//263
f 256//256 257//257 265//265 264//264
f 257//257 258//258 266//266 265//265
f 258//258 259//259 267//267 266//266
f 259//259 260//260 268//268 267//267
f 260//260 253//253 261//261 268//268
f 261//261 262//262 270//270 269//269
f 262//262 263//263 271//271 270//270
f 263//263 264//264 272//272 271//271
f 264//264 265//265 273//273 272//272
f 265//265 266//266 274//274 273//273
f 266//266 267//267 275//275 274//274
f 267//267 268//268 276//276 275//275
f 268//268 261//261 269//269 276//276
f 278//278 285//285 277//277
f 279//279 285//285 278//278
f 280//280 285//285 279//279
f 281//281 285//285 280//280
f 282//282 285//285 281//281
f 283//283 285//285 282//282
f 284//284 285//285 283//283
f 277//277 285//285 284//284
f 287//287 294//294 286//286
f 288//288 294//294 287//287
f 289//289 294//294 288//288
f 290//290 294//294 289//289
f 291//291 294//294 290//290
f 292//292 294//294 291//291
f 293//293 294//294 292//292
f 286//286 294//294 293//293
g part5
usemtl metal
v -0.00000 0.10000 -3.50000
v -0.00000 0.10000 -3.50000
v -0.00000 0.10000 -3.50000
v -0.00000 0.10000 -3.50000
v -0.00000 0.10000 -3.50000
v -0.00000 0.10000 -3.50000
v -0.00000 0.10000 -3.50000
v -0.00000 0.10000 -3.50000
v -0.00000 0.10000 -3.50000
v -0.00000 0.10000 -3.50000
v -0.00000 0.08854 -3.32366
v 0.10365 0.08854 -3.35734
v 0.16771 0.08854 -3.44551
v 0.16771 0.08854 -3.55449
v 0.10365 0.08854 -3.64266
v -0.00000 0.08854 -3.67634
v -0.10365 0.08854 -3.64266
v -0.16771 0.08854 -3.55449
v -0.16771 0.08854 -3.44551
v -0.10365 0.08854 -3.35734
v -0.00000 0.05854 -3.21468
v 0.16771 0.05854 -3.26917
v 0.27135 0.05854 -3.41183
v 0.27135 0.05854 -3.58817
v 0.16771 0.05854 -3.73083
v -0.00000 0.05854 -3.78532
v -0.16771 0.05854 -3.73083
v -0.27135 0.05854 -3.58817
v -0.27135 0.05854 -3.41183
v -0.16771 0.05854 -3.26917
v -0.00000 0.02146 -3.21468
v 0.16771 0.02146 -3.26917
v 0.27135 0.02146 -3.41183
v 0.27135 0.02146 -3.58817
v 0.16771 0.02146 -3.73083
v -0.00000 0.02146 -3.78532
v -0.16771 0.02146 -3.73083
v -0.27135 0.02146 -3.58817
v -0.27135 0.02146 -3.41183
v -0.16771 0.02146 -3.26917
v -0.00000 -0.00854 -3.32366
v 0.10365 -0.00854 -3.35734
v 0.16771 -0.00854 -3.44551
v 0.16771 -0.00854 -3.55449
v 0.10365 -0.00854 -3.64266
v -0.00000 -0.00854 -3.67634
v -0.10365 -0.00854 -3.64266
v -0.16771 -0.00854 -3.55449
v -0.16771 -0.00854 -3.44551
v -0.10365 -0.00854 -3.35734
v -0.00000 -0.02000 -3.50000
v -0.00000 -0.02000 -3.50000
v -0.00000 -0.02000 -3.50000
v -0.00000 -0.02000 -3.50000
v -0.00000 -0.02000 -3.50000
v -0.00000 -0.02000 -3.50000
v -0.00000 -0.02000 -3.50000
v -0.00000 -0.02000 -3.50000
v -0.00000 -0.02000 -3.50000
v -0.00000 -0.02000 -3.50000
vn 0.0000 1.0000 0.0000
vn 0.0000 1.0000 0.0000
vn 0.0000 1.0000 0.0000
vn 0.0000 1.0000 -0.0000
vn 0.0000 1.0000 -0.0000
vn 0.0000 1.0000 -0.0000
vn -0.0000 1.0000 -0.0000
vn -0.0000 1.0000 -0.0000
vn -0.0000 1.0000 0.0000
vn -0.0000 1.0000 0.0000
vn 0.0000 0.9896 0.1438
vn 0.0845 0.9896 0.1163
vn 0.1368 0.9896 0.0444
vn 0.1368 0.9896 -0.0444
vn 0.0845 0.9896 -0.1163
vn 0.0000 0.9896 -0.1438
vn -0.0845 0.9896 -0.1163
vn -0.1368 0.9896 -0.0444
vn -0.1368 0.9896 0.0444
vn -0.0845 0.9896 0.1163
vn 0.0000 0.8516 0.5242
vn 0.3081 0.8516 0.4241
vn 0.4985 0.8516 0.1620
vn 0.4985 0.8516 -0.1620
vn 0.3081 0.8516 -0.4241
vn 0.0000 0.8516 -0.5242
vn -0.3081 0.8516 -0.4241
vn -0.4985 0.8516 -0.1620
vn -0.4985 0.8516 0.1620
vn -0.3081 0.8516 0.4241
vn 0.0000 -0.8516 0.5242
vn 0.3081 -0.8516 0.4241
vn 0.4985 -0.8516 0.1620
vn 0.4985 -0.8516 -0.1620
vn 0.3081 -0.8516 -0.4241
vn 0.0000 -0.8516 -0.5242
vn -0.3081 -0.8516 -0.4241
vn -0.4985 -0.8516 -0.1620
vn -0.4985 -0.8516 0.1620
vn -0.3081 -0.8516 0.4241
vn 0.0000 -0.9896 0.1438
vn 0.0845 -0.9896 0.1163
vn 0.1368 -0.9896 0.0444
vn 0.1368 -0.9896 -0.0444
vn 0.0845 -0.9896 -0.1163
vn 0.0000 -0.9896 -0.1438
vn -0.0845 -0.9896 -0.1163
vn -0.1368 -0.9896 -0.0444
vn -0.1368 -0.9896 0.0444
vn -0.0845 -0.9896 0.1163
vn 0.0000 -1.0000 0.0000
vn 0.0000 -1.0000 0.0000
vn 0.0000 -1.0000 0.0000
vn 0.0000 -1.0000 -0.0000
vn 0.0000 -1.0000 -0.0000
vn 0.0000 -1.0000 -0.0000
vn -0.0000 -1.0000 -0.0000
vn -0.0000 -1.0000 -0.0000
vn -0.0000 -1.0000 0.0000
vn -0.0000 -1.0000 0.0000
f 305//305 306//306 296//296 295//295
f 306//306 307//307 297//297 296//296
f 307//307 308//308 298//298 297//297
f 308//308 309//309 299//299 298//298
f 309//309 310//310 300//300 299//299
f 310//310 311//311 301//301 300//300
f 311//311 312//312 302//302 301//301
f 312//312 313//313 303//303 302//302
f 313//313 314//314 304//304 303//303
f 314//314 305//305 295//295 304//304
f 315//315 316//316 306//306 305//305
f 316//316 317//317 307//307 306//306
f 317//317 318//318 308//308 307//307
f 318//318 319//319 309//309 308//308
f 319//319 320//320 310//310 309//309
f 320//320 321//321 311//311 310//310
f 321//321 322//322 312//312 311//311
f 322//322 323//323 313//313 312//312
f 323//323 324//324 314//314 313//313
f 324//324 315//315 305//305 314//314
f 325//325 326//326 316//316 315//315
f 326//326 327//327 317//317 316//316
f 327//327 328//328 318//318 317//317
f 328//328 329//329 319//319 318//318
f 329//329 330//330 320//320 319//319
f 330//330 331//331 321//321 320//320
f 331//331 332//332 322//322 321//321
f 332//332 333//333 323//323 322//322
f 333//333 334//334 324//324 323//323
f 334//334 325//325 315//315 324//324
f 335//335 336//336 326//326 325//325
f 336//336 337//337 327//327 326//326
f 337//337 338//338 328//328 327//327
f 338//338 339//339 329//329 328//328
f 339//339 340//340 330//330 329//329
f 340//340 341//341 331//331 330//330
f 341//341 342//342 332//332 331//331
f 342//342 343//343 333//333 332//332
f 343//343 344//344 334//334 333//333
f 344//344 335//335 325//325 334//334
f 345//345 346//346 336//336 335//335
f 346//346 347//347 337//337 336//336
f 347//347 348//348 338//338 337//337
f 348//348 349//349 339//339 338//338
f 349//349 350//350 340//340 339//339
f 350//350 351//351 341//341 340//340
f 351//351 352//352 342//342 341//341
f 352//352 353//353 343//343 342//342
f 353//353 354//354 344//344 343//343
f 354//354 345//345 335//335 344//344
