# generated by generate_bob.py / generate_saucer.py
mtllib saucer.mtl
o saucer_ramp
g part0
usemtl metal_dark
v -0.55000 1.68000 0.60000
v -0.55000 1.68000 3.50000
v 0.55000 1.68000 3.50000
v 0.55000 1.68000 0.60000
vn 0.0000 1.0000 0.0000
vn 0.0000 1.0000 0.0000
vn 0.0000 1.0000 0.0000
vn 0.0000 1.0000 0.0000
f 1//1 2//2 3//3 4//4
g part1
usemtl metal_dark
v -0.55000 1.62000 0.60000
v 0.55000 1.62000 0.60000
v 0.55000 1.62000 3.50000
v -0.55000 1.62000 3.50000
vn 0.0000 -1.0000 0.0000
vn 0.0000 -1.0000 0.0000
vn 0.0000 -1.0000 0.0000
vn 0.0000 -1.0000 0.0000
f 5//5 6//6 7//7 8//8
g part2
usemtl metal_dark
v -0.55000 1.68000 0.60000
v 0.55000 1.68000 0.60000
v 0.55000 1.62000 0.60000
v -0.55000 1.62000 0.60000
vn 0.0000 0.0000 -1.0000
vn 0.0000 0.0000 -1.0000
vn 0.0000 0.0000 -1.0000
vn 0.0000 0.0000 -1.0000
f 9//9 10//10 11//11 12//12
g part3
usemtl metal_dark
v 0.55000 1.68000 3.50000
v -0.55000 1.68000 3.50000
v -0.55000 1.62000 3.50000
v 0.55000 1.62000 3.50000
vn 0.0000 0.0000 1.0000
vn 0.0000 0.0000 1.0000
vn 0.0000 0.0000 1.0000
vn 0.0000 0.0000 1.0000
f 13//13 14//14 15//15 16//16
g part4
usemtl metal_dark
v 0.55000 1.68000 0.60000
v 0.55000 1.68000 3.50000
v 0.55000 1.62000 3.50000
v 0.55000 1.62000 0.60000
vn 1.0000 0.0000 0.0000
vn 1.0000 0.0000 0.0000
vn 1.0000 0.0000 0.0000
vn 1.0000 0.0000 0.0000
f 17//17 18//18 19//19 20//20
g part5
usemtl metal_dark
v -0.55000 1.68000 3.50000
v -0.55000 1.68000 0.60000
v -0.55000 1.62000 0.60000
v -0.55000 1.62000 3.50000
vn -1.0000 0.0000 0.0000
vn -1.0000 0.0000 0.0000
vn -1.0000 0.0000 0.0000
vn -1.0000 0.0000 0.0000
f 21//21 22//22 23//23 24//24
g part6
usemtl metal
v 0.00000 1.62500 0.95000
v 0.00000 1.62500 0.95000
v 0.00000 1.62500 0.95000
v 0.00000 1.62500 0.95000
v 0.00000 1.62500 0.95000
v 0.00000 1.62500 0.95000
v 0.00000 1.61750 0.97598
v 0.37125 1.61750 0.96299
v 0.37125 1.61750 0.93701
v 0.00000 1.61750 0.92402
v -0.37125 1.61750 0.93701
v -0.37125 1.61750 0.96299
v 0.00000 1.60250 0.97598
v 0.37125 1.60250 0.96299
v 0.37125 1.60250 0.93701
v 0.00000 1.60250 0.92402
v -0.37125 1.60250 0.93701
v -0.37125 1.60250 0.96299
v 0.00000 1.59500 0.95000
v 0.00000 1.59500 0.95000
v 0.00000 1.59500 0.95000
v 0.00000 1.59500 0.95000
v -0.00000 1.59500 0.95000
v -0.00000 1.59500 0.95000
vn 0.0000 1.0000 0.0000
vn 0.0000 1.0000 0.0000
vn 0.0000 1.0000 -0.0000
vn 0.0000 1.0000 -0.0000
vn -0.0000 1.0000 -0.0000
vn -0.0000 1.0000 0.0000
vn 0.0000 0.7559 0.6547
vn 0.0417 0.9169 0.3970
vn 0.0417 0.9169 -0.3970
vn 0.0000 0.7559 -0.6547
vn -0.0417 0.9169 -0.3970
vn -0.0417 0.9169 0.3970
vn 0.0000 -0.7559 0.6547
vn 0.0417 -0.9169 0.3970
vn 0.0417 -0.9169 -0.3970
vn 0.0000 -0.7559 -0.6547
vn -0.0417 -0.9169 -0.3970
vn -0.0417 -0.9169 0.3970
vn 0.0000 -1.0000 0.0000
vn 0.0000 -1.0000 0.0000
vn 0.0000 -1.0000 -0.0000
vn 0.0000 -1.0000 -0.0000
vn -0.0000 -1.0000 -0.0000
vn -0.0000 -1.0000 0.0000
f 31//31 32//32 26//26 25//25
f 32//32 33//33 27//27 26//26
f 33//33 34//34 28//28 27//27
f 34//34 35//35 29//29 28//28
f 35//35 36//36 30//30 29//29
f 36//36 31//31 25//25 30//30
f 37//37 38//38 32//32 31//31
f 38//38 39//39 33//33 32//32
f 39//39 40//40 34//34 33//33
f 40//40 41//41 35//35 34//34
f 41//41 42//42 36//36 35//35
f 42//42 37//37 31//31 36//36
f 43//43 44//44 38//38 37//37
f 44//44 45//45 39//39 38//38
f 45//45 46//46 40//40 39//39
f 46//46 47//47 41//41 40//40
f 47//47 48//48 42//42 41//41
f 48//48 43//43 37//37 42//42
g part7
usemtl metal
v 0.00000 1.62500 1.41000
v 0.00000 1.62500 1.41000
v 0.00000 1.62500 1.41000
v 0.00000 1.62500 1.41000
v 0.00000 1.62500 1.41000
v 0.00000 1.62500 1.41000
v 0.00000 1.61750 1.43598
v 0.37125 1.61750 1.42299
v 0.37125 1.61750 1.39701
v 0.00000 1.61750 1.38402
v -0.37125 1.61750 1.39701
v -0.37125 1.61750 1.42299
v 0.00000 1.60250 1.43598
v 0.37125 1.60250 1.42299
v 0.37125 1.60250 1.39701
v 0.00000 1.60250 1.38402
v -0.37125 1.60250 1.39701
v -0.37125 1.60250 1.42299
v 0.00000 1.59500 1.41000
v 0.00000 1.59500 1.41000
v 0.00000 1.59500 1.41000
v 0.00000 1.59500 1.41000
v -0.00000 1.59500 1.41000
v -0.00000 1.59500 1.41000
vn 0.0000 1.0000 0.0000
vn 0.0000 1.0000 0.0000
vn 0.0000 1.0000 -0.0000
vn 0.0000 1.0000 -0.0000
vn -0.0000 1.0000 -0.0000
vn -0.0000 1.0000 0.0000
vn 0.0000 0.7559 0.6547
vn 0.0417 0.9169 0.3970
vn 0.0417 0.9169 -0.3970
vn 0.0000 0.7559 -0.6547
vn -0.0417 0.9169 -0.3970
vn -0.0417 0.9169 0.3970
vn 0.0000 -0.7559 0.6547
vn 0.0417 -0.9169 0.3970
vn 0.0417 -0.9169 -0.3970
vn 0.0000 -0.7559 -0.6547
vn -0.0417 -0.9169 -0.3970
vn -0.0417 -0.9169 0.3970
vn 0.0000 -1.0000 0.0000
vn 0.0000 -1.0000 0.0000
vn 0.0000 -1.0000 -0.0000
vn 0.0000 -1.0000 -0.0000
vn -0.0000 -1.0000 -0.0000
vn -0.0000 -1.0000 0.0000
f 55//55 56//56 50//50 49//49
f 56//56 57//57 51//51 50//50
f 57//57 58//58 52//52 51//51
f 58//58 59//59 53//53 52//52
f 59//59 60//60 54//54 53//53
f 60//60 55//55 49//49 54//54
f 61//61 62//62 56//56 55//55
f 62//62 63//63 57//57 56//56
f 63//63 64//64 58//58 57//57
f 64//64 65//65 59//59 58//58
f 65//65 66//66 60//60 59//59
f 66//66 61//61 55//55 60//60
f 67//67 68//68 62//62 61//61
f 68//68 69//69 63//63 62//62
f 69//69 70//70 64//64 63//63
f 70//70 71//71 65//65 64//64
f 71//71 72//72 66//66 65//65
f 72//72 67//67 61//61 66//66
g part8
usemtl metal
v 0.00000 1.62500 1.87000
v 0.00000 1.62500 1.87000
v 0.00000 1.62500 1.87000
v 0.00000 1.62500 1.87000
v 0.00000 1.62500 1.87000
v 0.00000 1.62500 1.87000
v 0.00000 1.61750 1.89598
v 0.37125 1.61750 1.88299
v 0.37125 1.61750 1.85701
v 0.00000 1.61750 1.84402
v -0.37125 1.61750 1.85701
v -0.37125 1.61750 1.88299
v 0.00000 1.60250 1.89598
v 0.37125 1.60250 1.88299
v 0.37125 1.60250 1.85701
v 0.00000 1.60250 1.84402
v -0.37125 1.60250 1.85701
v -0.37125 1.60250 1.88299
v 0.00000 1.59500 1.87000
v 0.00000 1.59500 1.87000
v 0.00000 1.59500 1.87000
v 0.00000 1.59500 1.87000
v -0.00000 1.59500 1.87000
v -0.00000 1.59500 1.87000
vn 0.0000 1.0000 0.0000
vn 0.0000 1.0000 0.0000
vn 0.0000 1.0000 -0.0000
vn 0.0000 1.0000 -0.0000
vn -0.0000 1.0000 -0.0000
vn -0.0000 1.0000 0.0000
vn 0.0000 0.7559 0.6547
vn 0.0417 0.9169 0.3970
vn 0.0417 0.9169 -0.3970
vn 0.0000 0.7559 -0.6547
vn -0.0417 0.9169 -0.3970
vn -0.0417 0.9169 0.3970
vn 0.0000 -0.7559 0.6547
vn 0.0417 -0.9169 0.3970
vn 0.0417 -0.9169 -0.3970
vn 0.0000 -0.7559 -0.6547
vn -0.0417 -0.9169 -0.3970
vn -0.0417 -0.9169 0.3970
vn 0.0000 -1.0000 0.0000
vn 0.0000 -1.0000 0.0000
vn 0.0000 -1.0000 -0.0000
vn 0.0000 -1.0000 -0.0000
vn -0.0000 -1.0000 -0.0000
vn -0.0000 -1.0000 0.0000
f 79//79 80//80 74//74 73//73
f 80//80 81//81 75//75 74//74
f 81//81 82//82 76//76 75//75
f 82//82 83//83 77//77 76//76
f 83//83 84//84 78//78 77//77
f 84//84 79//79 73//73 78//78
f 85//85 86//86 80//80 79//79
f 86//86 87//87 81//81 80//80
f 87//87 88//88 82//82 81//81
f 88//88 89//89 83//83 82//82
f 89//89 90//90 84//84 83//83
f 90//90 85//85 79//79 84//84
f 91//91 92//92 86//86 85//85
f 92//92 93//93 87//87 86//86
f 93//93 94//94 88//88 87//87
f 94//94 95//95 89//89 88//88
f 95//95 96//96 90//90 89//89
f 96//96 91//91 85//85 90//90
g part9
usemtl metal
v 0.00000 1.62500 2.33000
v 0.00000 1.62500 2.33000
v 0.00000 1.62500 2.33000
v 0.00000 1.62500 2.33000
v 0.00000 1.62500 2.33000
v 0.00000 1.62500 2.33000
v 0.00000 1.61750 2.35598
v 0.37125 1.61750 2.34299
v 0.37125 1.61750 2.31701
v 0.00000 1.61750 2.30402
v -0.37125 1.61750 2.31701
v -0.37125 1.61750 2.34299
v 0.00000 1.60250 2.35598
v 0.37125 1.60250 2.34299
v 0.37125 1.60250 2.31701
v 0.00000 1.60250 2.30402
v -0.37125 1.60250 2.31701
v -0.37125 1.60250 2.34299
v 0.00000 1.59500 2.33000
v 0.00000 1.59500 2.33000
v 0.00000 1.59500 2.33000
v 0.00000 1.59500 2.33000
v -0.00000 1.59500 2.33000
v -0.00000 1.59500 2.33000
vn 0.0000 1.0000 0.0000
vn 0.0000 1.0000 0.0000
vn 0.0000 1.0000 -0.0000
vn 0.0000 1.0000 -0.0000
vn -0.0000 1.0000 -0.0000
vn -0.0000 1.0000 0.0000
vn 0.0000 0.7559 0.6547
vn 0.0417 0.9169 0.3970
vn 0.0417 0.9169 -0.3970
vn 0.0000 0.7559 -0.6547
vn -0.0417 0.9169 -0.3970
vn -0.0417 0.9169 0.3970
vn 0.0000 -0.7559 0.6547
vn 0.0417 -0.9169 0.3970
vn 0.0417 -0.9169 -0.3970
vn 0.0000 -0.7559 -0.6547
vn -0.0417 -0.9169 -0.3970
vn -0.0417 -0.9169 0.3970
vn 0.0000 -1.0000 0.0000
vn 0.0000 -1.0000 0.0000
vn 0.0000 -1.0000 -0.0000
vn 0.0000 -1.0000 -0.0000
vn -0.0000 -1.0000 -0.0000
vn -0.0000 -1.0000 0.0000
f 103//103 104//104 98//98 97//97
f 104//104 105//105 99//99 98//98
f 105//105 106//106 100//100 99//99
f 106//106 107//107 101//101 100//100
f 107//107 108//108 102//102 101//101
f 108//108 103//103 97//97 102//102
f 109//109 110//110 104//104 103//103
f 110//110 111//111 105//105 104//104
f 111//111 112//112 106//106 105//105
f 112//112 113//113 107//107 106//106
f 113//113 114//114 108//108 107//107
f 114//114 109//109 103//103 108//108
f 115//115 116//116 110//110 109//109
f 116//116 117//117 111//111 110//110
f 117//117 118//118 112//112 111//111
f 118//118 119//119 113//113 112//112
f 119//119 120//120 114//114 113//113
f 120//120 115//115 109//109 114//114
g part10
usemtl metal
v 0.00000 1.62500 2.79000
v 0.00000 1.62500 2.79000
v 0.00000 1.62500 2.79000
v 0.00000 1.62500 2.79000
v 0.00000 1.62500 2.79000
v 0.00000 1.62500 2.79000
v 0.00000 1.61750 2.81598
v 0.37125 1.61750 2.80299
v 0.37125 1.61750 2.77701
v 0.00000 1.61750 2.76402
v -0.37125 1.61750 2.77701
v -0.37125 1.61750 2.80299
v 0.00000 1.60250 2.81598
v 0.37125 1.60250 2.80299
v 0.37125 1.60250 2.77701
v 0.00000 1.60250 2.76402
v -0.37125 1.60250 2.77701
v -0.37125 1.60250 2.80299
v 0.00000 1.59500 2.79000
v 0.00000 1.59500 2.79000
v 0.00000 1.59500 2.79000
v 0.00000 1.59500 2.79000
v -0.00000 1.59500 2.79000
v -0.00000 1.59500 2.79000
vn 0.0000 1.0000 0.0000
vn 0.0000 1.0000 0.0000
vn 0.0000 1.0000 -0.0000
vn 0.0000 1.0000 -0.0000
vn -0.0000 1.0000 -0.0000
vn -0.0000 1.0000 0.0000
vn 0.0000 0.7559 0.6547
vn 0.0417 0.9169 0.3970
vn 0.0417 0.9169 -0.3970
vn 0.0000 0.7559 -0.6547
vn -0.0417 0.9169 -0.3970
vn -0.0417 0.9169 0.3970
vn 0.0000 -0.7559 0.6547
vn 0.0417 -0.9169 0.3970
vn 0.0417 -0.9169 -0.3970
vn 0.0000 -0.7559 -0.6547
vn -0.0417 -0.9169 -0.3970
vn -0.0417 -0.9169 0.3970
vn 0.0000 -1.0000 0.0000
vn 0.0000 -1.0000 0.0000
vn 0.0000 -1.0000 -0.0000
vn 0.0000 -1.0000 -0.0000
vn -0.0000 -1.0000 -0.0000
vn -0.0000 -1.0000 0.0000
f 127//127 128//128 122//122 121//121
f 128//128 129//129 123//123 122//122
f 129//129 130//130 124//124 123//123
f 130//130 131//131 125//125 124//124
f 131//131 132//132 126//126 125//125
f 132//132 127//127 121//121 126//126
f 133//133 134//134 128//128 127//127
f 134//134 135//135 129//129 128//128
f 135//135 136//136 130//130 129//129
f 136//136 137//137 131//131 130//130
f 137//137 138//138 132//132 131//131
f 138//138 133//133 127//127 132//132
f 139//139 140//140 134//134 133//133
f 140//140 141//141 135//135 134//134
f 141//141 142//142 136//136 135//135
f 142//142 143//143 137//137 136//136
f 143//143 144//144 138//138 137//137
f 144//144 139//139 133//133 138//138
g part11
usemtl metal
v 0.00000 1.62500 3.25000
v 0.00000 1.62500 3.25000
v 0.00000 1.62500 3.25000
v 0.00000 1.62500 3.25000
v 0.00000 1.62500 3.25000
v 0.00000 1.62500 3.25000
v 0.00000 1.61750 3.27598
v 0.37125 1.61750 3.26299
v 0.37125 1.61750 3.23701
v 0.00000 1.61750 3.22402
v -0.37125 1.61750 3.23701
v -0.37125 1.61750 3.26299
v 0.00000 1.60250 3.27598
v 0.37125 1.60250 3.26299
v 0.37125 1.60250 3.23701
v 0.00000 1.60250 3.22402
v -0.37125 1.60250 3.23701
v -0.37125 1.60250 3.26299
v 0.00000 1.59500 3.25000
v 0.00000 1.59500 3.25000
v 0.00000 1.59500 3.25000
v 0.00000 1.59500 3.25000
v -0.00000 1.59500 3.25000
v -0.00000 1.59500 3.25000
vn 0.0000 1.0000 0.0000
vn 0.0000 1.0000 0.0000
vn 0.0000 1.0000 -0.0000
vn 0.0000 1.0000 -0.0000
vn -0.0000 1.0000 -0.0000
vn -0.0000 1.0000 0.0000
vn 0.0000 0.7559 0.6547
vn 0.0417 0.9169 0.3970
vn 0.0417 0.9169 -0.3970
vn 0.0000 0.7559 -0.6547
vn -0.0417 0.9169 -0.3970
vn -0.0417 0.9169 0.3970
vn 0.0000 -0.7559 0.6547
vn 0.0417 -0.9169 0.3970
vn 0.0417 -0.9169 -0.3970
vn 0.0000 -0.7559 -0.6547
vn -0.0417 -0.9169 -0.3970
vn -0.0417 -0.9169 0.3970
vn 0.0000 -1.0000 0.0000
vn 0.0000 -1.0000 0.0000
vn 0.0000 -1.0000 -0.0000
vn 0.0000 -1.0000 -0.0000
vn -0.0000 -1.0000 -0.0000
vn -0.0000 -1.0000 0.0000
f 151//151 152//152 146//146 145//145
f 152//152 153//153 147//147 146//146
f 153//153 154//154 148//148 147//147
f 154//154 155//155 149//149 148//148
f 155//155 156//156 150//150 149//149
f 156//156 151//151 145//145 150//150
f 157//157 158//158 152//152 151//151
f 158//158 159//159 153//153 152//152
f 159//159 160//160 154//154 153//153
f 160//160 161//161 155//155 154//154
f 161//161 162//162 156//156 155//155
f 162//162 157//157 151//151 156//156
f 163//163 164//164 158//158 157//157
f 164//164 165//165 159//159 158//158
f 165//165 166//166 160//160 159//159
f 166//166 167//167 161//161 160//160
f 167//167 168//168 162//162 161//161
f 168//168 163//163 157//157 162//162
