# generated by generate_bob.py / generate_saucer.py
mtllib saucer.mtl
o saucer_gun
g part0
usemtl metal_dark
v -0.13000 1.35626 0.03444
v -0.16031 1.35313 0.01722
v -0.16031 1.34687 -0.01722
v -0.13000 1.34374 -0.03444
v -0.09969 1.34687 -0.01722
v -0.09969 1.35313 0.01722
v -0.13000 0.80626 0.13444
v -0.16031 0.80313 0.11722
v -0.16031 0.79687 0.08278
v -0.13000 0.79374 0.06556
v -0.09969 0.79687 0.08278
v -0.09969 0.80313 0.11722
v -0.13000 1.35626 0.03444
v -0.16031 1.35313 0.01722
v -0.16031 1.34687 -0.01722
v -0.13000 1.34374 -0.03444
v -0.09969 1.34687 -0.01722
v -0.09969 1.35313 0.01722
v -0.13000 1.35000 0.00000
v -0.13000 0.80626 0.13444
v -0.16031 0.80313 0.11722
v -0.16031 0.79687 0.08278
v -0.13000 0.79374 0.06556
v -0.09969 0.79687 0.08278
v -0.09969 0.80313 0.11722
v -0.13000 0.80000 0.10000
vn 0.0000 0.1789 0.9839
vn -0.8660 0.0894 0.4919
vn -0.8660 -0.0894 -0.4919
vn -0.0000 -0.1789 -0.9839
vn 0.8660 -0.0894 -0.4919
vn 0.8660 0.0894 0.4919
vn 0.0000 0.1789 0.9839
vn -0.8660 0.0894 0.4919
vn -0.8660 -0.0894 -0.4919
vn -0.0000 -0.1789 -0.9839
vn 0.8660 -0.0894 -0.4919
vn 0.8660 0.0894 0.4919
vn -0.0000 0.9839 -0.1789
vn -0.0000 0.9839 -0.1789
vn -0.0000 0.9839 -0.1789
vn -0.0000 0.9839 -0.1789
vn -0.0000 0.9839 -0.1789
vn -0.0000 0.9839 -0.1789
vn -0.0000 0.9839 -0.1789
vn 0.0000 -0.9839 0.1789
vn 0.0000 -0.9839 0.1789
vn 0.0000 -0.9839 0.1789
vn 0.0000 -0.9839 0.1789
vn 0.0000 -0.9839 0.1789
vn 0.0000 -0.9839 0.1789
vn 0.0000 -0.9839 0.1789
f 1//1 2//2 8//8 7//7
f 2//2 3//3 9//9 8//8
f 3//3 4//4 10//10 9//9
f 4//4 5//5 11//11 10//10
f 5//5 6//6 12//12 11//11
f 6//6 1//1 7//7 12//12
f 14//14 19//19 13//13
f 15//15 19//19 14//14
f 16//16 19//19 15//15
f 17//17 19//19 16//16
f 18//18 19//19 17//17
f 13//13 19//19 18//18
f 21//21 26//26 20//20
f 22//22 26//26 21//21
f 23//23 26//26 22//22
f 24//24 26//26 23//23
f 25//25 26//26 24//24
f 20//20 26//26 25//25
g part1
usemtl metal_dark
v 0.13000 1.35626 0.03444
v 0.09969 1.35313 0.01722
v 0.09969 1.34687 -0.01722
v 0.13000 1.34374 -0.03444
v 0.16031 1.34687 -0.01722
v 0.16031 1.35313 0.01722
v 0.13000 0.80626 0.13444
v 0.09969 0.80313 0.11722
v 0.09969 0.79687 0.08278
v 0.13000 0.79374 0.06556
v 0.16031 0.79687 0.08278
v 0.16031 0.80313 0.11722
v 0.13000 1.35626 0.03444
v 0.09969 1.35313 0.01722
v 0.09969 1.34687 -0.01722
v 0.13000 1.34374 -0.03444
v 0.16031 1.34687 -0.01722
v 0.16031 1.35313 0.01722
v 0.13000 1.35000 0.00000
v 0.13000 0.80626 0.13444
v 0.09969 0.80313 0.11722
v 0.09969 0.79687 0.08278
v 0.13000 0.79374 0.06556
v 0.16031 0.79687 0.08278
v 0.16031 0.80313 0.11722
v 0.13000 0.80000 0.10000
vn 0.0000 0.1789 0.9839
vn -0.8660 0.0894 0.4919
vn -0.8660 -0.0894 -0.4919
vn -0.0000 -0.1789 -0.9839
vn 0.8660 -0.0894 -0.4919
vn 0.8660 0.0894 0.4919
vn 0.0000 0.1789 0.9839
vn -0.8660 0.0894 0.4919
vn -0.8660 -0.0894 -0.4919
vn -0.0000 -0.1789 -0.9839
vn 0.8660 -0.0894 -0.4919
vn 0.8660 0.0894 0.4919
vn -0.0000 0.9839 -0.1789
vn -0.0000 0.9839 -0.1789
vn -0.0000 0.9839 -0.1789
vn -0.0000 0.9839 -0.1789
vn -0.0000 0.9839 -0.1789
vn -0.0000 0.9839 -0.1789
vn -0.0000 0.9839 -0.1789
vn 0.0000 -0.9839 0.1789
vn 0.0000 -0.9839 0.1789
vn 0.0000 -0.9839 0.1789
vn 0.0000 -0.9839 0.1789
vn 0.0000 -0.9839 0.1789
vn 0.0000 -0.9839 0.1789
vn 0.0000 -0.9839 0.1789
f 27//27 28//28 34//34 33//33
f 28//28 29//29 35//35 34//34
f 29//29 30//30 36//36 35//35
f 30//30 31//31 37//37 36//36
f 31//31 32//32 38//38 37//37
f 32//32 27//27 33//33 38//38
f 40//40 45//45 39//39
f 41//41 45//45 40//40
f 42//42 45//45 41//41
f 43//43 45//45 42//42
f 44//44 45//45 43//43
f 39//39 45//45 44//44
f 47//47 52//52 46//46
f 48//48 52//52 47//47
f 49//49 52//52 48//48
f 50//50 52//52 49//49
f 51//51 52//52 50//50
f 46//46 52//52 51//51
g part2
usemtl metal
v 0.00000 0.90000 0.20000
v 0.00000 0.90000 0.20000
v 0.00000 0.90000 0.20000
v 0.00000 0.90000 0.20000
v 0.00000 0.90000 0.20000
v 0.00000 0.90000 0.20000
v 0.00000 0.90000 0.20000
v 0.00000 0.90000 0.20000
v 0.00000 0.90000 0.20000
v 0.00000 0.90000 0.20000
v 0.00000 0.90000 0.20000
v 0.00000 0.90000 0.20000
v 0.00000 0.88660 0.33000
v 0.03000 0.88660 0.31258
v 0.05196 0.88660 0.26500
v 0.06000 0.88660 0.20000
v 0.05196 0.88660 0.13500
v 0.03000 0.88660 0.08742
v 0.00000 0.88660 0.07000
v -0.03000 0.88660 0.08742
v -0.05196 0.88660 0.13500
v -0.06000 0.88660 0.20000
v -0.05196 0.88660 0.26500
v -0.03000 0.88660 0.31258
v 0.00000 0.85000 0.42517
v 0.05196 0.85000 0.39500
v 0.09000 0.85000 0.31258
v 0.10392 0.85000 0.20000
v 0.09000 0.85000 0.08742
v 0.05196 0.85000 0.00500
v 0.00000 0.85000 -0.02517
v -0.05196 0.85000 0.00500
v -0.09000 0.85000 0.08742
v -0.10392 0.85000 0.20000
v -0.09000 0.85000 0.31258
v -0.05196 0.85000 0.39500
v 0.00000 0.80000 0.46000
v 0.06000 0.80000 0.42517
v 0.10392 0.80000 0.33000
v 0.12000 0.80000 0.20000
v 0.10392 0.80000 0.07000
v 0.06000 0.80000 -0.02517
v 0.00000 0.80000 -0.06000
v -0.06000 0.80000 -0.02517
v -0.10392 0.80000 0.07000
v -0.12000 0.80000 0.20000
v -0.10392 0.80000 0.33000
v -0.06000 0.80000 0.42517
v 0.00000 0.75000 0.42517
v 0.05196 0.75000 0.39500
v 0.09000 0.75000 0.31258
v 0.10392 0.75000 0.20000
v 0.09000 0.75000 0.08742
v 0.05196 0.75000 0.00500
v 0.00000 0.75000 -0.02517
v -0.05196 0.75000 0.00500
v -0.09000 0.75000 0.08742
v -0.10392 0.75000 0.20000
v -0.09000 0.75000 0.31258
v -0.05196 0.75000 0.39500
v 0.00000 0.71340 0.33000
v 0.03000 0.71340 0.31258
v 0.05196 0.71340 0.26500
v 0.06000 0.71340 0.20000
v 0.05196 0.71340 0.13500
v 0.03000 0.71340 0.08742
v 0.00000 0.71340 0.07000
v -0.03000 0.71340 0.08742
v -0.05196 0.71340 0.13500
v -0.06000 0.71340 0.20000
v -0.05196 0.71340 0.26500
v -0.03000 0.71340 0.31258
v 0.00000 0.70000 0.20000
v 0.00000 0.70000 0.20000
v 0.00000 0.70000 0.20000
v 0.00000 0.70000 0.20000
v 0.00000 0.70000 0.20000
v 0.00000 0.70000 0.20000
v 0.00000 0.70000 0.20000
v -0.00000 0.70000 0.20000
v -0.00000 0.70000 0.20000
v -0.00000 0.70000 0.20000
v -0.00000 0.70000 0.20000
v -0.00000 0.70000 0.20000
vn 0.0000 1.0000 0.0000
vn 0.0000 1.0000 0.0000
vn 0.0000 1.0000 0.0000
vn 0.0000 1.0000 0.0000
vn 0.0000 1.0000 -0.0000
vn 0.0000 1.0000 -0.0000
vn 0.0000 1.0000 -0.0000
vn -0.0000 1.0000 -0.0000
vn -0.0000 1.0000 -0.0000
vn -0.0000 1.0000 -0.0000
vn -0.0000 1.0000 0.0000
vn -0.0000 1.0000 0.0000
vn 0.0000 0.9762 0.2168
vn 0.2299 0.9557 0.1838
vn 0.3826 0.9183 0.1020
vn 0.4336 0.9011 0.0000
vn 0.3826 0.9183 -0.1020
vn 0.2299 0.9557 -0.1838
vn 0.0000 0.9762 -0.2168
vn -0.2299 0.9557 -0.1838
vn -0.3826 0.9183 -0.1020
vn -0.4336 0.9011 -0.0000
vn -0.3826 0.9183 0.1020
vn -0.2299 0.9557 0.1838
vn 0.0000 0.8322 0.5544
vn 0.5301 0.7345 0.4237
vn 0.7645 0.6116 0.2037
vn 0.8220 0.5695 0.0000
vn 0.7645 0.6116 -0.2037
vn 0.5301 0.7345 -0.4237
vn 0.0000 0.8322 -0.5544
vn -0.5301 0.7345 -0.4237
vn -0.7645 0.6116 -0.2037
vn -0.8220 0.5695 -0.0000
vn -0.7645 0.6116 0.2037
vn -0.5301 0.7345 0.4237
vn 0.0000 0.0000 1.0000
vn 0.7811 0.0000 0.6244
vn 0.9663 0.0000 0.2575
vn 1.0000 0.0000 0.0000
vn 0.9663 0.0000 -0.2575
vn 0.7811 0.0000 -0.6244
vn 0.0000 0.0000 -1.0000
vn -0.7811 0.0000 -0.6244
vn -0.9663 0.0000 -0.2575
vn -1.0000 0.0000 -0.0000
vn -0.9663 0.0000 0.2575
vn -0.7811 0.0000 0.6244
vn 0.0000 -0.8322 0.5544
vn 0.5301 -0.7345 0.4237
vn 0.7645 -0.6116 0.2037
vn 0.8220 -0.5695 0.0000
vn 0.7645 -0.6116 -0.2037
vn 0.5301 -0.7345 -0.4237
vn 0.0000 -0.8322 -0.5544
vn -0.5301 -0.7345 -0.4237
vn -0.7645 -0.6116 -0.2037
vn -0.8220 -0.5695 -0.0000
vn -0.7645 -0.6116 0.2037
vn -0.5301 -0.7345 0.4237
vn 0.0000 -0.9762 0.2168
vn 0.2299 -0.9557 0.1838
vn 0.3826 -0.9183 0.1020
vn 0.4336 -0.9011 0.0000
vn 0.3826 -0.9183 -0.1020
vn 0.2299 -0.9557 -0.1838
vn 0.0000 -0.9762 -0.2168
vn -0.2299 -0.9557 -0.1838
vn -0.3826 -0.9183 -0.1020
vn -0.4336 -0.9011 -0.0000
vn -0.3826 -0.9183 0.1020
vn -0.2299 -0.9557 0.1838
vn 0.0000 -1.0000 0.0000
vn 0.0000 -1.0000 0.0000
vn 0.0000 -1.0000 0.0000
vn 0.0000 -1.0000 0.0000
vn 0.0000 -1.0000 -0.0000
vn 0.0000 -1.0000 -0.0000
vn 0.0000 -1.0000 -0.0000
vn -0.0000 -1.0000 -0.0000
vn -0.0000 -1.0000 -0.0000
vn -0.0000 -1.0000 -0.0000
vn -0.0000 -1.0000 0.0000
vn -0.0000 -1.0000 0.0000
f 65//65 66//66 54//54 53//53
f 66//66 67//67 55//55 54//54
f 67//67 68//68 56//56 55//55
f 68//68 69//69 57//57 56//56
f 69//69 70//70 58//58 57//57
f 70//70 71//71 59//59 58//58
f 71//71 72//72 60//60 59//59
f 72//72 73//73 61//61 60//60
f 73//73 74//74 62//62 61//61
f 74//74 75//75 63//63 62//62
f 75//75 76//76 64//64 63//63
f 76//76 65//65 53//53 64//64
f 77//77 78//78 66//66 65//65
f 78//78 79//79 67//67 66//66
f 79//79 80//80 68//68 67//67
f 80//80 81//81 69//69 68//68
f 81//81 82//82 70//70 69//69
f 82//82 83//83 71//71 70//70
f 83//83 84//84 72//72 71//71
f 84//84 85//85 73//73 72//72
f 85//85 86//86 74//74 73//73
f 86//86 87//87 75//75 74//74
f 87//87 88//88 76//76 75//75
f 88//88 77//77 65//65 76//76
f 89//89 90//90 78//78 77//77
f 90//90 91//91 79//79 78//78
f 91//91 92//92 80//80 79//79
f 92//92 93//93 81//81 80//80
f 93//93 94//94 82//82 81//81
f 94//94 95//95 83//83 82//82
f 95//95 96//96 84//84 83//83
f 96//96 97//97 85//85 84//84
f 97//97 98//98 86//86 85//85
f 98//98 99//99 87//87 86//86
f 99//99 100//100 88//88 87//87
f 100//100 89//89 77//77 88//88
f 101//101 102//102 90//90 89//89
f 102//102 103//103 91//91 90//90
f 103//103 104//104 92//92 91//91
f 104//104 105//105 93//93 92//92
f 105//105 106//106 94//94 93//93
f 106//106 107//107 95//95 94//94
f 107//107 108//108 96//96 95//95
f 108//108 109//109 97//97 96//96
f 109//109 110//110 98//98 97//97
f 110//110 111//111 99//99 98//98
f 111//111 112//112 100//100 99//99
f 112//112 101//101 89//89 100//100
f 113//113 114//114 102//102 101//101
f 114//114 115//115 103//103 102//102
f 115//115 116//116 104//104 103//103
f 116//116 117//117 105//105 104//104
f 117//117 118//118 106//106 105//105
f 118//118 119//119 107//107 106//106
f 119//119 120//120 108//108 107//107
f 120//120 121//121 109//109 108//108
f 121//121 122//122 110//110 109//109
f 122//122 123//123 111//111 110//110
f 123//123 124//124 112//112 111//111
f 124//124 113//113 101//101 112//112
f 125//125 126//126 114//114 113//113
f 126//126 127//127 115//115 114//114
f 127//127 128//128 116//116 115//115
f 128//128 129//129 117//117 116//116
f 129//129 130//130 118//118 117//117
f 130//130 131//131 119//119 118//118
f 131//131 132//132 120//120 119//119
f 132//132 133//133 121//121 120//120
f 133//133 134//134 122//122 121//121
f 134//134 135//135 123//123 122//122
f 135//135 136//136 124//124 123//123
f 136//136 125//125 113//113 124//124
g part3
usemtl metal_dark
v 0.00000 0.85000 0.45000
v -0.02939 0.84045 0.45000
v -0.04755 0.81545 0.45000
v -0.04755 0.78455 0.45000
v -0.02939 0.75955 0.45000
v -0.00000 0.75000 0.45000
v 0.02939 0.75955 0.45000
v 0.04755 0.78455 0.45000
v 0.04755 0.81545 0.45000
v 0.02939 0.84045 0.45000
v 0.00000 0.84000 1.60000
v -0.02351 0.83236 1.60000
v -0.03804 0.81236 1.60000
v -0.03804 0.78764 1.60000
v -0.02351 0.76764 1.60000
v -0.00000 0.76000 1.60000
v 0.02351 0.76764 1.60000
v 0.03804 0.78764 1.60000
v 0.03804 0.81236 1.60000
v 0.02351 0.83236 1.60000
v 0.00000 0.85000 0.45000
v -0.02939 0.84045 0.45000
v -0.04755 0.81545 0.45000
v -0.04755 0.78455 0.45000
v -0.02939 0.75955 0.45000
v -0.00000 0.75000 0.45000
v 0.02939 0.75955 0.45000
v 0.04755 0.78455 0.45000
v 0.04755 0.81545 0.45000
v 0.02939 0.84045 0.45000
v 0.00000 0.80000 0.45000
v 0.00000 0.84000 1.60000
v -0.02351 0.83236 1.60000
v -0.03804 0.81236 1.60000
v -0.03804 0.78764 1.60000
v -0.02351 0.76764 1.60000
v -0.00000 0.76000 1.60000
v 0.02351 0.76764 1.60000
v 0.03804 0.78764 1.60000
v 0.03804 0.81236 1.60000
v 0.02351 0.83236 1.60000
v 0.00000 0.80000 1.60000
vn 0.0000 1.0000 0.0087
vn -0.5878 0.8090 0.0087
vn -0.9510 0.3090 0.0087
vn -0.9510 -0.3090 0.0087
vn -0.5878 -0.8090 0.0087
vn 0.0000 -1.0000 0.0087
vn 0.5878 -0.8090 0.0087
vn 0.9510 -0.3090 0.0087
vn 0.9510 0.3090 0.0087
vn 0.5878 0.8090 0.0087
vn 0.0000 1.0000 0.0087
vn -0.5878 0.8090 0.0087
vn -0.9510 0.3090 0.0087
vn -0.9510 -0.3090 0.0087
vn -0.5878 -0.8090 0.0087
vn 0.0000 -1.0000 0.0087
vn 0.5878 -0.8090 0.0087
vn 0.9510 -0.3090 0.0087
vn 0.9510 0.3090 0.0087
vn 0.5878 0.8090 0.0087
vn -0.0000 -0.0000 -1.0000
vn -0.0000 -0.0000 -1.0000
vn -0.0000 -0.0000 -1.0000
vn -0.0000 -0.0000 -1.0000
vn -0.0000 -0.0000 -1.0000
vn -0.0000 -0.0000 -1.0000
vn -0.0000 -0.0000 -1.0000
vn -0.0000 -0.0000 -1.0000
vn -0.0000 -0.0000 -1.0000
vn -0.0000 -0.0000 -1.0000
vn -0.0000 -0.0000 -1.0000
vn 0.0000 0.0000 1.0000
vn 0.0000 0.0000 1.0000
vn 0.0000 0.0000 1.0000
vn 0.0000 0.0000 1.0000
vn 0.0000 0.0000 1.0000
vn 0.0000 0.0000 1.0000
vn 0.0000 0.0000 1.0000
vn 0.0000 0.0000 1.0000
vn 0.0000 0.0000 1.0000
vn 0.0000 0.0000 1.0000
vn 0.0000 0.0000 1.0000
f 137//137 138//138 148//148 147//147
f 138//138 139//139 149//149 148//148
f 139//139 140//140 150//150 149//149
f 140//140 141//141 151//151 150//150
f 141//141 142//142 152//152 151//151
f 142//142 143//143 153//153 152//152
f 143//143 144//144 154//154 153//153
f 144//144 145//145 155//155 154//154
f 145//145 146//146 156//156 155//155
f 146//146 137//137 147//147 156//156
f 158//158 167//167 157//157
f 159//159 167//167 158//158
f 160//160 167//167 159//159
f 161//161 167//167 160//160
f 162//162 167//167 161//161
f 163//163 167//167 162//162
f 164//164 167//167 163//163
f 165//165 167//167 164//164
f 166//166 167//167 165//165
f 157//157 167//167 166//166
f 169//169 178//178 168//168
f 170//170 178//178 169//169
f 171//171 178//178 170//170
f 172//172 178//178 171//171
f 173//173 178//178 172//172
f 174//174 178//178 173//173
f 175//175 178//178 174//174
f 176//176 178//178 175//175
f 177//177 178//178 176//176
f 168//168 178//178 177//177
g part4
usemtl metal
v 0.00000 0.87000 0.75000
v 0.00000 0.87000 0.75000
v 0.00000 0.87000 0.75000
v 0.00000 0.87000 0.75000
v 0.00000 0.87000 0.75000
v 0.00000 0.87000 0.75000
v 0.00000 0.87000 0.75000
v 0.00000 0.87000 0.75000
v 0.00000 0.87000 0.75000
v 0.00000 0.87000 0.75000
v 0.00000 0.84950 0.77121
v 0.02909 0.84950 0.76716
v 0.04707 0.84950 0.75656
v 0.04707 0.84950 0.74344
v 0.02909 0.84950 0.73284
v 0.00000 0.84950 0.72879
v -0.02909 0.84950 0.73284
v -0.04707 0.84950 0.74344
v -0.04707 0.84950 0.75656
v -0.02909 0.84950 0.76716
v 0.00000 0.80000 0.78000
v 0.04114 0.80000 0.77427
v 0.06657 0.80000 0.75927
v 0.06657 0.80000 0.74073
v 0.04114 0.80000 0.72573
v 0.00000 0.80000 0.72000
v -0.04114 0.80000 0.72573
v -0.06657 0.80000 0.74073
v -0.06657 0.80000 0.75927
v -0.04114 0.80000 0.77427
v 0.00000 0.75050 0.77121
v 0.02909 0.75050 0.76716
v 0.04707 0.75050 0.75656
v 0.04707 0.75050 0.74344
v 0.02909 0.75050 0.73284
v 0.00000 0.75050 0.72879
v -0.02909 0.75050 0.73284
v -0.04707 0.75050 0.74344
v -0.04707 0.75050 0.75656
v -0.02909 0.75050 0.76716
v 0.00000 0.73000 0.75000
v 0.00000 0.73000 0.75000
v 0.00000 0.73000 0.75000
v 0.00000 0.73000 0.75000
v 0.00000 0.73000 0.75000
v 0.00000 0.73000 0.75000
v -0.00000 0.73000 0.75000
v -0.00000 0.73000 0.75000
v -0.00000 0.73000 0.75000
v -0.00000 0.73000 0.75000
vn 0.0000 1.0000 0.0000
vn 0.0000 1.0000 0.0000
vn 0.0000 1.0000 0.0000
vn 0.0000 1.0000 -0.0000
vn 0.0000 1.0000 -0.0000
vn 0.0000 1.0000 -0.0000
vn -0.0000 1.0000 -0.0000
vn -0.0000 1.0000 -0.0000
vn -0.0000 1.0000 0.0000
vn -0.0000 1.0000 0.0000
vn 0.0000 0.3939 0.9191
vn 0.2653 0.4513 0.8520
vn 0.6108 0.6422 0.4631
vn 0.6108 0.6422 -0.4631
vn 0.2653 0.4513 -0.8520
vn 0.0000 0.3939 -0.9191
vn -0.2653 0.4513 -0.8520
vn -0.6108 0.6422 -0.4631
vn -0.6108 0.6422 0.4631
vn -0.2653 0.4513 0.8520
vn 0.0000 0.0000 1.0000
vn 0.2973 0.0000 0.9548
vn 0.7969 0.0000 0.6041
vn 0.7969 0.0000 -0.6041
vn 0.2973 0.0000 -0.9548
vn 0.0000 0.0000 -1.0000
vn -0.2973 0.0000 -0.9548
vn -0.7969 0.0000 -0.6041
vn -0.7969 0.0000 0.6041
vn -0.2973 0.0000 0.9548
vn 0.0000 -0.3939 0.9191
vn 0.2653 -0.4513 0.8520
vn 0.6108 -0.6422 0.4631
vn 0.6108 -0.6422 -0.4631
vn 0.2653 -0.4513 -0.8520
vn 0.0000 -0.3939 -0.9191
vn -0.2653 -0.4513 -0.8520
vn -0.6108 -0.6422 -0.4631
vn -0.6108 -0.6422 0.4631
vn -0.2653 -0.4513 0.8520
vn 0.0000 -1.0000 0.0000
vn 0.0000 -1.0000 0.0000
vn 0.0000 -1.0000 0.0000
vn 0.0000 -1.0000 -0.0000
vn 0.0000 -1.0000 -0.0000
vn 0.0000 -1.0000 -0.0000
vn -0.0000 -1.0000 -0.0000
vn -0.0000 -1.0000 -0.0000
vn -0.0000 -1.0000 0.0000
vn -0.0000 -1.0000 0.0000
f 189//189 190//190 180//180 179//179
f 190//190 191//191 181//181 180//180
f 191//191 192//192 182//182 181//181
f 192//192 193//193 183//183 182//182
f 193//193 194//194 184//184 183//183
f 194//194 195//195 185//185 184//184
f 195//195 196//196 186//186 185//185
f 196//196 197//197 187//187 186//186
f 197//197 198//198 188//188 187//187
f 198//198 189//189 179//179 188//188
f 199//199 200//200 190//190 189//189
f 200//200 201//201 191//191 190//190
f 201//201 202//202 192//192 191//191
f 202//202 203//203 193//193 192//192
f 203//203 204//204 194//194 193//193
f 204//204 205//205 195//195 194//194
f 205//205 206//206 196//196 195//195
f 206//206 207//207 197//197 196//196
f 207//207 208//208 198//198 197//197
f 208//208 199//199 189//189 198//198
f 209//209 210//210 200//200 199//199
f 210//210 211//211 201//201 200//200
f 211//211 212//212 202//202 201//201
f 212//212 213//213 203//203 202//202
f 213//213 214//214 204//204 203//203
f 214//214 215//215 205//205 204//204
f 215//215 216//216 206//206 205//205
f 216//216 217//217 207//207 206//206
f 217//217 218//218 208//208 207//207
f 218//218 209//209 199//199 208//208
f 219//219 220//220 210//210 209//209
f 220//220 221//221 211//211 210//210
f 221//221 222//222 212//212 211//211
f 222//222 223//223 213//213 212//212
f 223//223 224//224 214//214 213//213
f 224//224 225//225 215//215 214//214
f 225//225 226//226 216//216 215//215
f 226//226 227//227 217//217 216//216
f 227//227 228//228 218//218 217//217
f 228//228 219//219 209//209 218//218
g part5
usemtl metal
v 0.00000 0.87000 1.05000
v 0.00000 0.87000 1.05000
v 0.00000 0.87000 1.05000
v 0.00000 0.87000 1.05000
v 0.00000 0.87000 1.05000
v 0.00000 0.87000 1.05000
v 0.00000 0.87000 1.05000
v 0.00000 0.87000 1.05000
v 0.00000 0.87000 1.05000
v 0.00000 0.87000 1.05000
v 0.00000 0.84950 1.07121
v 0.02909 0.84950 1.06716
v 0.04707 0.84950 1.05656
v 0.04707 0.84950 1.04344
v 0.02909 0.84950 1.03284
v 0.00000 0.84950 1.02879
v -0.02909 0.84950 1.03284
v -0.04707 0.84950 1.04344
v -0.04707 0.84950 1.05656
v -0.02909 0.84950 1.06716
v 0.00000 0.80000 1.08000
v 0.04114 0.80000 1.07427
v 0.06657 0.80000 1.05927
v 0.06657 0.80000 1.04073
v 0.04114 0.80000 1.02573
v 0.00000 0.80000 1.02000
v -0.04114 0.80000 1.02573
v -0.06657 0.80000 1.04073
v -0.06657 0.80000 1.05927
v -0.04114 0.80000 1.07427
v 0.00000 0.75050 1.07121
v 0.02909 0.75050 1.06716
v 0.04707 0.75050 1.05656
v 0.04707 0.75050 1.04344
v 0.02909 0.75050 1.03284
v 0.00000 0.75050 1.02879
v -0.02909 0.75050 1.03284
v -0.04707 0.75050 1.04344
v -0.04707 0.75050 1.05656
v -0.02909 0.75050 1.06716
v 0.00000 0.73000 1.05000
v 0.00000 0.73000 1.05000
v 0.00000 0.73000 1.05000
v 0.00000 0.73000 1.05000
v 0.00000 0.73000 1.05000
v 0.00000 0.73000 1.05000
v -0.00000 0.73000 1.05000
v -0.00000 0.73000 1.05000
v -0.00000 0.73000 1.05000
v -0.00000 0.73000 1.05000
vn 0.0000 1.0000 0.0000
vn 0.0000 1.0000 0.0000
vn 0.0000 1.0000 0.0000
vn 0.0000 1.0000 -0.0000
vn 0.0000 1.0000 -0.0000
vn 0.0000 1.0000 -0.0000
vn -0.0000 1.0000 -0.0000
vn -0.0000 1.0000 -0.0000
vn -0.0000 1.0000 0.0000
vn -0.0000 1.0000 0.0000
vn 0.0000 0.3939 0.9191
vn 0.2653 0.4513 0.8520
vn 0.6108 0.6422 0.4631
vn 0.6108 0.6422 -0.4631
vn 0.2653 0.4513 -0.8520
vn 0.0000 0.3939 -0.9191
vn -0.2653 0.4513 -0.8520
vn -0.6108 0.6422 -0.4631
vn -0.6108 0.6422 0.4631
vn -0.2653 0.4513 0.8520
vn 0.0000 0.0000 1.0000
vn 0.2973 0.0000 0.9548
vn 0.7969 0.0000 0.6041
vn 0.7969 0.0000 -0.6041
vn 0.2973 0.0000 -0.9548
vn 0.0000 0.0000 -1.0000
vn -0.2973 0.0000 -0.9548
vn -0.7969 0.0000 -0.6041
vn -0.7969 0.0000 0.6041
vn -0.2973 0.0000 0.9548
vn 0.0000 -0.3939 0.9191
vn 0.2653 -0.4513 0.8520
vn 0.6108 -0.6422 0.4631
vn 0.6108 -0.6422 -0.4631
vn 0.2653 -0.4513 -0.8520
vn 0.0000 -0.3939 -0.9191
vn -0.2653 -0.4513 -0.8520
vn -0.6108 -0.6422 -0.4631
vn -0.6108 -0.6422 0.4631
vn -0.2653 -0.4513 0.8520
vn 0.0000 -1.0000 0.0000
vn 0.0000 -1.0000 0.0000
vn 0.0000 -1.0000 0.0000
vn 0.0000 -1.0000 -0.0000
vn 0.0000 -1.0000 -0.0000
vn 0.0000 -1.0000 -0.0000
vn -0.0000 -1.0000 -0.0000
vn -0.0000 -1.0000 -0.0000
vn -0.0000 -1.0000 0.0000
vn -0.0000 -1.0000 0.0000
f 239//239 240//240 230//230 229//229
f 240//240 241//241 231//231 230//230
f 241//241 242//242 232//232 231//231
f 242//242 243//243 233//233 232//232
f 243//243 244//244 234//234 233//233
f 244//244 245//245 235//235 234//234
f 245//245 246//246 236//236 235//235
f 246//246 247//247 237//237 236//236
f 247//247 248//248 238//238 237//237
f 248//248 239//239 229//229 238//238
f 249//249 250//250 240//240 239//239
f 250//250 251//251 241//241 240//240
f 251//251 252//252 242//242 241//241
f 252//252 253//253 243//243 242//242
f 253//253 254//254 244//244 243//243
f 254//254 255//255 245//245 244//244
f 255//255 256//256 246//246 245//245
f 256//256 257//257 247//247 246//246
f 257//257 258//258 248//248 247//247
f 258//258 249//249 239//239 248//248
f 259//259 260//260 250//250 249//249
f 260//260 261//261 251//251 250//250
f 261//261 262//262 252//252 251//251
f 262//262 263//263 253//253 252//252
f 263//263 264//264 254//254 253//253
f 264//264 265//265 255//255 254//254
f 265//265 266//266 256//256 255//255
f 266//266 267//267 257//257 256//256
f 267//267 268//268 258//258 257//257
f 268//268 259//259 249//249 258//258
f 269//269 270//270 260//260 259//259
f 270//270 271//271 261//261 260//260
f 271//271 272//272 262//262 261//261
f 272//272 273//273 263//263 262//262
f 273//273 274//274 264//264 263//263
f 274//274 275//275 265//265 264//264
f 275//275 276//276 266//266 265//265
f 276//276 277//277 267//267 266//266
f 277//277 278//278 268//268 267//267
f 278//278 269//269 259//259 268//268
g part6
usemtl metal
v 0.00000 0.87000 1.35000
v 0.00000 0.87000 1.35000
v 0.00000 0.87000 1.35000
v 0.00000 0.87000 1.35000
v 0.00000 0.87000 1.35000
v 0.00000 0.87000 1.35000
v 0.00000 0.87000 1.35000
v 0.00000 0.87000 1.35000
v 0.00000 0.87000 1.35000
v 0.00000 0.87000 1.35000
v 0.00000 0.84950 1.37121
v 0.02909 0.84950 1.36716
v 0.04707 0.84950 1.35656
v 0.04707 0.84950 1.34344
v 0.02909 0.84950 1.33284
v 0.00000 0.84950 1.32879
v -0.02909 0.84950 1.33284
v -0.04707 0.84950 1.34344
v -0.04707 0.84950 1.35656
v -0.02909 0.84950 1.36716
v 0.00000 0.80000 1.38000
v 0.04114 0.80000 1.37427
v 0.06657 0.80000 1.35927
v 0.06657 0.80000 1.34073
v 0.04114 0.80000 1.32573
v 0.00000 0.80000 1.32000
v -0.04114 0.80000 1.32573
v -0.06657 0.80000 1.34073
v -0.06657 0.80000 1.35927
v -0.04114 0.80000 1.37427
v 0.00000 0.75050 1.37121
v 0.02909 0.75050 1.36716
v 0.04707 0.75050 1.35656
v 0.04707 0.75050 1.34344
v 0.02909 0.75050 1.33284
v 0.00000 0.75050 1.32879
v -0.02909 0.75050 1.33284
v -0.04707 0.75050 1.34344
v -0.04707 0.75050 1.35656
v -0.02909 0.75050 1.36716
v 0.00000 0.73000 1.35000
v 0.00000 0.73000 1.35000
v 0.00000 0.73000 1.35000
v 0.00000 0.73000 1.35000
v 0.00000 0.73000 1.35000
v 0.00000 0.73000 1.35000
v -0.00000 0.73000 1.35000
v -0.00000 0.73000 1.35000
v -0.00000 0.73000 1.35000
v -0.00000 0.73000 1.35000
vn 0.0000 1.0000 0.0000
vn 0.0000 1.0000 0.0000
vn 0.0000 1.0000 0.0000
vn 0.0000 1.0000 -0.0000
vn 0.0000 1.0000 -0.0000
vn 0.0000 1.0000 -0.0000
vn -0.0000 1.0000 -0.0000
vn -0.0000 1.0000 -0.0000
vn -0.0000 1.0000 0.0000
vn -0.0000 1.0000 0.0000
vn 0.0000 0.3939 0.9191
vn 0.2653 0.4513 0.8520
vn 0.6108 0.6422 0.4631
vn 0.6108 0.6422 -0.4631
vn 0.2653 0.4513 -0.8520
vn 0.0000 0.3939 -0.9191
vn -0.2653 0.4513 -0.8520
vn -0.6108 0.6422 -0.4631
vn -0.6108 0.6422 0.4631
vn -0.2653 0.4513 0.8520
vn 0.0000 0.0000 1.0000
vn 0.2973 0.0000 0.9548
vn 0.7969 0.0000 0.6041
vn 0.7969 0.0000 -0.6041
vn 0.2973 0.0000 -0.9548
vn 0.0000 0.0000 -1.0000
vn -0.2973 0.0000 -0.9548
vn -0.7969 0.0000 -0.6041
vn -0.7969 0.0000 0.6041
vn -0.2973 0.0000 0.9548
vn 0.0000 -0.3939 0.9191
vn 0.2653 -0.4513 0.8520
vn 0.6108 -0.6422 0.4631
vn 0.6108 -0.6422 -0.4631
vn 0.2653 -0.4513 -0.8520
vn 0.0000 -0.3939 -0.9191
vn -0.2653 -0.4513 -0.8520
vn -0.6108 -0.6422 -0.4631
vn -0.6108 -0.6422 0.4631
vn -0.2653 -0.4513 0.8520
vn 0.0000 -1.0000 0.0000
vn 0.0000 -1.0000 0.0000
vn 0.0000 -1.0000 0.0000
vn 0.0000 -1.0000 -0.0000
vn 0.0000 -1.0000 -0.0000
vn 0.0000 -1.0000 -0.0000
vn -0.0000 -1.0000 -0.0000
vn -0.0000 -1.0000 -0.0000
vn -0.0000 -1.0000 0.0000
vn -0.0000 -1.0000 0.0000
f 289//289 290//290 280//280 279//279
f 290//290 291//291 281//281 280//280
f 291//291 292//292 282//282 281//281
f 292//292 293//293 283//283 282//282
f 293//293 294//294 284//284 283//283
f 294//294 295//295 285//285 284//284
f 295//295 296//296 286//286 285//285
f 296//296 297//297 287//287 286//286
f 297//297 298//298 288//288 287//287
f 298//298 289//289 279//279 288//288
f 299//299 300//300 290//290 289//289
f 300//300 301//301 291//291 290//290
f 301//301 302//302 292//292 291//291
f 302//302 303//303 293//293 292//292
f 303//303 304//304 294//294 293//293
f 304//304 305//305 295//295 294//294
f 305//305 306//306 296//296 295//295
f 306//306 307//307 297//297 296//296
f 307//307 308//308 298//298 297//297
f 308//308 299//299 289//289 298//298
f 309//309 310//310 300//300 299//299
f 310//310 311//311 301//301 300//300
f 311//311 312//312 302//302 301//301
f 312//312 313//313 303//303 302//302
f 313//313 314//314 304//304 303//303
f 314//314 315//315 305//305 304//304
f 315//315 316//316 306//306 305//305
f 316//316 317//317 307//307 306//306
f 317//317 318//318 308//308 307//307
f 318//318 309//309 299//299 308//308
f 319//319 320//320 310//310 309//309
f 320//320 321//321 311//311 310//310
f 321//321 322//322 312//312 311//311
f 322//322 323//323 313//313 312//312
f 323//323 324//324 314//314 313//313
f 324//324 325//325 315//315 314//314
f 325//325 326//326 316//316 315//315
f 326//326 327//327 317//317 316//316
f 327//327 328//328 318//318 317//317
f 328//328 319//319 309//309 318//318
g part7
usemtl light
v 0.00000 0.84500 1.61000
v 0.00000 0.84500 1.61000
v 0.00000 0.84500 1.61000
v 0.00000 0.84500 1.61000
v 0.00000 0.84500 1.61000
v 0.00000 0.84500 1.61000
v 0.00000 0.84500 1.61000
v 0.00000 0.84500 1.61000
v 0.00000 0.83182 1.62414
v 0.02250 0.83182 1.62000
v 0.03182 0.83182 1.61000
v 0.02250 0.83182 1.60000
v 0.00000 0.83182 1.59586
v -0.02250 0.83182 1.60000
v -0.03182 0.83182 1.61000
v -0.02250 0.83182 1.62000
v 0.00000 0.80000 1.63000
v 0.03182 0.80000 1.62414
v 0.04500 0.80000 1.61000
v 0.03182 0.80000 1.59586
v 0.00000 0.80000 1.59000
v -0.03182 0.80000 1.59586
v -0.04500 0.80000 1.61000
v -0.03182 0.80000 1.62414
v 0.00000 0.76818 1.62414
v 0.02250 0.76818 1.62000
v 0.03182 0.76818 1.61000
v 0.02250 0.76818 1.60000
v 0.00000 0.76818 1.59586
v -0.02250 0.76818 1.60000
v -0.03182 0.76818 1.61000
v -0.02250 0.76818 1.62000
v 0.00000 0.75500 1.61000
v 0.00000 0.75500 1.61000
v 0.00000 0.75500 1.61000
v 0.00000 0.75500 1.61000
v 0.00000 0.75500 1.61000
v -0.00000 0.75500 1.61000
v -0.00000 0.75500 1.61000
v -0.00000 0.75500 1.61000
vn 0.0000 1.0000 0.0000
vn 0.0000 1.0000 0.0000
vn 0.0000 1.0000 0.0000
vn 0.0000 1.0000 -0.0000
vn 0.0000 1.0000 -0.0000
vn -0.0000 1.0000 -0.0000
vn -0.0000 1.0000 -0.0000
vn -0.0000 1.0000 0.0000
vn 0.0000 0.4061 0.9138
vn 0.3522 0.4981 0.7924
vn 0.7071 0.7071 0.0000
vn 0.3522 0.4981 -0.7924
vn 0.0000 0.4061 -0.9138
vn -0.3522 0.4981 -0.7924
vn -0.7071 0.7071 -0.0000
vn -0.3522 0.4981 0.7924
vn 0.0000 0.0000 1.0000
vn 0.4061 0.0000 0.9138
vn 1.0000 0.0000 0.0000
vn 0.4061 0.0000 -0.9138
vn 0.0000 0.0000 -1.0000
vn -0.4061 0.0000 -0.9138
vn -1.0000 0.0000 -0.0000
vn -0.4061 0.0000 0.9138
vn 0.0000 -0.4061 0.9138
vn 0.3522 -0.4981 0.7924
vn 0.7071 -0.7071 0.0000
vn 0.3522 -0.4981 -0.7924
vn 0.0000 -0.4061 -0.9138
vn -0.3522 -0.4981 -0.7924
vn -0.7071 -0.7071 -0.0000
vn -0.3522 -0.4981 0.7924
vn 0.0000 -1.0000 0.0000
vn 0.0000 -1.0000 0.0000
vn 0.0000 -1.0000 0.0000
vn 0.0000 -1.0000 -0.0000
vn 0.0000 -1.0000 -0.0000
vn -0.0000 -1.0000 -0.0000
vn -0.0000 -1.0000 -0.0000
vn -0.0000 -1.0000 0.0000
f 337//337 338//338 330//330 329//329
f 338//338 339//339 331//331 330//330
f 339//339 340//340 332//332 331//331
f 340//340 341//341 333//333 332//332
f 341//341 342//342 334//334 333//333
f 342//342 343//343 335//335 334//334
f 343//343 344//344 336//336 335//335
f 344//344 337//337 329//329 336//336
f 345//345 346//346 338//338 337//337
f 346//346 347//347 339//339 338//338
f 347//347 348//348 340//340 339//339
f 348//348 349//349 341//341 340//340
f 349//349 350//350 342//342 341//341
f 350//350 351//351 343//343 342//342
f 351//351 352//352 344//344 343//343
f 352//352 345//345 337//337 344//344
f 353//353 354//354 346//346 345//345
f 354//354 355//355 347//347 346//346
f 355//355 356//356 348//348 347//347
f 356//356 357//357 349//349 348//348
f 357//357 358//358 350//350 349//349
f 358//358 359//359 351//351 350//350
f 359//359 360//360 352//352 351//351
f 360//360 353//353 345//345 352//352
f 361//361 362//362 354//354 353//353
f 362//362 363//363 355//355 354//354
f 363//363 364//364 356//356 355//355
f 364//364 365//365 357//357 356//356
f 365//365 366//366 358//358 357//357
f 366//366 367//367 359//359 358//358
f 367//367 368//368 360//360 359//359
f 368//368 361//361 353//353 360//360
