# generated by generate_bob.py / generate_saucer.py
mtllib saucer.mtl
o saucer_beam
g part0
usemtl beam
v 2.60000 0.00000 0.00000
v 2.56799 0.00000 0.40673
v 2.47275 0.00000 0.80344
v 2.31662 0.00000 1.18038
v 2.10344 0.00000 1.52824
v 1.83848 0.00000 1.83848
v 1.52824 0.00000 2.10344
v 1.18038 0.00000 2.31662
v 0.80344 0.00000 2.47275
v 0.40673 0.00000 2.56799
v 0.00000 0.00000 2.60000
v -0.40673 0.00000 2.56799
v -0.80344 0.00000 2.47275
v -1.18038 0.00000 2.31662
v -1.52824 0.00000 2.10344
v -1.83848 0.00000 1.83848
v -2.10344 0.00000 1.52824
v -2.31662 0.00000 1.18038
v -2.47275 0.00000 0.80344
v -2.56799 0.00000 0.40673
v -2.60000 0.00000 0.00000
v -2.56799 0.00000 -0.40673
v -2.47275 0.00000 -0.80344
v -2.31662 0.00000 -1.18038
v -2.10344 0.00000 -1.52824
v -1.83848 0.00000 -1.83848
v -1.52824 0.00000 -2.10344
v -1.18038 0.00000 -2.31662
v -0.80344 0.00000 -2.47275
v -0.40673 0.00000 -2.56799
v -0.00000 0.00000 -2.60000
v 0.40673 0.00000 -2.56799
v 0.80344 0.00000 -2.47275
v 1.18038 0.00000 -2.31662
v 1.52824 0.00000 -2.10344
v 1.83848 0.00000 -1.83848
v 2.10344 0.00000 -1.52824
v 2.31662 0.00000 -1.18038
v 2.47275 0.00000 -0.80344
v 2.56799 0.00000 -0.40673
v 1.20000 1.60000 0.00000
v 1.18523 1.60000 0.18772
v 1.14127 1.60000 0.37082
v 1.06921 1.60000 0.54479
v 0.97082 1.60000 0.70534
v 0.84853 1.60000 0.84853
v 0.70534 1.60000 0.97082
v 0.54479 1.60000 1.06921
v 0.37082 1.60000 1.14127
v 0.18772 1.60000 1.18523
v 0.00000 1.60000 1.20000
v -0.18772 1.60000 1.18523
v -0.37082 1.60000 1.14127
v -0.54479 1.60000 1.06921
v -0.70534 1.60000 0.97082
v -0.84853 1.60000 0.84853
v -0.97082 1.60000 0.70534
v -1.06921 1.60000 0.54479
v -1.14127 1.60000 0.37082
v -1.18523 1.60000 0.18772
v -1.20000 1.60000 0.00000
v -1.18523 1.60000 -0.18772
v -1.14127 1.60000 -0.37082
v -1.06921 1.60000 -0.54479
v -0.97082 1.60000 -0.70534
v -0.84853 1.60000 -0.84853
v -0.70534 1.60000 -0.97082
v -0.54479 1.60000 -1.06921
v -0.37082 1.60000 -1.14127
v -0.18772 1.60000 -1.18523
v -0.00000 1.60000 -1.20000
v 0.18772 1.60000 -1.18523
v 0.37082 1.60000 -1.14127
v 0.54479 1.60000 -1.06921
v 0.70534 1.60000 -0.97082
v 0.84853 1.60000 -0.84853
v 0.97082 1.60000 -0.70534
v 1.06921 1.60000 -0.54479
v 1.14127 1.60000 -0.37082
v 1.18523 1.60000 -0.18772
vn 0.7526 0.6585 0.0000
vn 0.7433 0.6585 0.1177
vn 0.7157 0.6585 0.2326
vn 0.6706 0.6585 0.3417
vn 0.6088 0.6585 0.4424
vn 0.5322 0.6585 0.5322
vn 0.4424 0.6585 0.6088
vn 0.3417 0.6585 0.6706
vn 0.2326 0.6585 0.7157
vn 0.1177 0.6585 0.7433
vn 0.0000 0.6585 0.7526
vn -0.1177 0.6585 0.7433
vn -0.2326 0.6585 0.7157
vn -0.3417 0.6585 0.6706
vn -0.4424 0.6585 0.6088
vn -0.5322 0.6585 0.5322
vn -0.6088 0.6585 0.4424
vn -0.6706 0.6585 0.3417
vn -0.7157 0.6585 0.2326
vn -0.7433 0.6585 0.1177
vn -0.7526 0.6585 0.0000
vn -0.7433 0.6585 -0.1177
vn -0.7157 0.6585 -0.2326
vn -0.6706 0.6585 -0.3417
vn -0.6088 0.6585 -0.4424
vn -0.5322 0.6585 -0.5322
vn -0.4424 0.6585 -0.6088
vn -0.3417 0.6585 -0.6706
vn -0.2326 0.6585 -0.7157
vn -0.1177 0.6585 -0.7433
vn -0.0000 0.6585 -0.7526
vn 0.1177 0.6585 -0.7433
vn 0.2326 0.6585 -0.7157
vn 0.3417 0.6585 -0.6706
vn 0.4424 0.6585 -0.6088
vn 0.5322 0.6585 -0.5322
vn 0.6088 0.6585 -0.4424
vn 0.6706 0.6585 -0.3417
vn 0.7157 0.6585 -0.2326
vn 0.7433 0.6585 -0.1177
vn 0.7526 0.6585 0.0000
vn 0.7433 0.6585 0.1177
vn 0.7157 0.6585 0.2326
vn 0.6706 0.6585 0.3417
vn 0.6088 0.6585 0.4424
vn 0.5322 0.6585 0.5322
vn 0.4424 0.6585 0.6088
vn 0.3417 0.6585 0.6706
vn 0.2326 0.6585 0.7157
vn 0.1177 0.6585 0.7433
vn 0.0000 0.6585 0.7526
vn -0.1177 0.6585 0.7433
vn -0.2326 0.6585 0.7157
vn -0.3417 0.6585 0.6706
vn -0.4424 0.6585 0.6088
vn -0.5322 0.6585 0.5322
vn -0.6088 0.6585 0.4424
vn -0.6706 0.6585 0.3417
vn -0.7157 0.6585 0.2326
vn -0.7433 0.6585 0.1177
vn -0.7526 0.6585 0.0000
vn -0.7433 0.6585 -0.1177
vn -0.7157 0.6585 -0.2326
vn -0.6706 0.6585 -0.3417
vn -0.6088 0.6585 -0.4424
vn -0.5322 0.6585 -0.5322
vn -0.4424 0.6585 -0.6088
vn -0.3417 0.6585 -0.6706
vn -0.2326 0.6585 -0.7157
vn -0.1177 0.6585 -0.7433
vn -0.0000 0.6585 -0.7526
vn 0.1177 0.6585 -0.7433
vn 0.2326 0.6585 -0.7157
vn 0.3417 0.6585 -0.6706
vn 0.4424 0.6585 -0.6088
vn 0.5322 0.6585 -0.5322
vn 0.6088 0.6585 -0.4424
vn 0.6706 0.6585 -0.3417
vn 0.7157 0.6585 -0.2326
vn 0.7433 0.6585 -0.1177
f 1//1 41//41 42//42 2//2
f 2//2 42//42 43//43 3//3
f 3//3 43//43 44//44 4//4
f 4//4 44//44 45//45 5//5
f 5//5 45//45 46//46 6//6
f 6//6 46//46 47//47 7//7
f 7//7 47//47 48//48 8//8
f 8//8 48//48 49//49 9//9
f 9//9 49//49 50//50 10//10
f 10//10 50//50 51//51 11//11
f 11//11 51//51 52//52 12//12
f 12//12 52//52 53//53 13//13
f 13//13 53//53 54//54 14//14
f 14//14 54//54 55//55 15//15
f 15//15 55//55 56//56 16//16
f 16//16 56//56 57//57 17//17
f 17//17 57//57 58//58 18//18
f 18//18 58//58 59//59 19//19
f 19//19 59//59 60//60 20//20
f 20//20 60//60 61//61 21//21
f 21//21 61//61 62//62 22//22
f 22//22 62//62 63//63 23//23
f 23//23 63//63 64//64 24//24
f 24//24 64//64 65//65 25//25
f 25//25 65//65 66//66 26//26
f 26//26 66//66 67//67 27//27
f 27//27 67//67 68//68 28//28
f 28//28 68//68 69//69 29//29
f 29//29 69//69 70//70 30//30
f 30//30 70//70 71//71 31//31
f 31//31 71//71 72//72 32//32
f 32//32 72//72 73//73 33//33
f 33//33 73//73 74//74 34//34
f 34//34 74//74 75//75 35//35
f 35//35 75//75 76//76 36//36
f 36//36 76//76 77//77 37//37
f 37//37 77//77 78//78 38//38
f 38//38 78//78 79//79 39//39
f 39//39 79//79 80//80 40//40
f 40//40 80//80 41//41 1//1
