# generated by generate_creature.py
mtllib creature.mtl
o creature_eyes
v 0.21874 3.52294 1.27024
v 0.21874 3.52294 1.27024
v 0.21874 3.52294 1.27024
v 0.21874 3.52294 1.27024
v 0.21874 3.52294 1.27024
v 0.21874 3.52294 1.27024
v 0.21874 3.52294 1.27024
v 0.21874 3.52294 1.27024
v 0.21874 3.52294 1.27024
v 0.21874 3.52294 1.27024
v 0.21874 3.52294 1.27024
v 0.21874 3.52294 1.27024
v 0.21874 3.52294 1.27024
v 0.21874 3.52294 1.27024
v 0.21874 3.52294 1.27024
v 0.24093 3.50797 1.27222
v 0.23802 3.50892 1.27557
v 0.23107 3.51223 1.27777
v 0.22145 3.51724 1.27840
v 0.21108 3.52295 1.27731
v 0.20200 3.52825 1.27474
v 0.19603 3.53207 1.27118
v 0.19433 3.53366 1.26735
v 0.19723 3.53271 1.26401
v 0.20417 3.52940 1.26183
v 0.21378 3.52439 1.26122
v 0.22414 3.51868 1.26230
v 0.23322 3.51338 1.26487
v 0.23922 3.50956 1.26840
v 0.24093 3.50797 1.27222
v 0.25753 3.49103 1.27297
v 0.25215 3.49279 1.27916
v 0.23929 3.49890 1.28326
v 0.22149 3.50815 1.28444
v 0.20231 3.51871 1.28245
v 0.18554 3.52849 1.27769
v 0.17450 3.53555 1.27111
v 0.17136 3.53849 1.26403
v 0.17673 3.53673 1.25787
v 0.18955 3.53062 1.25384
v 0.20730 3.52137 1.25271
v 0.22646 3.51081 1.25471
v 0.24326 3.50103 1.25942
v 0.25435 3.49397 1.26593
v 0.25753 3.49103 1.27297
v 0.26603 3.47469 1.27239
v 0.25900 3.47699 1.28048
v 0.24217 3.48497 1.28586
v 0.21889 3.49706 1.28744
v 0.19379 3.51086 1.28487
v 0.17187 3.52363 1.27866
v 0.15744 3.53286 1.27006
v 0.15333 3.53670 1.26082
v 0.16035 3.53440 1.25277
v 0.17710 3.52642 1.24750
v 0.20029 3.51433 1.24602
v 0.22536 3.50053 1.24859
v 0.24733 3.48775 1.25472
v 0.26186 3.47853 1.26320
v 0.26603 3.47469 1.27239
v 0.26511 3.46144 1.27058
v 0.25750 3.46393 1.27935
v 0.23926 3.47257 1.28520
v 0.21403 3.48565 1.28694
v 0.18683 3.50059 1.28419
v 0.16307 3.51442 1.27749
v 0.14743 3.52440 1.26820
v 0.14298 3.52856 1.25820
v 0.15057 3.52607 1.24948
v 0.16872 3.51743 1.24376
v 0.19385 3.50435 1.24214
v 0.22101 3.48941 1.24490
v 0.24483 3.47558 1.25149
v 0.26058 3.46560 1.26064
v 0.26511 3.46144 1.27058
v 0.25488 3.45330 1.26786
v 0.24784 3.45560 1.27596
v 0.23098 3.46358 1.28138
v 0.20765 3.47567 1.28301
v 0.18250 3.48947 1.28050
v 0.16051 3.50225 1.27435
v 0.14604 3.51147 1.26579
v 0.14191 3.51531 1.25656
v 0.14893 3.51301 1.24850
v 0.16571 3.50503 1.24319
v 0.18895 3.49294 1.24166
v 0.21408 3.47914 1.24417
v 0.23611 3.46637 1.25024
v 0.25068 3.45714 1.25868
v 0.25488 3.45330 1.26786
v 0.23687 3.45151 1.26466
v 0.23148 3.45327 1.27087
v 0.21857 3.45938 1.27502
v 0.20071 3.46863 1.27628
v 0.18144 3.47919 1.27437
v 0.16459 3.48897 1.26969
v 0.15349 3.49603 1.26316
v 0.15032 3.49897 1.25610
v 0.15569 3.49721 1.24993
v 0.16855 3.49110 1.24584
v 0.18637 3.48185 1.24464
v 0.20562 3.47129 1.24655
v 0.22250 3.46151 1.25118
v 0.23366 3.45445 1.25764
v 0.23687 3.45151 1.26466
v 0.21381 3.45634 1.26148
v 0.21090 3.45729 1.26483
v 0.20392 3.46060 1.26708
v 0.19425 3.46561 1.26776
v 0.18382 3.47132 1.26673
v 0.17469 3.47662 1.26421
v 0.16866 3.48044 1.26069
v 0.16694 3.48203 1.25688
v 0.16985 3.48108 1.25353
v 0.17682 3.47777 1.25131
v 0.18647 3.47276 1.25064
v 0.19690 3.46705 1.25167
v 0.20604 3.46175 1.25418
v 0.21208 3.45793 1.25768
v 0.21381 3.45634 1.26148
v 0.18925 3.46706 1.25876
v 0.18925 3.46706 1.25876
v 0.18925 3.46706 1.25876
v 0.18925 3.46706 1.25876
v 0.18925 3.46706 1.25876
v 0.18925 3.46706 1.25876
v 0.18925 3.46706 1.25876
v 0.18925 3.46706 1.25876
v 0.18925 3.46706 1.25876
v 0.18925 3.46706 1.25876
v 0.18925 3.46706 1.25876
v 0.18925 3.46706 1.25876
v 0.18925 3.46706 1.25876
v 0.18925 3.46706 1.25876
v 0.18925 3.46706 1.25876
v 0.00271 3.54791 1.24453
v 0.00271 3.54791 1.24453
v 0.00271 3.54791 1.24453
v 0.00271 3.54791 1.24453
v 0.00271 3.54791 1.24453
v 0.00271 3.54791 1.24453
v 0.00271 3.54791 1.24453
v 0.00271 3.54791 1.24453
v 0.00271 3.54791 1.24453
v 0.00271 3.54791 1.24453
v 0.00271 3.54791 1.24453
v 0.00271 3.54791 1.24453
v 0.00271 3.54791 1.24453
v 0.00271 3.54791 1.24453
v 0.00271 3.54791 1.24453
v 0.02292 3.55670 1.24684
v 0.02080 3.55539 1.24958
v 0.01529 3.55226 1.25129
v 0.00747 3.54792 1.25164
v -0.00109 3.54324 1.25057
v -0.00871 3.53913 1.24827
v -0.01387 3.53642 1.24522
v -0.01557 3.53564 1.24201
v -0.01345 3.53694 1.23927
v -0.00795 3.54008 1.23756
v -0.00014 3.54441 1.23721
v 0.00843 3.54910 1.23828
v 0.01605 3.55321 1.24058
v 0.02123 3.55592 1.24363
v 0.02292 3.55670 1.24684
v 0.04196 3.56066 1.24858
v 0.03804 3.55825 1.25363
v 0.02785 3.55246 1.25680
v 0.01342 3.54444 1.25745
v -0.00240 3.53578 1.25546
v -0.01646 3.52820 1.25121
v -0.02599 3.52318 1.24556
v -0.02912 3.52174 1.23963
v -0.02522 3.52415 1.23458
v -0.01507 3.52994 1.23142
v -0.00065 3.53796 1.23077
v 0.01517 3.54662 1.23276
v 0.02926 3.55421 1.23700
v 0.03883 3.55922 1.24265
v 0.04196 3.56066 1.24858
v 0.05692 3.55919 1.24949
v 0.05180 3.55604 1.25609
v 0.03849 3.54848 1.26022
v 0.01964 3.53800 1.26106
v -0.00100 3.52669 1.25845
v -0.01935 3.51677 1.25290
v -0.03179 3.51023 1.24551
v -0.03588 3.50834 1.23775
v -0.03080 3.51150 1.23116
v -0.01754 3.51906 1.22704
v 0.00127 3.52953 1.22620
v 0.02193 3.54085 1.22881
v 0.04033 3.55076 1.23436
v 0.05282 3.55731 1.24174
v 0.05692 3.55919 1.24949
v 0.06552 3.55252 1.24942
v 0.05999 3.54911 1.25656
v 0.04559 3.54092 1.26102
v 0.02522 3.52958 1.26192
v 0.00290 3.51734 1.25908
v -0.01695 3.50661 1.25306
v -0.03040 3.49952 1.24506
v -0.03482 3.49748 1.23666
v -0.02933 3.50089 1.22953
v -0.01501 3.50908 1.22508
v 0.00534 3.52042 1.22418
v 0.02768 3.53266 1.22702
v 0.04758 3.54339 1.23303
v 0.06109 3.55048 1.24103
v 0.06552 3.55252 1.24942
v 0.06648 3.54166 1.24837
v 0.06138 3.53850 1.25496
v 0.04810 3.53094 1.25908
v 0.02929 3.52047 1.25990
v 0.00869 3.50915 1.25726
v -0.00963 3.49924 1.25169
v -0.02205 3.49269 1.24429
v -0.02614 3.49081 1.23653
v -0.02107 3.49396 1.22994
v -0.00785 3.50152 1.22584
v 0.01093 3.51200 1.22502
v 0.03155 3.52331 1.22766
v 0.04992 3.53323 1.23322
v 0.06240 3.53977 1.24061
v 0.06648 3.54166 1.24837
v 0.05968 3.52826 1.24649
v 0.05578 3.52585 1.25153
v 0.04563 3.52006 1.25467
v 0.03125 3.51204 1.25529
v 0.01549 3.50338 1.25327
v 0.00148 3.49579 1.24900
v -0.00803 3.49078 1.24333
v -0.01116 3.48934 1.23739
v -0.00728 3.49175 1.23235
v 0.00284 3.49754 1.22921
v 0.01720 3.50556 1.22860
v 0.03296 3.51422 1.23062
v 0.04701 3.52180 1.23488
v 0.05655 3.52682 1.24055
v 0.05968 3.52826 1.24649
v 0.04614 3.51436 1.24406
v 0.04404 3.51306 1.24679
v 0.03855 3.50992 1.24849
v 0.03078 3.50559 1.24882
v 0.02225 3.50090 1.24772
v 0.01467 3.49679 1.24541
v 0.00952 3.49408 1.24234
v 0.00783 3.49330 1.23913
v 0.00993 3.49461 1.23640
v 0.01541 3.49774 1.23470
v 0.02318 3.50208 1.23437
v 0.03170 3.50676 1.23547
v 0.03930 3.51087 1.23778
v 0.04445 3.51358 1.24085
v 0.04614 3.51436 1.24406
v 0.02795 3.50209 1.24147
v 0.02795 3.50209 1.24147
v 0.02795 3.50209 1.24147
v 0.02795 3.50209 1.24147
v 0.02795 3.50209 1.24147
v 0.02795 3.50209 1.24147
v 0.02795 3.50209 1.24147
v 0.02795 3.50209 1.24147
v 0.02795 3.50209 1.24147
v 0.02795 3.50209 1.24147
v 0.02795 3.50209 1.24147
v 0.02795 3.50209 1.24147
v 0.02795 3.50209 1.24147
v 0.02795 3.50209 1.24147
v 0.02795 3.50209 1.24147
vt 0.00000 0.00000
vt 0.07143 0.00000
vt 0.14286 0.00000
vt 0.21429 0.00000
vt 0.28571 0.00000
vt 0.35714 0.00000
vt 0.42857 0.00000
vt 0.50000 0.00000
vt 0.57143 0.00000
vt 0.64286 0.00000
vt 0.71429 0.00000
vt 0.78571 0.00000
vt 0.85714 0.00000
vt 0.92857 0.00000
vt 1.00000 0.00000
vt 0.00000 0.12500
vt 0.07143 0.12500
vt 0.14286 0.12500
vt 0.21429 0.12500
vt 0.28571 0.12500
vt 0.35714 0.12500
vt 0.42857 0.12500
vt 0.50000 0.12500
vt 0.57143 0.12500
vt 0.64286 0.12500
vt 0.71429 0.12500
vt 0.78571 0.12500
vt 0.85714 0.12500
vt 0.92857 0.12500
vt 1.00000 0.12500
vt 0.00000 0.25000
vt 0.07143 0.25000
vt 0.14286 0.25000
vt 0.21429 0.25000
vt 0.28571 0.25000
vt 0.35714 0.25000
vt 0.42857 0.25000
vt 0.50000 0.25000
vt 0.57143 0.25000
vt 0.64286 0.25000
vt 0.71429 0.25000
vt 0.78571 0.25000
vt 0.85714 0.25000
vt 0.92857 0.25000
vt 1.00000 0.25000
vt 0.00000 0.37500
vt 0.07143 0.37500
vt 0.14286 0.37500
vt 0.21429 0.37500
vt 0.28571 0.37500
vt 0.35714 0.37500
vt 0.42857 0.37500
vt 0.50000 0.37500
vt 0.57143 0.37500
vt 0.64286 0.37500
vt 0.71429 0.37500
vt 0.78571 0.37500
vt 0.85714 0.37500
vt 0.92857 0.37500
vt 1.00000 0.37500
vt 0.00000 0.50000
vt 0.07143 0.50000
vt 0.14286 0.50000
vt 0.21429 0.50000
vt 0.28571 0.50000
vt 0.35714 0.50000
vt 0.42857 0.50000
vt 0.50000 0.50000
vt 0.57143 0.50000
vt 0.64286 0.50000
vt 0.71429 0.50000
vt 0.78571 0.50000
vt 0.85714 0.50000
vt 0.92857 0.50000
vt 1.00000 0.50000
vt 0.00000 0.62500
vt 0.07143 0.62500
vt 0.14286 0.62500
vt 0.21429 0.62500
vt 0.28571 0.62500
vt 0.35714 0.62500
vt 0.42857 0.62500
vt 0.50000 0.62500
vt 0.57143 0.62500
vt 0.64286 0.62500
vt 0.71429 0.62500
vt 0.78571 0.62500
vt 0.85714 0.62500
vt 0.92857 0.62500
vt 1.00000 0.62500
vt 0.00000 0.75000
vt 0.07143 0.75000
vt 0.14286 0.75000
vt 0.21429 0.75000
vt 0.28571 0.75000
vt 0.35714 0.75000
vt 0.42857 0.75000
vt 0.50000 0.75000
vt 0.57143 0.75000
vt 0.64286 0.75000
vt 0.71429 0.75000
vt 0.78571 0.75000
vt 0.85714 0.75000
vt 0.92857 0.75000
vt 1.00000 0.75000
vt 0.00000 0.87500
vt 0.07143 0.87500
vt 0.14286 0.87500
vt 0.21429 0.87500
vt 0.28571 0.87500
vt 0.35714 0.87500
vt 0.42857 0.87500
vt 0.50000 0.87500
vt 0.57143 0.87500
vt 0.64286 0.87500
vt 0.71429 0.87500
vt 0.78571 0.87500
vt 0.85714 0.87500
vt 0.92857 0.87500
vt 1.00000 0.87500
vt 0.00000 1.00000
vt 0.07143 1.00000
vt 0.14286 1.00000
vt 0.21429 1.00000
vt 0.28571 1.00000
vt 0.35714 1.00000
vt 0.42857 1.00000
vt 0.50000 1.00000
vt 0.57143 1.00000
vt 0.64286 1.00000
vt 0.71429 1.00000
vt 0.78571 1.00000
vt 0.85714 1.00000
vt 0.92857 1.00000
vt 1.00000 1.00000
vt 0.00000 0.00000
vt 0.07143 0.00000
vt 0.14286 0.00000
vt 0.21429 0.00000
vt 0.28571 0.00000
vt 0.35714 0.00000
vt 0.42857 0.00000
vt 0.50000 0.00000
vt 0.57143 0.00000
vt 0.64286 0.00000
vt 0.71429 0.00000
vt 0.78571 0.00000
vt 0.85714 0.00000
vt 0.92857 0.00000
vt 1.00000 0.00000
vt 0.00000 0.12500
vt 0.07143 0.12500
vt 0.14286 0.12500
vt 0.21429 0.12500
vt 0.28571 0.12500
vt 0.35714 0.12500
vt 0.42857 0.12500
vt 0.50000 0.12500
vt 0.57143 0.12500
vt 0.64286 0.12500
vt 0.71429 0.12500
vt 0.78571 0.12500
vt 0.85714 0.12500
vt 0.92857 0.12500
vt 1.00000 0.12500
vt 0.00000 0.25000
vt 0.07143 0.25000
vt 0.14286 0.25000
vt 0.21429 0.25000
vt 0.28571 0.25000
vt 0.35714 0.25000
vt 0.42857 0.25000
vt 0.50000 0.25000
vt 0.57143 0.25000
vt 0.64286 0.25000
vt 0.71429 0.25000
vt 0.78571 0.25000
vt 0.85714 0.25000
vt 0.92857 0.25000
vt 1.00000 0.25000
vt 0.00000 0.37500
vt 0.07143 0.37500
vt 0.14286 0.37500
vt 0.21429 0.37500
vt 0.28571 0.37500
vt 0.35714 0.37500
vt 0.42857 0.37500
vt 0.50000 0.37500
vt 0.57143 0.37500
vt 0.64286 0.37500
vt 0.71429 0.37500
vt 0.78571 0.37500
vt 0.85714 0.37500
vt 0.92857 0.37500
vt 1.00000 0.37500
vt 0.00000 0.50000
vt 0.07143 0.50000
vt 0.14286 0.50000
vt 0.21429 0.50000
vt 0.28571 0.50000
vt 0.35714 0.50000
vt 0.42857 0.50000
vt 0.50000 0.50000
vt 0.57143 0.50000
vt 0.64286 0.50000
vt 0.71429 0.50000
vt 0.78571 0.50000
vt 0.85714 0.50000
vt 0.92857 0.50000
vt 1.00000 0.50000
vt 0.00000 0.62500
vt 0.07143 0.62500
vt 0.14286 0.62500
vt 0.21429 0.62500
vt 0.28571 0.62500
vt 0.35714 0.62500
vt 0.42857 0.62500
vt 0.50000 0.62500
vt 0.57143 0.62500
vt 0.64286 0.62500
vt 0.71429 0.62500
vt 0.78571 0.62500
vt 0.85714 0.62500
vt 0.92857 0.62500
vt 1.00000 0.62500
vt 0.00000 0.75000
vt 0.07143 0.75000
vt 0.14286 0.75000
vt 0.21429 0.75000
vt 0.28571 0.75000
vt 0.35714 0.75000
vt 0.42857 0.75000
vt 0.50000 0.75000
vt 0.57143 0.75000
vt 0.64286 0.75000
vt 0.71429 0.75000
vt 0.78571 0.75000
vt 0.85714 0.75000
vt 0.92857 0.75000
vt 1.00000 0.75000
vt 0.00000 0.87500
vt 0.07143 0.87500
vt 0.14286 0.87500
vt 0.21429 0.87500
vt 0.28571 0.87500
vt 0.35714 0.87500
vt 0.42857 0.87500
vt 0.50000 0.87500
vt 0.57143 0.87500
vt 0.64286 0.87500
vt 0.71429 0.87500
vt 0.78571 0.87500
vt 0.85714 0.87500
vt 0.92857 0.87500
vt 1.00000 0.87500
vt 0.00000 1.00000
vt 0.07143 1.00000
vt 0.14286 1.00000
vt 0.21429 1.00000
vt 0.28571 1.00000
vt 0.35714 1.00000
vt 0.42857 1.00000
vt 0.50000 1.00000
vt 0.57143 1.00000
vt 0.64286 1.00000
vt 0.71429 1.00000
vt 0.78571 1.00000
vt 0.85714 1.00000
vt 0.92857 1.00000
vt 1.00000 1.00000
vn 0.46429 0.87188 0.15575
vn 0.46429 0.87188 0.15575
vn 0.46429 0.87188 0.15575
vn 0.46429 0.87188 0.15575
vn 0.46429 0.87188 0.15575
vn 0.46429 0.87188 0.15575
vn 0.46429 0.87188 0.15575
vn 0.46429 0.87188 0.15575
vn 0.46429 0.87188 0.15575
vn 0.46429 0.87188 0.15575
vn 0.46429 0.87188 0.15575
vn 0.46429 0.87188 0.15575
vn 0.46429 0.87188 0.15575
vn 0.46429 0.87188 0.15575
vn 0.46429 0.87188 0.15575
vn 0.65218 0.75005 0.10994
vn 0.57977 0.70757 0.40399
vn 0.45712 0.65363 0.60316
vn 0.34407 0.63286 0.69362
vn 0.26405 0.66284 0.70065
vn 0.22128 0.74405 0.63041
vn 0.21771 0.85876 0.46382
vn 0.25063 0.94868 0.19286
vn 0.30343 0.94691 -0.10628
vn 0.36013 0.87545 -0.32232
vn 0.42045 0.80077 -0.42660
vn 0.48915 0.75524 -0.43629
vn 0.56611 0.74323 -0.35654
vn 0.63537 0.75258 -0.17299
vn 0.65218 0.75005 0.10994
vn 0.80367 0.58185 0.12474
vn 0.60472 0.47257 0.64109
vn 0.35497 0.37643 0.85575
vn 0.18672 0.35969 0.91420
vn 0.07745 0.41296 0.90745
vn 0.00684 0.54329 0.83952
vn -0.02121 0.77060 0.63696
vn 0.02836 0.98770 0.15378
vn 0.13951 0.91207 -0.38558
vn 0.23868 0.72751 -0.64325
vn 0.32844 0.60485 -0.72545
vn 0.42891 0.54491 -0.72050
vn 0.55852 0.53594 -0.63311
vn 0.72261 0.57021 -0.39077
vn 0.80367 0.58185 0.12474
vn 0.96594 0.22080 0.13497
vn 0.53706 0.09320 0.83838
vn 0.21029 0.06277 0.97562
vn 0.03459 0.09020 0.99532
vn -0.08746 0.15783 0.98359
vn -0.19795 0.28615 0.93752
vn -0.32207 0.55163 0.76940
vn -0.35636 0.93189 0.06771
vn -0.09054 0.72673 -0.68093
vn 0.09330 0.49510 -0.86381
vn 0.21637 0.37730 -0.90046
vn 0.33467 0.31320 -0.88876
vn 0.48852 0.27878 -0.82682
vn 0.74039 0.26607 -0.61728
vn 0.96594 0.22080 0.13497
vn 0.87320 -0.47673 0.10122
vn 0.33724 -0.35947 0.87009
vn 0.05386 -0.23143 0.97136
vn -0.09974 -0.15104 0.98348
vn -0.22490 -0.07955 0.97113
vn -0.37088 0.00939 0.92863
vn -0.61533 0.17390 0.76885
vn -0.86894 0.48419 -0.10247
vn -0.33642 0.35395 -0.87266
vn -0.05270 0.22412 -0.97314
vn 0.10032 0.14745 -0.98397
vn 0.22454 0.08227 -0.97099
vn 0.36986 0.00034 -0.92909
vn 0.61562 -0.15882 -0.77187
vn 0.87320 -0.47673 0.10122
vn 0.34317 -0.93912 0.01700
vn 0.07237 -0.70642 0.70408
vn -0.10235 -0.49022 0.86557
vn -0.22397 -0.37631 0.89901
vn -0.34475 -0.31024 0.88595
vn -0.50526 -0.27217 0.81892
vn -0.76937 -0.25652 0.58504
vn -0.95320 -0.20514 -0.22210
vn -0.50011 -0.09062 -0.86121
vn -0.19174 -0.06742 -0.97913
vn -0.02368 -0.09436 -0.99526
vn 0.09548 -0.15998 -0.98249
vn 0.20632 -0.29040 -0.93440
vn 0.33358 -0.57329 -0.74837
vn 0.34317 -0.93912 0.01700
vn -0.04794 -0.99818 -0.03647
vn -0.15779 -0.87743 0.45302
vn -0.25253 -0.70386 0.66393
vn -0.34330 -0.59450 0.72713
vn -0.44913 -0.54249 0.70992
vn -0.58767 -0.53990 0.60262
vn -0.75360 -0.57724 0.31447
vn -0.78611 -0.56856 -0.24242
vn -0.55149 -0.44979 -0.70253
vn -0.31671 -0.36824 -0.87413
vn -0.16307 -0.36296 -0.91742
vn -0.06283 -0.42646 -0.90232
vn 0.00071 -0.57300 -0.81955
vn 0.01770 -0.81937 -0.57300
vn -0.04794 -0.99818 -0.03647
vn -0.27054 -0.96053 -0.06476
vn -0.32385 -0.92292 0.20819
vn -0.38042 -0.84504 0.37577
vn -0.44380 -0.78108 0.43926
vn -0.51726 -0.74923 0.41363
vn -0.59543 -0.74771 0.29394
vn -0.65059 -0.75658 0.06578
vn -0.63191 -0.73806 -0.23657
vn -0.53103 -0.68449 -0.49947
vn -0.40781 -0.63966 -0.65156
vn -0.30803 -0.63791 -0.70583
vn -0.24368 -0.68875 -0.68282
vn -0.21686 -0.78798 -0.57625
vn -0.22861 -0.90334 -0.36291
vn -0.27054 -0.96053 -0.06476
vn -0.46309 -0.87275 -0.15446
vn -0.46309 -0.87275 -0.15446
vn -0.46309 -0.87275 -0.15446
vn -0.46309 -0.87275 -0.15446
vn -0.46309 -0.87275 -0.15446
vn -0.46309 -0.87275 -0.15446
vn -0.46309 -0.87275 -0.15446
vn -0.46309 -0.87275 -0.15446
vn -0.46309 -0.87275 -0.15446
vn -0.46309 -0.87275 -0.15446
vn -0.46309 -0.87275 -0.15446
vn -0.46309 -0.87275 -0.15446
vn -0.46309 -0.87275 -0.15446
vn -0.46309 -0.87275 -0.15446
vn -0.46309 -0.87275 -0.15446
vn -0.48374 0.87417 0.04273
vn -0.48374 0.87417 0.04273
vn -0.48374 0.87417 0.04273
vn -0.48374 0.87417 0.04273
vn -0.48374 0.87417 0.04273
vn -0.48374 0.87417 0.04273
vn -0.48374 0.87417 0.04273
vn -0.48374 0.87417 0.04273
vn -0.48374 0.87417 0.04273
vn -0.48374 0.87417 0.04273
vn -0.48374 0.87417 0.04273
vn -0.48374 0.87417 0.04273
vn -0.48374 0.87417 0.04273
vn -0.48374 0.87417 0.04273
vn -0.48374 0.87417 0.04273
vn -0.27740 0.96075 0.00032
vn -0.30368 0.90521 0.29728
vn -0.34046 0.79355 0.50435
vn -0.39082 0.69715 0.60103
vn -0.45860 0.64706 0.60910
vn -0.54288 0.64791 0.53432
vn -0.62736 0.69067 0.35972
vn -0.66556 0.74171 0.08311
vn -0.61597 0.75808 -0.21424
vn -0.51140 0.74732 -0.42424
vn -0.40868 0.74733 -0.52391
vn -0.33167 0.77853 -0.53280
vn -0.28460 0.84311 -0.45625
vn -0.26766 0.92238 -0.27851
vn -0.27740 0.96075 0.00032
vn -0.05502 0.99819 0.02434
vn -0.11417 0.82403 0.55493
vn -0.18710 0.58560 0.78871
vn -0.26800 0.44149 0.85631
vn -0.36900 0.37717 0.84946
vn -0.50805 0.38059 0.77268
vn -0.69549 0.45969 0.55225
vn -0.81680 0.57446 0.05323
vn -0.65937 0.57866 -0.47998
vn -0.43292 0.53717 -0.72390
vn -0.27373 0.53640 -0.79834
vn -0.16679 0.58652 -0.79257
vn -0.09281 0.69683 -0.71121
vn -0.04904 0.87496 -0.48171
vn -0.05502 0.99819 0.02434
vn 0.33843 0.93887 0.06308
vn 0.14971 0.58416 0.79771
vn -0.01571 0.30757 0.95140
vn -0.13444 0.17620 0.97513
vn -0.25342 0.10776 0.96134
vn -0.41327 0.07844 0.90722
vn -0.68562 0.10105 0.72092
vn -0.97674 0.21437 -0.00507
vn -0.61246 0.25847 -0.74705
vn -0.30202 0.26821 -0.91479
vn -0.13044 0.30141 -0.94453
vn -0.00965 0.36367 -0.93148
vn 0.10183 0.47634 -0.87334
vn 0.23638 0.69761 -0.67636
vn 0.33843 0.93887 0.06308
vn 0.87573 0.47143 0.10417
vn 0.41913 0.17164 0.89155
vn 0.14444 0.01458 0.98941
vn -0.00670 -0.06996 0.99753
vn -0.13077 -0.13869 0.98166
vn -0.27740 -0.21813 0.93567
vn -0.53091 -0.34857 0.77242
vn -0.87255 -0.47767 -0.10236
vn -0.42040 -0.17153 -0.89098
vn -0.14537 -0.01276 -0.98930
vn 0.00643 0.07061 -0.99748
vn 0.13125 0.13688 -0.98185
vn 0.27872 0.21338 -0.93637
vn 0.53362 0.34122 -0.77384
vn 0.87573 0.47143 0.10417
vn 0.96910 -0.22871 0.09238
vn 0.57816 -0.26030 0.77329
vn 0.28421 -0.27061 0.91978
vn 0.11967 -0.30680 0.94422
vn 0.00157 -0.37370 0.92755
vn -0.10979 -0.49371 0.86267
vn -0.24638 -0.72603 0.64201
vn -0.33201 -0.93143 -0.14905
vn -0.13483 -0.55046 -0.82390
vn 0.02503 -0.28857 -0.95713
vn 0.14299 -0.16531 -0.97582
vn 0.26420 -0.10284 -0.95897
vn 0.43030 -0.07971 -0.89916
vn 0.71548 -0.11161 -0.68966
vn 0.96910 -0.22871 0.09238
vn 0.80718 -0.58675 0.06469
vn 0.61234 -0.57031 0.54753
vn 0.39703 -0.53416 0.74635
vn 0.25030 -0.54356 0.80118
vn 0.15113 -0.60476 0.78194
vn 0.08280 -0.72815 0.68040
vn 0.04615 -0.91232 0.40687
vn 0.06326 -0.98770 -0.14297
vn 0.12721 -0.77073 -0.62433
vn 0.20124 -0.54534 -0.81370
vn 0.28519 -0.41846 -0.86229
vn 0.39227 -0.36876 -0.84270
vn 0.54105 -0.38779 -0.74625
vn 0.73226 -0.48284 -0.48027
vn 0.80718 -0.58675 0.06469
vn 0.65674 -0.75282 0.04409
vn 0.57636 -0.75420 0.31463
vn 0.46724 -0.74426 0.47725
vn 0.37396 -0.75615 0.53702
vn 0.30927 -0.80176 0.51141
vn 0.27473 -0.87622 0.39592
vn 0.26971 -0.94723 0.17327
vn 0.28783 -0.94894 -0.12912
vn 0.31864 -0.85944 -0.39978
vn 0.36048 -0.74581 -0.56020
vn 0.41776 -0.66626 -0.61771
vn 0.49305 -0.63772 -0.59179
vn 0.58100 -0.65890 -0.47779
vn 0.65360 -0.71190 -0.25690
vn 0.65674 -0.75282 0.04409
vn 0.48558 -0.87310 -0.04358
vn 0.48558 -0.87310 -0.04358
vn 0.48558 -0.87310 -0.04358
vn 0.48558 -0.87310 -0.04358
vn 0.48558 -0.87310 -0.04358
vn 0.48558 -0.87310 -0.04358
vn 0.48558 -0.87310 -0.04358
vn 0.48558 -0.87310 -0.04358
vn 0.48558 -0.87310 -0.04358
vn 0.48558 -0.87310 -0.04358
vn 0.48558 -0.87310 -0.04358
vn 0.48558 -0.87310 -0.04358
vn 0.48558 -0.87310 -0.04358
vn 0.48558 -0.87310 -0.04358
vn 0.48558 -0.87310 -0.04358
usemtl eyes
s 1
f 1/1/1 2/2/2 16/16/16
f 2/2/2 17/17/17 16/16/16
f 2/2/2 3/3/3 17/17/17
f 3/3/3 18/18/18 17/17/17
f 3/3/3 4/4/4 18/18/18
f 4/4/4 19/19/19 18/18/18
f 4/4/4 5/5/5 19/19/19
f 5/5/5 20/20/20 19/19/19
f 5/5/5 6/6/6 20/20/20
f 6/6/6 21/21/21 20/20/20
f 6/6/6 7/7/7 21/21/21
f 7/7/7 22/22/22 21/21/21
f 7/7/7 8/8/8 22/22/22
f 8/8/8 23/23/23 22/22/22
f 8/8/8 9/9/9 23/23/23
f 9/9/9 24/24/24 23/23/23
f 9/9/9 10/10/10 24/24/24
f 10/10/10 25/25/25 24/24/24
f 10/10/10 11/11/11 25/25/25
f 11/11/11 26/26/26 25/25/25
f 11/11/11 12/12/12 26/26/26
f 12/12/12 27/27/27 26/26/26
f 12/12/12 13/13/13 27/27/27
f 13/13/13 28/28/28 27/27/27
f 13/13/13 14/14/14 28/28/28
f 14/14/14 29/29/29 28/28/28
f 14/14/14 15/15/15 29/29/29
f 15/15/15 30/30/30 29/29/29
f 16/16/16 17/17/17 31/31/31
f 17/17/17 32/32/32 31/31/31
f 17/17/17 18/18/18 32/32/32
f 18/18/18 33/33/33 32/32/32
f 18/18/18 19/19/19 33/33/33
f 19/19/19 34/34/34 33/33/33
f 19/19/19 20/20/20 34/34/34
f 20/20/20 35/35/35 34/34/34
f 20/20/20 21/21/21 35/35/35
f 21/21/21 36/36/36 35/35/35
f 21/21/21 22/22/22 36/36/36
f 22/22/22 37/37/37 36/36/36
f 22/22/22 23/23/23 37/37/37
f 23/23/23 38/38/38 37/37/37
f 23/23/23 24/24/24 38/38/38
f 24/24/24 39/39/39 38/38/38
f 24/24/24 25/25/25 39/39/39
f 25/25/25 40/40/40 39/39/39
f 25/25/25 26/26/26 40/40/40
f 26/26/26 41/41/41 40/40/40
f 26/26/26 27/27/27 41/41/41
f 27/27/27 42/42/42 41/41/41
f 27/27/27 28/28/28 42/42/42
f 28/28/28 43/43/43 42/42/42
f 28/28/28 29/29/29 43/43/43
f 29/29/29 44/44/44 43/43/43
f 29/29/29 30/30/30 44/44/44
f 30/30/30 45/45/45 44/44/44
f 31/31/31 32/32/32 46/46/46
f 32/32/32 47/47/47 46/46/46
f 32/32/32 33/33/33 47/47/47
f 33/33/33 48/48/48 47/47/47
f 33/33/33 34/34/34 48/48/48
f 34/34/34 49/49/49 48/48/48
f 34/34/34 35/35/35 49/49/49
f 35/35/35 50/50/50 49/49/49
f 35/35/35 36/36/36 50/50/50
f 36/36/36 51/51/51 50/50/50
f 36/36/36 37/37/37 51/51/51
f 37/37/37 52/52/52 51/51/51
f 37/37/37 38/38/38 52/52/52
f 38/38/38 53/53/53 52/52/52
f 38/38/38 39/39/39 53/53/53
f 39/39/39 54/54/54 53/53/53
f 39/39/39 40/40/40 54/54/54
f 40/40/40 55/55/55 54/54/54
f 40/40/40 41/41/41 55/55/55
f 41/41/41 56/56/56 55/55/55
f 41/41/41 42/42/42 56/56/56
f 42/42/42 57/57/57 56/56/56
f 42/42/42 43/43/43 57/57/57
f 43/43/43 58/58/58 57/57/57
f 43/43/43 44/44/44 58/58/58
f 44/44/44 59/59/59 58/58/58
f 44/44/44 45/45/45 59/59/59
f 45/45/45 60/60/60 59/59/59
f 46/46/46 47/47/47 61/61/61
f 47/47/47 62/62/62 61/61/61
f 47/47/47 48/48/48 62/62/62
f 48/48/48 63/63/63 62/62/62
f 48/48/48 49/49/49 63/63/63
f 49/49/49 64/64/64 63/63/63
f 49/49/49 50/50/50 64/64/64
f 50/50/50 65/65/65 64/64/64
f 50/50/50 51/51/51 65/65/65
f 51/51/51 66/66/66 65/65/65
f 51/51/51 52/52/52 66/66/66
f 52/52/52 67/67/67 66/66/66
f 52/52/52 53/53/53 67/67/67
f 53/53/53 68/68/68 67/67/67
f 53/53/53 54/54/54 68/68/68
f 54/54/54 69/69/69 68/68/68
f 54/54/54 55/55/55 69/69/69
f 55/55/55 70/70/70 69/69/69
f 55/55/55 56/56/56 70/70/70
f 56/56/56 71/71/71 70/70/70
f 56/56/56 57/57/57 71/71/71
f 57/57/57 72/72/72 71/71/71
f 57/57/57 58/58/58 72/72/72
f 58/58/58 73/73/73 72/72/72
f 58/58/58 59/59/59 73/73/73
f 59/59/59 74/74/74 73/73/73
f 59/59/59 60/60/60 74/74/74
f 60/60/60 75/75/75 74/74/74
f 61/61/61 62/62/62 76/76/76
f 62/62/62 77/77/77 76/76/76
f 62/62/62 63/63/63 77/77/77
f 63/63/63 78/78/78 77/77/77
f 63/63/63 64/64/64 78/78/78
f 64/64/64 79/79/79 78/78/78
f 64/64/64 65/65/65 79/79/79
f 65/65/65 80/80/80 79/79/79
f 65/65/65 66/66/66 80/80/80
f 66/66/66 81/81/81 80/80/80
f 66/66/66 67/67/67 81/81/81
f 67/67/67 82/82/82 81/81/81
f 67/67/67 68/68/68 82/82/82
f 68/68/68 83/83/83 82/82/82
f 68/68/68 69/69/69 83/83/83
f 69/69/69 84/84/84 83/83/83
f 69/69/69 70/70/70 84/84/84
f 70/70/70 85/85/85 84/84/84
f 70/70/70 71/71/71 85/85/85
f 71/71/71 86/86/86 85/85/85
f 71/71/71 72/72/72 86/86/86
f 72/72/72 87/87/87 86/86/86
f 72/72/72 73/73/73 87/87/87
f 73/73/73 88/88/88 87/87/87
f 73/73/73 74/74/74 88/88/88
f 74/74/74 89/89/89 88/88/88
f 74/74/74 75/75/75 89/89/89
f 75/75/75 90/90/90 89/89/89
f 76/76/76 77/77/77 91/91/91
f 77/77/77 92/92/92 91/91/91
f 77/77/77 78/78/78 92/92/92
f 78/78/78 93/93/93 92/92/92
f 78/78/78 79/79/79 93/93/93
f 79/79/79 94/94/94 93/93/93
f 79/79/79 80/80/80 94/94/94
f 80/80/80 95/95/95 94/94/94
f 80/80/80 81/81/81 95/95/95
f 81/81/81 96/96/96 95/95/95
f 81/81/81 82/82/82 96/96/96
f 82/82/82 97/97/97 96/96/96
f 82/82/82 83/83/83 97/97/97
f 83/83/83 98/98/98 97/97/97
f 83/83/83 84/84/84 98/98/98
f 84/84/84 99/99/99 98/98/98
f 84/84/84 85/85/85 99/99/99
f 85/85/85 100/100/100 99/99/99
f 85/85/85 86/86/86 100/100/100
f 86/86/86 101/101/101 100/100/100
f 86/86/86 87/87/87 101/101/101
f 87/87/87 102/102/102 101/101/101
f 87/87/87 88/88/88 102/102/102
f 88/88/88 103/103/103 102/102/102
f 88/88/88 89/89/89 103/103/103
f 89/89/89 104/104/104 103/103/103
f 89/89/89 90/90/90 104/104/104
f 90/90/90 105/105/105 104/104/104
f 91/91/91 92/92/92 106/106/106
f 92/92/92 107/107/107 106/106/106
f 92/92/92 93/93/93 107/107/107
f 93/93/93 108/108/108 107/107/107
f 93/93/93 94/94/94 108/108/108
f 94/94/94 109/109/109 108/108/108
f 94/94/94 95/95/95 109/109/109
f 95/95/95 110/110/110 109/109/109
f 95/95/95 96/96/96 110/110/110
f 96/96/96 111/111/111 110/110/110
f 96/96/96 97/97/97 111/111/111
f 97/97/97 112/112/112 111/111/111
f 97/97/97 98/98/98 112/112/112
f 98/98/98 113/113/113 112/112/112
f 98/98/98 99/99/99 113/113/113
f 99/99/99 114/114/114 113/113/113
f 99/99/99 100/100/100 114/114/114
f 100/100/100 115/115/115 114/114/114
f 100/100/100 101/101/101 115/115/115
f 101/101/101 116/116/116 115/115/115
f 101/101/101 102/102/102 116/116/116
f 102/102/102 117/117/117 116/116/116
f 102/102/102 103/103/103 117/117/117
f 103/103/103 118/118/118 117/117/117
f 103/103/103 104/104/104 118/118/118
f 104/104/104 119/119/119 118/118/118
f 104/104/104 105/105/105 119/119/119
f 105/105/105 120/120/120 119/119/119
f 106/106/106 107/107/107 121/121/121
f 107/107/107 122/122/122 121/121/121
f 107/107/107 108/108/108 122/122/122
f 108/108/108 123/123/123 122/122/122
f 108/108/108 109/109/109 123/123/123
f 109/109/109 124/124/124 123/123/123
f 109/109/109 110/110/110 124/124/124
f 110/110/110 125/125/125 124/124/124
f 110/110/110 111/111/111 125/125/125
f 111/111/111 126/126/126 125/125/125
f 111/111/111 112/112/112 126/126/126
f 112/112/112 127/127/127 126/126/126
f 112/112/112 113/113/113 127/127/127
f 113/113/113 128/128/128 127/127/127
f 113/113/113 114/114/114 128/128/128
f 114/114/114 129/129/129 128/128/128
f 114/114/114 115/115/115 129/129/129
f 115/115/115 130/130/130 129/129/129
f 115/115/115 116/116/116 130/130/130
f 116/116/116 131/131/131 130/130/130
f 116/116/116 117/117/117 131/131/131
f 117/117/117 132/132/132 131/131/131
f 117/117/117 118/118/118 132/132/132
f 118/118/118 133/133/133 132/132/132
f 118/118/118 119/119/119 133/133/133
f 119/119/119 134/134/134 133/133/133
f 119/119/119 120/120/120 134/134/134
f 120/120/120 135/135/135 134/134/134
f 136/136/136 137/137/137 151/151/151
f 137/137/137 152/152/152 151/151/151
f 137/137/137 138/138/138 152/152/152
f 138/138/138 153/153/153 152/152/152
f 138/138/138 139/139/139 153/153/153
f 139/139/139 154/154/154 153/153/153
f 139/139/139 140/140/140 154/154/154
f 140/140/140 155/155/155 154/154/154
f 140/140/140 141/141/141 155/155/155
f 141/141/141 156/156/156 155/155/155
f 141/141/141 142/142/142 156/156/156
f 142/142/142 157/157/157 156/156/156
f 142/142/142 143/143/143 157/157/157
f 143/143/143 158/158/158 157/157/157
f 143/143/143 144/144/144 158/158/158
f 144/144/144 159/159/159 158/158/158
f 144/144/144 145/145/145 159/159/159
f 145/145/145 160/160/160 159/159/159
f 145/145/145 146/146/146 160/160/160
f 146/146/146 161/161/161 160/160/160
f 146/146/146 147/147/147 161/161/161
f 147/147/147 162/162/162 161/161/161
f 147/147/147 148/148/148 162/162/162
f 148/148/148 163/163/163 162/162/162
f 148/148/148 149/149/149 163/163/163
f 149/149/149 164/164/164 163/163/163
f 149/149/149 150/150/150 164/164/164
f 150/150/150 165/165/165 164/164/164
f 151/151/151 152/152/152 166/166/166
f 152/152/152 167/167/167 166/166/166
f 152/152/152 153/153/153 167/167/167
f 153/153/153 168/168/168 167/167/167
f 153/153/153 154/154/154 168/168/168
f 154/154/154 169/169/169 168/168/168
f 154/154/154 155/155/155 169/169/169
f 155/155/155 170/170/170 169/169/169
f 155/155/155 156/156/156 170/170/170
f 156/156/156 171/171/171 170/170/170
f 156/156/156 157/157/157 171/171/171
f 157/157/157 172/172/172 171/171/171
f 157/157/157 158/158/158 172/172/172
f 158/158/158 173/173/173 172/172/172
f 158/158/158 159/159/159 173/173/173
f 159/159/159 174/174/174 173/173/173
f 159/159/159 160/160/160 174/174/174
f 160/160/160 175/175/175 174/174/174
f 160/160/160 161/161/161 175/175/175
f 161/161/161 176/176/176 175/175/175
f 161/161/161 162/162/162 176/176/176
f 162/162/162 177/177/177 176/176/176
f 162/162/162 163/163/163 177/177/177
f 163/163/163 178/178/178 177/177/177
f 163/163/163 164/164/164 178/178/178
f 164/164/164 179/179/179 178/178/178
f 164/164/164 165/165/165 179/179/179
f 165/165/165 180/180/180 179/179/179
f 166/166/166 167/167/167 181/181/181
f 167/167/167 182/182/182 181/181/181
f 167/167/167 168/168/168 182/182/182
f 168/168/168 183/183/183 182/182/182
f 168/168/168 169/169/169 183/183/183
f 169/169/169 184/184/184 183/183/183
f 169/169/169 170/170/170 184/184/184
f 170/170/170 185/185/185 184/184/184
f 170/170/170 171/171/171 185/185/185
f 171/171/171 186/186/186 185/185/185
f 171/171/171 172/172/172 186/186/186
f 172/172/172 187/187/187 186/186/186
f 172/172/172 173/173/173 187/187/187
f 173/173/173 188/188/188 187/187/187
f 173/173/173 174/174/174 188/188/188
f 174/174/174 189/189/189 188/188/188
f 174/174/174 175/175/175 189/189/189
f 175/175/175 190/190/190 189/189/189
f 175/175/175 176/176/176 190/190/190
f 176/176/176 191/191/191 190/190/190
f 176/176/176 177/177/177 191/191/191
f 177/177/177 192/192/192 191/191/191
f 177/177/177 178/178/178 192/192/192
f 178/178/178 193/193/193 192/192/192
f 178/178/178 179/179/179 193/193/193
f 179/179/179 194/194/194 193/193/193
f 179/179/179 180/180/180 194/194/194
f 180/180/180 195/195/195 194/194/194
f 181/181/181 182/182/182 196/196/196
f 182/182/182 197/197/197 196/196/196
f 182/182/182 183/183/183 197/197/197
f 183/183/183 198/198/198 197/197/197
f 183/183/183 184/184/184 198/198/198
f 184/184/184 199/199/199 198/198/198
f 184/184/184 185/185/185 199/199/199
f 185/185/185 200/200/200 199/199/199
f 185/185/185 186/186/186 200/200/200
f 186/186/186 201/201/201 200/200/200
f 186/186/186 187/187/187 201/201/201
f 187/187/187 202/202/202 201/201/201
f 187/187/187 188/188/188 202/202/202
f 188/188/188 203/203/203 202/202/202
f 188/188/188 189/189/189 203/203/203
f 189/189/189 204/204/204 203/203/203
f 189/189/189 190/190/190 204/204/204
f 190/190/190 205/205/205 204/204/204
f 190/190/190 191/191/191 205/205/205
f 191/191/191 206/206/206 205/205/205
f 191/191/191 192/192/192 206/206/206
f 192/192/192 207/207/207 206/206/206
f 192/192/192 193/193/193 207/207/207
f 193/193/193 208/208/208 207/207/207
f 193/193/193 194/194/194 208/208/208
f 194/194/194 209/209/209 208/208/208
f 194/194/194 195/195/195 209/209/209
f 195/195/195 210/210/210 209/209/209
f 196/196/196 197/197/197 211/211/211
f 197/197/197 212/212/212 211/211/211
f 197/197/197 198/198/198 212/212/212
f 198/198/198 213/213/213 212/212/212
f 198/198/198 199/199/199 213/213/213
f 199/199/199 214/214/214 213/213/213
f 199/199/199 200/200/200 214/214/214
f 200/200/200 215/215/215 214/214/214
f 200/200/200 201/201/201 215/215/215
f 201/201/201 216/216/216 215/215/215
f 201/201/201 202/202/202 216/216/216
f 202/202/202 217/217/217 216/216/216
f 202/202/202 203/203/203 217/217/217
f 203/203/203 218/218/218 217/217/217
f 203/203/203 204/204/204 218/218/218
f 204/204/204 219/219/219 218/218/218
f 204/204/204 205/205/205 219/219/219
f 205/205/205 220/220/220 219/219/219
f 205/205/205 206/206/206 220/220/220
f 206/206/206 221/221/221 220/220/220
f 206/206/206 207/207/207 221/221/221
f 207/207/207 222/222/222 221/221/221
f 207/207/207 208/208/208 222/222/222
f 208/208/208 223/223/223 222/222/222
f 208/208/208 209/209/209 223/223/223
f 209/209/209 224/224/224 223/223/223
f 209/209/209 210/210/210 224/224/224
f 210/210/210 225/225/225 224/224/224
f 211/211/211 212/212/212 226/226/226
f 212/212/212 227/227/227 226/226/226
f 212/212/212 213/213/213 227/227/227
f 213/213/213 228/228/228 227/227/227
f 213/213/213 214/214/214 228/228/228
f 214/214/214 229/229/229 228/228/228
f 214/214/214 215/215/215 229/229/229
f 215/215/215 230/230/230 229/229/229
f 215/215/215 216/216/216 230/230/230
f 216/216/216 231/231/231 230/230/230
f 216/216/216 217/217/217 231/231/231
f 217/217/217 232/232/232 231/231/231
f 217/217/217 218/218/218 232/232/232
f 218/218/218 233/233/233 232/232/232
f 218/218/218 219/219/219 233/233/233
f 219/219/219 234/234/234 233/233/233
f 219/219/219 220/220/220 234/234/234
f 220/220/220 235/235/235 234/234/234
f 220/220/220 221/221/221 235/235/235
f 221/221/221 236/236/236 235/235/235
f 221/221/221 222/222/222 236/236/236
f 222/222/222 237/237/237 236/236/236
f 222/222/222 223/223/223 237/237/237
f 223/223/223 238/238/238 237/237/237
f 223/223/223 224/224/224 238/238/238
f 224/224/224 239/239/239 238/238/238
f 224/224/224 225/225/225 239/239/239
f 225/225/225 240/240/240 239/239/239
f 226/226/226 227/227/227 241/241/241
f 227/227/227 242/242/242 241/241/241
f 227/227/227 228/228/228 242/242/242
f 228/228/228 243/243/243 242/242/242
f 228/228/228 229/229/229 243/243/243
f 229/229/229 244/244/244 243/243/243
f 229/229/229 230/230/230 244/244/244
f 230/230/230 245/245/245 244/244/244
f 230/230/230 231/231/231 245/245/245
f 231/231/231 246/246/246 245/245/245
f 231/231/231 232/232/232 246/246/246
f 232/232/232 247/247/247 246/246/246
f 232/232/232 233/233/233 247/247/247
f 233/233/233 248/248/248 247/247/247
f 233/233/233 234/234/234 248/248/248
f 234/234/234 249/249/249 248/248/248
f 234/234/234 235/235/235 249/249/249
f 235/235/235 250/250/250 249/249/249
f 235/235/235 236/236/236 250/250/250
f 236/236/236 251/251/251 250/250/250
f 236/236/236 237/237/237 251/251/251
f 237/237/237 252/252/252 251/251/251
f 237/237/237 238/238/238 252/252/252
f 238/238/238 253/253/253 252/252/252
f 238/238/238 239/239/239 253/253/253
f 239/239/239 254/254/254 253/253/253
f 239/239/239 240/240/240 254/254/254
f 240/240/240 255/255/255 254/254/254
f 241/241/241 242/242/242 256/256/256
f 242/242/242 257/257/257 256/256/256
f 242/242/242 243/243/243 257/257/257
f 243/243/243 258/258/258 257/257/257
f 243/243/243 244/244/244 258/258/258
f 244/244/244 259/259/259 258/258/258
f 244/244/244 245/245/245 259/259/259
f 245/245/245 260/260/260 259/259/259
f 245/245/245 246/246/246 260/260/260
f 246/246/246 261/261/261 260/260/260
f 246/246/246 247/247/247 261/261/261
f 247/247/247 262/262/262 261/261/261
f 247/247/247 248/248/248 262/262/262
f 248/248/248 263/263/263 262/262/262
f 248/248/248 249/249/249 263/263/263
f 249/249/249 264/264/264 263/263/263
f 249/249/249 250/250/250 264/264/264
f 250/250/250 265/265/265 264/264/264
f 250/250/250 251/251/251 265/265/265
f 251/251/251 266/266/266 265/265/265
f 251/251/251 252/252/252 266/266/266
f 252/252/252 267/267/267 266/266/266
f 252/252/252 253/253/253 267/267/267
f 253/253/253 268/268/268 267/267/267
f 253/253/253 254/254/254 268/268/268
f 254/254/254 269/269/269 268/268/268
f 254/254/254 255/255/255 269/269/269
f 255/255/255 270/270/270 269/269/269
