# generated by generate_forest.py
mtllib pine.mtl
o pine_2
v 0.6524 0.0000 0.0000
v 0.4613 0.0000 0.4613
v 0.0000 0.0000 0.6524
v -0.4613 0.0000 0.4613
v -0.6524 0.0000 0.0000
v -0.4613 0.0000 -0.4613
v -0.0000 0.0000 -0.6524
v 0.4613 0.0000 -0.4613
v 0.2237 13.9800 0.0000
v 0.1582 13.9800 0.1582
v 0.0000 13.9800 0.2237
v -0.1582 13.9800 0.1582
v -0.2237 13.9800 0.0000
v -0.1582 13.9800 -0.1582
v -0.0000 13.9800 -0.2237
v 0.1582 13.9800 -0.1582
v 2.5764 4.1008 2.7825
v -0.1457 4.1008 3.7893
v -2.7825 4.1008 2.5764
v -3.7893 4.1008 -0.1457
v -2.5764 4.1008 -2.7825
v 0.1457 4.1008 -3.7893
v 2.7825 4.1008 -2.5764
v 3.7893 4.1008 0.1457
v 0.0000 4.4061 0.0000
v 0.0000 10.2072 0.0000
v 2.3270 6.2022 1.9007
v 0.3014 6.2022 2.9894
v -1.9007 6.2022 2.3270
v -2.9894 6.2022 0.3014
v -2.3270 6.2022 -1.9007
v -0.3014 6.2022 -2.9894
v 1.9007 6.2022 -2.3270
v 2.9894 6.2022 -0.3014
v 0.0000 6.4814 0.0000
v 0.0000 11.7853 0.0000
v 1.5814 8.7641 1.9578
v -0.2662 8.7641 2.5026
v -1.9578 8.7641 1.5814
v -2.5026 8.7641 -0.2662
v -1.5814 8.7641 -1.9578
v 0.2662 8.7641 -2.5026
v 1.9578 8.7641 -1.5814
v 2.5026 8.7641 0.2662
v 0.0000 9.0171 0.0000
v 0.0000 13.8238 0.0000
v 1.0722 11.5344 1.6451
v -0.4051 11.5344 1.9215
v -1.6451 11.5344 1.0722
v -1.9215 11.5344 -0.4051
v -1.0722 11.5344 -1.6451
v 0.4051 11.5344 -1.9215
v 1.6451 11.5344 -1.0722
v 1.9215 11.5344 0.4051
v 0.0000 11.7612 0.0000
v 0.0000 16.0707 0.0000
v 1.2654 14.4494 0.1389
v 0.7966 14.4494 0.9929
v -0.1389 14.4494 1.2654
v -0.9929 14.4494 0.7966
v -1.2654 14.4494 -0.1389
v -0.7966 14.4494 -0.9929
v 0.1389 14.4494 -1.2654
v 0.9929 14.4494 -0.7966
v 0.0000 14.6589 0.0000
v 0.0000 18.6400 0.0000
usemtl bark
f 1 9 10 2
f 2 10 11 3
f 3 11 12 4
f 4 12 13 5
f 5 13 14 6
f 6 14 15 7
f 7 15 16 8
f 8 16 9 1
usemtl needles
f 17 26 18
f 18 25 17
f 18 26 19
f 19 25 18
f 19 26 20
f 20 25 19
f 20 26 21
f 21 25 20
f 21 26 22
f 22 25 21
f 22 26 23
f 23 25 22
f 23 26 24
f 24 25 23
f 24 26 17
f 17 25 24
f 37 46 38
f 38 45 37
f 38 46 39
f 39 45 38
f 39 46 40
f 40 45 39
f 40 46 41
f 41 45 40
f 41 46 42
f 42 45 41
f 42 46 43
f 43 45 42
f 43 46 44
f 44 45 43
f 44 46 37
f 37 45 44
f 57 66 58
f 58 65 57
f 58 66 59
f 59 65 58
f 59 66 60
f 60 65 59
f 60 66 61
f 61 65 60
f 61 66 62
f 62 65 61
f 62 66 63
f 63 65 62
f 63 66 64
f 64 65 63
f 64 66 57
f 57 65 64
usemtl needles_dark
f 27 36 28
f 28 35 27
f 28 36 29
f 29 35 28
f 29 36 30
f 30 35 29
f 30 36 31
f 31 35 30
f 31 36 32
f 32 35 31
f 32 36 33
f 33 35 32
f 33 36 34
f 34 35 33
f 34 36 27
f 27 35 34
f 47 56 48
f 48 55 47
f 48 56 49
f 49 55 48
f 49 56 50
f 50 55 49
f 50 56 51
f 51 55 50
f 51 56 52
f 52 55 51
f 52 56 53
f 53 55 52
f 53 56 54
f 54 55 53
f 54 56 47
f 47 55 54
