<svg xmlns="http://www.w3.org/2000/svg" width="2400" height="1640" viewBox="0 0 2400 1640" font-family="Helvetica, Arial, sans-serif">
<defs><marker id="a" viewBox="0 0 10 10" refX="9" refY="5" markerWidth="9" markerHeight="9" orient="auto-start-reverse"><path d="M0,0 L10,5 L0,10 z" fill="#334155"/></marker><marker id="h" viewBox="0 0 12 12" refX="11" refY="6" markerWidth="12" markerHeight="12" orient="auto"><path d="M1,1 L11,6 L1,11 z" fill="#fff" stroke="#334155" stroke-width="1.5"/></marker></defs>
<rect width="2400" height="1640" fill="#ffffff"/>
<text x="40" y="44" font-size="32" font-weight="700" fill="#0f172a">3D engine: general overview (UML component view)</text>
<text x="40" y="72" font-size="18" fill="#475569">Filled arrow = uses / calls · hollow arrow = inherits · dashed = weak dependency · each box lists the real classes of src/</text>
<rect x="850" y="100" width="700" height="86" rx="9" fill="#fef3c7" stroke="#b45309" stroke-width="1.6"/>
<text x="1200.0" y="126.0" text-anchor="middle" font-size="20" font-weight="700" fill="#0f172a">test.cpp  (main)</text>
<text x="1200.0" y="149.0" text-anchor="middle" font-size="17" fill="#334155">window, game loop, map list (Z / --map), mirror passes,</text>
<text x="1200.0" y="172.0" text-anchor="middle" font-size="17" fill="#334155">camera, light, death / abduction flow</text>
<rect x="40" y="250" width="640" height="250" rx="14" fill="#eff6ff" stroke="#1d4ed8" stroke-width="2"/>
<text x="56" y="278" font-size="21" font-weight="700" fill="#1d4ed8">input/</text>
<rect x="70" y="300" width="270" height="80" rx="9" fill="#fff" stroke="#475569" stroke-width="1.6"/>
<text x="205.0" y="334.0" text-anchor="middle" font-size="20" font-weight="700" fill="#0f172a">Controller</text>
<text x="205.0" y="357.0" text-anchor="middle" font-size="17" fill="#334155">mouse + keys → control()</text>
<rect x="360" y="300" width="290" height="80" rx="9" fill="#fff" stroke="#475569" stroke-width="1.6"/>
<text x="505.0" y="334.0" text-anchor="middle" font-size="20" font-weight="700" fill="#0f172a">Controls</text>
<text x="505.0" y="357.0" text-anchor="middle" font-size="17" fill="#334155">Action → key (rebindable)</text>
<rect x="70" y="400" width="580" height="70" rx="9" fill="#fff" stroke="#475569" stroke-width="1.6"/>
<text x="360.0" y="429.0" text-anchor="middle" font-size="20" font-weight="700" fill="#0f172a">InteractionSystem</text>
<text x="360.0" y="452.0" text-anchor="middle" font-size="17" fill="#334155">hint + use key → Interactable</text>
<rect x="720" y="250" width="960" height="250" rx="14" fill="#f5f3ff" stroke="#6d28d9" stroke-width="2"/>
<text x="736" y="278" font-size="21" font-weight="700" fill="#6d28d9">ui/  (own 2D interface)</text>
<rect x="750" y="300" width="900" height="70" rx="9" fill="#fff" stroke="#475569" stroke-width="1.6"/>
<text x="1200.0" y="329.0" text-anchor="middle" font-size="20" font-weight="700" fill="#0f172a">UIManager  ·  UIRenderer</text>
<text x="1200.0" y="352.0" text-anchor="middle" font-size="17" fill="#334155">panels, mouse, keys, Esc · UIPanel / UIRow / UILabel / UIButton / UISlider / UITextField</text>
<rect x="750" y="390" width="560" height="90" rx="9" fill="#fff" stroke="#475569" stroke-width="1.6"/>
<text x="1030.0" y="418.0" text-anchor="middle" font-size="20" font-weight="700" fill="#0f172a">Menus</text>
<text x="1030.0" y="441.0" text-anchor="middle" font-size="17" fill="#334155">Pause · Options · Camera · Controls · Audio</text>
<text x="1030.0" y="464.0" text-anchor="middle" font-size="17" fill="#334155">MapSelector · CommandConsole · ConfirmDialog</text>
<rect x="1330" y="390" width="320" height="90" rx="9" fill="#fff" stroke="#475569" stroke-width="1.6"/>
<text x="1490.0" y="418.0" text-anchor="middle" font-size="20" font-weight="700" fill="#0f172a">Overlays</text>
<text x="1490.0" y="441.0" text-anchor="middle" font-size="17" fill="#334155">Death · Credits</text>
<text x="1490.0" y="464.0" text-anchor="middle" font-size="17" fill="#334155">Struggle · Crosshair</text>
<rect x="1720" y="250" width="640" height="250" rx="14" fill="#f0fdf4" stroke="#15803d" stroke-width="2"/>
<text x="1736" y="278" font-size="21" font-weight="700" fill="#15803d">debug/  +  core/</text>
<rect x="1750" y="300" width="580" height="80" rx="9" fill="#fff" stroke="#475569" stroke-width="1.6"/>
<text x="2040.0" y="334.0" text-anchor="middle" font-size="20" font-weight="700" fill="#0f172a">DebugSelector · PropertyPanel</text>
<text x="2040.0" y="357.0" text-anchor="middle" font-size="17" fill="#334155">keys 1 / 2 / 0: select, place, edit properties</text>
<rect x="1750" y="400" width="580" height="80" rx="9" fill="#fff" stroke="#475569" stroke-width="1.6"/>
<text x="2040.0" y="434.0" text-anchor="middle" font-size="20" font-weight="700" fill="#0f172a">Settings · Commands · TextFormat</text>
<text x="2040.0" y="457.0" text-anchor="middle" font-size="17" fill="#334155">PoissonDisk · RenderStats  (/reset /day /night)</text>
<rect x="40" y="580" width="2320" height="240" rx="14" fill="#ecfeff" stroke="#0e7490" stroke-width="2"/>
<text x="56" y="608" font-size="21" font-weight="700" fill="#0e7490">world/  —  stages (maps)</text>
<rect x="80" y="635" width="440" height="120" rx="9" fill="#fff" stroke="#475569" stroke-width="1.6"/>
<text x="300.0" y="678.0" text-anchor="middle" font-size="20" font-weight="700" fill="#0f172a">Stage  «abstract»</text>
<text x="300.0" y="701.0" text-anchor="middle" font-size="17" fill="#334155">objects, floor, collision grid (8 m)</text>
<text x="300.0" y="724.0" text-anchor="middle" font-size="17" fill="#334155">clock, emitters, music, SafeSpace</text>
<rect x="620" y="635" width="460" height="120" rx="9" fill="#fff" stroke="#475569" stroke-width="1.6"/>
<text x="850.0" y="678.0" text-anchor="middle" font-size="20" font-weight="700" fill="#0f172a">GameStage  «abstract»</text>
<text x="850.0" y="701.0" text-anchor="middle" font-size="17" fill="#334155">Environment, sky, player, camera,</text>
<text x="850.0" y="724.0" text-anchor="middle" font-size="17" fill="#334155">MirrorView, alien presence</text>
<rect x="1190" y="630" width="700" height="92" rx="9" fill="#fff" stroke="#475569" stroke-width="1.6"/>
<text x="1540.0" y="659.0" text-anchor="middle" font-size="20" font-weight="700" fill="#0f172a">VehicleStage</text>
<text x="1540.0" y="682.0" text-anchor="middle" font-size="17" fill="#334155">TestStage · ForestStage · PineForestStage · Route66Stage</text>
<text x="1540.0" y="705.0" text-anchor="middle" font-size="17" fill="#334155">RV + Walker, day / night, creatures</text>
<rect x="1190" y="732" width="700" height="70" rx="9" fill="#fff" stroke="#475569" stroke-width="1.6"/>
<text x="1540.0" y="761.0" text-anchor="middle" font-size="20" font-weight="700" fill="#0f172a">SceneStage</text>
<text x="1540.0" y="784.0" text-anchor="middle" font-size="17" fill="#334155">loads a .scene file (SceneFile) — night desert</text>
<rect x="1960" y="630" width="370" height="172" rx="9" fill="#fff" stroke="#475569" stroke-width="1.6"/>
<text x="2145.0" y="677.0" text-anchor="middle" font-size="20" font-weight="700" fill="#0f172a">Support types</text>
<text x="2145.0" y="700.0" text-anchor="middle" font-size="17" fill="#334155">FloorMaterial · MaterialMap</text>
<text x="2145.0" y="723.0" text-anchor="middle" font-size="17" fill="#334155">SafeSpace · Property</text>
<text x="2145.0" y="746.0" text-anchor="middle" font-size="17" fill="#334155">Interactable · MirrorView</text>
<text x="2145.0" y="769.0" text-anchor="middle" font-size="17" fill="#334155">SceneFile</text>
<path d="M520,695 H620" fill="none" stroke="#334155" stroke-width="2.2" marker-end="url(#h)"/>
<path d="M1080,676 H1190" fill="none" stroke="#334155" stroke-width="2.2" marker-end="url(#h)"/>
<path d="M1080,730 H1130 V767 H1190" fill="none" stroke="#334155" stroke-width="2.2" marker-end="url(#h)"/>
<rect x="40" y="890" width="2320" height="330" rx="14" fill="#fff7ed" stroke="#c2410c" stroke-width="2"/>
<text x="56" y="918" font-size="21" font-weight="700" fill="#c2410c">world/ + entities/  —  game objects</text>
<rect x="80" y="940" width="2240" height="70" rx="9" fill="#ffedd5" stroke="#c2410c" stroke-width="1.6"/>
<text x="1200.0" y="969.0" text-anchor="middle" font-size="20" font-weight="700" fill="#0f172a">GameObject  →  DynamicGameObject  →  PlayableCharacter</text>
<text x="1200.0" y="992.0" text-anchor="middle" font-size="17" fill="#334155">parts / AnimatedModel, collision shape, update(dt) · velocity, mass, gravity · control(), attachCamera()</text>
<rect x="80" y="1050" width="520" height="140" rx="9" fill="#fff" stroke="#475569" stroke-width="1.6"/>
<text x="340.0" y="1092.0" text-anchor="middle" font-size="20" font-weight="700" fill="#0f172a">Playable characters</text>
<text x="340.0" y="1115.0" text-anchor="middle" font-size="17" fill="#334155">RV  (VehicleBody, EngineSimulator, cockpit,</text>
<text x="340.0" y="1138.0" text-anchor="middle" font-size="17" fill="#334155">mirrors, door, wreck)  ·  Walker (penguin)</text>
<text x="340.0" y="1161.0" text-anchor="middle" font-size="17" fill="#334155">Saucer (flying, ray cannon)</text>
<rect x="640" y="1050" width="760" height="140" rx="9" fill="#fff" stroke="#475569" stroke-width="1.6"/>
<text x="1020.0" y="1092.0" text-anchor="middle" font-size="20" font-weight="700" fill="#0f172a">Creatures (Npc and others)</text>
<text x="1020.0" y="1115.0" text-anchor="middle" font-size="17" fill="#334155">Pingu · FollaCulos · Mosquito (+ MosquitoEgg)</text>
<text x="1020.0" y="1138.0" text-anchor="middle" font-size="17" fill="#334155">Bob (alien) · Flatwoods monster</text>
<text x="1020.0" y="1161.0" text-anchor="middle" font-size="17" fill="#334155">AlienVisit = Bob + Saucer, per night</text>
<rect x="1440" y="1050" width="440" height="140" rx="9" fill="#fff" stroke="#475569" stroke-width="1.6"/>
<text x="1660.0" y="1103.0" text-anchor="middle" font-size="20" font-weight="700" fill="#0f172a">Static / interactable</text>
<text x="1660.0" y="1126.0" text-anchor="middle" font-size="17" fill="#334155">Satellite · Readable</text>
<text x="1660.0" y="1149.0" text-anchor="middle" font-size="17" fill="#334155">FuelPump · Interactable</text>
<rect x="1920" y="1050" width="400" height="140" rx="9" fill="#fff" stroke="#475569" stroke-width="1.6"/>
<text x="2120.0" y="1103.0" text-anchor="middle" font-size="20" font-weight="700" fill="#0f172a">Rigs (not objects)</text>
<text x="2120.0" y="1126.0" text-anchor="middle" font-size="17" fill="#334155">NpcRagdoll · FollaCulosRig</text>
<text x="2120.0" y="1149.0" text-anchor="middle" font-size="17" fill="#334155">used by the creatures</text>
<path d="M340,1050 V1010" fill="none" stroke="#334155" stroke-width="2.2" marker-end="url(#h)"/>
<path d="M1020,1050 V1010" fill="none" stroke="#334155" stroke-width="2.2" marker-end="url(#h)"/>
<path d="M1660,1050 V1010" fill="none" stroke="#334155" stroke-width="2.2" marker-end="url(#h)"/>
<rect x="40" y="1290" width="760" height="250" rx="14" fill="#fdf2f8" stroke="#be185d" stroke-width="2"/>
<text x="56" y="1318" font-size="21" font-weight="700" fill="#be185d">physics/</text>
<rect x="70" y="1340" width="350" height="80" rx="9" fill="#fff" stroke="#475569" stroke-width="1.6"/>
<text x="245.0" y="1374.0" text-anchor="middle" font-size="20" font-weight="700" fill="#0f172a">CollisionShape</text>
<text x="245.0" y="1397.0" text-anchor="middle" font-size="17" fill="#334155">Capsule · Box · CompoundShape</text>
<rect x="440" y="1340" width="330" height="80" rx="9" fill="#fff" stroke="#475569" stroke-width="1.6"/>
<text x="605.0" y="1374.0" text-anchor="middle" font-size="20" font-weight="700" fill="#0f172a">VehicleBody</text>
<text x="605.0" y="1397.0" text-anchor="middle" font-size="17" fill="#334155">EngineSimulator · ImpactDetector</text>
<rect x="70" y="1440" width="700" height="80" rx="9" fill="#fff" stroke="#475569" stroke-width="1.6"/>
<text x="420.0" y="1474.0" text-anchor="middle" font-size="20" font-weight="700" fill="#0f172a">ProceduralPose</text>
<text x="420.0" y="1497.0" text-anchor="middle" font-size="17" fill="#334155">Ragdoll · SpiderGait · InsectLegs</text>
<rect x="840" y="1290" width="900" height="250" rx="14" fill="#fefce8" stroke="#a16207" stroke-width="2"/>
<text x="856" y="1318" font-size="21" font-weight="700" fill="#a16207">render/  +  effects/</text>
<rect x="870" y="1340" width="420" height="80" rx="9" fill="#fff" stroke="#475569" stroke-width="1.6"/>
<text x="1080.0" y="1374.0" text-anchor="middle" font-size="20" font-weight="700" fill="#0f172a">Camera · Light · SpotLight</text>
<text x="1080.0" y="1397.0" text-anchor="middle" font-size="17" fill="#334155">viewProjection, carrier, far plane</text>
<rect x="1310" y="1340" width="400" height="80" rx="9" fill="#fff" stroke="#475569" stroke-width="1.6"/>
<text x="1510.0" y="1374.0" text-anchor="middle" font-size="20" font-weight="700" fill="#0f172a">Model · AnimatedModel</text>
<text x="1510.0" y="1397.0" text-anchor="middle" font-size="17" fill="#334155">Mesh · Skeleton · PointRig</text>
<rect x="870" y="1440" width="420" height="80" rx="9" fill="#fff" stroke="#475569" stroke-width="1.6"/>
<text x="1080.0" y="1474.0" text-anchor="middle" font-size="20" font-weight="700" fill="#0f172a">Shader · LineRenderer</text>
<text x="1080.0" y="1497.0" text-anchor="middle" font-size="17" fill="#334155">one shader: animatedshader + shader.frag</text>
<rect x="1310" y="1440" width="400" height="80" rx="9" fill="#fff" stroke="#475569" stroke-width="1.6"/>
<text x="1510.0" y="1474.0" text-anchor="middle" font-size="20" font-weight="700" fill="#0f172a">Particles · Explosion</text>
<text x="1510.0" y="1497.0" text-anchor="middle" font-size="17" fill="#334155">ParticleEmitter / Renderer · FilmGrain</text>
<rect x="1780" y="1290" width="580" height="250" rx="14" fill="#f0f9ff" stroke="#0369a1" stroke-width="2"/>
<text x="1796" y="1318" font-size="21" font-weight="700" fill="#0369a1">audio/  +  dialogue/</text>
<rect x="1810" y="1340" width="520" height="80" rx="9" fill="#fff" stroke="#475569" stroke-width="1.6"/>
<text x="2070.0" y="1374.0" text-anchor="middle" font-size="20" font-weight="700" fill="#0f172a">SoundEngine · Sound · MusicPlayer</text>
<text x="2070.0" y="1397.0" text-anchor="middle" font-size="17" fill="#334155">miniaudio · EngineSynth · BuzzSynth</text>
<rect x="1810" y="1440" width="520" height="80" rx="9" fill="#fff" stroke="#475569" stroke-width="1.6"/>
<text x="2070.0" y="1474.0" text-anchor="middle" font-size="20" font-weight="700" fill="#0f172a">Dialogue · LineNarrator</text>
<text x="2070.0" y="1497.0" text-anchor="middle" font-size="17" fill="#334155">SpeechSynthesizer (espeak) · Voice · Typewriter</text>
<rect x="40" y="1570" width="2320" height="52" rx="9" fill="#f1f5f9" stroke="#64748b" stroke-width="1.6"/>
<text x="1200.0" y="1603.0" text-anchor="middle" font-size="20" font-weight="700" fill="#0f172a">tools/:  creature_testing (C++ viewer for creatures)  ·  scene_viewer (web .scene viewer)  ·  assets/generate_*.py (procedural assets)</text>
<path d="M1000,186 V220 H360 V250" fill="none" stroke="#334155" stroke-width="2.2" marker-end="url(#a)"/>
<text x="420" y="212" font-size="16" font-style="italic" fill="#334155" paint-order="stroke" stroke="#fff" stroke-width="5">update, draw</text>
<path d="M1200,186 V250" fill="none" stroke="#334155" stroke-width="2.2" marker-end="url(#a)"/>
<path d="M1400,186 V220 H2040 V250" fill="none" stroke="#334155" stroke-width="2.2" marker-end="url(#a)"/>
<path d="M850,143 H700 V580" fill="none" stroke="#334155" stroke-width="2.2" marker-end="url(#a)"/>
<text x="712" y="532" font-size="16" font-style="italic" fill="#334155" paint-order="stroke" stroke="#fff" stroke-width="5">update(dt), render()</text>
<path d="M360,500 V580" fill="none" stroke="#334155" stroke-width="2.2" marker-end="url(#a)"/>
<text x="372" y="542" font-size="16" font-style="italic" fill="#334155" paint-order="stroke" stroke="#fff" stroke-width="5">control(), use key</text>
<path d="M2040,500 V580" fill="none" stroke="#334155" stroke-width="2.2" marker-end="url(#a)"/>
<text x="2052" y="542" font-size="16" font-style="italic" fill="#334155" paint-order="stroke" stroke="#fff" stroke-width="5">clock, reset, ray</text>
<path d="M1000,820 V890" fill="none" stroke="#334155" stroke-width="2.2" marker-end="url(#a)"/>
<text x="1012" y="862" font-size="16" font-style="italic" fill="#334155" paint-order="stroke" stroke="#fff" stroke-width="5">owns / creates objects</text>
<path d="M420,1220 V1290" fill="none" stroke="#334155" stroke-width="2.2" marker-end="url(#a)"/>
<text x="432" y="1260" font-size="16" font-style="italic" fill="#334155" paint-order="stroke" stroke="#fff" stroke-width="5">shapes, vehicle, poses</text>
<path d="M1290,1220 V1290" fill="none" stroke="#334155" stroke-width="2.2" marker-end="url(#a)"/>
<text x="1302" y="1260" font-size="16" font-style="italic" fill="#334155" paint-order="stroke" stroke="#fff" stroke-width="5">models, camera, effects</text>
<path d="M2060,1220 V1290" fill="none" stroke="#334155" stroke-width="2.2" marker-end="url(#a)"/>
<text x="2072" y="1260" font-size="16" font-style="italic" fill="#334155" paint-order="stroke" stroke="#fff" stroke-width="5">sounds, speech</text>
</svg>