# generated by generate_forest.py
mtllib pine.mtl
o pine_1
v 0.7621 0.0000 0.0000
v 0.5389 0.0000 0.5389
v 0.0000 0.0000 0.7621
v -0.5389 0.0000 0.5389
v -0.7621 0.0000 0.0000
v -0.5389 0.0000 -0.5389
v -0.0000 0.0000 -0.7621
v 0.5389 0.0000 -0.5389
v 0.2613 16.3306 0.0000
v 0.1848 16.3306 0.1848
v 0.0000 16.3306 0.2613
v -0.1848 16.3306 0.1848
v -0.2613 16.3306 0.0000
v -0.1848 16.3306 -0.1848
v -0.0000 16.3306 -0.2613
v 0.1848 16.3306 -0.1848
v 2.9945 4.7903 2.9910
v 0.0025 4.7903 4.2324
v -2.9910 4.7903 2.9945
v -4.2324 4.7903 0.0025
v -2.9945 4.7903 -2.9910
v -0.0025 4.7903 -4.2324
v 2.9910 4.7903 -2.9945
v 4.2324 4.7903 -0.0025
v 0.0000 5.1470 0.0000
v 0.0000 11.9235 0.0000
v 3.5647 7.2451 1.0806
v 1.7565 7.2451 3.2847
v -1.0806 7.2451 3.5647
v -3.2847 7.2451 1.7565
v -3.5647 7.2451 -1.0806
v -1.7565 7.2451 -3.2847
v 1.0806 7.2451 -3.5647
v 3.2847 7.2451 -1.7565
v 0.0000 7.5712 0.0000
v 0.0000 13.7668 0.0000
v 2.0726 10.2377 2.4534
v -0.2692 10.2377 3.2003
v -2.4534 10.2377 2.0726
v -3.2003 10.2377 -0.2692
v -2.0726 10.2377 -2.4534
v 0.2692 10.2377 -3.2003
v 2.4534 10.2377 -2.0726
v 3.2003 10.2377 0.2692
v 0.0000 10.5333 0.0000
v 0.0000 16.1481 0.0000
v 1.2396 13.4739 1.8212
v -0.4112 13.4739 2.1643
v -1.8212 13.4739 1.2396
v -2.1643 13.4739 -0.4112
v -1.2396 13.4739 -1.8212
v 0.4112 13.4739 -2.1643
v 1.8212 13.4739 -1.2396
v 2.1643 13.4739 0.4112
v 0.0000 13.7388 0.0000
v 0.0000 18.7728 0.0000
v 1.0262 16.8789 1.0683
v -0.0298 16.8789 1.4811
v -1.0683 16.8789 1.0262
v -1.4811 16.8789 -0.0298
v -1.0262 16.8789 -1.0683
v 0.0298 16.8789 -1.4811
v 1.0683 16.8789 -1.0262
v 1.4811 16.8789 0.0298
v 0.0000 17.1237 0.0000
v 0.0000 21.7741 0.0000
usemtl bark
f 1 9 10 2
f 2 10 11 3
f 3 11 12 4
f 4 12 13 5
f 5 13 14 6
f 6 14 15 7
f 7 15 16 8
f 8 16 9 1
usemtl needles
f 17 26 18
f 18 25 17
f 18 26 19
f 19 25 18
f 19 26 20
f 20 25 19
f 20 26 21
f 21 25 20
f 21 26 22
f 22 25 21
f 22 26 23
f 23 25 22
f 23 26 24
f 24 25 23
f 24 26 17
f 17 25 24
f 37 46 38
f 38 45 37
f 38 46 39
f 39 45 38
f 39 46 40
f 40 45 39
f 40 46 41
f 41 45 40
f 41 46 42
f 42 45 41
f 42 46 43
f 43 45 42
f 43 46 44
f 44 45 43
f 44 46 37
f 37 45 44
f 57 66 58
f 58 65 57
f 58 66 59
f 59 65 58
f 59 66 60
f 60 65 59
f 60 66 61
f 61 65 60
f 61 66 62
f 62 65 61
f 62 66 63
f 63 65 62
f 63 66 64
f 64 65 63
f 64 66 57
f 57 65 64
usemtl needles_dark
f 27 36 28
f 28 35 27
f 28 36 29
f 29 35 28
f 29 36 30
f 30 35 29
f 30 36 31
f 31 35 30
f 31 36 32
f 32 35 31
f 32 36 33
f 33 35 32
f 33 36 34
f 34 35 33
f 34 36 27
f 27 35 34
f 47 56 48
f 48 55 47
f 48 56 49
f 49 55 48
f 49 56 50
f 50 55 49
f 50 56 51
f 51 55 50
f 51 56 52
f 52 55 51
f 52 56 53
f 53 55 52
f 53 56 54
f 54 55 53
f 54 56 47
f 47 55 54
