# generated by generate_cube.py
mtllib cube.mtl
o cube
usemtl cube
v -0.5 0.5 0.5
v 0.5 0.5 0.5
v 0.5 0.5 -0.5
v -0.5 0.5 -0.5
vt 0.00260 0.50391
vt 0.33073 0.50391
vt 0.33073 0.99609
vt 0.00260 0.99609
vn 0 1 0
v -0.5 -0.5 -0.5
v 0.5 -0.5 -0.5
v 0.5 -0.5 0.5
v -0.5 -0.5 0.5
vt 0.33594 0.50391
vt 0.66406 0.50391
vt 0.66406 0.99609
vt 0.33594 0.99609
vn 0 -1 0
v 0.5 -0.5 0.5
v 0.5 -0.5 -0.5
v 0.5 0.5 -0.5
v 0.5 0.5 0.5
vt 0.66927 0.50391
vt 0.99740 0.50391
vt 0.99740 0.99609
vt 0.66927 0.99609
vn 1 0 0
v -0.5 -0.5 -0.5
v -0.5 -0.5 0.5
v -0.5 0.5 0.5
v -0.5 0.5 -0.5
vt 0.00260 0.00391
vt 0.33073 0.00391
vt 0.33073 0.49609
vt 0.00260 0.49609
vn -1 0 0
v -0.5 -0.5 0.5
v 0.5 -0.5 0.5
v 0.5 0.5 0.5
v -0.5 0.5 0.5
vt 0.33594 0.00391
vt 0.66406 0.00391
vt 0.66406 0.49609
vt 0.33594 0.49609
vn 0 0 1
v 0.5 -0.5 -0.5
v -0.5 -0.5 -0.5
v -0.5 0.5 -0.5
v 0.5 0.5 -0.5
vt 0.66927 0.00391
vt 0.99740 0.00391
vt 0.99740 0.49609
vt 0.66927 0.49609
vn 0 0 -1
f 1/1/1 2/2/1 3/3/1
f 1/1/1 3/3/1 4/4/1
f 5/5/2 6/6/2 7/7/2
f 5/5/2 7/7/2 8/8/2
f 9/9/3 10/10/3 11/11/3
f 9/9/3 11/11/3 12/12/3
f 13/13/4 14/14/4 15/15/4
f 13/13/4 15/15/4 16/16/4
f 17/17/5 18/18/5 19/19/5
f 17/17/5 19/19/5 20/20/5
f 21/21/6 22/22/6 23/23/6
f 21/21/6 23/23/6 24/24/6
