# generated by generate_mosquito.py
mtllib mosquito_wing.mtl
o wing_l
g part0
usemtl wing
v 0.00000 0.00000 0.05000
v 0.04125 0.00000 0.04933
v 0.08250 0.00000 0.04810
v 0.12375 0.00000 0.04651
v 0.16500 0.00000 0.04462
v 0.20625 0.00000 0.04249
v 0.24750 0.00000 0.04012
v 0.28875 0.00000 0.03755
v 0.33000 0.00000 0.03479
v 0.37125 0.00000 0.03186
v 0.41250 0.00000 0.02875
v 0.45375 0.00000 0.02548
v 0.49500 0.00000 0.02207
v 0.53625 0.00000 0.01850
v 0.57750 0.00000 0.01480
v 0.61875 0.00000 0.01096
v 0.66000 0.00000 0.00699
v 0.70125 0.00000 0.00290
v 0.74250 0.00000 -0.00132
v 0.78375 0.00000 -0.00565
v 0.82500 0.00000 -0.01010
v 0.86625 0.00000 -0.01467
v 0.90750 0.00000 -0.01934
v 0.94875 0.00000 -0.02412
v 0.99000 0.00000 -0.02901
v 1.03125 0.00000 -0.03400
v 1.07250 0.00000 -0.03909
v 1.11375 0.00000 -0.04428
v 1.15500 0.00000 -0.04956
v 1.19625 0.00000 -0.05494
v 1.23750 0.00000 -0.06042
v 1.27875 0.00000 -0.06598
v 1.32000 0.00000 -0.07164
v 1.36125 0.00000 -0.07739
v 1.40250 0.00000 -0.08322
v 1.44375 0.00000 -0.08914
v 1.48500 0.00000 -0.09515
v 1.52625 0.00000 -0.10124
v 1.56750 0.00000 -0.10741
v 1.60875 0.00000 -0.11367
v 1.65000 0.00000 -0.12000
v 1.60875 0.00000 -0.22677
v 1.56750 0.00000 -0.25808
v 1.52625 0.00000 -0.28004
v 1.48500 0.00000 -0.29709
v 1.44375 0.00000 -0.31096
v 1.40250 0.00000 -0.32253
v 1.36125 0.00000 -0.33236
v 1.32000 0.00000 -0.34078
v 1.27875 0.00000 -0.34805
v 1.23750 0.00000 -0.35434
v 1.19625 0.00000 -0.35979
v 1.15500 0.00000 -0.36452
v 1.11375 0.00000 -0.36860
v 1.07250 0.00000 -0.37211
v 1.03125 0.00000 -0.37510
v 0.99000 0.00000 -0.37763
v 0.94875 0.00000 -0.37975
v 0.90750 0.00000 -0.38147
v 0.86625 0.00000 -0.38285
v 0.82500 0.00000 -0.38391
v 0.78375 0.00000 -0.38467
v 0.74250 0.00000 -0.38516
v 0.70125 0.00000 -0.38540
v 0.66000 0.00000 -0.38541
v 0.61875 0.00000 -0.38521
v 0.57750 0.00000 -0.38482
v 0.53625 0.00000 -0.38425
v 0.49500 0.00000 -0.38353
v 0.45375 0.00000 -0.38266
v 0.41250 0.00000 -0.38166
v 0.37125 0.00000 -0.35505
v 0.33000 0.00000 -0.32812
v 0.28875 0.00000 -0.30095
v 0.24750 0.00000 -0.27359
v 0.20625 0.00000 -0.24612
v 0.16500 0.00000 -0.21860
v 0.12375 0.00000 -0.19113
v 0.08250 0.00000 -0.16377
v 0.04125 0.00000 -0.13665
v 0.82500 0.00000 -0.17036
vn 0.0000 1.0000 0.0000
vn 0.0000 1.0000 0.0000
vn 0.0000 1.0000 0.0000
vn 0.0000 1.0000 0.0000
vn 0.0000 1.0000 0.0000
vn 0.0000 1.0000 0.0000
vn 0.0000 1.0000 0.0000
vn 0.0000 1.0000 0.0000
vn 0.0000 1.0000 0.0000
vn 0.0000 1.0000 0.0000
vn 0.0000 1.0000 0.0000
vn 0.0000 1.0000 0.0000
vn 0.0000 1.0000 0.0000
vn 0.0000 1.0000 0.0000
vn 0.0000 1.0000 0.0000
vn 0.0000 1.0000 0.0000
vn 0.0000 1.0000 0.0000
vn 0.0000 1.0000 0.0000
vn 0.0000 1.0000 0.0000
vn 0.0000 1.0000 0.0000
vn 0.0000 1.0000 0.0000
vn 0.0000 1.0000 0.0000
vn 0.0000 1.0000 0.0000
vn 0.0000 1.0000 0.0000
vn 0.0000 1.0000 0.0000
vn 0.0000 1.0000 0.0000
vn 0.0000 1.0000 0.0000
vn 0.0000 1.0000 0.0000
vn 0.0000 1.0000 0.0000
vn 0.0000 1.0000 0.0000
vn 0.0000 1.0000 0.0000
vn 0.0000 1.0000 0.0000
vn 0.0000 1.0000 0.0000
vn 0.0000 1.0000 0.0000
vn 0.0000 1.0000 0.0000
vn 0.0000 1.0000 0.0000
vn 0.0000 1.0000 0.0000
vn 0.0000 1.0000 0.0000
vn 0.0000 1.0000 0.0000
vn 0.0000 1.0000 0.0000
vn 0.0000 1.0000 0.0000
vn 0.0000 1.0000 0.0000
vn 0.0000 1.0000 0.0000
vn 0.0000 1.0000 0.0000
vn 0.0000 1.0000 0.0000
vn 0.0000 1.0000 0.0000
vn 0.0000 1.0000 0.0000
vn 0.0000 1.0000 0.0000
vn 0.0000 1.0000 0.0000
vn 0.0000 1.0000 0.0000
vn 0.0000 1.0000 0.0000
vn 0.0000 1.0000 0.0000
vn 0.0000 1.0000 0.0000
vn 0.0000 1.0000 0.0000
vn 0.0000 1.0000 0.0000
vn 0.0000 1.0000 0.0000
vn 0.0000 1.0000 0.0000
vn 0.0000 1.0000 0.0000
vn 0.0000 1.0000 0.0000
vn 0.0000 1.0000 0.0000
vn 0.0000 1.0000 0.0000
vn 0.0000 1.0000 0.0000
vn 0.0000 1.0000 0.0000
vn 0.0000 1.0000 0.0000
vn 0.0000 1.0000 0.0000
vn 0.0000 1.0000 0.0000
vn 0.0000 1.0000 0.0000
vn 0.0000 1.0000 0.0000
vn 0.0000 1.0000 0.0000
vn 0.0000 1.0000 0.0000
vn 0.0000 1.0000 0.0000
vn 0.0000 1.0000 0.0000
vn 0.0000 1.0000 0.0000
vn 0.0000 1.0000 0.0000
vn 0.0000 1.0000 0.0000
vn 0.0000 1.0000 0.0000
vn 0.0000 1.0000 0.0000
vn 0.0000 1.0000 0.0000
vn 0.0000 1.0000 0.0000
vn 0.0000 1.0000 0.0000
vn 0.0000 1.0000 0.0000
f 1//1 2//2 81//81
f 2//2 3//3 81//81
f 3//3 4//4 81//81
f 4//4 5//5 81//81
f 5//5 6//6 81//81
f 6//6 7//7 81//81
f 7//7 8//8 81//81
f 8//8 9//9 81//81
f 9//9 10//10 81//81
f 10//10 11//11 81//81
f 11//11 12//12 81//81
f 12//12 13//13 81//81
f 13//13 14//14 81//81
f 14//14 15//15 81//81
f 15//15 16//16 81//81
f 16//16 17//17 81//81
f 17//17 18//18 81//81
f 18//18 19//19 81//81
f 19//19 20//20 81//81
f 20//20 21//21 81//81
f 21//21 22//22 81//81
f 22//22 23//23 81//81
f 23//23 24//24 81//81
f 24//24 25//25 81//81
f 25//25 26//26 81//81
f 26//26 27//27 81//81
f 27//27 28//28 81//81
f 28//28 29//29 81//81
f 29//29 30//30 81//81
f 30//30 31//31 81//81
f 31//31 32//32 81//81
f 32//32 33//33 81//81
f 33//33 34//34 81//81
f 34//34 35//35 81//81
f 35//35 36//36 81//81
f 36//36 37//37 81//81
f 37//37 38//38 81//81
f 38//38 39//39 81//81
f 39//39 40//40 81//81
f 40//40 41//41 81//81
f 41//41 42//42 81//81
f 42//42 43//43 81//81
f 43//43 44//44 81//81
f 44//44 45//45 81//81
f 45//45 46//46 81//81
f 46//46 47//47 81//81
f 47//47 48//48 81//81
f 48//48 49//49 81//81
f 49//49 50//50 81//81
f 50//50 51//51 81//81
f 51//51 52//52 81//81
f 52//52 53//53 81//81
f 53//53 54//54 81//81
f 54//54 55//55 81//81
f 55//55 56//56 81//81
f 56//56 57//57 81//81
f 57//57 58//58 81//81
f 58//58 59//59 81//81
f 59//59 60//60 81//81
f 60//60 61//61 81//81
f 61//61 62//62 81//81
f 62//62 63//63 81//81
f 63//63 64//64 81//81
f 64//64 65//65 81//81
f 65//65 66//66 81//81
f 66//66 67//67 81//81
f 67//67 68//68 81//81
f 68//68 69//69 81//81
f 69//69 70//70 81//81
f 70//70 71//71 81//81
f 71//71 72//72 81//81
f 72//72 73//73 81//81
f 73//73 74//74 81//81
f 74//74 75//75 81//81
f 75//75 76//76 81//81
f 76//76 77//77 81//81
f 77//77 78//78 81//81
f 78//78 79//79 81//81
f 79//79 80//80 81//81
f 80//80 1//1 81//81
g part1
usemtl vein
v 0.00000 0.01600 0.05000
v 0.00054 0.00771 0.06140
v 0.00033 -0.00571 0.05705
v -0.00033 -0.00571 0.04295
v -0.00054 0.00771 0.03860
v 0.10312 0.01550 0.04510
v 0.10363 0.00755 0.05603
v 0.10344 -0.00530 0.05185
v 0.10281 -0.00530 0.03835
v 0.10262 0.00755 0.03417
v 0.20625 0.01500 0.04048
v 0.20675 0.00740 0.05093
v 0.20656 -0.00490 0.04693
v 0.20594 -0.00490 0.03402
v 0.20575 0.00740 0.03003
v 0.30937 0.01450 0.03530
v 0.30994 0.00724 0.04527
v 0.30973 -0.00449 0.04146
v 0.30902 -0.00449 0.02914
v 0.30881 0.00724 0.02533
v 0.41250 0.01400 0.02875
v 0.41318 0.00709 0.03824
v 0.41292 -0.00409 0.03461
v 0.41208 -0.00409 0.02289
v 0.41182 0.00709 0.01926
v 0.51562 0.01350 0.02054
v 0.51639 0.00694 0.02955
v 0.51610 -0.00369 0.02611
v 0.51515 -0.00369 0.01498
v 0.51486 0.00694 0.01154
v 0.61875 0.01300 0.01114
v 0.61956 0.00678 0.01966
v 0.61925 -0.00328 0.01641
v 0.61825 -0.00328 0.00587
v 0.61794 0.00678 0.00262
v 0.72187 0.01250 0.00083
v 0.72270 0.00663 0.00887
v 0.72239 -0.00288 0.00580
v 0.72136 -0.00288 -0.00414
v 0.72105 0.00663 -0.00721
v 0.82500 0.01200 -0.01010
v 0.82582 0.00647 -0.00254
v 0.82551 -0.00247 -0.00543
v 0.82449 -0.00247 -0.01478
v 0.82418 0.00647 -0.01767
v 0.92812 0.01150 -0.02166
v 0.92894 0.00632 -0.01457
v 0.92863 -0.00207 -0.01728
v 0.92762 -0.00207 -0.02604
v 0.92731 0.00632 -0.02875
v 1.03125 0.01100 -0.03397
v 1.03206 0.00616 -0.02736
v 1.03175 -0.00166 -0.02988
v 1.03075 -0.00166 -0.03805
v 1.03044 0.00616 -0.04057
v 1.13437 0.01050 -0.04692
v 1.13516 0.00601 -0.04079
v 1.13486 -0.00126 -0.04313
v 1.13389 -0.00126 -0.05071
v 1.13359 0.00601 -0.05305
v 1.23750 0.01000 -0.06042
v 1.23826 0.00585 -0.05476
v 1.23797 -0.00085 -0.05692
v 1.23703 -0.00085 -0.06391
v 1.23674 0.00585 -0.06607
v 1.34062 0.00950 -0.07466
v 1.34136 0.00570 -0.06948
v 1.34108 -0.00045 -0.07146
v 1.34017 -0.00045 -0.07786
v 1.33989 0.00570 -0.07984
v 1.44375 0.00900 -0.08963
v 1.44444 0.00555 -0.08492
v 1.44418 -0.00005 -0.08672
v 1.44332 -0.00005 -0.09254
v 1.44306 0.00555 -0.09433
v 1.54688 0.00850 -0.10489
v 1.54750 0.00539 -0.10065
v 1.54726 0.00036 -0.10227
v 1.54649 0.00036 -0.10750
v 1.54625 0.00539 -0.10912
v 1.65000 0.00800 -0.12000
v 1.65055 0.00524 -0.11624
v 1.65034 0.00076 -0.11767
v 1.64966 0.00076 -0.12233
v 1.64945 0.00524 -0.12376
v 0.00000 0.01600 0.05000
v 0.00054 0.00771 0.06140
v 0.00033 -0.00571 0.05705
v -0.00033 -0.00571 0.04295
v -0.00054 0.00771 0.03860
v 0.00000 0.00400 0.05000
v 1.65000 0.00800 -0.12000
v 1.65055 0.00524 -0.11624
v 1.65034 0.00076 -0.11767
v 1.64966 0.00076 -0.12233
v 1.64945 0.00524 -0.12376
v 1.65000 0.00400 -0.12000
vn 0.0048 1.0000 -0.0002
vn 0.0500 0.3090 0.9497
vn 0.0327 -0.8090 0.5869
vn -0.0231 -0.8090 -0.5873
vn -0.0403 0.3090 -0.9502
vn 0.0048 1.0000 -0.0002
vn 0.0487 0.3090 0.9498
vn 0.0320 -0.8090 0.5869
vn -0.0223 -0.8090 -0.5874
vn -0.0390 0.3090 -0.9503
vn 0.0048 1.0000 -0.0002
vn 0.0500 0.3090 0.9497
vn 0.0327 -0.8090 0.5869
vn -0.0231 -0.8090 -0.5873
vn -0.0403 0.3090 -0.9502
vn 0.0048 1.0000 -0.0003
vn 0.0588 0.3090 0.9492
vn 0.0382 -0.8090 0.5866
vn -0.0285 -0.8090 -0.5871
vn -0.0491 0.3090 -0.9498
vn 0.0048 1.0000 -0.0003
vn 0.0727 0.3090 0.9483
vn 0.0468 -0.8090 0.5859
vn -0.0371 -0.8090 -0.5866
vn -0.0630 0.3090 -0.9490
vn 0.0048 1.0000 -0.0004
vn 0.0857 0.3090 0.9472
vn 0.0548 -0.8090 0.5852
vn -0.0452 -0.8090 -0.5861
vn -0.0761 0.3090 -0.9480
vn 0.0048 1.0000 -0.0005
vn 0.0953 0.3090 0.9463
vn 0.0607 -0.8090 0.5847
vn -0.0511 -0.8090 -0.5856
vn -0.0857 0.3090 -0.9472
vn 0.0048 1.0000 -0.0005
vn 0.1022 0.3090 0.9455
vn 0.0650 -0.8090 0.5842
vn -0.0554 -0.8090 -0.5852
vn -0.0926 0.3090 -0.9465
vn 0.0048 1.0000 -0.0005
vn 0.1079 0.3090 0.9449
vn 0.0685 -0.8090 0.5838
vn -0.0589 -0.8090 -0.5848
vn -0.0983 0.3090 -0.9460
vn 0.0048 1.0000 -0.0006
vn 0.1141 0.3090 0.9442
vn 0.0723 -0.8090 0.5833
vn -0.0628 -0.8090 -0.5844
vn -0.1045 0.3090 -0.9453
vn 0.0048 1.0000 -0.0006
vn 0.1204 0.3090 0.9434
vn 0.0762 -0.8090 0.5828
vn -0.0667 -0.8090 -0.5840
vn -0.1108 0.3090 -0.9446
vn 0.0048 1.0000 -0.0006
vn 0.1258 0.3090 0.9427
vn 0.0795 -0.8090 0.5824
vn -0.0700 -0.8090 -0.5836
vn -0.1162 0.3090 -0.9439
vn 0.0048 1.0000 -0.0006
vn 0.1315 0.3090 0.9419
vn 0.0831 -0.8090 0.5819
vn -0.0736 -0.8090 -0.5832
vn -0.1220 0.3090 -0.9432
vn 0.0048 1.0000 -0.0007
vn 0.1381 0.3090 0.9410
vn 0.0872 -0.8090 0.5813
vn -0.0777 -0.8090 -0.5826
vn -0.1286 0.3090 -0.9423
vn 0.0047 1.0000 -0.0007
vn 0.1426 0.3090 0.9403
vn 0.0900 -0.8090 0.5809
vn -0.0805 -0.8090 -0.5823
vn -0.1332 0.3090 -0.9417
vn 0.0047 1.0000 -0.0007
vn 0.1433 0.3090 0.9402
vn 0.0904 -0.8090 0.5808
vn -0.0809 -0.8090 -0.5822
vn -0.1338 0.3090 -0.9416
vn 0.0047 1.0000 -0.0007
vn 0.1426 0.3090 0.9403
vn 0.0900 -0.8090 0.5809
vn -0.0805 -0.8090 -0.5823
vn -0.1332 0.3090 -0.9417
vn -0.9989 -0.0000 0.0475
vn -0.9989 -0.0000 0.0475
vn -0.9989 -0.0000 0.0475
vn -0.9989 -0.0000 0.0475
vn -0.9989 -0.0000 0.0475
vn -0.9989 -0.0000 0.0475
vn 0.9894 0.0000 -0.1450
vn 0.9894 0.0000 -0.1450
vn 0.9894 0.0000 -0.1450
vn 0.9894 0.0000 -0.1450
vn 0.9894 0.0000 -0.1450
vn 0.9894 0.0000 -0.1450
f 82//82 83//83 88//88 87//87
f 83//83 84//84 89//89 88//88
f 84//84 85//85 90//90 89//89
f 85//85 86//86 91//91 90//90
f 86//86 82//82 87//87 91//91
f 87//87 88//88 93//93 92//92
f 88//88 89//89 94//94 93//93
f 89//89 90//90 95//95 94//94
f 90//90 91//91 96//96 95//95
f 91//91 87//87 92//92 96//96
f 92//92 93//93 98//98 97//97
f 93//93 94//94 99//99 98//98
f 94//94 95//95 100//100 99//99
f 95//95 96//96 101//101 100//100
f 96//96 92//92 97//97 101//101
f 97//97 98//98 103//103 102//102
f 98//98 99//99 104//104 103//103
f 99//99 100//100 105//105 104//104
f 100//100 101//101 106//106 105//105
f 101//101 97//97 102//102 106//106
f 102//102 103//103 108//108 107//107
f 103//103 104//104 109//109 108//108
f 104//104 105//105 110//110 109//109
f 105//105 106//106 111//111 110//110
f 106//106 102//102 107//107 111//111
f 107//107 108//108 113//113 112//112
f 108//108 109//109 114//114 113//113
f 109//109 110//110 115//115 114//114
f 110//110 111//111 116//116 115//115
f 111//111 107//107 112//112 116//116
f 112//112 113//113 118//118 117//117
f 113//113 114//114 119//119 118//118
f 114//114 115//115 120//120 119//119
f 115//115 116//116 121//121 120//120
f 116//116 112//112 117//117 121//121
f 117//117 118//118 123//123 122//122
f 118//118 119//119 124//124 123//123
f 119//119 120//120 125//125 124//124
f 120//120 121//121 126//126 125//125
f 121//121 117//117 122//122 126//126
f 122//122 123//123 128//128 127//127
f 123//123 124//124 129//129 128//128
f 124//124 125//125 130//130 129//129
f 125//125 126//126 131//131 130//130
f 126//126 122//122 127//127 131//131
f 127//127 128//128 133//133 132//132
f 128//128 129//129 134//134 133//133
f 129//129 130//130 135//135 134//134
f 130//130 131//131 136//136 135//135
f 131//131 127//127 132//132 136//136
f 132//132 133//133 138//138 137//137
f 133//133 134//134 139//139 138//138
f 134//134 135//135 140//140 139//139
f 135//135 136//136 141//141 140//140
f 136//136 132//132 137//137 141//141
f 137//137 138//138 143//143 142//142
f 138//138 139//139 144//144 143//143
f 139//139 140//140 145//145 144//144
f 140//140 141//141 146//146 145//145
f 141//141 137//137 142//142 146//146
f 142//142 143//143 148//148 147//147
f 143//143 144//144 149//149 148//148
f 144//144 145//145 150//150 149//149
f 145//145 146//146 151//151 150//150
f 146//146 142//142 147//147 151//151
f 147//147 148//148 153//153 152//152
f 148//148 149//149 154//154 153//153
f 149//149 150//150 155//155 154//154
f 150//150 151//151 156//156 155//155
f 151//151 147//147 152//152 156//156
f 152//152 153//153 158//158 157//157
f 153//153 154//154 159//159 158//158
f 154//154 155//155 160//160 159//159
f 155//155 156//156 161//161 160//160
f 156//156 152//152 157//157 161//161
f 157//157 158//158 163//163 162//162
f 158//158 159//159 164//164 163//163
f 159//159 160//160 165//165 164//164
f 160//160 161//161 166//166 165//165
f 161//161 157//157 162//162 166//166
f 168//168 172//172 167//167
f 169//169 172//172 168//168
f 170//170 172//172 169//169
f 171//171 172//172 170//170
f 167//167 172//172 171//171
f 174//174 178//178 173//173
f 175//175 178//178 174//174
f 176//176 178//178 175//175
f 177//177 178//178 176//176
f 173//173 178//178 177//177
g part2
usemtl vein
v 0.04000 0.01100 0.00000
v 0.04097 0.00400 0.00693
v 0.04000 -0.00300 0.00000
v 0.03903 0.00400 -0.00693
v 0.21031 0.01050 -0.02376
v 0.21121 0.00400 -0.01732
v 0.21031 -0.00250 -0.02376
v 0.20941 0.00400 -0.03019
v 0.38000 0.01000 -0.04751
v 0.38083 0.00400 -0.04157
v 0.38000 -0.00200 -0.04751
v 0.37917 0.00400 -0.05345
v 0.55094 0.00950 -0.07127
v 0.55169 0.00400 -0.06582
v 0.55094 -0.00150 -0.07127
v 0.55019 0.00400 -0.07672
v 0.72500 0.00900 -0.09502
v 0.72567 0.00400 -0.09007
v 0.72500 -0.00100 -0.09502
v 0.72433 0.00400 -0.09998
v 0.90344 0.00850 -0.11878
v 0.90403 0.00400 -0.11432
v 0.90344 -0.00050 -0.11878
v 0.90285 0.00400 -0.12324
v 1.08500 0.00800 -0.14254
v 1.08552 0.00400 -0.13857
v 1.08500 0.00000 -0.14254
v 1.08448 0.00400 -0.14650
v 1.26781 0.00750 -0.16629
v 1.26826 0.00400 -0.16282
v 1.26781 0.00050 -0.16629
v 1.26736 0.00400 -0.16976
v 1.45000 0.00700 -0.19005
v 1.45039 0.00400 -0.18707
v 1.45000 0.00100 -0.19005
v 1.44961 0.00400 -0.19302
v 0.04000 0.01100 0.00000
v 0.04097 0.00400 0.00693
v 0.04000 -0.00300 0.00000
v 0.03903 0.00400 -0.00693
v 0.04000 0.00400 0.00000
v 1.45000 0.00700 -0.19005
v 1.45039 0.00400 -0.18707
v 1.45000 0.00100 -0.19005
v 1.44961 0.00400 -0.19302
v 1.45000 0.00400 -0.19005
vn 0.0029 1.0000 -0.0004
vn 0.1410 0.0000 0.9900
vn 0.0029 -1.0000 -0.0004
vn -0.1353 -0.0000 -0.9908
vn 0.0029 1.0000 -0.0004
vn 0.1413 0.0000 0.9900
vn 0.0029 -1.0000 -0.0004
vn -0.1355 0.0000 -0.9908
vn 0.0029 1.0000 -0.0004
vn 0.1410 0.0000 0.9900
vn 0.0029 -1.0000 -0.0004
vn -0.1353 0.0000 -0.9908
vn 0.0028 1.0000 -0.0004
vn 0.1393 0.0000 0.9903
vn 0.0028 -1.0000 -0.0004
vn -0.1336 0.0000 -0.9910
vn 0.0028 1.0000 -0.0004
vn 0.1364 0.0000 0.9907
vn 0.0028 -1.0000 -0.0004
vn -0.1308 0.0000 -0.9914
vn 0.0027 1.0000 -0.0004
vn 0.1336 0.0000 0.9910
vn 0.0027 -1.0000 -0.0004
vn -0.1281 0.0000 -0.9918
vn 0.0027 1.0000 -0.0004
vn 0.1320 0.0000 0.9913
vn 0.0027 -1.0000 -0.0004
vn -0.1266 0.0000 -0.9920
vn 0.0027 1.0000 -0.0004
vn 0.1318 0.0000 0.9913
vn 0.0027 -1.0000 -0.0004
vn -0.1264 0.0000 -0.9920
vn 0.0027 1.0000 -0.0004
vn 0.1320 0.0000 0.9913
vn 0.0027 -1.0000 -0.0004
vn -0.1266 0.0000 -0.9920
vn -0.9904 -0.0000 0.1381
vn -0.9904 -0.0000 0.1381
vn -0.9904 -0.0000 0.1381
vn -0.9904 -0.0000 0.1381
vn -0.9904 -0.0000 0.1381
vn 0.9916 0.0000 -0.1293
vn 0.9916 0.0000 -0.1293
vn 0.9916 0.0000 -0.1293
vn 0.9916 0.0000 -0.1293
vn 0.9916 0.0000 -0.1293
f 179//179 180//180 184//184 183//183
f 180//180 181//181 185//185 184//184
f 181//181 182//182 186//186 185//185
f 182//182 179//179 183//183 186//186
f 183//183 184//184 188//188 187//187
f 184//184 185//185 189//189 188//188
f 185//185 186//186 190//190 189//189
f 186//186 183//183 187//187 190//190
f 187//187 188//188 192//192 191//191
f 188//188 189//189 193//193 192//192
f 189//189 190//190 194//194 193//193
f 190//190 187//187 191//191 194//194
f 191//191 192//192 196//196 195//195
f 192//192 193//193 197//197 196//196
f 193//193 194//194 198//198 197//197
f 194//194 191//191 195//195 198//198
f 195//195 196//196 200//200 199//199
f 196//196 197//197 201//201 200//200
f 197//197 198//198 202//202 201//201
f 198//198 195//195 199//199 202//202
f 199//199 200//200 204//204 203//203
f 200//200 201//201 205//205 204//204
f 201//201 202//202 206//206 205//205
f 202//202 199//199 203//203 206//206
f 203//203 204//204 208//208 207//207
f 204//204 205//205 209//209 208//208
f 205//205 206//206 210//210 209//209
f 206//206 203//203 207//207 210//210
f 207//207 208//208 212//212 211//211
f 208//208 209//209 213//213 212//212
f 209//209 210//210 214//214 213//213
f 210//210 207//207 211//211 214//214
f 216//216 219//219 215//215
f 217//217 219//219 216//216
f 218//218 219//219 217//217
f 215//215 219//219 218//218
f 221//221 224//224 220//220
f 222//222 224//224 221//221
f 223//223 224//224 222//222
f 220//220 224//224 223//223
g part3
usemtl vein
v 0.04000 0.01100 0.00000
v 0.04208 0.00400 0.00668
v 0.04000 -0.00300 0.00000
v 0.03792 0.00400 -0.00668
v 0.17906 0.01050 -0.04334
v 0.18102 0.00400 -0.03714
v 0.17906 -0.00250 -0.04334
v 0.17711 0.00400 -0.04953
v 0.31750 0.01000 -0.08761
v 0.31929 0.00400 -0.08188
v 0.31750 -0.00200 -0.08761
v 0.31571 0.00400 -0.09334
v 0.45719 0.00950 -0.13001
v 0.45869 0.00400 -0.12472
v 0.45719 -0.00150 -0.13001
v 0.45569 0.00400 -0.13530
v 0.60000 0.00900 -0.16772
v 0.60116 0.00400 -0.16285
v 0.60000 -0.00100 -0.16772
v 0.59884 0.00400 -0.17258
v 0.74719 0.00850 -0.19887
v 0.74804 0.00400 -0.19445
v 0.74719 -0.00050 -0.19887
v 0.74633 0.00400 -0.20329
v 0.89750 0.00800 -0.22533
v 0.89817 0.00400 -0.22138
v 0.89750 0.00000 -0.22533
v 0.89683 0.00400 -0.22927
v 1.04906 0.00750 -0.24991
v 1.04963 0.00400 -0.24646
v 1.04906 0.00050 -0.24991
v 1.04849 0.00400 -0.25337
v 1.20000 0.00700 -0.27544
v 1.20050 0.00400 -0.27248
v 1.20000 0.00100 -0.27544
v 1.19950 0.00400 -0.27840
v 0.04000 0.01100 0.00000
v 0.04208 0.00400 0.00668
v 0.04000 -0.00300 0.00000
v 0.03792 0.00400 -0.00668
v 0.04000 0.00400 0.00000
v 1.20000 0.00700 -0.27544
v 1.20050 0.00400 -0.27248
v 1.20000 0.00100 -0.27544
v 1.19950 0.00400 -0.27840
v 1.20000 0.00400 -0.27544
vn 0.0033 1.0000 -0.0010
vn 0.3008 0.0000 0.9537
vn 0.0033 -1.0000 -0.0010
vn -0.2942 -0.0000 -0.9557
vn 0.0033 1.0000 -0.0010
vn 0.3043 0.0000 0.9526
vn 0.0033 -1.0000 -0.0010
vn -0.2978 0.0000 -0.9546
vn 0.0033 1.0000 -0.0010
vn 0.3008 0.0000 0.9537
vn 0.0033 -1.0000 -0.0010
vn -0.2942 0.0000 -0.9557
vn 0.0033 1.0000 -0.0009
vn 0.2761 0.0000 0.9611
vn 0.0033 -1.0000 -0.0009
vn -0.2695 0.0000 -0.9630
vn 0.0033 1.0000 -0.0008
vn 0.2343 0.0000 0.9722
vn 0.0033 -1.0000 -0.0008
vn -0.2278 0.0000 -0.9737
vn 0.0032 1.0000 -0.0006
vn 0.1933 0.0000 0.9811
vn 0.0032 -1.0000 -0.0006
vn -0.1869 0.0000 -0.9824
vn 0.0032 1.0000 -0.0005
vn 0.1699 0.0000 0.9855
vn 0.0032 -1.0000 -0.0005
vn -0.1635 0.0000 -0.9865
vn 0.0032 1.0000 -0.0005
vn 0.1666 0.0000 0.9860
vn 0.0032 -1.0000 -0.0005
vn -0.1602 0.0000 -0.9871
vn 0.0032 1.0000 -0.0005
vn 0.1700 0.0000 0.9855
vn 0.0032 -1.0000 -0.0005
vn -0.1635 0.0000 -0.9865
vn -0.9547 -0.0000 0.2975
vn -0.9547 -0.0000 0.2975
vn -0.9547 -0.0000 0.2975
vn -0.9547 -0.0000 0.2975
vn -0.9547 -0.0000 0.2975
vn 0.9860 0.0000 -0.1667
vn 0.9860 0.0000 -0.1667
vn 0.9860 0.0000 -0.1667
vn 0.9860 0.0000 -0.1667
vn 0.9860 0.0000 -0.1667
f 225//225 226//226 230//230 229//229
f 226//226 227//227 231//231 230//230
f 227//227 228//228 232//232 231//231
f 228//228 225//225 229//229 232//232
f 229//229 230//230 234//234 233//233
f 230//230 231//231 235//235 234//234
f 231//231 232//232 236//236 235//235
f 232//232 229//229 233//233 236//236
f 233//233 234//234 238//238 237//237
f 234//234 235//235 239//239 238//238
f 235//235 236//236 240//240 239//239
f 236//236 233//233 237//237 240//240
f 237//237 238//238 242//242 241//241
f 238//238 239//239 243//243 242//242
f 239//239 240//240 244//244 243//243
f 240//240 237//237 241//241 244//244
f 241//241 242//242 246//246 245//245
f 242//242 243//243 247//247 246//246
f 243//243 244//244 248//248 247//247
f 244//244 241//241 245//245 248//248
f 245//245 246//246 250//250 249//249
f 246//246 247//247 251//251 250//250
f 247//247 248//248 252//252 251//251
f 248//248 245//245 249//249 252//252
f 249//249 250//250 254//254 253//253
f 250//250 251//251 255//255 254//254
f 251//251 252//252 256//256 255//255
f 252//252 249//249 253//253 256//256
f 253//253 254//254 258//258 257//257
f 254//254 255//255 259//259 258//258
f 255//255 256//256 260//260 259//259
f 256//256 253//253 257//257 260//260
f 262//262 265//265 261//261
f 263//263 265//265 262//262
f 264//264 265//265 263//263
f 261//261 265//265 264//264
f 267//267 270//270 266//266
f 268//268 270//270 267//267
f 269//269 270//270 268//268
f 266//266 270//270 269//269
g part4
usemtl vein
v 0.04000 0.01100 0.00000
v 0.04322 0.00400 0.00622
v 0.04000 -0.00300 0.00000
v 0.03678 0.00400 -0.00622
v 0.14781 0.01050 -0.05585
v 0.15085 0.00400 -0.05010
v 0.14781 -0.00250 -0.05585
v 0.14478 0.00400 -0.06159
v 0.25500 0.01000 -0.11357
v 0.25776 0.00400 -0.10824
v 0.25500 -0.00200 -0.11357
v 0.25224 0.00400 -0.11889
v 0.36344 0.00950 -0.16754
v 0.36569 0.00400 -0.16252
v 0.36344 -0.00150 -0.16754
v 0.36119 0.00400 -0.17256
v 0.47500 0.00900 -0.21213
v 0.47659 0.00400 -0.20739
v 0.47500 -0.00100 -0.21213
v 0.47341 0.00400 -0.21688
v 0.59094 0.00850 -0.24361
v 0.59194 0.00400 -0.23922
v 0.59094 -0.00050 -0.24361
v 0.58994 0.00400 -0.24799
v 0.71000 0.00800 -0.26570
v 0.71067 0.00400 -0.26176
v 0.71000 0.00000 -0.26570
v 0.70933 0.00400 -0.26965
v 0.83031 0.00750 -0.28405
v 0.83087 0.00400 -0.28059
v 0.83031 0.00050 -0.28405
v 0.82976 0.00400 -0.28750
v 0.95000 0.00700 -0.30427
v 0.95050 0.00400 -0.30131
v 0.95000 0.00100 -0.30427
v 0.94950 0.00400 -0.30723
v 0.04000 0.01100 0.00000
v 0.04322 0.00400 0.00622
v 0.04000 -0.00300 0.00000
v 0.03678 0.00400 -0.00622
v 0.04000 0.00400 0.00000
v 0.95000 0.00700 -0.30427
v 0.95050 0.00400 -0.30131
v 0.95000 0.00100 -0.30427
v 0.94950 0.00400 -0.30723
v 0.95000 0.00400 -0.30427
vn 0.0037 1.0000 -0.0019
vn 0.4636 0.0000 0.8860
vn 0.0037 -1.0000 -0.0019
vn -0.4563 -0.0000 -0.8898
vn 0.0036 1.0000 -0.0019
vn 0.4707 0.0000 0.8823
vn 0.0036 -1.0000 -0.0019
vn -0.4634 0.0000 -0.8861
vn 0.0037 1.0000 -0.0019
vn 0.4636 0.0000 0.8860
vn 0.0037 -1.0000 -0.0019
vn -0.4563 0.0000 -0.8898
vn 0.0038 1.0000 -0.0017
vn 0.4127 0.0000 0.9109
vn 0.0038 -1.0000 -0.0017
vn -0.4050 0.0000 -0.9143
vn 0.0040 1.0000 -0.0013
vn 0.3211 0.0000 0.9471
vn 0.0040 -1.0000 -0.0013
vn -0.3132 0.0000 -0.9497
vn 0.0040 1.0000 -0.0009
vn 0.2262 0.0000 0.9741
vn 0.0040 -1.0000 -0.0009
vn -0.2183 0.0000 -0.9759
vn 0.0041 1.0000 -0.0007
vn 0.1706 0.0000 0.9853
vn 0.0041 -1.0000 -0.0007
vn -0.1626 0.0000 -0.9867
vn 0.0041 1.0000 -0.0007
vn 0.1627 0.0000 0.9867
vn 0.0041 -1.0000 -0.0007
vn -0.1546 0.0000 -0.9880
vn 0.0041 1.0000 -0.0007
vn 0.1706 0.0000 0.9853
vn 0.0041 -1.0000 -0.0007
vn -0.1625 0.0000 -0.9867
vn -0.8879 -0.0000 0.4599
vn -0.8879 -0.0000 0.4599
vn -0.8879 -0.0000 0.4599
vn -0.8879 -0.0000 0.4599
vn -0.8879 -0.0000 0.4599
vn 0.9860 0.0000 -0.1666
vn 0.9860 0.0000 -0.1666
vn 0.9860 0.0000 -0.1666
vn 0.9860 0.0000 -0.1666
vn 0.9860 0.0000 -0.1666
f 271//271 272//272 276//276 275//275
f 272//272 273//273 277//277 276//276
f 273//273 274//274 278//278 277//277
f 274//274 271//271 275//275 278//278
f 275//275 276//276 280//280 279//279
f 276//276 277//277 281//281 280//280
f 277//277 278//278 282//282 281//281
f 278//278 275//275 279//279 282//282
f 279//279 280//280 284//284 283//283
f 280//280 281//281 285//285 284//284
f 281//281 282//282 286//286 285//285
f 282//282 279//279 283//283 286//286
f 283//283 284//284 288//288 287//287
f 284//284 285//285 289//289 288//288
f 285//285 286//286 290//290 289//289
f 286//286 283//283 287//287 290//290
f 287//287 288//288 292//292 291//291
f 288//288 289//289 293//293 292//292
f 289//289 290//290 294//294 293//293
f 290//290 287//287 291//291 294//294
f 291//291 292//292 296//296 295//295
f 292//292 293//293 297//297 296//296
f 293//293 294//294 298//298 297//297
f 294//294 291//291 295//295 298//298
f 295//295 296//296 300//300 299//299
f 296//296 297//297 301//301 300//300
f 297//297 298//298 302//302 301//301
f 298//298 295//295 299//299 302//302
f 299//299 300//300 304//304 303//303
f 300//300 301//301 305//305 304//304
f 301//301 302//302 306//306 305//305
f 302//302 299//299 303//303 306//306
f 308//308 311//311 307//307
f 309//309 311//311 308//308
f 310//310 311//311 309//309
f 307//307 311//311 310//310
f 313//313 316//316 312//312
f 314//314 316//316 313//313
f 315//315 316//316 314//314
f 312//312 316//316 315//315
g part5
usemtl vein
v 0.04000 0.01100 0.00000
v 0.04446 0.00400 0.00539
v 0.04000 -0.00300 0.00000
v 0.03554 0.00400 -0.00539
v 0.11031 0.01050 -0.05822
v 0.11453 0.00400 -0.05327
v 0.11031 -0.00250 -0.05822
v 0.10610 0.00400 -0.06317
v 0.18000 0.01000 -0.11926
v 0.18383 0.00400 -0.11464
v 0.18000 -0.00200 -0.11926
v 0.17617 0.00400 -0.12388
v 0.25094 0.00950 -0.17467
v 0.25399 0.00400 -0.17009
v 0.25094 -0.00150 -0.17467
v 0.24788 0.00400 -0.17924
v 0.32500 0.00900 -0.21602
v 0.32691 0.00400 -0.21140
v 0.32500 -0.00100 -0.21602
v 0.32309 0.00400 -0.22064
v 0.40344 0.00850 -0.23768
v 0.40425 0.00400 -0.23325
v 0.40344 -0.00050 -0.23768
v 0.40263 0.00400 -0.24210
v 0.48500 0.00800 -0.24527
v 0.48523 0.00400 -0.24128
v 0.48500 0.00000 -0.24527
v 0.48477 0.00400 -0.24927
v 0.56781 0.00750 -0.24725
v 0.56796 0.00400 -0.24375
v 0.56781 0.00050 -0.24725
v 0.56767 0.00400 -0.25074
v 0.65000 0.00700 -0.25203
v 0.65017 0.00400 -0.24904
v 0.65000 0.00100 -0.25203
v 0.64983 0.00400 -0.25503
v 0.04000 0.01100 0.00000
v 0.04446 0.00400 0.00539
v 0.04000 -0.00300 0.00000
v 0.03554 0.00400 -0.00539
v 0.04000 0.00400 0.00000
v 0.65000 0.00700 -0.25203
v 0.65017 0.00400 -0.24904
v 0.65000 0.00100 -0.25203
v 0.64983 0.00400 -0.25503
v 0.65000 0.00400 -0.25203
vn 0.0042 1.0000 -0.0035
vn 0.6420 0.0000 0.7667
vn 0.0042 -1.0000 -0.0035
vn -0.6335 -0.0000 -0.7737
vn 0.0041 1.0000 -0.0035
vn 0.6526 0.0000 0.7577
vn 0.0041 -1.0000 -0.0035
vn -0.6443 0.0000 -0.7648
vn 0.0042 1.0000 -0.0035
vn 0.6421 0.0000 0.7666
vn 0.0042 -1.0000 -0.0035
vn -0.6335 0.0000 -0.7738
vn 0.0048 1.0000 -0.0032
vn 0.5602 0.0000 0.8284
vn 0.0048 -1.0000 -0.0032
vn -0.5500 0.0000 -0.8352
vn 0.0056 1.0000 -0.0023
vn 0.3875 0.0000 0.9219
vn 0.0056 -1.0000 -0.0023
vn -0.3764 0.0000 -0.9265
vn 0.0060 1.0000 -0.0011
vn 0.1855 0.0000 0.9826
vn 0.0060 -1.0000 -0.0011
vn -0.1744 0.0000 -0.9847
vn 0.0061 1.0000 -0.0004
vn 0.0640 0.0000 0.9979
vn 0.0061 -1.0000 -0.0004
vn -0.0523 0.0000 -0.9986
vn 0.0061 1.0000 -0.0002
vn 0.0470 0.0000 0.9989
vn 0.0061 -1.0000 -0.0002
vn -0.0349 0.0000 -0.9994
vn 0.0061 1.0000 -0.0004
vn 0.0642 0.0000 0.9979
vn 0.0061 -1.0000 -0.0004
vn -0.0521 0.0000 -0.9986
vn -0.7702 -0.0000 0.6378
vn -0.7702 -0.0000 0.6378
vn -0.7702 -0.0000 0.6378
vn -0.7702 -0.0000 0.6378
vn -0.7702 -0.0000 0.6378
vn 0.9983 0.0000 -0.0581
vn 0.9983 0.0000 -0.0581
vn 0.9983 0.0000 -0.0581
vn 0.9983 0.0000 -0.0581
vn 0.9983 0.0000 -0.0581
f 317//317 318//318 322//322 321//321
f 318//318 319//319 323//323 322//322
f 319//319 320//320 324//324 323//323
f 320//320 317//317 321//321 324//324
f 321//321 322//322 326//326 325//325
f 322//322 323//323 327//327 326//326
f 323//323 324//324 328//328 327//327
f 324//324 321//321 325//325 328//328
f 325//325 326//326 330//330 329//329
f 326//326 327//327 331//331 330//330
f 327//327 328//328 332//332 331//331
f 328//328 325//325 329//329 332//332
f 329//329 330//330 334//334 333//333
f 330//330 331//331 335//335 334//334
f 331//331 332//332 336//336 335//335
f 332//332 329//329 333//333 336//336
f 333//333 334//334 338//338 337//337
f 334//334 335//335 339//339 338//338
f 335//335 336//336 340//340 339//339
f 336//336 333//333 337//337 340//340
f 337//337 338//338 342//342 341//341
f 338//338 339//339 343//343 342//342
f 339//339 340//340 344//344 343//343
f 340//340 337//337 341//341 344//344
f 341//341 342//342 346//346 345//345
f 342//342 343//343 347//347 346//346
f 343//343 344//344 348//348 347//347
f 344//344 341//341 345//345 348//348
f 345//345 346//346 350//350 349//349
f 346//346 347//347 351//351 350//350
f 347//347 348//348 352//352 351//351
f 348//348 345//345 349//349 352//352
f 354//354 357//357 353//353
f 355//355 357//357 354//354
f 356//356 357//357 355//355
f 353//353 357//357 356//356
f 359//359 362//362 358//358
f 360//360 362//362 359//359
f 361//361 362//362 360//360
f 358//358 362//362 361//361
