# generated by generate_mosquito.py
mtllib mosquito.mtl
o mosquito_leg_R2_3
g part0
usemtl body
v -0.90296 0.09190 -1.56420
v -0.88820 0.08841 -1.56622
v -0.88034 0.08000 -1.57631
v -0.88401 0.07159 -1.58857
v -0.89704 0.06810 -1.59580
v -0.91180 0.07159 -1.59378
v -0.91966 0.08000 -1.58369
v -0.91599 0.08841 -1.57143
v -0.84133 0.52535 -1.89289
v -0.83469 0.52379 -1.89380
v -0.83115 0.52000 -1.89834
v -0.83280 0.51621 -1.90386
v -0.83867 0.51465 -1.90711
v -0.84531 0.51621 -1.90620
v -0.84885 0.52000 -1.90166
v -0.84720 0.52379 -1.89614
v -0.90296 0.09190 -1.56420
v -0.88820 0.08841 -1.56622
v -0.88034 0.08000 -1.57631
v -0.88401 0.07159 -1.58857
v -0.89704 0.06810 -1.59580
v -0.91180 0.07159 -1.59378
v -0.91966 0.08000 -1.58369
v -0.91599 0.08841 -1.57143
v -0.90000 0.08000 -1.58000
v -0.84133 0.52535 -1.89289
v -0.83469 0.52379 -1.89380
v -0.83115 0.52000 -1.89834
v -0.83280 0.51621 -1.90386
v -0.83867 0.51465 -1.90711
v -0.84531 0.51621 -1.90620
v -0.84885 0.52000 -1.90166
v -0.84720 0.52379 -1.89614
v -0.84000 0.52000 -1.90000
vn -0.1459 0.6108 0.7782
vn 0.5923 0.4367 0.6771
vn 0.9849 0.0162 0.1725
vn 0.8018 -0.4044 -0.4400
vn 0.1503 -0.5785 -0.8017
vn -0.5879 -0.4044 -0.7006
vn -0.9805 0.0162 -0.1960
vn -0.7974 0.4367 0.4165
vn -0.1459 0.6108 0.7782
vn 0.5923 0.4367 0.6771
vn 0.9849 0.0162 0.1725
vn 0.8018 -0.4044 -0.4400
vn 0.1503 -0.5785 -0.8017
vn -0.5879 -0.4044 -0.7006
vn -0.9805 0.0162 -0.1960
vn -0.7974 0.4367 0.4165
vn -0.1096 -0.8039 0.5846
vn -0.1096 -0.8039 0.5846
vn -0.1096 -0.8039 0.5846
vn -0.1096 -0.8039 0.5846
vn -0.1096 -0.8039 0.5846
vn -0.1096 -0.8039 0.5846
vn -0.1096 -0.8039 0.5846
vn -0.1096 -0.8039 0.5846
vn -0.1096 -0.8039 0.5846
vn 0.1096 0.8039 -0.5846
vn 0.1096 0.8039 -0.5846
vn 0.1096 0.8039 -0.5846
vn 0.1096 0.8039 -0.5846
vn 0.1096 0.8039 -0.5846
vn 0.1096 0.8039 -0.5846
vn 0.1096 0.8039 -0.5846
vn 0.1096 0.8039 -0.5846
vn 0.1096 0.8039 -0.5846
f 1//1 2//2 10//10 9//9
f 2//2 3//3 11//11 10//10
f 3//3 4//4 12//12 11//11
f 4//4 5//5 13//13 12//12
f 5//5 6//6 14//14 13//13
f 6//6 7//7 15//15 14//14
f 7//7 8//8 16//16 15//15
f 8//8 1//1 9//9 16//16
f 18//18 25//25 17//17
f 19//19 25//25 18//18
f 20//20 25//25 19//19
f 21//21 25//25 20//20
f 22//22 25//25 21//21
f 23//23 25//25 22//22
f 24//24 25//25 23//23
f 17//17 25//25 24//24
f 27//27 34//34 26//26
f 28//28 34//34 27//27
f 29//29 34//34 28//28
f 30//30 34//34 29//29
f 31//31 34//34 30//30
f 32//32 34//34 31//31
f 33//33 34//34 32//32
f 26//26 34//34 33//33
g part1
usemtl stripe
v -0.89507 0.11617 -1.60631
v -0.89507 0.11617 -1.60631
v -0.89507 0.11617 -1.60631
v -0.89507 0.11617 -1.60631
v -0.89507 0.11617 -1.60631
v -0.89507 0.11617 -1.60631
v -0.89507 0.11617 -1.60631
v -0.89507 0.11617 -1.60631
v -0.89549 0.11786 -1.58937
v -0.88532 0.11420 -1.59249
v -0.88141 0.10765 -1.60076
v -0.88606 0.10205 -1.60934
v -0.89653 0.10067 -1.61319
v -0.90670 0.10433 -1.61007
v -0.91061 0.11088 -1.60181
v -0.90596 0.11648 -1.59323
v -0.89763 0.10508 -1.56886
v -0.88118 0.09916 -1.57391
v -0.87486 0.08857 -1.58728
v -0.88237 0.07951 -1.60116
v -0.89932 0.07728 -1.60740
v -0.91577 0.08319 -1.60235
v -0.92209 0.09378 -1.58897
v -0.91458 0.10285 -1.57510
v -0.90068 0.08272 -1.55260
v -0.88423 0.07681 -1.55765
v -0.87791 0.06622 -1.57103
v -0.88542 0.05715 -1.58490
v -0.90237 0.05492 -1.59114
v -0.91882 0.06084 -1.58609
v -0.92514 0.07143 -1.57272
v -0.91763 0.08049 -1.55884
v -0.90347 0.05933 -1.54681
v -0.89330 0.05567 -1.54993
v -0.88939 0.04912 -1.55819
v -0.89404 0.04352 -1.56677
v -0.90451 0.04214 -1.57063
v -0.91468 0.04580 -1.56751
v -0.91859 0.05235 -1.55924
v -0.91394 0.05795 -1.55066
v -0.90493 0.04383 -1.55369
v -0.90493 0.04383 -1.55369
v -0.90493 0.04383 -1.55369
v -0.90493 0.04383 -1.55369
v -0.90493 0.04383 -1.55369
v -0.90493 0.04383 -1.55369
v -0.90493 0.04383 -1.55369
v -0.90493 0.04383 -1.55369
vn 0.1096 0.8039 -0.5846
vn 0.1096 0.8039 -0.5846
vn 0.1096 0.8039 -0.5846
vn 0.1096 0.8039 -0.5846
vn 0.1096 0.8039 -0.5846
vn 0.1096 0.8039 -0.5846
vn 0.1096 0.8039 -0.5846
vn 0.1096 0.8039 -0.5846
vn 0.0948 0.9527 0.2887
vn 0.6445 0.7551 0.1201
vn 0.8557 0.4012 -0.3269
vn 0.6046 0.0983 -0.7904
vn 0.0384 0.0239 -0.9990
vn -0.5113 0.2215 -0.8304
vn -0.7225 0.5754 -0.3833
vn -0.4714 0.8783 0.0802
vn 0.0544 0.7181 0.6938
vn 0.7354 0.4733 0.4849
vn 0.9970 0.0349 -0.0689
vn 0.6860 -0.3403 -0.6431
vn -0.0155 -0.4325 -0.9015
vn -0.6965 -0.1877 -0.6926
vn -0.9581 0.2507 -0.1388
vn -0.6470 0.6259 0.4354
vn 0.0155 0.4325 0.9015
vn 0.6965 0.1877 0.6926
vn 0.9581 -0.2507 0.1388
vn 0.6470 -0.6259 -0.4354
vn -0.0544 -0.7181 -0.6938
vn -0.7354 -0.4733 -0.4849
vn -0.9970 -0.0349 0.0689
vn -0.6860 0.3403 0.6431
vn -0.0384 -0.0239 0.9990
vn 0.5113 -0.2215 0.8304
vn 0.7225 -0.5754 0.3833
vn 0.4714 -0.8783 -0.0802
vn -0.0948 -0.9527 -0.2887
vn -0.6445 -0.7551 -0.1201
vn -0.8557 -0.4012 0.3269
vn -0.6046 -0.0983 0.7904
vn -0.1096 -0.8039 0.5846
vn -0.1096 -0.8039 0.5846
vn -0.1096 -0.8039 0.5846
vn -0.1096 -0.8039 0.5846
vn -0.1096 -0.8039 0.5846
vn -0.1096 -0.8039 0.5846
vn -0.1096 -0.8039 0.5846
vn -0.1096 -0.8039 0.5846
f 43//43 44//44 36//36 35//35
f 44//44 45//45 37//37 36//36
f 45//45 46//46 38//38 37//37
f 46//46 47//47 39//39 38//38
f 47//47 48//48 40//40 39//39
f 48//48 49//49 41//41 40//40
f 49//49 50//50 42//42 41//41
f 50//50 43//43 35//35 42//42
f 51//51 52//52 44//44 43//43
f 52//52 53//53 45//45 44//44
f 53//53 54//54 46//46 45//45
f 54//54 55//55 47//47 46//46
f 55//55 56//56 48//48 47//47
f 56//56 57//57 49//49 48//48
f 57//57 58//58 50//50 49//49
f 58//58 51//51 43//43 50//50
f 59//59 60//60 52//52 51//51
f 60//60 61//61 53//53 52//52
f 61//61 62//62 54//54 53//53
f 62//62 63//63 55//55 54//54
f 63//63 64//64 56//56 55//55
f 64//64 65//65 57//57 56//56
f 65//65 66//66 58//58 57//57
f 66//66 59//59 51//51 58//58
f 67//67 68//68 60//60 59//59
f 68//68 69//69 61//61 60//60
f 69//69 70//70 62//62 61//61
f 70//70 71//71 63//63 62//62
f 71//71 72//72 64//64 63//63
f 72//72 73//73 65//65 64//64
f 73//73 74//74 66//66 65//65
f 74//74 67//67 59//59 66//66
f 75//75 76//76 68//68 67//67
f 76//76 77//77 69//69 68//68
f 77//77 78//78 70//70 69//69
f 78//78 79//79 71//71 70//70
f 79//79 80//80 72//72 71//71
f 80//80 81//81 73//73 72//72
f 81//81 82//82 74//74 73//73
f 82//82 75//75 67//67 74//74
g part2
usemtl stripe
v -0.84000 0.53600 -1.90000
v -0.84000 0.53600 -1.90000
v -0.84000 0.53600 -1.90000
v -0.84000 0.53600 -1.90000
v -0.84000 0.53600 -1.90000
v -0.84000 0.53600 -1.90000
v -0.84000 0.53131 -1.88869
v -0.83020 0.53131 -1.89434
v -0.83020 0.53131 -1.90566
v -0.84000 0.53131 -1.91131
v -0.84980 0.53131 -1.90566
v -0.84980 0.53131 -1.89434
v -0.84000 0.52000 -1.88400
v -0.82614 0.52000 -1.89200
v -0.82614 0.52000 -1.90800
v -0.84000 0.52000 -1.91600
v -0.85386 0.52000 -1.90800
v -0.85386 0.52000 -1.89200
v -0.84000 0.50869 -1.88869
v -0.83020 0.50869 -1.89434
v -0.83020 0.50869 -1.90566
v -0.84000 0.50869 -1.91131
v -0.84980 0.50869 -1.90566
v -0.84980 0.50869 -1.89434
v -0.84000 0.50400 -1.90000
v -0.84000 0.50400 -1.90000
v -0.84000 0.50400 -1.90000
v -0.84000 0.50400 -1.90000
v -0.84000 0.50400 -1.90000
v -0.84000 0.50400 -1.90000
vn 0.0000 1.0000 0.0000
vn 0.0000 1.0000 0.0000
vn 0.0000 1.0000 -0.0000
vn 0.0000 1.0000 -0.0000
vn -0.0000 1.0000 -0.0000
vn -0.0000 1.0000 0.0000
vn 0.0000 0.7071 0.7071
vn 0.6124 0.7071 0.3536
vn 0.6124 0.7071 -0.3536
vn 0.0000 0.7071 -0.7071
vn -0.6124 0.7071 -0.3536
vn -0.6124 0.7071 0.3536
vn 0.0000 0.0000 1.0000
vn 0.8660 0.0000 0.5000
vn 0.8660 0.0000 -0.5000
vn 0.0000 0.0000 -1.0000
vn -0.8660 0.0000 -0.5000
vn -0.8660 0.0000 0.5000
vn 0.0000 -0.7071 0.7071
vn 0.6124 -0.7071 0.3536
vn 0.6124 -0.7071 -0.3536
vn 0.0000 -0.7071 -0.7071
vn -0.6124 -0.7071 -0.3536
vn -0.6124 -0.7071 0.3536
vn 0.0000 -1.0000 0.0000
vn 0.0000 -1.0000 0.0000
vn 0.0000 -1.0000 -0.0000
vn 0.0000 -1.0000 -0.0000
vn -0.0000 -1.0000 -0.0000
vn -0.0000 -1.0000 0.0000
f 89//89 90//90 84//84 83//83
f 90//90 91//91 85//85 84//84
f 91//91 92//92 86//86 85//85
f 92//92 93//93 87//87 86//86
f 93//93 94//94 88//88 87//87
f 94//94 89//89 83//83 88//88
f 95//95 96//96 90//90 89//89
f 96//96 97//97 91//91 90//90
f 97//97 98//98 92//92 91//91
f 98//98 99//99 93//93 92//92
f 99//99 100//100 94//94 93//93
f 100//100 95//95 89//89 94//94
f 101//101 102//102 96//96 95//95
f 102//102 103//103 97//97 96//96
f 103//103 104//104 98//98 97//97
f 104//104 105//105 99//99 98//98
f 105//105 106//106 100//100 99//99
f 106//106 101//101 95//95 100//100
f 107//107 108//108 102//102 101//101
f 108//108 109//109 103//103 102//102
f 109//109 110//110 104//104 103//103
f 110//110 111//111 105//105 104//104
f 111//111 112//112 106//106 105//105
f 112//112 107//107 101//101 106//106
