# generated by generate_mosquito.py
mtllib mosquito.mtl
o mosquito_leg_L0_3
g part0
usemtl body
v 0.81936 -1.19485 1.23931
v 0.80551 -1.19811 1.23366
v 0.80015 -1.20248 1.22000
v 0.80642 -1.20540 1.20634
v 0.82064 -1.20515 1.20069
v 0.83449 -1.20189 1.20634
v 0.83985 -1.19752 1.22000
v 0.83358 -1.19460 1.23366
v 0.87971 -1.67768 1.35869
v 0.87348 -1.67915 1.35615
v 0.87107 -1.68112 1.35000
v 0.87389 -1.68243 1.34385
v 0.88029 -1.68232 1.34131
v 0.88652 -1.68085 1.34385
v 0.88893 -1.67888 1.35000
v 0.88611 -1.67757 1.35615
v 0.81936 -1.19485 1.23931
v 0.80551 -1.19811 1.23366
v 0.80015 -1.20248 1.22000
v 0.80642 -1.20540 1.20634
v 0.82064 -1.20515 1.20069
v 0.83449 -1.20189 1.20634
v 0.83985 -1.19752 1.22000
v 0.83358 -1.19460 1.23366
v 0.82000 -1.20000 1.22000
v 0.87971 -1.67768 1.35869
v 0.87348 -1.67915 1.35615
v 0.87107 -1.68112 1.35000
v 0.87389 -1.68243 1.34385
v 0.88029 -1.68232 1.34131
v 0.88652 -1.68085 1.34385
v 0.88893 -1.67888 1.35000
v 0.88611 -1.67757 1.35615
v 0.88000 -1.68000 1.35000
vn -0.0296 0.2364 0.9712
vn -0.7216 0.0733 0.6884
vn -0.9894 -0.1450 0.0057
vn -0.6761 -0.2908 -0.6770
vn 0.0348 -0.2785 -0.9598
vn 0.7269 -0.1154 -0.6770
vn 0.9947 0.1030 0.0057
vn 0.6814 0.2487 0.6884
vn -0.0296 0.2364 0.9712
vn -0.7216 0.0733 0.6884
vn -0.9894 -0.1450 0.0057
vn -0.6761 -0.2908 -0.6770
vn 0.0348 -0.2785 -0.9598
vn 0.7269 -0.1154 -0.6770
vn 0.9947 0.1030 0.0057
vn 0.6814 0.2487 0.6884
vn -0.1198 0.9583 -0.2595
vn -0.1198 0.9583 -0.2595
vn -0.1198 0.9583 -0.2595
vn -0.1198 0.9583 -0.2595
vn -0.1198 0.9583 -0.2595
vn -0.1198 0.9583 -0.2595
vn -0.1198 0.9583 -0.2595
vn -0.1198 0.9583 -0.2595
vn -0.1198 0.9583 -0.2595
vn 0.1198 -0.9583 0.2595
vn 0.1198 -0.9583 0.2595
vn 0.1198 -0.9583 0.2595
vn 0.1198 -0.9583 0.2595
vn 0.1198 -0.9583 0.2595
vn 0.1198 -0.9583 0.2595
vn 0.1198 -0.9583 0.2595
vn 0.1198 -0.9583 0.2595
vn 0.1198 -0.9583 0.2595
f 1//1 2//2 10//10 9//9
f 2//2 3//3 11//11 10//10
f 3//3 4//4 12//12 11//11
f 4//4 5//5 13//13 12//12
f 5//5 6//6 14//14 13//13
f 6//6 7//7 15//15 14//14
f 7//7 8//8 16//16 15//15
f 8//8 1//1 9//9 16//16
f 18//18 25//25 17//17
f 19//19 25//25 18//18
f 20//20 25//25 19//19
f 21//21 25//25 20//20
f 22//22 25//25 21//21
f 23//23 25//25 22//22
f 24//24 25//25 23//23
f 17//17 25//25 24//24
f 27//27 34//34 26//26
f 28//28 34//34 27//27
f 29//29 34//34 28//28
f 30//30 34//34 29//29
f 31//31 34//34 30//30
f 32//32 34//34 31//31
f 33//33 34//34 32//32
f 26//26 34//34 33//33
g part1
usemtl stripe
v 0.82539 -1.24312 1.23168
v 0.82539 -1.24312 1.23168
v 0.82539 -1.24312 1.23168
v 0.82539 -1.24312 1.23168
v 0.82539 -1.24312 1.23168
v 0.82539 -1.24312 1.23168
v 0.82539 -1.24312 1.23168
v 0.82539 -1.24312 1.23168
v 0.81341 -1.23870 1.22042
v 0.82344 -1.23883 1.21532
v 0.83400 -1.23665 1.21850
v 0.83892 -1.23343 1.22809
v 0.83531 -1.23107 1.23848
v 0.82529 -1.23095 1.24357
v 0.81472 -1.23313 1.24040
v 0.80980 -1.23634 1.23081
v 0.80395 -1.21950 1.20900
v 0.82017 -1.21970 1.20075
v 0.83727 -1.21617 1.20589
v 0.84522 -1.21098 1.22141
v 0.83938 -1.20715 1.23822
v 0.82316 -1.20695 1.24647
v 0.80607 -1.21048 1.24132
v 0.79811 -1.21568 1.22581
v 0.80062 -1.19285 1.20178
v 0.81684 -1.19305 1.19353
v 0.83393 -1.18952 1.19868
v 0.84189 -1.18432 1.21419
v 0.83605 -1.18050 1.23100
v 0.81983 -1.18030 1.23925
v 0.80273 -1.18383 1.23411
v 0.79478 -1.18902 1.21859
v 0.80469 -1.16893 1.20152
v 0.81471 -1.16905 1.19643
v 0.82528 -1.16687 1.19960
v 0.83020 -1.16366 1.20919
v 0.82659 -1.16130 1.21958
v 0.81656 -1.16117 1.22468
v 0.80600 -1.16335 1.22150
v 0.80108 -1.16657 1.21191
v 0.81461 -1.15688 1.20832
v 0.81461 -1.15688 1.20832
v 0.81461 -1.15688 1.20832
v 0.81461 -1.15688 1.20832
v 0.81461 -1.15688 1.20832
v 0.81461 -1.15688 1.20832
v 0.81461 -1.15688 1.20832
v 0.81461 -1.15688 1.20832
vn 0.1198 -0.9583 0.2595
vn 0.1198 -0.9583 0.2595
vn 0.1198 -0.9583 0.2595
vn 0.1198 -0.9583 0.2595
vn 0.1198 -0.9583 0.2595
vn 0.1198 -0.9583 0.2595
vn 0.1198 -0.9583 0.2595
vn 0.1198 -0.9583 0.2595
vn -0.5191 -0.7882 -0.3304
vn 0.0228 -0.7951 -0.6060
vn 0.5940 -0.6772 -0.4342
vn 0.8598 -0.5036 0.0842
vn 0.6647 -0.3759 0.6457
vn 0.1227 -0.3690 0.9213
vn -0.4484 -0.4869 0.7495
vn -0.7143 -0.6606 0.2311
vn -0.7120 -0.4256 -0.5585
vn -0.0406 -0.4342 -0.8999
vn 0.6670 -0.2881 -0.6871
vn 0.9963 -0.0730 -0.0449
vn 0.7545 0.0852 0.6507
vn 0.0832 0.0937 0.9921
vn -0.6244 -0.0523 0.7794
vn -0.9538 -0.2675 0.1371
vn -0.7545 -0.0852 -0.6507
vn -0.0832 -0.0937 -0.9921
vn 0.6244 0.0523 -0.7794
vn 0.9538 0.2675 -0.1371
vn 0.7120 0.4256 0.5585
vn 0.0406 0.4342 0.8999
vn -0.6670 0.2881 0.6871
vn -0.9963 0.0730 0.0449
vn -0.6647 0.3759 -0.6457
vn -0.1227 0.3690 -0.9213
vn 0.4484 0.4869 -0.7495
vn 0.7143 0.6606 -0.2311
vn 0.5191 0.7882 0.3304
vn -0.0228 0.7951 0.6060
vn -0.5940 0.6772 0.4342
vn -0.8598 0.5036 -0.0842
vn -0.1198 0.9583 -0.2595
vn -0.1198 0.9583 -0.2595
vn -0.1198 0.9583 -0.2595
vn -0.1198 0.9583 -0.2595
vn -0.1198 0.9583 -0.2595
vn -0.1198 0.9583 -0.2595
vn -0.1198 0.9583 -0.2595
vn -0.1198 0.9583 -0.2595
f 43//43 44//44 36//36 35//35
f 44//44 45//45 37//37 36//36
f 45//45 46//46 38//38 37//37
f 46//46 47//47 39//39 38//38
f 47//47 48//48 40//40 39//39
f 48//48 49//49 41//41 40//40
f 49//49 50//50 42//42 41//41
f 50//50 43//43 35//35 42//42
f 51//51 52//52 44//44 43//43
f 52//52 53//53 45//45 44//44
f 53//53 54//54 46//46 45//45
f 54//54 55//55 47//47 46//46
f 55//55 56//56 48//48 47//47
f 56//56 57//57 49//49 48//48
f 57//57 58//58 50//50 49//49
f 58//58 51//51 43//43 50//50
f 59//59 60//60 52//52 51//51
f 60//60 61//61 53//53 52//52
f 61//61 62//62 54//54 53//53
f 62//62 63//63 55//55 54//54
f 63//63 64//64 56//56 55//55
f 64//64 65//65 57//57 56//56
f 65//65 66//66 58//58 57//57
f 66//66 59//59 51//51 58//58
f 67//67 68//68 60//60 59//59
f 68//68 69//69 61//61 60//60
f 69//69 70//70 62//62 61//61
f 70//70 71//71 63//63 62//62
f 71//71 72//72 64//64 63//63
f 72//72 73//73 65//65 64//64
f 73//73 74//74 66//66 65//65
f 74//74 67//67 59//59 66//66
f 75//75 76//76 68//68 67//67
f 76//76 77//77 69//69 68//68
f 77//77 78//78 70//70 69//69
f 78//78 79//79 71//71 70//70
f 79//79 80//80 72//72 71//71
f 80//80 81//81 73//73 72//72
f 81//81 82//82 74//74 73//73
f 82//82 75//75 67//67 74//74
g part2
usemtl stripe
v 0.88000 -1.66400 1.35000
v 0.88000 -1.66400 1.35000
v 0.88000 -1.66400 1.35000
v 0.88000 -1.66400 1.35000
v 0.88000 -1.66400 1.35000
v 0.88000 -1.66400 1.35000
v 0.88000 -1.66869 1.36131
v 0.88980 -1.66869 1.35566
v 0.88980 -1.66869 1.34434
v 0.88000 -1.66869 1.33869
v 0.87020 -1.66869 1.34434
v 0.87020 -1.66869 1.35566
v 0.88000 -1.68000 1.36600
v 0.89386 -1.68000 1.35800
v 0.89386 -1.68000 1.34200
v 0.88000 -1.68000 1.33400
v 0.86614 -1.68000 1.34200
v 0.86614 -1.68000 1.35800
v 0.88000 -1.69131 1.36131
v 0.88980 -1.69131 1.35566
v 0.88980 -1.69131 1.34434
v 0.88000 -1.69131 1.33869
v 0.87020 -1.69131 1.34434
v 0.87020 -1.69131 1.35566
v 0.88000 -1.69600 1.35000
v 0.88000 -1.69600 1.35000
v 0.88000 -1.69600 1.35000
v 0.88000 -1.69600 1.35000
v 0.88000 -1.69600 1.35000
v 0.88000 -1.69600 1.35000
vn 0.0000 1.0000 0.0000
vn 0.0000 1.0000 0.0000
vn 0.0000 1.0000 -0.0000
vn 0.0000 1.0000 -0.0000
vn -0.0000 1.0000 -0.0000
vn -0.0000 1.0000 0.0000
vn 0.0000 0.7071 0.7071
vn 0.6124 0.7071 0.3536
vn 0.6124 0.7071 -0.3536
vn 0.0000 0.7071 -0.7071
vn -0.6124 0.7071 -0.3536
vn -0.6124 0.7071 0.3536
vn 0.0000 0.0000 1.0000
vn 0.8660 0.0000 0.5000
vn 0.8660 0.0000 -0.5000
vn 0.0000 0.0000 -1.0000
vn -0.8660 0.0000 -0.5000
vn -0.8660 0.0000 0.5000
vn 0.0000 -0.7071 0.7071
vn 0.6124 -0.7071 0.3536
vn 0.6124 -0.7071 -0.3536
vn 0.0000 -0.7071 -0.7071
vn -0.6124 -0.7071 -0.3536
vn -0.6124 -0.7071 0.3536
vn 0.0000 -1.0000 0.0000
vn 0.0000 -1.0000 0.0000
vn 0.0000 -1.0000 -0.0000
vn 0.0000 -1.0000 -0.0000
vn -0.0000 -1.0000 -0.0000
vn -0.0000 -1.0000 0.0000
f 89//89 90//90 84//84 83//83
f 90//90 91//91 85//85 84//84
f 91//91 92//92 86//86 85//85
f 92//92 93//93 87//87 86//86
f 93//93 94//94 88//88 87//87
f 94//94 89//89 83//83 88//88
f 95//95 96//96 90//90 89//89
f 96//96 97//97 91//91 90//90
f 97//97 98//98 92//92 91//91
f 98//98 99//99 93//93 92//92
f 99//99 100//100 94//94 93//93
f 100//100 95//95 89//89 94//94
f 101//101 102//102 96//96 95//95
f 102//102 103//103 97//97 96//96
f 103//103 104//104 98//98 97//97
f 104//104 105//105 99//99 98//98
f 105//105 106//106 100//100 99//99
f 106//106 101//101 95//95 100//100
f 107//107 108//108 102//102 101//101
f 108//108 109//109 103//103 102//102
f 109//109 110//110 104//104 103//103
f 110//110 111//111 105//105 104//104
f 111//111 112//112 106//106 105//105
f 112//112 107//107 101//101 106//106
