# generated by generate_mosquito.py
mtllib mosquito.mtl
o mosquito_leg_R1_3
g part0
usemtl body
v -1.32033 -1.22159 -0.08007
v -1.33408 -1.21824 -0.08590
v -1.33958 -1.21592 -0.10000
v -1.33361 -1.21599 -0.11410
v -1.31967 -1.21841 -0.11993
v -1.30592 -1.22176 -0.11410
v -1.30042 -1.22408 -0.10000
v -1.30639 -1.22401 -0.08590
v -1.42015 -1.70072 -0.13103
v -1.42634 -1.69921 -0.13366
v -1.42881 -1.69816 -0.14000
v -1.42612 -1.69820 -0.14634
v -1.41985 -1.69928 -0.14897
v -1.41366 -1.70079 -0.14634
v -1.41119 -1.70184 -0.14000
v -1.41388 -1.70180 -0.13366
v -1.32033 -1.22159 -0.08007
v -1.33408 -1.21824 -0.08590
v -1.33958 -1.21592 -0.10000
v -1.33361 -1.21599 -0.11410
v -1.31967 -1.21841 -0.11993
v -1.30592 -1.22176 -0.11410
v -1.30042 -1.22408 -0.10000
v -1.30639 -1.22401 -0.08590
v -1.32000 -1.22000 -0.10000
v -1.42015 -1.70072 -0.13103
v -1.42634 -1.69921 -0.13366
v -1.42881 -1.69816 -0.14000
v -1.42612 -1.69820 -0.14634
v -1.41985 -1.69928 -0.14897
v -1.41366 -1.70079 -0.14634
v -1.41119 -1.70184 -0.14000
v -1.41388 -1.70180 -0.13366
v -1.42000 -1.70000 -0.14000
vn -0.0211 -0.1014 0.9946
vn -0.7083 0.0661 0.7028
vn -0.9833 0.1821 -0.0018
vn -0.6849 0.1786 -0.7064
vn 0.0120 0.0578 -0.9983
vn 0.6992 -0.1097 -0.7064
vn 0.9742 -0.2257 -0.0018
vn 0.6758 -0.2223 0.7028
vn -0.0211 -0.1014 0.9946
vn -0.7083 0.0661 0.7028
vn -0.9833 0.1821 -0.0018
vn -0.6849 0.1786 -0.7064
vn 0.0120 0.0578 -0.9983
vn 0.6992 -0.1097 -0.7064
vn 0.9742 -0.2257 -0.0018
vn 0.6758 -0.2223 0.7028
vn 0.2033 0.9757 0.0813
vn 0.2033 0.9757 0.0813
vn 0.2033 0.9757 0.0813
vn 0.2033 0.9757 0.0813
vn 0.2033 0.9757 0.0813
vn 0.2033 0.9757 0.0813
vn 0.2033 0.9757 0.0813
vn 0.2033 0.9757 0.0813
vn 0.2033 0.9757 0.0813
vn -0.2033 -0.9757 -0.0813
vn -0.2033 -0.9757 -0.0813
vn -0.2033 -0.9757 -0.0813
vn -0.2033 -0.9757 -0.0813
vn -0.2033 -0.9757 -0.0813
vn -0.2033 -0.9757 -0.0813
vn -0.2033 -0.9757 -0.0813
vn -0.2033 -0.9757 -0.0813
vn -0.2033 -0.9757 -0.0813
f 1//1 2//2 10//10 9//9
f 2//2 3//3 11//11 10//10
f 3//3 4//4 12//12 11//11
f 4//4 5//5 13//13 12//12
f 5//5 6//6 14//14 13//13
f 6//6 7//7 15//15 14//14
f 7//7 8//8 16//16 15//15
f 8//8 1//1 9//9 16//16
f 18//18 25//25 17//17
f 19//19 25//25 18//18
f 20//20 25//25 19//19
f 21//21 25//25 20//20
f 22//22 25//25 21//21
f 23//23 25//25 22//22
f 24//24 25//25 23//23
f 17//17 25//25 24//24
f 27//27 34//34 26//26
f 28//28 34//34 27//27
f 29//29 34//34 28//28
f 30//30 34//34 29//29
f 31//31 34//34 30//30
f 32//32 34//34 31//31
f 33//33 34//34 32//32
f 26//26 34//34 33//33
g part1
usemtl stripe
v -1.32915 -1.26391 -0.10366
v -1.32915 -1.26391 -0.10366
v -1.32915 -1.26391 -0.10366
v -1.32915 -1.26391 -0.10366
v -1.32915 -1.26391 -0.10366
v -1.32915 -1.26391 -0.10366
v -1.32915 -1.26391 -0.10366
v -1.32915 -1.26391 -0.10366
v -1.33741 -1.25433 -0.09227
v -1.34179 -1.25257 -0.10248
v -1.33773 -1.25254 -0.11297
v -1.32763 -1.25426 -0.11760
v -1.31739 -1.25672 -0.11365
v -1.31301 -1.25848 -0.10344
v -1.31707 -1.25851 -0.09295
v -1.32717 -1.25679 -0.08832
v -1.33903 -1.23164 -0.08383
v -1.34610 -1.22878 -0.10035
v -1.33955 -1.22874 -0.11733
v -1.32320 -1.23152 -0.12482
v -1.30663 -1.23550 -0.11843
v -1.29955 -1.23835 -0.10191
v -1.30611 -1.23840 -0.08493
v -1.32246 -1.23562 -0.07745
v -1.33337 -1.20450 -0.08157
v -1.34045 -1.20165 -0.09809
v -1.33389 -1.20160 -0.11507
v -1.31754 -1.20438 -0.12255
v -1.30097 -1.20836 -0.11617
v -1.29390 -1.21122 -0.09965
v -1.30045 -1.21126 -0.08267
v -1.31680 -1.20848 -0.07518
v -1.32261 -1.18328 -0.08635
v -1.32699 -1.18152 -0.09656
v -1.32293 -1.18149 -0.10705
v -1.31283 -1.18321 -0.11168
v -1.30259 -1.18567 -0.10773
v -1.29821 -1.18743 -0.09752
v -1.30227 -1.18746 -0.08703
v -1.31237 -1.18574 -0.08240
v -1.31085 -1.17609 -0.09634
v -1.31085 -1.17609 -0.09634
v -1.31085 -1.17609 -0.09634
v -1.31085 -1.17609 -0.09634
v -1.31085 -1.17609 -0.09634
v -1.31085 -1.17609 -0.09634
v -1.31085 -1.17609 -0.09634
v -1.31085 -1.17609 -0.09634
vn -0.2033 -0.9757 -0.0813
vn -0.2033 -0.9757 -0.0813
vn -0.2033 -0.9757 -0.0813
vn -0.2033 -0.9757 -0.0813
vn -0.2033 -0.9757 -0.0813
vn -0.2033 -0.9757 -0.0813
vn -0.2033 -0.9757 -0.0813
vn -0.2033 -0.9757 -0.0813
vn -0.6647 -0.5281 0.5285
vn -0.9012 -0.4328 -0.0234
vn -0.6821 -0.4312 -0.5906
vn -0.1358 -0.5242 -0.8407
vn 0.4177 -0.6573 -0.6273
vn 0.6542 -0.7525 -0.0753
vn 0.4351 -0.7542 0.4918
vn -0.1112 -0.6612 0.7419
vn -0.7066 -0.0933 0.7015
vn -0.9995 0.0247 0.0177
vn -0.7281 0.0267 -0.6849
vn -0.0514 -0.0885 -0.9948
vn 0.6343 -0.2533 -0.7304
vn 0.9273 -0.3714 -0.0466
vn 0.6559 -0.3734 0.6560
vn -0.0208 -0.2582 0.9659
vn -0.6343 0.2533 0.7304
vn -0.9273 0.3714 0.0466
vn -0.6559 0.3734 -0.6560
vn 0.0208 0.2582 -0.9659
vn 0.7066 0.0933 -0.7015
vn 0.9995 -0.0247 -0.0177
vn 0.7281 -0.0267 0.6849
vn 0.0514 0.0885 0.9948
vn -0.4177 0.6573 0.6273
vn -0.6542 0.7525 0.0753
vn -0.4351 0.7542 -0.4918
vn 0.1112 0.6612 -0.7419
vn 0.6647 0.5281 -0.5285
vn 0.9012 0.4328 0.0234
vn 0.6821 0.4312 0.5906
vn 0.1358 0.5242 0.8407
vn 0.2033 0.9757 0.0813
vn 0.2033 0.9757 0.0813
vn 0.2033 0.9757 0.0813
vn 0.2033 0.9757 0.0813
vn 0.2033 0.9757 0.0813
vn 0.2033 0.9757 0.0813
vn 0.2033 0.9757 0.0813
vn 0.2033 0.9757 0.0813
f 43//43 44//44 36//36 35//35
f 44//44 45//45 37//37 36//36
f 45//45 46//46 38//38 37//37
f 46//46 47//47 39//39 38//38
f 47//47 48//48 40//40 39//39
f 48//48 49//49 41//41 40//40
f 49//49 50//50 42//42 41//41
f 50//50 43//43 35//35 42//42
f 51//51 52//52 44//44 43//43
f 52//52 53//53 45//45 44//44
f 53//53 54//54 46//46 45//45
f 54//54 55//55 47//47 46//46
f 55//55 56//56 48//48 47//47
f 56//56 57//57 49//49 48//48
f 57//57 58//58 50//50 49//49
f 58//58 51//51 43//43 50//50
f 59//59 60//60 52//52 51//51
f 60//60 61//61 53//53 52//52
f 61//61 62//62 54//54 53//53
f 62//62 63//63 55//55 54//54
f 63//63 64//64 56//56 55//55
f 64//64 65//65 57//57 56//56
f 65//65 66//66 58//58 57//57
f 66//66 59//59 51//51 58//58
f 67//67 68//68 60//60 59//59
f 68//68 69//69 61//61 60//60
f 69//69 70//70 62//62 61//61
f 70//70 71//71 63//63 62//62
f 71//71 72//72 64//64 63//63
f 72//72 73//73 65//65 64//64
f 73//73 74//74 66//66 65//65
f 74//74 67//67 59//59 66//66
f 75//75 76//76 68//68 67//67
f 76//76 77//77 69//69 68//68
f 77//77 78//78 70//70 69//69
f 78//78 79//79 71//71 70//70
f 79//79 80//80 72//72 71//71
f 80//80 81//81 73//73 72//72
f 81//81 82//82 74//74 73//73
f 82//82 75//75 67//67 74//74
g part2
usemtl stripe
v -1.42000 -1.68400 -0.14000
v -1.42000 -1.68400 -0.14000
v -1.42000 -1.68400 -0.14000
v -1.42000 -1.68400 -0.14000
v -1.42000 -1.68400 -0.14000
v -1.42000 -1.68400 -0.14000
v -1.42000 -1.68869 -0.12869
v -1.41020 -1.68869 -0.13434
v -1.41020 -1.68869 -0.14566
v -1.42000 -1.68869 -0.15131
v -1.42980 -1.68869 -0.14566
v -1.42980 -1.68869 -0.13434
v -1.42000 -1.70000 -0.12400
v -1.40614 -1.70000 -0.13200
v -1.40614 -1.70000 -0.14800
v -1.42000 -1.70000 -0.15600
v -1.43386 -1.70000 -0.14800
v -1.43386 -1.70000 -0.13200
v -1.42000 -1.71131 -0.12869
v -1.41020 -1.71131 -0.13434
v -1.41020 -1.71131 -0.14566
v -1.42000 -1.71131 -0.15131
v -1.42980 -1.71131 -0.14566
v -1.42980 -1.71131 -0.13434
v -1.42000 -1.71600 -0.14000
v -1.42000 -1.71600 -0.14000
v -1.42000 -1.71600 -0.14000
v -1.42000 -1.71600 -0.14000
v -1.42000 -1.71600 -0.14000
v -1.42000 -1.71600 -0.14000
vn 0.0000 1.0000 0.0000
vn 0.0000 1.0000 0.0000
vn 0.0000 1.0000 -0.0000
vn 0.0000 1.0000 -0.0000
vn -0.0000 1.0000 -0.0000
vn -0.0000 1.0000 0.0000
vn 0.0000 0.7071 0.7071
vn 0.6124 0.7071 0.3536
vn 0.6124 0.7071 -0.3536
vn 0.0000 0.7071 -0.7071
vn -0.6124 0.7071 -0.3536
vn -0.6124 0.7071 0.3536
vn 0.0000 0.0000 1.0000
vn 0.8660 0.0000 0.5000
vn 0.8660 0.0000 -0.5000
vn 0.0000 0.0000 -1.0000
vn -0.8660 0.0000 -0.5000
vn -0.8660 0.0000 0.5000
vn 0.0000 -0.7071 0.7071
vn 0.6124 -0.7071 0.3536
vn 0.6124 -0.7071 -0.3536
vn 0.0000 -0.7071 -0.7071
vn -0.6124 -0.7071 -0.3536
vn -0.6124 -0.7071 0.3536
vn 0.0000 -1.0000 0.0000
vn 0.0000 -1.0000 0.0000
vn 0.0000 -1.0000 -0.0000
vn 0.0000 -1.0000 -0.0000
vn -0.0000 -1.0000 -0.0000
vn -0.0000 -1.0000 0.0000
f 89//89 90//90 84//84 83//83
f 90//90 91//91 85//85 84//84
f 91//91 92//92 86//86 85//85
f 92//92 93//93 87//87 86//86
f 93//93 94//94 88//88 87//87
f 94//94 89//89 83//83 88//88
f 95//95 96//96 90//90 89//89
f 96//96 97//97 91//91 90//90
f 97//97 98//98 92//92 91//91
f 98//98 99//99 93//93 92//92
f 99//99 100//100 94//94 93//93
f 100//100 95//95 89//89 94//94
f 101//101 102//102 96//96 95//95
f 102//102 103//103 97//97 96//96
f 103//103 104//104 98//98 97//97
f 104//104 105//105 99//99 98//98
f 105//105 106//106 100//100 99//99
f 106//106 101//101 95//95 100//100
f 107//107 108//108 102//102 101//101
f 108//108 109//109 103//103 102//102
f 109//109 110//110 104//104 103//103
f 110//110 111//111 105//105 104//104
f 111//111 112//112 106//106 105//105
f 112//112 107//107 101//101 106//106
