# generated by generate_mosquito.py
mtllib mosquito_egg.mtl
o mosquito_egg
g part0
usemtl egg
v 0.00000 0.03000 0.11000
v 0.00000 0.03000 0.11000
v 0.00000 0.03000 0.11000
v 0.00000 0.03000 0.11000
v 0.00000 0.03000 0.11000
v 0.00000 0.03000 0.11000
v 0.00000 0.03000 0.11000
v 0.00000 0.03000 0.11000
v 0.00000 0.03000 0.11000
v 0.00000 0.03000 0.11000
v 0.00000 0.01661 0.10163
v 0.00787 0.01916 0.10163
v 0.01274 0.02586 0.10163
v 0.01274 0.03414 0.10163
v 0.00787 0.04084 0.10163
v 0.00000 0.04339 0.10163
v -0.00787 0.04084 0.10163
v -0.01274 0.03414 0.10163
v -0.01274 0.02586 0.10163
v -0.00787 0.01916 0.10163
v 0.00000 0.00525 0.07778
v 0.01455 0.00998 0.07778
v 0.02354 0.02235 0.07778
v 0.02354 0.03765 0.07778
v 0.01455 0.05002 0.07778
v 0.00000 0.05475 0.07778
v -0.01455 0.05002 0.07778
v -0.02354 0.03765 0.07778
v -0.02354 0.02235 0.07778
v -0.01455 0.00998 0.07778
v 0.00000 -0.00234 0.04210
v 0.01901 0.00384 0.04210
v 0.03075 0.02001 0.04210
v 0.03075 0.03999 0.04210
v 0.01901 0.05616 0.04210
v 0.00000 0.06234 0.04210
v -0.01901 0.05616 0.04210
v -0.03075 0.03999 0.04210
v -0.03075 0.02001 0.04210
v -0.01901 0.00384 0.04210
v 0.00000 -0.00500 0.00000
v 0.02057 0.00168 0.00000
v 0.03329 0.01918 0.00000
v 0.03329 0.04082 0.00000
v 0.02057 0.05832 0.00000
v 0.00000 0.06500 0.00000
v -0.02057 0.05832 0.00000
v -0.03329 0.04082 0.00000
v -0.03329 0.01918 0.00000
v -0.02057 0.00168 0.00000
v 0.00000 -0.00234 -0.04210
v 0.01901 0.00384 -0.04210
v 0.03075 0.02001 -0.04210
v 0.03075 0.03999 -0.04210
v 0.01901 0.05616 -0.04210
v 0.00000 0.06234 -0.04210
v -0.01901 0.05616 -0.04210
v -0.03075 0.03999 -0.04210
v -0.03075 0.02001 -0.04210
v -0.01901 0.00384 -0.04210
v 0.00000 0.00525 -0.07778
v 0.01455 0.00998 -0.07778
v 0.02354 0.02235 -0.07778
v 0.02354 0.03765 -0.07778
v 0.01455 0.05002 -0.07778
v 0.00000 0.05475 -0.07778
v -0.01455 0.05002 -0.07778
v -0.02354 0.03765 -0.07778
v -0.02354 0.02235 -0.07778
v -0.01455 0.00998 -0.07778
v 0.00000 0.01661 -0.10163
v 0.00787 0.01916 -0.10163
v 0.01274 0.02586 -0.10163
v 0.01274 0.03414 -0.10163
v 0.00787 0.04084 -0.10163
v 0.00000 0.04339 -0.10163
v -0.00787 0.04084 -0.10163
v -0.01274 0.03414 -0.10163
v -0.01274 0.02586 -0.10163
v -0.00787 0.01916 -0.10163
v 0.00000 0.03000 -0.11000
v 0.00000 0.03000 -0.11000
v 0.00000 0.03000 -0.11000
v 0.00000 0.03000 -0.11000
v 0.00000 0.03000 -0.11000
v 0.00000 0.03000 -0.11000
v -0.00000 0.03000 -0.11000
v -0.00000 0.03000 -0.11000
v -0.00000 0.03000 -0.11000
v -0.00000 0.03000 -0.11000
vn 0.0000 0.0000 1.0000
vn 0.0000 0.0000 1.0000
vn 0.0000 0.0000 1.0000
vn 0.0000 0.0000 1.0000
vn 0.0000 0.0000 1.0000
vn 0.0000 0.0000 1.0000
vn 0.0000 0.0000 1.0000
vn 0.0000 0.0000 1.0000
vn 0.0000 0.0000 1.0000
vn 0.0000 0.0000 1.0000
vn 0.0000 -0.7930 0.6092
vn 0.4661 -0.6416 0.6092
vn 0.7542 -0.2451 0.6092
vn 0.7542 0.2451 0.6092
vn 0.4661 0.6416 0.6092
vn 0.0000 0.7930 0.6092
vn -0.4661 0.6416 0.6092
vn -0.7542 0.2451 0.6092
vn -0.7542 -0.2451 0.6092
vn -0.4661 -0.6416 0.6092
vn 0.0000 -0.9529 0.3032
vn 0.5601 -0.7709 0.3032
vn 0.9063 -0.2945 0.3032
vn 0.9063 0.2945 0.3032
vn 0.5601 0.7709 0.3032
vn 0.0000 0.9529 0.3032
vn -0.5601 0.7709 0.3032
vn -0.9063 0.2945 0.3032
vn -0.9063 -0.2945 0.3032
vn -0.5601 -0.7709 0.3032
vn 0.0000 -0.9914 0.1307
vn 0.5827 -0.8021 0.1307
vn 0.9429 -0.3064 0.1307
vn 0.9429 0.3064 0.1307
vn 0.5827 0.8021 0.1307
vn 0.0000 0.9914 0.1307
vn -0.5827 0.8021 0.1307
vn -0.9429 0.3064 0.1307
vn -0.9429 -0.3064 0.1307
vn -0.5827 -0.8021 0.1307
vn 0.0000 -1.0000 0.0000
vn 0.5878 -0.8090 0.0000
vn 0.9511 -0.3090 0.0000
vn 0.9511 0.3090 0.0000
vn 0.5878 0.8090 -0.0000
vn 0.0000 1.0000 -0.0000
vn -0.5878 0.8090 -0.0000
vn -0.9511 0.3090 0.0000
vn -0.9511 -0.3090 0.0000
vn -0.5878 -0.8090 0.0000
vn 0.0000 -0.9914 -0.1307
vn 0.5827 -0.8021 -0.1307
vn 0.9429 -0.3064 -0.1307
vn 0.9429 0.3064 -0.1307
vn 0.5827 0.8021 -0.1307
vn 0.0000 0.9914 -0.1307
vn -0.5827 0.8021 -0.1307
vn -0.9429 0.3064 -0.1307
vn -0.9429 -0.3064 -0.1307
vn -0.5827 -0.8021 -0.1307
vn 0.0000 -0.9529 -0.3032
vn 0.5601 -0.7709 -0.3032
vn 0.9063 -0.2945 -0.3032
vn 0.9063 0.2945 -0.3032
vn 0.5601 0.7709 -0.3032
vn 0.0000 0.9529 -0.3032
vn -0.5601 0.7709 -0.3032
vn -0.9063 0.2945 -0.3032
vn -0.9063 -0.2945 -0.3032
vn -0.5601 -0.7709 -0.3032
vn 0.0000 -0.7930 -0.6092
vn 0.4661 -0.6416 -0.6092
vn 0.7542 -0.2451 -0.6092
vn 0.7542 0.2451 -0.6092
vn 0.4661 0.6416 -0.6092
vn 0.0000 0.7930 -0.6092
vn -0.4661 0.6416 -0.6092
vn -0.7542 0.2451 -0.6092
vn -0.7542 -0.2451 -0.6092
vn -0.4661 -0.6416 -0.6092
vn 0.0000 -0.0000 -1.0000
vn 0.0000 -0.0000 -1.0000
vn 0.0000 -0.0000 -1.0000
vn 0.0000 0.0000 -1.0000
vn 0.0000 0.0000 -1.0000
vn 0.0000 0.0000 -1.0000
vn -0.0000 0.0000 -1.0000
vn -0.0000 0.0000 -1.0000
vn -0.0000 -0.0000 -1.0000
vn -0.0000 -0.0000 -1.0000
f 11//11 12//12 2//2 1//1
f 12//12 13//13 3//3 2//2
f 13//13 14//14 4//4 3//3
f 14//14 15//15 5//5 4//4
f 15//15 16//16 6//6 5//5
f 16//16 17//17 7//7 6//6
f 17//17 18//18 8//8 7//7
f 18//18 19//19 9//9 8//8
f 19//19 20//20 10//10 9//9
f 20//20 11//11 1//1 10//10
f 21//21 22//22 12//12 11//11
f 22//22 23//23 13//13 12//12
f 23//23 24//24 14//14 13//13
f 24//24 25//25 15//15 14//14
f 25//25 26//26 16//16 15//15
f 26//26 27//27 17//17 16//16
f 27//27 28//28 18//18 17//17
f 28//28 29//29 19//19 18//18
f 29//29 30//30 20//20 19//19
f 30//30 21//21 11//11 20//20
f 31//31 32//32 22//22 21//21
f 32//32 33//33 23//23 22//22
f 33//33 34//34 24//24 23//23
f 34//34 35//35 25//25 24//24
f 35//35 36//36 26//26 25//25
f 36//36 37//37 27//27 26//26
f 37//37 38//38 28//28 27//27
f 38//38 39//39 29//29 28//28
f 39//39 40//40 30//30 29//29
f 40//40 31//31 21//21 30//30
f 41//41 42//42 32//32 31//31
f 42//42 43//43 33//33 32//32
f 43//43 44//44 34//34 33//33
f 44//44 45//45 35//35 34//34
f 45//45 46//46 36//36 35//35
f 46//46 47//47 37//37 36//36
f 47//47 48//48 38//38 37//37
f 48//48 49//49 39//39 38//38
f 49//49 50//50 40//40 39//39
f 50//50 41//41 31//31 40//40
f 51//51 52//52 42//42 41//41
f 52//52 53//53 43//43 42//42
f 53//53 54//54 44//44 43//43
f 54//54 55//55 45//45 44//44
f 55//55 56//56 46//46 45//45
f 56//56 57//57 47//47 46//46
f 57//57 58//58 48//48 47//47
f 58//58 59//59 49//49 48//48
f 59//59 60//60 50//50 49//49
f 60//60 51//51 41//41 50//50
f 61//61 62//62 52//52 51//51
f 62//62 63//63 53//53 52//52
f 63//63 64//64 54//54 53//53
f 64//64 65//65 55//55 54//54
f 65//65 66//66 56//56 55//55
f 66//66 67//67 57//57 56//56
f 67//67 68//68 58//58 57//57
f 68//68 69//69 59//59 58//58
f 69//69 70//70 60//60 59//59
f 70//70 61//61 51//51 60//60
f 71//71 72//72 62//62 61//61
f 72//72 73//73 63//63 62//62
f 73//73 74//74 64//64 63//63
f 74//74 75//75 65//65 64//64
f 75//75 76//76 66//66 65//65
f 76//76 77//77 67//67 66//66
f 77//77 78//78 68//68 67//67
f 78//78 79//79 69//69 68//68
f 79//79 80//80 70//70 69//69
f 80//80 71//71 61//61 70//70
f 81//81 82//82 72//72 71//71
f 82//82 83//83 73//73 72//72
f 83//83 84//84 74//74 73//73
f 84//84 85//85 75//75 74//74
f 85//85 86//86 76//76 75//75
f 86//86 87//87 77//77 76//76
f 87//87 88//88 78//78 77//77
f 88//88 89//89 79//79 78//78
f 89//89 90//90 80//80 79//79
f 90//90 81//81 71//71 80//80
g part1
usemtl egg_float
v 0.00000 0.05000 0.00000
v 0.00000 0.05000 0.00000
v 0.00000 0.05000 0.00000
v 0.00000 0.05000 0.00000
v 0.00000 0.05000 0.00000
v 0.00000 0.05000 0.00000
v 0.00000 0.05000 0.00000
v 0.00000 0.05000 0.00000
v 0.00000 0.05000 0.00000
v 0.00000 0.05000 0.00000
v 0.00000 0.04598 0.02250
v 0.01469 0.04598 0.01820
v 0.02378 0.04598 0.00695
v 0.02378 0.04598 -0.00695
v 0.01469 0.04598 -0.01820
v 0.00000 0.04598 -0.02250
v -0.01469 0.04598 -0.01820
v -0.02378 0.04598 -0.00695
v -0.02378 0.04598 0.00695
v -0.01469 0.04598 0.01820
v 0.00000 0.03500 0.03897
v 0.02545 0.03500 0.03153
v 0.04118 0.03500 0.01204
v 0.04118 0.03500 -0.01204
v 0.02545 0.03500 -0.03153
v 0.00000 0.03500 -0.03897
v -0.02545 0.03500 -0.03153
v -0.04118 0.03500 -0.01204
v -0.04118 0.03500 0.01204
v -0.02545 0.03500 0.03153
v 0.00000 0.02000 0.04500
v 0.02939 0.02000 0.03641
v 0.04755 0.02000 0.01391
v 0.04755 0.02000 -0.01391
v 0.02939 0.02000 -0.03641
v 0.00000 0.02000 -0.04500
v -0.02939 0.02000 -0.03641
v -0.04755 0.02000 -0.01391
v -0.04755 0.02000 0.01391
v -0.02939 0.02000 0.03641
v 0.00000 0.00500 0.03897
v 0.02545 0.00500 0.03153
v 0.04118 0.00500 0.01204
v 0.04118 0.00500 -0.01204
v 0.02545 0.00500 -0.03153
v 0.00000 0.00500 -0.03897
v -0.02545 0.00500 -0.03153
v -0.04118 0.00500 -0.01204
v -0.04118 0.00500 0.01204
v -0.02545 0.00500 0.03153
v 0.00000 -0.00598 0.02250
v 0.01469 -0.00598 0.01820
v 0.02378 -0.00598 0.00695
v 0.02378 -0.00598 -0.00695
v 0.01469 -0.00598 -0.01820
v 0.00000 -0.00598 -0.02250
v -0.01469 -0.00598 -0.01820
v -0.02378 -0.00598 -0.00695
v -0.02378 -0.00598 0.00695
v -0.01469 -0.00598 0.01820
v 0.00000 -0.01000 0.00000
v 0.00000 -0.01000 0.00000
v 0.00000 -0.01000 0.00000
v 0.00000 -0.01000 -0.00000
v 0.00000 -0.01000 -0.00000
v 0.00000 -0.01000 -0.00000
v -0.00000 -0.01000 -0.00000
v -0.00000 -0.01000 -0.00000
v -0.00000 -0.01000 0.00000
v -0.00000 -0.01000 0.00000
vn 0.0000 1.0000 0.0000
vn 0.0000 1.0000 0.0000
vn 0.0000 1.0000 0.0000
vn 0.0000 1.0000 -0.0000
vn 0.0000 1.0000 -0.0000
vn 0.0000 1.0000 -0.0000
vn -0.0000 1.0000 -0.0000
vn -0.0000 1.0000 -0.0000
vn -0.0000 1.0000 0.0000
vn -0.0000 1.0000 0.0000
vn 0.0000 0.9333 0.3592
vn 0.1908 0.9372 0.2918
vn 0.3109 0.9438 0.1123
vn 0.3109 0.9438 -0.1123
vn 0.1908 0.9372 -0.2918
vn 0.0000 0.9333 -0.3592
vn -0.1908 0.9372 -0.2918
vn -0.3109 0.9438 -0.1123
vn -0.3109 0.9438 0.1123
vn -0.1908 0.9372 0.2918
vn 0.0000 0.6547 0.7559
vn 0.4076 0.6673 0.6234
vn 0.6814 0.6894 0.2460
vn 0.6814 0.6894 -0.2460
vn 0.4076 0.6673 -0.6234
vn 0.0000 0.6547 -0.7559
vn -0.4076 0.6673 -0.6234
vn -0.6814 0.6894 -0.2460
vn -0.6814 0.6894 0.2460
vn -0.4076 0.6673 0.6234
vn 0.0000 0.0000 1.0000
vn 0.5473 0.0000 0.8370
vn 0.9406 0.0000 0.3396
vn 0.9406 0.0000 -0.3396
vn 0.5473 0.0000 -0.8370
vn 0.0000 0.0000 -1.0000
vn -0.5473 0.0000 -0.8370
vn -0.9406 0.0000 -0.3396
vn -0.9406 0.0000 0.3396
vn -0.5473 0.0000 0.8370
vn 0.0000 -0.6547 0.7559
vn 0.4076 -0.6673 0.6234
vn 0.6814 -0.6894 0.2460
vn 0.6814 -0.6894 -0.2460
vn 0.4076 -0.6673 -0.6234
vn 0.0000 -0.6547 -0.7559
vn -0.4076 -0.6673 -0.6234
vn -0.6814 -0.6894 -0.2460
vn -0.6814 -0.6894 0.2460
vn -0.4076 -0.6673 0.6234
vn 0.0000 -0.9333 0.3592
vn 0.1908 -0.9372 0.2918
vn 0.3109 -0.9438 0.1123
vn 0.3109 -0.9438 -0.1123
vn 0.1908 -0.9372 -0.2918
vn 0.0000 -0.9333 -0.3592
vn -0.1908 -0.9372 -0.2918
vn -0.3109 -0.9438 -0.1123
vn -0.3109 -0.9438 0.1123
vn -0.1908 -0.9372 0.2918
vn 0.0000 -1.0000 0.0000
vn 0.0000 -1.0000 0.0000
vn 0.0000 -1.0000 0.0000
vn 0.0000 -1.0000 -0.0000
vn 0.0000 -1.0000 -0.0000
vn 0.0000 -1.0000 -0.0000
vn -0.0000 -1.0000 -0.0000
vn -0.0000 -1.0000 -0.0000
vn -0.0000 -1.0000 0.0000
vn -0.0000 -1.0000 0.0000
f 101//101 102//102 92//92 91//91
f 102//102 103//103 93//93 92//92
f 103//103 104//104 94//94 93//93
f 104//104 105//105 95//95 94//94
f 105//105 106//106 96//96 95//95
f 106//106 107//107 97//97 96//96
f 107//107 108//108 98//98 97//97
f 108//108 109//109 99//99 98//98
f 109//109 110//110 100//100 99//99
f 110//110 101//101 91//91 100//100
f 111//111 112//112 102//102 101//101
f 112//112 113//113 103//103 102//102
f 113//113 114//114 104//104 103//103
f 114//114 115//115 105//105 104//104
f 115//115 116//116 106//106 105//105
f 116//116 117//117 107//107 106//106
f 117//117 118//118 108//108 107//107
f 118//118 119//119 109//109 108//108
f 119//119 120//120 110//110 109//109
f 120//120 111//111 101//101 110//110
f 121//121 122//122 112//112 111//111
f 122//122 123//123 113//113 112//112
f 123//123 124//124 114//114 113//113
f 124//124 125//125 115//115 114//114
f 125//125 126//126 116//116 115//115
f 126//126 127//127 117//117 116//116
f 127//127 128//128 118//118 117//117
f 128//128 129//129 119//119 118//118
f 129//129 130//130 120//120 119//119
f 130//130 121//121 111//111 120//120
f 131//131 132//132 122//122 121//121
f 132//132 133//133 123//123 122//122
f 133//133 134//134 124//124 123//123
f 134//134 135//135 125//125 124//124
f 135//135 136//136 126//126 125//125
f 136//136 137//137 127//127 126//126
f 137//137 138//138 128//128 127//127
f 138//138 139//139 129//129 128//128
f 139//139 140//140 130//130 129//129
f 140//140 131//131 121//121 130//130
f 141//141 142//142 132//132 131//131
f 142//142 143//143 133//133 132//132
f 143//143 144//144 134//134 133//133
f 144//144 145//145 135//135 134//134
f 145//145 146//146 136//136 135//135
f 146//146 147//147 137//137 136//136
f 147//147 148//148 138//138 137//137
f 148//148 149//149 139//139 138//138
f 149//149 150//150 140//140 139//139
f 150//150 141//141 131//131 140//140
f 151//151 152//152 142//142 141//141
f 152//152 153//153 143//143 142//142
f 153//153 154//154 144//144 143//143
f 154//154 155//155 145//145 144//144
f 155//155 156//156 146//146 145//145
f 156//156 157//157 147//147 146//146
f 157//157 158//158 148//148 147//147
f 158//158 159//159 149//149 148//148
f 159//159 160//160 150//150 149//149
f 160//160 151//151 141//141 150//150
