# generated by generate_assets.py
mtllib desert.mtl
o cactus_b
v 0.20330 -0.05000 0.00000
v 0.16325 -0.05000 -0.06762
v 0.14375 -0.05000 -0.14375
v 0.06762 -0.05000 -0.16325
v 0.00000 -0.05000 -0.20330
v -0.06762 -0.05000 -0.16325
v -0.14375 -0.05000 -0.14375
v -0.16325 -0.05000 -0.06762
v -0.20330 -0.05000 -0.00000
v -0.16325 -0.05000 0.06762
v -0.14375 -0.05000 0.14375
v -0.06762 -0.05000 0.16325
v -0.00000 -0.05000 0.20330
v 0.06762 -0.05000 0.16325
v 0.14375 -0.05000 0.14375
v 0.16325 -0.05000 0.06762
v 0.20330 -0.05000 0.00000
v 0.20329 0.14651 0.00000
v 0.16324 0.14651 -0.06762
v 0.14374 0.14651 -0.14374
v 0.06762 0.14651 -0.16324
v 0.00000 0.14651 -0.20329
v -0.06762 0.14651 -0.16324
v -0.14374 0.14651 -0.14374
v -0.16324 0.14651 -0.06762
v -0.20329 0.14651 -0.00000
v -0.16324 0.14651 0.06762
v -0.14374 0.14651 0.14374
v -0.06762 0.14651 0.16324
v -0.00000 0.14651 0.20329
v 0.06762 0.14651 0.16324
v 0.14374 0.14651 0.14374
v 0.16324 0.14651 0.06762
v 0.20329 0.14651 0.00000
v 0.20319 0.34302 0.00000
v 0.16316 0.34302 -0.06758
v 0.14368 0.34302 -0.14368
v 0.06758 0.34302 -0.16316
v 0.00000 0.34302 -0.20319
v -0.06758 0.34302 -0.16316
v -0.14368 0.34302 -0.14368
v -0.16316 0.34302 -0.06758
v -0.20319 0.34302 -0.00000
v -0.16316 0.34302 0.06758
v -0.14368 0.34302 0.14368
v -0.06758 0.34302 0.16316
v -0.00000 0.34302 0.20319
v 0.06758 0.34302 0.16316
v 0.14368 0.34302 0.14368
v 0.16316 0.34302 0.06758
v 0.20319 0.34302 0.00000
v 0.20293 0.53953 0.00000
v 0.16295 0.53953 -0.06750
v 0.14349 0.53953 -0.14349
v 0.06750 0.53953 -0.16295
v 0.00000 0.53953 -0.20293
v -0.06750 0.53953 -0.16295
v -0.14349 0.53953 -0.14349
v -0.16295 0.53953 -0.06750
v -0.20293 0.53953 -0.00000
v -0.16295 0.53953 0.06750
v -0.14349 0.53953 0.14349
v -0.06750 0.53953 0.16295
v -0.00000 0.53953 0.20293
v 0.06750 0.53953 0.16295
v 0.14349 0.53953 0.14349
v 0.16295 0.53953 0.06750
v 0.20293 0.53953 0.00000
v 0.20241 0.73604 0.00000
v 0.16254 0.73604 -0.06732
v 0.14313 0.73604 -0.14313
v 0.06732 0.73604 -0.16254
v 0.00000 0.73604 -0.20241
v -0.06732 0.73604 -0.16254
v -0.14313 0.73604 -0.14313
v -0.16254 0.73604 -0.06732
v -0.20241 0.73604 -0.00000
v -0.16254 0.73604 0.06732
v -0.14313 0.73604 0.14313
v -0.06732 0.73604 0.16254
v -0.00000 0.73604 0.20241
v 0.06732 0.73604 0.16254
v 0.14313 0.73604 0.14313
v 0.16254 0.73604 0.06732
v 0.20241 0.73604 0.00000
v 0.20156 0.93256 0.00000
v 0.16186 0.93256 -0.06704
v 0.14253 0.93256 -0.14253
v 0.06704 0.93256 -0.16186
v 0.00000 0.93256 -0.20156
v -0.06704 0.93256 -0.16186
v -0.14253 0.93256 -0.14253
v -0.16186 0.93256 -0.06704
v -0.20156 0.93256 -0.00000
v -0.16186 0.93256 0.06704
v -0.14253 0.93256 0.14253
v -0.06704 0.93256 0.16186
v -0.00000 0.93256 0.20156
v 0.06704 0.93256 0.16186
v 0.14253 0.93256 0.14253
v 0.16186 0.93256 0.06704
v 0.20156 0.93256 0.00000
v 0.20030 1.12907 0.00000
v 0.16084 1.12907 -0.06662
v 0.14163 1.12907 -0.14163
v 0.06662 1.12907 -0.16084
v 0.00000 1.12907 -0.20030
v -0.06662 1.12907 -0.16084
v -0.14163 1.12907 -0.14163
v -0.16084 1.12907 -0.06662
v -0.20030 1.12907 -0.00000
v -0.16084 1.12907 0.06662
v -0.14163 1.12907 0.14163
v -0.06662 1.12907 0.16084
v -0.00000 1.12907 0.20030
v 0.06662 1.12907 0.16084
v 0.14163 1.12907 0.14163
v 0.16084 1.12907 0.06662
v 0.20030 1.12907 0.00000
v 0.19854 1.32558 0.00000
v 0.15943 1.32558 -0.06604
v 0.14039 1.32558 -0.14039
v 0.06604 1.32558 -0.15943
v 0.00000 1.32558 -0.19854
v -0.06604 1.32558 -0.15943
v -0.14039 1.32558 -0.14039
v -0.15943 1.32558 -0.06604
v -0.19854 1.32558 -0.00000
v -0.15943 1.32558 0.06604
v -0.14039 1.32558 0.14039
v -0.06604 1.32558 0.15943
v -0.00000 1.32558 0.19854
v 0.06604 1.32558 0.15943
v 0.14039 1.32558 0.14039
v 0.15943 1.32558 0.06604
v 0.19854 1.32558 0.00000
v 0.19619 1.52209 0.00000
v 0.15754 1.52209 -0.06526
v 0.13873 1.52209 -0.13873
v 0.06526 1.52209 -0.15754
v 0.00000 1.52209 -0.19619
v -0.06526 1.52209 -0.15754
v -0.13873 1.52209 -0.13873
v -0.15754 1.52209 -0.06526
v -0.19619 1.52209 -0.00000
v -0.15754 1.52209 0.06526
v -0.13873 1.52209 0.13873
v -0.06526 1.52209 0.15754
v -0.00000 1.52209 0.19619
v 0.06526 1.52209 0.15754
v 0.13873 1.52209 0.13873
v 0.15754 1.52209 0.06526
v 0.19619 1.52209 0.00000
v 0.19318 1.71860 0.00000
v 0.15512 1.71860 -0.06425
v 0.13660 1.71860 -0.13660
v 0.06425 1.71860 -0.15512
v 0.00000 1.71860 -0.19318
v -0.06425 1.71860 -0.15512
v -0.13660 1.71860 -0.13660
v -0.15512 1.71860 -0.06425
v -0.19318 1.71860 -0.00000
v -0.15512 1.71860 0.06425
v -0.13660 1.71860 0.13660
v -0.06425 1.71860 0.15512
v -0.00000 1.71860 0.19318
v 0.06425 1.71860 0.15512
v 0.13660 1.71860 0.13660
v 0.15512 1.71860 0.06425
v 0.19318 1.71860 0.00000
v 0.18942 1.91511 0.00000
v 0.15210 1.91511 -0.06300
v 0.13394 1.91511 -0.13394
v 0.06300 1.91511 -0.15210
v 0.00000 1.91511 -0.18942
v -0.06300 1.91511 -0.15210
v -0.13394 1.91511 -0.13394
v -0.15210 1.91511 -0.06300
v -0.18942 1.91511 -0.00000
v -0.15210 1.91511 0.06300
v -0.13394 1.91511 0.13394
v -0.06300 1.91511 0.15210
v -0.00000 1.91511 0.18942
v 0.06300 1.91511 0.15210
v 0.13394 1.91511 0.13394
v 0.15210 1.91511 0.06300
v 0.18942 1.91511 0.00000
v 0.18483 2.11162 0.00000
v 0.14841 2.11162 -0.06148
v 0.13069 2.11162 -0.13069
v 0.06148 2.11162 -0.14841
v 0.00000 2.11162 -0.18483
v -0.06148 2.11162 -0.14841
v -0.13069 2.11162 -0.13069
v -0.14841 2.11162 -0.06148
v -0.18483 2.11162 -0.00000
v -0.14841 2.11162 0.06148
v -0.13069 2.11162 0.13069
v -0.06148 2.11162 0.14841
v -0.00000 2.11162 0.18483
v 0.06148 2.11162 0.14841
v 0.13069 2.11162 0.13069
v 0.14841 2.11162 0.06148
v 0.18483 2.11162 0.00000
v 0.17931 2.30813 0.00000
v 0.14399 2.30813 -0.05964
v 0.12679 2.30813 -0.12679
v 0.05964 2.30813 -0.14399
v 0.00000 2.30813 -0.17931
v -0.05964 2.30813 -0.14399
v -0.12679 2.30813 -0.12679
v -0.14399 2.30813 -0.05964
v -0.17931 2.30813 -0.00000
v -0.14399 2.30813 0.05964
v -0.12679 2.30813 0.12679
v -0.05964 2.30813 0.14399
v -0.00000 2.30813 0.17931
v 0.05964 2.30813 0.14399
v 0.12679 2.30813 0.12679
v 0.14399 2.30813 0.05964
v 0.17931 2.30813 0.00000
v 0.17281 2.50464 0.00000
v 0.13876 2.50464 -0.05748
v 0.12219 2.50464 -0.12219
v 0.05748 2.50464 -0.13876
v 0.00000 2.50464 -0.17281
v -0.05748 2.50464 -0.13876
v -0.12219 2.50464 -0.12219
v -0.13876 2.50464 -0.05748
v -0.17281 2.50464 -0.00000
v -0.13876 2.50464 0.05748
v -0.12219 2.50464 0.12219
v -0.05748 2.50464 0.13876
v -0.00000 2.50464 0.17281
v 0.05748 2.50464 0.13876
v 0.12219 2.50464 0.12219
v 0.13876 2.50464 0.05748
v 0.17281 2.50464 0.00000
v 0.00000 2.63384 0.00000
v -0.09217 1.22837 0.00000
v -0.09287 1.19662 -0.05580
v -0.09359 1.16418 -0.11120
v -0.09500 1.10000 -0.11160
v -0.09641 1.03582 -0.11120
v -0.09713 1.00338 -0.05580
v -0.09783 0.97163 -0.00000
v -0.09713 1.00338 0.05580
v -0.09641 1.03582 0.11120
v -0.09500 1.10000 0.11160
v -0.09359 1.16418 0.11120
v -0.09287 1.19662 0.05580
v -0.09217 1.22837 0.00000
v -0.18690 1.23041 0.00000
v -0.18844 1.19869 -0.05580
v -0.19001 1.16628 -0.11119
v -0.19311 1.10216 -0.11160
v -0.19622 1.03804 -0.11119
v -0.19779 1.00563 -0.05580
v -0.19932 0.97392 -0.00000
v -0.19779 1.00563 0.05580
v -0.19622 1.03804 0.11119
v -0.19311 1.10216 0.11160
v -0.19001 1.16628 0.11119
v -0.18844 1.19869 0.05580
v -0.18690 1.23041 0.00000
v -0.27305 1.23688 0.00000
v -0.27653 1.20534 -0.05578
v -0.28008 1.17309 -0.11116
v -0.28712 1.10930 -0.11156
v -0.29416 1.04551 -0.11116
v -0.29772 1.01327 -0.05578
v -0.30120 0.98172 -0.00000
v -0.29772 1.01327 0.05578
v -0.29416 1.04551 0.11116
v -0.28712 1.10930 0.11156
v -0.28008 1.17309 0.11116
v -0.27653 1.20534 0.05578
v -0.27305 1.23688 0.00000
v -0.35251 1.24838 0.00000
v -0.35845 1.21722 -0.05573
v -0.36452 1.18539 -0.11106
v -0.37653 1.12240 -0.11147
v -0.38854 1.05941 -0.11106
v -0.39461 1.02758 -0.05573
v -0.40055 0.99642 -0.00000
v -0.39461 1.02758 0.05573
v -0.38854 1.05941 0.11106
v -0.37653 1.12240 0.11147
v -0.36452 1.18539 0.11106
v -0.35845 1.21722 0.05573
v -0.35251 1.24838 0.00000
v -0.42469 1.26526 0.00000
v -0.43363 1.23488 -0.05564
v -0.44277 1.20384 -0.11088
v -0.46084 1.14243 -0.11128
v -0.47891 1.08102 -0.11088
v -0.48804 1.04998 -0.05564
v -0.49698 1.01960 -0.00000
v -0.48804 1.04998 0.05564
v -0.47891 1.08102 0.11088
v -0.46084 1.14243 0.11128
v -0.44277 1.20384 0.11088
v -0.43363 1.23488 0.05564
v -0.42469 1.26526 0.00000
v -0.48931 1.28776 0.00000
v -0.50173 1.25873 -0.05549
v -0.51443 1.22906 -0.11058
v -0.53955 1.17037 -0.11098
v -0.56467 1.11168 -0.11058
v -0.57737 1.08201 -0.05549
v -0.58979 1.05298 -0.00000
v -0.57737 1.08201 0.05549
v -0.56467 1.11168 0.11058
v -0.53955 1.17037 0.11098
v -0.51443 1.22906 0.11058
v -0.50173 1.25873 0.05549
v -0.48931 1.28776 0.00000
v -0.54656 1.31613 0.00000
v -0.56278 1.28919 -0.05526
v -0.57936 1.26166 -0.11013
v -0.61217 1.20720 -0.11053
v -0.64498 1.15274 -0.11013
v -0.66157 1.12521 -0.05526
v -0.67779 1.09827 -0.00000
v -0.66157 1.12521 0.05526
v -0.64498 1.15274 0.11013
v -0.61217 1.20720 0.11053
v -0.57936 1.26166 0.11013
v -0.56278 1.28919 0.05526
v -0.54656 1.31613 0.00000
v -0.59722 1.35100 0.00000
v -0.61725 1.32699 -0.05495
v -0.63772 1.30245 -0.10950
v -0.67821 1.25390 -0.10990
v -0.71870 1.20534 -0.10950
v -0.73917 1.18081 -0.05495
v -0.75919 1.15679 -0.00000
v -0.73917 1.18081 0.05495
v -0.71870 1.20534 0.10950
v -0.67821 1.25390 0.10990
v -0.63772 1.30245 0.10950
v -0.61725 1.32699 0.05495
v -0.59722 1.35100 0.00000
v -0.64246 1.39376 0.00000
v -0.66588 1.37340 -0.05453
v -0.68981 1.35260 -0.10867
v -0.73716 1.31144 -0.10906
v -0.78451 1.27028 -0.10867
v -0.80844 1.24947 -0.05453
v -0.83186 1.22912 -0.00000
v -0.80844 1.24947 0.05453
v -0.78451 1.27028 0.10867
v -0.73716 1.31144 0.10906
v -0.68981 1.35260 0.10867
v -0.66588 1.37340 0.05453
v -0.64246 1.39376 0.00000
v -0.68315 1.44662 0.00000
v -0.70921 1.43035 -0.05399
v -0.73584 1.41371 -0.10759
v -0.78852 1.38080 -0.10798
v -0.84121 1.34789 -0.10759
v -0.86784 1.33125 -0.05399
v -0.89389 1.31498 -0.00000
v -0.86784 1.33125 0.05399
v -0.84121 1.34789 0.10759
v -0.78852 1.38080 0.10798
v -0.73584 1.41371 0.10759
v -0.70921 1.43035 0.05399
v -0.68315 1.44662 0.00000
v -0.71943 1.51218 0.00000
v -0.74722 1.50001 -0.05332
v -0.77562 1.48757 -0.10626
v -0.83181 1.46296 -0.10664
v -0.88801 1.43835 -0.10626
v -0.91641 1.42591 -0.05332
v -0.94420 1.41374 -0.00000
v -0.91641 1.42591 0.05332
v -0.88801 1.43835 0.10626
v -0.83181 1.46296 0.10664
v -0.77562 1.48757 0.10626
v -0.74722 1.50001 0.05332
v -0.71943 1.51218 0.00000
v -0.75057 1.59277 0.00000
v -0.77924 1.58440 -0.05250
v -0.80855 1.57584 -0.10462
v -0.86653 1.55890 -0.10500
v -0.92451 1.54197 -0.10462
v -0.95381 1.53341 -0.05250
v -0.98249 1.52503 -0.00000
v -0.95381 1.53341 0.05250
v -0.92451 1.54197 0.10462
v -0.86653 1.55890 0.10500
v -0.80855 1.57584 0.10462
v -0.77924 1.58440 0.05250
v -0.75057 1.59277 0.00000
v -0.77542 1.69014 0.00000
v -0.80429 1.68506 -0.05151
v -0.83380 1.67987 -0.10266
v -0.89217 1.66960 -0.10303
v -0.95054 1.65933 -0.10266
v -0.98005 1.65414 -0.05151
v -1.00892 1.64906 -0.00000
v -0.98005 1.65414 0.05151
v -0.95054 1.65933 0.10266
v -0.89217 1.66960 0.10303
v -0.83380 1.67987 0.10266
v -0.80429 1.68506 0.05151
v -0.77542 1.69014 0.00000
v -0.79277 1.80549 0.00000
v -0.82132 1.80315 -0.05035
v -0.85051 1.80076 -0.10034
v -0.90824 1.79603 -0.10070
v -0.96598 1.79130 -0.10034
v -0.99516 1.78891 -0.05035
v -1.02372 1.78657 -0.00000
v -0.99516 1.78891 0.05035
v -0.96598 1.79130 0.10034
v -0.90824 1.79603 0.10070
v -0.85051 1.80076 0.10034
v -0.82132 1.80315 0.05035
v -0.79277 1.80549 0.00000
v -0.80151 1.93971 0.00000
v -0.82939 1.93958 -0.04899
v -0.85788 1.93944 -0.09764
v -0.91425 1.93917 -0.09799
v -0.97062 1.93890 -0.09764
v -0.99911 1.93876 -0.04899
v -1.02699 1.93863 -0.00000
v -0.99911 1.93876 0.04899
v -0.97062 1.93890 0.09764
v -0.91425 1.93917 0.09799
v -0.85788 1.93944 0.09764
v -0.82939 1.93958 0.04899
v -0.80151 1.93971 0.00000
v -0.80060 2.09691 0.00000
v -0.82758 2.09768 -0.04743
v -0.85515 2.09846 -0.09452
v -0.90970 2.10000 -0.09486
v -0.96425 2.10154 -0.09452
v -0.99182 2.10232 -0.04743
v -1.01879 2.10309 -0.00000
v -0.99182 2.10232 0.04743
v -0.96425 2.10154 0.09452
v -0.90970 2.10000 0.09486
v -0.85515 2.09846 0.09452
v -0.82758 2.09768 0.04743
v -0.80060 2.09691 0.00000
v -0.90739 2.18157 0.00000
vt 0.00000 0.00000
vt 0.06250 0.00000
vt 0.12500 0.00000
vt 0.18750 0.00000
vt 0.25000 0.00000
vt 0.31250 0.00000
vt 0.37500 0.00000
vt 0.43750 0.00000
vt 0.50000 0.00000
vt 0.56250 0.00000
vt 0.62500 0.00000
vt 0.68750 0.00000
vt 0.75000 0.00000
vt 0.81250 0.00000
vt 0.87500 0.00000
vt 0.93750 0.00000
vt 1.00000 0.00000
vt 0.00000 0.11791
vt 0.06250 0.11791
vt 0.12500 0.11791
vt 0.18750 0.11791
vt 0.25000 0.11791
vt 0.31250 0.11791
vt 0.37500 0.11791
vt 0.43750 0.11791
vt 0.50000 0.11791
vt 0.56250 0.11791
vt 0.62500 0.11791
vt 0.68750 0.11791
vt 0.75000 0.11791
vt 0.81250 0.11791
vt 0.87500 0.11791
vt 0.93750 0.11791
vt 1.00000 0.11791
vt 0.00000 0.23581
vt 0.06250 0.23581
vt 0.12500 0.23581
vt 0.18750 0.23581
vt 0.25000 0.23581
vt 0.31250 0.23581
vt 0.37500 0.23581
vt 0.43750 0.23581
vt 0.50000 0.23581
vt 0.56250 0.23581
vt 0.62500 0.23581
vt 0.68750 0.23581
vt 0.75000 0.23581
vt 0.81250 0.23581
vt 0.87500 0.23581
vt 0.93750 0.23581
vt 1.00000 0.23581
vt 0.00000 0.35372
vt 0.06250 0.35372
vt 0.12500 0.35372
vt 0.18750 0.35372
vt 0.25000 0.35372
vt 0.31250 0.35372
vt 0.37500 0.35372
vt 0.43750 0.35372
vt 0.50000 0.35372
vt 0.56250 0.35372
vt 0.62500 0.35372
vt 0.68750 0.35372
vt 0.75000 0.35372
vt 0.81250 0.35372
vt 0.87500 0.35372
vt 0.93750 0.35372
vt 1.00000 0.35372
vt 0.00000 0.47163
vt 0.06250 0.47163
vt 0.12500 0.47163
vt 0.18750 0.47163
vt 0.25000 0.47163
vt 0.31250 0.47163
vt 0.37500 0.47163
vt 0.43750 0.47163
vt 0.50000 0.47163
vt 0.56250 0.47163
vt 0.62500 0.47163
vt 0.68750 0.47163
vt 0.75000 0.47163
vt 0.81250 0.47163
vt 0.87500 0.47163
vt 0.93750 0.47163
vt 1.00000 0.47163
vt 0.00000 0.58953
vt 0.06250 0.58953
vt 0.12500 0.58953
vt 0.18750 0.58953
vt 0.25000 0.58953
vt 0.31250 0.58953
vt 0.37500 0.58953
vt 0.43750 0.58953
vt 0.50000 0.58953
vt 0.56250 0.58953
vt 0.62500 0.58953
vt 0.68750 0.58953
vt 0.75000 0.58953
vt 0.81250 0.58953
vt 0.87500 0.58953
vt 0.93750 0.58953
vt 1.00000 0.58953
vt 0.00000 0.70744
vt 0.06250 0.70744
vt 0.12500 0.70744
vt 0.18750 0.70744
vt 0.25000 0.70744
vt 0.31250 0.70744
vt 0.37500 0.70744
vt 0.43750 0.70744
vt 0.50000 0.70744
vt 0.56250 0.70744
vt 0.62500 0.70744
vt 0.68750 0.70744
vt 0.75000 0.70744
vt 0.81250 0.70744
vt 0.87500 0.70744
vt 0.93750 0.70744
vt 1.00000 0.70744
vt 0.00000 0.82535
vt 0.06250 0.82535
vt 0.12500 0.82535
vt 0.18750 0.82535
vt 0.25000 0.82535
vt 0.31250 0.82535
vt 0.37500 0.82535
vt 0.43750 0.82535
vt 0.50000 0.82535
vt 0.56250 0.82535
vt 0.62500 0.82535
vt 0.68750 0.82535
vt 0.75000 0.82535
vt 0.81250 0.82535
vt 0.87500 0.82535
vt 0.93750 0.82535
vt 1.00000 0.82535
vt 0.00000 0.94325
vt 0.06250 0.94325
vt 0.12500 0.94325
vt 0.18750 0.94325
vt 0.25000 0.94325
vt 0.31250 0.94325
vt 0.37500 0.94325
vt 0.43750 0.94325
vt 0.50000 0.94325
vt 0.56250 0.94325
vt 0.62500 0.94325
vt 0.68750 0.94325
vt 0.75000 0.94325
vt 0.81250 0.94325
vt 0.87500 0.94325
vt 0.93750 0.94325
vt 1.00000 0.94325
vt 0.00000 1.06116
vt 0.06250 1.06116
vt 0.12500 1.06116
vt 0.18750 1.06116
vt 0.25000 1.06116
vt 0.31250 1.06116
vt 0.37500 1.06116
vt 0.43750 1.06116
vt 0.50000 1.06116
vt 0.56250 1.06116
vt 0.62500 1.06116
vt 0.68750 1.06116
vt 0.75000 1.06116
vt 0.81250 1.06116
vt 0.87500 1.06116
vt 0.93750 1.06116
vt 1.00000 1.06116
vt 0.00000 1.17907
vt 0.06250 1.17907
vt 0.12500 1.17907
vt 0.18750 1.17907
vt 0.25000 1.17907
vt 0.31250 1.17907
vt 0.37500 1.17907
vt 0.43750 1.17907
vt 0.50000 1.17907
vt 0.56250 1.17907
vt 0.62500 1.17907
vt 0.68750 1.17907
vt 0.75000 1.17907
vt 0.81250 1.17907
vt 0.87500 1.17907
vt 0.93750 1.17907
vt 1.00000 1.17907
vt 0.00000 1.29697
vt 0.06250 1.29697
vt 0.12500 1.29697
vt 0.18750 1.29697
vt 0.25000 1.29697
vt 0.31250 1.29697
vt 0.37500 1.29697
vt 0.43750 1.29697
vt 0.50000 1.29697
vt 0.56250 1.29697
vt 0.62500 1.29697
vt 0.68750 1.29697
vt 0.75000 1.29697
vt 0.81250 1.29697
vt 0.87500 1.29697
vt 0.93750 1.29697
vt 1.00000 1.29697
vt 0.00000 1.41488
vt 0.06250 1.41488
vt 0.12500 1.41488
vt 0.18750 1.41488
vt 0.25000 1.41488
vt 0.31250 1.41488
vt 0.37500 1.41488
vt 0.43750 1.41488
vt 0.50000 1.41488
vt 0.56250 1.41488
vt 0.62500 1.41488
vt 0.68750 1.41488
vt 0.75000 1.41488
vt 0.81250 1.41488
vt 0.87500 1.41488
vt 0.93750 1.41488
vt 1.00000 1.41488
vt 0.00000 1.53279
vt 0.06250 1.53279
vt 0.12500 1.53279
vt 0.18750 1.53279
vt 0.25000 1.53279
vt 0.31250 1.53279
vt 0.37500 1.53279
vt 0.43750 1.53279
vt 0.50000 1.53279
vt 0.56250 1.53279
vt 0.62500 1.53279
vt 0.68750 1.53279
vt 0.75000 1.53279
vt 0.81250 1.53279
vt 0.87500 1.53279
vt 0.93750 1.53279
vt 1.00000 1.53279
vt 0.50000 1.53279
vt 0.00000 0.00000
vt 0.08333 0.00000
vt 0.16667 0.00000
vt 0.25000 0.00000
vt 0.33333 0.00000
vt 0.41667 0.00000
vt 0.50000 0.00000
vt 0.58333 0.00000
vt 0.66667 0.00000
vt 0.75000 0.00000
vt 0.83333 0.00000
vt 0.91667 0.00000
vt 1.00000 0.00000
vt 0.00000 0.05888
vt 0.08333 0.05888
vt 0.16667 0.05888
vt 0.25000 0.05888
vt 0.33333 0.05888
vt 0.41667 0.05888
vt 0.50000 0.05888
vt 0.58333 0.05888
vt 0.66667 0.05888
vt 0.75000 0.05888
vt 0.83333 0.05888
vt 0.91667 0.05888
vt 1.00000 0.05888
vt 0.00000 0.11545
vt 0.08333 0.11545
vt 0.16667 0.11545
vt 0.25000 0.11545
vt 0.33333 0.11545
vt 0.41667 0.11545
vt 0.50000 0.11545
vt 0.58333 0.11545
vt 0.66667 0.11545
vt 0.75000 0.11545
vt 0.83333 0.11545
vt 0.91667 0.11545
vt 1.00000 0.11545
vt 0.00000 0.16967
vt 0.08333 0.16967
vt 0.16667 0.16967
vt 0.25000 0.16967
vt 0.33333 0.16967
vt 0.41667 0.16967
vt 0.50000 0.16967
vt 0.58333 0.16967
vt 0.66667 0.16967
vt 0.75000 0.16967
vt 0.83333 0.16967
vt 0.91667 0.16967
vt 1.00000 0.16967
vt 0.00000 0.22166
vt 0.08333 0.22166
vt 0.16667 0.22166
vt 0.25000 0.22166
vt 0.33333 0.22166
vt 0.41667 0.22166
vt 0.50000 0.22166
vt 0.58333 0.22166
vt 0.66667 0.22166
vt 0.75000 0.22166
vt 0.83333 0.22166
vt 0.91667 0.22166
vt 1.00000 0.22166
vt 0.00000 0.27178
vt 0.08333 0.27178
vt 0.16667 0.27178
vt 0.25000 0.27178
vt 0.33333 0.27178
vt 0.41667 0.27178
vt 0.50000 0.27178
vt 0.58333 0.27178
vt 0.66667 0.27178
vt 0.75000 0.27178
vt 0.83333 0.27178
vt 0.91667 0.27178
vt 1.00000 0.27178
vt 0.00000 0.32063
vt 0.08333 0.32063
vt 0.16667 0.32063
vt 0.25000 0.32063
vt 0.33333 0.32063
vt 0.41667 0.32063
vt 0.50000 0.32063
vt 0.58333 0.32063
vt 0.66667 0.32063
vt 0.75000 0.32063
vt 0.83333 0.32063
vt 0.91667 0.32063
vt 1.00000 0.32063
vt 0.00000 0.36916
vt 0.08333 0.36916
vt 0.16667 0.36916
vt 0.25000 0.36916
vt 0.33333 0.36916
vt 0.41667 0.36916
vt 0.50000 0.36916
vt 0.58333 0.36916
vt 0.66667 0.36916
vt 0.75000 0.36916
vt 0.83333 0.36916
vt 0.91667 0.36916
vt 1.00000 0.36916
vt 0.00000 0.41858
vt 0.08333 0.41858
vt 0.16667 0.41858
vt 0.25000 0.41858
vt 0.33333 0.41858
vt 0.41667 0.41858
vt 0.50000 0.41858
vt 0.58333 0.41858
vt 0.66667 0.41858
vt 0.75000 0.41858
vt 0.83333 0.41858
vt 0.91667 0.41858
vt 1.00000 0.41858
vt 0.00000 0.47037
vt 0.08333 0.47037
vt 0.16667 0.47037
vt 0.25000 0.47037
vt 0.33333 0.47037
vt 0.41667 0.47037
vt 0.50000 0.47037
vt 0.58333 0.47037
vt 0.66667 0.47037
vt 0.75000 0.47037
vt 0.83333 0.47037
vt 0.91667 0.47037
vt 1.00000 0.47037
vt 0.00000 0.52609
vt 0.08333 0.52609
vt 0.16667 0.52609
vt 0.25000 0.52609
vt 0.33333 0.52609
vt 0.41667 0.52609
vt 0.50000 0.52609
vt 0.58333 0.52609
vt 0.66667 0.52609
vt 0.75000 0.52609
vt 0.83333 0.52609
vt 0.91667 0.52609
vt 1.00000 0.52609
vt 0.00000 0.58731
vt 0.08333 0.58731
vt 0.16667 0.58731
vt 0.25000 0.58731
vt 0.33333 0.58731
vt 0.41667 0.58731
vt 0.50000 0.58731
vt 0.58333 0.58731
vt 0.66667 0.58731
vt 0.75000 0.58731
vt 0.83333 0.58731
vt 0.91667 0.58731
vt 1.00000 0.58731
vt 0.00000 0.65549
vt 0.08333 0.65549
vt 0.16667 0.65549
vt 0.25000 0.65549
vt 0.33333 0.65549
vt 0.41667 0.65549
vt 0.50000 0.65549
vt 0.58333 0.65549
vt 0.66667 0.65549
vt 0.75000 0.65549
vt 0.83333 0.65549
vt 0.91667 0.65549
vt 1.00000 0.65549
vt 0.00000 0.73195
vt 0.08333 0.73195
vt 0.16667 0.73195
vt 0.25000 0.73195
vt 0.33333 0.73195
vt 0.41667 0.73195
vt 0.50000 0.73195
vt 0.58333 0.73195
vt 0.66667 0.73195
vt 0.75000 0.73195
vt 0.83333 0.73195
vt 0.91667 0.73195
vt 1.00000 0.73195
vt 0.00000 0.81791
vt 0.08333 0.81791
vt 0.16667 0.81791
vt 0.25000 0.81791
vt 0.33333 0.81791
vt 0.41667 0.81791
vt 0.50000 0.81791
vt 0.58333 0.81791
vt 0.66667 0.81791
vt 0.75000 0.81791
vt 0.83333 0.81791
vt 0.91667 0.81791
vt 1.00000 0.81791
vt 0.00000 0.91445
vt 0.08333 0.91445
vt 0.16667 0.91445
vt 0.25000 0.91445
vt 0.33333 0.91445
vt 0.41667 0.91445
vt 0.50000 0.91445
vt 0.58333 0.91445
vt 0.66667 0.91445
vt 0.75000 0.91445
vt 0.83333 0.91445
vt 0.91667 0.91445
vt 1.00000 0.91445
vt 0.50000 0.91445
vn 0.98106 0.00007 0.19368
vn 0.90461 0.00006 -0.42623
vn 0.83067 0.00007 -0.55676
vn 0.33827 0.00006 -0.94105
vn 0.19368 0.00007 -0.98106
vn -0.42623 0.00006 -0.90461
vn -0.55676 0.00007 -0.83067
vn -0.94105 0.00006 -0.33827
vn -0.98106 0.00007 -0.19368
vn -0.90461 0.00006 0.42623
vn -0.83067 0.00007 0.55676
vn -0.33827 0.00006 0.94105
vn -0.19368 0.00007 0.98106
vn 0.42623 0.00006 0.90461
vn 0.55676 0.00007 0.83067
vn 0.94105 0.00006 0.33827
vn 0.98106 0.00007 0.19368
vn 1.00000 0.00028 -0.00005
vn 0.92388 0.00025 -0.38267
vn 0.70707 0.00028 -0.70714
vn 0.38270 0.00025 -0.92387
vn -0.00005 0.00028 -1.00000
vn -0.38267 0.00025 -0.92388
vn -0.70714 0.00028 -0.70707
vn -0.92387 0.00025 -0.38270
vn -1.00000 0.00028 0.00005
vn -0.92388 0.00025 0.38267
vn -0.70707 0.00028 0.70714
vn -0.38270 0.00025 0.92387
vn 0.00005 0.00028 1.00000
vn 0.38267 0.00025 0.92388
vn 0.70714 0.00028 0.70707
vn 0.92387 0.00025 0.38270
vn 1.00000 0.00028 -0.00005
vn 1.00000 0.00092 -0.00018
vn 0.92390 0.00080 -0.38264
vn 0.70698 0.00092 -0.70723
vn 0.38272 0.00080 -0.92386
vn -0.00018 0.00092 -1.00000
vn -0.38264 0.00080 -0.92390
vn -0.70723 0.00092 -0.70698
vn -0.92386 0.00080 -0.38272
vn -1.00000 0.00092 0.00018
vn -0.92390 0.00080 0.38264
vn -0.70698 0.00092 0.70723
vn -0.38272 0.00080 0.92386
vn 0.00018 0.00092 1.00000
vn 0.38264 0.00080 0.92390
vn 0.70723 0.00092 0.70698
vn 0.92386 0.00080 0.38272
vn 1.00000 0.00092 -0.00018
vn 1.00000 0.00198 -0.00038
vn 0.92391 0.00172 -0.38260
vn 0.70684 0.00198 -0.70737
vn 0.38277 0.00172 -0.92384
vn -0.00038 0.00198 -1.00000
vn -0.38260 0.00172 -0.92391
vn -0.70737 0.00198 -0.70684
vn -0.92384 0.00172 -0.38277
vn -1.00000 0.00198 0.00038
vn -0.92391 0.00172 0.38260
vn -0.70684 0.00198 0.70737
vn -0.38277 0.00172 0.92384
vn 0.00038 0.00198 1.00000
vn 0.38260 0.00172 0.92391
vn 0.70737 0.00198 0.70684
vn 0.92384 0.00172 0.38277
vn 1.00000 0.00198 -0.00038
vn 0.99999 0.00346 -0.00066
vn 0.92394 0.00301 -0.38253
vn 0.70663 0.00346 -0.70757
vn 0.38283 0.00301 -0.92381
vn -0.00066 0.00346 -0.99999
vn -0.38253 0.00301 -0.92394
vn -0.70757 0.00346 -0.70663
vn -0.92381 0.00301 -0.38283
vn -0.99999 0.00346 0.00066
vn -0.92394 0.00301 0.38253
vn -0.70663 0.00346 0.70757
vn -0.38283 0.00301 0.92381
vn 0.00066 0.00346 0.99999
vn 0.38253 0.00301 0.92394
vn 0.70757 0.00346 0.70663
vn 0.92381 0.00301 0.38283
vn 0.99999 0.00346 -0.00066
vn 0.99999 0.00537 -0.00103
vn 0.92396 0.00466 -0.38245
vn 0.70637 0.00537 -0.70783
vn 0.38291 0.00466 -0.92377
vn -0.00103 0.00537 -0.99999
vn -0.38245 0.00466 -0.92396
vn -0.70783 0.00537 -0.70637
vn -0.92377 0.00466 -0.38291
vn -0.99999 0.00537 0.00103
vn -0.92396 0.00466 0.38245
vn -0.70637 0.00537 0.70783
vn -0.38291 0.00466 0.92377
vn 0.00103 0.00537 0.99999
vn 0.38245 0.00466 0.92396
vn 0.70783 0.00537 0.70637
vn 0.92377 0.00466 0.38291
vn 0.99999 0.00537 -0.00103
vn 0.99997 0.00770 -0.00149
vn 0.92400 0.00669 -0.38234
vn 0.70603 0.00770 -0.70814
vn 0.38301 0.00669 -0.92372
vn -0.00149 0.00770 -0.99997
vn -0.38234 0.00669 -0.92400
vn -0.70814 0.00770 -0.70603
vn -0.92372 0.00669 -0.38301
vn -0.99997 0.00770 0.00149
vn -0.92400 0.00669 0.38234
vn -0.70603 0.00770 0.70814
vn -0.38301 0.00669 0.92372
vn 0.00149 0.00770 0.99997
vn 0.38234 0.00669 0.92400
vn 0.70814 0.00770 0.70603
vn 0.92372 0.00669 0.38301
vn 0.99997 0.00770 -0.00149
vn 0.99994 0.01045 -0.00204
vn 0.92403 0.00908 -0.38221
vn 0.70562 0.01045 -0.70851
vn 0.38312 0.00908 -0.92365
vn -0.00204 0.01045 -0.99994
vn -0.38221 0.00908 -0.92403
vn -0.70851 0.01045 -0.70562
vn -0.92365 0.00908 -0.38312
vn -0.99994 0.01045 0.00204
vn -0.92403 0.00908 0.38221
vn -0.70562 0.01045 0.70851
vn -0.38312 0.00908 0.92365
vn 0.00204 0.01045 0.99994
vn 0.38221 0.00908 0.92403
vn 0.70851 0.01045 0.70562
vn 0.92365 0.00908 0.38312
vn 0.99994 0.01045 -0.00204
vn 0.99990 0.01362 -0.00270
vn 0.92406 0.01184 -0.38205
vn 0.70513 0.01362 -0.70895
vn 0.38326 0.01184 -0.92357
vn -0.00270 0.01362 -0.99990
vn -0.38205 0.01184 -0.92406
vn -0.70895 0.01362 -0.70513
vn -0.92357 0.01184 -0.38326
vn -0.99990 0.01362 0.00270
vn -0.92406 0.01184 0.38205
vn -0.70513 0.01362 0.70895
vn -0.38326 0.01184 0.92357
vn 0.00270 0.01362 0.99990
vn 0.38205 0.01184 0.92406
vn 0.70895 0.01362 0.70513
vn 0.92357 0.01184 0.38326
vn 0.99990 0.01362 -0.00270
vn 0.99985 0.01722 -0.00346
vn 0.92410 0.01497 -0.38187
vn 0.70455 0.01722 -0.70945
vn 0.38341 0.01497 -0.92346
vn -0.00346 0.01722 -0.99985
vn -0.38187 0.01497 -0.92410
vn -0.70945 0.01722 -0.70455
vn -0.92346 0.01497 -0.38341
vn -0.99985 0.01722 0.00346
vn -0.92410 0.01497 0.38187
vn -0.70455 0.01722 0.70945
vn -0.38341 0.01497 0.92346
vn 0.00346 0.01722 0.99985
vn 0.38187 0.01497 0.92410
vn 0.70945 0.01722 0.70455
vn 0.92346 0.01497 0.38341
vn 0.99985 0.01722 -0.00346
vn 0.99976 0.02124 -0.00436
vn 0.92412 0.01846 -0.38165
vn 0.70386 0.02124 -0.71002
vn 0.38359 0.01846 -0.92332
vn -0.00436 0.02124 -0.99976
vn -0.38165 0.01846 -0.92412
vn -0.71002 0.02124 -0.70386
vn -0.92332 0.01846 -0.38359
vn -0.99976 0.02124 0.00436
vn -0.92412 0.01846 0.38165
vn -0.70386 0.02124 0.71002
vn -0.38359 0.01846 0.92332
vn 0.00436 0.02124 0.99976
vn 0.38165 0.01846 0.92412
vn 0.71002 0.02124 0.70386
vn 0.92332 0.01846 0.38359
vn 0.99976 0.02124 -0.00436
vn 0.99966 0.02568 -0.00540
vn 0.92415 0.02232 -0.38138
vn 0.70305 0.02568 -0.71068
vn 0.38379 0.02232 -0.92315
vn -0.00540 0.02568 -0.99966
vn -0.38138 0.02232 -0.92415
vn -0.71068 0.02568 -0.70305
vn -0.92315 0.02232 -0.38379
vn -0.99966 0.02568 0.00540
vn -0.92415 0.02232 0.38138
vn -0.70305 0.02568 0.71068
vn -0.38379 0.02232 0.92315
vn 0.00540 0.02568 0.99966
vn 0.38138 0.02232 0.92415
vn 0.71068 0.02568 0.70305
vn 0.92315 0.02232 0.38379
vn 0.99966 0.02568 -0.00540
vn 0.99951 0.03054 -0.00662
vn 0.92416 0.02655 -0.38107
vn 0.70208 0.03054 -0.71144
vn 0.38402 0.02655 -0.92294
vn -0.00662 0.03054 -0.99951
vn -0.38107 0.02655 -0.92416
vn -0.71144 0.03054 -0.70208
vn -0.92294 0.02655 -0.38402
vn -0.99951 0.03054 0.00662
vn -0.92416 0.02655 0.38107
vn -0.70208 0.03054 0.71144
vn -0.38402 0.02655 0.92294
vn 0.00662 0.03054 0.99951
vn 0.38107 0.02655 0.92416
vn 0.71144 0.03054 0.70208
vn 0.92294 0.02655 0.38402
vn 0.99951 0.03054 -0.00662
vn 0.91195 0.38957 -0.12877
vn 0.87789 0.34789 -0.32906
vn 0.55379 0.38957 -0.73590
vn 0.38808 0.34789 -0.85344
vn -0.12877 0.38957 -0.91195
vn -0.32906 0.34789 -0.87789
vn -0.73590 0.38957 -0.55379
vn -0.85344 0.34789 -0.38808
vn -0.91195 0.38957 0.12877
vn -0.87789 0.34789 0.32906
vn -0.55379 0.38957 0.73590
vn -0.38808 0.34789 0.85344
vn 0.12877 0.38957 0.91195
vn 0.32906 0.34789 0.87789
vn 0.73590 0.38957 0.55379
vn 0.85344 0.34789 0.38808
vn 0.91195 0.38957 -0.12877
vn -0.00000 1.00000 0.00000
vn 0.02117 0.98207 0.18734
vn 0.01872 0.86689 -0.49816
vn 0.01412 0.65168 -0.75836
vn -0.00001 0.00207 -1.00000
vn -0.00744 -0.33178 -0.94333
vn -0.01937 -0.86479 -0.50176
vn -0.02211 -0.98243 -0.18530
vn -0.01948 -0.86688 0.49814
vn -0.01464 -0.65328 0.75697
vn -0.00010 -0.00211 1.00000
vn 0.00709 0.32782 0.94471
vn 0.01874 0.86480 0.50177
vn 0.02117 0.98207 0.18734
vn 0.04712 0.99886 -0.00765
vn 0.04088 0.86500 -0.50011
vn 0.02756 0.49054 -0.87098
vn -0.00016 -0.00009 -1.00000
vn -0.02048 -0.50496 -0.86290
vn -0.04260 -0.86499 -0.49998
vn -0.04949 -0.99877 0.00052
vn -0.04286 -0.86497 0.49999
vn -0.02925 -0.50084 0.86505
vn -0.00026 -0.00000 1.00000
vn 0.01936 0.50083 0.86533
vn 0.04106 0.86507 0.49996
vn 0.04712 0.99886 -0.00765
vn 0.10795 0.99413 -0.00644
vn 0.09340 0.86092 -0.50010
vn 0.05806 0.48570 -0.87220
vn -0.00064 -0.00007 -1.00000
vn -0.05090 -0.50595 -0.86106
vn -0.09585 -0.86074 -0.49994
vn -0.11109 -0.99381 0.00230
vn -0.09638 -0.86066 0.49998
vn -0.06199 -0.49920 0.86426
vn -0.00077 0.00004 1.00000
vn 0.04806 0.49595 0.86702
vn 0.09388 0.86094 0.49998
vn 0.10795 0.99413 -0.00644
vn 0.18404 0.98289 -0.00706
vn 0.15922 0.85120 -0.50011
vn 0.09571 0.47729 -0.87352
vn -0.00148 0.00012 -1.00000
vn -0.09018 -0.50207 -0.86011
vn -0.16392 -0.85041 -0.49993
vn -0.18987 -0.98181 0.00208
vn -0.16474 -0.85023 0.49997
vn -0.10388 -0.49403 0.86322
vn -0.00164 0.00024 1.00000
vn 0.08396 0.48935 0.86804
vn 0.16004 0.85112 0.49998
vn 0.18404 0.98289 -0.00706
vn 0.27683 0.96089 -0.00721
vn 0.23947 0.83219 -0.50012
vn 0.14087 0.46349 -0.87483
vn -0.00269 0.00061 -1.00000
vn -0.13885 -0.49242 -0.85921
vn -0.24721 -0.83004 -0.49993
vn -0.28625 -0.95815 0.00162
vn -0.24839 -0.82967 0.49995
vn -0.15532 -0.48273 0.86189
vn -0.00287 0.00075 1.00000
vn 0.12747 0.47727 0.86946
vn 0.24079 0.83188 0.49999
vn 0.27683 0.96089 -0.00721
vn 0.38551 0.92268 -0.00637
vn 0.33344 0.79919 -0.50012
vn 0.19302 0.44227 -0.87587
vn -0.00416 0.00158 -0.99999
vn -0.19639 -0.47371 -0.85850
vn -0.34456 -0.79458 -0.49993
vn -0.39884 -0.91702 0.00094
vn -0.34614 -0.79388 0.49994
vn -0.21550 -0.46189 0.86036
vn -0.00436 0.00174 0.99999
vn 0.17805 0.45727 0.87132
vn 0.33535 0.79845 0.50001
vn 0.38551 0.92268 -0.00637
vn 0.50591 0.86257 -0.00404
vn 0.43754 0.74730 -0.50010
vn 0.25037 0.41182 -0.87620
vn -0.00568 0.00320 -0.99998
vn -0.26018 -0.44248 -0.85821
vn -0.45152 -0.73905 -0.49993
vn -0.52240 -0.85270 0.00012
vn -0.45339 -0.73791 0.49993
vn -0.28128 -0.42810 0.85884
vn -0.00590 0.00338 0.99998
vn 0.23372 0.42717 0.87344
vn 0.43993 0.74594 0.50004
vn 0.50591 0.86257 -0.00404
vn 0.62939 0.77709 -0.00018
vn 0.54434 0.67352 -0.50007
vn 0.30954 0.37119 -0.87544
vn -0.00689 0.00552 -0.99996
vn -0.32505 -0.39660 -0.85852
vn -0.55978 -0.66084 -0.49994
vn -0.64727 -0.76226 -0.00078
vn -0.56168 -0.65924 0.49992
vn -0.34688 -0.37969 0.85762
vn -0.00714 0.00571 0.99996
vn 0.29090 0.38608 0.87539
vn 0.54682 0.67150 0.50008
vn 0.62939 0.77709 -0.00018
vn 0.74387 0.66831 0.00427
vn 0.64353 0.57953 -0.50002
vn 0.36567 0.32112 -0.87359
vn -0.00743 0.00832 -0.99994
vn -0.38412 -0.33716 -0.85952
vn -0.65880 -0.56217 -0.49995
vn -0.76133 -0.64837 -0.00177
vn -0.66042 -0.56030 0.49990
vn -0.40525 -0.31848 0.85694
vn -0.00771 0.00855 0.99993
vn 0.34505 0.33536 0.87663
vn 0.64556 0.57718 0.50012
vn 0.74387 0.66831 0.00427
vn 0.83843 0.54496 0.00784
vn 0.72564 0.47275 -0.49996
vn 0.41368 0.26457 -0.87113
vn -0.00716 0.01122 -0.99991
vn -0.43149 -0.26905 -0.86106
vn -0.73954 -0.45070 -0.49995
vn -0.85426 -0.51984 -0.00283
vn -0.74070 -0.44887 0.49988
vn -0.45086 -0.24991 0.85690
vn -0.00744 0.01147 0.99991
vn 0.39195 0.27853 0.87681
vn 0.72694 0.47057 0.50013
vn 0.83843 0.54496 0.00784
vn 0.90795 0.41896 0.00971
vn 0.78611 0.36348 -0.49992
vn 0.45036 0.20609 -0.86873
vn -0.00615 0.01382 -0.99989
vn -0.46463 -0.19925 -0.86280
vn -0.79786 -0.33686 -0.49995
vn -0.92138 -0.38865 -0.00385
vn -0.79856 -0.33532 0.49986
vn -0.48183 -0.18089 0.85739
vn -0.00642 0.01409 0.99988
vn 0.42903 0.22008 0.87607
vn 0.78675 0.36181 0.50011
vn 0.90795 0.41896 0.00971
vn 0.95378 0.30034 0.01003
vn 0.82598 0.26052 -0.49989
vn 0.47539 0.15019 -0.86686
vn -0.00471 0.01588 -0.99986
vn -0.48472 -0.13386 -0.86436
vn -0.83501 -0.22982 -0.49994
vn -0.96417 -0.26525 -0.00463
vn -0.83538 -0.22867 0.49985
vn -0.49975 -0.11701 0.85823
vn -0.00495 0.01615 0.99986
vn 0.45589 0.16406 0.87479
vn 0.82621 0.25942 0.50009
vn 0.95378 0.30034 0.01003
vn 0.98080 0.19482 0.00934
vn 0.84946 0.16894 -0.49987
vn 0.49061 0.09983 -0.86564
vn -0.00310 0.01739 -0.99984
vn -0.49502 -0.07631 -0.86552
vn -0.85548 -0.13498 -0.49994
vn -0.98776 -0.15588 -0.00498
vn -0.85566 -0.13419 0.49984
vn -0.50787 -0.06122 0.85926
vn -0.00330 0.01764 0.99984
vn 0.47381 0.11320 0.87332
vn 0.84949 0.16828 0.50006
vn 0.98080 0.19482 0.00934
vn 0.99452 0.10422 0.00810
vn 0.86137 0.09037 -0.49987
vn 0.49858 0.05626 -0.86502
vn -0.00154 0.01843 -0.99983
vn -0.49892 -0.02754 -0.86621
vn -0.86437 -0.05406 -0.49994
vn -0.99803 -0.06250 -0.00484
vn -0.86446 -0.05353 0.49984
vn -0.50951 -0.01419 0.86035
vn -0.00169 0.01864 0.99982
vn 0.48487 0.06872 0.87188
vn 0.86132 0.09000 0.50002
vn 0.99452 0.10422 0.00810
vn 0.99960 0.02722 0.00820
vn 0.86574 0.02368 -0.49993
vn 0.50292 0.01910 -0.86412
vn -0.00020 0.01907 -0.99982
vn -0.49910 0.01302 -0.86645
vn -0.86597 0.01345 -0.49991
vn -0.99988 0.01534 -0.00280
vn -0.86600 0.01375 0.49985
vn -0.50601 0.02468 0.86218
vn -0.00032 0.01933 0.99981
vn 0.49106 0.03052 0.87059
vn 0.86565 0.02362 0.50009
vn 0.99960 0.02722 0.00820
vn 0.94207 0.30693 -0.13530
vn 0.83460 0.27203 -0.47901
vn 0.35791 0.32061 -0.87699
vn 0.00656 0.29174 -0.95648
vn -0.57688 0.34232 -0.74164
vn -0.82153 0.31191 -0.47728
vn -0.92665 0.35046 0.13602
vn -0.81977 0.31265 0.47982
vn -0.34146 0.33708 0.87737
vn 0.00966 0.29318 0.95601
vn 0.59253 0.31526 0.74130
vn 0.83594 0.27274 0.47625
vn 0.94207 0.30693 -0.13530
vn 0.02830 0.99960 0.00000
usemtl cactus
s 1
f 1/1/1 2/2/2 18/18/18
f 2/2/2 19/19/19 18/18/18
f 2/2/2 3/3/3 19/19/19
f 3/3/3 20/20/20 19/19/19
f 3/3/3 4/4/4 20/20/20
f 4/4/4 21/21/21 20/20/20
f 4/4/4 5/5/5 21/21/21
f 5/5/5 22/22/22 21/21/21
f 5/5/5 6/6/6 22/22/22
f 6/6/6 23/23/23 22/22/22
f 6/6/6 7/7/7 23/23/23
f 7/7/7 24/24/24 23/23/23
f 7/7/7 8/8/8 24/24/24
f 8/8/8 25/25/25 24/24/24
f 8/8/8 9/9/9 25/25/25
f 9/9/9 26/26/26 25/25/25
f 9/9/9 10/10/10 26/26/26
f 10/10/10 27/27/27 26/26/26
f 10/10/10 11/11/11 27/27/27
f 11/11/11 28/28/28 27/27/27
f 11/11/11 12/12/12 28/28/28
f 12/12/12 29/29/29 28/28/28
f 12/12/12 13/13/13 29/29/29
f 13/13/13 30/30/30 29/29/29
f 13/13/13 14/14/14 30/30/30
f 14/14/14 31/31/31 30/30/30
f 14/14/14 15/15/15 31/31/31
f 15/15/15 32/32/32 31/31/31
f 15/15/15 16/16/16 32/32/32
f 16/16/16 33/33/33 32/32/32
f 16/16/16 17/17/17 33/33/33
f 17/17/17 34/34/34 33/33/33
f 18/18/18 19/19/19 35/35/35
f 19/19/19 36/36/36 35/35/35
f 19/19/19 20/20/20 36/36/36
f 20/20/20 37/37/37 36/36/36
f 20/20/20 21/21/21 37/37/37
f 21/21/21 38/38/38 37/37/37
f 21/21/21 22/22/22 38/38/38
f 22/22/22 39/39/39 38/38/38
f 22/22/22 23/23/23 39/39/39
f 23/23/23 40/40/40 39/39/39
f 23/23/23 24/24/24 40/40/40
f 24/24/24 41/41/41 40/40/40
f 24/24/24 25/25/25 41/41/41
f 25/25/25 42/42/42 41/41/41
f 25/25/25 26/26/26 42/42/42
f 26/26/26 43/43/43 42/42/42
f 26/26/26 27/27/27 43/43/43
f 27/27/27 44/44/44 43/43/43
f 27/27/27 28/28/28 44/44/44
f 28/28/28 45/45/45 44/44/44
f 28/28/28 29/29/29 45/45/45
f 29/29/29 46/46/46 45/45/45
f 29/29/29 30/30/30 46/46/46
f 30/30/30 47/47/47 46/46/46
f 30/30/30 31/31/31 47/47/47
f 31/31/31 48/48/48 47/47/47
f 31/31/31 32/32/32 48/48/48
f 32/32/32 49/49/49 48/48/48
f 32/32/32 33/33/33 49/49/49
f 33/33/33 50/50/50 49/49/49
f 33/33/33 34/34/34 50/50/50
f 34/34/34 51/51/51 50/50/50
f 35/35/35 36/36/36 52/52/52
f 36/36/36 53/53/53 52/52/52
f 36/36/36 37/37/37 53/53/53
f 37/37/37 54/54/54 53/53/53
f 37/37/37 38/38/38 54/54/54
f 38/38/38 55/55/55 54/54/54
f 38/38/38 39/39/39 55/55/55
f 39/39/39 56/56/56 55/55/55
f 39/39/39 40/40/40 56/56/56
f 40/40/40 57/57/57 56/56/56
f 40/40/40 41/41/41 57/57/57
f 41/41/41 58/58/58 57/57/57
f 41/41/41 42/42/42 58/58/58
f 42/42/42 59/59/59 58/58/58
f 42/42/42 43/43/43 59/59/59
f 43/43/43 60/60/60 59/59/59
f 43/43/43 44/44/44 60/60/60
f 44/44/44 61/61/61 60/60/60
f 44/44/44 45/45/45 61/61/61
f 45/45/45 62/62/62 61/61/61
f 45/45/45 46/46/46 62/62/62
f 46/46/46 63/63/63 62/62/62
f 46/46/46 47/47/47 63/63/63
f 47/47/47 64/64/64 63/63/63
f 47/47/47 48/48/48 64/64/64
f 48/48/48 65/65/65 64/64/64
f 48/48/48 49/49/49 65/65/65
f 49/49/49 66/66/66 65/65/65
f 49/49/49 50/50/50 66/66/66
f 50/50/50 67/67/67 66/66/66
f 50/50/50 51/51/51 67/67/67
f 51/51/51 68/68/68 67/67/67
f 52/52/52 53/53/53 69/69/69
f 53/53/53 70/70/70 69/69/69
f 53/53/53 54/54/54 70/70/70
f 54/54/54 71/71/71 70/70/70
f 54/54/54 55/55/55 71/71/71
f 55/55/55 72/72/72 71/71/71
f 55/55/55 56/56/56 72/72/72
f 56/56/56 73/73/73 72/72/72
f 56/56/56 57/57/57 73/73/73
f 57/57/57 74/74/74 73/73/73
f 57/57/57 58/58/58 74/74/74
f 58/58/58 75/75/75 74/74/74
f 58/58/58 59/59/59 75/75/75
f 59/59/59 76/76/76 75/75/75
f 59/59/59 60/60/60 76/76/76
f 60/60/60 77/77/77 76/76/76
f 60/60/60 61/61/61 77/77/77
f 61/61/61 78/78/78 77/77/77
f 61/61/61 62/62/62 78/78/78
f 62/62/62 79/79/79 78/78/78
f 62/62/62 63/63/63 79/79/79
f 63/63/63 80/80/80 79/79/79
f 63/63/63 64/64/64 80/80/80
f 64/64/64 81/81/81 80/80/80
f 64/64/64 65/65/65 81/81/81
f 65/65/65 82/82/82 81/81/81
f 65/65/65 66/66/66 82/82/82
f 66/66/66 83/83/83 82/82/82
f 66/66/66 67/67/67 83/83/83
f 67/67/67 84/84/84 83/83/83
f 67/67/67 68/68/68 84/84/84
f 68/68/68 85/85/85 84/84/84
f 69/69/69 70/70/70 86/86/86
f 70/70/70 87/87/87 86/86/86
f 70/70/70 71/71/71 87/87/87
f 71/71/71 88/88/88 87/87/87
f 71/71/71 72/72/72 88/88/88
f 72/72/72 89/89/89 88/88/88
f 72/72/72 73/73/73 89/89/89
f 73/73/73 90/90/90 89/89/89
f 73/73/73 74/74/74 90/90/90
f 74/74/74 91/91/91 90/90/90
f 74/74/74 75/75/75 91/91/91
f 75/75/75 92/92/92 91/91/91
f 75/75/75 76/76/76 92/92/92
f 76/76/76 93/93/93 92/92/92
f 76/76/76 77/77/77 93/93/93
f 77/77/77 94/94/94 93/93/93
f 77/77/77 78/78/78 94/94/94
f 78/78/78 95/95/95 94/94/94
f 78/78/78 79/79/79 95/95/95
f 79/79/79 96/96/96 95/95/95
f 79/79/79 80/80/80 96/96/96
f 80/80/80 97/97/97 96/96/96
f 80/80/80 81/81/81 97/97/97
f 81/81/81 98/98/98 97/97/97
f 81/81/81 82/82/82 98/98/98
f 82/82/82 99/99/99 98/98/98
f 82/82/82 83/83/83 99/99/99
f 83/83/83 100/100/100 99/99/99
f 83/83/83 84/84/84 100/100/100
f 84/84/84 101/101/101 100/100/100
f 84/84/84 85/85/85 101/101/101
f 85/85/85 102/102/102 101/101/101
f 86/86/86 87/87/87 103/103/103
f 87/87/87 104/104/104 103/103/103
f 87/87/87 88/88/88 104/104/104
f 88/88/88 105/105/105 104/104/104
f 88/88/88 89/89/89 105/105/105
f 89/89/89 106/106/106 105/105/105
f 89/89/89 90/90/90 106/106/106
f 90/90/90 107/107/107 106/106/106
f 90/90/90 91/91/91 107/107/107
f 91/91/91 108/108/108 107/107/107
f 91/91/91 92/92/92 108/108/108
f 92/92/92 109/109/109 108/108/108
f 92/92/92 93/93/93 109/109/109
f 93/93/93 110/110/110 109/109/109
f 93/93/93 94/94/94 110/110/110
f 94/94/94 111/111/111 110/110/110
f 94/94/94 95/95/95 111/111/111
f 95/95/95 112/112/112 111/111/111
f 95/95/95 96/96/96 112/112/112
f 96/96/96 113/113/113 112/112/112
f 96/96/96 97/97/97 113/113/113
f 97/97/97 114/114/114 113/113/113
f 97/97/97 98/98/98 114/114/114
f 98/98/98 115/115/115 114/114/114
f 98/98/98 99/99/99 115/115/115
f 99/99/99 116/116/116 115/115/115
f 99/99/99 100/100/100 116/116/116
f 100/100/100 117/117/117 116/116/116
f 100/100/100 101/101/101 117/117/117
f 101/101/101 118/118/118 117/117/117
f 101/101/101 102/102/102 118/118/118
f 102/102/102 119/119/119 118/118/118
f 103/103/103 104/104/104 120/120/120
f 104/104/104 121/121/121 120/120/120
f 104/104/104 105/105/105 121/121/121
f 105/105/105 122/122/122 121/121/121
f 105/105/105 106/106/106 122/122/122
f 106/106/106 123/123/123 122/122/122
f 106/106/106 107/107/107 123/123/123
f 107/107/107 124/124/124 123/123/123
f 107/107/107 108/108/108 124/124/124
f 108/108/108 125/125/125 124/124/124
f 108/108/108 109/109/109 125/125/125
f 109/109/109 126/126/126 125/125/125
f 109/109/109 110/110/110 126/126/126
f 110/110/110 127/127/127 126/126/126
f 110/110/110 111/111/111 127/127/127
f 111/111/111 128/128/128 127/127/127
f 111/111/111 112/112/112 128/128/128
f 112/112/112 129/129/129 128/128/128
f 112/112/112 113/113/113 129/129/129
f 113/113/113 130/130/130 129/129/129
f 113/113/113 114/114/114 130/130/130
f 114/114/114 131/131/131 130/130/130
f 114/114/114 115/115/115 131/131/131
f 115/115/115 132/132/132 131/131/131
f 115/115/115 116/116/116 132/132/132
f 116/116/116 133/133/133 132/132/132
f 116/116/116 117/117/117 133/133/133
f 117/117/117 134/134/134 133/133/133
f 117/117/117 118/118/118 134/134/134
f 118/118/118 135/135/135 134/134/134
f 118/118/118 119/119/119 135/135/135
f 119/119/119 136/136/136 135/135/135
f 120/120/120 121/121/121 137/137/137
f 121/121/121 138/138/138 137/137/137
f 121/121/121 122/122/122 138/138/138
f 122/122/122 139/139/139 138/138/138
f 122/122/122 123/123/123 139/139/139
f 123/123/123 140/140/140 139/139/139
f 123/123/123 124/124/124 140/140/140
f 124/124/124 141/141/141 140/140/140
f 124/124/124 125/125/125 141/141/141
f 125/125/125 142/142/142 141/141/141
f 125/125/125 126/126/126 142/142/142
f 126/126/126 143/143/143 142/142/142
f 126/126/126 127/127/127 143/143/143
f 127/127/127 144/144/144 143/143/143
f 127/127/127 128/128/128 144/144/144
f 128/128/128 145/145/145 144/144/144
f 128/128/128 129/129/129 145/145/145
f 129/129/129 146/146/146 145/145/145
f 129/129/129 130/130/130 146/146/146
f 130/130/130 147/147/147 146/146/146
f 130/130/130 131/131/131 147/147/147
f 131/131/131 148/148/148 147/147/147
f 131/131/131 132/132/132 148/148/148
f 132/132/132 149/149/149 148/148/148
f 132/132/132 133/133/133 149/149/149
f 133/133/133 150/150/150 149/149/149
f 133/133/133 134/134/134 150/150/150
f 134/134/134 151/151/151 150/150/150
f 134/134/134 135/135/135 151/151/151
f 135/135/135 152/152/152 151/151/151
f 135/135/135 136/136/136 152/152/152
f 136/136/136 153/153/153 152/152/152
f 137/137/137 138/138/138 154/154/154
f 138/138/138 155/155/155 154/154/154
f 138/138/138 139/139/139 155/155/155
f 139/139/139 156/156/156 155/155/155
f 139/139/139 140/140/140 156/156/156
f 140/140/140 157/157/157 156/156/156
f 140/140/140 141/141/141 157/157/157
f 141/141/141 158/158/158 157/157/157
f 141/141/141 142/142/142 158/158/158
f 142/142/142 159/159/159 158/158/158
f 142/142/142 143/143/143 159/159/159
f 143/143/143 160/160/160 159/159/159
f 143/143/143 144/144/144 160/160/160
f 144/144/144 161/161/161 160/160/160
f 144/144/144 145/145/145 161/161/161
f 145/145/145 162/162/162 161/161/161
f 145/145/145 146/146/146 162/162/162
f 146/146/146 163/163/163 162/162/162
f 146/146/146 147/147/147 163/163/163
f 147/147/147 164/164/164 163/163/163
f 147/147/147 148/148/148 164/164/164
f 148/148/148 165/165/165 164/164/164
f 148/148/148 149/149/149 165/165/165
f 149/149/149 166/166/166 165/165/165
f 149/149/149 150/150/150 166/166/166
f 150/150/150 167/167/167 166/166/166
f 150/150/150 151/151/151 167/167/167
f 151/151/151 168/168/168 167/167/167
f 151/151/151 152/152/152 168/168/168
f 152/152/152 169/169/169 168/168/168
f 152/152/152 153/153/153 169/169/169
f 153/153/153 170/170/170 169/169/169
f 154/154/154 155/155/155 171/171/171
f 155/155/155 172/172/172 171/171/171
f 155/155/155 156/156/156 172/172/172
f 156/156/156 173/173/173 172/172/172
f 156/156/156 157/157/157 173/173/173
f 157/157/157 174/174/174 173/173/173
f 157/157/157 158/158/158 174/174/174
f 158/158/158 175/175/175 174/174/174
f 158/158/158 159/159/159 175/175/175
f 159/159/159 176/176/176 175/175/175
f 159/159/159 160/160/160 176/176/176
f 160/160/160 177/177/177 176/176/176
f 160/160/160 161/161/161 177/177/177
f 161/161/161 178/178/178 177/177/177
f 161/161/161 162/162/162 178/178/178
f 162/162/162 179/179/179 178/178/178
f 162/162/162 163/163/163 179/179/179
f 163/163/163 180/180/180 179/179/179
f 163/163/163 164/164/164 180/180/180
f 164/164/164 181/181/181 180/180/180
f 164/164/164 165/165/165 181/181/181
f 165/165/165 182/182/182 181/181/181
f 165/165/165 166/166/166 182/182/182
f 166/166/166 183/183/183 182/182/182
f 166/166/166 167/167/167 183/183/183
f 167/167/167 184/184/184 183/183/183
f 167/167/167 168/168/168 184/184/184
f 168/168/168 185/185/185 184/184/184
f 168/168/168 169/169/169 185/185/185
f 169/169/169 186/186/186 185/185/185
f 169/169/169 170/170/170 186/186/186
f 170/170/170 187/187/187 186/186/186
f 171/171/171 172/172/172 188/188/188
f 172/172/172 189/189/189 188/188/188
f 172/172/172 173/173/173 189/189/189
f 173/173/173 190/190/190 189/189/189
f 173/173/173 174/174/174 190/190/190
f 174/174/174 191/191/191 190/190/190
f 174/174/174 175/175/175 191/191/191
f 175/175/175 192/192/192 191/191/191
f 175/175/175 176/176/176 192/192/192
f 176/176/176 193/193/193 192/192/192
f 176/176/176 177/177/177 193/193/193
f 177/177/177 194/194/194 193/193/193
f 177/177/177 178/178/178 194/194/194
f 178/178/178 195/195/195 194/194/194
f 178/178/178 179/179/179 195/195/195
f 179/179/179 196/196/196 195/195/195
f 179/179/179 180/180/180 196/196/196
f 180/180/180 197/197/197 196/196/196
f 180/180/180 181/181/181 197/197/197
f 181/181/181 198/198/198 197/197/197
f 181/181/181 182/182/182 198/198/198
f 182/182/182 199/199/199 198/198/198
f 182/182/182 183/183/183 199/199/199
f 183/183/183 200/200/200 199/199/199
f 183/183/183 184/184/184 200/200/200
f 184/184/184 201/201/201 200/200/200
f 184/184/184 185/185/185 201/201/201
f 185/185/185 202/202/202 201/201/201
f 185/185/185 186/186/186 202/202/202
f 186/186/186 203/203/203 202/202/202
f 186/186/186 187/187/187 203/203/203
f 187/187/187 204/204/204 203/203/203
f 188/188/188 189/189/189 205/205/205
f 189/189/189 206/206/206 205/205/205
f 189/189/189 190/190/190 206/206/206
f 190/190/190 207/207/207 206/206/206
f 190/190/190 191/191/191 207/207/207
f 191/191/191 208/208/208 207/207/207
f 191/191/191 192/192/192 208/208/208
f 192/192/192 209/209/209 208/208/208
f 192/192/192 193/193/193 209/209/209
f 193/193/193 210/210/210 209/209/209
f 193/193/193 194/194/194 210/210/210
f 194/194/194 211/211/211 210/210/210
f 194/194/194 195/195/195 211/211/211
f 195/195/195 212/212/212 211/211/211
f 195/195/195 196/196/196 212/212/212
f 196/196/196 213/213/213 212/212/212
f 196/196/196 197/197/197 213/213/213
f 197/197/197 214/214/214 213/213/213
f 197/197/197 198/198/198 214/214/214
f 198/198/198 215/215/215 214/214/214
f 198/198/198 199/199/199 215/215/215
f 199/199/199 216/216/216 215/215/215
f 199/199/199 200/200/200 216/216/216
f 200/200/200 217/217/217 216/216/216
f 200/200/200 201/201/201 217/217/217
f 201/201/201 218/218/218 217/217/217
f 201/201/201 202/202/202 218/218/218
f 202/202/202 219/219/219 218/218/218
f 202/202/202 203/203/203 219/219/219
f 203/203/203 220/220/220 219/219/219
f 203/203/203 204/204/204 220/220/220
f 204/204/204 221/221/221 220/220/220
f 205/205/205 206/206/206 222/222/222
f 206/206/206 223/223/223 222/222/222
f 206/206/206 207/207/207 223/223/223
f 207/207/207 224/224/224 223/223/223
f 207/207/207 208/208/208 224/224/224
f 208/208/208 225/225/225 224/224/224
f 208/208/208 209/209/209 225/225/225
f 209/209/209 226/226/226 225/225/225
f 209/209/209 210/210/210 226/226/226
f 210/210/210 227/227/227 226/226/226
f 210/210/210 211/211/211 227/227/227
f 211/211/211 228/228/228 227/227/227
f 211/211/211 212/212/212 228/228/228
f 212/212/212 229/229/229 228/228/228
f 212/212/212 213/213/213 229/229/229
f 213/213/213 230/230/230 229/229/229
f 213/213/213 214/214/214 230/230/230
f 214/214/214 231/231/231 230/230/230
f 214/214/214 215/215/215 231/231/231
f 215/215/215 232/232/232 231/231/231
f 215/215/215 216/216/216 232/232/232
f 216/216/216 233/233/233 232/232/232
f 216/216/216 217/217/217 233/233/233
f 217/217/217 234/234/234 233/233/233
f 217/217/217 218/218/218 234/234/234
f 218/218/218 235/235/235 234/234/234
f 218/218/218 219/219/219 235/235/235
f 219/219/219 236/236/236 235/235/235
f 219/219/219 220/220/220 236/236/236
f 220/220/220 237/237/237 236/236/236
f 220/220/220 221/221/221 237/237/237
f 221/221/221 238/238/238 237/237/237
f 222/222/222 223/223/223 239/239/239
f 223/223/223 224/224/224 239/239/239
f 224/224/224 225/225/225 239/239/239
f 225/225/225 226/226/226 239/239/239
f 226/226/226 227/227/227 239/239/239
f 227/227/227 228/228/228 239/239/239
f 228/228/228 229/229/229 239/239/239
f 229/229/229 230/230/230 239/239/239
f 230/230/230 231/231/231 239/239/239
f 231/231/231 232/232/232 239/239/239
f 232/232/232 233/233/233 239/239/239
f 233/233/233 234/234/234 239/239/239
f 234/234/234 235/235/235 239/239/239
f 235/235/235 236/236/236 239/239/239
f 236/236/236 237/237/237 239/239/239
f 237/237/237 238/238/238 239/239/239
f 240/240/240 241/241/241 253/253/253
f 241/241/241 254/254/254 253/253/253
f 241/241/241 242/242/242 254/254/254
f 242/242/242 255/255/255 254/254/254
f 242/242/242 243/243/243 255/255/255
f 243/243/243 256/256/256 255/255/255
f 243/243/243 244/244/244 256/256/256
f 244/244/244 257/257/257 256/256/256
f 244/244/244 245/245/245 257/257/257
f 245/245/245 258/258/258 257/257/257
f 245/245/245 246/246/246 258/258/258
f 246/246/246 259/259/259 258/258/258
f 246/246/246 247/247/247 259/259/259
f 247/247/247 260/260/260 259/259/259
f 247/247/247 248/248/248 260/260/260
f 248/248/248 261/261/261 260/260/260
f 248/248/248 249/249/249 261/261/261
f 249/249/249 262/262/262 261/261/261
f 249/249/249 250/250/250 262/262/262
f 250/250/250 263/263/263 262/262/262
f 250/250/250 251/251/251 263/263/263
f 251/251/251 264/264/264 263/263/263
f 251/251/251 252/252/252 264/264/264
f 252/252/252 265/265/265 264/264/264
f 253/253/253 254/254/254 266/266/266
f 254/254/254 267/267/267 266/266/266
f 254/254/254 255/255/255 267/267/267
f 255/255/255 268/268/268 267/267/267
f 255/255/255 256/256/256 268/268/268
f 256/256/256 269/269/269 268/268/268
f 256/256/256 257/257/257 269/269/269
f 257/257/257 270/270/270 269/269/269
f 257/257/257 258/258/258 270/270/270
f 258/258/258 271/271/271 270/270/270
f 258/258/258 259/259/259 271/271/271
f 259/259/259 272/272/272 271/271/271
f 259/259/259 260/260/260 272/272/272
f 260/260/260 273/273/273 272/272/272
f 260/260/260 261/261/261 273/273/273
f 261/261/261 274/274/274 273/273/273
f 261/261/261 262/262/262 274/274/274
f 262/262/262 275/275/275 274/274/274
f 262/262/262 263/263/263 275/275/275
f 263/263/263 276/276/276 275/275/275
f 263/263/263 264/264/264 276/276/276
f 264/264/264 277/277/277 276/276/276
f 264/264/264 265/265/265 277/277/277
f 265/265/265 278/278/278 277/277/277
f 266/266/266 267/267/267 279/279/279
f 267/267/267 280/280/280 279/279/279
f 267/267/267 268/268/268 280/280/280
f 268/268/268 281/281/281 280/280/280
f 268/268/268 269/269/269 281/281/281
f 269/269/269 282/282/282 281/281/281
f 269/269/269 270/270/270 282/282/282
f 270/270/270 283/283/283 282/282/282
f 270/270/270 271/271/271 283/283/283
f 271/271/271 284/284/284 283/283/283
f 271/271/271 272/272/272 284/284/284
f 272/272/272 285/285/285 284/284/284
f 272/272/272 273/273/273 285/285/285
f 273/273/273 286/286/286 285/285/285
f 273/273/273 274/274/274 286/286/286
f 274/274/274 287/287/287 286/286/286
f 274/274/274 275/275/275 287/287/287
f 275/275/275 288/288/288 287/287/287
f 275/275/275 276/276/276 288/288/288
f 276/276/276 289/289/289 288/288/288
f 276/276/276 277/277/277 289/289/289
f 277/277/277 290/290/290 289/289/289
f 277/277/277 278/278/278 290/290/290
f 278/278/278 291/291/291 290/290/290
f 279/279/279 280/280/280 292/292/292
f 280/280/280 293/293/293 292/292/292
f 280/280/280 281/281/281 293/293/293
f 281/281/281 294/294/294 293/293/293
f 281/281/281 282/282/282 294/294/294
f 282/282/282 295/295/295 294/294/294
f 282/282/282 283/283/283 295/295/295
f 283/283/283 296/296/296 295/295/295
f 283/283/283 284/284/284 296/296/296
f 284/284/284 297/297/297 296/296/296
f 284/284/284 285/285/285 297/297/297
f 285/285/285 298/298/298 297/297/297
f 285/285/285 286/286/286 298/298/298
f 286/286/286 299/299/299 298/298/298
f 286/286/286 287/287/287 299/299/299
f 287/287/287 300/300/300 299/299/299
f 287/287/287 288/288/288 300/300/300
f 288/288/288 301/301/301 300/300/300
f 288/288/288 289/289/289 301/301/301
f 289/289/289 302/302/302 301/301/301
f 289/289/289 290/290/290 302/302/302
f 290/290/290 303/303/303 302/302/302
f 290/290/290 291/291/291 303/303/303
f 291/291/291 304/304/304 303/303/303
f 292/292/292 293/293/293 305/305/305
f 293/293/293 306/306/306 305/305/305
f 293/293/293 294/294/294 306/306/306
f 294/294/294 307/307/307 306/306/306
f 294/294/294 295/295/295 307/307/307
f 295/295/295 308/308/308 307/307/307
f 295/295/295 296/296/296 308/308/308
f 296/296/296 309/309/309 308/308/308
f 296/296/296 297/297/297 309/309/309
f 297/297/297 310/310/310 309/309/309
f 297/297/297 298/298/298 310/310/310
f 298/298/298 311/311/311 310/310/310
f 298/298/298 299/299/299 311/311/311
f 299/299/299 312/312/312 311/311/311
f 299/299/299 300/300/300 312/312/312
f 300/300/300 313/313/313 312/312/312
f 300/300/300 301/301/301 313/313/313
f 301/301/301 314/314/314 313/313/313
f 301/301/301 302/302/302 314/314/314
f 302/302/302 315/315/315 314/314/314
f 302/302/302 303/303/303 315/315/315
f 303/303/303 316/316/316 315/315/315
f 303/303/303 304/304/304 316/316/316
f 304/304/304 317/317/317 316/316/316
f 305/305/305 306/306/306 318/318/318
f 306/306/306 319/319/319 318/318/318
f 306/306/306 307/307/307 319/319/319
f 307/307/307 320/320/320 319/319/319
f 307/307/307 308/308/308 320/320/320
f 308/308/308 321/321/321 320/320/320
f 308/308/308 309/309/309 321/321/321
f 309/309/309 322/322/322 321/321/321
f 309/309/309 310/310/310 322/322/322
f 310/310/310 323/323/323 322/322/322
f 310/310/310 311/311/311 323/323/323
f 311/311/311 324/324/324 323/323/323
f 311/311/311 312/312/312 324/324/324
f 312/312/312 325/325/325 324/324/324
f 312/312/312 313/313/313 325/325/325
f 313/313/313 326/326/326 325/325/325
f 313/313/313 314/314/314 326/326/326
f 314/314/314 327/327/327 326/326/326
f 314/314/314 315/315/315 327/327/327
f 315/315/315 328/328/328 327/327/327
f 315/315/315 316/316/316 328/328/328
f 316/316/316 329/329/329 328/328/328
f 316/316/316 317/317/317 329/329/329
f 317/317/317 330/330/330 329/329/329
f 318/318/318 319/319/319 331/331/331
f 319/319/319 332/332/332 331/331/331
f 319/319/319 320/320/320 332/332/332
f 320/320/320 333/333/333 332/332/332
f 320/320/320 321/321/321 333/333/333
f 321/321/321 334/334/334 333/333/333
f 321/321/321 322/322/322 334/334/334
f 322/322/322 335/335/335 334/334/334
f 322/322/322 323/323/323 335/335/335
f 323/323/323 336/336/336 335/335/335
f 323/323/323 324/324/324 336/336/336
f 324/324/324 337/337/337 336/336/336
f 324/324/324 325/325/325 337/337/337
f 325/325/325 338/338/338 337/337/337
f 325/325/325 326/326/326 338/338/338
f 326/326/326 339/339/339 338/338/338
f 326/326/326 327/327/327 339/339/339
f 327/327/327 340/340/340 339/339/339
f 327/327/327 328/328/328 340/340/340
f 328/328/328 341/341/341 340/340/340
f 328/328/328 329/329/329 341/341/341
f 329/329/329 342/342/342 341/341/341
f 329/329/329 330/330/330 342/342/342
f 330/330/330 343/343/343 342/342/342
f 331/331/331 332/332/332 344/344/344
f 332/332/332 345/345/345 344/344/344
f 332/332/332 333/333/333 345/345/345
f 333/333/333 346/346/346 345/345/345
f 333/333/333 334/334/334 346/346/346
f 334/334/334 347/347/347 346/346/346
f 334/334/334 335/335/335 347/347/347
f 335/335/335 348/348/348 347/347/347
f 335/335/335 336/336/336 348/348/348
f 336/336/336 349/349/349 348/348/348
f 336/336/336 337/337/337 349/349/349
f 337/337/337 350/350/350 349/349/349
f 337/337/337 338/338/338 350/350/350
f 338/338/338 351/351/351 350/350/350
f 338/338/338 339/339/339 351/351/351
f 339/339/339 352/352/352 351/351/351
f 339/339/339 340/340/340 352/352/352
f 340/340/340 353/353/353 352/352/352
f 340/340/340 341/341/341 353/353/353
f 341/341/341 354/354/354 353/353/353
f 341/341/341 342/342/342 354/354/354
f 342/342/342 355/355/355 354/354/354
f 342/342/342 343/343/343 355/355/355
f 343/343/343 356/356/356 355/355/355
f 344/344/344 345/345/345 357/357/357
f 345/345/345 358/358/358 357/357/357
f 345/345/345 346/346/346 358/358/358
f 346/346/346 359/359/359 358/358/358
f 346/346/346 347/347/347 359/359/359
f 347/347/347 360/360/360 359/359/359
f 347/347/347 348/348/348 360/360/360
f 348/348/348 361/361/361 360/360/360
f 348/348/348 349/349/349 361/361/361
f 349/349/349 362/362/362 361/361/361
f 349/349/349 350/350/350 362/362/362
f 350/350/350 363/363/363 362/362/362
f 350/350/350 351/351/351 363/363/363
f 351/351/351 364/364/364 363/363/363
f 351/351/351 352/352/352 364/364/364
f 352/352/352 365/365/365 364/364/364
f 352/352/352 353/353/353 365/365/365
f 353/353/353 366/366/366 365/365/365
f 353/353/353 354/354/354 366/366/366
f 354/354/354 367/367/367 366/366/366
f 354/354/354 355/355/355 367/367/367
f 355/355/355 368/368/368 367/367/367
f 355/355/355 356/356/356 368/368/368
f 356/356/356 369/369/369 368/368/368
f 357/357/357 358/358/358 370/370/370
f 358/358/358 371/371/371 370/370/370
f 358/358/358 359/359/359 371/371/371
f 359/359/359 372/372/372 371/371/371
f 359/359/359 360/360/360 372/372/372
f 360/360/360 373/373/373 372/372/372
f 360/360/360 361/361/361 373/373/373
f 361/361/361 374/374/374 373/373/373
f 361/361/361 362/362/362 374/374/374
f 362/362/362 375/375/375 374/374/374
f 362/362/362 363/363/363 375/375/375
f 363/363/363 376/376/376 375/375/375
f 363/363/363 364/364/364 376/376/376
f 364/364/364 377/377/377 376/376/376
f 364/364/364 365/365/365 377/377/377
f 365/365/365 378/378/378 377/377/377
f 365/365/365 366/366/366 378/378/378
f 366/366/366 379/379/379 378/378/378
f 366/366/366 367/367/367 379/379/379
f 367/367/367 380/380/380 379/379/379
f 367/367/367 368/368/368 380/380/380
f 368/368/368 381/381/381 380/380/380
f 368/368/368 369/369/369 381/381/381
f 369/369/369 382/382/382 381/381/381
f 370/370/370 371/371/371 383/383/383
f 371/371/371 384/384/384 383/383/383
f 371/371/371 372/372/372 384/384/384
f 372/372/372 385/385/385 384/384/384
f 372/372/372 373/373/373 385/385/385
f 373/373/373 386/386/386 385/385/385
f 373/373/373 374/374/374 386/386/386
f 374/374/374 387/387/387 386/386/386
f 374/374/374 375/375/375 387/387/387
f 375/375/375 388/388/388 387/387/387
f 375/375/375 376/376/376 388/388/388
f 376/376/376 389/389/389 388/388/388
f 376/376/376 377/377/377 389/389/389
f 377/377/377 390/390/390 389/389/389
f 377/377/377 378/378/378 390/390/390
f 378/378/378 391/391/391 390/390/390
f 378/378/378 379/379/379 391/391/391
f 379/379/379 392/392/392 391/391/391
f 379/379/379 380/380/380 392/392/392
f 380/380/380 393/393/393 392/392/392
f 380/380/380 381/381/381 393/393/393
f 381/381/381 394/394/394 393/393/393
f 381/381/381 382/382/382 394/394/394
f 382/382/382 395/395/395 394/394/394
f 383/383/383 384/384/384 396/396/396
f 384/384/384 397/397/397 396/396/396
f 384/384/384 385/385/385 397/397/397
f 385/385/385 398/398/398 397/397/397
f 385/385/385 386/386/386 398/398/398
f 386/386/386 399/399/399 398/398/398
f 386/386/386 387/387/387 399/399/399
f 387/387/387 400/400/400 399/399/399
f 387/387/387 388/388/388 400/400/400
f 388/388/388 401/401/401 400/400/400
f 388/388/388 389/389/389 401/401/401
f 389/389/389 402/402/402 401/401/401
f 389/389/389 390/390/390 402/402/402
f 390/390/390 403/403/403 402/402/402
f 390/390/390 391/391/391 403/403/403
f 391/391/391 404/404/404 403/403/403
f 391/391/391 392/392/392 404/404/404
f 392/392/392 405/405/405 404/404/404
f 392/392/392 393/393/393 405/405/405
f 393/393/393 406/406/406 405/405/405
f 393/393/393 394/394/394 406/406/406
f 394/394/394 407/407/407 406/406/406
f 394/394/394 395/395/395 407/407/407
f 395/395/395 408/408/408 407/407/407
f 396/396/396 397/397/397 409/409/409
f 397/397/397 410/410/410 409/409/409
f 397/397/397 398/398/398 410/410/410
f 398/398/398 411/411/411 410/410/410
f 398/398/398 399/399/399 411/411/411
f 399/399/399 412/412/412 411/411/411
f 399/399/399 400/400/400 412/412/412
f 400/400/400 413/413/413 412/412/412
f 400/400/400 401/401/401 413/413/413
f 401/401/401 414/414/414 413/413/413
f 401/401/401 402/402/402 414/414/414
f 402/402/402 415/415/415 414/414/414
f 402/402/402 403/403/403 415/415/415
f 403/403/403 416/416/416 415/415/415
f 403/403/403 404/404/404 416/416/416
f 404/404/404 417/417/417 416/416/416
f 404/404/404 405/405/405 417/417/417
f 405/405/405 418/418/418 417/417/417
f 405/405/405 406/406/406 418/418/418
f 406/406/406 419/419/419 418/418/418
f 406/406/406 407/407/407 419/419/419
f 407/407/407 420/420/420 419/419/419
f 407/407/407 408/408/408 420/420/420
f 408/408/408 421/421/421 420/420/420
f 409/409/409 410/410/410 422/422/422
f 410/410/410 423/423/423 422/422/422
f 410/410/410 411/411/411 423/423/423
f 411/411/411 424/424/424 423/423/423
f 411/411/411 412/412/412 424/424/424
f 412/412/412 425/425/425 424/424/424
f 412/412/412 413/413/413 425/425/425
f 413/413/413 426/426/426 425/425/425
f 413/413/413 414/414/414 426/426/426
f 414/414/414 427/427/427 426/426/426
f 414/414/414 415/415/415 427/427/427
f 415/415/415 428/428/428 427/427/427
f 415/415/415 416/416/416 428/428/428
f 416/416/416 429/429/429 428/428/428
f 416/416/416 417/417/417 429/429/429
f 417/417/417 430/430/430 429/429/429
f 417/417/417 418/418/418 430/430/430
f 418/418/418 431/431/431 430/430/430
f 418/418/418 419/419/419 431/431/431
f 419/419/419 432/432/432 431/431/431
f 419/419/419 420/420/420 432/432/432
f 420/420/420 433/433/433 432/432/432
f 420/420/420 421/421/421 433/433/433
f 421/421/421 434/434/434 433/433/433
f 422/422/422 423/423/423 435/435/435
f 423/423/423 436/436/436 435/435/435
f 423/423/423 424/424/424 436/436/436
f 424/424/424 437/437/437 436/436/436
f 424/424/424 425/425/425 437/437/437
f 425/425/425 438/438/438 437/437/437
f 425/425/425 426/426/426 438/438/438
f 426/426/426 439/439/439 438/438/438
f 426/426/426 427/427/427 439/439/439
f 427/427/427 440/440/440 439/439/439
f 427/427/427 428/428/428 440/440/440
f 428/428/428 441/441/441 440/440/440
f 428/428/428 429/429/429 441/441/441
f 429/429/429 442/442/442 441/441/441
f 429/429/429 430/430/430 442/442/442
f 430/430/430 443/443/443 442/442/442
f 430/430/430 431/431/431 443/443/443
f 431/431/431 444/444/444 443/443/443
f 431/431/431 432/432/432 444/444/444
f 432/432/432 445/445/445 444/444/444
f 432/432/432 433/433/433 445/445/445
f 433/433/433 446/446/446 445/445/445
f 433/433/433 434/434/434 446/446/446
f 434/434/434 447/447/447 446/446/446
f 435/435/435 436/436/436 448/448/448
f 436/436/436 437/437/437 448/448/448
f 437/437/437 438/438/438 448/448/448
f 438/438/438 439/439/439 448/448/448
f 439/439/439 440/440/440 448/448/448
f 440/440/440 441/441/441 448/448/448
f 441/441/441 442/442/442 448/448/448
f 442/442/442 443/443/443 448/448/448
f 443/443/443 444/444/444 448/448/448
f 444/444/444 445/445/445 448/448/448
f 445/445/445 446/446/446 448/448/448
f 446/446/446 447/447/447 448/448/448
