# generated by generate_assets.py
mtllib desert.mtl
o cactus_a
v 0.20330 -0.05000 0.00000
v 0.16325 -0.05000 -0.06762
v 0.14375 -0.05000 -0.14375
v 0.06762 -0.05000 -0.16325
v 0.00000 -0.05000 -0.20330
v -0.06762 -0.05000 -0.16325
v -0.14375 -0.05000 -0.14375
v -0.16325 -0.05000 -0.06762
v -0.20330 -0.05000 -0.00000
v -0.16325 -0.05000 0.06762
v -0.14375 -0.05000 0.14375
v -0.06762 -0.05000 0.16325
v -0.00000 -0.05000 0.20330
v 0.06762 -0.05000 0.16325
v 0.14375 -0.05000 0.14375
v 0.16325 -0.05000 0.06762
v 0.20330 -0.05000 0.00000
v 0.20329 0.15421 0.00000
v 0.16324 0.15421 -0.06762
v 0.14374 0.15421 -0.14374
v 0.06762 0.15421 -0.16324
v 0.00000 0.15421 -0.20329
v -0.06762 0.15421 -0.16324
v -0.14374 0.15421 -0.14374
v -0.16324 0.15421 -0.06762
v -0.20329 0.15421 -0.00000
v -0.16324 0.15421 0.06762
v -0.14374 0.15421 0.14374
v -0.06762 0.15421 0.16324
v -0.00000 0.15421 0.20329
v 0.06762 0.15421 0.16324
v 0.14374 0.15421 0.14374
v 0.16324 0.15421 0.06762
v 0.20329 0.15421 0.00000
v 0.20319 0.35842 0.00000
v 0.16316 0.35842 -0.06758
v 0.14368 0.35842 -0.14368
v 0.06758 0.35842 -0.16316
v 0.00000 0.35842 -0.20319
v -0.06758 0.35842 -0.16316
v -0.14368 0.35842 -0.14368
v -0.16316 0.35842 -0.06758
v -0.20319 0.35842 -0.00000
v -0.16316 0.35842 0.06758
v -0.14368 0.35842 0.14368
v -0.06758 0.35842 0.16316
v -0.00000 0.35842 0.20319
v 0.06758 0.35842 0.16316
v 0.14368 0.35842 0.14368
v 0.16316 0.35842 0.06758
v 0.20319 0.35842 0.00000
v 0.20293 0.56263 0.00000
v 0.16295 0.56263 -0.06750
v 0.14349 0.56263 -0.14349
v 0.06750 0.56263 -0.16295
v 0.00000 0.56263 -0.20293
v -0.06750 0.56263 -0.16295
v -0.14349 0.56263 -0.14349
v -0.16295 0.56263 -0.06750
v -0.20293 0.56263 -0.00000
v -0.16295 0.56263 0.06750
v -0.14349 0.56263 0.14349
v -0.06750 0.56263 0.16295
v -0.00000 0.56263 0.20293
v 0.06750 0.56263 0.16295
v 0.14349 0.56263 0.14349
v 0.16295 0.56263 0.06750
v 0.20293 0.56263 0.00000
v 0.20241 0.76684 0.00000
v 0.16254 0.76684 -0.06732
v 0.14313 0.76684 -0.14313
v 0.06732 0.76684 -0.16254
v 0.00000 0.76684 -0.20241
v -0.06732 0.76684 -0.16254
v -0.14313 0.76684 -0.14313
v -0.16254 0.76684 -0.06732
v -0.20241 0.76684 -0.00000
v -0.16254 0.76684 0.06732
v -0.14313 0.76684 0.14313
v -0.06732 0.76684 0.16254
v -0.00000 0.76684 0.20241
v 0.06732 0.76684 0.16254
v 0.14313 0.76684 0.14313
v 0.16254 0.76684 0.06732
v 0.20241 0.76684 0.00000
v 0.20156 0.97105 0.00000
v 0.16186 0.97105 -0.06704
v 0.14253 0.97105 -0.14253
v 0.06704 0.97105 -0.16186
v 0.00000 0.97105 -0.20156
v -0.06704 0.97105 -0.16186
v -0.14253 0.97105 -0.14253
v -0.16186 0.97105 -0.06704
v -0.20156 0.97105 -0.00000
v -0.16186 0.97105 0.06704
v -0.14253 0.97105 0.14253
v -0.06704 0.97105 0.16186
v -0.00000 0.97105 0.20156
v 0.06704 0.97105 0.16186
v 0.14253 0.97105 0.14253
v 0.16186 0.97105 0.06704
v 0.20156 0.97105 0.00000
v 0.20030 1.17526 0.00000
v 0.16084 1.17526 -0.06662
v 0.14163 1.17526 -0.14163
v 0.06662 1.17526 -0.16084
v 0.00000 1.17526 -0.20030
v -0.06662 1.17526 -0.16084
v -0.14163 1.17526 -0.14163
v -0.16084 1.17526 -0.06662
v -0.20030 1.17526 -0.00000
v -0.16084 1.17526 0.06662
v -0.14163 1.17526 0.14163
v -0.06662 1.17526 0.16084
v -0.00000 1.17526 0.20030
v 0.06662 1.17526 0.16084
v 0.14163 1.17526 0.14163
v 0.16084 1.17526 0.06662
v 0.20030 1.17526 0.00000
v 0.19854 1.37947 0.00000
v 0.15943 1.37947 -0.06604
v 0.14039 1.37947 -0.14039
v 0.06604 1.37947 -0.15943
v 0.00000 1.37947 -0.19854
v -0.06604 1.37947 -0.15943
v -0.14039 1.37947 -0.14039
v -0.15943 1.37947 -0.06604
v -0.19854 1.37947 -0.00000
v -0.15943 1.37947 0.06604
v -0.14039 1.37947 0.14039
v -0.06604 1.37947 0.15943
v -0.00000 1.37947 0.19854
v 0.06604 1.37947 0.15943
v 0.14039 1.37947 0.14039
v 0.15943 1.37947 0.06604
v 0.19854 1.37947 0.00000
v 0.19619 1.58368 0.00000
v 0.15754 1.58368 -0.06526
v 0.13873 1.58368 -0.13873
v 0.06526 1.58368 -0.15754
v 0.00000 1.58368 -0.19619
v -0.06526 1.58368 -0.15754
v -0.13873 1.58368 -0.13873
v -0.15754 1.58368 -0.06526
v -0.19619 1.58368 -0.00000
v -0.15754 1.58368 0.06526
v -0.13873 1.58368 0.13873
v -0.06526 1.58368 0.15754
v -0.00000 1.58368 0.19619
v 0.06526 1.58368 0.15754
v 0.13873 1.58368 0.13873
v 0.15754 1.58368 0.06526
v 0.19619 1.58368 0.00000
v 0.19318 1.78789 0.00000
v 0.15512 1.78789 -0.06425
v 0.13660 1.78789 -0.13660
v 0.06425 1.78789 -0.15512
v 0.00000 1.78789 -0.19318
v -0.06425 1.78789 -0.15512
v -0.13660 1.78789 -0.13660
v -0.15512 1.78789 -0.06425
v -0.19318 1.78789 -0.00000
v -0.15512 1.78789 0.06425
v -0.13660 1.78789 0.13660
v -0.06425 1.78789 0.15512
v -0.00000 1.78789 0.19318
v 0.06425 1.78789 0.15512
v 0.13660 1.78789 0.13660
v 0.15512 1.78789 0.06425
v 0.19318 1.78789 0.00000
v 0.18942 1.99210 0.00000
v 0.15210 1.99210 -0.06300
v 0.13394 1.99210 -0.13394
v 0.06300 1.99210 -0.15210
v 0.00000 1.99210 -0.18942
v -0.06300 1.99210 -0.15210
v -0.13394 1.99210 -0.13394
v -0.15210 1.99210 -0.06300
v -0.18942 1.99210 -0.00000
v -0.15210 1.99210 0.06300
v -0.13394 1.99210 0.13394
v -0.06300 1.99210 0.15210
v -0.00000 1.99210 0.18942
v 0.06300 1.99210 0.15210
v 0.13394 1.99210 0.13394
v 0.15210 1.99210 0.06300
v 0.18942 1.99210 0.00000
v 0.18483 2.19631 0.00000
v 0.14841 2.19631 -0.06148
v 0.13069 2.19631 -0.13069
v 0.06148 2.19631 -0.14841
v 0.00000 2.19631 -0.18483
v -0.06148 2.19631 -0.14841
v -0.13069 2.19631 -0.13069
v -0.14841 2.19631 -0.06148
v -0.18483 2.19631 -0.00000
v -0.14841 2.19631 0.06148
v -0.13069 2.19631 0.13069
v -0.06148 2.19631 0.14841
v -0.00000 2.19631 0.18483
v 0.06148 2.19631 0.14841
v 0.13069 2.19631 0.13069
v 0.14841 2.19631 0.06148
v 0.18483 2.19631 0.00000
v 0.17931 2.40052 0.00000
v 0.14399 2.40052 -0.05964
v 0.12679 2.40052 -0.12679
v 0.05964 2.40052 -0.14399
v 0.00000 2.40052 -0.17931
v -0.05964 2.40052 -0.14399
v -0.12679 2.40052 -0.12679
v -0.14399 2.40052 -0.05964
v -0.17931 2.40052 -0.00000
v -0.14399 2.40052 0.05964
v -0.12679 2.40052 0.12679
v -0.05964 2.40052 0.14399
v -0.00000 2.40052 0.17931
v 0.05964 2.40052 0.14399
v 0.12679 2.40052 0.12679
v 0.14399 2.40052 0.05964
v 0.17931 2.40052 0.00000
v 0.17281 2.60473 0.00000
v 0.13876 2.60473 -0.05748
v 0.12219 2.60473 -0.12219
v 0.05748 2.60473 -0.13876
v 0.00000 2.60473 -0.17281
v -0.05748 2.60473 -0.13876
v -0.12219 2.60473 -0.12219
v -0.13876 2.60473 -0.05748
v -0.17281 2.60473 -0.00000
v -0.13876 2.60473 0.05748
v -0.12219 2.60473 0.12219
v -0.05748 2.60473 0.13876
v -0.00000 2.60473 0.17281
v 0.05748 2.60473 0.13876
v 0.12219 2.60473 0.12219
v 0.13876 2.60473 0.05748
v 0.17281 2.60473 0.00000
v 0.00000 2.73393 0.00000
v 0.09774 0.77163 0.00000
v 0.09707 0.80337 -0.05580
v 0.09637 0.83581 -0.11120
v 0.09500 0.90000 -0.11160
v 0.09363 0.96419 -0.11120
v 0.09293 0.99663 -0.05580
v 0.09226 1.02837 -0.00000
v 0.09293 0.99663 0.05580
v 0.09363 0.96419 0.11120
v 0.09500 0.90000 0.11160
v 0.09637 0.83581 0.11120
v 0.09707 0.80337 0.05580
v 0.09774 0.77163 0.00000
v 0.20063 0.77387 0.00000
v 0.19919 0.80559 -0.05580
v 0.19770 0.83800 -0.11119
v 0.19477 0.90213 -0.11160
v 0.19184 0.96626 -0.11119
v 0.19036 0.99868 -0.05580
v 0.18891 1.03039 -0.00000
v 0.19036 0.99868 0.05580
v 0.19184 0.96626 0.11119
v 0.19477 0.90213 0.11160
v 0.19770 0.83800 0.11119
v 0.19919 0.80559 0.05580
v 0.20063 0.77387 0.00000
v 0.30619 0.78135 0.00000
v 0.30304 0.81293 -0.05578
v 0.29982 0.84521 -0.11116
v 0.29346 0.90907 -0.11156
v 0.28709 0.97293 -0.11116
v 0.28388 1.00520 -0.05578
v 0.28073 1.03679 -0.00000
v 0.28388 1.00520 0.05578
v 0.28709 0.97293 0.11116
v 0.29346 0.90907 0.11156
v 0.29982 0.84521 0.11116
v 0.30304 0.81293 0.05578
v 0.30619 0.78135 0.00000
v 0.41102 0.79507 0.00000
v 0.40584 0.82636 -0.05573
v 0.40055 0.85834 -0.11106
v 0.39009 0.92160 -0.11147
v 0.37963 0.98486 -0.11106
v 0.37434 1.01684 -0.05573
v 0.36916 1.04813 -0.00000
v 0.37434 1.01684 0.05573
v 0.37963 0.98486 0.11106
v 0.39009 0.92160 0.11147
v 0.40055 0.85834 0.11106
v 0.40584 0.82636 0.05573
v 0.41102 0.79507 0.00000
v 0.51428 0.81620 0.00000
v 0.50672 0.84695 -0.05564
v 0.49900 0.87837 -0.11088
v 0.48371 0.94053 -0.11128
v 0.46842 1.00270 -0.11088
v 0.46070 1.03412 -0.05564
v 0.45314 1.06486 -0.00000
v 0.46070 1.03412 0.05564
v 0.46842 1.00270 0.11088
v 0.48371 0.94053 0.11128
v 0.49900 0.87837 0.11088
v 0.50672 0.84695 0.05564
v 0.51428 0.81620 0.00000
v 0.61507 0.84599 0.00000
v 0.60475 0.87583 -0.05549
v 0.59421 0.90633 -0.11058
v 0.57336 0.96667 -0.11098
v 0.55250 1.02701 -0.11058
v 0.54196 1.05751 -0.05549
v 0.53165 1.08735 -0.00000
v 0.54196 1.05751 0.05549
v 0.55250 1.02701 0.11058
v 0.57336 0.96667 0.11098
v 0.59421 0.90633 0.11058
v 0.60475 0.87583 0.05549
v 0.61507 0.84599 0.00000
v 0.71228 0.88577 0.00000
v 0.69888 0.91421 -0.05526
v 0.68518 0.94328 -0.11013
v 0.65807 1.00080 -0.11053
v 0.63097 1.05832 -0.11013
v 0.61727 1.08739 -0.05526
v 0.60386 1.11583 -0.00000
v 0.61727 1.08739 0.05526
v 0.63097 1.05832 0.11013
v 0.65807 1.00080 0.11053
v 0.68518 0.94328 0.11013
v 0.69888 0.91421 0.05526
v 0.71228 0.88577 0.00000
v 0.80453 0.93690 0.00000
v 0.78781 0.96332 -0.05495
v 0.77071 0.99032 -0.10950
v 0.73690 1.04373 -0.10990
v 0.70308 1.09715 -0.10950
v 0.68598 1.12415 -0.05495
v 0.66926 1.15057 -0.00000
v 0.68598 1.12415 0.05495
v 0.70308 1.09715 0.10950
v 0.73690 1.04373 0.10990
v 0.77071 0.99032 0.10950
v 0.78781 0.96332 0.05495
v 0.80453 0.93690 0.00000
v 0.89003 1.00058 0.00000
v 0.86996 1.02424 -0.05453
v 0.84945 1.04842 -0.10867
v 0.80886 1.09627 -0.10906
v 0.76828 1.14411 -0.10867
v 0.74777 1.16829 -0.05453
v 0.72770 1.19196 -0.00000
v 0.74777 1.16829 0.05453
v 0.76828 1.14411 0.10867
v 0.80886 1.09627 0.10906
v 0.84945 1.04842 0.10867
v 0.86996 1.02424 0.05453
v 0.89003 1.00058 0.00000
v 0.96665 1.07754 0.00000
v 0.94350 1.09773 -0.05399
v 0.91984 1.11837 -0.10759
v 0.87302 1.15920 -0.10798
v 0.82620 1.20003 -0.10759
v 0.80254 1.22067 -0.05399
v 0.77939 1.24086 -0.00000
v 0.80254 1.22067 0.05399
v 0.82620 1.20003 0.10759
v 0.87302 1.15920 0.10798
v 0.91984 1.11837 0.10759
v 0.94350 1.09773 0.05399
v 0.96665 1.07754 0.00000
v 1.03219 1.16790 0.00000
v 1.00653 1.18408 -0.05332
v 0.98030 1.20062 -0.10626
v 0.92840 1.23333 -0.10664
v 0.87651 1.26605 -0.10626
v 0.85028 1.28258 -0.05332
v 0.82461 1.29876 -0.00000
v 0.85028 1.28258 0.05332
v 0.87651 1.26605 0.10626
v 0.92840 1.23333 0.10664
v 0.98030 1.20062 0.10626
v 1.00653 1.18408 0.05332
v 1.03219 1.16790 0.00000
v 1.08481 1.27123 0.00000
v 1.05742 1.28316 -0.05250
v 1.02943 1.29535 -0.10462
v 0.97405 1.31947 -0.10500
v 0.91867 1.34359 -0.10462
v 0.89068 1.35578 -0.05250
v 0.86329 1.36770 -0.00000
v 0.89068 1.35578 0.05250
v 0.91867 1.34359 0.10462
v 0.97405 1.31947 0.10500
v 1.02943 1.29535 0.10462
v 1.05742 1.28316 0.05250
v 1.08481 1.27123 0.00000
v 1.12329 1.38692 0.00000
v 1.09502 1.39470 -0.05151
v 1.06614 1.40266 -0.10266
v 1.00900 1.41840 -0.10303
v 0.95186 1.43414 -0.10266
v 0.92298 1.44210 -0.05151
v 0.89472 1.44988 -0.00000
v 0.92298 1.44210 0.05151
v 0.95186 1.43414 0.10266
v 1.00900 1.41840 0.10303
v 1.06614 1.40266 0.10266
v 1.09502 1.39470 0.05151
v 1.12329 1.38692 0.00000
v 1.14701 1.51465 0.00000
v 1.11865 1.51868 -0.05035
v 1.08966 1.52279 -0.10034
v 1.03230 1.53093 -0.10070
v 0.97494 1.53907 -0.10034
v 0.94596 1.54319 -0.05035
v 0.91759 1.54721 -0.00000
v 0.94596 1.54319 0.05035
v 0.97494 1.53907 0.10034
v 1.03230 1.53093 0.10070
v 1.08966 1.52279 0.10034
v 1.11865 1.51868 0.05035
v 1.14701 1.51465 0.00000
v 1.15568 1.65460 0.00000
v 1.12781 1.65541 -0.04899
v 1.09933 1.65624 -0.09764
v 1.04298 1.65787 -0.09799
v 0.98664 1.65950 -0.09764
v 0.95816 1.66032 -0.04899
v 0.93029 1.66113 -0.00000
v 0.95816 1.66032 0.04899
v 0.98664 1.65950 0.09764
v 1.04298 1.65787 0.09799
v 1.09933 1.65624 0.09764
v 1.12781 1.65541 0.04899
v 1.15568 1.65460 0.00000
v 1.14921 1.80222 0.00000
v 1.12223 1.80167 -0.04743
v 1.09465 1.80111 -0.09452
v 1.04009 1.80000 -0.09486
v 0.98553 1.79889 -0.09452
v 0.95796 1.79833 -0.04743
v 0.93098 1.79778 -0.00000
v 0.95796 1.79833 0.04743
v 0.98553 1.79889 0.09452
v 1.04009 1.80000 0.09486
v 1.09465 1.80111 0.09452
v 1.12223 1.80167 0.04743
v 1.14921 1.80222 0.00000
v 1.03843 1.88158 0.00000
v -0.09228 1.62837 0.00000
v -0.09295 1.59663 -0.05580
v -0.09364 1.56419 -0.11120
v -0.09500 1.50000 -0.11160
v -0.09636 1.43581 -0.11120
v -0.09705 1.40337 -0.05580
v -0.09772 1.37163 -0.00000
v -0.09705 1.40337 0.05580
v -0.09636 1.43581 0.11120
v -0.09500 1.50000 0.11160
v -0.09364 1.56419 0.11120
v -0.09295 1.59663 0.05580
v -0.09228 1.62837 0.00000
v -0.18694 1.63034 0.00000
v -0.18837 1.59862 -0.05580
v -0.18983 1.56621 -0.11119
v -0.19272 1.50207 -0.11160
v -0.19561 1.43794 -0.11119
v -0.19707 1.40553 -0.05580
v -0.19850 1.37381 -0.00000
v -0.19707 1.40553 0.05580
v -0.19561 1.43794 0.11119
v -0.19272 1.50207 0.11160
v -0.18983 1.56621 0.11119
v -0.18837 1.59862 0.05580
v -0.18694 1.63034 0.00000
v -0.27294 1.63632 0.00000
v -0.27608 1.60473 -0.05578
v -0.27928 1.57246 -0.11116
v -0.28562 1.50859 -0.11156
v -0.29196 1.44473 -0.11116
v -0.29516 1.41245 -0.05578
v -0.29830 1.38087 -0.00000
v -0.29516 1.41245 0.05578
v -0.29196 1.44473 0.11116
v -0.28562 1.50859 0.11156
v -0.27928 1.57246 0.11116
v -0.27608 1.60473 0.05578
v -0.27294 1.63632 0.00000
v -0.35235 1.64652 0.00000
v -0.35753 1.61523 -0.05573
v -0.36283 1.58326 -0.11106
v -0.37332 1.52000 -0.11147
v -0.38381 1.45674 -0.11106
v -0.38911 1.42477 -0.05573
v -0.39429 1.39348 -0.00000
v -0.38911 1.42477 0.05573
v -0.38381 1.45674 0.11106
v -0.37332 1.52000 0.11147
v -0.36283 1.58326 0.11106
v -0.35753 1.61523 0.05573
v -0.35235 1.64652 0.00000
v -0.42459 1.66101 0.00000
v -0.43222 1.63028 -0.05564
v -0.44001 1.59887 -0.11088
v -0.45542 1.53674 -0.11128
v -0.47084 1.47461 -0.11088
v -0.47863 1.44320 -0.05564
v -0.48626 1.41247 -0.00000
v -0.47863 1.44320 0.05564
v -0.47084 1.47461 0.11088
v -0.45542 1.53674 0.11128
v -0.44001 1.59887 0.11088
v -0.43222 1.63028 0.05564
v -0.42459 1.66101 0.00000
v -0.48922 1.67973 0.00000
v -0.49969 1.64994 -0.05549
v -0.51039 1.61949 -0.11058
v -0.53155 1.55926 -0.11098
v -0.55271 1.49903 -0.11058
v -0.56341 1.46858 -0.05549
v -0.57388 1.43879 -0.00000
v -0.56341 1.46858 0.05549
v -0.55271 1.49903 0.11058
v -0.53155 1.55926 0.11098
v -0.51039 1.61949 0.11058
v -0.49969 1.64994 0.05549
v -0.48922 1.67973 0.00000
v -0.54599 1.70250 0.00000
v -0.55967 1.67419 -0.05526
v -0.57365 1.64525 -0.11013
v -0.60131 1.58800 -0.11053
v -0.62897 1.53075 -0.11013
v -0.64295 1.50181 -0.05526
v -0.65663 1.47350 -0.00000
v -0.64295 1.50181 0.05526
v -0.62897 1.53075 0.11013
v -0.60131 1.58800 0.11053
v -0.57365 1.64525 0.11013
v -0.55967 1.67419 0.05526
v -0.54599 1.70250 0.00000
v -0.59500 1.72915 0.00000
v -0.61214 1.70300 -0.05495
v -0.62966 1.67628 -0.10950
v -0.66432 1.62341 -0.10990
v -0.69898 1.57053 -0.10950
v -0.71649 1.54381 -0.05495
v -0.73364 1.51766 -0.00000
v -0.71649 1.54381 0.05495
v -0.69898 1.57053 0.10950
v -0.66432 1.62341 0.10990
v -0.62966 1.67628 0.10950
v -0.61214 1.70300 0.05495
v -0.59500 1.72915 0.00000
v -0.63684 1.75973 0.00000
v -0.65745 1.73653 -0.05453
v -0.67851 1.71283 -0.10867
v -0.72018 1.66593 -0.10906
v -0.76186 1.61903 -0.10867
v -0.78292 1.59532 -0.05453
v -0.80353 1.57213 -0.00000
v -0.78292 1.59532 0.05453
v -0.76186 1.61903 0.10867
v -0.72018 1.66593 0.10906
v -0.67851 1.71283 0.10867
v -0.65745 1.73653 0.05453
v -0.63684 1.75973 0.00000
v -0.67249 1.79482 0.00000
v -0.69624 1.77533 -0.05399
v -0.72051 1.75541 -0.10759
v -0.76852 1.71600 -0.10798
v -0.81654 1.67659 -0.10759
v -0.84081 1.65667 -0.05399
v -0.86456 1.63718 -0.00000
v -0.84081 1.65667 0.05399
v -0.81654 1.67659 0.10759
v -0.76852 1.71600 0.10798
v -0.72051 1.75541 0.10759
v -0.69624 1.77533 0.05399
v -0.67249 1.79482 0.00000
v -0.70292 1.83582 0.00000
v -0.72914 1.82055 -0.05332
v -0.75594 1.80494 -0.10626
v -0.80895 1.77407 -0.10664
v -0.86196 1.74320 -0.10626
v -0.88876 1.72760 -0.05332
v -0.91498 1.71233 -0.00000
v -0.88876 1.72760 0.05332
v -0.86196 1.74320 0.10626
v -0.80895 1.77407 0.10664
v -0.75594 1.80494 0.10626
v -0.72914 1.82055 0.05332
v -0.70292 1.83582 0.00000
v -0.72858 1.88463 0.00000
v -0.75640 1.87374 -0.05250
v -0.78483 1.86261 -0.10462
v -0.84108 1.84059 -0.10500
v -0.89732 1.81857 -0.10462
v -0.92575 1.80744 -0.05250
v -0.95357 1.79655 -0.00000
v -0.92575 1.80744 0.05250
v -0.89732 1.81857 0.10462
v -0.84108 1.84059 0.10500
v -0.78483 1.86261 0.10462
v -0.75640 1.87374 0.05250
v -0.72858 1.88463 0.00000
v -0.74914 1.94323 0.00000
v -0.77767 1.93650 -0.05151
v -0.80683 1.92962 -0.10266
v -0.86451 1.91600 -0.10303
v -0.92220 1.90238 -0.10266
v -0.95135 1.89550 -0.05151
v -0.97988 1.88877 -0.00000
v -0.95135 1.89550 0.05151
v -0.92220 1.90238 0.10266
v -0.86451 1.91600 0.10303
v -0.80683 1.92962 0.10266
v -0.77767 1.93650 0.05151
v -0.74914 1.94323 0.00000
v -0.76368 2.01312 0.00000
v -0.79216 2.01006 -0.05035
v -0.82128 2.00693 -0.10034
v -0.87888 2.00074 -0.10070
v -0.93648 1.99455 -0.10034
v -0.96559 1.99142 -0.05035
v -0.99408 1.98836 -0.00000
v -0.96559 1.99142 0.05035
v -0.93648 1.99455 0.10034
v -0.87888 2.00074 0.10070
v -0.82128 2.00693 0.10034
v -0.79216 2.01006 0.05035
v -0.76368 2.01312 0.00000
v -0.77104 2.09523 0.00000
v -0.79892 2.09524 -0.04899
v -0.82741 2.09525 -0.09764
v -0.88378 2.09526 -0.09799
v -0.94015 2.09527 -0.09764
v -0.96864 2.09528 -0.04899
v -0.99652 2.09528 -0.00000
v -0.96864 2.09528 0.04899
v -0.94015 2.09527 0.09764
v -0.88378 2.09526 0.09799
v -0.82741 2.09525 0.09764
v -0.79892 2.09524 0.04899
v -0.77104 2.09523 0.00000
v -0.76981 2.19485 0.00000
v -0.79677 2.19612 -0.04743
v -0.82432 2.19743 -0.09452
v -0.87883 2.20000 -0.09486
v -0.93334 2.20257 -0.09452
v -0.96089 2.20388 -0.04743
v -0.98785 2.20515 -0.00000
v -0.96089 2.20388 0.04743
v -0.93334 2.20257 0.09452
v -0.87883 2.20000 0.09486
v -0.82432 2.19743 0.09452
v -0.79677 2.19612 0.04743
v -0.76981 2.19485 0.00000
v -0.87498 2.28151 0.00000
vt 0.00000 0.00000
vt 0.06250 0.00000
vt 0.12500 0.00000
vt 0.18750 0.00000
vt 0.25000 0.00000
vt 0.31250 0.00000
vt 0.37500 0.00000
vt 0.43750 0.00000
vt 0.50000 0.00000
vt 0.56250 0.00000
vt 0.62500 0.00000
vt 0.68750 0.00000
vt 0.75000 0.00000
vt 0.81250 0.00000
vt 0.87500 0.00000
vt 0.93750 0.00000
vt 1.00000 0.00000
vt 0.00000 0.12253
vt 0.06250 0.12253
vt 0.12500 0.12253
vt 0.18750 0.12253
vt 0.25000 0.12253
vt 0.31250 0.12253
vt 0.37500 0.12253
vt 0.43750 0.12253
vt 0.50000 0.12253
vt 0.56250 0.12253
vt 0.62500 0.12253
vt 0.68750 0.12253
vt 0.75000 0.12253
vt 0.81250 0.12253
vt 0.87500 0.12253
vt 0.93750 0.12253
vt 1.00000 0.12253
vt 0.00000 0.24505
vt 0.06250 0.24505
vt 0.12500 0.24505
vt 0.18750 0.24505
vt 0.25000 0.24505
vt 0.31250 0.24505
vt 0.37500 0.24505
vt 0.43750 0.24505
vt 0.50000 0.24505
vt 0.56250 0.24505
vt 0.62500 0.24505
vt 0.68750 0.24505
vt 0.75000 0.24505
vt 0.81250 0.24505
vt 0.87500 0.24505
vt 0.93750 0.24505
vt 1.00000 0.24505
vt 0.00000 0.36758
vt 0.06250 0.36758
vt 0.12500 0.36758
vt 0.18750 0.36758
vt 0.25000 0.36758
vt 0.31250 0.36758
vt 0.37500 0.36758
vt 0.43750 0.36758
vt 0.50000 0.36758
vt 0.56250 0.36758
vt 0.62500 0.36758
vt 0.68750 0.36758
vt 0.75000 0.36758
vt 0.81250 0.36758
vt 0.87500 0.36758
vt 0.93750 0.36758
vt 1.00000 0.36758
vt 0.00000 0.49010
vt 0.06250 0.49010
vt 0.12500 0.49010
vt 0.18750 0.49010
vt 0.25000 0.49010
vt 0.31250 0.49010
vt 0.37500 0.49010
vt 0.43750 0.49010
vt 0.50000 0.49010
vt 0.56250 0.49010
vt 0.62500 0.49010
vt 0.68750 0.49010
vt 0.75000 0.49010
vt 0.81250 0.49010
vt 0.87500 0.49010
vt 0.93750 0.49010
vt 1.00000 0.49010
vt 0.00000 0.61263
vt 0.06250 0.61263
vt 0.12500 0.61263
vt 0.18750 0.61263
vt 0.25000 0.61263
vt 0.31250 0.61263
vt 0.37500 0.61263
vt 0.43750 0.61263
vt 0.50000 0.61263
vt 0.56250 0.61263
vt 0.62500 0.61263
vt 0.68750 0.61263
vt 0.75000 0.61263
vt 0.81250 0.61263
vt 0.87500 0.61263
vt 0.93750 0.61263
vt 1.00000 0.61263
vt 0.00000 0.73516
vt 0.06250 0.73516
vt 0.12500 0.73516
vt 0.18750 0.73516
vt 0.25000 0.73516
vt 0.31250 0.73516
vt 0.37500 0.73516
vt 0.43750 0.73516
vt 0.50000 0.73516
vt 0.56250 0.73516
vt 0.62500 0.73516
vt 0.68750 0.73516
vt 0.75000 0.73516
vt 0.81250 0.73516
vt 0.87500 0.73516
vt 0.93750 0.73516
vt 1.00000 0.73516
vt 0.00000 0.85768
vt 0.06250 0.85768
vt 0.12500 0.85768
vt 0.18750 0.85768
vt 0.25000 0.85768
vt 0.31250 0.85768
vt 0.37500 0.85768
vt 0.43750 0.85768
vt 0.50000 0.85768
vt 0.56250 0.85768
vt 0.62500 0.85768
vt 0.68750 0.85768
vt 0.75000 0.85768
vt 0.81250 0.85768
vt 0.87500 0.85768
vt 0.93750 0.85768
vt 1.00000 0.85768
vt 0.00000 0.98021
vt 0.06250 0.98021
vt 0.12500 0.98021
vt 0.18750 0.98021
vt 0.25000 0.98021
vt 0.31250 0.98021
vt 0.37500 0.98021
vt 0.43750 0.98021
vt 0.50000 0.98021
vt 0.56250 0.98021
vt 0.62500 0.98021
vt 0.68750 0.98021
vt 0.75000 0.98021
vt 0.81250 0.98021
vt 0.87500 0.98021
vt 0.93750 0.98021
vt 1.00000 0.98021
vt 0.00000 1.10273
vt 0.06250 1.10273
vt 0.12500 1.10273
vt 0.18750 1.10273
vt 0.25000 1.10273
vt 0.31250 1.10273
vt 0.37500 1.10273
vt 0.43750 1.10273
vt 0.50000 1.10273
vt 0.56250 1.10273
vt 0.62500 1.10273
vt 0.68750 1.10273
vt 0.75000 1.10273
vt 0.81250 1.10273
vt 0.87500 1.10273
vt 0.93750 1.10273
vt 1.00000 1.10273
vt 0.00000 1.22526
vt 0.06250 1.22526
vt 0.12500 1.22526
vt 0.18750 1.22526
vt 0.25000 1.22526
vt 0.31250 1.22526
vt 0.37500 1.22526
vt 0.43750 1.22526
vt 0.50000 1.22526
vt 0.56250 1.22526
vt 0.62500 1.22526
vt 0.68750 1.22526
vt 0.75000 1.22526
vt 0.81250 1.22526
vt 0.87500 1.22526
vt 0.93750 1.22526
vt 1.00000 1.22526
vt 0.00000 1.34779
vt 0.06250 1.34779
vt 0.12500 1.34779
vt 0.18750 1.34779
vt 0.25000 1.34779
vt 0.31250 1.34779
vt 0.37500 1.34779
vt 0.43750 1.34779
vt 0.50000 1.34779
vt 0.56250 1.34779
vt 0.62500 1.34779
vt 0.68750 1.34779
vt 0.75000 1.34779
vt 0.81250 1.34779
vt 0.87500 1.34779
vt 0.93750 1.34779
vt 1.00000 1.34779
vt 0.00000 1.47031
vt 0.06250 1.47031
vt 0.12500 1.47031
vt 0.18750 1.47031
vt 0.25000 1.47031
vt 0.31250 1.47031
vt 0.37500 1.47031
vt 0.43750 1.47031
vt 0.50000 1.47031
vt 0.56250 1.47031
vt 0.62500 1.47031
vt 0.68750 1.47031
vt 0.75000 1.47031
vt 0.81250 1.47031
vt 0.87500 1.47031
vt 0.93750 1.47031
vt 1.00000 1.47031
vt 0.00000 1.59284
vt 0.06250 1.59284
vt 0.12500 1.59284
vt 0.18750 1.59284
vt 0.25000 1.59284
vt 0.31250 1.59284
vt 0.37500 1.59284
vt 0.43750 1.59284
vt 0.50000 1.59284
vt 0.56250 1.59284
vt 0.62500 1.59284
vt 0.68750 1.59284
vt 0.75000 1.59284
vt 0.81250 1.59284
vt 0.87500 1.59284
vt 0.93750 1.59284
vt 1.00000 1.59284
vt 0.50000 1.59284
vt 0.00000 0.00000
vt 0.08333 0.00000
vt 0.16667 0.00000
vt 0.25000 0.00000
vt 0.33333 0.00000
vt 0.41667 0.00000
vt 0.50000 0.00000
vt 0.58333 0.00000
vt 0.66667 0.00000
vt 0.75000 0.00000
vt 0.83333 0.00000
vt 0.91667 0.00000
vt 1.00000 0.00000
vt 0.00000 0.05988
vt 0.08333 0.05988
vt 0.16667 0.05988
vt 0.25000 0.05988
vt 0.33333 0.05988
vt 0.41667 0.05988
vt 0.50000 0.05988
vt 0.58333 0.05988
vt 0.66667 0.05988
vt 0.75000 0.05988
vt 0.83333 0.05988
vt 0.91667 0.05988
vt 1.00000 0.05988
vt 0.00000 0.11923
vt 0.08333 0.11923
vt 0.16667 0.11923
vt 0.25000 0.11923
vt 0.33333 0.11923
vt 0.41667 0.11923
vt 0.50000 0.11923
vt 0.58333 0.11923
vt 0.66667 0.11923
vt 0.75000 0.11923
vt 0.83333 0.11923
vt 0.91667 0.11923
vt 1.00000 0.11923
vt 0.00000 0.17770
vt 0.08333 0.17770
vt 0.16667 0.17770
vt 0.25000 0.17770
vt 0.33333 0.17770
vt 0.41667 0.17770
vt 0.50000 0.17770
vt 0.58333 0.17770
vt 0.66667 0.17770
vt 0.75000 0.17770
vt 0.83333 0.17770
vt 0.91667 0.17770
vt 1.00000 0.17770
vt 0.00000 0.23501
vt 0.08333 0.23501
vt 0.16667 0.23501
vt 0.25000 0.23501
vt 0.33333 0.23501
vt 0.41667 0.23501
vt 0.50000 0.23501
vt 0.58333 0.23501
vt 0.66667 0.23501
vt 0.75000 0.23501
vt 0.83333 0.23501
vt 0.91667 0.23501
vt 1.00000 0.23501
vt 0.00000 0.29104
vt 0.08333 0.29104
vt 0.16667 0.29104
vt 0.25000 0.29104
vt 0.33333 0.29104
vt 0.41667 0.29104
vt 0.50000 0.29104
vt 0.58333 0.29104
vt 0.66667 0.29104
vt 0.75000 0.29104
vt 0.83333 0.29104
vt 0.91667 0.29104
vt 1.00000 0.29104
vt 0.00000 0.34584
vt 0.08333 0.34584
vt 0.16667 0.34584
vt 0.25000 0.34584
vt 0.33333 0.34584
vt 0.41667 0.34584
vt 0.50000 0.34584
vt 0.58333 0.34584
vt 0.66667 0.34584
vt 0.75000 0.34584
vt 0.83333 0.34584
vt 0.91667 0.34584
vt 1.00000 0.34584
vt 0.00000 0.39969
vt 0.08333 0.39969
vt 0.16667 0.39969
vt 0.25000 0.39969
vt 0.33333 0.39969
vt 0.41667 0.39969
vt 0.50000 0.39969
vt 0.58333 0.39969
vt 0.66667 0.39969
vt 0.75000 0.39969
vt 0.83333 0.39969
vt 0.91667 0.39969
vt 1.00000 0.39969
vt 0.00000 0.45315
vt 0.08333 0.45315
vt 0.16667 0.45315
vt 0.25000 0.45315
vt 0.33333 0.45315
vt 0.41667 0.45315
vt 0.50000 0.45315
vt 0.58333 0.45315
vt 0.66667 0.45315
vt 0.75000 0.45315
vt 0.83333 0.45315
vt 0.91667 0.45315
vt 1.00000 0.45315
vt 0.00000 0.50707
vt 0.08333 0.50707
vt 0.16667 0.50707
vt 0.25000 0.50707
vt 0.33333 0.50707
vt 0.41667 0.50707
vt 0.50000 0.50707
vt 0.58333 0.50707
vt 0.66667 0.50707
vt 0.75000 0.50707
vt 0.83333 0.50707
vt 0.91667 0.50707
vt 1.00000 0.50707
vt 0.00000 0.56259
vt 0.08333 0.56259
vt 0.16667 0.56259
vt 0.25000 0.56259
vt 0.33333 0.56259
vt 0.41667 0.56259
vt 0.50000 0.56259
vt 0.58333 0.56259
vt 0.66667 0.56259
vt 0.75000 0.56259
vt 0.83333 0.56259
vt 0.91667 0.56259
vt 1.00000 0.56259
vt 0.00000 0.62108
vt 0.08333 0.62108
vt 0.16667 0.62108
vt 0.25000 0.62108
vt 0.33333 0.62108
vt 0.41667 0.62108
vt 0.50000 0.62108
vt 0.58333 0.62108
vt 0.66667 0.62108
vt 0.75000 0.62108
vt 0.83333 0.62108
vt 0.91667 0.62108
vt 1.00000 0.62108
vt 0.00000 0.68404
vt 0.08333 0.68404
vt 0.16667 0.68404
vt 0.25000 0.68404
vt 0.33333 0.68404
vt 0.41667 0.68404
vt 0.50000 0.68404
vt 0.58333 0.68404
vt 0.66667 0.68404
vt 0.75000 0.68404
vt 0.83333 0.68404
vt 0.91667 0.68404
vt 1.00000 0.68404
vt 0.00000 0.75299
vt 0.08333 0.75299
vt 0.16667 0.75299
vt 0.25000 0.75299
vt 0.33333 0.75299
vt 0.41667 0.75299
vt 0.50000 0.75299
vt 0.58333 0.75299
vt 0.66667 0.75299
vt 0.75000 0.75299
vt 0.83333 0.75299
vt 0.91667 0.75299
vt 1.00000 0.75299
vt 0.00000 0.82942
vt 0.08333 0.82942
vt 0.16667 0.82942
vt 0.25000 0.82942
vt 0.33333 0.82942
vt 0.41667 0.82942
vt 0.50000 0.82942
vt 0.58333 0.82942
vt 0.66667 0.82942
vt 0.75000 0.82942
vt 0.83333 0.82942
vt 0.91667 0.82942
vt 1.00000 0.82942
vt 0.00000 0.91472
vt 0.08333 0.91472
vt 0.16667 0.91472
vt 0.25000 0.91472
vt 0.33333 0.91472
vt 0.41667 0.91472
vt 0.50000 0.91472
vt 0.58333 0.91472
vt 0.66667 0.91472
vt 0.75000 0.91472
vt 0.83333 0.91472
vt 0.91667 0.91472
vt 1.00000 0.91472
vt 0.50000 0.91472
vt 0.00000 0.00000
vt 0.08333 0.00000
vt 0.16667 0.00000
vt 0.25000 0.00000
vt 0.33333 0.00000
vt 0.41667 0.00000
vt 0.50000 0.00000
vt 0.58333 0.00000
vt 0.66667 0.00000
vt 0.75000 0.00000
vt 0.83333 0.00000
vt 0.91667 0.00000
vt 1.00000 0.00000
vt 0.00000 0.05865
vt 0.08333 0.05865
vt 0.16667 0.05865
vt 0.25000 0.05865
vt 0.33333 0.05865
vt 0.41667 0.05865
vt 0.50000 0.05865
vt 0.58333 0.05865
vt 0.66667 0.05865
vt 0.75000 0.05865
vt 0.83333 0.05865
vt 0.91667 0.05865
vt 1.00000 0.05865
vt 0.00000 0.11452
vt 0.08333 0.11452
vt 0.16667 0.11452
vt 0.25000 0.11452
vt 0.33333 0.11452
vt 0.41667 0.11452
vt 0.50000 0.11452
vt 0.58333 0.11452
vt 0.66667 0.11452
vt 0.75000 0.11452
vt 0.83333 0.11452
vt 0.91667 0.11452
vt 1.00000 0.11452
vt 0.00000 0.16758
vt 0.08333 0.16758
vt 0.16667 0.16758
vt 0.25000 0.16758
vt 0.33333 0.16758
vt 0.41667 0.16758
vt 0.50000 0.16758
vt 0.58333 0.16758
vt 0.66667 0.16758
vt 0.75000 0.16758
vt 0.83333 0.16758
vt 0.91667 0.16758
vt 1.00000 0.16758
vt 0.00000 0.21786
vt 0.08333 0.21786
vt 0.16667 0.21786
vt 0.25000 0.21786
vt 0.33333 0.21786
vt 0.41667 0.21786
vt 0.50000 0.21786
vt 0.58333 0.21786
vt 0.66667 0.21786
vt 0.75000 0.21786
vt 0.83333 0.21786
vt 0.91667 0.21786
vt 1.00000 0.21786
vt 0.00000 0.26549
vt 0.08333 0.26549
vt 0.16667 0.26549
vt 0.25000 0.26549
vt 0.33333 0.26549
vt 0.41667 0.26549
vt 0.50000 0.26549
vt 0.58333 0.26549
vt 0.66667 0.26549
vt 0.75000 0.26549
vt 0.83333 0.26549
vt 0.91667 0.26549
vt 1.00000 0.26549
vt 0.00000 0.31076
vt 0.08333 0.31076
vt 0.16667 0.31076
vt 0.25000 0.31076
vt 0.33333 0.31076
vt 0.41667 0.31076
vt 0.50000 0.31076
vt 0.58333 0.31076
vt 0.66667 0.31076
vt 0.75000 0.31076
vt 0.83333 0.31076
vt 0.91667 0.31076
vt 1.00000 0.31076
vt 0.00000 0.35413
vt 0.08333 0.35413
vt 0.16667 0.35413
vt 0.25000 0.35413
vt 0.33333 0.35413
vt 0.41667 0.35413
vt 0.50000 0.35413
vt 0.58333 0.35413
vt 0.66667 0.35413
vt 0.75000 0.35413
vt 0.83333 0.35413
vt 0.91667 0.35413
vt 1.00000 0.35413
vt 0.00000 0.39625
vt 0.08333 0.39625
vt 0.16667 0.39625
vt 0.25000 0.39625
vt 0.33333 0.39625
vt 0.41667 0.39625
vt 0.50000 0.39625
vt 0.58333 0.39625
vt 0.66667 0.39625
vt 0.75000 0.39625
vt 0.83333 0.39625
vt 0.91667 0.39625
vt 1.00000 0.39625
vt 0.00000 0.43801
vt 0.08333 0.43801
vt 0.16667 0.43801
vt 0.25000 0.43801
vt 0.33333 0.43801
vt 0.41667 0.43801
vt 0.50000 0.43801
vt 0.58333 0.43801
vt 0.66667 0.43801
vt 0.75000 0.43801
vt 0.83333 0.43801
vt 0.91667 0.43801
vt 1.00000 0.43801
vt 0.00000 0.48047
vt 0.08333 0.48047
vt 0.16667 0.48047
vt 0.25000 0.48047
vt 0.33333 0.48047
vt 0.41667 0.48047
vt 0.50000 0.48047
vt 0.58333 0.48047
vt 0.66667 0.48047
vt 0.75000 0.48047
vt 0.83333 0.48047
vt 0.91667 0.48047
vt 1.00000 0.48047
vt 0.00000 0.52479
vt 0.08333 0.52479
vt 0.16667 0.52479
vt 0.25000 0.52479
vt 0.33333 0.52479
vt 0.41667 0.52479
vt 0.50000 0.52479
vt 0.58333 0.52479
vt 0.66667 0.52479
vt 0.75000 0.52479
vt 0.83333 0.52479
vt 0.91667 0.52479
vt 1.00000 0.52479
vt 0.00000 0.57217
vt 0.08333 0.57217
vt 0.16667 0.57217
vt 0.25000 0.57217
vt 0.33333 0.57217
vt 0.41667 0.57217
vt 0.50000 0.57217
vt 0.58333 0.57217
vt 0.66667 0.57217
vt 0.75000 0.57217
vt 0.83333 0.57217
vt 0.91667 0.57217
vt 1.00000 0.57217
vt 0.00000 0.62374
vt 0.08333 0.62374
vt 0.16667 0.62374
vt 0.25000 0.62374
vt 0.33333 0.62374
vt 0.41667 0.62374
vt 0.50000 0.62374
vt 0.58333 0.62374
vt 0.66667 0.62374
vt 0.75000 0.62374
vt 0.83333 0.62374
vt 0.91667 0.62374
vt 1.00000 0.62374
vt 0.00000 0.68052
vt 0.08333 0.68052
vt 0.16667 0.68052
vt 0.25000 0.68052
vt 0.33333 0.68052
vt 0.41667 0.68052
vt 0.50000 0.68052
vt 0.58333 0.68052
vt 0.66667 0.68052
vt 0.75000 0.68052
vt 0.83333 0.68052
vt 0.91667 0.68052
vt 1.00000 0.68052
vt 0.00000 0.74344
vt 0.08333 0.74344
vt 0.16667 0.74344
vt 0.25000 0.74344
vt 0.33333 0.74344
vt 0.41667 0.74344
vt 0.50000 0.74344
vt 0.58333 0.74344
vt 0.66667 0.74344
vt 0.75000 0.74344
vt 0.83333 0.74344
vt 0.91667 0.74344
vt 1.00000 0.74344
vt 0.50000 0.74344
vn 0.98106 0.00007 0.19368
vn 0.90461 0.00006 -0.42623
vn 0.83067 0.00007 -0.55676
vn 0.33827 0.00006 -0.94105
vn 0.19368 0.00007 -0.98106
vn -0.42623 0.00006 -0.90461
vn -0.55676 0.00007 -0.83067
vn -0.94105 0.00006 -0.33827
vn -0.98106 0.00007 -0.19368
vn -0.90461 0.00006 0.42623
vn -0.83067 0.00007 0.55676
vn -0.33827 0.00006 0.94105
vn -0.19368 0.00007 0.98106
vn 0.42623 0.00006 0.90461
vn 0.55676 0.00007 0.83067
vn 0.94105 0.00006 0.33827
vn 0.98106 0.00007 0.19368
vn 1.00000 0.00027 -0.00005
vn 0.92388 0.00024 -0.38267
vn 0.70707 0.00027 -0.70714
vn 0.38270 0.00024 -0.92387
vn -0.00005 0.00027 -1.00000
vn -0.38267 0.00024 -0.92388
vn -0.70714 0.00027 -0.70707
vn -0.92387 0.00024 -0.38270
vn -1.00000 0.00027 0.00005
vn -0.92388 0.00024 0.38267
vn -0.70707 0.00027 0.70714
vn -0.38270 0.00024 0.92387
vn 0.00005 0.00027 1.00000
vn 0.38267 0.00024 0.92388
vn 0.70714 0.00027 0.70707
vn 0.92387 0.00024 0.38270
vn 1.00000 0.00027 -0.00005
vn 1.00000 0.00088 -0.00018
vn 0.92390 0.00077 -0.38264
vn 0.70698 0.00088 -0.70723
vn 0.38272 0.00077 -0.92386
vn -0.00018 0.00088 -1.00000
vn -0.38264 0.00077 -0.92390
vn -0.70723 0.00088 -0.70698
vn -0.92386 0.00077 -0.38272
vn -1.00000 0.00088 0.00018
vn -0.92390 0.00077 0.38264
vn -0.70698 0.00088 0.70723
vn -0.38272 0.00077 0.92386
vn 0.00018 0.00088 1.00000
vn 0.38264 0.00077 0.92390
vn 0.70723 0.00088 0.70698
vn 0.92386 0.00077 0.38272
vn 1.00000 0.00088 -0.00018
vn 1.00000 0.00190 -0.00038
vn 0.92391 0.00165 -0.38260
vn 0.70684 0.00190 -0.70737
vn 0.38277 0.00165 -0.92384
vn -0.00038 0.00190 -1.00000
vn -0.38260 0.00165 -0.92391
vn -0.70737 0.00190 -0.70684
vn -0.92384 0.00165 -0.38277
vn -1.00000 0.00190 0.00038
vn -0.92391 0.00165 0.38260
vn -0.70684 0.00190 0.70737
vn -0.38277 0.00165 0.92384
vn 0.00038 0.00190 1.00000
vn 0.38260 0.00165 0.92391
vn 0.70737 0.00190 0.70684
vn 0.92384 0.00165 0.38277
vn 1.00000 0.00190 -0.00038
vn 0.99999 0.00333 -0.00066
vn 0.92394 0.00289 -0.38253
vn 0.70663 0.00333 -0.70757
vn 0.38283 0.00289 -0.92381
vn -0.00066 0.00333 -0.99999
vn -0.38253 0.00289 -0.92394
vn -0.70757 0.00333 -0.70663
vn -0.92381 0.00289 -0.38283
vn -0.99999 0.00333 0.00066
vn -0.92394 0.00289 0.38253
vn -0.70663 0.00333 0.70757
vn -0.38283 0.00289 0.92381
vn 0.00066 0.00333 0.99999
vn 0.38253 0.00289 0.92394
vn 0.70757 0.00333 0.70663
vn 0.92381 0.00289 0.38283
vn 0.99999 0.00333 -0.00066
vn 0.99999 0.00516 -0.00103
vn 0.92397 0.00449 -0.38245
vn 0.70637 0.00516 -0.70783
vn 0.38291 0.00449 -0.92377
vn -0.00103 0.00516 -0.99999
vn -0.38245 0.00449 -0.92397
vn -0.70783 0.00516 -0.70637
vn -0.92377 0.00449 -0.38291
vn -0.99999 0.00516 0.00103
vn -0.92397 0.00449 0.38245
vn -0.70637 0.00516 0.70783
vn -0.38291 0.00449 0.92377
vn 0.00103 0.00516 0.99999
vn 0.38245 0.00449 0.92397
vn 0.70783 0.00516 0.70637
vn 0.92377 0.00449 0.38291
vn 0.99999 0.00516 -0.00103
vn 0.99997 0.00741 -0.00149
vn 0.92400 0.00644 -0.38234
vn 0.70603 0.00741 -0.70814
vn 0.38301 0.00644 -0.92372
vn -0.00149 0.00741 -0.99997
vn -0.38234 0.00644 -0.92400
vn -0.70814 0.00741 -0.70603
vn -0.92372 0.00644 -0.38301
vn -0.99997 0.00741 0.00149
vn -0.92400 0.00644 0.38234
vn -0.70603 0.00741 0.70814
vn -0.38301 0.00644 0.92372
vn 0.00149 0.00741 0.99997
vn 0.38234 0.00644 0.92400
vn 0.70814 0.00741 0.70603
vn 0.92372 0.00644 0.38301
vn 0.99997 0.00741 -0.00149
vn 0.99995 0.01005 -0.00204
vn 0.92403 0.00874 -0.38221
vn 0.70562 0.01005 -0.70851
vn 0.38312 0.00874 -0.92366
vn -0.00204 0.01005 -0.99995
vn -0.38221 0.00874 -0.92403
vn -0.70851 0.01005 -0.70562
vn -0.92366 0.00874 -0.38312
vn -0.99995 0.01005 0.00204
vn -0.92403 0.00874 0.38221
vn -0.70562 0.01005 0.70851
vn -0.38312 0.00874 0.92366
vn 0.00204 0.01005 0.99995
vn 0.38221 0.00874 0.92403
vn 0.70851 0.01005 0.70562
vn 0.92366 0.00874 0.38312
vn 0.99995 0.01005 -0.00204
vn 0.99991 0.01311 -0.00270
vn 0.92407 0.01139 -0.38206
vn 0.70514 0.01311 -0.70895
vn 0.38326 0.01139 -0.92357
vn -0.00270 0.01311 -0.99991
vn -0.38206 0.01139 -0.92407
vn -0.70895 0.01311 -0.70514
vn -0.92357 0.01139 -0.38326
vn -0.99991 0.01311 0.00270
vn -0.92407 0.01139 0.38206
vn -0.70514 0.01311 0.70895
vn -0.38326 0.01139 0.92357
vn 0.00270 0.01311 0.99991
vn 0.38206 0.01139 0.92407
vn 0.70895 0.01311 0.70514
vn 0.92357 0.01139 0.38326
vn 0.99991 0.01311 -0.00270
vn 0.99986 0.01657 -0.00346
vn 0.92410 0.01440 -0.38187
vn 0.70456 0.01657 -0.70945
vn 0.38342 0.01440 -0.92346
vn -0.00346 0.01657 -0.99986
vn -0.38187 0.01440 -0.92410
vn -0.70945 0.01657 -0.70456
vn -0.92346 0.01440 -0.38342
vn -0.99986 0.01657 0.00346
vn -0.92410 0.01440 0.38187
vn -0.70456 0.01657 0.70945
vn -0.38342 0.01440 0.92346
vn 0.00346 0.01657 0.99986
vn 0.38187 0.01440 0.92410
vn 0.70945 0.01657 0.70456
vn 0.92346 0.01440 0.38342
vn 0.99986 0.01657 -0.00346
vn 0.99978 0.02044 -0.00436
vn 0.92414 0.01777 -0.38165
vn 0.70387 0.02044 -0.71003
vn 0.38359 0.01777 -0.92333
vn -0.00436 0.02044 -0.99978
vn -0.38165 0.01777 -0.92414
vn -0.71003 0.02044 -0.70387
vn -0.92333 0.01777 -0.38359
vn -0.99978 0.02044 0.00436
vn -0.92414 0.01777 0.38165
vn -0.70387 0.02044 0.71003
vn -0.38359 0.01777 0.92333
vn 0.00436 0.02044 0.99978
vn 0.38165 0.01777 0.92414
vn 0.71003 0.02044 0.70387
vn 0.92333 0.01777 0.38359
vn 0.99978 0.02044 -0.00436
vn 0.99968 0.02471 -0.00540
vn 0.92416 0.02148 -0.38139
vn 0.70306 0.02471 -0.71070
vn 0.38380 0.02148 -0.92317
vn -0.00540 0.02471 -0.99968
vn -0.38139 0.02148 -0.92416
vn -0.71070 0.02471 -0.70306
vn -0.92317 0.02148 -0.38380
vn -0.99968 0.02471 0.00540
vn -0.92416 0.02148 0.38139
vn -0.70306 0.02471 0.71070
vn -0.38380 0.02148 0.92317
vn 0.00540 0.02471 0.99968
vn 0.38139 0.02148 0.92416
vn 0.71070 0.02471 0.70306
vn 0.92317 0.02148 0.38380
vn 0.99968 0.02471 -0.00540
vn 0.99955 0.02939 -0.00662
vn 0.92419 0.02555 -0.38108
vn 0.70210 0.02939 -0.71147
vn 0.38403 0.02555 -0.92297
vn -0.00662 0.02939 -0.99955
vn -0.38108 0.02555 -0.92419
vn -0.71147 0.02939 -0.70210
vn -0.92297 0.02555 -0.38403
vn -0.99955 0.02939 0.00662
vn -0.92419 0.02555 0.38108
vn -0.70210 0.02939 0.71147
vn -0.38403 0.02555 0.92297
vn 0.00662 0.02939 0.99955
vn 0.38108 0.02555 0.92419
vn 0.71147 0.02939 0.70210
vn 0.92297 0.02555 0.38403
vn 0.99955 0.02939 -0.00662
vn 0.91543 0.38065 -0.13075
vn 0.88082 0.33971 -0.32977
vn 0.55485 0.38065 -0.73976
vn 0.38966 0.33971 -0.85602
vn -0.13075 0.38065 -0.91543
vn -0.32977 0.33971 -0.88082
vn -0.73976 0.38065 -0.55485
vn -0.85602 0.33971 -0.38966
vn -0.91543 0.38065 0.13075
vn -0.88082 0.33971 0.32977
vn -0.55485 0.38065 0.73976
vn -0.38966 0.33971 0.85602
vn 0.13075 0.38065 0.91543
vn 0.32977 0.33971 0.88082
vn 0.73976 0.38065 0.55485
vn 0.85602 0.33971 0.38966
vn 0.91543 0.38065 -0.13075
vn -0.00000 1.00000 0.00000
vn 0.02139 -0.98243 0.18540
vn 0.01885 -0.86689 -0.49815
vn 0.01417 -0.65321 -0.75704
vn 0.00009 -0.00211 -1.00000
vn -0.00689 0.32801 -0.94465
vn -0.01822 0.86480 -0.50178
vn -0.02059 0.98210 -0.18725
vn -0.01820 0.86689 0.49816
vn -0.01372 0.65176 0.75830
vn 0.00001 0.00207 1.00000
vn 0.00721 -0.33160 0.94339
vn 0.01875 -0.86480 0.50176
vn 0.02139 -0.98243 0.18540
vn 0.04650 -0.99892 0.00173
vn 0.04028 -0.86510 -0.49997
vn 0.02745 -0.50269 -0.86403
vn 0.00025 -0.00003 -1.00000
vn -0.01836 0.49846 -0.86672
vn -0.03887 0.86515 -0.50000
vn -0.04468 0.99899 0.00379
vn -0.03875 0.86512 0.50007
vn -0.02609 0.49413 0.86900
vn 0.00015 -0.00005 1.00000
vn 0.01932 -0.50227 0.86450
vn 0.04008 -0.86509 0.50001
vn 0.04650 -0.99892 0.00173
vn 0.10023 -0.99496 -0.00053
vn 0.08695 -0.86167 -0.49997
vn 0.05571 -0.50066 -0.86385
vn 0.00072 0.00001 -1.00000
vn -0.04369 0.49500 -0.86779
vn -0.08505 0.86184 -0.50000
vn -0.09795 0.99519 0.00278
vn -0.08475 0.86184 0.50006
vn -0.05270 0.49038 0.86992
vn 0.00060 -0.00003 1.00000
vn 0.04605 -0.50339 0.86283
vn 0.08657 -0.86171 0.49996
vn 0.10023 -0.99496 -0.00053
vn 0.16516 -0.98627 -0.00091
vn 0.14325 -0.85411 -0.49997
vn 0.08988 -0.49625 -0.86352
vn 0.00150 0.00019 -1.00000
vn -0.07357 0.49096 -0.86807
vn -0.13959 0.85470 -0.50000
vn -0.16079 0.98698 0.00367
vn -0.13914 0.85474 0.50007
vn -0.08384 0.48423 0.87091
vn 0.00137 0.00012 1.00000
vn 0.07855 -0.50074 0.86203
vn 0.14273 -0.85421 0.49995
vn 0.16516 -0.98627 -0.00091
vn 0.24202 -0.97027 -0.00113
vn 0.20991 -0.84022 -0.49997
vn 0.13047 -0.48807 -0.86300
vn 0.00260 0.00057 -1.00000
vn -0.10859 0.48357 -0.86854
vn -0.20381 0.84170 -0.50000
vn -0.23473 0.97205 0.00444
vn -0.20313 0.84182 0.50008
vn -0.12007 0.47460 0.87198
vn 0.00245 0.00047 1.00000
vn 0.11736 -0.49453 0.86120
vn 0.20920 -0.84041 0.49995
vn 0.24202 -0.97027 -0.00113
vn 0.33139 -0.94349 -0.00117
vn 0.28744 -0.81696 -0.49996
vn 0.17781 -0.47420 -0.86228
vn 0.00397 0.00129 -0.99999
vn -0.14900 0.47135 -0.86927
vn -0.27830 0.82009 -0.49999
vn -0.32046 0.94725 0.00494
vn -0.27732 0.82037 0.50008
vn -0.16159 0.46010 0.87304
vn 0.00381 0.00117 0.99999
vn 0.16287 -0.48288 0.86041
vn 0.28650 -0.81730 0.49994
vn 0.33139 -0.94349 -0.00117
vn 0.43253 -0.90162 -0.00099
vn 0.37519 -0.78056 -0.49995
vn 0.23146 -0.45219 -0.86136
vn 0.00553 0.00251 -0.99998
vn -0.19461 0.45249 -0.87028
vn -0.36272 0.78641 -0.50000
vn -0.41761 0.90861 0.00492
vn -0.36138 0.78697 0.50008
vn -0.20819 0.43912 0.87397
vn 0.00536 0.00237 0.99998
vn 0.21478 -0.46342 0.85972
vn 0.37400 -0.78115 0.49994
vn 0.43253 -0.90162 -0.00099
vn 0.54247 -0.84008 -0.00062
vn 0.47057 -0.72706 -0.49994
vn 0.28963 -0.41945 -0.86033
vn 0.00709 0.00437 -0.99997
vn -0.24435 0.42513 -0.87153
vn -0.45502 0.73685 -0.50000
vn -0.52388 0.85178 0.00407
vn -0.45335 0.73784 0.50007
vn -0.25885 0.41005 0.87456
vn 0.00690 0.00420 0.99997
vn 0.27159 -0.43350 0.85925
vn 0.46916 -0.72798 0.49993
vn 0.54247 -0.84008 -0.00062
vn 0.65518 -0.75547 -0.00008
vn 0.56832 -0.65352 -0.49993
vn 0.34873 -0.37404 -0.85935
vn 0.00834 0.00691 -0.99994
vn -0.29609 0.38787 -0.87286
vn -0.55069 0.66838 -0.50001
vn -0.63422 0.77315 0.00218
vn -0.54885 0.66987 0.50004
vn -0.31154 0.37167 0.87453
vn 0.00813 0.00671 0.99994
vn 0.33010 -0.39099 0.85916
vn 0.56682 -0.65481 0.49993
vn 0.65518 -0.75547 -0.00008
vn 0.76201 -0.64757 0.00059
vn 0.66086 -0.55978 -0.49991
vn 0.40369 -0.31601 -0.85859
vn 0.00892 0.01001 -0.99991
vn -0.34662 0.34056 -0.87400
vn -0.64275 0.58038 -0.50003
vn -0.74068 0.67185 -0.00060
vn -0.64105 0.58228 0.50000
vn -0.36306 0.32373 0.87372
vn 0.00871 0.00978 0.99991
vn 0.38551 -0.33547 0.85956
vn 0.65947 -0.56140 0.49993
vn 0.76201 -0.64757 0.00059
vn 0.85363 -0.52088 0.00135
vn 0.74011 -0.44984 -0.49989
vn 0.44927 -0.24821 -0.85822
vn 0.00860 0.01333 -0.99987
vn -0.39231 0.28484 -0.87462
vn -0.72327 0.47628 -0.50004
vn -0.83405 0.55168 -0.00359
vn -0.72199 0.47830 0.49996
vn -0.40945 0.26759 0.87220
vn 0.00838 0.01306 0.99988
vn 0.43259 -0.26928 0.86044
vn 0.73901 -0.45160 0.49993
vn 0.85363 -0.52088 0.00135
vn 0.92326 -0.38416 0.00214
vn 0.80020 -0.33137 -0.49987
vn 0.48205 -0.17590 -0.85830
vn 0.00736 0.01642 -0.99984
vn -0.43010 0.22401 -0.87455
vn -0.78612 0.36327 -0.50005
vn -0.90706 0.42095 -0.00594
vn -0.78537 0.36507 0.49992
vn -0.44710 0.20642 0.87034
vn 0.00714 0.01613 0.99984
vn 0.46755 -0.19733 0.86166
vn 0.79948 -0.33304 0.49992
vn 0.92326 -0.38416 0.00214
vn 0.96881 -0.24779 0.00282
vn 0.83942 -0.21336 -0.49985
vn 0.50148 -0.10486 -0.85879
vn 0.00542 0.01893 -0.99981
vn -0.45834 0.16209 -0.87387
vn -0.82916 0.24994 -0.50003
vn -0.95708 0.28973 -0.00717
vn -0.82883 0.25131 0.49989
vn -0.47406 0.14441 0.86857
vn 0.00522 0.01862 0.99981
vn 0.48940 -0.12556 0.86297
vn 0.83903 -0.21476 0.49991
vn 0.96881 -0.24779 0.00282
vn 0.99272 -0.12039 0.00323
vn 0.85995 -0.10323 -0.49983
vn 0.50948 -0.03960 -0.85957
vn 0.00313 0.02070 -0.99978
vn -0.47716 0.10274 -0.87279
vn -0.85406 0.14340 -0.50001
vn -0.98604 0.16635 -0.00730
vn -0.85399 0.14432 0.49986
vn -0.49059 0.08544 0.86719
vn 0.00297 0.02040 0.99979
vn 0.49986 -0.05883 0.86411
vn 0.85978 -0.10429 0.49990
vn 0.99272 -0.12039 0.00323
vn 0.99997 -0.00788 0.00081
vn 0.86609 -0.00594 -0.49986
vn 0.50698 0.01740 -0.86178
vn 0.00096 0.02186 -0.99976
vn -0.48778 0.04799 -0.87165
vn -0.86467 0.04671 -0.50017
vn -0.99850 0.05392 -0.00950
vn -0.86476 0.04699 0.49999
vn -0.50070 0.03138 0.86505
vn 0.00084 0.02144 0.99977
vn 0.50200 0.00005 0.86487
vn 0.86607 -0.00657 0.49988
vn 0.99997 -0.00788 0.00081
vn 0.92096 0.36709 -0.13066
vn 0.81563 0.32879 -0.47608
vn 0.34452 0.36095 -0.86662
vn -0.00769 0.31912 -0.94768
vn -0.57987 0.35012 -0.73564
vn -0.82638 0.30752 -0.47174
vn -0.92942 0.34568 0.12916
vn -0.82528 0.30624 0.47448
vn -0.35548 0.35249 0.86567
vn -0.00470 0.31651 0.94858
vn 0.57063 0.36306 0.73659
vn 0.81752 0.32746 0.47374
vn 0.92096 0.36709 -0.13066
vn -0.02034 0.99979 -0.00000
vn 0.02044 0.98210 0.18725
vn 0.01807 0.86690 -0.49816
vn 0.01362 0.65176 -0.75830
vn -0.00001 0.00207 -1.00000
vn -0.00716 -0.33160 -0.94339
vn -0.01862 -0.86480 -0.50176
vn -0.02123 -0.98243 -0.18540
vn -0.01871 -0.86689 0.49815
vn -0.01407 -0.65322 0.75704
vn -0.00010 -0.00211 1.00000
vn 0.00684 0.32800 0.94465
vn 0.01808 0.86481 0.50178
vn 0.02044 0.98210 0.18725
vn 0.04402 0.99900 -0.00792
vn 0.03818 0.86512 -0.50011
vn 0.02560 0.49059 -0.87102
vn -0.00016 -0.00010 -1.00000
vn -0.01917 -0.50548 -0.86262
vn -0.03958 -0.86514 -0.49997
vn -0.04594 -0.99894 0.00169
vn -0.03979 -0.86511 0.50001
vn -0.02703 -0.49973 0.86576
vn -0.00026 0.00001 1.00000
vn 0.01819 0.50174 0.86482
vn 0.03831 0.86520 0.49996
vn 0.04402 0.99900 -0.00792
vn 0.09741 0.99522 -0.00671
vn 0.08428 0.86186 -0.50010
vn 0.05207 0.48674 -0.87200
vn -0.00066 -0.00007 -1.00000
vn -0.04619 -0.50661 -0.86093
vn -0.08630 -0.86176 -0.49993
vn -0.09993 -0.99499 0.00361
vn -0.08669 -0.86168 0.50000
vn -0.05539 -0.49826 0.86526
vn -0.00077 0.00005 1.00000
vn 0.04365 0.49775 0.86622
vn 0.08461 0.86190 0.49997
vn 0.09741 0.99522 -0.00671
vn 0.16076 0.98696 -0.00755
vn 0.13910 0.85472 -0.50011
vn 0.08318 0.48030 -0.87315
vn -0.00155 0.00010 -1.00000
vn -0.07936 -0.50393 -0.86009
vn -0.14323 -0.85414 -0.49992
vn -0.16579 -0.98616 0.00361
vn -0.14381 -0.85401 0.49999
vn -0.09009 -0.49438 0.86457
vn -0.00167 0.00024 1.00000
vn 0.07378 0.49313 0.86682
vn 0.13965 0.85471 0.49997
vn 0.16076 0.98696 -0.00755
vn 0.23589 0.97174 -0.00835
vn 0.20411 0.84156 -0.50012
vn 0.11950 0.47009 -0.87449
vn -0.00285 0.00053 -1.00000
vn -0.11945 -0.49757 -0.85916
vn -0.21135 -0.83989 -0.49992
vn -0.24458 -0.96962 0.00344
vn -0.21217 -0.83964 0.49998
vn -0.13192 -0.48658 0.86362
vn -0.00298 0.00069 1.00000
vn 0.10923 0.48492 0.86771
vn 0.20498 0.84143 0.49997
vn 0.23589 0.97174 -0.00835
vn 0.32365 0.94614 -0.00890
vn 0.28005 0.81942 -0.50013
vn 0.16126 0.45465 -0.87595
vn -0.00456 0.00140 -0.99999
vn -0.16702 -0.48540 -0.85819
vn -0.29134 -0.81560 -0.49991
vn -0.33711 -0.94146 0.00309
vn -0.29249 -0.81516 0.49997
vn -0.18136 -0.47265 0.86239
vn -0.00471 0.00158 0.99999
vn 0.15027 0.47150 0.86897
vn 0.28139 0.81906 0.49997
vn 0.32365 0.94614 -0.00890
vn 0.42367 0.90577 -0.00882
vn 0.36661 0.78452 -0.50012
vn 0.20815 0.43237 -0.87734
vn -0.00658 0.00295 -0.99997
vn -0.22179 -0.46460 -0.85729
vn -0.38255 -0.77701 -0.49991
vn -0.44257 -0.89673 0.00255
vn -0.38406 -0.77624 0.49995
vn -0.23794 -0.44968 0.86092
vn -0.00672 0.00315 0.99997
vn 0.19659 0.45092 0.87065
vn 0.36852 0.78372 0.49997
vn 0.42367 0.90577 -0.00882
vn 0.53337 0.84585 -0.00759
vn 0.46155 0.73272 -0.50010
vn 0.25907 0.40175 -0.87834
vn -0.00862 0.00540 -0.99995
vn -0.28195 -0.43208 -0.85663
vn -0.48190 -0.71963 -0.49990
vn -0.55734 -0.83028 0.00190
vn -0.48372 -0.71839 0.49993
vn -0.29945 -0.41456 0.85934
vn -0.00878 0.00561 0.99995
vn 0.24694 0.42126 0.87268
vn 0.46403 0.73123 0.49998
vn 0.53337 0.84585 -0.00759
vn 0.64697 0.76250 -0.00479
vn 0.55989 0.66067 -0.50005
vn 0.31197 0.36187 -0.87848
vn -0.01025 0.00883 -0.99991
vn -0.34353 -0.38543 -0.85641
vn -0.58314 -0.64035 -0.49990
vn -0.67415 -0.73859 0.00122
vn -0.58507 -0.63858 0.49991
vn -0.36143 -0.36517 0.85792
vn -0.01043 0.00907 0.99990
vn 0.29891 0.38137 0.87476
vn 0.56266 0.65835 0.49999
vn 0.64697 0.76250 -0.00479
vn 0.75539 0.65527 -0.00068
vn 0.65380 0.56795 -0.49998
vn 0.36365 0.31280 -0.87745
vn -0.01097 0.01305 -0.99985
vn -0.40071 -0.32453 -0.85680
vn -0.67743 -0.53962 -0.49989
vn -0.78280 -0.62228 0.00054
vn -0.67919 -0.53741 0.49989
vn -0.41767 -0.30202 0.85693
vn -0.01118 0.01332 0.99985
vn 0.34918 0.33165 0.87640
vn 0.65633 0.56499 0.50001
vn 0.75539 0.65527 -0.00068
vn 0.84837 0.52939 0.00353
vn 0.73444 0.45901 -0.49991
vn 0.41003 0.25614 -0.87536
vn -0.01044 0.01755 -0.99979
vn -0.44747 -0.25273 -0.85785
vn -0.75587 -0.42282 -0.49988
vn -0.87307 -0.48760 -0.00017
vn -0.75720 -0.42046 0.49986
vn -0.46234 -0.22917 0.85658
vn -0.01066 0.01787 0.99978
vn 0.39425 0.27439 0.87708
vn 0.73627 0.45595 0.50002
vn 0.84837 0.52939 0.00353
vn 0.91863 0.39506 0.00650
vn 0.79547 0.34261 -0.49985
vn 0.44733 0.19528 -0.87279
vn -0.00868 0.02171 -0.99973
vn -0.48005 -0.17626 -0.85935
vn -0.81275 -0.29928 -0.49986
vn -0.93851 -0.34525 -0.00091
vn -0.81357 -0.29711 0.49982
vn -0.49228 -0.15314 0.85686
vn -0.00890 0.02207 0.99972
vn 0.43126 0.21324 0.87667
vn 0.79649 0.34000 0.50001
vn 0.91863 0.39506 0.00650
vn 0.96465 0.26344 0.00776
vn 0.83547 0.22844 -0.49980
vn 0.47364 0.13458 -0.87037
vn -0.00608 0.02508 -0.99967
vn -0.49830 -0.10195 -0.86099
vn -0.84741 -0.17903 -0.49984
vn -0.97841 -0.20667 -0.00159
vn -0.84781 -0.17727 0.49979
vn -0.50793 -0.08045 0.85764
vn -0.00626 0.02546 0.99966
vn 0.45878 0.15224 0.87541
vn 0.83588 0.22656 0.49997
vn 0.96465 0.26344 0.00776
vn 0.98974 0.14266 0.00759
vn 0.85728 0.12366 -0.49977
vn 0.48951 0.07787 -0.86851
vn -0.00309 0.02751 -0.99962
vn -0.50498 -0.03473 -0.86243
vn -0.86334 -0.06950 -0.49982
vn -0.99676 -0.08041 -0.00204
vn -0.86347 -0.06820 0.49976
vn -0.51222 -0.01548 0.85872
vn -0.00323 0.02787 0.99961
vn 0.47705 0.09482 0.87375
vn 0.85736 0.12246 0.49993
vn 0.98974 0.14266 0.00759
vn 0.99936 0.03422 0.01023
vn 0.86556 0.02986 -0.49991
vn 0.49991 0.02635 -0.86568
vn -0.00030 0.02899 -0.99958
vn -0.50400 0.02311 -0.86340
vn -0.86581 0.02518 -0.49975
vn -0.99959 0.02860 0.00096
vn -0.86578 0.02596 0.49976
vn -0.50623 0.03990 0.86148
vn -0.00039 0.02955 0.99956
vn 0.48744 0.04252 0.87212
vn 0.86546 0.02955 0.50010
vn 0.99936 0.03422 0.01023
vn 0.91164 0.39504 -0.11339
vn 0.81443 0.35153 -0.46166
vn 0.36684 0.41416 -0.83301
vn 0.01635 0.38042 -0.92467
vn -0.53128 0.44570 -0.72048
vn -0.78575 0.41069 -0.46252
vn -0.88123 0.45822 0.11607
vn -0.78371 0.41242 0.46444
vn -0.33079 0.43944 0.83515
vn 0.01912 0.38389 0.92318
vn 0.56404 0.40780 0.71802
vn 0.81514 0.35328 0.45906
vn 0.91164 0.39504 -0.11339
vn 0.04718 0.99889 0.00000
usemtl cactus
s 1
f 1/1/1 2/2/2 18/18/18
f 2/2/2 19/19/19 18/18/18
f 2/2/2 3/3/3 19/19/19
f 3/3/3 20/20/20 19/19/19
f 3/3/3 4/4/4 20/20/20
f 4/4/4 21/21/21 20/20/20
f 4/4/4 5/5/5 21/21/21
f 5/5/5 22/22/22 21/21/21
f 5/5/5 6/6/6 22/22/22
f 6/6/6 23/23/23 22/22/22
f 6/6/6 7/7/7 23/23/23
f 7/7/7 24/24/24 23/23/23
f 7/7/7 8/8/8 24/24/24
f 8/8/8 25/25/25 24/24/24
f 8/8/8 9/9/9 25/25/25
f 9/9/9 26/26/26 25/25/25
f 9/9/9 10/10/10 26/26/26
f 10/10/10 27/27/27 26/26/26
f 10/10/10 11/11/11 27/27/27
f 11/11/11 28/28/28 27/27/27
f 11/11/11 12/12/12 28/28/28
f 12/12/12 29/29/29 28/28/28
f 12/12/12 13/13/13 29/29/29
f 13/13/13 30/30/30 29/29/29
f 13/13/13 14/14/14 30/30/30
f 14/14/14 31/31/31 30/30/30
f 14/14/14 15/15/15 31/31/31
f 15/15/15 32/32/32 31/31/31
f 15/15/15 16/16/16 32/32/32
f 16/16/16 33/33/33 32/32/32
f 16/16/16 17/17/17 33/33/33
f 17/17/17 34/34/34 33/33/33
f 18/18/18 19/19/19 35/35/35
f 19/19/19 36/36/36 35/35/35
f 19/19/19 20/20/20 36/36/36
f 20/20/20 37/37/37 36/36/36
f 20/20/20 21/21/21 37/37/37
f 21/21/21 38/38/38 37/37/37
f 21/21/21 22/22/22 38/38/38
f 22/22/22 39/39/39 38/38/38
f 22/22/22 23/23/23 39/39/39
f 23/23/23 40/40/40 39/39/39
f 23/23/23 24/24/24 40/40/40
f 24/24/24 41/41/41 40/40/40
f 24/24/24 25/25/25 41/41/41
f 25/25/25 42/42/42 41/41/41
f 25/25/25 26/26/26 42/42/42
f 26/26/26 43/43/43 42/42/42
f 26/26/26 27/27/27 43/43/43
f 27/27/27 44/44/44 43/43/43
f 27/27/27 28/28/28 44/44/44
f 28/28/28 45/45/45 44/44/44
f 28/28/28 29/29/29 45/45/45
f 29/29/29 46/46/46 45/45/45
f 29/29/29 30/30/30 46/46/46
f 30/30/30 47/47/47 46/46/46
f 30/30/30 31/31/31 47/47/47
f 31/31/31 48/48/48 47/47/47
f 31/31/31 32/32/32 48/48/48
f 32/32/32 49/49/49 48/48/48
f 32/32/32 33/33/33 49/49/49
f 33/33/33 50/50/50 49/49/49
f 33/33/33 34/34/34 50/50/50
f 34/34/34 51/51/51 50/50/50
f 35/35/35 36/36/36 52/52/52
f 36/36/36 53/53/53 52/52/52
f 36/36/36 37/37/37 53/53/53
f 37/37/37 54/54/54 53/53/53
f 37/37/37 38/38/38 54/54/54
f 38/38/38 55/55/55 54/54/54
f 38/38/38 39/39/39 55/55/55
f 39/39/39 56/56/56 55/55/55
f 39/39/39 40/40/40 56/56/56
f 40/40/40 57/57/57 56/56/56
f 40/40/40 41/41/41 57/57/57
f 41/41/41 58/58/58 57/57/57
f 41/41/41 42/42/42 58/58/58
f 42/42/42 59/59/59 58/58/58
f 42/42/42 43/43/43 59/59/59
f 43/43/43 60/60/60 59/59/59
f 43/43/43 44/44/44 60/60/60
f 44/44/44 61/61/61 60/60/60
f 44/44/44 45/45/45 61/61/61
f 45/45/45 62/62/62 61/61/61
f 45/45/45 46/46/46 62/62/62
f 46/46/46 63/63/63 62/62/62
f 46/46/46 47/47/47 63/63/63
f 47/47/47 64/64/64 63/63/63
f 47/47/47 48/48/48 64/64/64
f 48/48/48 65/65/65 64/64/64
f 48/48/48 49/49/49 65/65/65
f 49/49/49 66/66/66 65/65/65
f 49/49/49 50/50/50 66/66/66
f 50/50/50 67/67/67 66/66/66
f 50/50/50 51/51/51 67/67/67
f 51/51/51 68/68/68 67/67/67
f 52/52/52 53/53/53 69/69/69
f 53/53/53 70/70/70 69/69/69
f 53/53/53 54/54/54 70/70/70
f 54/54/54 71/71/71 70/70/70
f 54/54/54 55/55/55 71/71/71
f 55/55/55 72/72/72 71/71/71
f 55/55/55 56/56/56 72/72/72
f 56/56/56 73/73/73 72/72/72
f 56/56/56 57/57/57 73/73/73
f 57/57/57 74/74/74 73/73/73
f 57/57/57 58/58/58 74/74/74
f 58/58/58 75/75/75 74/74/74
f 58/58/58 59/59/59 75/75/75
f 59/59/59 76/76/76 75/75/75
f 59/59/59 60/60/60 76/76/76
f 60/60/60 77/77/77 76/76/76
f 60/60/60 61/61/61 77/77/77
f 61/61/61 78/78/78 77/77/77
f 61/61/61 62/62/62 78/78/78
f 62/62/62 79/79/79 78/78/78
f 62/62/62 63/63/63 79/79/79
f 63/63/63 80/80/80 79/79/79
f 63/63/63 64/64/64 80/80/80
f 64/64/64 81/81/81 80/80/80
f 64/64/64 65/65/65 81/81/81
f 65/65/65 82/82/82 81/81/81
f 65/65/65 66/66/66 82/82/82
f 66/66/66 83/83/83 82/82/82
f 66/66/66 67/67/67 83/83/83
f 67/67/67 84/84/84 83/83/83
f 67/67/67 68/68/68 84/84/84
f 68/68/68 85/85/85 84/84/84
f 69/69/69 70/70/70 86/86/86
f 70/70/70 87/87/87 86/86/86
f 70/70/70 71/71/71 87/87/87
f 71/71/71 88/88/88 87/87/87
f 71/71/71 72/72/72 88/88/88
f 72/72/72 89/89/89 88/88/88
f 72/72/72 73/73/73 89/89/89
f 73/73/73 90/90/90 89/89/89
f 73/73/73 74/74/74 90/90/90
f 74/74/74 91/91/91 90/90/90
f 74/74/74 75/75/75 91/91/91
f 75/75/75 92/92/92 91/91/91
f 75/75/75 76/76/76 92/92/92
f 76/76/76 93/93/93 92/92/92
f 76/76/76 77/77/77 93/93/93
f 77/77/77 94/94/94 93/93/93
f 77/77/77 78/78/78 94/94/94
f 78/78/78 95/95/95 94/94/94
f 78/78/78 79/79/79 95/95/95
f 79/79/79 96/96/96 95/95/95
f 79/79/79 80/80/80 96/96/96
f 80/80/80 97/97/97 96/96/96
f 80/80/80 81/81/81 97/97/97
f 81/81/81 98/98/98 97/97/97
f 81/81/81 82/82/82 98/98/98
f 82/82/82 99/99/99 98/98/98
f 82/82/82 83/83/83 99/99/99
f 83/83/83 100/100/100 99/99/99
f 83/83/83 84/84/84 100/100/100
f 84/84/84 101/101/101 100/100/100
f 84/84/84 85/85/85 101/101/101
f 85/85/85 102/102/102 101/101/101
f 86/86/86 87/87/87 103/103/103
f 87/87/87 104/104/104 103/103/103
f 87/87/87 88/88/88 104/104/104
f 88/88/88 105/105/105 104/104/104
f 88/88/88 89/89/89 105/105/105
f 89/89/89 106/106/106 105/105/105
f 89/89/89 90/90/90 106/106/106
f 90/90/90 107/107/107 106/106/106
f 90/90/90 91/91/91 107/107/107
f 91/91/91 108/108/108 107/107/107
f 91/91/91 92/92/92 108/108/108
f 92/92/92 109/109/109 108/108/108
f 92/92/92 93/93/93 109/109/109
f 93/93/93 110/110/110 109/109/109
f 93/93/93 94/94/94 110/110/110
f 94/94/94 111/111/111 110/110/110
f 94/94/94 95/95/95 111/111/111
f 95/95/95 112/112/112 111/111/111
f 95/95/95 96/96/96 112/112/112
f 96/96/96 113/113/113 112/112/112
f 96/96/96 97/97/97 113/113/113
f 97/97/97 114/114/114 113/113/113
f 97/97/97 98/98/98 114/114/114
f 98/98/98 115/115/115 114/114/114
f 98/98/98 99/99/99 115/115/115
f 99/99/99 116/116/116 115/115/115
f 99/99/99 100/100/100 116/116/116
f 100/100/100 117/117/117 116/116/116
f 100/100/100 101/101/101 117/117/117
f 101/101/101 118/118/118 117/117/117
f 101/101/101 102/102/102 118/118/118
f 102/102/102 119/119/119 118/118/118
f 103/103/103 104/104/104 120/120/120
f 104/104/104 121/121/121 120/120/120
f 104/104/104 105/105/105 121/121/121
f 105/105/105 122/122/122 121/121/121
f 105/105/105 106/106/106 122/122/122
f 106/106/106 123/123/123 122/122/122
f 106/106/106 107/107/107 123/123/123
f 107/107/107 124/124/124 123/123/123
f 107/107/107 108/108/108 124/124/124
f 108/108/108 125/125/125 124/124/124
f 108/108/108 109/109/109 125/125/125
f 109/109/109 126/126/126 125/125/125
f 109/109/109 110/110/110 126/126/126
f 110/110/110 127/127/127 126/126/126
f 110/110/110 111/111/111 127/127/127
f 111/111/111 128/128/128 127/127/127
f 111/111/111 112/112/112 128/128/128
f 112/112/112 129/129/129 128/128/128
f 112/112/112 113/113/113 129/129/129
f 113/113/113 130/130/130 129/129/129
f 113/113/113 114/114/114 130/130/130
f 114/114/114 131/131/131 130/130/130
f 114/114/114 115/115/115 131/131/131
f 115/115/115 132/132/132 131/131/131
f 115/115/115 116/116/116 132/132/132
f 116/116/116 133/133/133 132/132/132
f 116/116/116 117/117/117 133/133/133
f 117/117/117 134/134/134 133/133/133
f 117/117/117 118/118/118 134/134/134
f 118/118/118 135/135/135 134/134/134
f 118/118/118 119/119/119 135/135/135
f 119/119/119 136/136/136 135/135/135
f 120/120/120 121/121/121 137/137/137
f 121/121/121 138/138/138 137/137/137
f 121/121/121 122/122/122 138/138/138
f 122/122/122 139/139/139 138/138/138
f 122/122/122 123/123/123 139/139/139
f 123/123/123 140/140/140 139/139/139
f 123/123/123 124/124/124 140/140/140
f 124/124/124 141/141/141 140/140/140
f 124/124/124 125/125/125 141/141/141
f 125/125/125 142/142/142 141/141/141
f 125/125/125 126/126/126 142/142/142
f 126/126/126 143/143/143 142/142/142
f 126/126/126 127/127/127 143/143/143
f 127/127/127 144/144/144 143/143/143
f 127/127/127 128/128/128 144/144/144
f 128/128/128 145/145/145 144/144/144
f 128/128/128 129/129/129 145/145/145
f 129/129/129 146/146/146 145/145/145
f 129/129/129 130/130/130 146/146/146
f 130/130/130 147/147/147 146/146/146
f 130/130/130 131/131/131 147/147/147
f 131/131/131 148/148/148 147/147/147
f 131/131/131 132/132/132 148/148/148
f 132/132/132 149/149/149 148/148/148
f 132/132/132 133/133/133 149/149/149
f 133/133/133 150/150/150 149/149/149
f 133/133/133 134/134/134 150/150/150
f 134/134/134 151/151/151 150/150/150
f 134/134/134 135/135/135 151/151/151
f 135/135/135 152/152/152 151/151/151
f 135/135/135 136/136/136 152/152/152
f 136/136/136 153/153/153 152/152/152
f 137/137/137 138/138/138 154/154/154
f 138/138/138 155/155/155 154/154/154
f 138/138/138 139/139/139 155/155/155
f 139/139/139 156/156/156 155/155/155
f 139/139/139 140/140/140 156/156/156
f 140/140/140 157/157/157 156/156/156
f 140/140/140 141/141/141 157/157/157
f 141/141/141 158/158/158 157/157/157
f 141/141/141 142/142/142 158/158/158
f 142/142/142 159/159/159 158/158/158
f 142/142/142 143/143/143 159/159/159
f 143/143/143 160/160/160 159/159/159
f 143/143/143 144/144/144 160/160/160
f 144/144/144 161/161/161 160/160/160
f 144/144/144 145/145/145 161/161/161
f 145/145/145 162/162/162 161/161/161
f 145/145/145 146/146/146 162/162/162
f 146/146/146 163/163/163 162/162/162
f 146/146/146 147/147/147 163/163/163
f 147/147/147 164/164/164 163/163/163
f 147/147/147 148/148/148 164/164/164
f 148/148/148 165/165/165 164/164/164
f 148/148/148 149/149/149 165/165/165
f 149/149/149 166/166/166 165/165/165
f 149/149/149 150/150/150 166/166/166
f 150/150/150 167/167/167 166/166/166
f 150/150/150 151/151/151 167/167/167
f 151/151/151 168/168/168 167/167/167
f 151/151/151 152/152/152 168/168/168
f 152/152/152 169/169/169 168/168/168
f 152/152/152 153/153/153 169/169/169
f 153/153/153 170/170/170 169/169/169
f 154/154/154 155/155/155 171/171/171
f 155/155/155 172/172/172 171/171/171
f 155/155/155 156/156/156 172/172/172
f 156/156/156 173/173/173 172/172/172
f 156/156/156 157/157/157 173/173/173
f 157/157/157 174/174/174 173/173/173
f 157/157/157 158/158/158 174/174/174
f 158/158/158 175/175/175 174/174/174
f 158/158/158 159/159/159 175/175/175
f 159/159/159 176/176/176 175/175/175
f 159/159/159 160/160/160 176/176/176
f 160/160/160 177/177/177 176/176/176
f 160/160/160 161/161/161 177/177/177
f 161/161/161 178/178/178 177/177/177
f 161/161/161 162/162/162 178/178/178
f 162/162/162 179/179/179 178/178/178
f 162/162/162 163/163/163 179/179/179
f 163/163/163 180/180/180 179/179/179
f 163/163/163 164/164/164 180/180/180
f 164/164/164 181/181/181 180/180/180
f 164/164/164 165/165/165 181/181/181
f 165/165/165 182/182/182 181/181/181
f 165/165/165 166/166/166 182/182/182
f 166/166/166 183/183/183 182/182/182
f 166/166/166 167/167/167 183/183/183
f 167/167/167 184/184/184 183/183/183
f 167/167/167 168/168/168 184/184/184
f 168/168/168 185/185/185 184/184/184
f 168/168/168 169/169/169 185/185/185
f 169/169/169 186/186/186 185/185/185
f 169/169/169 170/170/170 186/186/186
f 170/170/170 187/187/187 186/186/186
f 171/171/171 172/172/172 188/188/188
f 172/172/172 189/189/189 188/188/188
f 172/172/172 173/173/173 189/189/189
f 173/173/173 190/190/190 189/189/189
f 173/173/173 174/174/174 190/190/190
f 174/174/174 191/191/191 190/190/190
f 174/174/174 175/175/175 191/191/191
f 175/175/175 192/192/192 191/191/191
f 175/175/175 176/176/176 192/192/192
f 176/176/176 193/193/193 192/192/192
f 176/176/176 177/177/177 193/193/193
f 177/177/177 194/194/194 193/193/193
f 177/177/177 178/178/178 194/194/194
f 178/178/178 195/195/195 194/194/194
f 178/178/178 179/179/179 195/195/195
f 179/179/179 196/196/196 195/195/195
f 179/179/179 180/180/180 196/196/196
f 180/180/180 197/197/197 196/196/196
f 180/180/180 181/181/181 197/197/197
f 181/181/181 198/198/198 197/197/197
f 181/181/181 182/182/182 198/198/198
f 182/182/182 199/199/199 198/198/198
f 182/182/182 183/183/183 199/199/199
f 183/183/183 200/200/200 199/199/199
f 183/183/183 184/184/184 200/200/200
f 184/184/184 201/201/201 200/200/200
f 184/184/184 185/185/185 201/201/201
f 185/185/185 202/202/202 201/201/201
f 185/185/185 186/186/186 202/202/202
f 186/186/186 203/203/203 202/202/202
f 186/186/186 187/187/187 203/203/203
f 187/187/187 204/204/204 203/203/203
f 188/188/188 189/189/189 205/205/205
f 189/189/189 206/206/206 205/205/205
f 189/189/189 190/190/190 206/206/206
f 190/190/190 207/207/207 206/206/206
f 190/190/190 191/191/191 207/207/207
f 191/191/191 208/208/208 207/207/207
f 191/191/191 192/192/192 208/208/208
f 192/192/192 209/209/209 208/208/208
f 192/192/192 193/193/193 209/209/209
f 193/193/193 210/210/210 209/209/209
f 193/193/193 194/194/194 210/210/210
f 194/194/194 211/211/211 210/210/210
f 194/194/194 195/195/195 211/211/211
f 195/195/195 212/212/212 211/211/211
f 195/195/195 196/196/196 212/212/212
f 196/196/196 213/213/213 212/212/212
f 196/196/196 197/197/197 213/213/213
f 197/197/197 214/214/214 213/213/213
f 197/197/197 198/198/198 214/214/214
f 198/198/198 215/215/215 214/214/214
f 198/198/198 199/199/199 215/215/215
f 199/199/199 216/216/216 215/215/215
f 199/199/199 200/200/200 216/216/216
f 200/200/200 217/217/217 216/216/216
f 200/200/200 201/201/201 217/217/217
f 201/201/201 218/218/218 217/217/217
f 201/201/201 202/202/202 218/218/218
f 202/202/202 219/219/219 218/218/218
f 202/202/202 203/203/203 219/219/219
f 203/203/203 220/220/220 219/219/219
f 203/203/203 204/204/204 220/220/220
f 204/204/204 221/221/221 220/220/220
f 205/205/205 206/206/206 222/222/222
f 206/206/206 223/223/223 222/222/222
f 206/206/206 207/207/207 223/223/223
f 207/207/207 224/224/224 223/223/223
f 207/207/207 208/208/208 224/224/224
f 208/208/208 225/225/225 224/224/224
f 208/208/208 209/209/209 225/225/225
f 209/209/209 226/226/226 225/225/225
f 209/209/209 210/210/210 226/226/226
f 210/210/210 227/227/227 226/226/226
f 210/210/210 211/211/211 227/227/227
f 211/211/211 228/228/228 227/227/227
f 211/211/211 212/212/212 228/228/228
f 212/212/212 229/229/229 228/228/228
f 212/212/212 213/213/213 229/229/229
f 213/213/213 230/230/230 229/229/229
f 213/213/213 214/214/214 230/230/230
f 214/214/214 231/231/231 230/230/230
f 214/214/214 215/215/215 231/231/231
f 215/215/215 232/232/232 231/231/231
f 215/215/215 216/216/216 232/232/232
f 216/216/216 233/233/233 232/232/232
f 216/216/216 217/217/217 233/233/233
f 217/217/217 234/234/234 233/233/233
f 217/217/217 218/218/218 234/234/234
f 218/218/218 235/235/235 234/234/234
f 218/218/218 219/219/219 235/235/235
f 219/219/219 236/236/236 235/235/235
f 219/219/219 220/220/220 236/236/236
f 220/220/220 237/237/237 236/236/236
f 220/220/220 221/221/221 237/237/237
f 221/221/221 238/238/238 237/237/237
f 222/222/222 223/223/223 239/239/239
f 223/223/223 224/224/224 239/239/239
f 224/224/224 225/225/225 239/239/239
f 225/225/225 226/226/226 239/239/239
f 226/226/226 227/227/227 239/239/239
f 227/227/227 228/228/228 239/239/239
f 228/228/228 229/229/229 239/239/239
f 229/229/229 230/230/230 239/239/239
f 230/230/230 231/231/231 239/239/239
f 231/231/231 232/232/232 239/239/239
f 232/232/232 233/233/233 239/239/239
f 233/233/233 234/234/234 239/239/239
f 234/234/234 235/235/235 239/239/239
f 235/235/235 236/236/236 239/239/239
f 236/236/236 237/237/237 239/239/239
f 237/237/237 238/238/238 239/239/239
f 240/240/240 241/241/241 253/253/253
f 241/241/241 254/254/254 253/253/253
f 241/241/241 242/242/242 254/254/254
f 242/242/242 255/255/255 254/254/254
f 242/242/242 243/243/243 255/255/255
f 243/243/243 256/256/256 255/255/255
f 243/243/243 244/244/244 256/256/256
f 244/244/244 257/257/257 256/256/256
f 244/244/244 245/245/245 257/257/257
f 245/245/245 258/258/258 257/257/257
f 245/245/245 246/246/246 258/258/258
f 246/246/246 259/259/259 258/258/258
f 246/246/246 247/247/247 259/259/259
f 247/247/247 260/260/260 259/259/259
f 247/247/247 248/248/248 260/260/260
f 248/248/248 261/261/261 260/260/260
f 248/248/248 249/249/249 261/261/261
f 249/249/249 262/262/262 261/261/261
f 249/249/249 250/250/250 262/262/262
f 250/250/250 263/263/263 262/262/262
f 250/250/250 251/251/251 263/263/263
f 251/251/251 264/264/264 263/263/263
f 251/251/251 252/252/252 264/264/264
f 252/252/252 265/265/265 264/264/264
f 253/253/253 254/254/254 266/266/266
f 254/254/254 267/267/267 266/266/266
f 254/254/254 255/255/255 267/267/267
f 255/255/255 268/268/268 267/267/267
f 255/255/255 256/256/256 268/268/268
f 256/256/256 269/269/269 268/268/268
f 256/256/256 257/257/257 269/269/269
f 257/257/257 270/270/270 269/269/269
f 257/257/257 258/258/258 270/270/270
f 258/258/258 271/271/271 270/270/270
f 258/258/258 259/259/259 271/271/271
f 259/259/259 272/272/272 271/271/271
f 259/259/259 260/260/260 272/272/272
f 260/260/260 273/273/273 272/272/272
f 260/260/260 261/261/261 273/273/273
f 261/261/261 274/274/274 273/273/273
f 261/261/261 262/262/262 274/274/274
f 262/262/262 275/275/275 274/274/274
f 262/262/262 263/263/263 275/275/275
f 263/263/263 276/276/276 275/275/275
f 263/263/263 264/264/264 276/276/276
f 264/264/264 277/277/277 276/276/276
f 264/264/264 265/265/265 277/277/277
f 265/265/265 278/278/278 277/277/277
f 266/266/266 267/267/267 279/279/279
f 267/267/267 280/280/280 279/279/279
f 267/267/267 268/268/268 280/280/280
f 268/268/268 281/281/281 280/280/280
f 268/268/268 269/269/269 281/281/281
f 269/269/269 282/282/282 281/281/281
f 269/269/269 270/270/270 282/282/282
f 270/270/270 283/283/283 282/282/282
f 270/270/270 271/271/271 283/283/283
f 271/271/271 284/284/284 283/283/283
f 271/271/271 272/272/272 284/284/284
f 272/272/272 285/285/285 284/284/284
f 272/272/272 273/273/273 285/285/285
f 273/273/273 286/286/286 285/285/285
f 273/273/273 274/274/274 286/286/286
f 274/274/274 287/287/287 286/286/286
f 274/274/274 275/275/275 287/287/287
f 275/275/275 288/288/288 287/287/287
f 275/275/275 276/276/276 288/288/288
f 276/276/276 289/289/289 288/288/288
f 276/276/276 277/277/277 289/289/289
f 277/277/277 290/290/290 289/289/289
f 277/277/277 278/278/278 290/290/290
f 278/278/278 291/291/291 290/290/290
f 279/279/279 280/280/280 292/292/292
f 280/280/280 293/293/293 292/292/292
f 280/280/280 281/281/281 293/293/293
f 281/281/281 294/294/294 293/293/293
f 281/281/281 282/282/282 294/294/294
f 282/282/282 295/295/295 294/294/294
f 282/282/282 283/283/283 295/295/295
f 283/283/283 296/296/296 295/295/295
f 283/283/283 284/284/284 296/296/296
f 284/284/284 297/297/297 296/296/296
f 284/284/284 285/285/285 297/297/297
f 285/285/285 298/298/298 297/297/297
f 285/285/285 286/286/286 298/298/298
f 286/286/286 299/299/299 298/298/298
f 286/286/286 287/287/287 299/299/299
f 287/287/287 300/300/300 299/299/299
f 287/287/287 288/288/288 300/300/300
f 288/288/288 301/301/301 300/300/300
f 288/288/288 289/289/289 301/301/301
f 289/289/289 302/302/302 301/301/301
f 289/289/289 290/290/290 302/302/302
f 290/290/290 303/303/303 302/302/302
f 290/290/290 291/291/291 303/303/303
f 291/291/291 304/304/304 303/303/303
f 292/292/292 293/293/293 305/305/305
f 293/293/293 306/306/306 305/305/305
f 293/293/293 294/294/294 306/306/306
f 294/294/294 307/307/307 306/306/306
f 294/294/294 295/295/295 307/307/307
f 295/295/295 308/308/308 307/307/307
f 295/295/295 296/296/296 308/308/308
f 296/296/296 309/309/309 308/308/308
f 296/296/296 297/297/297 309/309/309
f 297/297/297 310/310/310 309/309/309
f 297/297/297 298/298/298 310/310/310
f 298/298/298 311/311/311 310/310/310
f 298/298/298 299/299/299 311/311/311
f 299/299/299 312/312/312 311/311/311
f 299/299/299 300/300/300 312/312/312
f 300/300/300 313/313/313 312/312/312
f 300/300/300 301/301/301 313/313/313
f 301/301/301 314/314/314 313/313/313
f 301/301/301 302/302/302 314/314/314
f 302/302/302 315/315/315 314/314/314
f 302/302/302 303/303/303 315/315/315
f 303/303/303 316/316/316 315/315/315
f 303/303/303 304/304/304 316/316/316
f 304/304/304 317/317/317 316/316/316
f 305/305/305 306/306/306 318/318/318
f 306/306/306 319/319/319 318/318/318
f 306/306/306 307/307/307 319/319/319
f 307/307/307 320/320/320 319/319/319
f 307/307/307 308/308/308 320/320/320
f 308/308/308 321/321/321 320/320/320
f 308/308/308 309/309/309 321/321/321
f 309/309/309 322/322/322 321/321/321
f 309/309/309 310/310/310 322/322/322
f 310/310/310 323/323/323 322/322/322
f 310/310/310 311/311/311 323/323/323
f 311/311/311 324/324/324 323/323/323
f 311/311/311 312/312/312 324/324/324
f 312/312/312 325/325/325 324/324/324
f 312/312/312 313/313/313 325/325/325
f 313/313/313 326/326/326 325/325/325
f 313/313/313 314/314/314 326/326/326
f 314/314/314 327/327/327 326/326/326
f 314/314/314 315/315/315 327/327/327
f 315/315/315 328/328/328 327/327/327
f 315/315/315 316/316/316 328/328/328
f 316/316/316 329/329/329 328/328/328
f 316/316/316 317/317/317 329/329/329
f 317/317/317 330/330/330 329/329/329
f 318/318/318 319/319/319 331/331/331
f 319/319/319 332/332/332 331/331/331
f 319/319/319 320/320/320 332/332/332
f 320/320/320 333/333/333 332/332/332
f 320/320/320 321/321/321 333/333/333
f 321/321/321 334/334/334 333/333/333
f 321/321/321 322/322/322 334/334/334
f 322/322/322 335/335/335 334/334/334
f 322/322/322 323/323/323 335/335/335
f 323/323/323 336/336/336 335/335/335
f 323/323/323 324/324/324 336/336/336
f 324/324/324 337/337/337 336/336/336
f 324/324/324 325/325/325 337/337/337
f 325/325/325 338/338/338 337/337/337
f 325/325/325 326/326/326 338/338/338
f 326/326/326 339/339/339 338/338/338
f 326/326/326 327/327/327 339/339/339
f 327/327/327 340/340/340 339/339/339
f 327/327/327 328/328/328 340/340/340
f 328/328/328 341/341/341 340/340/340
f 328/328/328 329/329/329 341/341/341
f 329/329/329 342/342/342 341/341/341
f 329/329/329 330/330/330 342/342/342
f 330/330/330 343/343/343 342/342/342
f 331/331/331 332/332/332 344/344/344
f 332/332/332 345/345/345 344/344/344
f 332/332/332 333/333/333 345/345/345
f 333/333/333 346/346/346 345/345/345
f 333/333/333 334/334/334 346/346/346
f 334/334/334 347/347/347 346/346/346
f 334/334/334 335/335/335 347/347/347
f 335/335/335 348/348/348 347/347/347
f 335/335/335 336/336/336 348/348/348
f 336/336/336 349/349/349 348/348/348
f 336/336/336 337/337/337 349/349/349
f 337/337/337 350/350/350 349/349/349
f 337/337/337 338/338/338 350/350/350
f 338/338/338 351/351/351 350/350/350
f 338/338/338 339/339/339 351/351/351
f 339/339/339 352/352/352 351/351/351
f 339/339/339 340/340/340 352/352/352
f 340/340/340 353/353/353 352/352/352
f 340/340/340 341/341/341 353/353/353
f 341/341/341 354/354/354 353/353/353
f 341/341/341 342/342/342 354/354/354
f 342/342/342 355/355/355 354/354/354
f 342/342/342 343/343/343 355/355/355
f 343/343/343 356/356/356 355/355/355
f 344/344/344 345/345/345 357/357/357
f 345/345/345 358/358/358 357/357/357
f 345/345/345 346/346/346 358/358/358
f 346/346/346 359/359/359 358/358/358
f 346/346/346 347/347/347 359/359/359
f 347/347/347 360/360/360 359/359/359
f 347/347/347 348/348/348 360/360/360
f 348/348/348 361/361/361 360/360/360
f 348/348/348 349/349/349 361/361/361
f 349/349/349 362/362/362 361/361/361
f 349/349/349 350/350/350 362/362/362
f 350/350/350 363/363/363 362/362/362
f 350/350/350 351/351/351 363/363/363
f 351/351/351 364/364/364 363/363/363
f 351/351/351 352/352/352 364/364/364
f 352/352/352 365/365/365 364/364/364
f 352/352/352 353/353/353 365/365/365
f 353/353/353 366/366/366 365/365/365
f 353/353/353 354/354/354 366/366/366
f 354/354/354 367/367/367 366/366/366
f 354/354/354 355/355/355 367/367/367
f 355/355/355 368/368/368 367/367/367
f 355/355/355 356/356/356 368/368/368
f 356/356/356 369/369/369 368/368/368
f 357/357/357 358/358/358 370/370/370
f 358/358/358 371/371/371 370/370/370
f 358/358/358 359/359/359 371/371/371
f 359/359/359 372/372/372 371/371/371
f 359/359/359 360/360/360 372/372/372
f 360/360/360 373/373/373 372/372/372
f 360/360/360 361/361/361 373/373/373
f 361/361/361 374/374/374 373/373/373
f 361/361/361 362/362/362 374/374/374
f 362/362/362 375/375/375 374/374/374
f 362/362/362 363/363/363 375/375/375
f 363/363/363 376/376/376 375/375/375
f 363/363/363 364/364/364 376/376/376
f 364/364/364 377/377/377 376/376/376
f 364/364/364 365/365/365 377/377/377
f 365/365/365 378/378/378 377/377/377
f 365/365/365 366/366/366 378/378/378
f 366/366/366 379/379/379 378/378/378
f 366/366/366 367/367/367 379/379/379
f 367/367/367 380/380/380 379/379/379
f 367/367/367 368/368/368 380/380/380
f 368/368/368 381/381/381 380/380/380
f 368/368/368 369/369/369 381/381/381
f 369/369/369 382/382/382 381/381/381
f 370/370/370 371/371/371 383/383/383
f 371/371/371 384/384/384 383/383/383
f 371/371/371 372/372/372 384/384/384
f 372/372/372 385/385/385 384/384/384
f 372/372/372 373/373/373 385/385/385
f 373/373/373 386/386/386 385/385/385
f 373/373/373 374/374/374 386/386/386
f 374/374/374 387/387/387 386/386/386
f 374/374/374 375/375/375 387/387/387
f 375/375/375 388/388/388 387/387/387
f 375/375/375 376/376/376 388/388/388
f 376/376/376 389/389/389 388/388/388
f 376/376/376 377/377/377 389/389/389
f 377/377/377 390/390/390 389/389/389
f 377/377/377 378/378/378 390/390/390
f 378/378/378 391/391/391 390/390/390
f 378/378/378 379/379/379 391/391/391
f 379/379/379 392/392/392 391/391/391
f 379/379/379 380/380/380 392/392/392
f 380/380/380 393/393/393 392/392/392
f 380/380/380 381/381/381 393/393/393
f 381/381/381 394/394/394 393/393/393
f 381/381/381 382/382/382 394/394/394
f 382/382/382 395/395/395 394/394/394
f 383/383/383 384/384/384 396/396/396
f 384/384/384 397/397/397 396/396/396
f 384/384/384 385/385/385 397/397/397
f 385/385/385 398/398/398 397/397/397
f 385/385/385 386/386/386 398/398/398
f 386/386/386 399/399/399 398/398/398
f 386/386/386 387/387/387 399/399/399
f 387/387/387 400/400/400 399/399/399
f 387/387/387 388/388/388 400/400/400
f 388/388/388 401/401/401 400/400/400
f 388/388/388 389/389/389 401/401/401
f 389/389/389 402/402/402 401/401/401
f 389/389/389 390/390/390 402/402/402
f 390/390/390 403/403/403 402/402/402
f 390/390/390 391/391/391 403/403/403
f 391/391/391 404/404/404 403/403/403
f 391/391/391 392/392/392 404/404/404
f 392/392/392 405/405/405 404/404/404
f 392/392/392 393/393/393 405/405/405
f 393/393/393 406/406/406 405/405/405
f 393/393/393 394/394/394 406/406/406
f 394/394/394 407/407/407 406/406/406
f 394/394/394 395/395/395 407/407/407
f 395/395/395 408/408/408 407/407/407
f 396/396/396 397/397/397 409/409/409
f 397/397/397 410/410/410 409/409/409
f 397/397/397 398/398/398 410/410/410
f 398/398/398 411/411/411 410/410/410
f 398/398/398 399/399/399 411/411/411
f 399/399/399 412/412/412 411/411/411
f 399/399/399 400/400/400 412/412/412
f 400/400/400 413/413/413 412/412/412
f 400/400/400 401/401/401 413/413/413
f 401/401/401 414/414/414 413/413/413
f 401/401/401 402/402/402 414/414/414
f 402/402/402 415/415/415 414/414/414
f 402/402/402 403/403/403 415/415/415
f 403/403/403 416/416/416 415/415/415
f 403/403/403 404/404/404 416/416/416
f 404/404/404 417/417/417 416/416/416
f 404/404/404 405/405/405 417/417/417
f 405/405/405 418/418/418 417/417/417
f 405/405/405 406/406/406 418/418/418
f 406/406/406 419/419/419 418/418/418
f 406/406/406 407/407/407 419/419/419
f 407/407/407 420/420/420 419/419/419
f 407/407/407 408/408/408 420/420/420
f 408/408/408 421/421/421 420/420/420
f 409/409/409 410/410/410 422/422/422
f 410/410/410 423/423/423 422/422/422
f 410/410/410 411/411/411 423/423/423
f 411/411/411 424/424/424 423/423/423
f 411/411/411 412/412/412 424/424/424
f 412/412/412 425/425/425 424/424/424
f 412/412/412 413/413/413 425/425/425
f 413/413/413 426/426/426 425/425/425
f 413/413/413 414/414/414 426/426/426
f 414/414/414 427/427/427 426/426/426
f 414/414/414 415/415/415 427/427/427
f 415/415/415 428/428/428 427/427/427
f 415/415/415 416/416/416 428/428/428
f 416/416/416 429/429/429 428/428/428
f 416/416/416 417/417/417 429/429/429
f 417/417/417 430/430/430 429/429/429
f 417/417/417 418/418/418 430/430/430
f 418/418/418 431/431/431 430/430/430
f 418/418/418 419/419/419 431/431/431
f 419/419/419 432/432/432 431/431/431
f 419/419/419 420/420/420 432/432/432
f 420/420/420 433/433/433 432/432/432
f 420/420/420 421/421/421 433/433/433
f 421/421/421 434/434/434 433/433/433
f 422/422/422 423/423/423 435/435/435
f 423/423/423 436/436/436 435/435/435
f 423/423/423 424/424/424 436/436/436
f 424/424/424 437/437/437 436/436/436
f 424/424/424 425/425/425 437/437/437
f 425/425/425 438/438/438 437/437/437
f 425/425/425 426/426/426 438/438/438
f 426/426/426 439/439/439 438/438/438
f 426/426/426 427/427/427 439/439/439
f 427/427/427 440/440/440 439/439/439
f 427/427/427 428/428/428 440/440/440
f 428/428/428 441/441/441 440/440/440
f 428/428/428 429/429/429 441/441/441
f 429/429/429 442/442/442 441/441/441
f 429/429/429 430/430/430 442/442/442
f 430/430/430 443/443/443 442/442/442
f 430/430/430 431/431/431 443/443/443
f 431/431/431 444/444/444 443/443/443
f 431/431/431 432/432/432 444/444/444
f 432/432/432 445/445/445 444/444/444
f 432/432/432 433/433/433 445/445/445
f 433/433/433 446/446/446 445/445/445
f 433/433/433 434/434/434 446/446/446
f 434/434/434 447/447/447 446/446/446
f 435/435/435 436/436/436 448/448/448
f 436/436/436 437/437/437 448/448/448
f 437/437/437 438/438/438 448/448/448
f 438/438/438 439/439/439 448/448/448
f 439/439/439 440/440/440 448/448/448
f 440/440/440 441/441/441 448/448/448
f 441/441/441 442/442/442 448/448/448
f 442/442/442 443/443/443 448/448/448
f 443/443/443 444/444/444 448/448/448
f 444/444/444 445/445/445 448/448/448
f 445/445/445 446/446/446 448/448/448
f 446/446/446 447/447/447 448/448/448
f 449/449/449 450/450/450 462/462/462
f 450/450/450 463/463/463 462/462/462
f 450/450/450 451/451/451 463/463/463
f 451/451/451 464/464/464 463/463/463
f 451/451/451 452/452/452 464/464/464
f 452/452/452 465/465/465 464/464/464
f 452/452/452 453/453/453 465/465/465
f 453/453/453 466/466/466 465/465/465
f 453/453/453 454/454/454 466/466/466
f 454/454/454 467/467/467 466/466/466
f 454/454/454 455/455/455 467/467/467
f 455/455/455 468/468/468 467/467/467
f 455/455/455 456/456/456 468/468/468
f 456/456/456 469/469/469 468/468/468
f 456/456/456 457/457/457 469/469/469
f 457/457/457 470/470/470 469/469/469
f 457/457/457 458/458/458 470/470/470
f 458/458/458 471/471/471 470/470/470
f 458/458/458 459/459/459 471/471/471
f 459/459/459 472/472/472 471/471/471
f 459/459/459 460/460/460 472/472/472
f 460/460/460 473/473/473 472/472/472
f 460/460/460 461/461/461 473/473/473
f 461/461/461 474/474/474 473/473/473
f 462/462/462 463/463/463 475/475/475
f 463/463/463 476/476/476 475/475/475
f 463/463/463 464/464/464 476/476/476
f 464/464/464 477/477/477 476/476/476
f 464/464/464 465/465/465 477/477/477
f 465/465/465 478/478/478 477/477/477
f 465/465/465 466/466/466 478/478/478
f 466/466/466 479/479/479 478/478/478
f 466/466/466 467/467/467 479/479/479
f 467/467/467 480/480/480 479/479/479
f 467/467/467 468/468/468 480/480/480
f 468/468/468 481/481/481 480/480/480
f 468/468/468 469/469/469 481/481/481
f 469/469/469 482/482/482 481/481/481
f 469/469/469 470/470/470 482/482/482
f 470/470/470 483/483/483 482/482/482
f 470/470/470 471/471/471 483/483/483
f 471/471/471 484/484/484 483/483/483
f 471/471/471 472/472/472 484/484/484
f 472/472/472 485/485/485 484/484/484
f 472/472/472 473/473/473 485/485/485
f 473/473/473 486/486/486 485/485/485
f 473/473/473 474/474/474 486/486/486
f 474/474/474 487/487/487 486/486/486
f 475/475/475 476/476/476 488/488/488
f 476/476/476 489/489/489 488/488/488
f 476/476/476 477/477/477 489/489/489
f 477/477/477 490/490/490 489/489/489
f 477/477/477 478/478/478 490/490/490
f 478/478/478 491/491/491 490/490/490
f 478/478/478 479/479/479 491/491/491
f 479/479/479 492/492/492 491/491/491
f 479/479/479 480/480/480 492/492/492
f 480/480/480 493/493/493 492/492/492
f 480/480/480 481/481/481 493/493/493
f 481/481/481 494/494/494 493/493/493
f 481/481/481 482/482/482 494/494/494
f 482/482/482 495/495/495 494/494/494
f 482/482/482 483/483/483 495/495/495
f 483/483/483 496/496/496 495/495/495
f 483/483/483 484/484/484 496/496/496
f 484/484/484 497/497/497 496/496/496
f 484/484/484 485/485/485 497/497/497
f 485/485/485 498/498/498 497/497/497
f 485/485/485 486/486/486 498/498/498
f 486/486/486 499/499/499 498/498/498
f 486/486/486 487/487/487 499/499/499
f 487/487/487 500/500/500 499/499/499
f 488/488/488 489/489/489 501/501/501
f 489/489/489 502/502/502 501/501/501
f 489/489/489 490/490/490 502/502/502
f 490/490/490 503/503/503 502/502/502
f 490/490/490 491/491/491 503/503/503
f 491/491/491 504/504/504 503/503/503
f 491/491/491 492/492/492 504/504/504
f 492/492/492 505/505/505 504/504/504
f 492/492/492 493/493/493 505/505/505
f 493/493/493 506/506/506 505/505/505
f 493/493/493 494/494/494 506/506/506
f 494/494/494 507/507/507 506/506/506
f 494/494/494 495/495/495 507/507/507
f 495/495/495 508/508/508 507/507/507
f 495/495/495 496/496/496 508/508/508
f 496/496/496 509/509/509 508/508/508
f 496/496/496 497/497/497 509/509/509
f 497/497/497 510/510/510 509/509/509
f 497/497/497 498/498/498 510/510/510
f 498/498/498 511/511/511 510/510/510
f 498/498/498 499/499/499 511/511/511
f 499/499/499 512/512/512 511/511/511
f 499/499/499 500/500/500 512/512/512
f 500/500/500 513/513/513 512/512/512
f 501/501/501 502/502/502 514/514/514
f 502/502/502 515/515/515 514/514/514
f 502/502/502 503/503/503 515/515/515
f 503/503/503 516/516/516 515/515/515
f 503/503/503 504/504/504 516/516/516
f 504/504/504 517/517/517 516/516/516
f 504/504/504 505/505/505 517/517/517
f 505/505/505 518/518/518 517/517/517
f 505/505/505 506/506/506 518/518/518
f 506/506/506 519/519/519 518/518/518
f 506/506/506 507/507/507 519/519/519
f 507/507/507 520/520/520 519/519/519
f 507/507/507 508/508/508 520/520/520
f 508/508/508 521/521/521 520/520/520
f 508/508/508 509/509/509 521/521/521
f 509/509/509 522/522/522 521/521/521
f 509/509/509 510/510/510 522/522/522
f 510/510/510 523/523/523 522/522/522
f 510/510/510 511/511/511 523/523/523
f 511/511/511 524/524/524 523/523/523
f 511/511/511 512/512/512 524/524/524
f 512/512/512 525/525/525 524/524/524
f 512/512/512 513/513/513 525/525/525
f 513/513/513 526/526/526 525/525/525
f 514/514/514 515/515/515 527/527/527
f 515/515/515 528/528/528 527/527/527
f 515/515/515 516/516/516 528/528/528
f 516/516/516 529/529/529 528/528/528
f 516/516/516 517/517/517 529/529/529
f 517/517/517 530/530/530 529/529/529
f 517/517/517 518/518/518 530/530/530
f 518/518/518 531/531/531 530/530/530
f 518/518/518 519/519/519 531/531/531
f 519/519/519 532/532/532 531/531/531
f 519/519/519 520/520/520 532/532/532
f 520/520/520 533/533/533 532/532/532
f 520/520/520 521/521/521 533/533/533
f 521/521/521 534/534/534 533/533/533
f 521/521/521 522/522/522 534/534/534
f 522/522/522 535/535/535 534/534/534
f 522/522/522 523/523/523 535/535/535
f 523/523/523 536/536/536 535/535/535
f 523/523/523 524/524/524 536/536/536
f 524/524/524 537/537/537 536/536/536
f 524/524/524 525/525/525 537/537/537
f 525/525/525 538/538/538 537/537/537
f 525/525/525 526/526/526 538/538/538
f 526/526/526 539/539/539 538/538/538
f 527/527/527 528/528/528 540/540/540
f 528/528/528 541/541/541 540/540/540
f 528/528/528 529/529/529 541/541/541
f 529/529/529 542/542/542 541/541/541
f 529/529/529 530/530/530 542/542/542
f 530/530/530 543/543/543 542/542/542
f 530/530/530 531/531/531 543/543/543
f 531/531/531 544/544/544 543/543/543
f 531/531/531 532/532/532 544/544/544
f 532/532/532 545/545/545 544/544/544
f 532/532/532 533/533/533 545/545/545
f 533/533/533 546/546/546 545/545/545
f 533/533/533 534/534/534 546/546/546
f 534/534/534 547/547/547 546/546/546
f 534/534/534 535/535/535 547/547/547
f 535/535/535 548/548/548 547/547/547
f 535/535/535 536/536/536 548/548/548
f 536/536/536 549/549/549 548/548/548
f 536/536/536 537/537/537 549/549/549
f 537/537/537 550/550/550 549/549/549
f 537/537/537 538/538/538 550/550/550
f 538/538/538 551/551/551 550/550/550
f 538/538/538 539/539/539 551/551/551
f 539/539/539 552/552/552 551/551/551
f 540/540/540 541/541/541 553/553/553
f 541/541/541 554/554/554 553/553/553
f 541/541/541 542/542/542 554/554/554
f 542/542/542 555/555/555 554/554/554
f 542/542/542 543/543/543 555/555/555
f 543/543/543 556/556/556 555/555/555
f 543/543/543 544/544/544 556/556/556
f 544/544/544 557/557/557 556/556/556
f 544/544/544 545/545/545 557/557/557
f 545/545/545 558/558/558 557/557/557
f 545/545/545 546/546/546 558/558/558
f 546/546/546 559/559/559 558/558/558
f 546/546/546 547/547/547 559/559/559
f 547/547/547 560/560/560 559/559/559
f 547/547/547 548/548/548 560/560/560
f 548/548/548 561/561/561 560/560/560
f 548/548/548 549/549/549 561/561/561
f 549/549/549 562/562/562 561/561/561
f 549/549/549 550/550/550 562/562/562
f 550/550/550 563/563/563 562/562/562
f 550/550/550 551/551/551 563/563/563
f 551/551/551 564/564/564 563/563/563
f 551/551/551 552/552/552 564/564/564
f 552/552/552 565/565/565 564/564/564
f 553/553/553 554/554/554 566/566/566
f 554/554/554 567/567/567 566/566/566
f 554/554/554 555/555/555 567/567/567
f 555/555/555 568/568/568 567/567/567
f 555/555/555 556/556/556 568/568/568
f 556/556/556 569/569/569 568/568/568
f 556/556/556 557/557/557 569/569/569
f 557/557/557 570/570/570 569/569/569
f 557/557/557 558/558/558 570/570/570
f 558/558/558 571/571/571 570/570/570
f 558/558/558 559/559/559 571/571/571
f 559/559/559 572/572/572 571/571/571
f 559/559/559 560/560/560 572/572/572
f 560/560/560 573/573/573 572/572/572
f 560/560/560 561/561/561 573/573/573
f 561/561/561 574/574/574 573/573/573
f 561/561/561 562/562/562 574/574/574
f 562/562/562 575/575/575 574/574/574
f 562/562/562 563/563/563 575/575/575
f 563/563/563 576/576/576 575/575/575
f 563/563/563 564/564/564 576/576/576
f 564/564/564 577/577/577 576/576/576
f 564/564/564 565/565/565 577/577/577
f 565/565/565 578/578/578 577/577/577
f 566/566/566 567/567/567 579/579/579
f 567/567/567 580/580/580 579/579/579
f 567/567/567 568/568/568 580/580/580
f 568/568/568 581/581/581 580/580/580
f 568/568/568 569/569/569 581/581/581
f 569/569/569 582/582/582 581/581/581
f 569/569/569 570/570/570 582/582/582
f 570/570/570 583/583/583 582/582/582
f 570/570/570 571/571/571 583/583/583
f 571/571/571 584/584/584 583/583/583
f 571/571/571 572/572/572 584/584/584
f 572/572/572 585/585/585 584/584/584
f 572/572/572 573/573/573 585/585/585
f 573/573/573 586/586/586 585/585/585
f 573/573/573 574/574/574 586/586/586
f 574/574/574 587/587/587 586/586/586
f 574/574/574 575/575/575 587/587/587
f 575/575/575 588/588/588 587/587/587
f 575/575/575 576/576/576 588/588/588
f 576/576/576 589/589/589 588/588/588
f 576/576/576 577/577/577 589/589/589
f 577/577/577 590/590/590 589/589/589
f 577/577/577 578/578/578 590/590/590
f 578/578/578 591/591/591 590/590/590
f 579/579/579 580/580/580 592/592/592
f 580/580/580 593/593/593 592/592/592
f 580/580/580 581/581/581 593/593/593
f 581/581/581 594/594/594 593/593/593
f 581/581/581 582/582/582 594/594/594
f 582/582/582 595/595/595 594/594/594
f 582/582/582 583/583/583 595/595/595
f 583/583/583 596/596/596 595/595/595
f 583/583/583 584/584/584 596/596/596
f 584/584/584 597/597/597 596/596/596
f 584/584/584 585/585/585 597/597/597
f 585/585/585 598/598/598 597/597/597
f 585/585/585 586/586/586 598/598/598
f 586/586/586 599/599/599 598/598/598
f 586/586/586 587/587/587 599/599/599
f 587/587/587 600/600/600 599/599/599
f 587/587/587 588/588/588 600/600/600
f 588/588/588 601/601/601 600/600/600
f 588/588/588 589/589/589 601/601/601
f 589/589/589 602/602/602 601/601/601
f 589/589/589 590/590/590 602/602/602
f 590/590/590 603/603/603 602/602/602
f 590/590/590 591/591/591 603/603/603
f 591/591/591 604/604/604 603/603/603
f 592/592/592 593/593/593 605/605/605
f 593/593/593 606/606/606 605/605/605
f 593/593/593 594/594/594 606/606/606
f 594/594/594 607/607/607 606/606/606
f 594/594/594 595/595/595 607/607/607
f 595/595/595 608/608/608 607/607/607
f 595/595/595 596/596/596 608/608/608
f 596/596/596 609/609/609 608/608/608
f 596/596/596 597/597/597 609/609/609
f 597/597/597 610/610/610 609/609/609
f 597/597/597 598/598/598 610/610/610
f 598/598/598 611/611/611 610/610/610
f 598/598/598 599/599/599 611/611/611
f 599/599/599 612/612/612 611/611/611
f 599/599/599 600/600/600 612/612/612
f 600/600/600 613/613/613 612/612/612
f 600/600/600 601/601/601 613/613/613
f 601/601/601 614/614/614 613/613/613
f 601/601/601 602/602/602 614/614/614
f 602/602/602 615/615/615 614/614/614
f 602/602/602 603/603/603 615/615/615
f 603/603/603 616/616/616 615/615/615
f 603/603/603 604/604/604 616/616/616
f 604/604/604 617/617/617 616/616/616
f 605/605/605 606/606/606 618/618/618
f 606/606/606 619/619/619 618/618/618
f 606/606/606 607/607/607 619/619/619
f 607/607/607 620/620/620 619/619/619
f 607/607/607 608/608/608 620/620/620
f 608/608/608 621/621/621 620/620/620
f 608/608/608 609/609/609 621/621/621
f 609/609/609 622/622/622 621/621/621
f 609/609/609 610/610/610 622/622/622
f 610/610/610 623/623/623 622/622/622
f 610/610/610 611/611/611 623/623/623
f 611/611/611 624/624/624 623/623/623
f 611/611/611 612/612/612 624/624/624
f 612/612/612 625/625/625 624/624/624
f 612/612/612 613/613/613 625/625/625
f 613/613/613 626/626/626 625/625/625
f 613/613/613 614/614/614 626/626/626
f 614/614/614 627/627/627 626/626/626
f 614/614/614 615/615/615 627/627/627
f 615/615/615 628/628/628 627/627/627
f 615/615/615 616/616/616 628/628/628
f 616/616/616 629/629/629 628/628/628
f 616/616/616 617/617/617 629/629/629
f 617/617/617 630/630/630 629/629/629
f 618/618/618 619/619/619 631/631/631
f 619/619/619 632/632/632 631/631/631
f 619/619/619 620/620/620 632/632/632
f 620/620/620 633/633/633 632/632/632
f 620/620/620 621/621/621 633/633/633
f 621/621/621 634/634/634 633/633/633
f 621/621/621 622/622/622 634/634/634
f 622/622/622 635/635/635 634/634/634
f 622/622/622 623/623/623 635/635/635
f 623/623/623 636/636/636 635/635/635
f 623/623/623 624/624/624 636/636/636
f 624/624/624 637/637/637 636/636/636
f 624/624/624 625/625/625 637/637/637
f 625/625/625 638/638/638 637/637/637
f 625/625/625 626/626/626 638/638/638
f 626/626/626 639/639/639 638/638/638
f 626/626/626 627/627/627 639/639/639
f 627/627/627 640/640/640 639/639/639
f 627/627/627 628/628/628 640/640/640
f 628/628/628 641/641/641 640/640/640
f 628/628/628 629/629/629 641/641/641
f 629/629/629 642/642/642 641/641/641
f 629/629/629 630/630/630 642/642/642
f 630/630/630 643/643/643 642/642/642
f 631/631/631 632/632/632 644/644/644
f 632/632/632 645/645/645 644/644/644
f 632/632/632 633/633/633 645/645/645
f 633/633/633 646/646/646 645/645/645
f 633/633/633 634/634/634 646/646/646
f 634/634/634 647/647/647 646/646/646
f 634/634/634 635/635/635 647/647/647
f 635/635/635 648/648/648 647/647/647
f 635/635/635 636/636/636 648/648/648
f 636/636/636 649/649/649 648/648/648
f 636/636/636 637/637/637 649/649/649
f 637/637/637 650/650/650 649/649/649
f 637/637/637 638/638/638 650/650/650
f 638/638/638 651/651/651 650/650/650
f 638/638/638 639/639/639 651/651/651
f 639/639/639 652/652/652 651/651/651
f 639/639/639 640/640/640 652/652/652
f 640/640/640 653/653/653 652/652/652
f 640/640/640 641/641/641 653/653/653
f 641/641/641 654/654/654 653/653/653
f 641/641/641 642/642/642 654/654/654
f 642/642/642 655/655/655 654/654/654
f 642/642/642 643/643/643 655/655/655
f 643/643/643 656/656/656 655/655/655
f 644/644/644 645/645/645 657/657/657
f 645/645/645 646/646/646 657/657/657
f 646/646/646 647/647/647 657/657/657
f 647/647/647 648/648/648 657/657/657
f 648/648/648 649/649/649 657/657/657
f 649/649/649 650/650/650 657/657/657
f 650/650/650 651/651/651 657/657/657
f 651/651/651 652/652/652 657/657/657
f 652/652/652 653/653/653 657/657/657
f 653/653/653 654/654/654 657/657/657
f 654/654/654 655/655/655 657/657/657
f 655/655/655 656/656/656 657/657/657
