# generated by generate_assets.py
mtllib desert.mtl
o rock_a
v 0.00000 0.60748 0.00000
v 0.00000 0.60748 0.00000
v 0.00000 0.60748 0.00000
v 0.00000 0.60748 0.00000
v 0.00000 0.60748 0.00000
v 0.00000 0.60748 0.00000
v 0.00000 0.60748 0.00000
v 0.00000 0.60748 0.00000
v -0.00000 0.60748 0.00000
v -0.00000 0.60748 0.00000
v -0.00000 0.60748 0.00000
v -0.00000 0.60748 0.00000
v -0.00000 0.60748 0.00000
v -0.00000 0.60748 0.00000
v -0.00000 0.60748 0.00000
v -0.00000 0.60748 -0.00000
v -0.00000 0.60748 -0.00000
v -0.00000 0.60748 -0.00000
v -0.00000 0.60748 -0.00000
v -0.00000 0.60748 -0.00000
v -0.00000 0.60748 -0.00000
v -0.00000 0.60748 -0.00000
v 0.00000 0.60748 -0.00000
v 0.00000 0.60748 -0.00000
v 0.00000 0.60748 -0.00000
v 0.00000 0.60748 -0.00000
v 0.00000 0.60748 -0.00000
v 0.00000 0.60748 -0.00000
v 0.00000 0.60748 -0.00000
v 0.12880 0.58827 0.00000
v 0.12614 0.59025 0.02879
v 0.11722 0.59272 0.05645
v 0.10227 0.59512 0.08156
v 0.08188 0.59687 0.10267
v 0.05707 0.59760 0.11851
v 0.02926 0.59737 0.12818
v 0.00000 0.59656 0.13123
v -0.02914 0.59562 0.12768
v -0.05673 0.59489 0.11779
v -0.08143 0.59440 0.10211
v -0.10203 0.59408 0.08137
v -0.11752 0.59384 0.05659
v -0.12713 0.59373 0.02902
v -0.13042 0.59378 0.00000
v -0.12719 0.59394 -0.02903
v -0.11755 0.59395 -0.05661
v -0.10191 0.59354 -0.08127
v -0.08110 0.59259 -0.10169
v -0.05627 0.59128 -0.11684
v -0.02877 0.58997 -0.12606
v -0.00000 0.58897 -0.12900
v 0.02866 0.58832 -0.12558
v 0.05583 0.58786 -0.11593
v 0.08015 0.58740 -0.10050
v 0.10040 0.58696 -0.08006
v 0.11564 0.58674 -0.05569
v 0.12523 0.58710 -0.02858
v 0.12880 0.58827 -0.00000
v 0.24460 0.55322 0.00000
v 0.24022 0.55618 0.05483
v 0.22500 0.56169 0.10836
v 0.19838 0.56829 0.15821
v 0.15988 0.57271 0.20048
v 0.11110 0.57211 0.23070
v 0.05628 0.56695 0.24659
v 0.00000 0.56060 0.24908
v -0.05487 0.55646 0.24038
v -0.10678 0.55569 0.22173
v -0.15386 0.55681 0.19294
v -0.19298 0.55690 0.15390
v -0.22103 0.55441 0.10644
v -0.23704 0.55081 0.05410
v -0.24212 0.54913 0.00000
v -0.23705 0.55082 -0.05410
v -0.22091 0.55419 -0.10638
v -0.19243 0.55575 -0.15346
v -0.15262 0.55353 -0.19138
v -0.10512 0.54940 -0.21829
v -0.05362 0.54723 -0.23492
v -0.00000 0.54927 -0.24220
v 0.05458 0.55433 -0.23912
v 0.10763 0.55894 -0.22350
v 0.15514 0.56017 -0.19453
v 0.19350 0.55799 -0.15431
v 0.22123 0.55478 -0.10654
v 0.23825 0.55286 -0.05438
v 0.24460 0.55322 -0.00000
v 0.35564 0.51959 0.00000
v 0.34633 0.51918 0.07905
v 0.32133 0.52064 0.15475
v 0.28344 0.52676 0.22604
v 0.22964 0.53276 0.28796
v 0.15902 0.53088 0.33021
v 0.07980 0.52269 0.34963
v 0.00000 0.51566 0.35186
v -0.07774 0.51308 0.34061
v -0.15236 0.51492 0.31637
v -0.22161 0.51938 0.27789
v -0.27834 0.51998 0.22197
v -0.31393 0.51211 0.15118
v -0.32935 0.50107 0.07517
v -0.33205 0.49508 0.00000
v -0.32550 0.49697 -0.07429
v -0.30686 0.50395 -0.14777
v -0.26969 0.50849 -0.21507
v -0.21300 0.50502 -0.26709
v -0.14555 0.49861 -0.30223
v -0.07452 0.49801 -0.32648
v -0.00000 0.50504 -0.34163
v 0.07849 0.51658 -0.34389
v 0.15731 0.52679 -0.32666
v 0.22738 0.52900 -0.28513
v 0.28153 0.52422 -0.22451
v 0.32076 0.51999 -0.15447
v 0.34647 0.51932 -0.07908
v 0.35564 0.51959 -0.00000
v 0.44886 0.47096 0.00000
v 0.44314 0.47502 0.10114
v 0.41095 0.47615 0.19790
v 0.35715 0.47664 0.28482
v 0.28613 0.47814 0.35879
v 0.19793 0.47620 0.41101
v 0.09977 0.47061 0.43714
v 0.00000 0.46594 0.44184
v -0.09781 0.46430 0.42853
v -0.19138 0.46540 0.39741
v -0.27713 0.46783 0.34751
v -0.34560 0.46608 0.27561
v -0.38646 0.45671 0.18611
v -0.40454 0.44671 0.09233
v -0.40912 0.44254 0.00000
v -0.39924 0.44282 -0.09112
v -0.37078 0.44427 -0.17856
v -0.32169 0.44421 -0.25654
v -0.25465 0.44204 -0.31932
v -0.17774 0.44292 -0.36908
v -0.09307 0.44908 -0.40778
v -0.00000 0.45649 -0.42863
v 0.09789 0.46457 -0.42890
v 0.19589 0.47283 -0.40676
v 0.28364 0.47530 -0.35568
v 0.35135 0.47134 -0.28019
v 0.40017 0.46759 -0.19271
v 0.43286 0.46748 -0.09880
v 0.44886 0.47096 -0.00000
v 0.52074 0.41217 0.00000
v 0.52346 0.42032 0.11948
v 0.49410 0.42610 0.23795
v 0.42370 0.42284 0.33789
v 0.32949 0.41606 0.41316
v 0.23132 0.41841 0.48034
v 0.11793 0.41682 0.51669
v 0.00000 0.40677 0.51001
v -0.11197 0.40335 0.49059
v -0.22388 0.40978 0.46488
v -0.32513 0.41254 0.40770
v -0.40049 0.40790 0.31938
v -0.44781 0.40024 0.21565
v -0.45734 0.38617 0.10439
v -0.44970 0.37640 0.00000
v -0.44526 0.37994 -0.10163
v -0.41774 0.38343 -0.20117
v -0.35298 0.37730 -0.28149
v -0.28166 0.37744 -0.35319
v -0.20177 0.38413 -0.41898
v -0.10459 0.38665 -0.45826
v -0.00000 0.39307 -0.48280
v 0.11244 0.40440 -0.49264
v 0.22373 0.40960 -0.46457
v 0.32281 0.41067 -0.40479
v 0.40578 0.41130 -0.32360
v 0.45990 0.40699 -0.22148
v 0.49576 0.40601 -0.11315
v 0.52074 0.41217 -0.00000
v 0.57529 0.34929 0.00000
v 0.57648 0.35484 0.13158
v 0.54542 0.35971 0.26266
v 0.46734 0.35707 0.37269
v 0.35865 0.34927 0.44973
v 0.25227 0.35141 0.52385
v 0.12949 0.35159 0.56735
v 0.00000 0.34786 0.57117
v -0.12826 0.34967 0.56195
v -0.25749 0.35558 0.53469
v -0.37095 0.35610 0.46515
v -0.45473 0.35148 0.36264
v -0.50853 0.34552 0.24490
v -0.51073 0.33147 0.11657
v -0.49334 0.32090 0.00000
v -0.48340 0.32176 -0.11033
v -0.45314 0.32423 -0.21822
v -0.38146 0.31902 -0.30421
v -0.30783 0.32103 -0.38600
v -0.22234 0.32751 -0.46169
v -0.11328 0.32635 -0.49631
v -0.00000 0.32839 -0.51498
v 0.12057 0.33770 -0.52827
v 0.24195 0.34317 -0.50241
v 0.34987 0.34438 -0.43872
v 0.44452 0.34696 -0.35449
v 0.50679 0.34485 -0.24406
v 0.54836 0.34484 -0.12516
v 0.57529 0.34929 -0.00000
v 0.60773 0.28272 0.00000
v 0.59449 0.28317 0.13569
v 0.54759 0.28273 0.26370
v 0.46474 0.27981 0.37062
v 0.36720 0.27862 0.46046
v 0.25198 0.27682 0.52323
v 0.13466 0.28215 0.58997
v 0.00000 0.28895 0.63629
v -0.14493 0.29223 0.63497
v -0.28076 0.29131 0.58301
v -0.39497 0.28834 0.49528
v -0.48585 0.28571 0.38745
v -0.53608 0.27994 0.25816
v -0.56571 0.27672 0.12912
v -0.56063 0.27243 0.00000
v -0.51601 0.26559 -0.11778
v -0.44739 0.25844 -0.21545
v -0.38977 0.25887 -0.31083
v -0.31730 0.26114 -0.39788
v -0.22482 0.26316 -0.46685
v -0.11917 0.26695 -0.52210
v -0.00000 0.26994 -0.54924
v 0.12555 0.27321 -0.55007
v 0.25506 0.27838 -0.52963
v 0.37964 0.28297 -0.47606
v 0.48085 0.28431 -0.38346
v 0.56342 0.28657 -0.27133
v 0.60161 0.28476 -0.13731
v 0.60773 0.28272 -0.00000
v 0.62596 0.21622 0.00000
v 0.56891 0.21174 0.12985
v 0.50177 0.20892 0.24164
v 0.43146 0.20838 0.34407
v 0.34749 0.20896 0.43573
v 0.23743 0.20789 0.49303
v 0.13331 0.21338 0.58409
v 0.00000 0.22114 0.67245
v -0.15452 0.22346 0.67699
v -0.29112 0.22099 0.60452
v -0.40177 0.21817 0.50380
v -0.48711 0.21592 0.38846
v -0.54807 0.21436 0.26393
v -0.60200 0.21533 0.13740
v -0.60000 0.21348 0.00000
v -0.53658 0.20823 -0.12247
v -0.44958 0.20279 -0.21651
v -0.39498 0.20345 -0.31499
v -0.32230 0.20469 -0.40416
v -0.22187 0.20410 -0.46071
v -0.11925 0.20670 -0.52247
v -0.00000 0.21070 -0.57378
v 0.13247 0.21298 -0.58039
v 0.26569 0.21478 -0.55171
v 0.40179 0.21818 -0.50382
v 0.51792 0.22008 -0.41303
v 0.61252 0.22193 -0.29497
v 0.65175 0.22073 -0.14876
v 0.62596 0.21622 -0.00000
v 0.62203 0.15000 0.00000
v 0.53553 0.15000 0.12223
v 0.45982 0.15000 0.22144
v 0.40504 0.15000 0.32301
v 0.32223 0.15000 0.40407
v 0.23288 0.15000 0.48357
v 0.12806 0.15000 0.56108
v 0.00000 0.15000 0.64620
v -0.15260 0.15000 0.66859
v -0.29147 0.15000 0.60524
v -0.40068 0.15000 0.50244
v -0.47918 0.15000 0.38213
v -0.55876 0.15000 0.26909
v -0.59847 0.15000 0.13660
v -0.59776 0.15000 0.00000
v -0.54984 0.15000 -0.12550
v -0.48660 0.15000 -0.23434
v -0.40958 0.15000 -0.32663
v -0.32745 0.15000 -0.41061
v -0.22686 0.15000 -0.47107
v -0.11886 0.15000 -0.52074
v -0.00000 0.15000 -0.57517
v 0.13676 0.15000 -0.59921
v 0.27648 0.15000 -0.57412
v 0.41096 0.15000 -0.51533
v 0.54674 0.15000 -0.43601
v 0.63927 0.15000 -0.30786
v 0.67263 0.15000 -0.15352
v 0.62203 0.15000 -0.00000
v 0.59532 0.08702 0.00000
v 0.51540 0.09407 0.11764
v 0.44249 0.09804 0.21309
v 0.37343 0.09947 0.29780
v 0.30523 0.09821 0.38275
v 0.23162 0.09352 0.48096
v 0.12447 0.09082 0.54534
v 0.00000 0.08902 0.57643
v -0.13753 0.08461 0.60257
v -0.27963 0.08182 0.58066
v -0.39017 0.08379 0.48926
v -0.47884 0.08520 0.38186
v -0.54634 0.08585 0.26310
v -0.56564 0.08862 0.12910
v -0.56093 0.09066 0.00000
v -0.55140 0.09016 -0.12585
v -0.51623 0.08938 -0.24860
v -0.42818 0.09206 -0.34146
v -0.32728 0.09447 -0.41039
v -0.22831 0.09433 -0.47409
v -0.11803 0.09388 -0.51713
v -0.00000 0.09098 -0.55787
v 0.13539 0.08563 -0.59316
v 0.27888 0.08200 -0.57910
v 0.40951 0.08051 -0.51351
v 0.53953 0.07699 -0.43026
v 0.63384 0.07557 -0.30524
v 0.64652 0.07984 -0.14756
v 0.59532 0.08702 -0.00000
v 0.54399 0.03120 0.00000
v 0.48968 0.04031 0.11177
v 0.41607 0.04915 0.20037
v 0.33860 0.05542 0.27002
v 0.28747 0.04931 0.36048
v 0.21612 0.04122 0.44878
v 0.11464 0.03749 0.50228
v 0.00000 0.03818 0.51202
v -0.11939 0.03283 0.52307
v -0.24740 0.02548 0.51373
v -0.35986 0.02396 0.45125
v -0.45199 0.02375 0.36045
v -0.49694 0.02955 0.23931
v -0.51918 0.03370 0.11850
v -0.52980 0.03430 0.00000
v -0.53155 0.03093 -0.12132
v -0.49646 0.02967 -0.23908
v -0.41852 0.03310 -0.33376
v -0.31230 0.04061 -0.39161
v -0.21504 0.04176 -0.44654
v -0.11504 0.03710 -0.50404
v -0.00000 0.03262 -0.53751
v 0.12609 0.02625 -0.55245
v 0.26144 0.01841 -0.54288
v 0.38919 0.01368 -0.48803
v 0.49406 0.01200 -0.39400
v 0.57165 0.01144 -0.27529
v 0.57830 0.02046 -0.13199
v 0.54399 0.03120 -0.00000
v 0.48789 0.00000 0.00000
v 0.43473 0.00000 0.09923
v 0.35977 0.01167 0.17326
v 0.30060 0.01681 0.23972
v 0.25045 0.01085 0.31406
v 0.18419 0.00294 0.38248
v 0.09760 0.00000 0.42763
v 0.00000 0.00000 0.45021
v -0.10347 0.00000 0.45331
v -0.21390 0.00000 0.44416
v -0.32467 0.00000 0.40712
v -0.40497 0.00000 0.32295
v -0.45145 0.00000 0.21741
v -0.48145 0.00000 0.10989
v -0.49479 0.00000 0.00000
v -0.48358 0.00000 -0.11037
v -0.44651 0.00000 -0.21503
v -0.37885 0.00000 -0.30212
v -0.28925 0.00000 -0.36271
v -0.19805 0.00000 -0.41125
v -0.10604 0.00000 -0.46460
v -0.00000 0.00000 -0.50258
v 0.11502 0.00000 -0.50392
v 0.23119 0.00000 -0.48006
v 0.34325 0.00000 -0.43043
v 0.42544 0.00000 -0.33928
v 0.46866 0.00000 -0.22569
v 0.49370 0.00000 -0.11268
v 0.48789 0.00000 -0.00000
v 0.40495 0.00000 0.00000
v 0.36317 0.00000 0.08289
v 0.30902 0.00000 0.14881
v 0.26141 0.00000 0.20847
v 0.20841 0.00000 0.26134
v 0.14911 0.00000 0.30963
v 0.07910 0.00000 0.34656
v 0.00000 0.00000 0.36542
v -0.08527 0.00000 0.37360
v -0.18280 0.00000 0.37959
v -0.28337 0.00000 0.35534
v -0.35669 0.00000 0.28445
v -0.40571 0.00000 0.19538
v -0.43151 0.00000 0.09849
v -0.42999 0.00000 0.00000
v -0.41071 0.00000 -0.09374
v -0.37675 0.00000 -0.18143
v -0.32297 0.00000 -0.25756
v -0.25615 0.00000 -0.32120
v -0.17763 0.00000 -0.36885
v -0.09263 0.00000 -0.40582
v -0.00000 0.00000 -0.43932
v 0.10186 0.00000 -0.44628
v 0.20124 0.00000 -0.41787
v 0.29255 0.00000 -0.36684
v 0.35807 0.00000 -0.28555
v 0.38576 0.00000 -0.18577
v 0.40512 0.00000 -0.09247
v 0.40495 0.00000 -0.00000
v 0.31078 0.00000 0.00000
v 0.28913 0.00000 0.06599
v 0.25512 0.00000 0.12286
v 0.21317 0.00000 0.17000
v 0.16492 0.00000 0.20681
v 0.11317 0.00000 0.23500
v 0.05919 0.00000 0.25935
v 0.00000 0.00000 0.28117
v -0.06764 0.00000 0.29634
v -0.14345 0.00000 0.29788
v -0.22034 0.00000 0.27629
v -0.28557 0.00000 0.22773
v -0.33092 0.00000 0.15936
v -0.35368 0.00000 0.08072
v -0.35291 0.00000 0.00000
v -0.33286 0.00000 -0.07597
v -0.30173 0.00000 -0.14531
v -0.26314 0.00000 -0.20984
v -0.21409 0.00000 -0.26846
v -0.15240 0.00000 -0.31646
v -0.08005 0.00000 -0.35073
v -0.00000 0.00000 -0.36820
v 0.08314 0.00000 -0.36427
v 0.16258 0.00000 -0.33761
v 0.23080 0.00000 -0.28941
v 0.27947 0.00000 -0.22287
v 0.30615 0.00000 -0.14743
v 0.31607 0.00000 -0.07214
v 0.31078 0.00000 -0.00000
v 0.24288 0.00000 0.00000
v 0.22617 0.00000 0.05162
v 0.19730 0.00000 0.09501
v 0.16233 0.00000 0.12946
v 0.12461 0.00000 0.15626
v 0.08511 0.00000 0.17674
v 0.04427 0.00000 0.19397
v 0.00000 0.00000 0.20875
v -0.04923 0.00000 0.21570
v -0.10135 0.00000 0.21045
v -0.15404 0.00000 0.19316
v -0.20334 0.00000 0.16216
v -0.24086 0.00000 0.11599
v -0.26039 0.00000 0.05943
v -0.26234 0.00000 0.00000
v -0.25128 0.00000 -0.05735
v -0.23208 0.00000 -0.11177
v -0.20524 0.00000 -0.16367
v -0.16815 0.00000 -0.21085
v -0.12051 0.00000 -0.25024
v -0.06355 0.00000 -0.27844
v -0.00000 0.00000 -0.29018
v 0.06439 0.00000 -0.28211
v 0.12266 0.00000 -0.25472
v 0.16922 0.00000 -0.21219
v 0.20360 0.00000 -0.16236
v 0.22881 0.00000 -0.11019
v 0.24342 0.00000 -0.05556
v 0.24288 0.00000 -0.00000
v 0.16541 0.00000 0.00000
v 0.15624 0.00000 0.03566
v 0.13872 0.00000 0.06681
v 0.11567 0.00000 0.09224
v 0.08926 0.00000 0.11193
v 0.06075 0.00000 0.12614
v 0.03084 0.00000 0.13512
v 0.00000 0.00000 0.13896
v -0.03138 0.00000 0.13750
v -0.06294 0.00000 0.13069
v -0.09421 0.00000 0.11813
v -0.12363 0.00000 0.09859
v -0.14794 0.00000 0.07124
v -0.16388 0.00000 0.03740
v -0.17024 0.00000 0.00000
v -0.16776 0.00000 -0.03829
v -0.15743 0.00000 -0.07581
v -0.13949 0.00000 -0.11124
v -0.11390 0.00000 -0.14283
v -0.08117 0.00000 -0.16855
v -0.04248 0.00000 -0.18610
v -0.00000 0.00000 -0.19285
v 0.04267 0.00000 -0.18695
v 0.08132 0.00000 -0.16886
v 0.11299 0.00000 -0.14168
v 0.13719 0.00000 -0.10940
v 0.15459 0.00000 -0.07445
v 0.16461 0.00000 -0.03757
v 0.16541 0.00000 -0.00000
v 0.07982 0.00000 0.00000
v 0.07629 0.00000 0.01741
v 0.06907 0.00000 0.03326
v 0.05872 0.00000 0.04683
v 0.04596 0.00000 0.05763
v 0.03150 0.00000 0.06540
v 0.01599 0.00000 0.07004
v 0.00000 0.00000 0.07155
v -0.01598 0.00000 0.07000
v -0.03151 0.00000 0.06543
v -0.04611 0.00000 0.05782
v -0.05916 0.00000 0.04718
v -0.06990 0.00000 0.03366
v -0.07750 0.00000 0.01769
v -0.08131 0.00000 0.00000
v -0.08091 0.00000 -0.01847
v -0.07617 0.00000 -0.03668
v -0.06720 0.00000 -0.05359
v -0.05435 0.00000 -0.06815
v -0.03823 0.00000 -0.07939
v -0.01973 0.00000 -0.08645
v -0.00000 0.00000 -0.08871
v 0.01963 0.00000 -0.08599
v 0.03783 0.00000 -0.07856
v 0.05352 0.00000 -0.06711
v 0.06594 0.00000 -0.05258
v 0.07462 0.00000 -0.03593
v 0.07929 0.00000 -0.01810
v 0.07982 0.00000 -0.00000
v 0.00000 0.00000 0.00000
v 0.00000 0.00000 0.00000
v 0.00000 0.00000 0.00000
v 0.00000 0.00000 0.00000
v 0.00000 0.00000 0.00000
v 0.00000 0.00000 0.00000
v 0.00000 0.00000 0.00000
v 0.00000 0.00000 0.00000
v -0.00000 0.00000 0.00000
v -0.00000 0.00000 0.00000
v -0.00000 0.00000 0.00000
v -0.00000 0.00000 0.00000
v -0.00000 0.00000 0.00000
v -0.00000 0.00000 0.00000
v -0.00000 0.00000 0.00000
v -0.00000 0.00000 -0.00000
v -0.00000 0.00000 -0.00000
v -0.00000 0.00000 -0.00000
v -0.00000 0.00000 -0.00000
v -0.00000 0.00000 -0.00000
v -0.00000 0.00000 -0.00000
v -0.00000 0.00000 -0.00000
v 0.00000 0.00000 -0.00000
v 0.00000 0.00000 -0.00000
v 0.00000 0.00000 -0.00000
v 0.00000 0.00000 -0.00000
v 0.00000 0.00000 -0.00000
v 0.00000 0.00000 -0.00000
v 0.00000 0.00000 -0.00000
vt 0.00000 0.00000
vt 0.07143 0.00000
vt 0.14286 0.00000
vt 0.21429 0.00000
vt 0.28571 0.00000
vt 0.35714 0.00000
vt 0.42857 0.00000
vt 0.50000 0.00000
vt 0.57143 0.00000
vt 0.64286 0.00000
vt 0.71429 0.00000
vt 0.78571 0.00000
vt 0.85714 0.00000
vt 0.92857 0.00000
vt 1.00000 0.00000
vt 1.07143 0.00000
vt 1.14286 0.00000
vt 1.21429 0.00000
vt 1.28571 0.00000
vt 1.35714 0.00000
vt 1.42857 0.00000
vt 1.50000 0.00000
vt 1.57143 0.00000
vt 1.64286 0.00000
vt 1.71429 0.00000
vt 1.78571 0.00000
vt 1.85714 0.00000
vt 1.92857 0.00000
vt 2.00000 0.00000
vt 0.00000 0.11111
vt 0.07143 0.11111
vt 0.14286 0.11111
vt 0.21429 0.11111
vt 0.28571 0.11111
vt 0.35714 0.11111
vt 0.42857 0.11111
vt 0.50000 0.11111
vt 0.57143 0.11111
vt 0.64286 0.11111
vt 0.71429 0.11111
vt 0.78571 0.11111
vt 0.85714 0.11111
vt 0.92857 0.11111
vt 1.00000 0.11111
vt 1.07143 0.11111
vt 1.14286 0.11111
vt 1.21429 0.11111
vt 1.28571 0.11111
vt 1.35714 0.11111
vt 1.42857 0.11111
vt 1.50000 0.11111
vt 1.57143 0.11111
vt 1.64286 0.11111
vt 1.71429 0.11111
vt 1.78571 0.11111
vt 1.85714 0.11111
vt 1.92857 0.11111
vt 2.00000 0.11111
vt 0.00000 0.22222
vt 0.07143 0.22222
vt 0.14286 0.22222
vt 0.21429 0.22222
vt 0.28571 0.22222
vt 0.35714 0.22222
vt 0.42857 0.22222
vt 0.50000 0.22222
vt 0.57143 0.22222
vt 0.64286 0.22222
vt 0.71429 0.22222
vt 0.78571 0.22222
vt 0.85714 0.22222
vt 0.92857 0.22222
vt 1.00000 0.22222
vt 1.07143 0.22222
vt 1.14286 0.22222
vt 1.21429 0.22222
vt 1.28571 0.22222
vt 1.35714 0.22222
vt 1.42857 0.22222
vt 1.50000 0.22222
vt 1.57143 0.22222
vt 1.64286 0.22222
vt 1.71429 0.22222
vt 1.78571 0.22222
vt 1.85714 0.22222
vt 1.92857 0.22222
vt 2.00000 0.22222
vt 0.00000 0.33333
vt 0.07143 0.33333
vt 0.14286 0.33333
vt 0.21429 0.33333
vt 0.28571 0.33333
vt 0.35714 0.33333
vt 0.42857 0.33333
vt 0.50000 0.33333
vt 0.57143 0.33333
vt 0.64286 0.33333
vt 0.71429 0.33333
vt 0.78571 0.33333
vt 0.85714 0.33333
vt 0.92857 0.33333
vt 1.00000 0.33333
vt 1.07143 0.33333
vt 1.14286 0.33333
vt 1.21429 0.33333
vt 1.28571 0.33333
vt 1.35714 0.33333
vt 1.42857 0.33333
vt 1.50000 0.33333
vt 1.57143 0.33333
vt 1.64286 0.33333
vt 1.71429 0.33333
vt 1.78571 0.33333
vt 1.85714 0.33333
vt 1.92857 0.33333
vt 2.00000 0.33333
vt 0.00000 0.44444
vt 0.07143 0.44444
vt 0.14286 0.44444
vt 0.21429 0.44444
vt 0.28571 0.44444
vt 0.35714 0.44444
vt 0.42857 0.44444
vt 0.50000 0.44444
vt 0.57143 0.44444
vt 0.64286 0.44444
vt 0.71429 0.44444
vt 0.78571 0.44444
vt 0.85714 0.44444
vt 0.92857 0.44444
vt 1.00000 0.44444
vt 1.07143 0.44444
vt 1.14286 0.44444
vt 1.21429 0.44444
vt 1.28571 0.44444
vt 1.35714 0.44444
vt 1.42857 0.44444
vt 1.50000 0.44444
vt 1.57143 0.44444
vt 1.64286 0.44444
vt 1.71429 0.44444
vt 1.78571 0.44444
vt 1.85714 0.44444
vt 1.92857 0.44444
vt 2.00000 0.44444
vt 0.00000 0.55556
vt 0.07143 0.55556
vt 0.14286 0.55556
vt 0.21429 0.55556
vt 0.28571 0.55556
vt 0.35714 0.55556
vt 0.42857 0.55556
vt 0.50000 0.55556
vt 0.57143 0.55556
vt 0.64286 0.55556
vt 0.71429 0.55556
vt 0.78571 0.55556
vt 0.85714 0.55556
vt 0.92857 0.55556
vt 1.00000 0.55556
vt 1.07143 0.55556
vt 1.14286 0.55556
vt 1.21429 0.55556
vt 1.28571 0.55556
vt 1.35714 0.55556
vt 1.42857 0.55556
vt 1.50000 0.55556
vt 1.57143 0.55556
vt 1.64286 0.55556
vt 1.71429 0.55556
vt 1.78571 0.55556
vt 1.85714 0.55556
vt 1.92857 0.55556
vt 2.00000 0.55556
vt 0.00000 0.66667
vt 0.07143 0.66667
vt 0.14286 0.66667
vt 0.21429 0.66667
vt 0.28571 0.66667
vt 0.35714 0.66667
vt 0.42857 0.66667
vt 0.50000 0.66667
vt 0.57143 0.66667
vt 0.64286 0.66667
vt 0.71429 0.66667
vt 0.78571 0.66667
vt 0.85714 0.66667
vt 0.92857 0.66667
vt 1.00000 0.66667
vt 1.07143 0.66667
vt 1.14286 0.66667
vt 1.21429 0.66667
vt 1.28571 0.66667
vt 1.35714 0.66667
vt 1.42857 0.66667
vt 1.50000 0.66667
vt 1.57143 0.66667
vt 1.64286 0.66667
vt 1.71429 0.66667
vt 1.78571 0.66667
vt 1.85714 0.66667
vt 1.92857 0.66667
vt 2.00000 0.66667
vt 0.00000 0.77778
vt 0.07143 0.77778
vt 0.14286 0.77778
vt 0.21429 0.77778
vt 0.28571 0.77778
vt 0.35714 0.77778
vt 0.42857 0.77778
vt 0.50000 0.77778
vt 0.57143 0.77778
vt 0.64286 0.77778
vt 0.71429 0.77778
vt 0.78571 0.77778
vt 0.85714 0.77778
vt 0.92857 0.77778
vt 1.00000 0.77778
vt 1.07143 0.77778
vt 1.14286 0.77778
vt 1.21429 0.77778
vt 1.28571 0.77778
vt 1.35714 0.77778
vt 1.42857 0.77778
vt 1.50000 0.77778
vt 1.57143 0.77778
vt 1.64286 0.77778
vt 1.71429 0.77778
vt 1.78571 0.77778
vt 1.85714 0.77778
vt 1.92857 0.77778
vt 2.00000 0.77778
vt 0.00000 0.88889
vt 0.07143 0.88889
vt 0.14286 0.88889
vt 0.21429 0.88889
vt 0.28571 0.88889
vt 0.35714 0.88889
vt 0.42857 0.88889
vt 0.50000 0.88889
vt 0.57143 0.88889
vt 0.64286 0.88889
vt 0.71429 0.88889
vt 0.78571 0.88889
vt 0.85714 0.88889
vt 0.92857 0.88889
vt 1.00000 0.88889
vt 1.07143 0.88889
vt 1.14286 0.88889
vt 1.21429 0.88889
vt 1.28571 0.88889
vt 1.35714 0.88889
vt 1.42857 0.88889
vt 1.50000 0.88889
vt 1.57143 0.88889
vt 1.64286 0.88889
vt 1.71429 0.88889
vt 1.78571 0.88889
vt 1.85714 0.88889
vt 1.92857 0.88889
vt 2.00000 0.88889
vt 0.00000 1.00000
vt 0.07143 1.00000
vt 0.14286 1.00000
vt 0.21429 1.00000
vt 0.28571 1.00000
vt 0.35714 1.00000
vt 0.42857 1.00000
vt 0.50000 1.00000
vt 0.57143 1.00000
vt 0.64286 1.00000
vt 0.71429 1.00000
vt 0.78571 1.00000
vt 0.85714 1.00000
vt 0.92857 1.00000
vt 1.00000 1.00000
vt 1.07143 1.00000
vt 1.14286 1.00000
vt 1.21429 1.00000
vt 1.28571 1.00000
vt 1.35714 1.00000
vt 1.42857 1.00000
vt 1.50000 1.00000
vt 1.57143 1.00000
vt 1.64286 1.00000
vt 1.71429 1.00000
vt 1.78571 1.00000
vt 1.85714 1.00000
vt 1.92857 1.00000
vt 2.00000 1.00000
vt 0.00000 1.11111
vt 0.07143 1.11111
vt 0.14286 1.11111
vt 0.21429 1.11111
vt 0.28571 1.11111
vt 0.35714 1.11111
vt 0.42857 1.11111
vt 0.50000 1.11111
vt 0.57143 1.11111
vt 0.64286 1.11111
vt 0.71429 1.11111
vt 0.78571 1.11111
vt 0.85714 1.11111
vt 0.92857 1.11111
vt 1.00000 1.11111
vt 1.07143 1.11111
vt 1.14286 1.11111
vt 1.21429 1.11111
vt 1.28571 1.11111
vt 1.35714 1.11111
vt 1.42857 1.11111
vt 1.50000 1.11111
vt 1.57143 1.11111
vt 1.64286 1.11111
vt 1.71429 1.11111
vt 1.78571 1.11111
vt 1.85714 1.11111
vt 1.92857 1.11111
vt 2.00000 1.11111
vt 0.00000 1.22222
vt 0.07143 1.22222
vt 0.14286 1.22222
vt 0.21429 1.22222
vt 0.28571 1.22222
vt 0.35714 1.22222
vt 0.42857 1.22222
vt 0.50000 1.22222
vt 0.57143 1.22222
vt 0.64286 1.22222
vt 0.71429 1.22222
vt 0.78571 1.22222
vt 0.85714 1.22222
vt 0.92857 1.22222
vt 1.00000 1.22222
vt 1.07143 1.22222
vt 1.14286 1.22222
vt 1.21429 1.22222
vt 1.28571 1.22222
vt 1.35714 1.22222
vt 1.42857 1.22222
vt 1.50000 1.22222
vt 1.57143 1.22222
vt 1.64286 1.22222
vt 1.71429 1.22222
vt 1.78571 1.22222
vt 1.85714 1.22222
vt 1.92857 1.22222
vt 2.00000 1.22222
vt 0.00000 1.33333
vt 0.07143 1.33333
vt 0.14286 1.33333
vt 0.21429 1.33333
vt 0.28571 1.33333
vt 0.35714 1.33333
vt 0.42857 1.33333
vt 0.50000 1.33333
vt 0.57143 1.33333
vt 0.64286 1.33333
vt 0.71429 1.33333
vt 0.78571 1.33333
vt 0.85714 1.33333
vt 0.92857 1.33333
vt 1.00000 1.33333
vt 1.07143 1.33333
vt 1.14286 1.33333
vt 1.21429 1.33333
vt 1.28571 1.33333
vt 1.35714 1.33333
vt 1.42857 1.33333
vt 1.50000 1.33333
vt 1.57143 1.33333
vt 1.64286 1.33333
vt 1.71429 1.33333
vt 1.78571 1.33333
vt 1.85714 1.33333
vt 1.92857 1.33333
vt 2.00000 1.33333
vt 0.00000 1.44444
vt 0.07143 1.44444
vt 0.14286 1.44444
vt 0.21429 1.44444
vt 0.28571 1.44444
vt 0.35714 1.44444
vt 0.42857 1.44444
vt 0.50000 1.44444
vt 0.57143 1.44444
vt 0.64286 1.44444
vt 0.71429 1.44444
vt 0.78571 1.44444
vt 0.85714 1.44444
vt 0.92857 1.44444
vt 1.00000 1.44444
vt 1.07143 1.44444
vt 1.14286 1.44444
vt 1.21429 1.44444
vt 1.28571 1.44444
vt 1.35714 1.44444
vt 1.42857 1.44444
vt 1.50000 1.44444
vt 1.57143 1.44444
vt 1.64286 1.44444
vt 1.71429 1.44444
vt 1.78571 1.44444
vt 1.85714 1.44444
vt 1.92857 1.44444
vt 2.00000 1.44444
vt 0.00000 1.55556
vt 0.07143 1.55556
vt 0.14286 1.55556
vt 0.21429 1.55556
vt 0.28571 1.55556
vt 0.35714 1.55556
vt 0.42857 1.55556
vt 0.50000 1.55556
vt 0.57143 1.55556
vt 0.64286 1.55556
vt 0.71429 1.55556
vt 0.78571 1.55556
vt 0.85714 1.55556
vt 0.92857 1.55556
vt 1.00000 1.55556
vt 1.07143 1.55556
vt 1.14286 1.55556
vt 1.21429 1.55556
vt 1.28571 1.55556
vt 1.35714 1.55556
vt 1.42857 1.55556
vt 1.50000 1.55556
vt 1.57143 1.55556
vt 1.64286 1.55556
vt 1.71429 1.55556
vt 1.78571 1.55556
vt 1.85714 1.55556
vt 1.92857 1.55556
vt 2.00000 1.55556
vt 0.00000 1.66667
vt 0.07143 1.66667
vt 0.14286 1.66667
vt 0.21429 1.66667
vt 0.28571 1.66667
vt 0.35714 1.66667
vt 0.42857 1.66667
vt 0.50000 1.66667
vt 0.57143 1.66667
vt 0.64286 1.66667
vt 0.71429 1.66667
vt 0.78571 1.66667
vt 0.85714 1.66667
vt 0.92857 1.66667
vt 1.00000 1.66667
vt 1.07143 1.66667
vt 1.14286 1.66667
vt 1.21429 1.66667
vt 1.28571 1.66667
vt 1.35714 1.66667
vt 1.42857 1.66667
vt 1.50000 1.66667
vt 1.57143 1.66667
vt 1.64286 1.66667
vt 1.71429 1.66667
vt 1.78571 1.66667
vt 1.85714 1.66667
vt 1.92857 1.66667
vt 2.00000 1.66667
vt 0.00000 1.77778
vt 0.07143 1.77778
vt 0.14286 1.77778
vt 0.21429 1.77778
vt 0.28571 1.77778
vt 0.35714 1.77778
vt 0.42857 1.77778
vt 0.50000 1.77778
vt 0.57143 1.77778
vt 0.64286 1.77778
vt 0.71429 1.77778
vt 0.78571 1.77778
vt 0.85714 1.77778
vt 0.92857 1.77778
vt 1.00000 1.77778
vt 1.07143 1.77778
vt 1.14286 1.77778
vt 1.21429 1.77778
vt 1.28571 1.77778
vt 1.35714 1.77778
vt 1.42857 1.77778
vt 1.50000 1.77778
vt 1.57143 1.77778
vt 1.64286 1.77778
vt 1.71429 1.77778
vt 1.78571 1.77778
vt 1.85714 1.77778
vt 1.92857 1.77778
vt 2.00000 1.77778
vt 0.00000 1.88889
vt 0.07143 1.88889
vt 0.14286 1.88889
vt 0.21429 1.88889
vt 0.28571 1.88889
vt 0.35714 1.88889
vt 0.42857 1.88889
vt 0.50000 1.88889
vt 0.57143 1.88889
vt 0.64286 1.88889
vt 0.71429 1.88889
vt 0.78571 1.88889
vt 0.85714 1.88889
vt 0.92857 1.88889
vt 1.00000 1.88889
vt 1.07143 1.88889
vt 1.14286 1.88889
vt 1.21429 1.88889
vt 1.28571 1.88889
vt 1.35714 1.88889
vt 1.42857 1.88889
vt 1.50000 1.88889
vt 1.57143 1.88889
vt 1.64286 1.88889
vt 1.71429 1.88889
vt 1.78571 1.88889
vt 1.85714 1.88889
vt 1.92857 1.88889
vt 2.00000 1.88889
vt 0.00000 2.00000
vt 0.07143 2.00000
vt 0.14286 2.00000
vt 0.21429 2.00000
vt 0.28571 2.00000
vt 0.35714 2.00000
vt 0.42857 2.00000
vt 0.50000 2.00000
vt 0.57143 2.00000
vt 0.64286 2.00000
vt 0.71429 2.00000
vt 0.78571 2.00000
vt 0.85714 2.00000
vt 0.92857 2.00000
vt 1.00000 2.00000
vt 1.07143 2.00000
vt 1.14286 2.00000
vt 1.21429 2.00000
vt 1.28571 2.00000
vt 1.35714 2.00000
vt 1.42857 2.00000
vt 1.50000 2.00000
vt 1.57143 2.00000
vt 1.64286 2.00000
vt 1.71429 2.00000
vt 1.78571 2.00000
vt 1.85714 2.00000
vt 1.92857 2.00000
vt 2.00000 2.00000
vn 0.01606 0.99947 -0.02824
vn 0.01606 0.99947 -0.02824
vn 0.01606 0.99947 -0.02824
vn 0.01606 0.99947 -0.02824
vn 0.01606 0.99947 -0.02824
vn 0.01606 0.99947 -0.02824
vn 0.01606 0.99947 -0.02824
vn 0.01606 0.99947 -0.02824
vn 0.01606 0.99947 -0.02824
vn 0.01606 0.99947 -0.02824
vn 0.01606 0.99947 -0.02824
vn 0.01606 0.99947 -0.02824
vn 0.01606 0.99947 -0.02824
vn 0.01606 0.99947 -0.02824
vn 0.01606 0.99947 -0.02824
vn 0.01606 0.99947 -0.02824
vn 0.01606 0.99947 -0.02824
vn 0.01606 0.99947 -0.02824
vn 0.01606 0.99947 -0.02824
vn 0.01606 0.99947 -0.02824
vn 0.01606 0.99947 -0.02824
vn 0.01606 0.99947 -0.02824
vn 0.01606 0.99947 -0.02824
vn 0.01606 0.99947 -0.02824
vn 0.01606 0.99947 -0.02824
vn 0.01606 0.99947 -0.02824
vn 0.01606 0.99947 -0.02824
vn 0.01606 0.99947 -0.02824
vn 0.01606 0.99947 -0.02824
vn 0.23682 0.97019 -0.05146
vn 0.23913 0.97048 -0.03138
vn 0.22814 0.97361 -0.00527
vn 0.19838 0.97964 0.03081
vn 0.14598 0.98605 0.08002
vn 0.07554 0.98790 0.13547
vn 0.00377 0.98318 0.18262
vn -0.05207 0.97589 0.21196
vn -0.08799 0.97095 0.22250
vn -0.11323 0.96990 0.21560
vn -0.14153 0.97127 0.19130
vn -0.18050 0.97209 0.14990
vn -0.22421 0.96966 0.09743
vn -0.25885 0.96481 0.04626
vn -0.27472 0.96152 0.00419
vn -0.26893 0.96253 -0.03467
vn -0.24105 0.96691 -0.08351
vn -0.19224 0.97024 -0.14725
vn -0.13055 0.96821 -0.21338
vn -0.07274 0.96263 -0.26086
vn -0.03213 0.95988 -0.27855
vn -0.00504 0.96290 -0.26982
vn 0.02440 0.96971 -0.24304
vn 0.06761 0.97651 -0.20459
vn 0.12113 0.97965 -0.16006
vn 0.17053 0.97824 -0.11817
vn 0.20503 0.97483 -0.08754
vn 0.22550 0.97186 -0.06803
vn 0.23682 0.97019 -0.05146
vn 0.28968 0.95647 -0.03523
vn 0.30270 0.95308 -0.00264
vn 0.31296 0.94902 0.03758
vn 0.29224 0.95174 0.09376
vn 0.21472 0.96015 0.17891
vn 0.08881 0.95726 0.27526
vn -0.02927 0.94061 0.33822
vn -0.09477 0.93006 0.35496
vn -0.11930 0.93109 0.34472
vn -0.13758 0.93765 0.31921
vn -0.17746 0.94616 0.27073
vn -0.25322 0.94874 0.18915
vn -0.34400 0.93457 0.09073
vn -0.41121 0.91136 0.01813
vn -0.44175 0.89701 -0.01502
vn -0.43827 0.89770 -0.04530
vn -0.39604 0.91128 -0.11279
vn -0.30995 0.92385 -0.22457
vn -0.20056 0.91843 -0.34097
vn -0.12025 0.90641 -0.40491
vn -0.09432 0.90908 -0.40581
vn -0.08444 0.92359 -0.37396
vn -0.04469 0.94326 -0.32902
vn 0.03909 0.96229 -0.26919
vn 0.14888 0.96948 -0.19477
vn 0.23784 0.96313 -0.12572
vn 0.27719 0.95714 -0.08391
vn 0.28486 0.95666 -0.06053
vn 0.28968 0.95647 -0.03523
vn 0.39359 0.91897 -0.02423
vn 0.38191 0.92290 0.04899
vn 0.37617 0.92009 0.10923
vn 0.36539 0.91198 0.18651
vn 0.28760 0.90593 0.31076
vn 0.13128 0.89463 0.42708
vn -0.00727 0.88571 0.46418
vn -0.07275 0.89172 0.44670
vn -0.10171 0.90095 0.42183
vn -0.13906 0.90658 0.39846
vn -0.22409 0.91005 0.34870
vn -0.36699 0.90047 0.23338
vn -0.49465 0.86534 0.08069
vn -0.54425 0.83883 -0.01239
vn -0.54483 0.83804 -0.02912
vn -0.54005 0.84002 -0.05213
vn -0.52306 0.83750 -0.15815
vn -0.44302 0.82791 -0.34396
vn -0.30421 0.81371 -0.49532
vn -0.20714 0.83040 -0.51724
vn -0.17953 0.86666 -0.46548
vn -0.14930 0.88724 -0.43647
vn -0.06898 0.89920 -0.43206
vn 0.07723 0.91407 -0.39814
vn 0.24973 0.91851 -0.30656
vn 0.35699 0.91116 -0.20580
vn 0.38636 0.91068 -0.14623
vn 0.39366 0.91425 -0.09580
vn 0.39359 0.91897 -0.02423
vn 0.54866 0.83345 -0.06588
vn 0.49456 0.86770 0.05012
vn 0.43877 0.88360 0.16349
vn 0.40299 0.86459 0.30015
vn 0.33739 0.82037 0.46169
vn 0.20505 0.82217 0.53103
vn 0.05045 0.84420 0.53364
vn -0.06750 0.82958 0.55429
vn -0.13377 0.81204 0.56806
vn -0.19191 0.82700 0.52843
vn -0.32820 0.83562 0.44048
vn -0.50838 0.81106 0.28938
vn -0.60630 0.78636 0.11846
vn -0.65546 0.75522 0.00295
vn -0.70266 0.70979 -0.04963
vn -0.70747 0.69785 -0.11176
vn -0.66220 0.69604 -0.27751
vn -0.56840 0.64750 -0.50761
vn -0.45454 0.65791 -0.60045
vn -0.35528 0.74095 -0.56988
vn -0.25032 0.76918 -0.58796
vn -0.14657 0.76450 -0.62774
vn -0.02007 0.78119 -0.62398
vn 0.18451 0.79301 -0.58060
vn 0.38977 0.79056 -0.47234
vn 0.49151 0.80330 -0.33634
vn 0.54703 0.80525 -0.22877
vn 0.57203 0.80582 -0.15305
vn 0.54866 0.83345 -0.06588
vn 0.67720 0.72669 -0.11540
vn 0.65154 0.75765 0.03836
vn 0.58356 0.77626 0.23847
vn 0.48803 0.73884 0.46470
vn 0.40954 0.68425 0.60339
vn 0.30869 0.71235 0.63029
vn 0.08018 0.72145 0.68781
vn -0.09494 0.71240 0.69532
vn -0.11295 0.76434 0.63485
vn -0.17906 0.80941 0.55928
vn -0.38027 0.80228 0.46015
vn -0.55640 0.77243 0.30622
vn -0.65224 0.74851 0.11963
vn -0.74707 0.66239 -0.05584
vn -0.80010 0.59333 -0.08834
vn -0.79276 0.59756 -0.12023
vn -0.72774 0.58481 -0.35831
vn -0.61655 0.52931 -0.58283
vn -0.55231 0.58681 -0.59213
vn -0.42686 0.64676 -0.63205
vn -0.25178 0.60727 -0.75355
vn -0.15116 0.58022 -0.80031
vn 0.00799 0.60672 -0.79488
vn 0.27461 0.62029 -0.73473
vn 0.47254 0.63825 -0.60773
vn 0.58528 0.67836 -0.44416
vn 0.67310 0.68332 -0.28286
vn 0.68753 0.69742 -0.20225
vn 0.67720 0.72669 -0.11540
vn 0.80508 0.58666 -0.08762
vn 0.86478 0.49300 0.09544
vn 0.82491 0.41060 0.38850
vn 0.66207 0.33164 0.67207
vn 0.55016 0.36243 0.75231
vn 0.41091 0.35379 0.84023
vn 0.17618 0.46151 0.86946
vn 0.01899 0.69510 0.71866
vn -0.05238 0.79000 0.61087
vn -0.23893 0.75807 0.60682
vn -0.49606 0.68126 0.53834
vn -0.65088 0.65502 0.38380
vn -0.78081 0.60991 0.13540
vn -0.76763 0.63796 -0.06125
vn -0.70954 0.69913 -0.08818
vn -0.78160 0.59695 -0.18094
vn -0.80147 0.34383 -0.48930
vn -0.72313 0.33506 -0.60400
vn -0.64889 0.43388 -0.62505
vn -0.46031 0.40174 -0.79165
vn -0.25676 0.41370 -0.87346
vn -0.15006 0.45782 -0.87629
vn 0.04421 0.44224 -0.89581
vn 0.30146 0.46971 -0.82975
vn 0.46799 0.56234 -0.68173
vn 0.61701 0.61341 -0.49298
vn 0.66873 0.67181 -0.31854
vn 0.70930 0.67466 -0.20428
vn 0.80508 0.58666 -0.08762
vn 0.92037 0.38842 0.04520
vn 0.96701 0.00996 0.25453
vn 0.83349 -0.26740 0.48352
vn 0.70181 -0.27610 0.65668
vn 0.59806 -0.17936 0.78112
vn 0.45043 -0.17545 0.87540
vn 0.39881 0.15668 0.90355
vn 0.19021 0.56848 0.80041
vn -0.10490 0.64333 0.75837
vn -0.42892 0.50057 0.75197
vn -0.65875 0.36218 0.65945
vn -0.82700 0.28765 0.48303
vn -0.90512 0.34491 0.24860
vn -0.79184 0.60614 0.07471
vn -0.75540 0.64164 -0.13293
vn -0.83067 0.36471 -0.42069
vn -0.80644 0.06239 -0.58801
vn -0.80579 0.14806 -0.57339
vn -0.69071 0.16354 -0.70439
vn -0.48741 0.08729 -0.86880
vn -0.34263 0.21820 -0.91378
vn -0.16403 0.35692 -0.91962
vn 0.05938 0.39288 -0.91767
vn 0.26273 0.44114 -0.85812
vn 0.43839 0.52814 -0.72724
vn 0.58978 0.60345 -0.53666
vn 0.65481 0.67341 -0.34313
vn 0.77288 0.61833 -0.14258
vn 0.92037 0.38842 0.04520
vn 0.96332 0.05694 0.26223
vn 0.82311 -0.38489 0.41755
vn 0.68972 -0.55708 0.46254
vn 0.67108 -0.51024 0.53788
vn 0.52615 -0.48194 0.70064
vn 0.53544 -0.32536 0.77939
vn 0.55407 -0.08018 0.82860
vn 0.30138 0.09084 0.94917
vn -0.18454 0.15331 0.97079
vn -0.55122 0.11875 0.82587
vn -0.73500 0.04894 0.67630
vn -0.86576 -0.01366 0.50028
vn -0.89272 0.19472 0.40637
vn -0.94027 0.29842 0.16380
vn -0.94672 0.23538 -0.21979
vn -0.82715 0.18318 -0.53129
vn -0.78344 0.30439 -0.54181
vn -0.77405 0.29179 -0.56187
vn -0.64237 0.13222 -0.75490
vn -0.49780 0.05227 -0.86572
vn -0.41055 0.09234 -0.90715
vn -0.22101 0.21578 -0.95110
vn 0.04309 0.31782 -0.94717
vn 0.25200 0.36447 -0.89647
vn 0.45516 0.39607 -0.79747
vn 0.58989 0.50422 -0.63071
vn 0.75472 0.53327 -0.38213
vn 0.90325 0.42448 -0.06279
vn 0.96332 0.05694 0.26223
vn 0.87450 -0.27117 0.40215
vn 0.74089 -0.42519 0.51990
vn 0.72738 -0.47819 0.49219
vn 0.66164 -0.53482 0.52554
vn 0.57661 -0.48993 0.65383
vn 0.64745 -0.21067 0.73241
vn 0.53903 -0.26032 0.80105
vn 0.24990 -0.46225 0.85081
vn -0.13279 -0.47366 0.87064
vn -0.49793 -0.28372 0.81950
vn -0.74039 -0.17848 0.64805
vn -0.83033 -0.06594 0.55336
vn -0.89825 -0.02029 0.43901
vn -0.96676 -0.22924 0.11322
vn -0.94616 -0.25287 -0.20209
vn -0.90375 0.09591 -0.41718
vn -0.77304 0.44046 -0.45652
vn -0.69941 0.34758 -0.62451
vn -0.58444 0.15140 -0.79719
vn -0.48622 0.08300 -0.86989
vn -0.40486 -0.01828 -0.91420
vn -0.25733 -0.04368 -0.96534
vn -0.00430 0.08625 -0.99626
vn 0.26351 0.16826 -0.94987
vn 0.47537 0.15596 -0.86585
vn 0.65909 0.18660 -0.72855
vn 0.89964 0.13487 -0.41529
vn 0.99768 -0.04703 0.04912
vn 0.87450 -0.27117 0.40215
vn 0.75544 -0.52199 0.39601
vn 0.74055 -0.41583 0.52790
vn 0.70386 -0.45850 0.54255
vn 0.58775 -0.61150 0.52973
vn 0.70603 -0.45064 0.54630
vn 0.64147 -0.33461 0.69033
vn 0.36985 -0.54044 0.75574
vn 0.13491 -0.73311 0.66660
vn -0.02616 -0.73339 0.67931
vn -0.32085 -0.63396 0.70367
vn -0.62177 -0.47629 0.62173
vn -0.76212 -0.32626 0.55921
vn -0.82990 -0.48580 0.27433
vn -0.81289 -0.58095 0.04129
vn -0.88335 -0.46140 -0.08250
vn -0.97432 -0.09921 -0.20211
vn -0.87146 0.06993 -0.48545
vn -0.68228 0.00344 -0.73108
vn -0.52315 -0.16777 -0.83557
vn -0.44036 -0.24128 -0.86479
vn -0.37548 -0.22953 -0.89796
vn -0.26363 -0.24709 -0.93244
vn -0.04374 -0.27305 -0.96100
vn 0.25383 -0.27174 -0.92829
vn 0.46003 -0.27188 -0.84525
vn 0.64818 -0.37908 -0.66042
vn 0.81293 -0.49295 -0.31006
vn 0.81275 -0.56803 0.12957
vn 0.75544 -0.52199 0.39601
vn 0.58157 -0.76312 0.28182
vn 0.61828 -0.64899 0.44334
vn 0.47990 -0.70985 0.51557
vn 0.52471 -0.73045 0.43717
vn 0.63159 -0.66985 0.39038
vn 0.44327 -0.74613 0.49678
vn 0.18593 -0.80979 0.55648
vn 0.08683 -0.82961 0.55156
vn 0.01763 -0.84797 0.52975
vn -0.17096 -0.85183 0.49513
vn -0.38969 -0.77981 0.48993
vn -0.54824 -0.76274 0.34301
vn -0.61634 -0.77568 0.13583
vn -0.72118 -0.68923 0.06973
vn -0.82316 -0.56702 0.03001
vn -0.80753 -0.57593 -0.12726
vn -0.67075 -0.62216 -0.40375
vn -0.49992 -0.59587 -0.62851
vn -0.39860 -0.58263 -0.70828
vn -0.39513 -0.54743 -0.73769
vn -0.35391 -0.48985 -0.79674
vn -0.20800 -0.54912 -0.80945
vn -0.02085 -0.67596 -0.73664
vn 0.16993 -0.74858 -0.64090
vn 0.30546 -0.80012 -0.51624
vn 0.36820 -0.87560 -0.31265
vn 0.40139 -0.91272 -0.07637
vn 0.46029 -0.88006 0.11678
vn 0.58157 -0.76312 0.28182
vn 0.23902 -0.96602 0.09839
vn 0.23248 -0.94340 0.23652
vn 0.23980 -0.91430 0.32642
vn 0.39388 -0.88006 0.26524
vn 0.35306 -0.91083 0.21386
vn 0.20182 -0.95362 0.22332
vn 0.07448 -0.96620 0.24680
vn 0.03737 -0.96639 0.25435
vn 0.00151 -0.97734 0.21167
vn -0.05398 -0.98333 0.17362
vn -0.11641 -0.98086 0.15611
vn -0.19577 -0.97583 0.09715
vn -0.29376 -0.95248 0.08056
vn -0.36420 -0.92953 0.05768
vn -0.32788 -0.94468 0.00833
vn -0.24544 -0.96758 -0.05960
vn -0.20054 -0.97048 -0.13400
vn -0.17784 -0.95293 -0.24554
vn -0.20528 -0.91368 -0.35077
vn -0.21680 -0.90198 -0.37340
vn -0.14397 -0.92763 -0.34465
vn -0.05629 -0.95211 -0.30053
vn 0.00667 -0.97700 -0.21316
vn 0.03711 -0.99147 -0.12498
vn 0.05219 -0.99611 -0.07103
vn 0.05741 -0.99766 -0.03714
vn 0.08267 -0.99657 -0.00223
vn 0.15475 -0.98769 0.02267
vn 0.23902 -0.96602 0.09839
vn 0.00000 -1.00000 0.00000
vn 0.01577 -0.99908 0.03999
vn 0.08739 -0.99245 0.08600
vn 0.11369 -0.99069 0.07490
vn 0.05927 -0.99760 0.03591
vn 0.01322 -0.99987 0.00881
vn 0.00000 -1.00000 0.00000
vn 0.00000 -1.00000 0.00000
vn 0.00000 -1.00000 0.00000
vn 0.00000 -1.00000 0.00000
vn 0.00000 -1.00000 0.00000
vn 0.00000 -1.00000 0.00000
vn 0.00000 -1.00000 0.00000
vn 0.00000 -1.00000 0.00000
vn 0.00000 -1.00000 0.00000
vn 0.00000 -1.00000 0.00000
vn 0.00000 -1.00000 0.00000
vn 0.00000 -1.00000 0.00000
vn 0.00000 -1.00000 0.00000
vn 0.00000 -1.00000 0.00000
vn 0.00000 -1.00000 0.00000
vn 0.00000 -1.00000 0.00000
vn 0.00000 -1.00000 0.00000
vn 0.00000 -1.00000 0.00000
vn 0.00000 -1.00000 0.00000
vn 0.00000 -1.00000 0.00000
vn 0.00000 -1.00000 0.00000
vn 0.00000 -1.00000 0.00000
vn 0.00000 -1.00000 0.00000
vn 0.00000 -1.00000 0.00000
vn 0.00000 -1.00000 0.00000
vn 0.00000 -1.00000 0.00000
vn 0.00000 -1.00000 0.00000
vn 0.00000 -1.00000 0.00000
vn 0.00000 -1.00000 0.00000
vn 0.00000 -1.00000 0.00000
vn 0.00000 -1.00000 0.00000
vn 0.00000 -1.00000 0.00000
vn 0.00000 -1.00000 0.00000
vn 0.00000 -1.00000 0.00000
vn 0.00000 -1.00000 0.00000
vn 0.00000 -1.00000 0.00000
vn 0.00000 -1.00000 0.00000
vn 0.00000 -1.00000 0.00000
vn 0.00000 -1.00000 0.00000
vn 0.00000 -1.00000 0.00000
vn 0.00000 -1.00000 0.00000
vn 0.00000 -1.00000 0.00000
vn 0.00000 -1.00000 0.00000
vn 0.00000 -1.00000 0.00000
vn 0.00000 -1.00000 0.00000
vn 0.00000 -1.00000 0.00000
vn 0.00000 -1.00000 0.00000
vn 0.00000 -1.00000 0.00000
vn 0.00000 -1.00000 0.00000
vn 0.00000 -1.00000 0.00000
vn 0.00000 -1.00000 0.00000
vn 0.00000 -1.00000 0.00000
vn 0.00000 -1.00000 0.00000
vn 0.00000 -1.00000 0.00000
vn 0.00000 -1.00000 0.00000
vn 0.00000 -1.00000 0.00000
vn 0.00000 -1.00000 0.00000
vn 0.00000 -1.00000 0.00000
vn 0.00000 -1.00000 0.00000
vn 0.00000 -1.00000 0.00000
vn 0.00000 -1.00000 0.00000
vn 0.00000 -1.00000 0.00000
vn 0.00000 -1.00000 0.00000
vn 0.00000 -1.00000 0.00000
vn 0.00000 -1.00000 0.00000
vn 0.00000 -1.00000 0.00000
vn 0.00000 -1.00000 0.00000
vn 0.00000 -1.00000 0.00000
vn 0.00000 -1.00000 0.00000
vn 0.00000 -1.00000 0.00000
vn 0.00000 -1.00000 0.00000
vn 0.00000 -1.00000 0.00000
vn 0.00000 -1.00000 0.00000
vn 0.00000 -1.00000 0.00000
vn 0.00000 -1.00000 0.00000
vn 0.00000 -1.00000 0.00000
vn 0.00000 -1.00000 0.00000
vn 0.00000 -1.00000 0.00000
vn 0.00000 -1.00000 0.00000
vn 0.00000 -1.00000 0.00000
vn 0.00000 -1.00000 0.00000
vn 0.00000 -1.00000 0.00000
vn 0.00000 -1.00000 0.00000
vn 0.00000 -1.00000 0.00000
vn 0.00000 -1.00000 0.00000
vn 0.00000 -1.00000 0.00000
vn 0.00000 -1.00000 0.00000
vn 0.00000 -1.00000 0.00000
vn 0.00000 -1.00000 0.00000
vn 0.00000 -1.00000 0.00000
vn 0.00000 -1.00000 0.00000
vn 0.00000 -1.00000 0.00000
vn 0.00000 -1.00000 0.00000
vn 0.00000 -1.00000 0.00000
vn 0.00000 -1.00000 0.00000
vn 0.00000 -1.00000 0.00000
vn 0.00000 -1.00000 0.00000
vn 0.00000 -1.00000 0.00000
vn 0.00000 -1.00000 0.00000
vn 0.00000 -1.00000 0.00000
vn 0.00000 -1.00000 0.00000
vn 0.00000 -1.00000 0.00000
vn 0.00000 -1.00000 0.00000
vn 0.00000 -1.00000 0.00000
vn 0.00000 -1.00000 0.00000
vn 0.00000 -1.00000 0.00000
vn 0.00000 -1.00000 0.00000
vn 0.00000 -1.00000 0.00000
vn 0.00000 -1.00000 0.00000
vn 0.00000 -1.00000 0.00000
vn 0.00000 -1.00000 0.00000
vn 0.00000 -1.00000 0.00000
vn 0.00000 -1.00000 0.00000
vn 0.00000 -1.00000 0.00000
vn 0.00000 -1.00000 0.00000
vn 0.00000 -1.00000 0.00000
vn 0.00000 -1.00000 0.00000
vn 0.00000 -1.00000 0.00000
vn 0.00000 -1.00000 0.00000
vn 0.00000 -1.00000 0.00000
vn 0.00000 -1.00000 0.00000
vn 0.00000 -1.00000 0.00000
vn 0.00000 -1.00000 0.00000
vn 0.00000 -1.00000 0.00000
vn 0.00000 -1.00000 0.00000
vn 0.00000 -1.00000 0.00000
vn 0.00000 -1.00000 0.00000
vn 0.00000 -1.00000 0.00000
vn 0.00000 -1.00000 0.00000
vn 0.00000 -1.00000 0.00000
vn 0.00000 -1.00000 0.00000
vn 0.00000 -1.00000 0.00000
vn 0.00000 -1.00000 0.00000
vn 0.00000 -1.00000 0.00000
vn 0.00000 -1.00000 0.00000
vn 0.00000 -1.00000 0.00000
vn 0.00000 -1.00000 0.00000
vn 0.00000 -1.00000 0.00000
vn 0.00000 -1.00000 0.00000
vn 0.00000 -1.00000 0.00000
vn 0.00000 -1.00000 0.00000
vn 0.00000 -1.00000 0.00000
vn 0.00000 -1.00000 0.00000
vn 0.00000 -1.00000 0.00000
vn 0.00000 -1.00000 0.00000
vn 0.00000 -1.00000 0.00000
vn 0.00000 -1.00000 0.00000
vn 0.00000 -1.00000 0.00000
vn 0.00000 -1.00000 0.00000
vn 0.00000 -1.00000 0.00000
vn 0.00000 -1.00000 0.00000
vn 0.00000 -1.00000 0.00000
vn 0.00000 -1.00000 0.00000
vn 0.00000 -1.00000 0.00000
vn 0.00000 -1.00000 0.00000
vn 0.00000 -1.00000 0.00000
vn 0.00000 -1.00000 0.00000
vn 0.00000 -1.00000 0.00000
vn 0.00000 -1.00000 0.00000
vn 0.00000 -1.00000 0.00000
vn 0.00000 -1.00000 0.00000
vn 0.00000 -1.00000 0.00000
vn 0.00000 -1.00000 0.00000
vn 0.00000 -1.00000 0.00000
vn 0.00000 -1.00000 0.00000
vn 0.00000 -1.00000 0.00000
vn 0.00000 -1.00000 0.00000
vn 0.00000 -1.00000 0.00000
usemtl rock
s 1
f 1/1/1 2/2/2 30/30/30
f 2/2/2 31/31/31 30/30/30
f 2/2/2 3/3/3 31/31/31
f 3/3/3 32/32/32 31/31/31
f 3/3/3 4/4/4 32/32/32
f 4/4/4 33/33/33 32/32/32
f 4/4/4 5/5/5 33/33/33
f 5/5/5 34/34/34 33/33/33
f 5/5/5 6/6/6 34/34/34
f 6/6/6 35/35/35 34/34/34
f 6/6/6 7/7/7 35/35/35
f 7/7/7 36/36/36 35/35/35
f 7/7/7 8/8/8 36/36/36
f 8/8/8 37/37/37 36/36/36
f 8/8/8 9/9/9 37/37/37
f 9/9/9 38/38/38 37/37/37
f 9/9/9 10/10/10 38/38/38
f 10/10/10 39/39/39 38/38/38
f 10/10/10 11/11/11 39/39/39
f 11/11/11 40/40/40 39/39/39
f 11/11/11 12/12/12 40/40/40
f 12/12/12 41/41/41 40/40/40
f 12/12/12 13/13/13 41/41/41
f 13/13/13 42/42/42 41/41/41
f 13/13/13 14/14/14 42/42/42
f 14/14/14 43/43/43 42/42/42
f 14/14/14 15/15/15 43/43/43
f 15/15/15 44/44/44 43/43/43
f 15/15/15 16/16/16 44/44/44
f 16/16/16 45/45/45 44/44/44
f 16/16/16 17/17/17 45/45/45
f 17/17/17 46/46/46 45/45/45
f 17/17/17 18/18/18 46/46/46
f 18/18/18 47/47/47 46/46/46
f 18/18/18 19/19/19 47/47/47
f 19/19/19 48/48/48 47/47/47
f 19/19/19 20/20/20 48/48/48
f 20/20/20 49/49/49 48/48/48
f 20/20/20 21/21/21 49/49/49
f 21/21/21 50/50/50 49/49/49
f 21/21/21 22/22/22 50/50/50
f 22/22/22 51/51/51 50/50/50
f 22/22/22 23/23/23 51/51/51
f 23/23/23 52/52/52 51/51/51
f 23/23/23 24/24/24 52/52/52
f 24/24/24 53/53/53 52/52/52
f 24/24/24 25/25/25 53/53/53
f 25/25/25 54/54/54 53/53/53
f 25/25/25 26/26/26 54/54/54
f 26/26/26 55/55/55 54/54/54
f 26/26/26 27/27/27 55/55/55
f 27/27/27 56/56/56 55/55/55
f 27/27/27 28/28/28 56/56/56
f 28/28/28 57/57/57 56/56/56
f 28/28/28 29/29/29 57/57/57
f 29/29/29 58/58/58 57/57/57
f 30/30/30 31/31/31 59/59/59
f 31/31/31 60/60/60 59/59/59
f 31/31/31 32/32/32 60/60/60
f 32/32/32 61/61/61 60/60/60
f 32/32/32 33/33/33 61/61/61
f 33/33/33 62/62/62 61/61/61
f 33/33/33 34/34/34 62/62/62
f 34/34/34 63/63/63 62/62/62
f 34/34/34 35/35/35 63/63/63
f 35/35/35 64/64/64 63/63/63
f 35/35/35 36/36/36 64/64/64
f 36/36/36 65/65/65 64/64/64
f 36/36/36 37/37/37 65/65/65
f 37/37/37 66/66/66 65/65/65
f 37/37/37 38/38/38 66/66/66
f 38/38/38 67/67/67 66/66/66
f 38/38/38 39/39/39 67/67/67
f 39/39/39 68/68/68 67/67/67
f 39/39/39 40/40/40 68/68/68
f 40/40/40 69/69/69 68/68/68
f 40/40/40 41/41/41 69/69/69
f 41/41/41 70/70/70 69/69/69
f 41/41/41 42/42/42 70/70/70
f 42/42/42 71/71/71 70/70/70
f 42/42/42 43/43/43 71/71/71
f 43/43/43 72/72/72 71/71/71
f 43/43/43 44/44/44 72/72/72
f 44/44/44 73/73/73 72/72/72
f 44/44/44 45/45/45 73/73/73
f 45/45/45 74/74/74 73/73/73
f 45/45/45 46/46/46 74/74/74
f 46/46/46 75/75/75 74/74/74
f 46/46/46 47/47/47 75/75/75
f 47/47/47 76/76/76 75/75/75
f 47/47/47 48/48/48 76/76/76
f 48/48/48 77/77/77 76/76/76
f 48/48/48 49/49/49 77/77/77
f 49/49/49 78/78/78 77/77/77
f 49/49/49 50/50/50 78/78/78
f 50/50/50 79/79/79 78/78/78
f 50/50/50 51/51/51 79/79/79
f 51/51/51 80/80/80 79/79/79
f 51/51/51 52/52/52 80/80/80
f 52/52/52 81/81/81 80/80/80
f 52/52/52 53/53/53 81/81/81
f 53/53/53 82/82/82 81/81/81
f 53/53/53 54/54/54 82/82/82
f 54/54/54 83/83/83 82/82/82
f 54/54/54 55/55/55 83/83/83
f 55/55/55 84/84/84 83/83/83
f 55/55/55 56/56/56 84/84/84
f 56/56/56 85/85/85 84/84/84
f 56/56/56 57/57/57 85/85/85
f 57/57/57 86/86/86 85/85/85
f 57/57/57 58/58/58 86/86/86
f 58/58/58 87/87/87 86/86/86
f 59/59/59 60/60/60 88/88/88
f 60/60/60 89/89/89 88/88/88
f 60/60/60 61/61/61 89/89/89
f 61/61/61 90/90/90 89/89/89
f 61/61/61 62/62/62 90/90/90
f 62/62/62 91/91/91 90/90/90
f 62/62/62 63/63/63 91/91/91
f 63/63/63 92/92/92 91/91/91
f 63/63/63 64/64/64 92/92/92
f 64/64/64 93/93/93 92/92/92
f 64/64/64 65/65/65 93/93/93
f 65/65/65 94/94/94 93/93/93
f 65/65/65 66/66/66 94/94/94
f 66/66/66 95/95/95 94/94/94
f 66/66/66 67/67/67 95/95/95
f 67/67/67 96/96/96 95/95/95
f 67/67/67 68/68/68 96/96/96
f 68/68/68 97/97/97 96/96/96
f 68/68/68 69/69/69 97/97/97
f 69/69/69 98/98/98 97/97/97
f 69/69/69 70/70/70 98/98/98
f 70/70/70 99/99/99 98/98/98
f 70/70/70 71/71/71 99/99/99
f 71/71/71 100/100/100 99/99/99
f 71/71/71 72/72/72 100/100/100
f 72/72/72 101/101/101 100/100/100
f 72/72/72 73/73/73 101/101/101
f 73/73/73 102/102/102 101/101/101
f 73/73/73 74/74/74 102/102/102
f 74/74/74 103/103/103 102/102/102
f 74/74/74 75/75/75 103/103/103
f 75/75/75 104/104/104 103/103/103
f 75/75/75 76/76/76 104/104/104
f 76/76/76 105/105/105 104/104/104
f 76/76/76 77/77/77 105/105/105
f 77/77/77 106/106/106 105/105/105
f 77/77/77 78/78/78 106/106/106
f 78/78/78 107/107/107 106/106/106
f 78/78/78 79/79/79 107/107/107
f 79/79/79 108/108/108 107/107/107
f 79/79/79 80/80/80 108/108/108
f 80/80/80 109/109/109 108/108/108
f 80/80/80 81/81/81 109/109/109
f 81/81/81 110/110/110 109/109/109
f 81/81/81 82/82/82 110/110/110
f 82/82/82 111/111/111 110/110/110
f 82/82/82 83/83/83 111/111/111
f 83/83/83 112/112/112 111/111/111
f 83/83/83 84/84/84 112/112/112
f 84/84/84 113/113/113 112/112/112
f 84/84/84 85/85/85 113/113/113
f 85/85/85 114/114/114 113/113/113
f 85/85/85 86/86/86 114/114/114
f 86/86/86 115/115/115 114/114/114
f 86/86/86 87/87/87 115/115/115
f 87/87/87 116/116/116 115/115/115
f 88/88/88 89/89/89 117/117/117
f 89/89/89 118/118/118 117/117/117
f 89/89/89 90/90/90 118/118/118
f 90/90/90 119/119/119 118/118/118
f 90/90/90 91/91/91 119/119/119
f 91/91/91 120/120/120 119/119/119
f 91/91/91 92/92/92 120/120/120
f 92/92/92 121/121/121 120/120/120
f 92/92/92 93/93/93 121/121/121
f 93/93/93 122/122/122 121/121/121
f 93/93/93 94/94/94 122/122/122
f 94/94/94 123/123/123 122/122/122
f 94/94/94 95/95/95 123/123/123
f 95/95/95 124/124/124 123/123/123
f 95/95/95 96/96/96 124/124/124
f 96/96/96 125/125/125 124/124/124
f 96/96/96 97/97/97 125/125/125
f 97/97/97 126/126/126 125/125/125
f 97/97/97 98/98/98 126/126/126
f 98/98/98 127/127/127 126/126/126
f 98/98/98 99/99/99 127/127/127
f 99/99/99 128/128/128 127/127/127
f 99/99/99 100/100/100 128/128/128
f 100/100/100 129/129/129 128/128/128
f 100/100/100 101/101/101 129/129/129
f 101/101/101 130/130/130 129/129/129
f 101/101/101 102/102/102 130/130/130
f 102/102/102 131/131/131 130/130/130
f 102/102/102 103/103/103 131/131/131
f 103/103/103 132/132/132 131/131/131
f 103/103/103 104/104/104 132/132/132
f 104/104/104 133/133/133 132/132/132
f 104/104/104 105/105/105 133/133/133
f 105/105/105 134/134/134 133/133/133
f 105/105/105 106/106/106 134/134/134
f 106/106/106 135/135/135 134/134/134
f 106/106/106 107/107/107 135/135/135
f 107/107/107 136/136/136 135/135/135
f 107/107/107 108/108/108 136/136/136
f 108/108/108 137/137/137 136/136/136
f 108/108/108 109/109/109 137/137/137
f 109/109/109 138/138/138 137/137/137
f 109/109/109 110/110/110 138/138/138
f 110/110/110 139/139/139 138/138/138
f 110/110/110 111/111/111 139/139/139
f 111/111/111 140/140/140 139/139/139
f 111/111/111 112/112/112 140/140/140
f 112/112/112 141/141/141 140/140/140
f 112/112/112 113/113/113 141/141/141
f 113/113/113 142/142/142 141/141/141
f 113/113/113 114/114/114 142/142/142
f 114/114/114 143/143/143 142/142/142
f 114/114/114 115/115/115 143/143/143
f 115/115/115 144/144/144 143/143/143
f 115/115/115 116/116/116 144/144/144
f 116/116/116 145/145/145 144/144/144
f 117/117/117 118/118/118 146/146/146
f 118/118/118 147/147/147 146/146/146
f 118/118/118 119/119/119 147/147/147
f 119/119/119 148/148/148 147/147/147
f 119/119/119 120/120/120 148/148/148
f 120/120/120 149/149/149 148/148/148
f 120/120/120 121/121/121 149/149/149
f 121/121/121 150/150/150 149/149/149
f 121/121/121 122/122/122 150/150/150
f 122/122/122 151/151/151 150/150/150
f 122/122/122 123/123/123 151/151/151
f 123/123/123 152/152/152 151/151/151
f 123/123/123 124/124/124 152/152/152
f 124/124/124 153/153/153 152/152/152
f 124/124/124 125/125/125 153/153/153
f 125/125/125 154/154/154 153/153/153
f 125/125/125 126/126/126 154/154/154
f 126/126/126 155/155/155 154/154/154
f 126/126/126 127/127/127 155/155/155
f 127/127/127 156/156/156 155/155/155
f 127/127/127 128/128/128 156/156/156
f 128/128/128 157/157/157 156/156/156
f 128/128/128 129/129/129 157/157/157
f 129/129/129 158/158/158 157/157/157
f 129/129/129 130/130/130 158/158/158
f 130/130/130 159/159/159 158/158/158
f 130/130/130 131/131/131 159/159/159
f 131/131/131 160/160/160 159/159/159
f 131/131/131 132/132/132 160/160/160
f 132/132/132 161/161/161 160/160/160
f 132/132/132 133/133/133 161/161/161
f 133/133/133 162/162/162 161/161/161
f 133/133/133 134/134/134 162/162/162
f 134/134/134 163/163/163 162/162/162
f 134/134/134 135/135/135 163/163/163
f 135/135/135 164/164/164 163/163/163
f 135/135/135 136/136/136 164/164/164
f 136/136/136 165/165/165 164/164/164
f 136/136/136 137/137/137 165/165/165
f 137/137/137 166/166/166 165/165/165
f 137/137/137 138/138/138 166/166/166
f 138/138/138 167/167/167 166/166/166
f 138/138/138 139/139/139 167/167/167
f 139/139/139 168/168/168 167/167/167
f 139/139/139 140/140/140 168/168/168
f 140/140/140 169/169/169 168/168/168
f 140/140/140 141/141/141 169/169/169
f 141/141/141 170/170/170 169/169/169
f 141/141/141 142/142/142 170/170/170
f 142/142/142 171/171/171 170/170/170
f 142/142/142 143/143/143 171/171/171
f 143/143/143 172/172/172 171/171/171
f 143/143/143 144/144/144 172/172/172
f 144/144/144 173/173/173 172/172/172
f 144/144/144 145/145/145 173/173/173
f 145/145/145 174/174/174 173/173/173
f 146/146/146 147/147/147 175/175/175
f 147/147/147 176/176/176 175/175/175
f 147/147/147 148/148/148 176/176/176
f 148/148/148 177/177/177 176/176/176
f 148/148/148 149/149/149 177/177/177
f 149/149/149 178/178/178 177/177/177
f 149/149/149 150/150/150 178/178/178
f 150/150/150 179/179/179 178/178/178
f 150/150/150 151/151/151 179/179/179
f 151/151/151 180/180/180 179/179/179
f 151/151/151 152/152/152 180/180/180
f 152/152/152 181/181/181 180/180/180
f 152/152/152 153/153/153 181/181/181
f 153/153/153 182/182/182 181/181/181
f 153/153/153 154/154/154 182/182/182
f 154/154/154 183/183/183 182/182/182
f 154/154/154 155/155/155 183/183/183
f 155/155/155 184/184/184 183/183/183
f 155/155/155 156/156/156 184/184/184
f 156/156/156 185/185/185 184/184/184
f 156/156/156 157/157/157 185/185/185
f 157/157/157 186/186/186 185/185/185
f 157/157/157 158/158/158 186/186/186
f 158/158/158 187/187/187 186/186/186
f 158/158/158 159/159/159 187/187/187
f 159/159/159 188/188/188 187/187/187
f 159/159/159 160/160/160 188/188/188
f 160/160/160 189/189/189 188/188/188
f 160/160/160 161/161/161 189/189/189
f 161/161/161 190/190/190 189/189/189
f 161/161/161 162/162/162 190/190/190
f 162/162/162 191/191/191 190/190/190
f 162/162/162 163/163/163 191/191/191
f 163/163/163 192/192/192 191/191/191
f 163/163/163 164/164/164 192/192/192
f 164/164/164 193/193/193 192/192/192
f 164/164/164 165/165/165 193/193/193
f 165/165/165 194/194/194 193/193/193
f 165/165/165 166/166/166 194/194/194
f 166/166/166 195/195/195 194/194/194
f 166/166/166 167/167/167 195/195/195
f 167/167/167 196/196/196 195/195/195
f 167/167/167 168/168/168 196/196/196
f 168/168/168 197/197/197 196/196/196
f 168/168/168 169/169/169 197/197/197
f 169/169/169 198/198/198 197/197/197
f 169/169/169 170/170/170 198/198/198
f 170/170/170 199/199/199 198/198/198
f 170/170/170 171/171/171 199/199/199
f 171/171/171 200/200/200 199/199/199
f 171/171/171 172/172/172 200/200/200
f 172/172/172 201/201/201 200/200/200
f 172/172/172 173/173/173 201/201/201
f 173/173/173 202/202/202 201/201/201
f 173/173/173 174/174/174 202/202/202
f 174/174/174 203/203/203 202/202/202
f 175/175/175 176/176/176 204/204/204
f 176/176/176 205/205/205 204/204/204
f 176/176/176 177/177/177 205/205/205
f 177/177/177 206/206/206 205/205/205
f 177/177/177 178/178/178 206/206/206
f 178/178/178 207/207/207 206/206/206
f 178/178/178 179/179/179 207/207/207
f 179/179/179 208/208/208 207/207/207
f 179/179/179 180/180/180 208/208/208
f 180/180/180 209/209/209 208/208/208
f 180/180/180 181/181/181 209/209/209
f 181/181/181 210/210/210 209/209/209
f 181/181/181 182/182/182 210/210/210
f 182/182/182 211/211/211 210/210/210
f 182/182/182 183/183/183 211/211/211
f 183/183/183 212/212/212 211/211/211
f 183/183/183 184/184/184 212/212/212
f 184/184/184 213/213/213 212/212/212
f 184/184/184 185/185/185 213/213/213
f 185/185/185 214/214/214 213/213/213
f 185/185/185 186/186/186 214/214/214
f 186/186/186 215/215/215 214/214/214
f 186/186/186 187/187/187 215/215/215
f 187/187/187 216/216/216 215/215/215
f 187/187/187 188/188/188 216/216/216
f 188/188/188 217/217/217 216/216/216
f 188/188/188 189/189/189 217/217/217
f 189/189/189 218/218/218 217/217/217
f 189/189/189 190/190/190 218/218/218
f 190/190/190 219/219/219 218/218/218
f 190/190/190 191/191/191 219/219/219
f 191/191/191 220/220/220 219/219/219
f 191/191/191 192/192/192 220/220/220
f 192/192/192 221/221/221 220/220/220
f 192/192/192 193/193/193 221/221/221
f 193/193/193 222/222/222 221/221/221
f 193/193/193 194/194/194 222/222/222
f 194/194/194 223/223/223 222/222/222
f 194/194/194 195/195/195 223/223/223
f 195/195/195 224/224/224 223/223/223
f 195/195/195 196/196/196 224/224/224
f 196/196/196 225/225/225 224/224/224
f 196/196/196 197/197/197 225/225/225
f 197/197/197 226/226/226 225/225/225
f 197/197/197 198/198/198 226/226/226
f 198/198/198 227/227/227 226/226/226
f 198/198/198 199/199/199 227/227/227
f 199/199/199 228/228/228 227/227/227
f 199/199/199 200/200/200 228/228/228
f 200/200/200 229/229/229 228/228/228
f 200/200/200 201/201/201 229/229/229
f 201/201/201 230/230/230 229/229/229
f 201/201/201 202/202/202 230/230/230
f 202/202/202 231/231/231 230/230/230
f 202/202/202 203/203/203 231/231/231
f 203/203/203 232/232/232 231/231/231
f 204/204/204 205/205/205 233/233/233
f 205/205/205 234/234/234 233/233/233
f 205/205/205 206/206/206 234/234/234
f 206/206/206 235/235/235 234/234/234
f 206/206/206 207/207/207 235/235/235
f 207/207/207 236/236/236 235/235/235
f 207/207/207 208/208/208 236/236/236
f 208/208/208 237/237/237 236/236/236
f 208/208/208 209/209/209 237/237/237
f 209/209/209 238/238/238 237/237/237
f 209/209/209 210/210/210 238/238/238
f 210/210/210 239/239/239 238/238/238
f 210/210/210 211/211/211 239/239/239
f 211/211/211 240/240/240 239/239/239
f 211/211/211 212/212/212 240/240/240
f 212/212/212 241/241/241 240/240/240
f 212/212/212 213/213/213 241/241/241
f 213/213/213 242/242/242 241/241/241
f 213/213/213 214/214/214 242/242/242
f 214/214/214 243/243/243 242/242/242
f 214/214/214 215/215/215 243/243/243
f 215/215/215 244/244/244 243/243/243
f 215/215/215 216/216/216 244/244/244
f 216/216/216 245/245/245 244/244/244
f 216/216/216 217/217/217 245/245/245
f 217/217/217 246/246/246 245/245/245
f 217/217/217 218/218/218 246/246/246
f 218/218/218 247/247/247 246/246/246
f 218/218/218 219/219/219 247/247/247
f 219/219/219 248/248/248 247/247/247
f 219/219/219 220/220/220 248/248/248
f 220/220/220 249/249/249 248/248/248
f 220/220/220 221/221/221 249/249/249
f 221/221/221 250/250/250 249/249/249
f 221/221/221 222/222/222 250/250/250
f 222/222/222 251/251/251 250/250/250
f 222/222/222 223/223/223 251/251/251
f 223/223/223 252/252/252 251/251/251
f 223/223/223 224/224/224 252/252/252
f 224/224/224 253/253/253 252/252/252
f 224/224/224 225/225/225 253/253/253
f 225/225/225 254/254/254 253/253/253
f 225/225/225 226/226/226 254/254/254
f 226/226/226 255/255/255 254/254/254
f 226/226/226 227/227/227 255/255/255
f 227/227/227 256/256/256 255/255/255
f 227/227/227 228/228/228 256/256/256
f 228/228/228 257/257/257 256/256/256
f 228/228/228 229/229/229 257/257/257
f 229/229/229 258/258/258 257/257/257
f 229/229/229 230/230/230 258/258/258
f 230/230/230 259/259/259 258/258/258
f 230/230/230 231/231/231 259/259/259
f 231/231/231 260/260/260 259/259/259
f 231/231/231 232/232/232 260/260/260
f 232/232/232 261/261/261 260/260/260
f 233/233/233 234/234/234 262/262/262
f 234/234/234 263/263/263 262/262/262
f 234/234/234 235/235/235 263/263/263
f 235/235/235 264/264/264 263/263/263
f 235/235/235 236/236/236 264/264/264
f 236/236/236 265/265/265 264/264/264
f 236/236/236 237/237/237 265/265/265
f 237/237/237 266/266/266 265/265/265
f 237/237/237 238/238/238 266/266/266
f 238/238/238 267/267/267 266/266/266
f 238/238/238 239/239/239 267/267/267
f 239/239/239 268/268/268 267/267/267
f 239/239/239 240/240/240 268/268/268
f 240/240/240 269/269/269 268/268/268
f 240/240/240 241/241/241 269/269/269
f 241/241/241 270/270/270 269/269/269
f 241/241/241 242/242/242 270/270/270
f 242/242/242 271/271/271 270/270/270
f 242/242/242 243/243/243 271/271/271
f 243/243/243 272/272/272 271/271/271
f 243/243/243 244/244/244 272/272/272
f 244/244/244 273/273/273 272/272/272
f 244/244/244 245/245/245 273/273/273
f 245/245/245 274/274/274 273/273/273
f 245/245/245 246/246/246 274/274/274
f 246/246/246 275/275/275 274/274/274
f 246/246/246 247/247/247 275/275/275
f 247/247/247 276/276/276 275/275/275
f 247/247/247 248/248/248 276/276/276
f 248/248/248 277/277/277 276/276/276
f 248/248/248 249/249/249 277/277/277
f 249/249/249 278/278/278 277/277/277
f 249/249/249 250/250/250 278/278/278
f 250/250/250 279/279/279 278/278/278
f 250/250/250 251/251/251 279/279/279
f 251/251/251 280/280/280 279/279/279
f 251/251/251 252/252/252 280/280/280
f 252/252/252 281/281/281 280/280/280
f 252/252/252 253/253/253 281/281/281
f 253/253/253 282/282/282 281/281/281
f 253/253/253 254/254/254 282/282/282
f 254/254/254 283/283/283 282/282/282
f 254/254/254 255/255/255 283/283/283
f 255/255/255 284/284/284 283/283/283
f 255/255/255 256/256/256 284/284/284
f 256/256/256 285/285/285 284/284/284
f 256/256/256 257/257/257 285/285/285
f 257/257/257 286/286/286 285/285/285
f 257/257/257 258/258/258 286/286/286
f 258/258/258 287/287/287 286/286/286
f 258/258/258 259/259/259 287/287/287
f 259/259/259 288/288/288 287/287/287
f 259/259/259 260/260/260 288/288/288
f 260/260/260 289/289/289 288/288/288
f 260/260/260 261/261/261 289/289/289
f 261/261/261 290/290/290 289/289/289
f 262/262/262 263/263/263 291/291/291
f 263/263/263 292/292/292 291/291/291
f 263/263/263 264/264/264 292/292/292
f 264/264/264 293/293/293 292/292/292
f 264/264/264 265/265/265 293/293/293
f 265/265/265 294/294/294 293/293/293
f 265/265/265 266/266/266 294/294/294
f 266/266/266 295/295/295 294/294/294
f 266/266/266 267/267/267 295/295/295
f 267/267/267 296/296/296 295/295/295
f 267/267/267 268/268/268 296/296/296
f 268/268/268 297/297/297 296/296/296
f 268/268/268 269/269/269 297/297/297
f 269/269/269 298/298/298 297/297/297
f 269/269/269 270/270/270 298/298/298
f 270/270/270 299/299/299 298/298/298
f 270/270/270 271/271/271 299/299/299
f 271/271/271 300/300/300 299/299/299
f 271/271/271 272/272/272 300/300/300
f 272/272/272 301/301/301 300/300/300
f 272/272/272 273/273/273 301/301/301
f 273/273/273 302/302/302 301/301/301
f 273/273/273 274/274/274 302/302/302
f 274/274/274 303/303/303 302/302/302
f 274/274/274 275/275/275 303/303/303
f 275/275/275 304/304/304 303/303/303
f 275/275/275 276/276/276 304/304/304
f 276/276/276 305/305/305 304/304/304
f 276/276/276 277/277/277 305/305/305
f 277/277/277 306/306/306 305/305/305
f 277/277/277 278/278/278 306/306/306
f 278/278/278 307/307/307 306/306/306
f 278/278/278 279/279/279 307/307/307
f 279/279/279 308/308/308 307/307/307
f 279/279/279 280/280/280 308/308/308
f 280/280/280 309/309/309 308/308/308
f 280/280/280 281/281/281 309/309/309
f 281/281/281 310/310/310 309/309/309
f 281/281/281 282/282/282 310/310/310
f 282/282/282 311/311/311 310/310/310
f 282/282/282 283/283/283 311/311/311
f 283/283/283 312/312/312 311/311/311
f 283/283/283 284/284/284 312/312/312
f 284/284/284 313/313/313 312/312/312
f 284/284/284 285/285/285 313/313/313
f 285/285/285 314/314/314 313/313/313
f 285/285/285 286/286/286 314/314/314
f 286/286/286 315/315/315 314/314/314
f 286/286/286 287/287/287 315/315/315
f 287/287/287 316/316/316 315/315/315
f 287/287/287 288/288/288 316/316/316
f 288/288/288 317/317/317 316/316/316
f 288/288/288 289/289/289 317/317/317
f 289/289/289 318/318/318 317/317/317
f 289/289/289 290/290/290 318/318/318
f 290/290/290 319/319/319 318/318/318
f 291/291/291 292/292/292 320/320/320
f 292/292/292 321/321/321 320/320/320
f 292/292/292 293/293/293 321/321/321
f 293/293/293 322/322/322 321/321/321
f 293/293/293 294/294/294 322/322/322
f 294/294/294 323/323/323 322/322/322
f 294/294/294 295/295/295 323/323/323
f 295/295/295 324/324/324 323/323/323
f 295/295/295 296/296/296 324/324/324
f 296/296/296 325/325/325 324/324/324
f 296/296/296 297/297/297 325/325/325
f 297/297/297 326/326/326 325/325/325
f 297/297/297 298/298/298 326/326/326
f 298/298/298 327/327/327 326/326/326
f 298/298/298 299/299/299 327/327/327
f 299/299/299 328/328/328 327/327/327
f 299/299/299 300/300/300 328/328/328
f 300/300/300 329/329/329 328/328/328
f 300/300/300 301/301/301 329/329/329
f 301/301/301 330/330/330 329/329/329
f 301/301/301 302/302/302 330/330/330
f 302/302/302 331/331/331 330/330/330
f 302/302/302 303/303/303 331/331/331
f 303/303/303 332/332/332 331/331/331
f 303/303/303 304/304/304 332/332/332
f 304/304/304 333/333/333 332/332/332
f 304/304/304 305/305/305 333/333/333
f 305/305/305 334/334/334 333/333/333
f 305/305/305 306/306/306 334/334/334
f 306/306/306 335/335/335 334/334/334
f 306/306/306 307/307/307 335/335/335
f 307/307/307 336/336/336 335/335/335
f 307/307/307 308/308/308 336/336/336
f 308/308/308 337/337/337 336/336/336
f 308/308/308 309/309/309 337/337/337
f 309/309/309 338/338/338 337/337/337
f 309/309/309 310/310/310 338/338/338
f 310/310/310 339/339/339 338/338/338
f 310/310/310 311/311/311 339/339/339
f 311/311/311 340/340/340 339/339/339
f 311/311/311 312/312/312 340/340/340
f 312/312/312 341/341/341 340/340/340
f 312/312/312 313/313/313 341/341/341
f 313/313/313 342/342/342 341/341/341
f 313/313/313 314/314/314 342/342/342
f 314/314/314 343/343/343 342/342/342
f 314/314/314 315/315/315 343/343/343
f 315/315/315 344/344/344 343/343/343
f 315/315/315 316/316/316 344/344/344
f 316/316/316 345/345/345 344/344/344
f 316/316/316 317/317/317 345/345/345
f 317/317/317 346/346/346 345/345/345
f 317/317/317 318/318/318 346/346/346
f 318/318/318 347/347/347 346/346/346
f 318/318/318 319/319/319 347/347/347
f 319/319/319 348/348/348 347/347/347
f 320/320/320 321/321/321 349/349/349
f 321/321/321 350/350/350 349/349/349
f 321/321/321 322/322/322 350/350/350
f 322/322/322 351/351/351 350/350/350
f 322/322/322 323/323/323 351/351/351
f 323/323/323 352/352/352 351/351/351
f 323/323/323 324/324/324 352/352/352
f 324/324/324 353/353/353 352/352/352
f 324/324/324 325/325/325 353/353/353
f 325/325/325 354/354/354 353/353/353
f 325/325/325 326/326/326 354/354/354
f 326/326/326 355/355/355 354/354/354
f 326/326/326 327/327/327 355/355/355
f 327/327/327 356/356/356 355/355/355
f 327/327/327 328/328/328 356/356/356
f 328/328/328 357/357/357 356/356/356
f 328/328/328 329/329/329 357/357/357
f 329/329/329 358/358/358 357/357/357
f 329/329/329 330/330/330 358/358/358
f 330/330/330 359/359/359 358/358/358
f 330/330/330 331/331/331 359/359/359
f 331/331/331 360/360/360 359/359/359
f 331/331/331 332/332/332 360/360/360
f 332/332/332 361/361/361 360/360/360
f 332/332/332 333/333/333 361/361/361
f 333/333/333 362/362/362 361/361/361
f 333/333/333 334/334/334 362/362/362
f 334/334/334 363/363/363 362/362/362
f 334/334/334 335/335/335 363/363/363
f 335/335/335 364/364/364 363/363/363
f 335/335/335 336/336/336 364/364/364
f 336/336/336 365/365/365 364/364/364
f 336/336/336 337/337/337 365/365/365
f 337/337/337 366/366/366 365/365/365
f 337/337/337 338/338/338 366/366/366
f 338/338/338 367/367/367 366/366/366
f 338/338/338 339/339/339 367/367/367
f 339/339/339 368/368/368 367/367/367
f 339/339/339 340/340/340 368/368/368
f 340/340/340 369/369/369 368/368/368
f 340/340/340 341/341/341 369/369/369
f 341/341/341 370/370/370 369/369/369
f 341/341/341 342/342/342 370/370/370
f 342/342/342 371/371/371 370/370/370
f 342/342/342 343/343/343 371/371/371
f 343/343/343 372/372/372 371/371/371
f 343/343/343 344/344/344 372/372/372
f 344/344/344 373/373/373 372/372/372
f 344/344/344 345/345/345 373/373/373
f 345/345/345 374/374/374 373/373/373
f 345/345/345 346/346/346 374/374/374
f 346/346/346 375/375/375 374/374/374
f 346/346/346 347/347/347 375/375/375
f 347/347/347 376/376/376 375/375/375
f 347/347/347 348/348/348 376/376/376
f 348/348/348 377/377/377 376/376/376
f 349/349/349 350/350/350 378/378/378
f 350/350/350 379/379/379 378/378/378
f 350/350/350 351/351/351 379/379/379
f 351/351/351 380/380/380 379/379/379
f 351/351/351 352/352/352 380/380/380
f 352/352/352 381/381/381 380/380/380
f 352/352/352 353/353/353 381/381/381
f 353/353/353 382/382/382 381/381/381
f 353/353/353 354/354/354 382/382/382
f 354/354/354 383/383/383 382/382/382
f 354/354/354 355/355/355 383/383/383
f 355/355/355 384/384/384 383/383/383
f 355/355/355 356/356/356 384/384/384
f 356/356/356 385/385/385 384/384/384
f 356/356/356 357/357/357 385/385/385
f 357/357/357 386/386/386 385/385/385
f 357/357/357 358/358/358 386/386/386
f 358/358/358 387/387/387 386/386/386
f 358/358/358 359/359/359 387/387/387
f 359/359/359 388/388/388 387/387/387
f 359/359/359 360/360/360 388/388/388
f 360/360/360 389/389/389 388/388/388
f 360/360/360 361/361/361 389/389/389
f 361/361/361 390/390/390 389/389/389
f 361/361/361 362/362/362 390/390/390
f 362/362/362 391/391/391 390/390/390
f 362/362/362 363/363/363 391/391/391
f 363/363/363 392/392/392 391/391/391
f 363/363/363 364/364/364 392/392/392
f 364/364/364 393/393/393 392/392/392
f 364/364/364 365/365/365 393/393/393
f 365/365/365 394/394/394 393/393/393
f 365/365/365 366/366/366 394/394/394
f 366/366/366 395/395/395 394/394/394
f 366/366/366 367/367/367 395/395/395
f 367/367/367 396/396/396 395/395/395
f 367/367/367 368/368/368 396/396/396
f 368/368/368 397/397/397 396/396/396
f 368/368/368 369/369/369 397/397/397
f 369/369/369 398/398/398 397/397/397
f 369/369/369 370/370/370 398/398/398
f 370/370/370 399/399/399 398/398/398
f 370/370/370 371/371/371 399/399/399
f 371/371/371 400/400/400 399/399/399
f 371/371/371 372/372/372 400/400/400
f 372/372/372 401/401/401 400/400/400
f 372/372/372 373/373/373 401/401/401
f 373/373/373 402/402/402 401/401/401
f 373/373/373 374/374/374 402/402/402
f 374/374/374 403/403/403 402/402/402
f 374/374/374 375/375/375 403/403/403
f 375/375/375 404/404/404 403/403/403
f 375/375/375 376/376/376 404/404/404
f 376/376/376 405/405/405 404/404/404
f 376/376/376 377/377/377 405/405/405
f 377/377/377 406/406/406 405/405/405
f 378/378/378 379/379/379 407/407/407
f 379/379/379 408/408/408 407/407/407
f 379/379/379 380/380/380 408/408/408
f 380/380/380 409/409/409 408/408/408
f 380/380/380 381/381/381 409/409/409
f 381/381/381 410/410/410 409/409/409
f 381/381/381 382/382/382 410/410/410
f 382/382/382 411/411/411 410/410/410
f 382/382/382 383/383/383 411/411/411
f 383/383/383 412/412/412 411/411/411
f 383/383/383 384/384/384 412/412/412
f 384/384/384 413/413/413 412/412/412
f 384/384/384 385/385/385 413/413/413
f 385/385/385 414/414/414 413/413/413
f 385/385/385 386/386/386 414/414/414
f 386/386/386 415/415/415 414/414/414
f 386/386/386 387/387/387 415/415/415
f 387/387/387 416/416/416 415/415/415
f 387/387/387 388/388/388 416/416/416
f 388/388/388 417/417/417 416/416/416
f 388/388/388 389/389/389 417/417/417
f 389/389/389 418/418/418 417/417/417
f 389/389/389 390/390/390 418/418/418
f 390/390/390 419/419/419 418/418/418
f 390/390/390 391/391/391 419/419/419
f 391/391/391 420/420/420 419/419/419
f 391/391/391 392/392/392 420/420/420
f 392/392/392 421/421/421 420/420/420
f 392/392/392 393/393/393 421/421/421
f 393/393/393 422/422/422 421/421/421
f 393/393/393 394/394/394 422/422/422
f 394/394/394 423/423/423 422/422/422
f 394/394/394 395/395/395 423/423/423
f 395/395/395 424/424/424 423/423/423
f 395/395/395 396/396/396 424/424/424
f 396/396/396 425/425/425 424/424/424
f 396/396/396 397/397/397 425/425/425
f 397/397/397 426/426/426 425/425/425
f 397/397/397 398/398/398 426/426/426
f 398/398/398 427/427/427 426/426/426
f 398/398/398 399/399/399 427/427/427
f 399/399/399 428/428/428 427/427/427
f 399/399/399 400/400/400 428/428/428
f 400/400/400 429/429/429 428/428/428
f 400/400/400 401/401/401 429/429/429
f 401/401/401 430/430/430 429/429/429
f 401/401/401 402/402/402 430/430/430
f 402/402/402 431/431/431 430/430/430
f 402/402/402 403/403/403 431/431/431
f 403/403/403 432/432/432 431/431/431
f 403/403/403 404/404/404 432/432/432
f 404/404/404 433/433/433 432/432/432
f 404/404/404 405/405/405 433/433/433
f 405/405/405 434/434/434 433/433/433
f 405/405/405 406/406/406 434/434/434
f 406/406/406 435/435/435 434/434/434
f 407/407/407 408/408/408 436/436/436
f 408/408/408 437/437/437 436/436/436
f 408/408/408 409/409/409 437/437/437
f 409/409/409 438/438/438 437/437/437
f 409/409/409 410/410/410 438/438/438
f 410/410/410 439/439/439 438/438/438
f 410/410/410 411/411/411 439/439/439
f 411/411/411 440/440/440 439/439/439
f 411/411/411 412/412/412 440/440/440
f 412/412/412 441/441/441 440/440/440
f 412/412/412 413/413/413 441/441/441
f 413/413/413 442/442/442 441/441/441
f 413/413/413 414/414/414 442/442/442
f 414/414/414 443/443/443 442/442/442
f 414/414/414 415/415/415 443/443/443
f 415/415/415 444/444/444 443/443/443
f 415/415/415 416/416/416 444/444/444
f 416/416/416 445/445/445 444/444/444
f 416/416/416 417/417/417 445/445/445
f 417/417/417 446/446/446 445/445/445
f 417/417/417 418/418/418 446/446/446
f 418/418/418 447/447/447 446/446/446
f 418/418/418 419/419/419 447/447/447
f 419/419/419 448/448/448 447/447/447
f 419/419/419 420/420/420 448/448/448
f 420/420/420 449/449/449 448/448/448
f 420/420/420 421/421/421 449/449/449
f 421/421/421 450/450/450 449/449/449
f 421/421/421 422/422/422 450/450/450
f 422/422/422 451/451/451 450/450/450
f 422/422/422 423/423/423 451/451/451
f 423/423/423 452/452/452 451/451/451
f 423/423/423 424/424/424 452/452/452
f 424/424/424 453/453/453 452/452/452
f 424/424/424 425/425/425 453/453/453
f 425/425/425 454/454/454 453/453/453
f 425/425/425 426/426/426 454/454/454
f 426/426/426 455/455/455 454/454/454
f 426/426/426 427/427/427 455/455/455
f 427/427/427 456/456/456 455/455/455
f 427/427/427 428/428/428 456/456/456
f 428/428/428 457/457/457 456/456/456
f 428/428/428 429/429/429 457/457/457
f 429/429/429 458/458/458 457/457/457
f 429/429/429 430/430/430 458/458/458
f 430/430/430 459/459/459 458/458/458
f 430/430/430 431/431/431 459/459/459
f 431/431/431 460/460/460 459/459/459
f 431/431/431 432/432/432 460/460/460
f 432/432/432 461/461/461 460/460/460
f 432/432/432 433/433/433 461/461/461
f 433/433/433 462/462/462 461/461/461
f 433/433/433 434/434/434 462/462/462
f 434/434/434 463/463/463 462/462/462
f 434/434/434 435/435/435 463/463/463
f 435/435/435 464/464/464 463/463/463
f 436/436/436 437/437/437 465/465/465
f 437/437/437 466/466/466 465/465/465
f 437/437/437 438/438/438 466/466/466
f 438/438/438 467/467/467 466/466/466
f 438/438/438 439/439/439 467/467/467
f 439/439/439 468/468/468 467/467/467
f 439/439/439 440/440/440 468/468/468
f 440/440/440 469/469/469 468/468/468
f 440/440/440 441/441/441 469/469/469
f 441/441/441 470/470/470 469/469/469
f 441/441/441 442/442/442 470/470/470
f 442/442/442 471/471/471 470/470/470
f 442/442/442 443/443/443 471/471/471
f 443/443/443 472/472/472 471/471/471
f 443/443/443 444/444/444 472/472/472
f 444/444/444 473/473/473 472/472/472
f 444/444/444 445/445/445 473/473/473
f 445/445/445 474/474/474 473/473/473
f 445/445/445 446/446/446 474/474/474
f 446/446/446 475/475/475 474/474/474
f 446/446/446 447/447/447 475/475/475
f 447/447/447 476/476/476 475/475/475
f 447/447/447 448/448/448 476/476/476
f 448/448/448 477/477/477 476/476/476
f 448/448/448 449/449/449 477/477/477
f 449/449/449 478/478/478 477/477/477
f 449/449/449 450/450/450 478/478/478
f 450/450/450 479/479/479 478/478/478
f 450/450/450 451/451/451 479/479/479
f 451/451/451 480/480/480 479/479/479
f 451/451/451 452/452/452 480/480/480
f 452/452/452 481/481/481 480/480/480
f 452/452/452 453/453/453 481/481/481
f 453/453/453 482/482/482 481/481/481
f 453/453/453 454/454/454 482/482/482
f 454/454/454 483/483/483 482/482/482
f 454/454/454 455/455/455 483/483/483
f 455/455/455 484/484/484 483/483/483
f 455/455/455 456/456/456 484/484/484
f 456/456/456 485/485/485 484/484/484
f 456/456/456 457/457/457 485/485/485
f 457/457/457 486/486/486 485/485/485
f 457/457/457 458/458/458 486/486/486
f 458/458/458 487/487/487 486/486/486
f 458/458/458 459/459/459 487/487/487
f 459/459/459 488/488/488 487/487/487
f 459/459/459 460/460/460 488/488/488
f 460/460/460 489/489/489 488/488/488
f 460/460/460 461/461/461 489/489/489
f 461/461/461 490/490/490 489/489/489
f 461/461/461 462/462/462 490/490/490
f 462/462/462 491/491/491 490/490/490
f 462/462/462 463/463/463 491/491/491
f 463/463/463 492/492/492 491/491/491
f 463/463/463 464/464/464 492/492/492
f 464/464/464 493/493/493 492/492/492
f 465/465/465 466/466/466 494/494/494
f 466/466/466 495/495/495 494/494/494
f 466/466/466 467/467/467 495/495/495
f 467/467/467 496/496/496 495/495/495
f 467/467/467 468/468/468 496/496/496
f 468/468/468 497/497/497 496/496/496
f 468/468/468 469/469/469 497/497/497
f 469/469/469 498/498/498 497/497/497
f 469/469/469 470/470/470 498/498/498
f 470/470/470 499/499/499 498/498/498
f 470/470/470 471/471/471 499/499/499
f 471/471/471 500/500/500 499/499/499
f 471/471/471 472/472/472 500/500/500
f 472/472/472 501/501/501 500/500/500
f 472/472/472 473/473/473 501/501/501
f 473/473/473 502/502/502 501/501/501
f 473/473/473 474/474/474 502/502/502
f 474/474/474 503/503/503 502/502/502
f 474/474/474 475/475/475 503/503/503
f 475/475/475 504/504/504 503/503/503
f 475/475/475 476/476/476 504/504/504
f 476/476/476 505/505/505 504/504/504
f 476/476/476 477/477/477 505/505/505
f 477/477/477 506/506/506 505/505/505
f 477/477/477 478/478/478 506/506/506
f 478/478/478 507/507/507 506/506/506
f 478/478/478 479/479/479 507/507/507
f 479/479/479 508/508/508 507/507/507
f 479/479/479 480/480/480 508/508/508
f 480/480/480 509/509/509 508/508/508
f 480/480/480 481/481/481 509/509/509
f 481/481/481 510/510/510 509/509/509
f 481/481/481 482/482/482 510/510/510
f 482/482/482 511/511/511 510/510/510
f 482/482/482 483/483/483 511/511/511
f 483/483/483 512/512/512 511/511/511
f 483/483/483 484/484/484 512/512/512
f 484/484/484 513/513/513 512/512/512
f 484/484/484 485/485/485 513/513/513
f 485/485/485 514/514/514 513/513/513
f 485/485/485 486/486/486 514/514/514
f 486/486/486 515/515/515 514/514/514
f 486/486/486 487/487/487 515/515/515
f 487/487/487 516/516/516 515/515/515
f 487/487/487 488/488/488 516/516/516
f 488/488/488 517/517/517 516/516/516
f 488/488/488 489/489/489 517/517/517
f 489/489/489 518/518/518 517/517/517
f 489/489/489 490/490/490 518/518/518
f 490/490/490 519/519/519 518/518/518
f 490/490/490 491/491/491 519/519/519
f 491/491/491 520/520/520 519/519/519
f 491/491/491 492/492/492 520/520/520
f 492/492/492 521/521/521 520/520/520
f 492/492/492 493/493/493 521/521/521
f 493/493/493 522/522/522 521/521/521
f 494/494/494 495/495/495 523/523/523
f 495/495/495 524/524/524 523/523/523
f 495/495/495 496/496/496 524/524/524
f 496/496/496 525/525/525 524/524/524
f 496/496/496 497/497/497 525/525/525
f 497/497/497 526/526/526 525/525/525
f 497/497/497 498/498/498 526/526/526
f 498/498/498 527/527/527 526/526/526
f 498/498/498 499/499/499 527/527/527
f 499/499/499 528/528/528 527/527/527
f 499/499/499 500/500/500 528/528/528
f 500/500/500 529/529/529 528/528/528
f 500/500/500 501/501/501 529/529/529
f 501/501/501 530/530/530 529/529/529
f 501/501/501 502/502/502 530/530/530
f 502/502/502 531/531/531 530/530/530
f 502/502/502 503/503/503 531/531/531
f 503/503/503 532/532/532 531/531/531
f 503/503/503 504/504/504 532/532/532
f 504/504/504 533/533/533 532/532/532
f 504/504/504 505/505/505 533/533/533
f 505/505/505 534/534/534 533/533/533
f 505/505/505 506/506/506 534/534/534
f 506/506/506 535/535/535 534/534/534
f 506/506/506 507/507/507 535/535/535
f 507/507/507 536/536/536 535/535/535
f 507/507/507 508/508/508 536/536/536
f 508/508/508 537/537/537 536/536/536
f 508/508/508 509/509/509 537/537/537
f 509/509/509 538/538/538 537/537/537
f 509/509/509 510/510/510 538/538/538
f 510/510/510 539/539/539 538/538/538
f 510/510/510 511/511/511 539/539/539
f 511/511/511 540/540/540 539/539/539
f 511/511/511 512/512/512 540/540/540
f 512/512/512 541/541/541 540/540/540
f 512/512/512 513/513/513 541/541/541
f 513/513/513 542/542/542 541/541/541
f 513/513/513 514/514/514 542/542/542
f 514/514/514 543/543/543 542/542/542
f 514/514/514 515/515/515 543/543/543
f 515/515/515 544/544/544 543/543/543
f 515/515/515 516/516/516 544/544/544
f 516/516/516 545/545/545 544/544/544
f 516/516/516 517/517/517 545/545/545
f 517/517/517 546/546/546 545/545/545
f 517/517/517 518/518/518 546/546/546
f 518/518/518 547/547/547 546/546/546
f 518/518/518 519/519/519 547/547/547
f 519/519/519 548/548/548 547/547/547
f 519/519/519 520/520/520 548/548/548
f 520/520/520 549/549/549 548/548/548
f 520/520/520 521/521/521 549/549/549
f 521/521/521 550/550/550 549/549/549
f 521/521/521 522/522/522 550/550/550
f 522/522/522 551/551/551 550/550/550
