# generated by generate_assets.py
mtllib desert.mtl
o rock_b
v 0.00000 0.39567 0.00000
v 0.00000 0.39567 0.00000
v 0.00000 0.39567 0.00000
v 0.00000 0.39567 0.00000
v 0.00000 0.39567 0.00000
v 0.00000 0.39567 0.00000
v 0.00000 0.39567 0.00000
v 0.00000 0.39567 0.00000
v -0.00000 0.39567 0.00000
v -0.00000 0.39567 0.00000
v -0.00000 0.39567 0.00000
v -0.00000 0.39567 0.00000
v -0.00000 0.39567 0.00000
v -0.00000 0.39567 0.00000
v -0.00000 0.39567 0.00000
v -0.00000 0.39567 -0.00000
v -0.00000 0.39567 -0.00000
v -0.00000 0.39567 -0.00000
v -0.00000 0.39567 -0.00000
v -0.00000 0.39567 -0.00000
v -0.00000 0.39567 -0.00000
v -0.00000 0.39567 -0.00000
v 0.00000 0.39567 -0.00000
v 0.00000 0.39567 -0.00000
v 0.00000 0.39567 -0.00000
v 0.00000 0.39567 -0.00000
v 0.00000 0.39567 -0.00000
v 0.00000 0.39567 -0.00000
v 0.00000 0.39567 -0.00000
v 0.06674 0.39032 0.00000
v 0.06479 0.38900 0.01479
v 0.05961 0.38766 0.02870
v 0.05151 0.38639 0.04107
v 0.04093 0.38537 0.05133
v 0.02843 0.38474 0.05903
v 0.01457 0.38457 0.06383
v 0.00000 0.38483 0.06553
v -0.01462 0.38550 0.06404
v -0.02859 0.38651 0.05938
v -0.04126 0.38771 0.05173
v -0.05194 0.38892 0.04142
v -0.06006 0.38995 0.02892
v -0.06516 0.39075 0.01487
v -0.06697 0.39134 0.00000
v -0.06539 0.39183 -0.01493
v -0.06054 0.39236 -0.02915
v -0.05266 0.39309 -0.04200
v -0.04213 0.39409 -0.05283
v -0.02943 0.39527 -0.06112
v -0.01515 0.39642 -0.06638
v -0.00000 0.39724 -0.06827
v 0.01520 0.39752 -0.06662
v 0.02961 0.39713 -0.06149
v 0.04241 0.39613 -0.05318
v 0.05294 0.39471 -0.04222
v 0.06070 0.39317 -0.02923
v 0.06537 0.39169 -0.01492
v 0.06674 0.39032 -0.00000
v 0.13097 0.37536 0.00000
v 0.12797 0.37601 0.02921
v 0.11796 0.37527 0.05681
v 0.10172 0.37348 0.08112
v 0.08068 0.37191 0.10117
v 0.05596 0.37099 0.11620
v 0.02857 0.36971 0.12518
v 0.00000 0.36726 0.12728
v -0.02803 0.36442 0.12283
v -0.05433 0.36274 0.11282
v -0.07809 0.36279 0.09792
v -0.09832 0.36390 0.07841
v -0.11404 0.36571 0.05492
v -0.12472 0.36868 0.02847
v -0.12985 0.37292 0.00000
v -0.12851 0.37722 -0.02933
v -0.11998 0.38020 -0.05778
v -0.10467 0.38177 -0.08347
v -0.08381 0.38295 -0.10509
v -0.05854 0.38407 -0.12157
v -0.03006 0.38445 -0.13171
v -0.00000 0.38372 -0.13477
v 0.02985 0.38240 -0.13080
v 0.05790 0.38084 -0.12024
v 0.08261 0.37874 -0.10359
v 0.10271 0.37624 -0.08191
v 0.11764 0.37449 -0.05665
v 0.12724 0.37437 -0.02904
v 0.13097 0.37536 -0.00000
v 0.18769 0.34757 0.00000
v 0.18449 0.34971 0.04211
v 0.17106 0.35058 0.08238
v 0.14806 0.34990 0.11807
v 0.11762 0.34889 0.14749
v 0.08119 0.34679 0.16860
v 0.04072 0.34106 0.17841
v 0.00000 0.33244 0.17677
v -0.03811 0.32482 0.16698
v -0.07303 0.32072 0.15165
v -0.10436 0.31942 0.13086
v -0.13080 0.31932 0.10431
v -0.15213 0.32147 0.07326
v -0.16959 0.32853 0.03871
v -0.18258 0.34049 0.00000
v -0.18741 0.35386 -0.04277
v -0.17969 0.36385 -0.08653
v -0.15840 0.36824 -0.12632
v -0.12681 0.36933 -0.15902
v -0.08827 0.36940 -0.18329
v -0.04492 0.36719 -0.19679
v -0.00000 0.36172 -0.19790
v 0.04302 0.35538 -0.18848
v 0.08256 0.35116 -0.17144
v 0.11765 0.34895 -0.14752
v 0.14644 0.34704 -0.11678
v 0.16783 0.34561 -0.08082
v 0.18173 0.34579 -0.04148
v 0.18769 0.34757 -0.00000
v 0.23732 0.31376 0.00000
v 0.23977 0.32198 0.05473
v 0.22577 0.32640 0.10872
v 0.19804 0.32899 0.15793
v 0.15776 0.32874 0.19783
v 0.10559 0.31952 0.21926
v 0.05026 0.30284 0.22020
v 0.00000 0.28787 0.21016
v -0.04537 0.28189 0.19878
v -0.08879 0.28260 0.18437
v -0.12722 0.28203 0.15953
v -0.15884 0.28120 0.12667
v -0.18687 0.28524 0.08999
v -0.20950 0.29238 0.04782
v -0.22391 0.30098 0.00000
v -0.23026 0.31268 -0.05256
v -0.22605 0.32671 -0.10886
v -0.20498 0.33746 -0.16346
v -0.16515 0.34004 -0.20709
v -0.11415 0.33833 -0.23703
v -0.05826 0.33711 -0.25524
v -0.00000 0.33316 -0.25766
v 0.05516 0.32384 -0.24167
v 0.10268 0.31313 -0.21322
v 0.14408 0.30782 -0.18068
v 0.18037 0.30745 -0.14384
v 0.20668 0.30621 -0.09953
v 0.22433 0.30687 -0.05120
v 0.23732 0.31376 -0.00000
v 0.28518 0.27894 0.00000
v 0.29550 0.29096 0.06745
v 0.27791 0.29456 0.13384
v 0.24333 0.29642 0.19405
v 0.19300 0.29529 0.24201
v 0.12665 0.28344 0.26299
v 0.06014 0.26892 0.26348
v 0.00000 0.25545 0.25019
v -0.05283 0.24687 0.23146
v -0.10327 0.24728 0.21445
v -0.14865 0.24755 0.18640
v -0.18764 0.24861 0.14964
v -0.22315 0.25376 0.10746
v -0.24617 0.25700 0.05619
v -0.26035 0.26227 0.00000
v -0.26789 0.27196 -0.06114
v -0.26449 0.28456 -0.12737
v -0.24663 0.29925 -0.19668
v -0.20243 0.30544 -0.25384
v -0.13852 0.30181 -0.28764
v -0.06953 0.29724 -0.30462
v -0.00000 0.28957 -0.30103
v 0.06394 0.28039 -0.28014
v 0.11832 0.27056 -0.24570
v 0.16335 0.26337 -0.20484
v 0.20373 0.26242 -0.16247
v 0.23279 0.26094 -0.11210
v 0.25812 0.26523 -0.05891
v 0.28518 0.27894 -0.00000
v 0.32080 0.23567 0.00000
v 0.32093 0.23954 0.07325
v 0.30546 0.24409 0.14710
v 0.26937 0.24663 0.21482
v 0.20731 0.24107 0.25996
v 0.13596 0.23224 0.28233
v 0.06715 0.22688 0.29421
v 0.00000 0.22336 0.29414
v -0.06240 0.21703 0.27341
v -0.11438 0.20926 0.23750
v -0.16255 0.20791 0.20383
v -0.21019 0.21167 0.16762
v -0.24743 0.21434 0.11916
v -0.27774 0.21908 0.06339
v -0.30200 0.22699 0.00000
v -0.30997 0.23435 -0.07075
v -0.29934 0.24096 -0.14415
v -0.27491 0.24991 -0.21924
v -0.23096 0.25859 -0.28961
v -0.16090 0.25879 -0.33412
v -0.07889 0.25124 -0.34563
v -0.00000 0.24228 -0.33510
v 0.07054 0.23393 -0.30907
v 0.13132 0.22730 -0.27269
v 0.17933 0.22035 -0.22487
v 0.21676 0.21556 -0.17286
v 0.25867 0.22011 -0.12457
v 0.29915 0.22922 -0.06828
v 0.32080 0.23567 -0.00000
v 0.33344 0.18459 0.00000
v 0.33264 0.18685 0.07592
v 0.32080 0.19118 0.15449
v 0.28450 0.19346 0.22688
v 0.21388 0.18738 0.26820
v 0.14277 0.18331 0.29647
v 0.07134 0.18086 0.31258
v 0.00000 0.18019 0.31834
v -0.06922 0.17807 0.30326
v -0.12201 0.16938 0.25337
v -0.16786 0.16589 0.21049
v -0.21758 0.16853 0.17351
v -0.25651 0.17040 0.12353
v -0.30051 0.17725 0.06859
v -0.33318 0.18451 0.00000
v -0.33894 0.18873 -0.07736
v -0.32088 0.19120 -0.15453
v -0.28499 0.19364 -0.22727
v -0.24003 0.19960 -0.30098
v -0.17115 0.20236 -0.35539
v -0.08423 0.19771 -0.36902
v -0.00000 0.19377 -0.36498
v 0.07506 0.18571 -0.32884
v 0.13435 0.17766 -0.27898
v 0.18302 0.17297 -0.22950
v 0.22036 0.16957 -0.17573
v 0.27427 0.17614 -0.13208
v 0.31636 0.18198 -0.07221
v 0.33344 0.18459 -0.00000
v 0.32830 0.13381 0.00000
v 0.34131 0.13688 0.07790
v 0.33071 0.13928 0.15926
v 0.28408 0.13876 0.22655
v 0.22013 0.13730 0.27604
v 0.14940 0.13607 0.31024
v 0.07526 0.13521 0.32973
v 0.00000 0.13330 0.32468
v -0.06956 0.13159 0.30475
v -0.13217 0.13047 0.27445
v -0.18136 0.12853 0.22742
v -0.22542 0.12817 0.17976
v -0.27481 0.13053 0.13234
v -0.31345 0.13285 0.07154
v -0.33786 0.13516 0.00000
v -0.34557 0.13750 -0.07887
v -0.32582 0.13851 -0.15691
v -0.28405 0.13875 -0.22652
v -0.23190 0.13997 -0.29080
v -0.16657 0.14165 -0.34588
v -0.08593 0.14197 -0.37647
v -0.00000 0.13924 -0.36680
v 0.07607 0.13573 -0.33331
v 0.13817 0.13242 -0.28690
v 0.18998 0.13048 -0.23823
v 0.24492 0.13169 -0.19532
v 0.28744 0.13250 -0.13842
v 0.31218 0.13267 -0.07125
v 0.32830 0.13381 -0.00000
v 0.32613 0.08750 0.00000
v 0.34124 0.08750 0.07789
v 0.33017 0.08750 0.15900
v 0.27913 0.08750 0.22260
v 0.22565 0.08750 0.28295
v 0.15636 0.08750 0.32468
v 0.07695 0.08750 0.33713
v 0.00000 0.08750 0.32327
v -0.06937 0.08750 0.30393
v -0.14059 0.08750 0.29194
v -0.19865 0.08750 0.24909
v -0.24033 0.08750 0.19166
v -0.29275 0.08750 0.14098
v -0.32239 0.08750 0.07358
v -0.33001 0.08750 0.00000
v -0.33266 0.08750 -0.07593
v -0.32267 0.08750 -0.15539
v -0.28415 0.08750 -0.22660
v -0.22124 0.08750 -0.27743
v -0.15561 0.08750 -0.32312
v -0.08124 0.08750 -0.35594
v -0.00000 0.08750 -0.34897
v 0.07643 0.08750 -0.33487
v 0.14572 0.08750 -0.30258
v 0.20695 0.08750 -0.25950
v 0.27281 0.08750 -0.21756
v 0.30119 0.08750 -0.14505
v 0.31344 0.08750 -0.07154
v 0.32613 0.08750 -0.00000
v 0.33121 0.04078 0.00000
v 0.32969 0.03980 0.07525
v 0.31168 0.03870 0.15010
v 0.27656 0.03760 0.22055
v 0.22533 0.03652 0.28256
v 0.15841 0.03600 0.32894
v 0.07559 0.03958 0.33119
v 0.00000 0.04241 0.31965
v -0.07089 0.04256 0.31061
v -0.14110 0.04163 0.29299
v -0.20806 0.04043 0.26090
v -0.25962 0.04066 0.20704
v -0.29519 0.04128 0.14216
v -0.31938 0.04129 0.07290
v -0.32181 0.04210 0.00000
v -0.31833 0.04144 -0.07266
v -0.31457 0.03825 -0.15149
v -0.28012 0.03696 -0.22339
v -0.21499 0.03886 -0.26959
v -0.14475 0.04044 -0.30057
v -0.07160 0.04211 -0.31371
v -0.00000 0.04106 -0.32919
v 0.07593 0.03937 -0.33267
v 0.15063 0.03853 -0.31279
v 0.22355 0.03692 -0.28032
v 0.27699 0.03752 -0.22089
v 0.30859 0.03918 -0.14861
v 0.32161 0.04097 -0.07341
v 0.33121 0.04078 -0.00000
v 0.32468 0.00000 0.00000
v 0.30114 0.00000 0.06873
v 0.28046 0.00000 0.13506
v 0.26142 0.00000 0.20847
v 0.21411 0.00000 0.26848
v 0.14646 0.00000 0.30412
v 0.07226 0.00000 0.31661
v 0.00000 0.00000 0.31695
v -0.07022 0.00000 0.30765
v -0.13750 0.00000 0.28552
v -0.20918 0.00000 0.26230
v -0.27092 0.00000 0.21605
v -0.29351 0.00000 0.14135
v -0.30110 0.00000 0.06872
v -0.30845 0.00000 0.00000
v -0.30806 0.00000 -0.07031
v -0.29370 0.00000 -0.14144
v -0.25992 0.00000 -0.20728
v -0.20450 0.00000 -0.25643
v -0.13205 0.00000 -0.27420
v -0.06325 0.00474 -0.27710
v -0.00000 0.00116 -0.29651
v 0.07196 0.00000 -0.31528
v 0.15352 0.00000 -0.31880
v 0.22763 0.00000 -0.28544
v 0.27100 0.00000 -0.21611
v 0.30542 0.00000 -0.14708
v 0.32762 0.00000 -0.07478
v 0.32468 0.00000 -0.00000
v 0.29872 0.00000 0.00000
v 0.27624 0.00000 0.06305
v 0.25124 0.00000 0.12099
v 0.23119 0.00000 0.18437
v 0.19132 0.00000 0.23991
v 0.12978 0.00000 0.26949
v 0.06737 0.00000 0.29517
v 0.00000 0.00000 0.30365
v -0.06590 0.00000 0.28871
v -0.13110 0.00000 0.27223
v -0.19851 0.00000 0.24893
v -0.25671 0.00000 0.20472
v -0.28286 0.00000 0.13622
v -0.28054 0.00000 0.06403
v -0.28451 0.00000 0.00000
v -0.28407 0.00000 -0.06484
v -0.26032 0.00000 -0.12536
v -0.22958 0.00000 -0.18309
v -0.18252 0.00000 -0.22887
v -0.11667 0.00000 -0.24227
v -0.05648 0.00000 -0.24746
v -0.00000 0.00000 -0.25874
v 0.06451 0.00000 -0.28266
v 0.14186 0.00000 -0.29457
v 0.20865 0.00000 -0.26164
v 0.25390 0.00000 -0.20248
v 0.28214 0.00000 -0.13587
v 0.30037 0.00000 -0.06856
v 0.29872 0.00000 -0.00000
v 0.25976 0.00000 0.00000
v 0.24890 0.00000 0.05681
v 0.22634 0.00000 0.10900
v 0.19920 0.00000 0.15886
v 0.16289 0.00000 0.20425
v 0.11384 0.00000 0.23639
v 0.05865 0.00000 0.25697
v 0.00000 0.00000 0.26529
v -0.05973 0.00000 0.26168
v -0.12001 0.00000 0.24921
v -0.17661 0.00000 0.22146
v -0.22245 0.00000 0.17740
v -0.25150 0.00000 0.12112
v -0.26012 0.00000 0.05937
v -0.25590 0.00000 0.00000
v -0.24258 0.00000 -0.05537
v -0.21980 0.00000 -0.10585
v -0.18944 0.00000 -0.15107
v -0.14776 0.00000 -0.18528
v -0.09897 0.00000 -0.20551
v -0.05056 0.00000 -0.22151
v -0.00000 0.00000 -0.23604
v 0.05606 0.00000 -0.24563
v 0.11563 0.00000 -0.24012
v 0.17035 0.00000 -0.21361
v 0.21402 0.00000 -0.17067
v 0.24155 0.00000 -0.11633
v 0.25605 0.00000 -0.05844
v 0.25976 0.00000 -0.00000
v 0.21895 0.00000 0.00000
v 0.20881 0.00000 0.04766
v 0.18755 0.00000 0.09032
v 0.15829 0.00000 0.12623
v 0.12695 0.00000 0.15919
v 0.09178 0.00000 0.19059
v 0.04837 0.00000 0.21192
v 0.00000 0.00000 0.22043
v -0.04992 0.00000 0.21873
v -0.09897 0.00000 0.20552
v -0.14294 0.00000 0.17925
v -0.17653 0.00000 0.14078
v -0.19889 0.00000 0.09578
v -0.21275 0.00000 0.04856
v -0.21595 0.00000 0.00000
v -0.20700 0.00000 -0.04725
v -0.18568 0.00000 -0.08942
v -0.15326 0.00000 -0.12222
v -0.11846 0.00000 -0.14855
v -0.08420 0.00000 -0.17484
v -0.04480 0.00000 -0.19628
v -0.00000 0.00000 -0.20495
v 0.04577 0.00000 -0.20051
v 0.09065 0.00000 -0.18825
v 0.13431 0.00000 -0.16842
v 0.17214 0.00000 -0.13728
v 0.20037 0.00000 -0.09649
v 0.21656 0.00000 -0.04943
v 0.21895 0.00000 -0.00000
v 0.17174 0.00000 0.00000
v 0.16295 0.00000 0.03719
v 0.14409 0.00000 0.06939
v 0.12007 0.00000 0.09575
v 0.09553 0.00000 0.11979
v 0.06917 0.00000 0.14363
v 0.03708 0.00000 0.16244
v 0.00000 0.00000 0.17031
v -0.03794 0.00000 0.16622
v -0.07326 0.00000 0.15212
v -0.10353 0.00000 0.12983
v -0.12671 0.00000 0.10104
v -0.14288 0.00000 0.06881
v -0.15414 0.00000 0.03518
v -0.15977 0.00000 0.00000
v -0.15589 0.00000 -0.03558
v -0.14023 0.00000 -0.06753
v -0.11630 0.00000 -0.09274
v -0.09055 0.00000 -0.11355
v -0.06405 0.00000 -0.13301
v -0.03373 0.00000 -0.14780
v -0.00000 0.00000 -0.15314
v 0.03419 0.00000 -0.14980
v 0.06787 0.00000 -0.14093
v 0.10068 0.00000 -0.12624
v 0.13022 0.00000 -0.10384
v 0.15369 0.00000 -0.07401
v 0.16841 0.00000 -0.03844
v 0.17174 0.00000 -0.00000
v 0.11065 0.00000 0.00000
v 0.10596 0.00000 0.02418
v 0.09548 0.00000 0.04598
v 0.08117 0.00000 0.06473
v 0.06444 0.00000 0.08081
v 0.04542 0.00000 0.09432
v 0.02376 0.00000 0.10409
v 0.00000 0.00000 0.10830
v -0.02416 0.00000 0.10583
v -0.04665 0.00000 0.09686
v -0.06582 0.00000 0.08253
v -0.08075 0.00000 0.06439
v -0.09120 0.00000 0.04392
v -0.09718 0.00000 0.02218
v -0.09837 0.00000 0.00000
v -0.09430 0.00000 -0.02152
v -0.08521 0.00000 -0.04103
v -0.07233 0.00000 -0.05768
v -0.05708 0.00000 -0.07158
v -0.03999 0.00000 -0.08303
v -0.02089 0.00000 -0.09153
v -0.00000 0.00000 -0.09606
v 0.02192 0.00000 -0.09602
v 0.04395 0.00000 -0.09127
v 0.06512 0.00000 -0.08166
v 0.08407 0.00000 -0.06704
v 0.09905 0.00000 -0.04770
v 0.10832 0.00000 -0.02472
v 0.11065 0.00000 -0.00000
v 0.05010 0.00000 0.00000
v 0.04881 0.00000 0.01114
v 0.04496 0.00000 0.02165
v 0.03887 0.00000 0.03100
v 0.03090 0.00000 0.03875
v 0.02146 0.00000 0.04456
v 0.01099 0.00000 0.04813
v 0.00000 0.00000 0.04922
v -0.01089 0.00000 0.04771
v -0.02104 0.00000 0.04370
v -0.02988 0.00000 0.03747
v -0.03696 0.00000 0.02947
v -0.04198 0.00000 0.02022
v -0.04479 0.00000 0.01022
v -0.04535 0.00000 0.00000
v -0.04371 0.00000 -0.00998
v -0.04003 0.00000 -0.01928
v -0.03454 0.00000 -0.02755
v -0.02753 0.00000 -0.03452
v -0.01924 0.00000 -0.03996
v -0.00996 0.00000 -0.04366
v -0.00000 0.00000 -0.04541
v 0.01028 0.00000 -0.04503
v 0.02042 0.00000 -0.04241
v 0.02991 0.00000 -0.03750
v 0.03815 0.00000 -0.03042
v 0.04457 0.00000 -0.02146
v 0.04866 0.00000 -0.01111
v 0.05010 0.00000 -0.00000
v 0.00000 0.00000 0.00000
v 0.00000 0.00000 0.00000
v 0.00000 0.00000 0.00000
v 0.00000 0.00000 0.00000
v 0.00000 0.00000 0.00000
v 0.00000 0.00000 0.00000
v 0.00000 0.00000 0.00000
v 0.00000 0.00000 0.00000
v -0.00000 0.00000 0.00000
v -0.00000 0.00000 0.00000
v -0.00000 0.00000 0.00000
v -0.00000 0.00000 0.00000
v -0.00000 0.00000 0.00000
v -0.00000 0.00000 0.00000
v -0.00000 0.00000 0.00000
v -0.00000 0.00000 -0.00000
v -0.00000 0.00000 -0.00000
v -0.00000 0.00000 -0.00000
v -0.00000 0.00000 -0.00000
v -0.00000 0.00000 -0.00000
v -0.00000 0.00000 -0.00000
v -0.00000 0.00000 -0.00000
v 0.00000 0.00000 -0.00000
v 0.00000 0.00000 -0.00000
v 0.00000 0.00000 -0.00000
v 0.00000 0.00000 -0.00000
v 0.00000 0.00000 -0.00000
v 0.00000 0.00000 -0.00000
v 0.00000 0.00000 -0.00000
vt 0.00000 0.00000
vt 0.07143 0.00000
vt 0.14286 0.00000
vt 0.21429 0.00000
vt 0.28571 0.00000
vt 0.35714 0.00000
vt 0.42857 0.00000
vt 0.50000 0.00000
vt 0.57143 0.00000
vt 0.64286 0.00000
vt 0.71429 0.00000
vt 0.78571 0.00000
vt 0.85714 0.00000
vt 0.92857 0.00000
vt 1.00000 0.00000
vt 1.07143 0.00000
vt 1.14286 0.00000
vt 1.21429 0.00000
vt 1.28571 0.00000
vt 1.35714 0.00000
vt 1.42857 0.00000
vt 1.50000 0.00000
vt 1.57143 0.00000
vt 1.64286 0.00000
vt 1.71429 0.00000
vt 1.78571 0.00000
vt 1.85714 0.00000
vt 1.92857 0.00000
vt 2.00000 0.00000
vt 0.00000 0.11111
vt 0.07143 0.11111
vt 0.14286 0.11111
vt 0.21429 0.11111
vt 0.28571 0.11111
vt 0.35714 0.11111
vt 0.42857 0.11111
vt 0.50000 0.11111
vt 0.57143 0.11111
vt 0.64286 0.11111
vt 0.71429 0.11111
vt 0.78571 0.11111
vt 0.85714 0.11111
vt 0.92857 0.11111
vt 1.00000 0.11111
vt 1.07143 0.11111
vt 1.14286 0.11111
vt 1.21429 0.11111
vt 1.28571 0.11111
vt 1.35714 0.11111
vt 1.42857 0.11111
vt 1.50000 0.11111
vt 1.57143 0.11111
vt 1.64286 0.11111
vt 1.71429 0.11111
vt 1.78571 0.11111
vt 1.85714 0.11111
vt 1.92857 0.11111
vt 2.00000 0.11111
vt 0.00000 0.22222
vt 0.07143 0.22222
vt 0.14286 0.22222
vt 0.21429 0.22222
vt 0.28571 0.22222
vt 0.35714 0.22222
vt 0.42857 0.22222
vt 0.50000 0.22222
vt 0.57143 0.22222
vt 0.64286 0.22222
vt 0.71429 0.22222
vt 0.78571 0.22222
vt 0.85714 0.22222
vt 0.92857 0.22222
vt 1.00000 0.22222
vt 1.07143 0.22222
vt 1.14286 0.22222
vt 1.21429 0.22222
vt 1.28571 0.22222
vt 1.35714 0.22222
vt 1.42857 0.22222
vt 1.50000 0.22222
vt 1.57143 0.22222
vt 1.64286 0.22222
vt 1.71429 0.22222
vt 1.78571 0.22222
vt 1.85714 0.22222
vt 1.92857 0.22222
vt 2.00000 0.22222
vt 0.00000 0.33333
vt 0.07143 0.33333
vt 0.14286 0.33333
vt 0.21429 0.33333
vt 0.28571 0.33333
vt 0.35714 0.33333
vt 0.42857 0.33333
vt 0.50000 0.33333
vt 0.57143 0.33333
vt 0.64286 0.33333
vt 0.71429 0.33333
vt 0.78571 0.33333
vt 0.85714 0.33333
vt 0.92857 0.33333
vt 1.00000 0.33333
vt 1.07143 0.33333
vt 1.14286 0.33333
vt 1.21429 0.33333
vt 1.28571 0.33333
vt 1.35714 0.33333
vt 1.42857 0.33333
vt 1.50000 0.33333
vt 1.57143 0.33333
vt 1.64286 0.33333
vt 1.71429 0.33333
vt 1.78571 0.33333
vt 1.85714 0.33333
vt 1.92857 0.33333
vt 2.00000 0.33333
vt 0.00000 0.44444
vt 0.07143 0.44444
vt 0.14286 0.44444
vt 0.21429 0.44444
vt 0.28571 0.44444
vt 0.35714 0.44444
vt 0.42857 0.44444
vt 0.50000 0.44444
vt 0.57143 0.44444
vt 0.64286 0.44444
vt 0.71429 0.44444
vt 0.78571 0.44444
vt 0.85714 0.44444
vt 0.92857 0.44444
vt 1.00000 0.44444
vt 1.07143 0.44444
vt 1.14286 0.44444
vt 1.21429 0.44444
vt 1.28571 0.44444
vt 1.35714 0.44444
vt 1.42857 0.44444
vt 1.50000 0.44444
vt 1.57143 0.44444
vt 1.64286 0.44444
vt 1.71429 0.44444
vt 1.78571 0.44444
vt 1.85714 0.44444
vt 1.92857 0.44444
vt 2.00000 0.44444
vt 0.00000 0.55556
vt 0.07143 0.55556
vt 0.14286 0.55556
vt 0.21429 0.55556
vt 0.28571 0.55556
vt 0.35714 0.55556
vt 0.42857 0.55556
vt 0.50000 0.55556
vt 0.57143 0.55556
vt 0.64286 0.55556
vt 0.71429 0.55556
vt 0.78571 0.55556
vt 0.85714 0.55556
vt 0.92857 0.55556
vt 1.00000 0.55556
vt 1.07143 0.55556
vt 1.14286 0.55556
vt 1.21429 0.55556
vt 1.28571 0.55556
vt 1.35714 0.55556
vt 1.42857 0.55556
vt 1.50000 0.55556
vt 1.57143 0.55556
vt 1.64286 0.55556
vt 1.71429 0.55556
vt 1.78571 0.55556
vt 1.85714 0.55556
vt 1.92857 0.55556
vt 2.00000 0.55556
vt 0.00000 0.66667
vt 0.07143 0.66667
vt 0.14286 0.66667
vt 0.21429 0.66667
vt 0.28571 0.66667
vt 0.35714 0.66667
vt 0.42857 0.66667
vt 0.50000 0.66667
vt 0.57143 0.66667
vt 0.64286 0.66667
vt 0.71429 0.66667
vt 0.78571 0.66667
vt 0.85714 0.66667
vt 0.92857 0.66667
vt 1.00000 0.66667
vt 1.07143 0.66667
vt 1.14286 0.66667
vt 1.21429 0.66667
vt 1.28571 0.66667
vt 1.35714 0.66667
vt 1.42857 0.66667
vt 1.50000 0.66667
vt 1.57143 0.66667
vt 1.64286 0.66667
vt 1.71429 0.66667
vt 1.78571 0.66667
vt 1.85714 0.66667
vt 1.92857 0.66667
vt 2.00000 0.66667
vt 0.00000 0.77778
vt 0.07143 0.77778
vt 0.14286 0.77778
vt 0.21429 0.77778
vt 0.28571 0.77778
vt 0.35714 0.77778
vt 0.42857 0.77778
vt 0.50000 0.77778
vt 0.57143 0.77778
vt 0.64286 0.77778
vt 0.71429 0.77778
vt 0.78571 0.77778
vt 0.85714 0.77778
vt 0.92857 0.77778
vt 1.00000 0.77778
vt 1.07143 0.77778
vt 1.14286 0.77778
vt 1.21429 0.77778
vt 1.28571 0.77778
vt 1.35714 0.77778
vt 1.42857 0.77778
vt 1.50000 0.77778
vt 1.57143 0.77778
vt 1.64286 0.77778
vt 1.71429 0.77778
vt 1.78571 0.77778
vt 1.85714 0.77778
vt 1.92857 0.77778
vt 2.00000 0.77778
vt 0.00000 0.88889
vt 0.07143 0.88889
vt 0.14286 0.88889
vt 0.21429 0.88889
vt 0.28571 0.88889
vt 0.35714 0.88889
vt 0.42857 0.88889
vt 0.50000 0.88889
vt 0.57143 0.88889
vt 0.64286 0.88889
vt 0.71429 0.88889
vt 0.78571 0.88889
vt 0.85714 0.88889
vt 0.92857 0.88889
vt 1.00000 0.88889
vt 1.07143 0.88889
vt 1.14286 0.88889
vt 1.21429 0.88889
vt 1.28571 0.88889
vt 1.35714 0.88889
vt 1.42857 0.88889
vt 1.50000 0.88889
vt 1.57143 0.88889
vt 1.64286 0.88889
vt 1.71429 0.88889
vt 1.78571 0.88889
vt 1.85714 0.88889
vt 1.92857 0.88889
vt 2.00000 0.88889
vt 0.00000 1.00000
vt 0.07143 1.00000
vt 0.14286 1.00000
vt 0.21429 1.00000
vt 0.28571 1.00000
vt 0.35714 1.00000
vt 0.42857 1.00000
vt 0.50000 1.00000
vt 0.57143 1.00000
vt 0.64286 1.00000
vt 0.71429 1.00000
vt 0.78571 1.00000
vt 0.85714 1.00000
vt 0.92857 1.00000
vt 1.00000 1.00000
vt 1.07143 1.00000
vt 1.14286 1.00000
vt 1.21429 1.00000
vt 1.28571 1.00000
vt 1.35714 1.00000
vt 1.42857 1.00000
vt 1.50000 1.00000
vt 1.57143 1.00000
vt 1.64286 1.00000
vt 1.71429 1.00000
vt 1.78571 1.00000
vt 1.85714 1.00000
vt 1.92857 1.00000
vt 2.00000 1.00000
vt 0.00000 1.11111
vt 0.07143 1.11111
vt 0.14286 1.11111
vt 0.21429 1.11111
vt 0.28571 1.11111
vt 0.35714 1.11111
vt 0.42857 1.11111
vt 0.50000 1.11111
vt 0.57143 1.11111
vt 0.64286 1.11111
vt 0.71429 1.11111
vt 0.78571 1.11111
vt 0.85714 1.11111
vt 0.92857 1.11111
vt 1.00000 1.11111
vt 1.07143 1.11111
vt 1.14286 1.11111
vt 1.21429 1.11111
vt 1.28571 1.11111
vt 1.35714 1.11111
vt 1.42857 1.11111
vt 1.50000 1.11111
vt 1.57143 1.11111
vt 1.64286 1.11111
vt 1.71429 1.11111
vt 1.78571 1.11111
vt 1.85714 1.11111
vt 1.92857 1.11111
vt 2.00000 1.11111
vt 0.00000 1.22222
vt 0.07143 1.22222
vt 0.14286 1.22222
vt 0.21429 1.22222
vt 0.28571 1.22222
vt 0.35714 1.22222
vt 0.42857 1.22222
vt 0.50000 1.22222
vt 0.57143 1.22222
vt 0.64286 1.22222
vt 0.71429 1.22222
vt 0.78571 1.22222
vt 0.85714 1.22222
vt 0.92857 1.22222
vt 1.00000 1.22222
vt 1.07143 1.22222
vt 1.14286 1.22222
vt 1.21429 1.22222
vt 1.28571 1.22222
vt 1.35714 1.22222
vt 1.42857 1.22222
vt 1.50000 1.22222
vt 1.57143 1.22222
vt 1.64286 1.22222
vt 1.71429 1.22222
vt 1.78571 1.22222
vt 1.85714 1.22222
vt 1.92857 1.22222
vt 2.00000 1.22222
vt 0.00000 1.33333
vt 0.07143 1.33333
vt 0.14286 1.33333
vt 0.21429 1.33333
vt 0.28571 1.33333
vt 0.35714 1.33333
vt 0.42857 1.33333
vt 0.50000 1.33333
vt 0.57143 1.33333
vt 0.64286 1.33333
vt 0.71429 1.33333
vt 0.78571 1.33333
vt 0.85714 1.33333
vt 0.92857 1.33333
vt 1.00000 1.33333
vt 1.07143 1.33333
vt 1.14286 1.33333
vt 1.21429 1.33333
vt 1.28571 1.33333
vt 1.35714 1.33333
vt 1.42857 1.33333
vt 1.50000 1.33333
vt 1.57143 1.33333
vt 1.64286 1.33333
vt 1.71429 1.33333
vt 1.78571 1.33333
vt 1.85714 1.33333
vt 1.92857 1.33333
vt 2.00000 1.33333
vt 0.00000 1.44444
vt 0.07143 1.44444
vt 0.14286 1.44444
vt 0.21429 1.44444
vt 0.28571 1.44444
vt 0.35714 1.44444
vt 0.42857 1.44444
vt 0.50000 1.44444
vt 0.57143 1.44444
vt 0.64286 1.44444
vt 0.71429 1.44444
vt 0.78571 1.44444
vt 0.85714 1.44444
vt 0.92857 1.44444
vt 1.00000 1.44444
vt 1.07143 1.44444
vt 1.14286 1.44444
vt 1.21429 1.44444
vt 1.28571 1.44444
vt 1.35714 1.44444
vt 1.42857 1.44444
vt 1.50000 1.44444
vt 1.57143 1.44444
vt 1.64286 1.44444
vt 1.71429 1.44444
vt 1.78571 1.44444
vt 1.85714 1.44444
vt 1.92857 1.44444
vt 2.00000 1.44444
vt 0.00000 1.55556
vt 0.07143 1.55556
vt 0.14286 1.55556
vt 0.21429 1.55556
vt 0.28571 1.55556
vt 0.35714 1.55556
vt 0.42857 1.55556
vt 0.50000 1.55556
vt 0.57143 1.55556
vt 0.64286 1.55556
vt 0.71429 1.55556
vt 0.78571 1.55556
vt 0.85714 1.55556
vt 0.92857 1.55556
vt 1.00000 1.55556
vt 1.07143 1.55556
vt 1.14286 1.55556
vt 1.21429 1.55556
vt 1.28571 1.55556
vt 1.35714 1.55556
vt 1.42857 1.55556
vt 1.50000 1.55556
vt 1.57143 1.55556
vt 1.64286 1.55556
vt 1.71429 1.55556
vt 1.78571 1.55556
vt 1.85714 1.55556
vt 1.92857 1.55556
vt 2.00000 1.55556
vt 0.00000 1.66667
vt 0.07143 1.66667
vt 0.14286 1.66667
vt 0.21429 1.66667
vt 0.28571 1.66667
vt 0.35714 1.66667
vt 0.42857 1.66667
vt 0.50000 1.66667
vt 0.57143 1.66667
vt 0.64286 1.66667
vt 0.71429 1.66667
vt 0.78571 1.66667
vt 0.85714 1.66667
vt 0.92857 1.66667
vt 1.00000 1.66667
vt 1.07143 1.66667
vt 1.14286 1.66667
vt 1.21429 1.66667
vt 1.28571 1.66667
vt 1.35714 1.66667
vt 1.42857 1.66667
vt 1.50000 1.66667
vt 1.57143 1.66667
vt 1.64286 1.66667
vt 1.71429 1.66667
vt 1.78571 1.66667
vt 1.85714 1.66667
vt 1.92857 1.66667
vt 2.00000 1.66667
vt 0.00000 1.77778
vt 0.07143 1.77778
vt 0.14286 1.77778
vt 0.21429 1.77778
vt 0.28571 1.77778
vt 0.35714 1.77778
vt 0.42857 1.77778
vt 0.50000 1.77778
vt 0.57143 1.77778
vt 0.64286 1.77778
vt 0.71429 1.77778
vt 0.78571 1.77778
vt 0.85714 1.77778
vt 0.92857 1.77778
vt 1.00000 1.77778
vt 1.07143 1.77778
vt 1.14286 1.77778
vt 1.21429 1.77778
vt 1.28571 1.77778
vt 1.35714 1.77778
vt 1.42857 1.77778
vt 1.50000 1.77778
vt 1.57143 1.77778
vt 1.64286 1.77778
vt 1.71429 1.77778
vt 1.78571 1.77778
vt 1.85714 1.77778
vt 1.92857 1.77778
vt 2.00000 1.77778
vt 0.00000 1.88889
vt 0.07143 1.88889
vt 0.14286 1.88889
vt 0.21429 1.88889
vt 0.28571 1.88889
vt 0.35714 1.88889
vt 0.42857 1.88889
vt 0.50000 1.88889
vt 0.57143 1.88889
vt 0.64286 1.88889
vt 0.71429 1.88889
vt 0.78571 1.88889
vt 0.85714 1.88889
vt 0.92857 1.88889
vt 1.00000 1.88889
vt 1.07143 1.88889
vt 1.14286 1.88889
vt 1.21429 1.88889
vt 1.28571 1.88889
vt 1.35714 1.88889
vt 1.42857 1.88889
vt 1.50000 1.88889
vt 1.57143 1.88889
vt 1.64286 1.88889
vt 1.71429 1.88889
vt 1.78571 1.88889
vt 1.85714 1.88889
vt 1.92857 1.88889
vt 2.00000 1.88889
vt 0.00000 2.00000
vt 0.07143 2.00000
vt 0.14286 2.00000
vt 0.21429 2.00000
vt 0.28571 2.00000
vt 0.35714 2.00000
vt 0.42857 2.00000
vt 0.50000 2.00000
vt 0.57143 2.00000
vt 0.64286 2.00000
vt 0.71429 2.00000
vt 0.78571 2.00000
vt 0.85714 2.00000
vt 0.92857 2.00000
vt 1.00000 2.00000
vt 1.07143 2.00000
vt 1.14286 2.00000
vt 1.21429 2.00000
vt 1.28571 2.00000
vt 1.35714 2.00000
vt 1.42857 2.00000
vt 1.50000 2.00000
vt 1.57143 2.00000
vt 1.64286 2.00000
vt 1.71429 2.00000
vt 1.78571 2.00000
vt 1.85714 2.00000
vt 1.92857 2.00000
vt 2.00000 2.00000
vn 0.00521 0.99634 0.08535
vn 0.00521 0.99634 0.08535
vn 0.00521 0.99634 0.08535
vn 0.00521 0.99634 0.08535
vn 0.00521 0.99634 0.08535
vn 0.00521 0.99634 0.08535
vn 0.00521 0.99634 0.08535
vn 0.00521 0.99634 0.08535
vn 0.00521 0.99634 0.08535
vn 0.00521 0.99634 0.08535
vn 0.00521 0.99634 0.08535
vn 0.00521 0.99634 0.08535
vn 0.00521 0.99634 0.08535
vn 0.00521 0.99634 0.08535
vn 0.00521 0.99634 0.08535
vn 0.00521 0.99634 0.08535
vn 0.00521 0.99634 0.08535
vn 0.00521 0.99634 0.08535
vn 0.00521 0.99634 0.08535
vn 0.00521 0.99634 0.08535
vn 0.00521 0.99634 0.08535
vn 0.00521 0.99634 0.08535
vn 0.00521 0.99634 0.08535
vn 0.00521 0.99634 0.08535
vn 0.00521 0.99634 0.08535
vn 0.00521 0.99634 0.08535
vn 0.00521 0.99634 0.08535
vn 0.00521 0.99634 0.08535
vn 0.00521 0.99634 0.08535
vn 0.18678 0.98155 0.04085
vn 0.15785 0.98399 0.08279
vn 0.12610 0.98356 0.12925
vn 0.09786 0.98154 0.16432
vn 0.07924 0.98051 0.17976
vn 0.06517 0.98026 0.18668
vn 0.04068 0.97855 0.20197
vn 0.00100 0.97364 0.22809
vn -0.04296 0.96583 0.25559
vn -0.08333 0.95820 0.27370
vn -0.12613 0.95404 0.27184
vn -0.17477 0.95433 0.24229
vn -0.21465 0.95782 0.19108
vn -0.22839 0.96399 0.13627
vn -0.21554 0.97251 0.08817
vn -0.18814 0.98116 0.04395
vn -0.15894 0.98728 0.00294
vn -0.13751 0.99011 -0.02784
vn -0.12576 0.99093 -0.04733
vn -0.11137 0.99152 -0.06703
vn -0.07745 0.99255 -0.09405
vn -0.02273 0.99259 -0.11937
vn 0.04029 0.99073 -0.12972
vn 0.10303 0.98752 -0.11914
vn 0.16094 0.98292 -0.08929
vn 0.20264 0.97796 -0.05034
vn 0.21760 0.97590 -0.01630
vn 0.20890 0.97788 0.01037
vn 0.18678 0.98155 0.04085
vn 0.34685 0.93726 -0.03507
vn 0.31846 0.94623 0.05690
vn 0.26664 0.95123 0.15513
vn 0.20818 0.95240 0.22271
vn 0.16030 0.95344 0.25547
vn 0.10274 0.94996 0.29499
vn 0.00364 0.93090 0.36525
vn -0.11593 0.89246 0.43597
vn -0.20802 0.85292 0.47880
vn -0.27083 0.82769 0.49151
vn -0.34005 0.81449 0.47008
vn -0.42244 0.80764 0.41141
vn -0.47659 0.81160 0.33790
vn -0.47390 0.83672 0.27445
vn -0.42532 0.88083 0.20793
vn -0.34941 0.92944 0.11855
vn -0.26322 0.96456 0.01842
vn -0.19166 0.97946 -0.06265
vn -0.14769 0.98241 -0.11429
vn -0.10763 0.98152 -0.15824
vn -0.03883 0.97651 -0.21194
vn 0.05285 0.96287 -0.26475
vn 0.14173 0.94389 -0.29831
vn 0.22105 0.92901 -0.29677
vn 0.29287 0.92188 -0.25371
vn 0.34301 0.92002 -0.18951
vn 0.36006 0.92277 -0.13731
vn 0.35764 0.92891 -0.09606
vn 0.34685 0.93726 -0.03507
vn 0.51822 0.85063 -0.08875
vn 0.44730 0.89409 0.02268
vn 0.35647 0.92282 0.14607
vn 0.26698 0.93859 0.21855
vn 0.18224 0.94324 0.27764
vn 0.05901 0.90946 0.41159
vn -0.11232 0.80903 0.57694
vn -0.25363 0.69867 0.66898
vn -0.31630 0.66262 0.67889
vn -0.35791 0.68439 0.63523
vn -0.45606 0.69350 0.55773
vn -0.54998 0.68571 0.47679
vn -0.56535 0.70447 0.42908
vn -0.54932 0.73781 0.39228
vn -0.55429 0.76877 0.31899
vn -0.54921 0.81476 0.18585
vn -0.47802 0.87819 0.01654
vn -0.35144 0.92721 -0.12949
vn -0.23436 0.94285 -0.23687
vn -0.13512 0.93682 -0.32267
vn -0.01467 0.92550 -0.37847
vn 0.12542 0.90826 -0.39916
vn 0.24465 0.87813 -0.41114
vn 0.34116 0.83725 -0.42734
vn 0.41923 0.81037 -0.40932
vn 0.47642 0.81208 -0.33697
vn 0.52592 0.81563 -0.24116
vn 0.54805 0.82042 -0.16293
vn 0.51822 0.85063 -0.08875
vn 0.57303 0.78943 -0.22009
vn 0.48353 0.87280 -0.06649
vn 0.40993 0.90522 0.11193
vn 0.33430 0.91456 0.22764
vn 0.20036 0.90121 0.38428
vn -0.03455 0.80504 0.59221
vn -0.23044 0.69688 0.67916
vn -0.30084 0.66377 0.68477
vn -0.28079 0.67096 0.68627
vn -0.31170 0.69162 0.65154
vn -0.45445 0.69763 0.55388
vn -0.51142 0.71510 0.47653
vn -0.50444 0.74332 0.43934
vn -0.58722 0.72386 0.36220
vn -0.67826 0.68305 0.27094
vn -0.70972 0.68607 0.16003
vn -0.66781 0.74434 -0.00085
vn -0.52813 0.82952 -0.18158
vn -0.33440 0.87394 -0.35270
vn -0.17825 0.86646 -0.46635
vn -0.04289 0.84925 -0.52625
vn 0.16161 0.80678 -0.56831
vn 0.35902 0.74300 -0.56485
vn 0.47949 0.68845 -0.54417
vn 0.54020 0.65627 -0.52677
vn 0.60494 0.65234 -0.45661
vn 0.69081 0.64561 -0.32553
vn 0.67403 0.68916 -0.26596
vn 0.57303 0.78943 -0.22009
vn 0.61890 0.72904 -0.29235
vn 0.69718 0.71644 -0.02552
vn 0.66598 0.71291 0.21961
vn 0.55297 0.72822 0.40487
vn 0.32320 0.66243 0.67582
vn 0.02548 0.57724 0.81617
vn -0.17214 0.62659 0.76010
vn -0.25451 0.72224 0.64311
vn -0.26086 0.75242 0.60482
vn -0.36194 0.67521 0.64272
vn -0.48331 0.62107 0.61699
vn -0.50034 0.66770 0.55121
vn -0.59194 0.67310 0.44333
vn -0.68110 0.65932 0.31843
vn -0.68662 0.68617 0.24026
vn -0.70582 0.69465 0.13887
vn -0.72723 0.68628 -0.01232
vn -0.65861 0.71684 -0.22887
vn -0.44716 0.77106 -0.45333
vn -0.21320 0.78231 -0.58527
vn -0.00459 0.72576 -0.68794
vn 0.22062 0.63877 -0.73709
vn 0.41593 0.58926 -0.69266
vn 0.53723 0.57466 -0.61737
vn 0.61502 0.54043 -0.57419
vn 0.72388 0.47290 -0.50236
vn 0.73002 0.53513 -0.42509
vn 0.61382 0.67979 -0.40139
vn 0.61890 0.72904 -0.29235
vn 0.88502 0.42723 -0.18498
vn 0.93130 0.35403 0.08571
vn 0.86627 0.40907 0.28677
vn 0.69840 0.42177 0.57823
vn 0.38873 0.30935 0.86786
vn 0.17557 0.35280 0.91908
vn 0.01657 0.51667 0.85603
vn -0.14945 0.64657 0.74807
vn -0.33663 0.65550 0.67602
vn -0.54096 0.49411 0.68060
vn -0.56554 0.40295 0.71958
vn -0.61672 0.41230 0.67058
vn -0.75386 0.41437 0.50990
vn -0.73103 0.54288 0.41337
vn -0.71809 0.64229 0.26796
vn -0.77591 0.62799 0.05998
vn -0.82995 0.54023 -0.13904
vn -0.80799 0.46162 -0.36614
vn -0.62786 0.50504 -0.59223
vn -0.30380 0.55918 -0.77138
vn 0.02540 0.51525 -0.85667
vn 0.23373 0.51246 -0.82629
vn 0.43771 0.47394 -0.76406
vn 0.60995 0.37926 -0.69580
vn 0.72788 0.29018 -0.62127
vn 0.77668 0.26488 -0.57149
vn 0.66094 0.46229 -0.59114
vn 0.71462 0.53379 -0.45209
vn 0.88502 0.42723 -0.18498
vn 0.99104 0.07297 -0.11190
vn 0.98443 0.16779 0.05245
vn 0.92347 0.25758 0.28435
vn 0.70909 0.18128 0.68142
vn 0.43370 0.17333 0.88423
vn 0.27758 0.29628 0.91387
vn 0.12758 0.37713 0.91733
vn -0.10868 0.37661 0.91998
vn -0.44950 0.31230 0.83691
vn -0.60875 0.33900 0.71729
vn -0.60281 0.35910 0.71251
vn -0.69065 0.27307 0.66965
vn -0.72625 0.34234 0.59613
vn -0.76688 0.41529 0.48931
vn -0.89356 0.37050 0.25353
vn -0.94645 0.32041 -0.03966
vn -0.92353 0.23981 -0.29929
vn -0.86507 0.12513 -0.48580
vn -0.72107 0.07133 -0.68918
vn -0.39904 0.10561 -0.91083
vn -0.06549 0.23949 -0.96869
vn 0.24609 0.27201 -0.93030
vn 0.51716 0.18022 -0.83670
vn 0.66987 0.13822 -0.72950
vn 0.75681 0.16964 -0.63124
vn 0.65862 0.36430 -0.65841
vn 0.68232 0.38297 -0.62271
vn 0.90606 0.17992 -0.38300
vn 0.99104 0.07297 -0.11190
vn 0.98797 -0.01547 -0.15388
vn 0.99614 0.08596 -0.01755
vn 0.93855 0.06435 0.33909
vn 0.70252 -0.01335 0.71153
vn 0.53690 0.15349 0.82957
vn 0.34007 0.29494 0.89295
vn 0.09795 0.24751 0.96392
vn -0.17878 0.06614 0.98166
vn -0.40266 0.08618 0.91128
vn -0.48479 0.39529 0.78020
vn -0.59819 0.46912 0.64969
vn -0.67905 0.39683 0.61759
vn -0.69206 0.39743 0.60258
vn -0.87538 0.24116 0.41899
vn -0.98501 0.03156 0.16958
vn -0.99500 -0.04957 -0.08670
vn -0.93421 -0.03344 -0.35515
vn -0.83280 -0.05692 -0.55065
vn -0.66645 -0.20504 -0.71680
vn -0.44464 -0.23221 -0.86509
vn -0.14102 -0.15017 -0.97855
vn 0.25281 -0.14530 -0.95654
vn 0.47672 0.01046 -0.87899
vn 0.60608 0.22773 -0.76211
vn 0.60083 0.44126 -0.66655
vn 0.54318 0.56938 -0.61706
vn 0.83311 0.31947 -0.45152
vn 0.96717 0.01398 -0.25376
vn 0.98797 -0.01547 -0.15388
vn 0.98409 0.04875 -0.17084
vn 0.99786 -0.06466 0.01008
vn 0.89747 -0.19768 0.39431
vn 0.76234 -0.10175 0.63912
vn 0.63015 0.09750 0.77033
vn 0.36581 0.16000 0.91683
vn -0.01025 0.02117 0.99972
vn -0.21757 -0.05991 0.97421
vn -0.23730 0.10292 0.96597
vn -0.40140 0.27636 0.87321
vn -0.62029 0.37147 0.69083
vn -0.67113 0.41462 0.61455
vn -0.80192 0.27680 0.52944
vn -0.95992 0.02566 0.27909
vn -0.98364 -0.16766 0.06587
vn -0.97088 -0.22521 -0.08173
vn -0.94436 -0.13077 -0.30180
vn -0.78913 -0.11832 -0.60272
vn -0.58210 -0.26500 -0.76872
vn -0.41394 -0.39525 -0.82002
vn -0.09976 -0.49542 -0.86291
vn 0.12112 -0.36926 -0.92140
vn 0.30072 -0.01302 -0.95362
vn 0.47097 0.28132 -0.83609
vn 0.47282 0.47673 -0.74106
vn 0.70615 0.39976 -0.58442
vn 0.93587 0.18481 -0.29998
vn 0.97986 0.09061 -0.17792
vn 0.98409 0.04875 -0.17084
vn 0.99731 -0.03177 -0.06599
vn 0.91435 -0.37862 0.14355
vn 0.81149 -0.47132 0.34547
vn 0.81210 -0.28634 0.50843
vn 0.65191 -0.19019 0.73406
vn 0.28941 -0.25662 0.92217
vn -0.05384 -0.26332 0.96320
vn -0.14052 -0.07814 0.98699
vn -0.17372 0.02317 0.98452
vn -0.38280 -0.00843 0.92379
vn -0.58005 0.18663 0.79291
vn -0.72226 0.30119 0.62260
vn -0.92081 0.04877 0.38694
vn -0.96770 -0.20032 0.15310
vn -0.96065 -0.27728 0.01665
vn -0.96483 -0.25803 -0.05017
vn -0.92110 -0.28261 -0.26776
vn -0.71478 -0.34115 -0.61050
vn -0.49233 -0.36975 -0.78797
vn -0.25107 -0.54017 -0.80323
vn -0.08210 -0.63512 -0.76804
vn -0.09096 -0.48280 -0.87099
vn 0.10850 -0.22450 -0.96841
vn 0.32321 0.16438 -0.93194
vn 0.53167 0.28396 -0.79793
vn 0.85996 0.03822 -0.50892
vn 0.95560 0.03840 -0.29215
vn 0.97740 0.11623 -0.17659
vn 0.99731 -0.03177 -0.06599
vn 0.71123 -0.69726 0.08936
vn 0.56058 -0.81173 0.16385
vn 0.52768 -0.82888 0.18578
vn 0.49611 -0.81624 0.29603
vn 0.33435 -0.84046 0.42642
vn 0.11087 -0.84320 0.52604
vn 0.00089 -0.67225 0.74033
vn -0.07714 -0.40119 0.91274
vn -0.20360 -0.45697 0.86587
vn -0.31460 -0.44561 0.83813
vn -0.53848 -0.24057 0.80757
vn -0.82190 -0.20950 0.52971
vn -0.86665 -0.44899 0.21754
vn -0.76971 -0.63545 0.06125
vn -0.77301 -0.63425 0.01356
vn -0.73473 -0.67597 -0.05680
vn -0.53024 -0.82223 -0.20684
vn -0.38554 -0.84330 -0.37444
vn -0.25488 -0.81289 -0.52369
vn -0.06104 -0.84578 -0.53002
vn -0.09506 -0.84296 -0.52951
vn -0.13680 -0.81129 -0.56842
vn -0.01482 -0.72021 -0.69359
vn 0.22867 -0.48765 -0.84256
vn 0.55784 -0.58673 -0.58699
vn 0.69832 -0.61794 -0.36126
vn 0.81319 -0.52033 -0.26071
vn 0.84980 -0.51521 -0.11136
vn 0.71123 -0.69726 0.08936
vn 0.00000 -1.00000 0.00000
vn 0.00000 -1.00000 0.00000
vn 0.00000 -1.00000 0.00000
vn 0.00000 -1.00000 0.00000
vn 0.00000 -1.00000 0.00000
vn 0.00000 -1.00000 0.00000
vn 0.00000 -1.00000 0.00000
vn 0.00000 -1.00000 0.00000
vn 0.00000 -1.00000 0.00000
vn 0.00000 -1.00000 0.00000
vn 0.00000 -1.00000 0.00000
vn 0.00000 -1.00000 0.00000
vn 0.00000 -1.00000 0.00000
vn 0.00000 -1.00000 0.00000
vn 0.00000 -1.00000 0.00000
vn 0.00000 -1.00000 0.00000
vn 0.00000 -1.00000 0.00000
vn 0.00000 -1.00000 0.00000
vn 0.00000 -1.00000 0.00000
vn 0.00895 -0.99964 -0.02529
vn -0.02111 -0.99820 -0.05613
vn -0.00723 -0.99988 -0.01370
vn 0.00000 -1.00000 0.00000
vn 0.00000 -1.00000 0.00000
vn 0.00000 -1.00000 0.00000
vn 0.00000 -1.00000 0.00000
vn 0.00000 -1.00000 0.00000
vn 0.00000 -1.00000 0.00000
vn 0.00000 -1.00000 0.00000
vn 0.00000 -1.00000 0.00000
vn 0.00000 -1.00000 0.00000
vn 0.00000 -1.00000 0.00000
vn 0.00000 -1.00000 0.00000
vn 0.00000 -1.00000 0.00000
vn 0.00000 -1.00000 0.00000
vn 0.00000 -1.00000 0.00000
vn 0.00000 -1.00000 0.00000
vn 0.00000 -1.00000 0.00000
vn 0.00000 -1.00000 0.00000
vn 0.00000 -1.00000 0.00000
vn 0.00000 -1.00000 0.00000
vn 0.00000 -1.00000 0.00000
vn 0.00000 -1.00000 0.00000
vn 0.00000 -1.00000 0.00000
vn 0.00000 -1.00000 0.00000
vn 0.00000 -1.00000 0.00000
vn 0.00000 -1.00000 0.00000
vn 0.00000 -1.00000 0.00000
vn 0.00000 -1.00000 0.00000
vn 0.00000 -1.00000 0.00000
vn 0.00000 -1.00000 0.00000
vn 0.00000 -1.00000 0.00000
vn 0.00000 -1.00000 0.00000
vn 0.00000 -1.00000 0.00000
vn 0.00000 -1.00000 0.00000
vn 0.00000 -1.00000 0.00000
vn 0.00000 -1.00000 0.00000
vn 0.00000 -1.00000 0.00000
vn 0.00000 -1.00000 0.00000
vn 0.00000 -1.00000 0.00000
vn 0.00000 -1.00000 0.00000
vn 0.00000 -1.00000 0.00000
vn 0.00000 -1.00000 0.00000
vn 0.00000 -1.00000 0.00000
vn 0.00000 -1.00000 0.00000
vn 0.00000 -1.00000 0.00000
vn 0.00000 -1.00000 0.00000
vn 0.00000 -1.00000 0.00000
vn 0.00000 -1.00000 0.00000
vn 0.00000 -1.00000 0.00000
vn 0.00000 -1.00000 0.00000
vn 0.00000 -1.00000 0.00000
vn 0.00000 -1.00000 0.00000
vn 0.00000 -1.00000 0.00000
vn 0.00000 -1.00000 0.00000
vn 0.00000 -1.00000 0.00000
vn 0.00000 -1.00000 0.00000
vn 0.00000 -1.00000 0.00000
vn 0.00000 -1.00000 0.00000
vn 0.00000 -1.00000 0.00000
vn 0.00000 -1.00000 0.00000
vn 0.00000 -1.00000 0.00000
vn 0.00000 -1.00000 0.00000
vn 0.00000 -1.00000 0.00000
vn 0.00000 -1.00000 0.00000
vn 0.00000 -1.00000 0.00000
vn 0.00000 -1.00000 0.00000
vn 0.00000 -1.00000 0.00000
vn 0.00000 -1.00000 0.00000
vn 0.00000 -1.00000 0.00000
vn 0.00000 -1.00000 0.00000
vn 0.00000 -1.00000 0.00000
vn 0.00000 -1.00000 0.00000
vn 0.00000 -1.00000 0.00000
vn 0.00000 -1.00000 0.00000
vn 0.00000 -1.00000 0.00000
vn 0.00000 -1.00000 0.00000
vn 0.00000 -1.00000 0.00000
vn 0.00000 -1.00000 0.00000
vn 0.00000 -1.00000 0.00000
vn 0.00000 -1.00000 0.00000
vn 0.00000 -1.00000 0.00000
vn 0.00000 -1.00000 0.00000
vn 0.00000 -1.00000 0.00000
vn 0.00000 -1.00000 0.00000
vn 0.00000 -1.00000 0.00000
vn 0.00000 -1.00000 0.00000
vn 0.00000 -1.00000 0.00000
vn 0.00000 -1.00000 0.00000
vn 0.00000 -1.00000 0.00000
vn 0.00000 -1.00000 0.00000
vn 0.00000 -1.00000 0.00000
vn 0.00000 -1.00000 0.00000
vn 0.00000 -1.00000 0.00000
vn 0.00000 -1.00000 0.00000
vn 0.00000 -1.00000 0.00000
vn 0.00000 -1.00000 0.00000
vn 0.00000 -1.00000 0.00000
vn 0.00000 -1.00000 0.00000
vn 0.00000 -1.00000 0.00000
vn 0.00000 -1.00000 0.00000
vn 0.00000 -1.00000 0.00000
vn 0.00000 -1.00000 0.00000
vn 0.00000 -1.00000 0.00000
vn 0.00000 -1.00000 0.00000
vn 0.00000 -1.00000 0.00000
vn 0.00000 -1.00000 0.00000
vn 0.00000 -1.00000 0.00000
vn 0.00000 -1.00000 0.00000
vn 0.00000 -1.00000 0.00000
vn 0.00000 -1.00000 0.00000
vn 0.00000 -1.00000 0.00000
vn 0.00000 -1.00000 0.00000
vn 0.00000 -1.00000 0.00000
vn 0.00000 -1.00000 0.00000
vn 0.00000 -1.00000 0.00000
vn 0.00000 -1.00000 0.00000
vn 0.00000 -1.00000 0.00000
vn 0.00000 -1.00000 0.00000
vn 0.00000 -1.00000 0.00000
vn 0.00000 -1.00000 0.00000
vn 0.00000 -1.00000 0.00000
vn 0.00000 -1.00000 0.00000
vn 0.00000 -1.00000 0.00000
vn 0.00000 -1.00000 0.00000
vn 0.00000 -1.00000 0.00000
vn 0.00000 -1.00000 0.00000
vn 0.00000 -1.00000 0.00000
vn 0.00000 -1.00000 0.00000
vn 0.00000 -1.00000 0.00000
vn 0.00000 -1.00000 0.00000
vn 0.00000 -1.00000 0.00000
vn 0.00000 -1.00000 0.00000
vn 0.00000 -1.00000 0.00000
vn 0.00000 -1.00000 0.00000
vn 0.00000 -1.00000 0.00000
vn 0.00000 -1.00000 0.00000
vn 0.00000 -1.00000 0.00000
vn 0.00000 -1.00000 0.00000
vn 0.00000 -1.00000 0.00000
vn 0.00000 -1.00000 0.00000
vn 0.00000 -1.00000 0.00000
vn 0.00000 -1.00000 0.00000
vn 0.00000 -1.00000 0.00000
vn 0.00000 -1.00000 0.00000
vn 0.00000 -1.00000 0.00000
vn 0.00000 -1.00000 0.00000
vn 0.00000 -1.00000 0.00000
vn 0.00000 -1.00000 0.00000
vn 0.00000 -1.00000 0.00000
vn 0.00000 -1.00000 0.00000
vn 0.00000 -1.00000 0.00000
vn 0.00000 -1.00000 0.00000
vn 0.00000 -1.00000 0.00000
vn 0.00000 -1.00000 0.00000
vn 0.00000 -1.00000 0.00000
vn 0.00000 -1.00000 0.00000
vn 0.00000 -1.00000 0.00000
vn 0.00000 -1.00000 0.00000
vn 0.00000 -1.00000 0.00000
vn 0.00000 -1.00000 0.00000
vn 0.00000 -1.00000 0.00000
vn 0.00000 -1.00000 0.00000
vn 0.00000 -1.00000 0.00000
vn 0.00000 -1.00000 0.00000
vn 0.00000 -1.00000 0.00000
vn 0.00000 -1.00000 0.00000
vn 0.00000 -1.00000 0.00000
vn 0.00000 -1.00000 0.00000
vn 0.00000 -1.00000 0.00000
vn 0.00000 -1.00000 0.00000
vn 0.00000 -1.00000 0.00000
vn 0.00000 -1.00000 0.00000
vn 0.00000 -1.00000 0.00000
vn 0.00000 -1.00000 0.00000
vn 0.00000 -1.00000 0.00000
vn 0.00000 -1.00000 0.00000
vn 0.00000 -1.00000 0.00000
vn 0.00000 -1.00000 0.00000
vn 0.00000 -1.00000 0.00000
vn 0.00000 -1.00000 0.00000
vn 0.00000 -1.00000 0.00000
vn 0.00000 -1.00000 0.00000
usemtl rock
s 1
f 1/1/1 2/2/2 30/30/30
f 2/2/2 31/31/31 30/30/30
f 2/2/2 3/3/3 31/31/31
f 3/3/3 32/32/32 31/31/31
f 3/3/3 4/4/4 32/32/32
f 4/4/4 33/33/33 32/32/32
f 4/4/4 5/5/5 33/33/33
f 5/5/5 34/34/34 33/33/33
f 5/5/5 6/6/6 34/34/34
f 6/6/6 35/35/35 34/34/34
f 6/6/6 7/7/7 35/35/35
f 7/7/7 36/36/36 35/35/35
f 7/7/7 8/8/8 36/36/36
f 8/8/8 37/37/37 36/36/36
f 8/8/8 9/9/9 37/37/37
f 9/9/9 38/38/38 37/37/37
f 9/9/9 10/10/10 38/38/38
f 10/10/10 39/39/39 38/38/38
f 10/10/10 11/11/11 39/39/39
f 11/11/11 40/40/40 39/39/39
f 11/11/11 12/12/12 40/40/40
f 12/12/12 41/41/41 40/40/40
f 12/12/12 13/13/13 41/41/41
f 13/13/13 42/42/42 41/41/41
f 13/13/13 14/14/14 42/42/42
f 14/14/14 43/43/43 42/42/42
f 14/14/14 15/15/15 43/43/43
f 15/15/15 44/44/44 43/43/43
f 15/15/15 16/16/16 44/44/44
f 16/16/16 45/45/45 44/44/44
f 16/16/16 17/17/17 45/45/45
f 17/17/17 46/46/46 45/45/45
f 17/17/17 18/18/18 46/46/46
f 18/18/18 47/47/47 46/46/46
f 18/18/18 19/19/19 47/47/47
f 19/19/19 48/48/48 47/47/47
f 19/19/19 20/20/20 48/48/48
f 20/20/20 49/49/49 48/48/48
f 20/20/20 21/21/21 49/49/49
f 21/21/21 50/50/50 49/49/49
f 21/21/21 22/22/22 50/50/50
f 22/22/22 51/51/51 50/50/50
f 22/22/22 23/23/23 51/51/51
f 23/23/23 52/52/52 51/51/51
f 23/23/23 24/24/24 52/52/52
f 24/24/24 53/53/53 52/52/52
f 24/24/24 25/25/25 53/53/53
f 25/25/25 54/54/54 53/53/53
f 25/25/25 26/26/26 54/54/54
f 26/26/26 55/55/55 54/54/54
f 26/26/26 27/27/27 55/55/55
f 27/27/27 56/56/56 55/55/55
f 27/27/27 28/28/28 56/56/56
f 28/28/28 57/57/57 56/56/56
f 28/28/28 29/29/29 57/57/57
f 29/29/29 58/58/58 57/57/57
f 30/30/30 31/31/31 59/59/59
f 31/31/31 60/60/60 59/59/59
f 31/31/31 32/32/32 60/60/60
f 32/32/32 61/61/61 60/60/60
f 32/32/32 33/33/33 61/61/61
f 33/33/33 62/62/62 61/61/61
f 33/33/33 34/34/34 62/62/62
f 34/34/34 63/63/63 62/62/62
f 34/34/34 35/35/35 63/63/63
f 35/35/35 64/64/64 63/63/63
f 35/35/35 36/36/36 64/64/64
f 36/36/36 65/65/65 64/64/64
f 36/36/36 37/37/37 65/65/65
f 37/37/37 66/66/66 65/65/65
f 37/37/37 38/38/38 66/66/66
f 38/38/38 67/67/67 66/66/66
f 38/38/38 39/39/39 67/67/67
f 39/39/39 68/68/68 67/67/67
f 39/39/39 40/40/40 68/68/68
f 40/40/40 69/69/69 68/68/68
f 40/40/40 41/41/41 69/69/69
f 41/41/41 70/70/70 69/69/69
f 41/41/41 42/42/42 70/70/70
f 42/42/42 71/71/71 70/70/70
f 42/42/42 43/43/43 71/71/71
f 43/43/43 72/72/72 71/71/71
f 43/43/43 44/44/44 72/72/72
f 44/44/44 73/73/73 72/72/72
f 44/44/44 45/45/45 73/73/73
f 45/45/45 74/74/74 73/73/73
f 45/45/45 46/46/46 74/74/74
f 46/46/46 75/75/75 74/74/74
f 46/46/46 47/47/47 75/75/75
f 47/47/47 76/76/76 75/75/75
f 47/47/47 48/48/48 76/76/76
f 48/48/48 77/77/77 76/76/76
f 48/48/48 49/49/49 77/77/77
f 49/49/49 78/78/78 77/77/77
f 49/49/49 50/50/50 78/78/78
f 50/50/50 79/79/79 78/78/78
f 50/50/50 51/51/51 79/79/79
f 51/51/51 80/80/80 79/79/79
f 51/51/51 52/52/52 80/80/80
f 52/52/52 81/81/81 80/80/80
f 52/52/52 53/53/53 81/81/81
f 53/53/53 82/82/82 81/81/81
f 53/53/53 54/54/54 82/82/82
f 54/54/54 83/83/83 82/82/82
f 54/54/54 55/55/55 83/83/83
f 55/55/55 84/84/84 83/83/83
f 55/55/55 56/56/56 84/84/84
f 56/56/56 85/85/85 84/84/84
f 56/56/56 57/57/57 85/85/85
f 57/57/57 86/86/86 85/85/85
f 57/57/57 58/58/58 86/86/86
f 58/58/58 87/87/87 86/86/86
f 59/59/59 60/60/60 88/88/88
f 60/60/60 89/89/89 88/88/88
f 60/60/60 61/61/61 89/89/89
f 61/61/61 90/90/90 89/89/89
f 61/61/61 62/62/62 90/90/90
f 62/62/62 91/91/91 90/90/90
f 62/62/62 63/63/63 91/91/91
f 63/63/63 92/92/92 91/91/91
f 63/63/63 64/64/64 92/92/92
f 64/64/64 93/93/93 92/92/92
f 64/64/64 65/65/65 93/93/93
f 65/65/65 94/94/94 93/93/93
f 65/65/65 66/66/66 94/94/94
f 66/66/66 95/95/95 94/94/94
f 66/66/66 67/67/67 95/95/95
f 67/67/67 96/96/96 95/95/95
f 67/67/67 68/68/68 96/96/96
f 68/68/68 97/97/97 96/96/96
f 68/68/68 69/69/69 97/97/97
f 69/69/69 98/98/98 97/97/97
f 69/69/69 70/70/70 98/98/98
f 70/70/70 99/99/99 98/98/98
f 70/70/70 71/71/71 99/99/99
f 71/71/71 100/100/100 99/99/99
f 71/71/71 72/72/72 100/100/100
f 72/72/72 101/101/101 100/100/100
f 72/72/72 73/73/73 101/101/101
f 73/73/73 102/102/102 101/101/101
f 73/73/73 74/74/74 102/102/102
f 74/74/74 103/103/103 102/102/102
f 74/74/74 75/75/75 103/103/103
f 75/75/75 104/104/104 103/103/103
f 75/75/75 76/76/76 104/104/104
f 76/76/76 105/105/105 104/104/104
f 76/76/76 77/77/77 105/105/105
f 77/77/77 106/106/106 105/105/105
f 77/77/77 78/78/78 106/106/106
f 78/78/78 107/107/107 106/106/106
f 78/78/78 79/79/79 107/107/107
f 79/79/79 108/108/108 107/107/107
f 79/79/79 80/80/80 108/108/108
f 80/80/80 109/109/109 108/108/108
f 80/80/80 81/81/81 109/109/109
f 81/81/81 110/110/110 109/109/109
f 81/81/81 82/82/82 110/110/110
f 82/82/82 111/111/111 110/110/110
f 82/82/82 83/83/83 111/111/111
f 83/83/83 112/112/112 111/111/111
f 83/83/83 84/84/84 112/112/112
f 84/84/84 113/113/113 112/112/112
f 84/84/84 85/85/85 113/113/113
f 85/85/85 114/114/114 113/113/113
f 85/85/85 86/86/86 114/114/114
f 86/86/86 115/115/115 114/114/114
f 86/86/86 87/87/87 115/115/115
f 87/87/87 116/116/116 115/115/115
f 88/88/88 89/89/89 117/117/117
f 89/89/89 118/118/118 117/117/117
f 89/89/89 90/90/90 118/118/118
f 90/90/90 119/119/119 118/118/118
f 90/90/90 91/91/91 119/119/119
f 91/91/91 120/120/120 119/119/119
f 91/91/91 92/92/92 120/120/120
f 92/92/92 121/121/121 120/120/120
f 92/92/92 93/93/93 121/121/121
f 93/93/93 122/122/122 121/121/121
f 93/93/93 94/94/94 122/122/122
f 94/94/94 123/123/123 122/122/122
f 94/94/94 95/95/95 123/123/123
f 95/95/95 124/124/124 123/123/123
f 95/95/95 96/96/96 124/124/124
f 96/96/96 125/125/125 124/124/124
f 96/96/96 97/97/97 125/125/125
f 97/97/97 126/126/126 125/125/125
f 97/97/97 98/98/98 126/126/126
f 98/98/98 127/127/127 126/126/126
f 98/98/98 99/99/99 127/127/127
f 99/99/99 128/128/128 127/127/127
f 99/99/99 100/100/100 128/128/128
f 100/100/100 129/129/129 128/128/128
f 100/100/100 101/101/101 129/129/129
f 101/101/101 130/130/130 129/129/129
f 101/101/101 102/102/102 130/130/130
f 102/102/102 131/131/131 130/130/130
f 102/102/102 103/103/103 131/131/131
f 103/103/103 132/132/132 131/131/131
f 103/103/103 104/104/104 132/132/132
f 104/104/104 133/133/133 132/132/132
f 104/104/104 105/105/105 133/133/133
f 105/105/105 134/134/134 133/133/133
f 105/105/105 106/106/106 134/134/134
f 106/106/106 135/135/135 134/134/134
f 106/106/106 107/107/107 135/135/135
f 107/107/107 136/136/136 135/135/135
f 107/107/107 108/108/108 136/136/136
f 108/108/108 137/137/137 136/136/136
f 108/108/108 109/109/109 137/137/137
f 109/109/109 138/138/138 137/137/137
f 109/109/109 110/110/110 138/138/138
f 110/110/110 139/139/139 138/138/138
f 110/110/110 111/111/111 139/139/139
f 111/111/111 140/140/140 139/139/139
f 111/111/111 112/112/112 140/140/140
f 112/112/112 141/141/141 140/140/140
f 112/112/112 113/113/113 141/141/141
f 113/113/113 142/142/142 141/141/141
f 113/113/113 114/114/114 142/142/142
f 114/114/114 143/143/143 142/142/142
f 114/114/114 115/115/115 143/143/143
f 115/115/115 144/144/144 143/143/143
f 115/115/115 116/116/116 144/144/144
f 116/116/116 145/145/145 144/144/144
f 117/117/117 118/118/118 146/146/146
f 118/118/118 147/147/147 146/146/146
f 118/118/118 119/119/119 147/147/147
f 119/119/119 148/148/148 147/147/147
f 119/119/119 120/120/120 148/148/148
f 120/120/120 149/149/149 148/148/148
f 120/120/120 121/121/121 149/149/149
f 121/121/121 150/150/150 149/149/149
f 121/121/121 122/122/122 150/150/150
f 122/122/122 151/151/151 150/150/150
f 122/122/122 123/123/123 151/151/151
f 123/123/123 152/152/152 151/151/151
f 123/123/123 124/124/124 152/152/152
f 124/124/124 153/153/153 152/152/152
f 124/124/124 125/125/125 153/153/153
f 125/125/125 154/154/154 153/153/153
f 125/125/125 126/126/126 154/154/154
f 126/126/126 155/155/155 154/154/154
f 126/126/126 127/127/127 155/155/155
f 127/127/127 156/156/156 155/155/155
f 127/127/127 128/128/128 156/156/156
f 128/128/128 157/157/157 156/156/156
f 128/128/128 129/129/129 157/157/157
f 129/129/129 158/158/158 157/157/157
f 129/129/129 130/130/130 158/158/158
f 130/130/130 159/159/159 158/158/158
f 130/130/130 131/131/131 159/159/159
f 131/131/131 160/160/160 159/159/159
f 131/131/131 132/132/132 160/160/160
f 132/132/132 161/161/161 160/160/160
f 132/132/132 133/133/133 161/161/161
f 133/133/133 162/162/162 161/161/161
f 133/133/133 134/134/134 162/162/162
f 134/134/134 163/163/163 162/162/162
f 134/134/134 135/135/135 163/163/163
f 135/135/135 164/164/164 163/163/163
f 135/135/135 136/136/136 164/164/164
f 136/136/136 165/165/165 164/164/164
f 136/136/136 137/137/137 165/165/165
f 137/137/137 166/166/166 165/165/165
f 137/137/137 138/138/138 166/166/166
f 138/138/138 167/167/167 166/166/166
f 138/138/138 139/139/139 167/167/167
f 139/139/139 168/168/168 167/167/167
f 139/139/139 140/140/140 168/168/168
f 140/140/140 169/169/169 168/168/168
f 140/140/140 141/141/141 169/169/169
f 141/141/141 170/170/170 169/169/169
f 141/141/141 142/142/142 170/170/170
f 142/142/142 171/171/171 170/170/170
f 142/142/142 143/143/143 171/171/171
f 143/143/143 172/172/172 171/171/171
f 143/143/143 144/144/144 172/172/172
f 144/144/144 173/173/173 172/172/172
f 144/144/144 145/145/145 173/173/173
f 145/145/145 174/174/174 173/173/173
f 146/146/146 147/147/147 175/175/175
f 147/147/147 176/176/176 175/175/175
f 147/147/147 148/148/148 176/176/176
f 148/148/148 177/177/177 176/176/176
f 148/148/148 149/149/149 177/177/177
f 149/149/149 178/178/178 177/177/177
f 149/149/149 150/150/150 178/178/178
f 150/150/150 179/179/179 178/178/178
f 150/150/150 151/151/151 179/179/179
f 151/151/151 180/180/180 179/179/179
f 151/151/151 152/152/152 180/180/180
f 152/152/152 181/181/181 180/180/180
f 152/152/152 153/153/153 181/181/181
f 153/153/153 182/182/182 181/181/181
f 153/153/153 154/154/154 182/182/182
f 154/154/154 183/183/183 182/182/182
f 154/154/154 155/155/155 183/183/183
f 155/155/155 184/184/184 183/183/183
f 155/155/155 156/156/156 184/184/184
f 156/156/156 185/185/185 184/184/184
f 156/156/156 157/157/157 185/185/185
f 157/157/157 186/186/186 185/185/185
f 157/157/157 158/158/158 186/186/186
f 158/158/158 187/187/187 186/186/186
f 158/158/158 159/159/159 187/187/187
f 159/159/159 188/188/188 187/187/187
f 159/159/159 160/160/160 188/188/188
f 160/160/160 189/189/189 188/188/188
f 160/160/160 161/161/161 189/189/189
f 161/161/161 190/190/190 189/189/189
f 161/161/161 162/162/162 190/190/190
f 162/162/162 191/191/191 190/190/190
f 162/162/162 163/163/163 191/191/191
f 163/163/163 192/192/192 191/191/191
f 163/163/163 164/164/164 192/192/192
f 164/164/164 193/193/193 192/192/192
f 164/164/164 165/165/165 193/193/193
f 165/165/165 194/194/194 193/193/193
f 165/165/165 166/166/166 194/194/194
f 166/166/166 195/195/195 194/194/194
f 166/166/166 167/167/167 195/195/195
f 167/167/167 196/196/196 195/195/195
f 167/167/167 168/168/168 196/196/196
f 168/168/168 197/197/197 196/196/196
f 168/168/168 169/169/169 197/197/197
f 169/169/169 198/198/198 197/197/197
f 169/169/169 170/170/170 198/198/198
f 170/170/170 199/199/199 198/198/198
f 170/170/170 171/171/171 199/199/199
f 171/171/171 200/200/200 199/199/199
f 171/171/171 172/172/172 200/200/200
f 172/172/172 201/201/201 200/200/200
f 172/172/172 173/173/173 201/201/201
f 173/173/173 202/202/202 201/201/201
f 173/173/173 174/174/174 202/202/202
f 174/174/174 203/203/203 202/202/202
f 175/175/175 176/176/176 204/204/204
f 176/176/176 205/205/205 204/204/204
f 176/176/176 177/177/177 205/205/205
f 177/177/177 206/206/206 205/205/205
f 177/177/177 178/178/178 206/206/206
f 178/178/178 207/207/207 206/206/206
f 178/178/178 179/179/179 207/207/207
f 179/179/179 208/208/208 207/207/207
f 179/179/179 180/180/180 208/208/208
f 180/180/180 209/209/209 208/208/208
f 180/180/180 181/181/181 209/209/209
f 181/181/181 210/210/210 209/209/209
f 181/181/181 182/182/182 210/210/210
f 182/182/182 211/211/211 210/210/210
f 182/182/182 183/183/183 211/211/211
f 183/183/183 212/212/212 211/211/211
f 183/183/183 184/184/184 212/212/212
f 184/184/184 213/213/213 212/212/212
f 184/184/184 185/185/185 213/213/213
f 185/185/185 214/214/214 213/213/213
f 185/185/185 186/186/186 214/214/214
f 186/186/186 215/215/215 214/214/214
f 186/186/186 187/187/187 215/215/215
f 187/187/187 216/216/216 215/215/215
f 187/187/187 188/188/188 216/216/216
f 188/188/188 217/217/217 216/216/216
f 188/188/188 189/189/189 217/217/217
f 189/189/189 218/218/218 217/217/217
f 189/189/189 190/190/190 218/218/218
f 190/190/190 219/219/219 218/218/218
f 190/190/190 191/191/191 219/219/219
f 191/191/191 220/220/220 219/219/219
f 191/191/191 192/192/192 220/220/220
f 192/192/192 221/221/221 220/220/220
f 192/192/192 193/193/193 221/221/221
f 193/193/193 222/222/222 221/221/221
f 193/193/193 194/194/194 222/222/222
f 194/194/194 223/223/223 222/222/222
f 194/194/194 195/195/195 223/223/223
f 195/195/195 224/224/224 223/223/223
f 195/195/195 196/196/196 224/224/224
f 196/196/196 225/225/225 224/224/224
f 196/196/196 197/197/197 225/225/225
f 197/197/197 226/226/226 225/225/225
f 197/197/197 198/198/198 226/226/226
f 198/198/198 227/227/227 226/226/226
f 198/198/198 199/199/199 227/227/227
f 199/199/199 228/228/228 227/227/227
f 199/199/199 200/200/200 228/228/228
f 200/200/200 229/229/229 228/228/228
f 200/200/200 201/201/201 229/229/229
f 201/201/201 230/230/230 229/229/229
f 201/201/201 202/202/202 230/230/230
f 202/202/202 231/231/231 230/230/230
f 202/202/202 203/203/203 231/231/231
f 203/203/203 232/232/232 231/231/231
f 204/204/204 205/205/205 233/233/233
f 205/205/205 234/234/234 233/233/233
f 205/205/205 206/206/206 234/234/234
f 206/206/206 235/235/235 234/234/234
f 206/206/206 207/207/207 235/235/235
f 207/207/207 236/236/236 235/235/235
f 207/207/207 208/208/208 236/236/236
f 208/208/208 237/237/237 236/236/236
f 208/208/208 209/209/209 237/237/237
f 209/209/209 238/238/238 237/237/237
f 209/209/209 210/210/210 238/238/238
f 210/210/210 239/239/239 238/238/238
f 210/210/210 211/211/211 239/239/239
f 211/211/211 240/240/240 239/239/239
f 211/211/211 212/212/212 240/240/240
f 212/212/212 241/241/241 240/240/240
f 212/212/212 213/213/213 241/241/241
f 213/213/213 242/242/242 241/241/241
f 213/213/213 214/214/214 242/242/242
f 214/214/214 243/243/243 242/242/242
f 214/214/214 215/215/215 243/243/243
f 215/215/215 244/244/244 243/243/243
f 215/215/215 216/216/216 244/244/244
f 216/216/216 245/245/245 244/244/244
f 216/216/216 217/217/217 245/245/245
f 217/217/217 246/246/246 245/245/245
f 217/217/217 218/218/218 246/246/246
f 218/218/218 247/247/247 246/246/246
f 218/218/218 219/219/219 247/247/247
f 219/219/219 248/248/248 247/247/247
f 219/219/219 220/220/220 248/248/248
f 220/220/220 249/249/249 248/248/248
f 220/220/220 221/221/221 249/249/249
f 221/221/221 250/250/250 249/249/249
f 221/221/221 222/222/222 250/250/250
f 222/222/222 251/251/251 250/250/250
f 222/222/222 223/223/223 251/251/251
f 223/223/223 252/252/252 251/251/251
f 223/223/223 224/224/224 252/252/252
f 224/224/224 253/253/253 252/252/252
f 224/224/224 225/225/225 253/253/253
f 225/225/225 254/254/254 253/253/253
f 225/225/225 226/226/226 254/254/254
f 226/226/226 255/255/255 254/254/254
f 226/226/226 227/227/227 255/255/255
f 227/227/227 256/256/256 255/255/255
f 227/227/227 228/228/228 256/256/256
f 228/228/228 257/257/257 256/256/256
f 228/228/228 229/229/229 257/257/257
f 229/229/229 258/258/258 257/257/257
f 229/229/229 230/230/230 258/258/258
f 230/230/230 259/259/259 258/258/258
f 230/230/230 231/231/231 259/259/259
f 231/231/231 260/260/260 259/259/259
f 231/231/231 232/232/232 260/260/260
f 232/232/232 261/261/261 260/260/260
f 233/233/233 234/234/234 262/262/262
f 234/234/234 263/263/263 262/262/262
f 234/234/234 235/235/235 263/263/263
f 235/235/235 264/264/264 263/263/263
f 235/235/235 236/236/236 264/264/264
f 236/236/236 265/265/265 264/264/264
f 236/236/236 237/237/237 265/265/265
f 237/237/237 266/266/266 265/265/265
f 237/237/237 238/238/238 266/266/266
f 238/238/238 267/267/267 266/266/266
f 238/238/238 239/239/239 267/267/267
f 239/239/239 268/268/268 267/267/267
f 239/239/239 240/240/240 268/268/268
f 240/240/240 269/269/269 268/268/268
f 240/240/240 241/241/241 269/269/269
f 241/241/241 270/270/270 269/269/269
f 241/241/241 242/242/242 270/270/270
f 242/242/242 271/271/271 270/270/270
f 242/242/242 243/243/243 271/271/271
f 243/243/243 272/272/272 271/271/271
f 243/243/243 244/244/244 272/272/272
f 244/244/244 273/273/273 272/272/272
f 244/244/244 245/245/245 273/273/273
f 245/245/245 274/274/274 273/273/273
f 245/245/245 246/246/246 274/274/274
f 246/246/246 275/275/275 274/274/274
f 246/246/246 247/247/247 275/275/275
f 247/247/247 276/276/276 275/275/275
f 247/247/247 248/248/248 276/276/276
f 248/248/248 277/277/277 276/276/276
f 248/248/248 249/249/249 277/277/277
f 249/249/249 278/278/278 277/277/277
f 249/249/249 250/250/250 278/278/278
f 250/250/250 279/279/279 278/278/278
f 250/250/250 251/251/251 279/279/279
f 251/251/251 280/280/280 279/279/279
f 251/251/251 252/252/252 280/280/280
f 252/252/252 281/281/281 280/280/280
f 252/252/252 253/253/253 281/281/281
f 253/253/253 282/282/282 281/281/281
f 253/253/253 254/254/254 282/282/282
f 254/254/254 283/283/283 282/282/282
f 254/254/254 255/255/255 283/283/283
f 255/255/255 284/284/284 283/283/283
f 255/255/255 256/256/256 284/284/284
f 256/256/256 285/285/285 284/284/284
f 256/256/256 257/257/257 285/285/285
f 257/257/257 286/286/286 285/285/285
f 257/257/257 258/258/258 286/286/286
f 258/258/258 287/287/287 286/286/286
f 258/258/258 259/259/259 287/287/287
f 259/259/259 288/288/288 287/287/287
f 259/259/259 260/260/260 288/288/288
f 260/260/260 289/289/289 288/288/288
f 260/260/260 261/261/261 289/289/289
f 261/261/261 290/290/290 289/289/289
f 262/262/262 263/263/263 291/291/291
f 263/263/263 292/292/292 291/291/291
f 263/263/263 264/264/264 292/292/292
f 264/264/264 293/293/293 292/292/292
f 264/264/264 265/265/265 293/293/293
f 265/265/265 294/294/294 293/293/293
f 265/265/265 266/266/266 294/294/294
f 266/266/266 295/295/295 294/294/294
f 266/266/266 267/267/267 295/295/295
f 267/267/267 296/296/296 295/295/295
f 267/267/267 268/268/268 296/296/296
f 268/268/268 297/297/297 296/296/296
f 268/268/268 269/269/269 297/297/297
f 269/269/269 298/298/298 297/297/297
f 269/269/269 270/270/270 298/298/298
f 270/270/270 299/299/299 298/298/298
f 270/270/270 271/271/271 299/299/299
f 271/271/271 300/300/300 299/299/299
f 271/271/271 272/272/272 300/300/300
f 272/272/272 301/301/301 300/300/300
f 272/272/272 273/273/273 301/301/301
f 273/273/273 302/302/302 301/301/301
f 273/273/273 274/274/274 302/302/302
f 274/274/274 303/303/303 302/302/302
f 274/274/274 275/275/275 303/303/303
f 275/275/275 304/304/304 303/303/303
f 275/275/275 276/276/276 304/304/304
f 276/276/276 305/305/305 304/304/304
f 276/276/276 277/277/277 305/305/305
f 277/277/277 306/306/306 305/305/305
f 277/277/277 278/278/278 306/306/306
f 278/278/278 307/307/307 306/306/306
f 278/278/278 279/279/279 307/307/307
f 279/279/279 308/308/308 307/307/307
f 279/279/279 280/280/280 308/308/308
f 280/280/280 309/309/309 308/308/308
f 280/280/280 281/281/281 309/309/309
f 281/281/281 310/310/310 309/309/309
f 281/281/281 282/282/282 310/310/310
f 282/282/282 311/311/311 310/310/310
f 282/282/282 283/283/283 311/311/311
f 283/283/283 312/312/312 311/311/311
f 283/283/283 284/284/284 312/312/312
f 284/284/284 313/313/313 312/312/312
f 284/284/284 285/285/285 313/313/313
f 285/285/285 314/314/314 313/313/313
f 285/285/285 286/286/286 314/314/314
f 286/286/286 315/315/315 314/314/314
f 286/286/286 287/287/287 315/315/315
f 287/287/287 316/316/316 315/315/315
f 287/287/287 288/288/288 316/316/316
f 288/288/288 317/317/317 316/316/316
f 288/288/288 289/289/289 317/317/317
f 289/289/289 318/318/318 317/317/317
f 289/289/289 290/290/290 318/318/318
f 290/290/290 319/319/319 318/318/318
f 291/291/291 292/292/292 320/320/320
f 292/292/292 321/321/321 320/320/320
f 292/292/292 293/293/293 321/321/321
f 293/293/293 322/322/322 321/321/321
f 293/293/293 294/294/294 322/322/322
f 294/294/294 323/323/323 322/322/322
f 294/294/294 295/295/295 323/323/323
f 295/295/295 324/324/324 323/323/323
f 295/295/295 296/296/296 324/324/324
f 296/296/296 325/325/325 324/324/324
f 296/296/296 297/297/297 325/325/325
f 297/297/297 326/326/326 325/325/325
f 297/297/297 298/298/298 326/326/326
f 298/298/298 327/327/327 326/326/326
f 298/298/298 299/299/299 327/327/327
f 299/299/299 328/328/328 327/327/327
f 299/299/299 300/300/300 328/328/328
f 300/300/300 329/329/329 328/328/328
f 300/300/300 301/301/301 329/329/329
f 301/301/301 330/330/330 329/329/329
f 301/301/301 302/302/302 330/330/330
f 302/302/302 331/331/331 330/330/330
f 302/302/302 303/303/303 331/331/331
f 303/303/303 332/332/332 331/331/331
f 303/303/303 304/304/304 332/332/332
f 304/304/304 333/333/333 332/332/332
f 304/304/304 305/305/305 333/333/333
f 305/305/305 334/334/334 333/333/333
f 305/305/305 306/306/306 334/334/334
f 306/306/306 335/335/335 334/334/334
f 306/306/306 307/307/307 335/335/335
f 307/307/307 336/336/336 335/335/335
f 307/307/307 308/308/308 336/336/336
f 308/308/308 337/337/337 336/336/336
f 308/308/308 309/309/309 337/337/337
f 309/309/309 338/338/338 337/337/337
f 309/309/309 310/310/310 338/338/338
f 310/310/310 339/339/339 338/338/338
f 310/310/310 311/311/311 339/339/339
f 311/311/311 340/340/340 339/339/339
f 311/311/311 312/312/312 340/340/340
f 312/312/312 341/341/341 340/340/340
f 312/312/312 313/313/313 341/341/341
f 313/313/313 342/342/342 341/341/341
f 313/313/313 314/314/314 342/342/342
f 314/314/314 343/343/343 342/342/342
f 314/314/314 315/315/315 343/343/343
f 315/315/315 344/344/344 343/343/343
f 315/315/315 316/316/316 344/344/344
f 316/316/316 345/345/345 344/344/344
f 316/316/316 317/317/317 345/345/345
f 317/317/317 346/346/346 345/345/345
f 317/317/317 318/318/318 346/346/346
f 318/318/318 347/347/347 346/346/346
f 318/318/318 319/319/319 347/347/347
f 319/319/319 348/348/348 347/347/347
f 320/320/320 321/321/321 349/349/349
f 321/321/321 350/350/350 349/349/349
f 321/321/321 322/322/322 350/350/350
f 322/322/322 351/351/351 350/350/350
f 322/322/322 323/323/323 351/351/351
f 323/323/323 352/352/352 351/351/351
f 323/323/323 324/324/324 352/352/352
f 324/324/324 353/353/353 352/352/352
f 324/324/324 325/325/325 353/353/353
f 325/325/325 354/354/354 353/353/353
f 325/325/325 326/326/326 354/354/354
f 326/326/326 355/355/355 354/354/354
f 326/326/326 327/327/327 355/355/355
f 327/327/327 356/356/356 355/355/355
f 327/327/327 328/328/328 356/356/356
f 328/328/328 357/357/357 356/356/356
f 328/328/328 329/329/329 357/357/357
f 329/329/329 358/358/358 357/357/357
f 329/329/329 330/330/330 358/358/358
f 330/330/330 359/359/359 358/358/358
f 330/330/330 331/331/331 359/359/359
f 331/331/331 360/360/360 359/359/359
f 331/331/331 332/332/332 360/360/360
f 332/332/332 361/361/361 360/360/360
f 332/332/332 333/333/333 361/361/361
f 333/333/333 362/362/362 361/361/361
f 333/333/333 334/334/334 362/362/362
f 334/334/334 363/363/363 362/362/362
f 334/334/334 335/335/335 363/363/363
f 335/335/335 364/364/364 363/363/363
f 335/335/335 336/336/336 364/364/364
f 336/336/336 365/365/365 364/364/364
f 336/336/336 337/337/337 365/365/365
f 337/337/337 366/366/366 365/365/365
f 337/337/337 338/338/338 366/366/366
f 338/338/338 367/367/367 366/366/366
f 338/338/338 339/339/339 367/367/367
f 339/339/339 368/368/368 367/367/367
f 339/339/339 340/340/340 368/368/368
f 340/340/340 369/369/369 368/368/368
f 340/340/340 341/341/341 369/369/369
f 341/341/341 370/370/370 369/369/369
f 341/341/341 342/342/342 370/370/370
f 342/342/342 371/371/371 370/370/370
f 342/342/342 343/343/343 371/371/371
f 343/343/343 372/372/372 371/371/371
f 343/343/343 344/344/344 372/372/372
f 344/344/344 373/373/373 372/372/372
f 344/344/344 345/345/345 373/373/373
f 345/345/345 374/374/374 373/373/373
f 345/345/345 346/346/346 374/374/374
f 346/346/346 375/375/375 374/374/374
f 346/346/346 347/347/347 375/375/375
f 347/347/347 376/376/376 375/375/375
f 347/347/347 348/348/348 376/376/376
f 348/348/348 377/377/377 376/376/376
f 349/349/349 350/350/350 378/378/378
f 350/350/350 379/379/379 378/378/378
f 350/350/350 351/351/351 379/379/379
f 351/351/351 380/380/380 379/379/379
f 351/351/351 352/352/352 380/380/380
f 352/352/352 381/381/381 380/380/380
f 352/352/352 353/353/353 381/381/381
f 353/353/353 382/382/382 381/381/381
f 353/353/353 354/354/354 382/382/382
f 354/354/354 383/383/383 382/382/382
f 354/354/354 355/355/355 383/383/383
f 355/355/355 384/384/384 383/383/383
f 355/355/355 356/356/356 384/384/384
f 356/356/356 385/385/385 384/384/384
f 356/356/356 357/357/357 385/385/385
f 357/357/357 386/386/386 385/385/385
f 357/357/357 358/358/358 386/386/386
f 358/358/358 387/387/387 386/386/386
f 358/358/358 359/359/359 387/387/387
f 359/359/359 388/388/388 387/387/387
f 359/359/359 360/360/360 388/388/388
f 360/360/360 389/389/389 388/388/388
f 360/360/360 361/361/361 389/389/389
f 361/361/361 390/390/390 389/389/389
f 361/361/361 362/362/362 390/390/390
f 362/362/362 391/391/391 390/390/390
f 362/362/362 363/363/363 391/391/391
f 363/363/363 392/392/392 391/391/391
f 363/363/363 364/364/364 392/392/392
f 364/364/364 393/393/393 392/392/392
f 364/364/364 365/365/365 393/393/393
f 365/365/365 394/394/394 393/393/393
f 365/365/365 366/366/366 394/394/394
f 366/366/366 395/395/395 394/394/394
f 366/366/366 367/367/367 395/395/395
f 367/367/367 396/396/396 395/395/395
f 367/367/367 368/368/368 396/396/396
f 368/368/368 397/397/397 396/396/396
f 368/368/368 369/369/369 397/397/397
f 369/369/369 398/398/398 397/397/397
f 369/369/369 370/370/370 398/398/398
f 370/370/370 399/399/399 398/398/398
f 370/370/370 371/371/371 399/399/399
f 371/371/371 400/400/400 399/399/399
f 371/371/371 372/372/372 400/400/400
f 372/372/372 401/401/401 400/400/400
f 372/372/372 373/373/373 401/401/401
f 373/373/373 402/402/402 401/401/401
f 373/373/373 374/374/374 402/402/402
f 374/374/374 403/403/403 402/402/402
f 374/374/374 375/375/375 403/403/403
f 375/375/375 404/404/404 403/403/403
f 375/375/375 376/376/376 404/404/404
f 376/376/376 405/405/405 404/404/404
f 376/376/376 377/377/377 405/405/405
f 377/377/377 406/406/406 405/405/405
f 378/378/378 379/379/379 407/407/407
f 379/379/379 408/408/408 407/407/407
f 379/379/379 380/380/380 408/408/408
f 380/380/380 409/409/409 408/408/408
f 380/380/380 381/381/381 409/409/409
f 381/381/381 410/410/410 409/409/409
f 381/381/381 382/382/382 410/410/410
f 382/382/382 411/411/411 410/410/410
f 382/382/382 383/383/383 411/411/411
f 383/383/383 412/412/412 411/411/411
f 383/383/383 384/384/384 412/412/412
f 384/384/384 413/413/413 412/412/412
f 384/384/384 385/385/385 413/413/413
f 385/385/385 414/414/414 413/413/413
f 385/385/385 386/386/386 414/414/414
f 386/386/386 415/415/415 414/414/414
f 386/386/386 387/387/387 415/415/415
f 387/387/387 416/416/416 415/415/415
f 387/387/387 388/388/388 416/416/416
f 388/388/388 417/417/417 416/416/416
f 388/388/388 389/389/389 417/417/417
f 389/389/389 418/418/418 417/417/417
f 389/389/389 390/390/390 418/418/418
f 390/390/390 419/419/419 418/418/418
f 390/390/390 391/391/391 419/419/419
f 391/391/391 420/420/420 419/419/419
f 391/391/391 392/392/392 420/420/420
f 392/392/392 421/421/421 420/420/420
f 392/392/392 393/393/393 421/421/421
f 393/393/393 422/422/422 421/421/421
f 393/393/393 394/394/394 422/422/422
f 394/394/394 423/423/423 422/422/422
f 394/394/394 395/395/395 423/423/423
f 395/395/395 424/424/424 423/423/423
f 395/395/395 396/396/396 424/424/424
f 396/396/396 425/425/425 424/424/424
f 396/396/396 397/397/397 425/425/425
f 397/397/397 426/426/426 425/425/425
f 397/397/397 398/398/398 426/426/426
f 398/398/398 427/427/427 426/426/426
f 398/398/398 399/399/399 427/427/427
f 399/399/399 428/428/428 427/427/427
f 399/399/399 400/400/400 428/428/428
f 400/400/400 429/429/429 428/428/428
f 400/400/400 401/401/401 429/429/429
f 401/401/401 430/430/430 429/429/429
f 401/401/401 402/402/402 430/430/430
f 402/402/402 431/431/431 430/430/430
f 402/402/402 403/403/403 431/431/431
f 403/403/403 432/432/432 431/431/431
f 403/403/403 404/404/404 432/432/432
f 404/404/404 433/433/433 432/432/432
f 404/404/404 405/405/405 433/433/433
f 405/405/405 434/434/434 433/433/433
f 405/405/405 406/406/406 434/434/434
f 406/406/406 435/435/435 434/434/434
f 407/407/407 408/408/408 436/436/436
f 408/408/408 437/437/437 436/436/436
f 408/408/408 409/409/409 437/437/437
f 409/409/409 438/438/438 437/437/437
f 409/409/409 410/410/410 438/438/438
f 410/410/410 439/439/439 438/438/438
f 410/410/410 411/411/411 439/439/439
f 411/411/411 440/440/440 439/439/439
f 411/411/411 412/412/412 440/440/440
f 412/412/412 441/441/441 440/440/440
f 412/412/412 413/413/413 441/441/441
f 413/413/413 442/442/442 441/441/441
f 413/413/413 414/414/414 442/442/442
f 414/414/414 443/443/443 442/442/442
f 414/414/414 415/415/415 443/443/443
f 415/415/415 444/444/444 443/443/443
f 415/415/415 416/416/416 444/444/444
f 416/416/416 445/445/445 444/444/444
f 416/416/416 417/417/417 445/445/445
f 417/417/417 446/446/446 445/445/445
f 417/417/417 418/418/418 446/446/446
f 418/418/418 447/447/447 446/446/446
f 418/418/418 419/419/419 447/447/447
f 419/419/419 448/448/448 447/447/447
f 419/419/419 420/420/420 448/448/448
f 420/420/420 449/449/449 448/448/448
f 420/420/420 421/421/421 449/449/449
f 421/421/421 450/450/450 449/449/449
f 421/421/421 422/422/422 450/450/450
f 422/422/422 451/451/451 450/450/450
f 422/422/422 423/423/423 451/451/451
f 423/423/423 452/452/452 451/451/451
f 423/423/423 424/424/424 452/452/452
f 424/424/424 453/453/453 452/452/452
f 424/424/424 425/425/425 453/453/453
f 425/425/425 454/454/454 453/453/453
f 425/425/425 426/426/426 454/454/454
f 426/426/426 455/455/455 454/454/454
f 426/426/426 427/427/427 455/455/455
f 427/427/427 456/456/456 455/455/455
f 427/427/427 428/428/428 456/456/456
f 428/428/428 457/457/457 456/456/456
f 428/428/428 429/429/429 457/457/457
f 429/429/429 458/458/458 457/457/457
f 429/429/429 430/430/430 458/458/458
f 430/430/430 459/459/459 458/458/458
f 430/430/430 431/431/431 459/459/459
f 431/431/431 460/460/460 459/459/459
f 431/431/431 432/432/432 460/460/460
f 432/432/432 461/461/461 460/460/460
f 432/432/432 433/433/433 461/461/461
f 433/433/433 462/462/462 461/461/461
f 433/433/433 434/434/434 462/462/462
f 434/434/434 463/463/463 462/462/462
f 434/434/434 435/435/435 463/463/463
f 435/435/435 464/464/464 463/463/463
f 436/436/436 437/437/437 465/465/465
f 437/437/437 466/466/466 465/465/465
f 437/437/437 438/438/438 466/466/466
f 438/438/438 467/467/467 466/466/466
f 438/438/438 439/439/439 467/467/467
f 439/439/439 468/468/468 467/467/467
f 439/439/439 440/440/440 468/468/468
f 440/440/440 469/469/469 468/468/468
f 440/440/440 441/441/441 469/469/469
f 441/441/441 470/470/470 469/469/469
f 441/441/441 442/442/442 470/470/470
f 442/442/442 471/471/471 470/470/470
f 442/442/442 443/443/443 471/471/471
f 443/443/443 472/472/472 471/471/471
f 443/443/443 444/444/444 472/472/472
f 444/444/444 473/473/473 472/472/472
f 444/444/444 445/445/445 473/473/473
f 445/445/445 474/474/474 473/473/473
f 445/445/445 446/446/446 474/474/474
f 446/446/446 475/475/475 474/474/474
f 446/446/446 447/447/447 475/475/475
f 447/447/447 476/476/476 475/475/475
f 447/447/447 448/448/448 476/476/476
f 448/448/448 477/477/477 476/476/476
f 448/448/448 449/449/449 477/477/477
f 449/449/449 478/478/478 477/477/477
f 449/449/449 450/450/450 478/478/478
f 450/450/450 479/479/479 478/478/478
f 450/450/450 451/451/451 479/479/479
f 451/451/451 480/480/480 479/479/479
f 451/451/451 452/452/452 480/480/480
f 452/452/452 481/481/481 480/480/480
f 452/452/452 453/453/453 481/481/481
f 453/453/453 482/482/482 481/481/481
f 453/453/453 454/454/454 482/482/482
f 454/454/454 483/483/483 482/482/482
f 454/454/454 455/455/455 483/483/483
f 455/455/455 484/484/484 483/483/483
f 455/455/455 456/456/456 484/484/484
f 456/456/456 485/485/485 484/484/484
f 456/456/456 457/457/457 485/485/485
f 457/457/457 486/486/486 485/485/485
f 457/457/457 458/458/458 486/486/486
f 458/458/458 487/487/487 486/486/486
f 458/458/458 459/459/459 487/487/487
f 459/459/459 488/488/488 487/487/487
f 459/459/459 460/460/460 488/488/488
f 460/460/460 489/489/489 488/488/488
f 460/460/460 461/461/461 489/489/489
f 461/461/461 490/490/490 489/489/489
f 461/461/461 462/462/462 490/490/490
f 462/462/462 491/491/491 490/490/490
f 462/462/462 463/463/463 491/491/491
f 463/463/463 492/492/492 491/491/491
f 463/463/463 464/464/464 492/492/492
f 464/464/464 493/493/493 492/492/492
f 465/465/465 466/466/466 494/494/494
f 466/466/466 495/495/495 494/494/494
f 466/466/466 467/467/467 495/495/495
f 467/467/467 496/496/496 495/495/495
f 467/467/467 468/468/468 496/496/496
f 468/468/468 497/497/497 496/496/496
f 468/468/468 469/469/469 497/497/497
f 469/469/469 498/498/498 497/497/497
f 469/469/469 470/470/470 498/498/498
f 470/470/470 499/499/499 498/498/498
f 470/470/470 471/471/471 499/499/499
f 471/471/471 500/500/500 499/499/499
f 471/471/471 472/472/472 500/500/500
f 472/472/472 501/501/501 500/500/500
f 472/472/472 473/473/473 501/501/501
f 473/473/473 502/502/502 501/501/501
f 473/473/473 474/474/474 502/502/502
f 474/474/474 503/503/503 502/502/502
f 474/474/474 475/475/475 503/503/503
f 475/475/475 504/504/504 503/503/503
f 475/475/475 476/476/476 504/504/504
f 476/476/476 505/505/505 504/504/504
f 476/476/476 477/477/477 505/505/505
f 477/477/477 506/506/506 505/505/505
f 477/477/477 478/478/478 506/506/506
f 478/478/478 507/507/507 506/506/506
f 478/478/478 479/479/479 507/507/507
f 479/479/479 508/508/508 507/507/507
f 479/479/479 480/480/480 508/508/508
f 480/480/480 509/509/509 508/508/508
f 480/480/480 481/481/481 509/509/509
f 481/481/481 510/510/510 509/509/509
f 481/481/481 482/482/482 510/510/510
f 482/482/482 511/511/511 510/510/510
f 482/482/482 483/483/483 511/511/511
f 483/483/483 512/512/512 511/511/511
f 483/483/483 484/484/484 512/512/512
f 484/484/484 513/513/513 512/512/512
f 484/484/484 485/485/485 513/513/513
f 485/485/485 514/514/514 513/513/513
f 485/485/485 486/486/486 514/514/514
f 486/486/486 515/515/515 514/514/514
f 486/486/486 487/487/487 515/515/515
f 487/487/487 516/516/516 515/515/515
f 487/487/487 488/488/488 516/516/516
f 488/488/488 517/517/517 516/516/516
f 488/488/488 489/489/489 517/517/517
f 489/489/489 518/518/518 517/517/517
f 489/489/489 490/490/490 518/518/518
f 490/490/490 519/519/519 518/518/518
f 490/490/490 491/491/491 519/519/519
f 491/491/491 520/520/520 519/519/519
f 491/491/491 492/492/492 520/520/520
f 492/492/492 521/521/521 520/520/520
f 492/492/492 493/493/493 521/521/521
f 493/493/493 522/522/522 521/521/521
f 494/494/494 495/495/495 523/523/523
f 495/495/495 524/524/524 523/523/523
f 495/495/495 496/496/496 524/524/524
f 496/496/496 525/525/525 524/524/524
f 496/496/496 497/497/497 525/525/525
f 497/497/497 526/526/526 525/525/525
f 497/497/497 498/498/498 526/526/526
f 498/498/498 527/527/527 526/526/526
f 498/498/498 499/499/499 527/527/527
f 499/499/499 528/528/528 527/527/527
f 499/499/499 500/500/500 528/528/528
f 500/500/500 529/529/529 528/528/528
f 500/500/500 501/501/501 529/529/529
f 501/501/501 530/530/530 529/529/529
f 501/501/501 502/502/502 530/530/530
f 502/502/502 531/531/531 530/530/530
f 502/502/502 503/503/503 531/531/531
f 503/503/503 532/532/532 531/531/531
f 503/503/503 504/504/504 532/532/532
f 504/504/504 533/533/533 532/532/532
f 504/504/504 505/505/505 533/533/533
f 505/505/505 534/534/534 533/533/533
f 505/505/505 506/506/506 534/534/534
f 506/506/506 535/535/535 534/534/534
f 506/506/506 507/507/507 535/535/535
f 507/507/507 536/536/536 535/535/535
f 507/507/507 508/508/508 536/536/536
f 508/508/508 537/537/537 536/536/536
f 508/508/508 509/509/509 537/537/537
f 509/509/509 538/538/538 537/537/537
f 509/509/509 510/510/510 538/538/538
f 510/510/510 539/539/539 538/538/538
f 510/510/510 511/511/511 539/539/539
f 511/511/511 540/540/540 539/539/539
f 511/511/511 512/512/512 540/540/540
f 512/512/512 541/541/541 540/540/540
f 512/512/512 513/513/513 541/541/541
f 513/513/513 542/542/542 541/541/541
f 513/513/513 514/514/514 542/542/542
f 514/514/514 543/543/543 542/542/542
f 514/514/514 515/515/515 543/543/543
f 515/515/515 544/544/544 543/543/543
f 515/515/515 516/516/516 544/544/544
f 516/516/516 545/545/545 544/544/544
f 516/516/516 517/517/517 545/545/545
f 517/517/517 546/546/546 545/545/545
f 517/517/517 518/518/518 546/546/546
f 518/518/518 547/547/547 546/546/546
f 518/518/518 519/519/519 547/547/547
f 519/519/519 548/548/548 547/547/547
f 519/519/519 520/520/520 548/548/548
f 520/520/520 549/549/549 548/548/548
f 520/520/520 521/521/521 549/549/549
f 521/521/521 550/550/550 549/549/549
f 521/521/521 522/522/522 550/550/550
f 522/522/522 551/551/551 550/550/550
