# generated by a generate_*.py
mtllib flatwoods.mtl
o flatwoods_eyes
g part0
usemtl eye
v -0.10000 2.19000 0.20500
v -0.10000 2.19000 0.20500
v -0.10000 2.19000 0.20500
v -0.10000 2.19000 0.20500
v -0.10000 2.19000 0.20500
v -0.10000 2.19000 0.20500
v -0.10000 2.19000 0.20500
v -0.10000 2.19000 0.20500
v -0.10000 2.19000 0.20500
v -0.10000 2.19000 0.20500
v -0.10000 2.19000 0.20500
v -0.10000 2.19000 0.20500
v -0.10000 2.18391 0.22031
v -0.08469 2.18391 0.21826
v -0.07349 2.18391 0.21265
v -0.06939 2.18391 0.20500
v -0.07349 2.18391 0.19735
v -0.08469 2.18391 0.19174
v -0.10000 2.18391 0.18969
v -0.11531 2.18391 0.19174
v -0.12651 2.18391 0.19735
v -0.13061 2.18391 0.20500
v -0.12651 2.18391 0.21265
v -0.11531 2.18391 0.21826
v -0.10000 2.16657 0.23328
v -0.07172 2.16657 0.22949
v -0.05101 2.16657 0.21914
v -0.04343 2.16657 0.20500
v -0.05101 2.16657 0.19086
v -0.07172 2.16657 0.18051
v -0.10000 2.16657 0.17672
v -0.12828 2.16657 0.18051
v -0.14899 2.16657 0.19086
v -0.15657 2.16657 0.20500
v -0.14899 2.16657 0.21914
v -0.12828 2.16657 0.22949
v -0.10000 2.14061 0.24196
v -0.06304 2.14061 0.23700
v -0.03599 2.14061 0.22348
v -0.02609 2.14061 0.20500
v -0.03599 2.14061 0.18652
v -0.06304 2.14061 0.17300
v -0.10000 2.14061 0.16804
v -0.13696 2.14061 0.17300
v -0.16401 2.14061 0.18652
v -0.17391 2.14061 0.20500
v -0.16401 2.14061 0.22348
v -0.13696 2.14061 0.23700
v -0.10000 2.11000 0.24500
v -0.06000 2.11000 0.23964
v -0.03072 2.11000 0.22500
v -0.02000 2.11000 0.20500
v -0.03072 2.11000 0.18500
v -0.06000 2.11000 0.17036
v -0.10000 2.11000 0.16500
v -0.14000 2.11000 0.17036
v -0.16928 2.11000 0.18500
v -0.18000 2.11000 0.20500
v -0.16928 2.11000 0.22500
v -0.14000 2.11000 0.23964
v -0.10000 2.07939 0.24196
v -0.06304 2.07939 0.23700
v -0.03599 2.07939 0.22348
v -0.02609 2.07939 0.20500
v -0.03599 2.07939 0.18652
v -0.06304 2.07939 0.17300
v -0.10000 2.07939 0.16804
v -0.13696 2.07939 0.17300
v -0.16401 2.07939 0.18652
v -0.17391 2.07939 0.20500
v -0.16401 2.07939 0.22348
v -0.13696 2.07939 0.23700
v -0.10000 2.05343 0.23328
v -0.07172 2.05343 0.22949
v -0.05101 2.05343 0.21914
v -0.04343 2.05343 0.20500
v -0.05101 2.05343 0.19086
v -0.07172 2.05343 0.18051
v -0.10000 2.05343 0.17672
v -0.12828 2.05343 0.18051
v -0.14899 2.05343 0.19086
v -0.15657 2.05343 0.20500
v -0.14899 2.05343 0.21914
v -0.12828 2.05343 0.22949
v -0.10000 2.03609 0.22031
v -0.08469 2.03609 0.21826
v -0.07349 2.03609 0.21265
v -0.06939 2.03609 0.20500
v -0.07349 2.03609 0.19735
v -0.08469 2.03609 0.19174
v -0.10000 2.03609 0.18969
v -0.11531 2.03609 0.19174
v -0.12651 2.03609 0.19735
v -0.13061 2.03609 0.20500
v -0.12651 2.03609 0.21265
v -0.11531 2.03609 0.21826
v -0.10000 2.03000 0.20500
v -0.10000 2.03000 0.20500
v -0.10000 2.03000 0.20500
v -0.10000 2.03000 0.20500
v -0.10000 2.03000 0.20500
v -0.10000 2.03000 0.20500
v -0.10000 2.03000 0.20500
v -0.10000 2.03000 0.20500
v -0.10000 2.03000 0.20500
v -0.10000 2.03000 0.20500
v -0.10000 2.03000 0.20500
v -0.10000 2.03000 0.20500
vn 0.0000 1.0000 0.0000
vn 0.0000 1.0000 0.0000
vn 0.0000 1.0000 0.0000
vn 0.0000 1.0000 0.0000
vn 0.0000 1.0000 -0.0000
vn 0.0000 1.0000 -0.0000
vn 0.0000 1.0000 -0.0000
vn -0.0000 1.0000 -0.0000
vn -0.0000 1.0000 -0.0000
vn -0.0000 1.0000 -0.0000
vn -0.0000 1.0000 0.0000
vn -0.0000 1.0000 0.0000
vn 0.0000 0.7701 0.6380
vn 0.1659 0.8013 0.5749
vn 0.3146 0.8770 0.3633
vn 0.3827 0.9239 0.0000
vn 0.3146 0.8770 -0.3633
vn 0.1659 0.8013 -0.5749
vn 0.0000 0.7701 -0.6380
vn -0.1659 0.8013 -0.5749
vn -0.3146 0.8770 -0.3633
vn -0.3827 0.9239 -0.0000
vn -0.3146 0.8770 0.3633
vn -0.1659 0.8013 0.5749
vn 0.0000 0.4472 0.8944
vn 0.2425 0.4851 0.8402
vn 0.5222 0.6030 0.6030
vn 0.7071 0.7071 0.0000
vn 0.5222 0.6030 -0.6030
vn 0.2425 0.4851 -0.8402
vn 0.0000 0.4472 -0.8944
vn -0.2425 0.4851 -0.8402
vn -0.5222 0.6030 -0.6030
vn -0.7071 0.7071 -0.0000
vn -0.5222 0.6030 0.6030
vn -0.2425 0.4851 0.8402
vn 0.0000 0.2028 0.9792
vn 0.2703 0.2239 0.9364
vn 0.6247 0.2988 0.7214
vn 0.9239 0.3827 0.0000
vn 0.6247 0.2988 -0.7214
vn 0.2703 0.2239 -0.9364
vn 0.0000 0.2028 -0.9792
vn -0.2703 0.2239 -0.9364
vn -0.6247 0.2988 -0.7214
vn -0.9239 0.3827 -0.0000
vn -0.6247 0.2988 0.7214
vn -0.2703 0.2239 0.9364
vn 0.0000 0.0000 1.0000
vn 0.2774 0.0000 0.9608
vn 0.6547 0.0000 0.7559
vn 1.0000 0.0000 0.0000
vn 0.6547 0.0000 -0.7559
vn 0.2774 0.0000 -0.9608
vn 0.0000 0.0000 -1.0000
vn -0.2774 0.0000 -0.9608
vn -0.6547 0.0000 -0.7559
vn -1.0000 0.0000 -0.0000
vn -0.6547 0.0000 0.7559
vn -0.2774 0.0000 0.9608
vn 0.0000 -0.2028 0.9792
vn 0.2703 -0.2239 0.9364
vn 0.6247 -0.2988 0.7214
vn 0.9239 -0.3827 0.0000
vn 0.6247 -0.2988 -0.7214
vn 0.2703 -0.2239 -0.9364
vn 0.0000 -0.2028 -0.9792
vn -0.2703 -0.2239 -0.9364
vn -0.6247 -0.2988 -0.7214
vn -0.9239 -0.3827 -0.0000
vn -0.6247 -0.2988 0.7214
vn -0.2703 -0.2239 0.9364
vn 0.0000 -0.4472 0.8944
vn 0.2425 -0.4851 0.8402
vn 0.5222 -0.6030 0.6030
vn 0.7071 -0.7071 0.0000
vn 0.5222 -0.6030 -0.6030
vn 0.2425 -0.4851 -0.8402
vn 0.0000 -0.4472 -0.8944
vn -0.2425 -0.4851 -0.8402
vn -0.5222 -0.6030 -0.6030
vn -0.7071 -0.7071 -0.0000
vn -0.5222 -0.6030 0.6030
vn -0.2425 -0.4851 0.8402
vn 0.0000 -0.7701 0.6380
vn 0.1659 -0.8013 0.5749
vn 0.3146 -0.8770 0.3633
vn 0.3827 -0.9239 0.0000
vn 0.3146 -0.8770 -0.3633
vn 0.1659 -0.8013 -0.5749
vn 0.0000 -0.7701 -0.6380
vn -0.1659 -0.8013 -0.5749
vn -0.3146 -0.8770 -0.3633
vn -0.3827 -0.9239 -0.0000
vn -0.3146 -0.8770 0.3633
vn -0.1659 -0.8013 0.5749
vn 0.0000 -1.0000 0.0000
vn 0.0000 -1.0000 0.0000
vn 0.0000 -1.0000 0.0000
vn 0.0000 -1.0000 0.0000
vn 0.0000 -1.0000 -0.0000
vn 0.0000 -1.0000 -0.0000
vn 0.0000 -1.0000 -0.0000
vn -0.0000 -1.0000 -0.0000
vn -0.0000 -1.0000 -0.0000
vn -0.0000 -1.0000 -0.0000
vn -0.0000 -1.0000 0.0000
vn -0.0000 -1.0000 0.0000
f 13//13 14//14 2//2 1//1
f 14//14 15//15 3//3 2//2
f 15//15 16//16 4//4 3//3
f 16//16 17//17 5//5 4//4
f 17//17 18//18 6//6 5//5
f 18//18 19//19 7//7 6//6
f 19//19 20//20 8//8 7//7
f 20//20 21//21 9//9 8//8
f 21//21 22//22 10//10 9//9
f 22//22 23//23 11//11 10//10
f 23//23 24//24 12//12 11//11
f 24//24 13//13 1//1 12//12
f 25//25 26//26 14//14 13//13
f 26//26 27//27 15//15 14//14
f 27//27 28//28 16//16 15//15
f 28//28 29//29 17//17 16//16
f 29//29 30//30 18//18 17//17
f 30//30 31//31 19//19 18//18
f 31//31 32//32 20//20 19//19
f 32//32 33//33 21//21 20//20
f 33//33 34//34 22//22 21//21
f 34//34 35//35 23//23 22//22
f 35//35 36//36 24//24 23//23
f 36//36 25//25 13//13 24//24
f 37//37 38//38 26//26 25//25
f 38//38 39//39 27//27 26//26
f 39//39 40//40 28//28 27//27
f 40//40 41//41 29//29 28//28
f 41//41 42//42 30//30 29//29
f 42//42 43//43 31//31 30//30
f 43//43 44//44 32//32 31//31
f 44//44 45//45 33//33 32//32
f 45//45 46//46 34//34 33//33
f 46//46 47//47 35//35 34//34
f 47//47 48//48 36//36 35//35
f 48//48 37//37 25//25 36//36
f 49//49 50//50 38//38 37//37
f 50//50 51//51 39//39 38//38
f 51//51 52//52 40//40 39//39
f 52//52 53//53 41//41 40//40
f 53//53 54//54 42//42 41//41
f 54//54 55//55 43//43 42//42
f 55//55 56//56 44//44 43//43
f 56//56 57//57 45//45 44//44
f 57//57 58//58 46//46 45//45
f 58//58 59//59 47//47 46//46
f 59//59 60//60 48//48 47//47
f 60//60 49//49 37//37 48//48
f 61//61 62//62 50//50 49//49
f 62//62 63//63 51//51 50//50
f 63//63 64//64 52//52 51//51
f 64//64 65//65 53//53 52//52
f 65//65 66//66 54//54 53//53
f 66//66 67//67 55//55 54//54
f 67//67 68//68 56//56 55//55
f 68//68 69//69 57//57 56//56
f 69//69 70//70 58//58 57//57
f 70//70 71//71 59//59 58//58
f 71//71 72//72 60//60 59//59
f 72//72 61//61 49//49 60//60
f 73//73 74//74 62//62 61//61
f 74//74 75//75 63//63 62//62
f 75//75 76//76 64//64 63//63
f 76//76 77//77 65//65 64//64
f 77//77 78//78 66//66 65//65
f 78//78 79//79 67//67 66//66
f 79//79 80//80 68//68 67//67
f 80//80 81//81 69//69 68//68
f 81//81 82//82 70//70 69//69
f 82//82 83//83 71//71 70//70
f 83//83 84//84 72//72 71//71
f 84//84 73//73 61//61 72//72
f 85//85 86//86 74//74 73//73
f 86//86 87//87 75//75 74//74
f 87//87 88//88 76//76 75//75
f 88//88 89//89 77//77 76//76
f 89//89 90//90 78//78 77//77
f 90//90 91//91 79//79 78//78
f 91//91 92//92 80//80 79//79
f 92//92 93//93 81//81 80//80
f 93//93 94//94 82//82 81//81
f 94//94 95//95 83//83 82//82
f 95//95 96//96 84//84 83//83
f 96//96 85//85 73//73 84//84
f 97//97 98//98 86//86 85//85
f 98//98 99//99 87//87 86//86
f 99//99 100//100 88//88 87//87
f 100//100 101//101 89//89 88//88
f 101//101 102//102 90//90 89//89
f 102//102 103//103 91//91 90//90
f 103//103 104//104 92//92 91//91
f 104//104 105//105 93//93 92//92
f 105//105 106//106 94//94 93//93
f 106//106 107//107 95//95 94//94
f 107//107 108//108 96//96 95//95
f 108//108 97//97 85//85 96//96
g part1
usemtl eye
v 0.10000 2.19000 0.20500
v 0.10000 2.19000 0.20500
v 0.10000 2.19000 0.20500
v 0.10000 2.19000 0.20500
v 0.10000 2.19000 0.20500
v 0.10000 2.19000 0.20500
v 0.10000 2.19000 0.20500
v 0.10000 2.19000 0.20500
v 0.10000 2.19000 0.20500
v 0.10000 2.19000 0.20500
v 0.10000 2.19000 0.20500
v 0.10000 2.19000 0.20500
v 0.10000 2.18391 0.22031
v 0.11531 2.18391 0.21826
v 0.12651 2.18391 0.21265
v 0.13061 2.18391 0.20500
v 0.12651 2.18391 0.19735
v 0.11531 2.18391 0.19174
v 0.10000 2.18391 0.18969
v 0.08469 2.18391 0.19174
v 0.07349 2.18391 0.19735
v 0.06939 2.18391 0.20500
v 0.07349 2.18391 0.21265
v 0.08469 2.18391 0.21826
v 0.10000 2.16657 0.23328
v 0.12828 2.16657 0.22949
v 0.14899 2.16657 0.21914
v 0.15657 2.16657 0.20500
v 0.14899 2.16657 0.19086
v 0.12828 2.16657 0.18051
v 0.10000 2.16657 0.17672
v 0.07172 2.16657 0.18051
v 0.05101 2.16657 0.19086
v 0.04343 2.16657 0.20500
v 0.05101 2.16657 0.21914
v 0.07172 2.16657 0.22949
v 0.10000 2.14061 0.24196
v 0.13696 2.14061 0.23700
v 0.16401 2.14061 0.22348
v 0.17391 2.14061 0.20500
v 0.16401 2.14061 0.18652
v 0.13696 2.14061 0.17300
v 0.10000 2.14061 0.16804
v 0.06304 2.14061 0.17300
v 0.03599 2.14061 0.18652
v 0.02609 2.14061 0.20500
v 0.03599 2.14061 0.22348
v 0.06304 2.14061 0.23700
v 0.10000 2.11000 0.24500
v 0.14000 2.11000 0.23964
v 0.16928 2.11000 0.22500
v 0.18000 2.11000 0.20500
v 0.16928 2.11000 0.18500
v 0.14000 2.11000 0.17036
v 0.10000 2.11000 0.16500
v 0.06000 2.11000 0.17036
v 0.03072 2.11000 0.18500
v 0.02000 2.11000 0.20500
v 0.03072 2.11000 0.22500
v 0.06000 2.11000 0.23964
v 0.10000 2.07939 0.24196
v 0.13696 2.07939 0.23700
v 0.16401 2.07939 0.22348
v 0.17391 2.07939 0.20500
v 0.16401 2.07939 0.18652
v 0.13696 2.07939 0.17300
v 0.10000 2.07939 0.16804
v 0.06304 2.07939 0.17300
v 0.03599 2.07939 0.18652
v 0.02609 2.07939 0.20500
v 0.03599 2.07939 0.22348
v 0.06304 2.07939 0.23700
v 0.10000 2.05343 0.23328
v 0.12828 2.05343 0.22949
v 0.14899 2.05343 0.21914
v 0.15657 2.05343 0.20500
v 0.14899 2.05343 0.19086
v 0.12828 2.05343 0.18051
v 0.10000 2.05343 0.17672
v 0.07172 2.05343 0.18051
v 0.05101 2.05343 0.19086
v 0.04343 2.05343 0.20500
v 0.05101 2.05343 0.21914
v 0.07172 2.05343 0.22949
v 0.10000 2.03609 0.22031
v 0.11531 2.03609 0.21826
v 0.12651 2.03609 0.21265
v 0.13061 2.03609 0.20500
v 0.12651 2.03609 0.19735
v 0.11531 2.03609 0.19174
v 0.10000 2.03609 0.18969
v 0.08469 2.03609 0.19174
v 0.07349 2.03609 0.19735
v 0.06939 2.03609 0.20500
v 0.07349 2.03609 0.21265
v 0.08469 2.03609 0.21826
v 0.10000 2.03000 0.20500
v 0.10000 2.03000 0.20500
v 0.10000 2.03000 0.20500
v 0.10000 2.03000 0.20500
v 0.10000 2.03000 0.20500
v 0.10000 2.03000 0.20500
v 0.10000 2.03000 0.20500
v 0.10000 2.03000 0.20500
v 0.10000 2.03000 0.20500
v 0.10000 2.03000 0.20500
v 0.10000 2.03000 0.20500
v 0.10000 2.03000 0.20500
vn 0.0000 1.0000 0.0000
vn 0.0000 1.0000 0.0000
vn 0.0000 1.0000 0.0000
vn 0.0000 1.0000 0.0000
vn 0.0000 1.0000 -0.0000
vn 0.0000 1.0000 -0.0000
vn 0.0000 1.0000 -0.0000
vn -0.0000 1.0000 -0.0000
vn -0.0000 1.0000 -0.0000
vn -0.0000 1.0000 -0.0000
vn -0.0000 1.0000 0.0000
vn -0.0000 1.0000 0.0000
vn 0.0000 0.7701 0.6380
vn 0.1659 0.8013 0.5749
vn 0.3146 0.8770 0.3633
vn 0.3827 0.9239 0.0000
vn 0.3146 0.8770 -0.3633
vn 0.1659 0.8013 -0.5749
vn 0.0000 0.7701 -0.6380
vn -0.1659 0.8013 -0.5749
vn -0.3146 0.8770 -0.3633
vn -0.3827 0.9239 -0.0000
vn -0.3146 0.8770 0.3633
vn -0.1659 0.8013 0.5749
vn 0.0000 0.4472 0.8944
vn 0.2425 0.4851 0.8402
vn 0.5222 0.6030 0.6030
vn 0.7071 0.7071 0.0000
vn 0.5222 0.6030 -0.6030
vn 0.2425 0.4851 -0.8402
vn 0.0000 0.4472 -0.8944
vn -0.2425 0.4851 -0.8402
vn -0.5222 0.6030 -0.6030
vn -0.7071 0.7071 -0.0000
vn -0.5222 0.6030 0.6030
vn -0.2425 0.4851 0.8402
vn 0.0000 0.2028 0.9792
vn 0.2703 0.2239 0.9364
vn 0.6247 0.2988 0.7214
vn 0.9239 0.3827 0.0000
vn 0.6247 0.2988 -0.7214
vn 0.2703 0.2239 -0.9364
vn 0.0000 0.2028 -0.9792
vn -0.2703 0.2239 -0.9364
vn -0.6247 0.2988 -0.7214
vn -0.9239 0.3827 -0.0000
vn -0.6247 0.2988 0.7214
vn -0.2703 0.2239 0.9364
vn 0.0000 0.0000 1.0000
vn 0.2774 0.0000 0.9608
vn 0.6547 0.0000 0.7559
vn 1.0000 0.0000 0.0000
vn 0.6547 0.0000 -0.7559
vn 0.2774 0.0000 -0.9608
vn 0.0000 0.0000 -1.0000
vn -0.2774 0.0000 -0.9608
vn -0.6547 0.0000 -0.7559
vn -1.0000 0.0000 -0.0000
vn -0.6547 0.0000 0.7559
vn -0.2774 0.0000 0.9608
vn 0.0000 -0.2028 0.9792
vn 0.2703 -0.2239 0.9364
vn 0.6247 -0.2988 0.7214
vn 0.9239 -0.3827 0.0000
vn 0.6247 -0.2988 -0.7214
vn 0.2703 -0.2239 -0.9364
vn 0.0000 -0.2028 -0.9792
vn -0.2703 -0.2239 -0.9364
vn -0.6247 -0.2988 -0.7214
vn -0.9239 -0.3827 -0.0000
vn -0.6247 -0.2988 0.7214
vn -0.2703 -0.2239 0.9364
vn 0.0000 -0.4472 0.8944
vn 0.2425 -0.4851 0.8402
vn 0.5222 -0.6030 0.6030
vn 0.7071 -0.7071 0.0000
vn 0.5222 -0.6030 -0.6030
vn 0.2425 -0.4851 -0.8402
vn 0.0000 -0.4472 -0.8944
vn -0.2425 -0.4851 -0.8402
vn -0.5222 -0.6030 -0.6030
vn -0.7071 -0.7071 -0.0000
vn -0.5222 -0.6030 0.6030
vn -0.2425 -0.4851 0.8402
vn 0.0000 -0.7701 0.6380
vn 0.1659 -0.8013 0.5749
vn 0.3146 -0.8770 0.3633
vn 0.3827 -0.9239 0.0000
vn 0.3146 -0.8770 -0.3633
vn 0.1659 -0.8013 -0.5749
vn 0.0000 -0.7701 -0.6380
vn -0.1659 -0.8013 -0.5749
vn -0.3146 -0.8770 -0.3633
vn -0.3827 -0.9239 -0.0000
vn -0.3146 -0.8770 0.3633
vn -0.1659 -0.8013 0.5749
vn 0.0000 -1.0000 0.0000
vn 0.0000 -1.0000 0.0000
vn 0.0000 -1.0000 0.0000
vn 0.0000 -1.0000 0.0000
vn 0.0000 -1.0000 -0.0000
vn 0.0000 -1.0000 -0.0000
vn 0.0000 -1.0000 -0.0000
vn -0.0000 -1.0000 -0.0000
vn -0.0000 -1.0000 -0.0000
vn -0.0000 -1.0000 -0.0000
vn -0.0000 -1.0000 0.0000
vn -0.0000 -1.0000 0.0000
f 121//121 122//122 110//110 109//109
f 122//122 123//123 111//111 110//110
f 123//123 124//124 112//112 111//111
f 124//124 125//125 113//113 112//112
f 125//125 126//126 114//114 113//113
f 126//126 127//127 115//115 114//114
f 127//127 128//128 116//116 115//115
f 128//128 129//129 117//117 116//116
f 129//129 130//130 118//118 117//117
f 130//130 131//131 119//119 118//118
f 131//131 132//132 120//120 119//119
f 132//132 121//121 109//109 120//120
f 133//133 134//134 122//122 121//121
f 134//134 135//135 123//123 122//122
f 135//135 136//136 124//124 123//123
f 136//136 137//137 125//125 124//124
f 137//137 138//138 126//126 125//125
f 138//138 139//139 127//127 126//126
f 139//139 140//140 128//128 127//127
f 140//140 141//141 129//129 128//128
f 141//141 142//142 130//130 129//129
f 142//142 143//143 131//131 130//130
f 143//143 144//144 132//132 131//131
f 144//144 133//133 121//121 132//132
f 145//145 146//146 134//134 133//133
f 146//146 147//147 135//135 134//134
f 147//147 148//148 136//136 135//135
f 148//148 149//149 137//137 136//136
f 149//149 150//150 138//138 137//137
f 150//150 151//151 139//139 138//138
f 151//151 152//152 140//140 139//139
f 152//152 153//153 141//141 140//140
f 153//153 154//154 142//142 141//141
f 154//154 155//155 143//143 142//142
f 155//155 156//156 144//144 143//143
f 156//156 145//145 133//133 144//144
f 157//157 158//158 146//146 145//145
f 158//158 159//159 147//147 146//146
f 159//159 160//160 148//148 147//147
f 160//160 161//161 149//149 148//148
f 161//161 162//162 150//150 149//149
f 162//162 163//163 151//151 150//150
f 163//163 164//164 152//152 151//151
f 164//164 165//165 153//153 152//152
f 165//165 166//166 154//154 153//153
f 166//166 167//167 155//155 154//154
f 167//167 168//168 156//156 155//155
f 168//168 157//157 145//145 156//156
f 169//169 170//170 158//158 157//157
f 170//170 171//171 159//159 158//158
f 171//171 172//172 160//160 159//159
f 172//172 173//173 161//161 160//160
f 173//173 174//174 162//162 161//161
f 174//174 175//175 163//163 162//162
f 175//175 176//176 164//164 163//163
f 176//176 177//177 165//165 164//164
f 177//177 178//178 166//166 165//165
f 178//178 179//179 167//167 166//166
f 179//179 180//180 168//168 167//167
f 180//180 169//169 157//157 168//168
f 181//181 182//182 170//170 169//169
f 182//182 183//183 171//171 170//170
f 183//183 184//184 172//172 171//171
f 184//184 185//185 173//173 172//172
f 185//185 186//186 174//174 173//173
f 186//186 187//187 175//175 174//174
f 187//187 188//188 176//176 175//175
f 188//188 189//189 177//177 176//176
f 189//189 190//190 178//178 177//177
f 190//190 191//191 179//179 178//178
f 191//191 192//192 180//180 179//179
f 192//192 181//181 169//169 180//180
f 193//193 194//194 182//182 181//181
f 194//194 195//195 183//183 182//182
f 195//195 196//196 184//184 183//183
f 196//196 197//197 185//185 184//184
f 197//197 198//198 186//186 185//185
f 198//198 199//199 187//187 186//186
f 199//199 200//200 188//188 187//187
f 200//200 201//201 189//189 188//188
f 201//201 202//202 190//190 189//189
f 202//202 203//203 191//191 190//190
f 203//203 204//204 192//192 191//191
f 204//204 193//193 181//181 192//192
f 205//205 206//206 194//194 193//193
f 206//206 207//207 195//195 194//194
f 207//207 208//208 196//196 195//195
f 208//208 209//209 197//197 196//196
f 209//209 210//210 198//198 197//197
f 210//210 211//211 199//199 198//198
f 211//211 212//212 200//200 199//199
f 212//212 213//213 201//201 200//200
f 213//213 214//214 202//202 201//201
f 214//214 215//215 203//203 202//202
f 215//215 216//216 204//204 203//203
f 216//216 205//205 193//193 204//204
