# Blender 4.0.2
# www.blender.org
mtllib pinguino_emperador.mtl
g Plane.001_Plane.001
v 4.599028 8.265931 1.628545
v 19.585529 16.264900 14.667301
v 22.987799 25.891479 19.847649
v 21.570717 47.889980 21.823345
v 18.797256 54.316372 21.957384
v 0.619234 36.865871 6.061079
v -0.404421 37.022610 5.142183
v 2.737311 43.160294 16.439285
v -6.455630 49.400959 11.705647
v -8.939215 41.073158 -0.917284
v -13.892113 57.624973 8.589957
v -20.776577 57.288860 -5.351227
v -20.949316 69.390099 -8.815065
v -17.303173 68.662506 3.154640
v -15.449711 79.859795 -12.945576
v -17.363529 76.518265 -1.803038
v -9.346947 86.686691 -14.699530
v -11.147322 83.346519 -4.618601
v -1.203517 94.335472 -13.780944
v -5.730621 87.193932 -3.116910
v 1.358763 37.312851 15.892717
v -0.907586 30.740789 5.041811
v -1.090717 22.149786 14.999655
v -3.742256 24.932241 4.324088
v -4.959336 18.655956 12.079508
v -11.210350 23.163717 8.848837
v -7.773807 15.223336 9.502750
v -15.380243 19.379635 6.890929
v -9.776752 13.163568 9.261921
v -15.903374 16.053118 6.685575
v 4.951724 99.712456 -10.069313
v 0.878368 94.251427 -3.810383
v 10.461611 103.103958 -7.177274
v 7.465503 99.902771 -4.943292
v 13.337294 103.485489 -1.958954
v 12.536221 102.058647 -0.033633
v 21.529917 98.941391 3.652514
v 16.253525 100.460945 2.208198
v 16.519279 95.118317 1.943904
v 8.213861 96.721222 -0.197216
v 17.534056 94.520630 2.815053
v 6.393570 95.432091 -0.323642
v 7.137220 89.971230 1.898781
v 3.714874 89.386993 2.714619
v -1.820662 81.610031 6.723062
v 2.192309 64.146751 21.356007
v 3.123321 61.006199 22.582647
v 12.294367 49.231239 23.779873
v 13.059959 28.794994 23.660025
v 9.094497 18.873756 19.498970
v 15.005547 9.659802 18.974812
v 8.256820 13.969133 18.272467
v 5.761491 11.831227 17.932905
v 1.015571 8.362086 7.701350
v -0.033442 15.677897 14.679396
v -15.445019 59.784557 6.366771
v -0.830460 77.989937 10.596433
v 13.051844 65.454422 17.773489
v 11.656805 75.390419 9.650126
v 10.598469 80.820221 5.413939
v 11.084551 89.670464 2.198608
v 16.731241 92.033661 2.297956
v 14.075727 92.849564 -4.824851
v 21.977638 98.875664 2.638930
v -12.455559 78.572556 -16.684029
v 15.529289 103.114212 -4.582346
v 11.979445 103.131401 -9.502798
v 5.744781 101.018600 -11.308578
v -7.333168 15.105953 -2.885178
v -3.588776 12.544840 -1.636724
v -7.089080 18.481319 -2.088583
v -18.658306 67.571434 -12.415132
v -5.535849 22.656525 -0.915408
v -1.604584 24.934963 1.217297
v 1.998918 31.349171 0.797520
v -5.676203 40.372833 -4.808865
v -17.624357 55.189529 -9.264162
v 0.256014 94.711472 -15.325855
v -7.784530 85.682533 -17.742952
v 2.591106 36.469193 0.698594
v 3.405591 37.422390 2.606897
v 18.852627 9.779005 12.534573
v 9.991541 8.698304 -6.658039
v 23.006308 9.757387 5.360287
v 23.897947 15.136984 7.511398
v 26.704033 23.902946 14.404938
v 24.187822 44.922558 19.393604
v 21.211258 52.026318 19.460474
v 16.421171 62.787579 13.980396
v 15.070864 72.625198 5.490431
v 14.531595 78.552345 1.644306
v 15.308804 88.176048 -1.400923
v -9.158121 76.546959 -21.354900
v 8.165511 100.287193 -14.662898
v -0.915758 14.689949 -12.603828
v 2.762916 12.830107 -10.833549
v -0.823863 17.927481 -11.199234
v -14.582750 65.000137 -17.555218
v 0.467181 22.733873 -8.657294
v 4.138488 24.810734 -5.927341
v 5.943066 31.624159 -2.508382
v -1.136191 41.073841 -8.407389
v -11.710964 52.430836 -14.116236
v 1.965725 95.610909 -18.454384
v -4.383931 84.048012 -20.790607
v 6.645242 37.037838 -1.841415
v 7.016208 38.682396 0.378610
v 14.649555 10.242927 -13.411166
v 26.965229 10.640003 -1.802359
v 27.910257 15.216714 1.263435
v 30.748898 23.080603 9.540663
v 28.483221 42.528515 16.514309
v 25.008526 50.144413 16.766029
v 12.921286 42.383858 -5.097862
v 13.254320 43.264759 -4.953519
v 22.814688 41.467464 -4.135270
v 16.554493 47.554527 -9.382199
v 7.277134 43.390171 -13.638881
v 10.950041 54.199299 -13.039788
v -2.099760 52.857845 -21.309916
v -5.179404 62.635883 -25.330282
v 4.829318 65.491638 -22.194054
v -0.587352 78.026169 -32.139893
v 6.811888 74.877197 -31.052584
v 2.964011 83.782928 -27.812923
v 11.035597 81.793007 -30.573942
v 6.560863 96.445686 -22.852972
v 12.786322 79.838379 -23.356882
v 21.807814 36.882332 -7.172930
v 11.490782 34.325298 -9.282682
v 20.447254 23.914150 -14.878942
v 10.547142 27.157478 -13.422610
v 16.569513 22.263128 -18.957851
v 10.085503 27.511507 -20.873405
v 13.670565 20.244469 -22.209333
v 6.579747 24.509384 -24.959402
v 12.409000 18.165693 -24.284719
v 6.527334 21.461817 -26.683968
v 12.422506 98.982063 -20.120743
v 15.558222 85.601509 -20.036760
v 17.170824 102.535713 -15.401096
v 18.659357 96.804932 -15.511460
v 21.852673 101.061531 -9.770588
v 22.772898 98.643112 -9.115842
v 24.380283 97.929565 1.124795
v 23.855585 97.768997 -4.498306
v 20.940760 93.495438 -1.760800
v 20.365982 92.260811 -10.379322
v 21.406494 93.099258 -0.429613
v 19.888973 90.374443 -11.723757
v 19.618517 83.583664 -9.776893
v 19.488312 80.619438 -12.882318
v 15.526892 70.159027 -12.375700
v 22.153776 49.027767 5.516088
v 32.420506 36.640831 7.040218
v 32.138329 25.131689 -2.001673
v 28.494347 18.589500 -9.223724
v 31.210152 12.237187 -7.388113
v 27.847864 15.398106 -11.742693
v 27.225780 14.248405 -14.697677
v 18.225149 11.949510 -18.296856
v 21.548628 18.633928 -16.990372
v 21.121626 51.865479 3.872229
v 8.476103 56.935856 -17.571289
v 15.847347 65.213348 -8.864773
v 20.578403 59.344620 11.019176
v 18.619003 69.781799 1.525293
v 18.445539 76.072990 -2.229046
v 19.717190 86.070457 -5.311824
v 20.012117 90.829422 -0.451043
v 23.453800 98.352913 1.326667
v -4.638562 76.925102 -28.071320
v 19.342117 102.236618 -8.103346
v 15.222429 102.880005 -13.662614
v 11.496641 100.390968 -19.240841
v 4.287296 17.345367 -18.777016
v 7.791133 14.801947 -17.711069
v 4.338874 20.423710 -17.086010
v -9.440842 62.499012 -22.334620
v 5.403830 24.283665 -14.423897
v 8.836008 26.351559 -11.204720
v 8.407898 33.358562 -6.132497
v 3.763651 42.038132 -11.719851
v -6.573433 51.927238 -18.014612
v 3.964720 96.601082 -21.932354
v -0.721302 83.421799 -25.342266
v 9.571142 38.921181 -4.539662
v 9.594534 40.661972 -2.641737
v 17.584089 91.462608 -0.030116
v 22.586603 98.628746 1.798097
v 17.535395 103.139450 -6.402159
v 13.388817 103.447357 -11.686794
v 8.258411 99.918915 -14.648119
v -12.500685 87.627144 -1.054864
v -12.621902 85.625938 -0.427101
v -18.697779 84.004868 0.775268
v -19.511250 86.312065 0.076521
v 9.473972 88.739128 -30.594599
v 8.723114 86.444702 -29.875677
v 10.428526 81.845963 -35.290199
v 11.583313 83.940727 -36.635010
v -9.739218 99.216179 24.462799
v -1.266891 103.979462 35.790833
v 5.512072 106.703621 41.936043
v 5.427427 108.010056 45.337708
v 10.448080 111.714775 50.662529
v -14.164865 95.930092 19.491138
v -19.646168 89.366768 6.248426
v 31.604773 112.042084 44.283951
v 30.208923 111.305183 34.672836
v 19.525955 108.282265 23.878330
v 16.615793 107.321907 22.034824
v 6.302076 102.890503 14.366396
v -5.404761 97.179695 5.818010
v -9.280626 91.955627 2.666823
v -10.216597 88.679939 2.073946
v -11.171705 85.959145 0.922517
v -1.001147 102.426987 36.553551
v -9.351963 96.822739 25.259954
v 5.179546 105.567642 42.095428
v 10.761177 111.683197 50.558861
v 5.433798 107.596367 45.377403
v -13.198120 94.061111 19.940117
v -18.889095 87.793373 6.644039
v 30.233719 110.757164 34.450516
v 31.726265 111.814514 44.378189
v 16.876747 105.650871 22.895002
v 20.703392 107.808388 25.027378
v 6.475853 100.862183 15.186079
v -4.671165 95.228462 6.894141
v -8.171917 88.894379 6.594520
v -9.235712 85.136803 4.651026
v -11.031422 83.609512 2.318085
v -16.725477 81.823860 1.108255
v -17.718466 84.139328 0.405087
v 37.298462 74.286621 -25.792662
v 48.708385 69.685455 -20.782053
v 55.787609 69.286491 -17.967094
v 59.051117 68.951775 -19.251034
v 66.443604 69.980522 -17.125229
v 32.178051 76.084534 -28.691313
v 18.569427 81.250565 -34.461369
v 66.431984 70.190887 9.358314
v 59.423729 77.710091 8.799033
v 47.672806 82.975067 0.374519
v 45.192894 83.463326 -2.110296
v 34.926277 85.774826 -11.475012
v 23.446939 87.795906 -20.030502
v 14.916790 90.584190 -25.916136
v 12.047173 90.150124 -28.732281
v 9.732489 88.876228 -30.506201
v 48.149227 68.385841 -20.390427
v 36.394711 72.289780 -24.647951
v 55.035812 68.408936 -17.898251
v 66.438110 70.045403 -16.853508
v 58.823978 68.547798 -18.910179
v 31.168905 74.539505 -27.590864
v 17.750776 79.880157 -33.557266
v 58.852722 77.583252 9.018917
v 66.356316 70.046822 9.518250
v 44.474087 81.954056 -1.411517
v 48.295620 81.999680 1.537559
v 33.920429 83.842003 -10.265314
v 22.396976 86.256569 -18.941116
v 13.731911 88.613914 -24.616911
v 10.333967 87.406975 -26.949053
v 8.908163 86.587387 -29.795116
v 10.440325 81.952232 -35.247375
v 11.652262 84.063698 -36.577919
v 21.378023 99.006966 3.817717
v 16.084682 100.561119 2.339635
v 16.519281 95.118317 1.943903
v 17.534056 94.520630 2.815052
v 16.731241 92.033661 2.297956
v 14.075727 92.849564 -4.824851
v 25.999771 96.779137 8.545292
v 18.318602 96.178833 3.247391
v 21.824266 98.939064 2.817538
v 17.142591 96.567856 -2.825331
v 26.769741 96.377754 8.091932
v 22.179756 98.474030 1.672595
v 24.998119 95.771126 8.589322
v 23.114851 93.870697 7.629795
v 23.585789 91.733292 7.014200
v 24.187874 97.993919 1.409676
v 23.658928 97.804741 -4.076870
v 20.940760 93.495438 -1.760799
v 21.406492 93.099258 -0.429612
v 26.418304 92.643471 9.996027
v 20.012117 90.829422 -0.451043
v 28.311758 92.430099 11.796661
v 27.342085 96.295456 7.412975
v 22.504597 94.649879 -0.278122
v 23.280731 98.415619 1.564035
v 17.584089 91.462608 -0.030116
v 17.113514 96.578529 -2.800969
v 26.704000 96.401947 8.166601
v 22.132542 98.491516 1.720898
v 22.442806 98.684769 1.979587
v 27.050642 95.030807 6.846165
v 25.043514 93.162781 6.013792
v 2.976350 11.348843 1.405717
v 13.552803 6.968193 6.412292
v 14.865562 12.807935 16.278872
v 8.190976 15.682131 15.173496
v 11.577370 6.627422 11.749865
v 6.190765 13.714155 15.120556
v 1.438108 10.422259 5.643842
v -0.008955 16.572653 12.119251
v 1.288051 5.322418 7.130348
v 11.314846 4.431154 10.873225
v 2.256072 1.294493 7.880550
v 12.364378 0.551766 10.698131
v 15.409763 2.975264 11.768744
v 18.271271 1.009790 11.951893
v 17.997187 12.817314 9.910015
v 0.389616 6.080758 3.576336
v 11.269966 5.372972 6.793265
v 1.679241 2.494490 3.632327
v 12.216835 1.585123 6.481691
v 15.644547 3.744895 7.757507
v 18.465242 1.649934 8.748659
v 7.898703 11.566918 -7.349282
v 21.972834 12.971883 3.190092
v 12.568727 13.505955 -15.184994
v 23.465460 9.796968 -9.114593
v 25.908546 14.579659 -2.996091
v 29.691481 16.891003 -8.661777
v 24.964350 20.162640 -13.644444
v 26.842043 11.887849 -13.529934
v 24.549881 18.798409 -16.368261
v 15.756859 14.988553 -19.845459
v 18.170992 21.353979 -19.910179
v 17.647663 6.888827 -22.633219
v 27.088707 6.518295 -16.672186
v 19.705545 3.059957 -23.359888
v 28.634079 2.381345 -16.873447
v 30.881416 4.730290 -14.468003
v 33.399242 2.490523 -12.882000
v 15.157869 5.746158 -19.418869
v 24.570610 5.247502 -12.628611
v 16.794424 1.652388 -19.407297
v 25.760763 1.198571 -13.513903
v 28.353464 3.394557 -10.979942
v 31.292625 1.557486 -10.263527
v 16.003702 8.128651 -3.204701
v 16.342039 102.129631 -7.658385
v 13.863653 110.453423 -5.211270
v 16.011383 101.828636 -7.002811
v 13.549070 110.148430 -4.550035
v 15.551546 101.514915 -6.434579
v 13.105957 109.828682 -3.975064
v 14.979460 101.200699 -5.975708
v 12.551300 109.506477 -3.508404
v 14.316284 100.898262 -5.644167
v 11.906429 109.194252 -3.168016
v 13.586405 100.619446 -5.453073
v 11.196152 108.903893 -2.966997
v 12.799471 100.365128 -5.409706
v 10.447756 108.646614 -2.913059
v 11.990820 100.154442 -5.518759
v 9.689981 108.432327 -3.008261
v 11.200583 100.003174 -5.777307
v 8.951943 108.269272 -3.248941
v 10.458900 99.917595 -6.175752
v 8.262048 108.163643 -3.625876
v 9.806473 99.903557 -6.696953
v 7.646759 108.119560 -4.124579
v 9.269201 99.957939 -7.319090
v 7.129778 108.138702 -4.725874
v 8.861122 100.074371 -8.017817
v 6.730891 108.220322 -5.406642
v 8.604025 100.245346 -8.763494
v 6.465502 108.361313 -6.140734
v 8.510429 100.459824 -9.524817
v 6.343781 108.556221 -6.899953
v 8.584816 100.705460 -10.270439
v 6.370404 108.797600 -7.655094
v 8.820700 100.971107 -10.971808
v 6.544347 109.076126 -8.377153
v 9.201622 101.248383 -11.604572
v 6.858924 109.381081 -9.038392
v 9.707547 101.531029 -12.147697
v 7.302050 109.700851 -9.613386
v 10.314367 101.813004 -12.583641
v 7.856707 110.023033 -10.080047
v 10.997717 102.086372 -12.897155
v 8.501571 110.335304 -10.420408
v 11.734406 102.343040 -13.076578
v 9.211843 110.625641 -10.621430
v 12.500658 102.578369 -13.116334
v 9.960249 110.882896 -10.675390
v 13.267565 102.778915 -13.012718
v 10.718027 111.097191 -10.580184
v 14.008799 102.935776 -12.768433
v 11.456059 111.260292 -10.339484
v 14.698101 103.041290 -12.391584
v 12.145967 111.365852 -9.962542
v 15.306952 103.078659 -11.891392
v 12.761240 111.409981 -9.463841
v 15.815113 103.054688 -11.290044
v 13.278252 111.390823 -8.862565
v 16.204624 102.973335 -10.611639
v 13.677107 111.309189 -8.181784
v 16.460278 102.835899 -9.881480
v 13.942492 111.168198 -7.447694
v 16.570822 102.644470 -9.126533
v 14.064236 110.973289 -6.688464
v 16.531155 102.405922 -8.375783
v 14.037621 110.731949 -5.933317
v 17.068346 102.196693 -7.347701
v 14.366199 111.278465 -4.685773
v 16.687569 101.857727 -6.568554
v 13.989393 110.913155 -3.893713
v 16.149860 101.495110 -5.890676
v 13.458599 110.530121 -3.204976
v 15.473692 101.123833 -5.341187
v 12.794199 110.144196 -2.646025
v 14.682405 100.759560 -4.942423
v 12.021778 109.770172 -2.238283
v 13.803045 100.417862 -4.711220
v 11.170969 109.422409 -1.997493
v 12.869001 100.116150 -4.658529
v 10.274517 109.114235 -1.932887
v 11.884300 99.855659 -4.789335
v 9.366829 108.857567 -2.046909
v 10.887484 99.660645 -5.104857
v 8.482790 108.662209 -2.335239
v 9.916206 99.550270 -5.598438
v 7.656406 108.535713 -2.786751
v 9.063065 99.545250 -6.245312
v 6.919388 108.482880 -3.384096
v 8.347181 99.636909 -7.019843
v 6.300108 108.505829 -4.104329
v 7.792986 99.816399 -7.890634
v 5.822342 108.603600 -4.919798
v 7.431701 100.068916 -8.818258
v 5.520133 108.781860 -5.799607
v 7.285118 100.371811 -9.759285
v 5.392237 109.024109 -6.708664
v 7.385676 100.690865 -10.660879
v 5.446222 109.320244 -7.611109
v 7.753677 100.989204 -11.471521
v 5.671908 109.654358 -8.472067
v 8.322329 101.268631 -12.178618
v 6.059777 110.014557 -9.259136
v 9.015793 101.548126 -12.781484
v 6.585889 110.387558 -9.944478
v 9.800442 101.833412 -13.266008
v 7.274761 110.764824 -10.493656
v 10.651394 102.119240 -13.614939
v 8.060043 111.125198 -10.892105
v 11.548811 102.394447 -13.811678
v 8.920603 111.456322 -11.123014
v 12.468727 102.646393 -13.845230
v 9.821831 111.746254 -11.178242
v 13.385386 102.872086 -13.714993
v 10.724469 111.987076 -11.058224
v 14.267653 103.051544 -13.419921
v 11.595169 112.171875 -10.768318
v 15.086603 103.176468 -12.969475
v 12.401943 112.295387 -10.320188
v 15.813660 103.238762 -12.378802
v 13.119997 112.349495 -9.727964
v 16.422457 103.232338 -11.668556
v 13.718040 112.336281 -9.017224
v 16.889288 103.152489 -10.863866
v 14.177952 112.251190 -8.211783
v 17.193001 102.993797 -9.992542
v 14.478802 112.101852 -7.345404
v 17.326210 102.775810 -9.093168
v 14.612391 111.888000 -6.447801
v 17.284027 102.506676 -8.200135
v 14.574541 111.612061 -5.550673
v 16.492348 101.506920 -7.832557
v 16.157806 101.205551 -7.177752
v 15.695576 100.893951 -6.611035
v 15.121542 100.582581 -6.153939
v 14.457430 100.283958 -5.824349
v 13.732687 100.013000 -5.635581
v 12.921469 99.749100 -5.593680
v 12.099199 99.538475 -5.706020
v 11.292198 99.387856 -5.968915
v 10.530000 99.303993 -6.373051
v 9.864071 99.295158 -6.899867
v 9.296953 99.353699 -7.531008
v 8.855721 99.476768 -8.240722
v 8.549431 99.656372 -9.002120
v 8.421013 99.879890 -9.775894
v 8.499681 100.128311 -10.521749
v 8.772202 100.387482 -11.211387
v 9.207851 100.652466 -11.825462
v 9.766193 100.924080 -12.351019
v 10.413630 101.200996 -12.774888
v 11.117301 101.469971 -13.081558
v 11.865442 101.721275 -13.255827
v 12.639765 101.950768 -13.290997
v 13.413515 102.149071 -13.184712
v 14.159634 102.305183 -12.938914
v 14.851353 102.408577 -12.560526
v 15.463312 102.451393 -12.062067
v 15.971729 102.428093 -11.460943
v 16.365959 102.357826 -10.786429
v 16.622837 102.223740 -10.057511
v 16.733305 102.033768 -9.303223
v 16.691248 101.793663 -8.552347
v 17.223494 101.579536 -7.523225
v 16.826088 101.222321 -6.739796
v 16.275097 100.851219 -6.061282
v 15.582289 100.484879 -5.511307
v 14.794319 100.120834 -5.118532
v 13.917271 99.789772 -4.891612
v 12.959044 99.483376 -4.842628
v 11.976450 99.234879 -4.978332
v 11.007898 99.058815 -5.295655
v 10.091003 98.965492 -5.783922
v 9.275827 98.962631 -6.422626
v 8.569536 99.046799 -7.191487
v 7.996326 99.217308 -8.062777
v 7.569702 99.469017 -9.005692
v 7.363902 99.777748 -9.963564
v 7.473407 100.091576 -10.860691
v 7.856218 100.386497 -11.666214
v 8.451513 100.664894 -12.366450
v 9.166456 100.951614 -12.967420
v 9.967237 101.254944 -13.456273
v 10.818193 101.562233 -13.814911
v 11.712128 101.851822 -14.018998
v 12.632322 102.113304 -14.056802
v 13.552881 102.344261 -13.928015
v 14.442589 102.534821 -13.636175
v 15.266726 102.658859 -13.184097
v 15.996237 102.709686 -12.587634
v 16.604118 102.684380 -11.869062
v 17.069010 102.588211 -11.057413
v 17.372431 102.422546 -10.183034
v 17.503632 102.196022 -9.280280
v 17.453938 101.911407 -8.382032
v 18.340733 102.482658 -6.732910
v 17.833574 102.028015 -5.716680
v 17.128033 101.553017 -4.835461
v 16.246367 101.071877 -4.122530
v 15.219875 100.604408 -3.606392
v 14.085884 100.170784 -3.308487
v 12.883450 99.789360 -3.242055
v 11.619476 99.464775 -3.414587
v 10.360281 99.234253 -3.826349
v 9.163692 99.119316 -4.465049
v 8.100345 99.131485 -5.303392
v 7.173773 99.272850 -6.319306
v 6.405772 99.553764 -7.484212
v 5.784432 99.998383 -8.779106
v 5.426604 100.573471 -10.124552
v 5.442815 101.180954 -11.411308
v 6.182096 101.428268 -12.338804
v 7.081157 101.623550 -13.143553
v 8.051107 101.853783 -13.850466
v 9.067900 102.160217 -14.451909
v 10.144416 102.514145 -14.904594
v 11.282858 102.864273 -15.163640
v 12.457081 103.184601 -15.209185
v 13.629492 103.465561 -15.038861
v 14.761765 103.690544 -14.655034
v 15.815014 103.844818 -14.068542
v 16.750982 103.912712 -13.297011
v 17.534481 103.890549 -12.369411
v 18.132912 103.765694 -11.315857
v 18.523573 103.551765 -10.180797
v 18.692194 103.260490 -9.009233
v 18.631445 102.900955 -7.845440
v 11.464376 102.100784 -15.414181
v 6.537497 98.784477 -7.744075
v 16.455948 100.290024 -4.358008
v 18.747599 102.787483 -10.420794
v 10.319246 101.749847 -15.156372
v 7.331046 98.504417 -6.573411
v 17.341438 100.772003 -5.070410
v 18.355755 103.002960 -11.556823
v 9.226471 101.385345 -14.702805
v 8.270500 98.363327 -5.554532
v 9.338824 98.349640 -4.714312
v 17.755970 103.131783 -12.612483
v 16.968803 103.156212 -13.541991
v 18.051008 101.249825 -5.951951
v 18.561583 101.708267 -6.969069
v 8.179735 101.068840 -14.103979
v 7.190122 100.814369 -13.390809
v 15.426687 99.823875 -3.843134
v 14.289259 99.391884 -3.546786
v 13.068314 99.005333 -3.482491
v 11.798889 98.685585 -3.658519
v 10.536438 98.460388 -4.073485
v 5.879675 99.225029 -9.045867
v 5.550328 99.756813 -10.364917
v 5.705243 100.235565 -11.560072
v 6.322060 100.565056 -12.554163
v 12.646872 102.421600 -15.457951
v 13.827801 102.704712 -15.286577
v 14.967834 102.932877 -14.902308
v 16.027742 103.088562 -14.314877
v 18.916376 102.493385 -9.247895
v 18.854218 102.129517 -8.082477
vn -0.6411 -0.5853 0.4963
vn -0.6906 -0.5338 0.4880
vn -0.8022 -0.4372 0.4067
vn -0.9354 0.0217 0.3529
vn -0.9312 0.3407 0.1298
vn -0.7247 0.6834 0.0883
vn -0.6547 0.7360 0.1722
vn -0.9717 0.2276 0.0627
vn -0.9573 0.2275 0.1786
vn -0.2746 0.7681 0.5785
vn -0.4492 -0.1215 0.8852
vn -0.3200 0.0718 0.9447
vn -0.7079 0.6894 0.1536
vn -0.6016 0.7528 0.2671
vn -0.6004 0.7477 0.2838
vn 0.0569 0.8265 0.5600
vn -0.3214 0.0843 0.9432
vn -0.6912 0.5452 0.4744
vn -0.1848 0.4281 0.8846
vn -0.1393 0.3569 0.9237
vn -0.4955 0.6788 0.5419
vn -0.5259 0.5564 0.6434
vn -0.2838 -0.5667 0.7735
vn -0.5402 -0.1750 0.8231
vn -0.5220 -0.1270 0.8435
vn -0.5326 0.5812 0.6153
vn -0.6124 0.3112 0.7267
vn -0.8028 0.2246 -0.5523
vn 0.8148 0.3393 0.4700
vn -0.7167 0.4480 -0.5344
vn -0.6948 -0.6313 -0.3447
vn -0.5438 -0.6662 -0.5104
vn -0.4092 -0.8715 -0.2702
vn -0.7494 -0.2762 -0.6018
vn -0.0199 -0.1000 0.9948
vn 0.7684 -0.0332 0.6391
vn 0.3958 -0.7074 0.5855
vn 0.6256 -0.5646 0.5384
vn -0.6070 0.5554 -0.5684
vn 0.8127 -0.2931 0.5036
vn -0.3413 0.8997 -0.2722
vn -0.6081 0.3693 -0.7028
vn 0.4347 -0.8132 0.3869
vn -0.3548 -0.8936 -0.2750
vn -0.0331 0.9978 0.0568
vn -0.7184 0.1826 -0.6712
vn 0.7817 0.4308 0.4509
vn -0.3033 0.9114 -0.2781
vn 0.7043 0.1842 0.6856
vn 0.3403 0.9039 0.2591
vn -0.5970 0.3677 -0.7130
vn 0.8091 0.4398 0.3897
vn -0.7521 0.1589 -0.6396
vn -0.1496 -0.9057 -0.3967
vn -0.6706 0.4138 -0.6157
vn 0.7921 0.5212 0.3176
vn -0.5287 0.7876 -0.3164
vn -0.7857 0.3127 -0.5337
vn -0.8388 -0.1802 -0.5138
vn -0.6712 0.7346 -0.0993
vn 0.1979 -0.9695 0.1445
vn -0.7658 0.4153 -0.4910
vn -0.7633 0.1724 -0.6227
vn -0.4402 0.8965 0.0500
vn -0.3711 0.8914 -0.2602
vn -0.6869 0.4099 -0.6000
vn 0.0242 0.9984 -0.0512
vn -0.4085 -0.8911 -0.1977
vn -0.3527 -0.9273 -0.1253
vn -0.6013 0.6271 -0.4951
vn -0.5826 0.6602 -0.4741
vn 0.3897 0.9043 0.1742
vn -0.4035 -0.8873 -0.2231
vn 0.1811 0.6320 0.7535
vn -0.4167 -0.0647 0.9067
vn -0.5798 -0.0071 0.8147
vn -0.5234 -0.2672 0.8091
vn 0.2266 0.4360 0.8710
vn -0.5064 -0.0440 0.8612
vn -0.2267 -0.1997 0.9533
vn 0.6243 0.0743 0.7777
vn 0.2253 -0.4879 0.8433
vn 0.2809 -0.0329 0.9592
vn -0.6097 -0.1516 0.7780
vn 0.1513 0.1563 0.9760
vn 0.1573 0.6786 0.7175
vn 0.1573 0.3617 0.9189
vn 0.0823 0.3843 0.9195
vn -0.5780 0.5172 0.6312
vn 0.9053 0.2972 -0.3035
vn 0.8460 -0.3557 0.3972
vn -0.0487 -0.6168 -0.7856
vn 0.5287 -0.4298 -0.7319
vn 0.5343 -0.2789 -0.7979
vn 0.3863 -0.2735 -0.8809
vn 0.1864 -0.5600 -0.8073
vn 0.0138 0.3471 -0.9377
vn 0.5171 0.5173 -0.6819
vn 0.0936 0.4802 -0.8722
vn 0.0450 0.5027 -0.8633
vn 0.4495 0.8530 -0.2651
vn 0.5363 0.4011 -0.7426
vn 0.5332 0.4113 -0.7393
vn 0.4618 0.1564 -0.8731
vn 0.6211 0.1514 -0.7690
vn 0.7890 0.1943 -0.5829
vn 0.9213 0.3702 -0.1188
vn 0.8848 -0.4555 -0.0984
vn 0.8477 -0.2245 -0.4807
vn 0.9946 -0.0043 -0.1037
vn 0.9940 -0.0649 -0.0881
vn 0.9107 -0.0661 -0.4078
vn 0.8820 0.0197 -0.4708
vn 0.6244 -0.0254 -0.7807
vn 0.5640 0.3750 -0.7357
vn 0.5756 0.4043 -0.7108
vn 0.7897 -0.3941 -0.4702
vn 0.8151 -0.1201 -0.5668
vn -0.7836 0.2877 -0.5506
vn 0.6378 0.2639 0.7236
vn -0.7376 0.4835 -0.4713
vn -0.2295 -0.7123 -0.6633
vn -0.3877 -0.7122 -0.5852
vn -0.2913 -0.8066 -0.5144
vn -0.6589 -0.3809 -0.6486
vn 0.8741 -0.4007 0.2744
vn 0.6421 -0.1466 0.7525
vn 0.2118 -0.6398 0.7388
vn 0.6008 -0.6404 0.4784
vn -0.7405 0.4469 -0.5019
vn 0.8053 -0.3849 0.4510
vn -0.4242 0.8977 -0.1189
vn -0.6763 0.5382 -0.5029
vn 0.7592 -0.5365 0.3684
vn -0.2791 -0.8630 -0.4210
vn 0.2661 0.9566 -0.1190
vn -0.9695 0.1318 -0.2068
vn 0.7855 0.3593 0.5039
vn -0.3424 0.8977 -0.2774
vn 0.7162 0.1388 0.6839
vn 0.4974 0.8547 0.1485
vn -0.8316 0.3294 -0.4471
vn 0.7689 0.4899 0.4108
vn -0.7586 0.0605 -0.6487
vn -0.0182 -0.8942 -0.4473
vn -0.7840 0.3798 -0.4911
vn 0.6943 0.5687 0.4410
vn -0.4531 0.8813 -0.1343
vn -0.6915 0.4137 -0.5922
vn -0.4853 -0.4493 -0.7501
vn -0.0475 0.7062 -0.7064
vn 0.6866 -0.5975 0.4142
vn -0.7487 0.3802 -0.5431
vn -0.6320 -0.1229 -0.7652
vn 0.0366 0.8485 -0.5280
vn -0.4934 0.8689 0.0405
vn -0.5619 0.6425 -0.5211
vn 0.2898 0.9559 -0.0470
vn -0.2505 -0.8063 -0.5359
vn 0.4419 -0.7561 -0.4828
vn -0.7939 0.6033 -0.0757
vn -0.4452 0.4019 -0.8002
vn 0.4799 0.8657 0.1421
vn -0.2893 -0.7877 -0.5439
vn 0.9738 0.1099 -0.1992
vn 0.6921 0.4330 -0.5775
vn 0.7515 0.3564 -0.5551
vn 0.7555 0.5399 -0.3712
vn 0.9307 0.2724 -0.2442
vn 0.6851 0.3236 -0.6526
vn 0.8426 0.2180 -0.4924
vn 0.9407 0.1165 0.3187
vn 0.9179 -0.3965 -0.0154
vn 0.9637 -0.0714 0.2573
vn 0.8396 0.3603 -0.4065
vn 0.8199 0.5540 -0.1444
vn 0.9708 -0.0987 -0.2186
vn 0.9032 -0.3287 0.2759
vn 0.9719 -0.2240 -0.0719
vn 0.7102 -0.3763 -0.5949
vn -0.2386 0.7170 0.6550
vn 0.1450 -0.0984 0.9845
vn -0.0998 -0.3074 -0.9463
vn -0.8813 0.1765 -0.4383
vn 0.9074 -0.1119 -0.4051
vn -0.7626 -0.0538 0.6446
vn 0.6465 -0.2511 -0.7204
vn -0.7081 0.2448 0.6624
vn -0.1215 -0.5838 0.8027
vn 0.0717 -0.6641 0.7442
vn 0.4054 -0.7907 0.4588
vn 0.3586 -0.9177 0.1710
vn 0.3284 -0.9267 0.1828
vn 0.3344 -0.9210 0.1997
vn 0.1626 -0.9541 0.2514
vn -0.8183 0.0890 0.5678
vn 0.6444 -0.2042 -0.7370
vn -0.8227 -0.2923 0.4876
vn 0.5854 -0.3094 -0.7494
vn 0.8608 -0.1616 -0.4826
vn 0.2578 0.4004 0.8793
vn -0.4561 -0.4385 0.7744
vn -0.9165 -0.3956 0.0597
vn 0.9645 0.2086 -0.1618
vn -0.1571 0.9638 -0.2153
vn -0.9778 0.1964 -0.0732
vn 0.2516 -0.9512 0.1789
vn 0.6782 0.1443 -0.7206
vn 0.7523 -0.3059 -0.5835
vn -0.2660 0.9567 -0.1187
vn -0.3034 0.9402 -0.1550
vn -0.3573 0.9159 -0.1831
vn -0.4619 0.8238 -0.3287
vn -0.2667 0.5339 -0.8024
vn -0.2188 0.9669 -0.1315
vn -0.5700 0.6656 0.4818
vn 0.2023 -0.5999 -0.7740
vn -0.4577 0.5954 0.6603
vn 0.3202 -0.3766 -0.8693
vn -0.2294 -0.8147 0.5326
vn -0.3434 -0.7443 0.5728
vn -0.5023 -0.7226 0.4749
vn -0.5223 -0.7140 0.4663
vn -0.4714 -0.7441 0.4734
vn -0.2545 -0.8208 0.5113
vn -0.3886 -0.9090 0.1509
vn 0.1698 -0.4772 -0.8622
vn -0.3681 0.6549 0.6600
vn 0.1057 -0.6075 -0.7872
vn -0.5370 0.5190 0.6650
vn -0.7512 0.5555 0.3565
vn 0.7094 -0.7048 0.0041
vn 0.2578 -0.8835 -0.3912
vn 0.0327 -0.5533 -0.8323
vn 0.3403 0.3883 0.8564
vn 0.4284 0.8912 -0.1491
vn -0.3106 -0.0659 -0.9483
vn -0.4079 -0.8450 0.3458
vn -0.1070 0.7756 0.6221
vn -0.2768 0.6549 0.7032
vn 0.3446 0.8024 -0.4872
vn 0.5296 0.7164 -0.4542
vn 0.4994 0.7185 -0.4841
vn 0.5121 0.7038 -0.4923
vn 0.3948 0.7154 -0.5764
vn 0.4617 0.8263 -0.3227
vn 0.3526 0.9310 0.0941
vn 0.4424 0.8966 0.0205
vn -0.5079 0.5342 0.6758
vn -0.2481 0.0736 0.9659
vn 0.8006 -0.1567 -0.5784
vn -0.1554 -0.6504 0.7436
vn 0.1647 0.9702 -0.1776
vn -0.5347 0.4320 0.7263
vn 0.6063 0.6571 0.4479
vn -0.3813 0.4149 0.8261
vn -0.0587 -0.9377 -0.3425
vn 0.8053 -0.5610 -0.1919
vn 0.4611 -0.8754 -0.1454
vn -0.6192 -0.5010 0.6046
vn 0.7053 0.5552 -0.4407
vn -0.6773 -0.5071 0.5331
vn 0.5430 0.3407 -0.7675
vn 0.6489 -0.0516 -0.7591
vn 0.6278 0.3400 -0.7002
vn 0.4258 0.9042 0.0321
vn 0.3295 0.9371 0.1149
vn 0.8409 0.0479 -0.5391
vn 0.9051 -0.4189 -0.0728
vn -0.7154 0.3109 0.6258
vn 0.4341 -0.8731 0.2219
vn 0.2111 0.9532 -0.2164
vn 0.8497 -0.1771 -0.4966
vn 0.6228 0.6500 0.4354
vn 0.9529 -0.0897 -0.2898
vn -0.7002 -0.6820 0.2114
vn -0.4534 -0.1106 0.8844
vn -0.5047 -0.4365 0.7448
vn 0.4064 -0.8775 -0.2547
vn -0.2429 0.9032 0.3538
vn 0.3439 -0.8819 -0.3225
vn -0.6123 0.7648 0.2005
vn -0.7709 0.4695 0.4305
vn -0.5587 0.7755 0.2940
vn -0.1623 -0.4015 0.9014
vn -0.5521 -0.6620 0.5069
vn 0.2950 0.9334 0.2044
vn 0.8212 -0.5633 0.0916
vn 0.5440 0.8168 0.1919
vn -0.4180 0.0991 0.9030
vn -0.2218 -0.1471 0.9639
vn -0.3105 -0.0101 0.9505
vn -0.9688 0.2465 -0.0263
vn 0.1049 -0.9703 -0.2182
vn -0.0075 -0.9670 -0.2545
vn -0.9558 -0.2715 0.1126
vn 0.2788 0.1176 -0.9531
vn 0.3012 0.0832 -0.9499
vn 0.2160 -0.4712 -0.8552
vn -0.2984 -0.9353 -0.1900
vn 0.6159 -0.7669 0.1805
vn 0.7061 -0.6465 0.2887
vn 0.8381 0.1831 -0.5139
vn 0.4330 -0.1964 -0.8798
vn 0.1993 0.8771 0.4370
vn 0.8392 -0.2195 0.4976
vn 0.3424 0.7658 0.5444
vn 0.5180 0.4122 -0.7495
vn 0.6000 0.2150 -0.7705
vn 0.5416 0.3348 -0.7711
vn -0.8150 0.0261 -0.5789
vn 0.1791 -0.9649 -0.1923
vn 0.1129 -0.9613 -0.2512
vn -0.7175 -0.2769 -0.6392
vn -0.5555 -0.2770 0.7841
vn -0.4789 -0.3590 0.8011
vn -0.5227 -0.5609 0.6420
vn -0.1463 -0.9175 -0.3699
vn 0.5212 -0.8090 0.2720
vn 0.7241 -0.6502 0.2303
vn 0.8695 0.1169 0.4799
vn 0.7729 0.0410 0.6332
vn 0.6465 -0.0363 0.7621
vn 0.4953 -0.1122 0.8615
vn 0.3251 -0.1835 0.9277
vn 0.1431 -0.2473 0.9583
vn -0.0428 -0.3002 0.9529
vn -0.2279 -0.3405 0.9122
vn -0.4048 -0.3666 0.8377
vn -0.5698 -0.3779 0.7298
vn -0.7136 -0.3738 0.5925
vn -0.8283 -0.3548 0.4336
vn -0.9122 -0.3213 0.2543
vn -0.9595 -0.2748 0.0619
vn -0.9665 -0.2177 -0.1357
vn -0.9325 -0.1533 -0.3271
vn -0.8610 -0.0856 -0.5013
vn -0.7578 -0.0167 -0.6522
vn -0.6294 0.0516 -0.7754
vn -0.4801 0.1185 -0.8692
vn -0.3140 0.1826 -0.9317
vn -0.1380 0.2414 -0.9606
vn 0.0446 0.2936 -0.9549
vn 0.2269 0.3365 -0.9139
vn 0.4020 0.3679 -0.8385
vn 0.5677 0.3858 -0.7272
vn 0.7083 0.3878 -0.5899
vn 0.8207 0.3749 -0.4311
vn 0.9023 0.3475 -0.2550
vn 0.9496 0.3061 -0.0676
vn -0.2937 0.9135 0.2816
vn 0.9599 0.2522 0.1226
vn 0.9327 0.1881 0.3078
vn 0.8721 0.1201 0.4743
vn 0.7752 0.0442 0.6302
vn 0.6482 -0.0339 0.7607
vn 0.4964 -0.1108 0.8610
vn 0.3260 -0.1831 0.9275
vn 0.1439 -0.2477 0.9581
vn -0.0410 -0.3011 0.9527
vn -0.2226 -0.3405 0.9135
vn -0.3953 -0.3642 0.8433
vn -0.5636 -0.3719 0.7376
vn -0.7086 -0.3631 0.6051
vn -0.8264 -0.3381 0.4502
vn -0.9176 -0.2948 0.2666
vn -0.9685 -0.2379 0.0736
vn -0.9759 -0.1668 -0.1405
vn -0.9276 -0.0887 -0.3630
vn -0.8374 -0.0233 -0.5461
vn -0.7327 0.0271 -0.6800
vn -0.5976 0.0850 -0.7973
vn -0.4564 0.1391 -0.8789
vn -0.2948 0.1950 -0.9354
vn -0.1208 0.2483 -0.9611
vn 0.0556 0.2950 -0.9539
vn 0.2351 0.3344 -0.9126
vn 0.4076 0.3632 -0.8378
vn 0.5674 0.3798 -0.7306
vn 0.7068 0.3827 -0.5950
vn 0.8208 0.3708 -0.4345
vn 0.9043 0.3433 -0.2538
vn 0.9505 0.3030 -0.0683
vn -0.2909 0.9163 0.2754
vn 0.9605 0.2512 0.1194
vn 0.9343 0.1898 0.3018
vn 0.8308 0.3361 -0.4436
vn 0.3059 -0.9234 -0.2317
vn -0.6080 0.1721 -0.7751
vn -0.2727 0.9011 0.3372
vn -0.5890 -0.3069 0.7476
vn 0.3380 -0.9013 -0.2709
vn -0.2740 0.9003 0.3382
vn 0.7238 0.3437 -0.5984
vn 0.8750 0.0744 0.4784
vn 0.2002 -0.9123 -0.3572
vn -0.7428 0.1867 -0.6429
vn 0.1092 -0.9519 -0.2862
vn -0.4168 -0.3240 0.8493
vn -0.2689 0.9013 0.3397
vn -0.2112 0.9305 0.2993
vn 0.5815 0.3419 -0.7383
vn 0.3113 -0.9202 -0.2373
vn -0.8572 0.2136 -0.4685
vn -0.2553 0.9058 0.3381
vn -0.2386 -0.3208 0.9166
vn -0.2051 0.9369 0.2833
vn 0.3378 -0.8975 -0.2836
vn 0.4146 0.3279 -0.8489
vn -0.2468 0.9086 0.3370
vn -0.9402 0.2187 -0.2611
vn 0.1609 -0.9230 -0.3496
vn -0.0527 -0.2971 0.9534
vn -0.2042 0.9421 0.2658
vn 0.2391 0.3066 -0.9213
vn -0.2314 0.9164 0.3265
vn 0.1478 -0.9543 -0.2598
vn -0.9847 0.1682 -0.0453
vn -0.2534 0.9108 0.3261
vn -0.2392 0.9178 0.3168
vn -0.2312 0.9201 0.3163
vn -0.2241 0.9242 0.3092
vn -0.2161 0.9276 0.3047
vn -0.2070 0.9356 0.2862
vn -0.2057 0.9416 0.2667
vn -0.2108 0.9449 0.2503
vn -0.2247 0.9455 0.2358
vn -0.2321 0.9449 0.2311
vn -0.2435 0.9452 0.2174
vn -0.2556 0.9442 0.2079
vn -0.2657 0.9430 0.2002
vn -0.2666 0.9428 0.2002
vn -0.2639 0.9418 0.2083
vn -0.2595 0.9407 0.2185
vn -0.2505 0.9406 0.2292
vn -0.2260 0.9437 0.2414
vn -0.1899 0.9480 0.2552
vn -0.1550 0.9500 0.2712
vn -0.1372 0.9469 0.2908
vn -0.1402 0.9416 0.3062
vn -0.1626 0.9339 0.3184
vn -0.1951 0.9276 0.3187
vn -0.2258 0.9215 0.3160
vn -0.2473 0.9152 0.3182
vn -0.2605 0.9102 0.3219
vn -0.2687 0.9066 0.3255
vn -0.2737 0.9039 0.3287
vn -0.2751 0.9024 0.3316
vn -0.2733 0.9015 0.3355
vn -0.2546 0.9077 0.3335
vn -0.2074 0.9455 0.2510
vn 0.7754 0.0027 0.6314
vn 0.3154 -0.9177 -0.2415
vn -0.7351 -0.2652 0.6239
vn -0.2262 0.9206 0.3182
vn -0.4602 0.1836 -0.8686
vn -0.2145 0.9477 0.2365
vn 0.9121 0.3154 -0.2617
vn 0.3392 -0.8940 -0.2929
vn 0.6455 -0.0687 0.7607
vn -0.2183 0.9256 0.3092
vn -0.8546 -0.1906 0.4830
vn 0.1025 -0.9350 -0.3394
vn -0.2950 0.2138 -0.9313
vn -0.2247 0.9495 0.2188
vn 0.9588 0.2753 -0.0708
vn 0.4908 -0.1374 0.8604
vn 0.1813 -0.9541 -0.2385
vn -0.9396 -0.0817 0.3323
vn -0.2348 0.9504 0.2042
vn -0.1211 0.2462 -0.9616
vn -0.2482 0.9490 0.1945
vn 0.9678 0.2198 0.1227
vn 0.3178 -0.2005 0.9267
vn 0.3389 -0.8905 -0.3037
vn -0.9858 0.0551 0.1583
vn 0.3214 -0.9146 -0.2454
vn 0.0588 0.2777 -0.9589
vn 0.0258 -0.9422 -0.3340
vn 0.9388 0.1476 0.3113
vn 0.1345 -0.2574 0.9569
vn -0.2598 0.9459 0.1942
vn 0.1133 -0.2839 0.9521
vn 0.8992 0.2540 -0.3564
vn -0.4909 0.1296 -0.8615
vn -0.9524 -0.2983 0.0626
vn 0.2836 -0.2392 0.9286
vn 0.8225 0.3132 -0.4747
vn -0.6448 0.0549 -0.7623
vn -0.9062 -0.3431 0.2473
vn 0.4322 -0.1940 0.8807
vn 0.7138 0.3513 -0.6058
vn -0.7736 -0.0228 -0.6333
vn -0.8246 -0.3755 0.4233
vn 0.5333 -0.1698 0.8287
vn 0.5782 0.3669 -0.7287
vn -0.7066 -0.3941 0.5877
vn -0.8711 -0.0999 -0.4809
vn 0.6046 -0.1553 0.7813
vn -0.9624 -0.2408 -0.1256
vn -0.3182 0.1987 -0.9270
vn 0.9671 0.1879 -0.1714
vn -0.0597 -0.3229 0.9445
vn -0.9347 -0.1733 -0.3103
vn -0.1339 0.2597 -0.9564
vn 0.9726 0.1809 0.1462
vn -0.2344 -0.3571 0.9042
vn 0.0527 0.3068 -0.9503
vn 0.8068 0.0612 0.5877
vn -0.4051 -0.3828 0.8303
vn 0.2364 0.3417 -0.9096
vn 0.6903 -0.0957 0.7172
vn -0.5662 -0.3959 0.7229
vn 0.4124 0.3626 -0.8357
vn 0.0566 -0.9452 -0.3215
vn -0.2667 0.9032 0.3362
vn 0.2334 -0.9036 -0.3592
vn -0.2576 0.9064 0.3347
vn 0.3354 -0.9055 -0.2600
vn -0.2406 0.9105 0.3362
vn 0.2979 -0.9276 -0.2255
vn -0.0016 -0.9337 -0.3582
vn -0.2115 0.9150 0.3435
vn 0.2682 -0.8959 -0.3540
vn -0.1651 0.9172 0.3626
vn 0.3296 -0.9098 -0.2523
vn -0.1161 0.9226 0.3679
vn 0.2859 -0.9327 -0.2200
vn -0.0522 -0.9186 -0.3917
vn -0.0739 0.9357 0.3451
vn 0.2949 -0.8914 -0.3442
vn -0.0519 0.9521 0.3015
vn -0.0685 0.9618 0.2651
vn 0.2731 -0.9373 -0.2165
vn -0.1188 0.9629 0.2424
vn -0.0865 -0.9334 -0.3482
vn 0.3164 -0.8886 -0.3320
vn -0.1836 0.9551 0.2324
vn -0.2319 0.9458 0.2273
vn 0.2480 -0.9442 -0.2168
vn -0.2472 0.9441 0.2181
vn -0.0448 -0.9399 -0.3386
vn 0.3304 -0.8885 -0.3184
vn -0.2534 0.9444 0.2093
vn -0.2598 0.9444 0.2016
vn 0.2155 -0.9506 -0.2235
vt 0.427222 0.354391
vt 0.471487 0.405945
vt 0.468148 0.432431
vt 0.416937 0.429385
vt 0.422411 0.303804
vt 0.482409 0.340578
vt 0.431214 0.283088
vt 0.485377 0.262748
vt 0.421416 0.231899
vt 0.476039 0.216108
vt 0.423102 0.193352
vt 0.460317 0.166536
vt 0.405342 0.152709
vt 0.445044 0.122162
vt 0.382279 0.128846
vt 0.416386 0.066139
vt 0.456008 0.489343
vt 0.414783 0.462263
vt 0.449911 0.534682
vt 0.398333 0.545202
vt 0.467915 0.558495
vt 0.418982 0.569310
vt 0.485377 0.587861
vt 0.433866 0.591240
vt 0.481338 0.606714
vt 0.438893 0.608100
vt 0.362726 0.085488
vt 0.378926 0.026437
vt 0.342837 0.028025
vt 0.350803 0.000000
vt 0.303456 0.014489
vt 0.310960 0.002639
vt 0.328235 0.765697
vt 0.315717 0.788806
vt 0.294924 0.813031
vt 0.322644 0.757310
vt 0.316461 0.050569
vt 0.275495 0.046384
vt 0.278325 0.019143
vt 0.322919 0.060216
vt 0.267423 0.048368
vt 0.318087 0.104648
vt 0.307861 0.092308
vt 0.382069 0.610004
vt 0.381955 0.574165
vt 0.315389 0.173873
vt 0.288605 0.322893
vt 0.302403 0.219740
vt 0.783796 0.004651
vt 0.783822 0.023571
vt 0.748015 0.020142
vt 0.747988 0.000941
vt 0.608720 0.325926
vt 0.608840 0.359171
vt 0.573025 0.358071
vt 0.572905 0.324826
vt 0.783813 0.049818
vt 0.748004 0.050852
vt 0.801260 0.264938
vt 0.801273 0.342882
vt 0.776981 0.344624
vt 0.776967 0.266680
vt 0.748098 0.345827
vt 0.748084 0.267881
vt 0.051529 0.727542
vt 0.051529 0.703244
vt 0.087339 0.703239
vt 0.087339 0.727637
vt 0.776911 0.391202
vt 0.748028 0.392078
vt 0.587295 0.000000
vt 0.626205 0.045899
vt 0.607681 0.037660
vt 0.584970 0.014302
vt 0.609113 0.435031
vt 0.573298 0.433931
vt 0.571867 0.036560
vt 0.571791 0.015560
vt 0.609295 0.485658
vt 0.573481 0.484558
vt 0.776719 0.483998
vt 0.766159 0.540288
vt 0.747590 0.541340
vt 0.747834 0.485509
vt 0.609417 0.519291
vt 0.573602 0.518183
vt 0.783682 0.071962
vt 0.747873 0.073077
vt 0.776796 0.440640
vt 0.747913 0.441176
vt 0.774403 0.175996
vt 0.774424 0.202548
vt 0.748013 0.202319
vt 0.747992 0.175768
vt 0.051528 0.780403
vt 0.087339 0.780225
vt 0.305331 0.716627
vt 0.303434 0.753159
vt 0.287424 0.751828
vt 0.289901 0.713663
vt 0.835437 0.000000
vt 0.835464 0.018920
vt 0.607877 0.091951
vt 0.608166 0.172213
vt 0.572351 0.171113
vt 0.572062 0.090851
vt 0.319462 0.691962
vt 0.291290 0.688835
vt 0.289605 0.810023
vt 0.283748 0.808476
vt 0.774323 0.118884
vt 0.747912 0.118655
vt 0.608449 0.250688
vt 0.572634 0.249587
vt 0.775457 0.584271
vt 0.747149 0.580523
vt 0.801088 0.115712
vt 0.801168 0.172824
vt 0.801203 0.389460
vt 0.781441 0.538042
vt 0.784535 0.577489
vt 0.801189 0.199376
vt 0.801049 0.070254
vt 0.801088 0.438898
vt 0.328235 0.697422
vt 0.320880 0.720256
vt 0.835339 0.048110
vt 0.796793 0.482956
vt 0.022930 0.780753
vt 0.000000 0.727892
vt 0.000000 0.688613
vt 0.660664 0.170704
vt 0.660055 0.272111
vt 0.328809 0.566808
vt 0.331809 0.542921
vt 0.336754 0.581465
vt 0.319511 0.489860
vt 0.307242 0.413818
vt 0.293086 0.341310
vt 0.660123 0.290879
vt 0.285643 0.572048
vt 0.655301 0.495589
vt 0.647365 0.520491
vt 0.660664 0.441324
vt 0.660388 0.364434
vt 0.245113 0.378827
vt 0.256087 0.411155
vt 0.249855 0.223970
vt 0.270566 0.141342
vt 0.647990 0.788116
vt 0.658566 0.719139
vt 0.658566 0.805285
vt 0.290932 0.084835
vt 0.422063 0.839141
vt 0.412408 0.871376
vt 0.407613 0.826264
vt 0.422142 0.831780
vt 0.188345 0.334519
vt 0.177643 0.259515
vt 0.226933 0.255861
vt 0.230419 0.282351
vt 0.241704 0.347720
vt 0.183827 0.385149
vt 0.245113 0.425584
vt 0.192740 0.405849
vt 0.236050 0.472279
vt 0.183244 0.457096
vt 0.220626 0.521928
vt 0.185148 0.495660
vt 0.205393 0.566319
vt 0.167205 0.536277
vt 0.176260 0.622264
vt 0.144302 0.560226
vt 0.175303 0.226626
vt 0.214480 0.198955
vt 0.158396 0.143692
vt 0.208130 0.153610
vt 0.178887 0.119507
vt 0.227835 0.130174
vt 0.193632 0.097517
vt 0.245113 0.100738
vt 0.198559 0.080633
vt 0.240970 0.081887
vt 0.139245 0.662149
vt 0.124482 0.603540
vt 0.110981 0.688613
vt 0.103759 0.660813
vt 0.071387 0.686150
vt 0.064155 0.674398
vt 0.245113 0.761079
vt 0.251748 0.753371
vt 0.272063 0.811761
vt 0.254553 0.785408
vt 0.038425 0.669676
vt 0.034743 0.642260
vt 0.077333 0.638351
vt 0.026548 0.640271
vt 0.084025 0.628750
vt 0.068800 0.596688
vt 0.079840 0.584525
vt 0.141868 0.114765
vt 0.140533 0.078605
vt 0.077649 0.515487
vt 0.064466 0.469647
vt 0.050040 0.366468
vt 0.712176 0.004651
vt 0.712203 0.023571
vt 0.537099 0.326147
vt 0.537219 0.359392
vt 0.712193 0.049818
vt 0.694902 0.264938
vt 0.719212 0.266680
vt 0.719226 0.344624
vt 0.694916 0.342882
vt 0.123150 0.727542
vt 0.123150 0.703244
vt 0.719156 0.391202
vt 0.556175 0.000096
vt 0.558603 0.014383
vt 0.536060 0.037881
vt 0.517597 0.046234
vt 0.537492 0.435252
vt 0.537674 0.485879
vt 0.718964 0.483998
vt 0.729037 0.540288
vt 0.537795 0.519512
vt 0.712062 0.071962
vt 0.719041 0.440640
vt 0.721645 0.175996
vt 0.721666 0.202548
vt 0.123150 0.780403
vt 0.274198 0.714897
vt 0.271357 0.751377
vt 0.660763 0.000000
vt 0.660790 0.018920
vt 0.536256 0.092172
vt 0.536545 0.172434
vt 0.263358 0.688845
vt 0.291732 0.688859
vt 0.277733 0.809363
vt 0.721565 0.118884
vt 0.536828 0.250908
vt 0.747592 0.580523
vt 0.719253 0.584271
vt 0.694730 0.115712
vt 0.694811 0.172824
vt 0.694846 0.389460
vt 0.713739 0.538041
vt 0.710111 0.577489
vt 0.694831 0.199376
vt 0.694692 0.070254
vt 0.694731 0.438898
vt 0.253942 0.693294
vt 0.258292 0.716778
vt 0.660664 0.048110
vt 0.698803 0.482956
vt 0.151748 0.780753
vt 0.174679 0.727892
vt 0.174678 0.688612
vt 0.009094 0.464892
vt 0.000000 0.385212
vt 0.088513 0.122219
vt 0.096717 0.107613
vt 0.091647 0.146110
vt 0.068141 0.275434
vt 0.079965 0.199312
vt 0.054412 0.348027
vt 0.485445 0.291418
vt 0.485377 0.272650
vt 0.044923 0.117006
vt 0.491742 0.496094
vt 0.499856 0.520946
vt 0.485987 0.441863
vt 0.485710 0.364973
vt 0.003474 0.309964
vt 0.014253 0.277584
vt 0.030257 0.547501
vt 0.233102 0.800398
vt 0.243678 0.783229
vt 0.243678 0.869375
vt 0.050926 0.603976
vt 0.482731 0.721107
vt 0.482517 0.727844
vt 0.467940 0.733252
vt 0.473134 0.688835
vt 0.625780 0.810342
vt 0.642050 0.809921
vt 0.642050 0.853510
vt 0.627643 0.850008
vt 0.642050 0.852893
vt 0.643920 0.813482
vt 0.658313 0.809921
vt 0.658313 0.853264
vt 0.992455 0.347152
vt 1.000000 0.368337
vt 0.978240 0.367630
vt 0.976853 0.346905
vt 0.817341 0.814735
vt 0.804549 0.814799
vt 0.802729 0.780721
vt 0.817254 0.781862
vt 0.985645 0.140974
vt 0.997023 0.139953
vt 1.000000 0.212903
vt 0.985259 0.213872
vt 0.817259 0.706970
vt 0.807522 0.705891
vt 0.810041 0.658236
vt 0.816818 0.656258
vt 0.880011 0.368276
vt 0.871681 0.347540
vt 0.935454 0.385356
vt 0.892610 0.381771
vt 0.949357 0.344757
vt 0.963959 0.261445
vt 0.869372 0.290816
vt 0.967320 0.227215
vt 0.857417 0.213649
vt 0.976853 0.152020
vt 0.842551 0.141302
vt 0.970715 0.104560
vt 0.835464 0.116818
vt 0.965213 0.030827
vt 0.976853 0.081706
vt 0.836019 0.044174
vt 0.873797 0.000000
vt 0.997411 0.290460
vt 0.984652 0.290258
vt 0.817142 0.897477
vt 0.806264 0.897532
vt 0.985673 0.122437
vt 0.990830 0.115096
vt 0.999613 0.382339
vt 0.985005 0.382315
vt 0.658035 0.616339
vt 0.657910 0.617338
vt 0.658035 0.700895
vt 0.656395 0.700796
vt 0.817045 0.635669
vt 0.813970 0.635595
vt 0.816463 0.584333
vt 0.816411 0.584271
vt 0.817341 0.937557
vt 0.801067 0.937639
vt 0.990727 0.000484
vt 0.992345 0.000000
vt 0.990055 0.042526
vt 0.986706 0.041015
vt 0.660664 0.663729
vt 0.673629 0.612991
vt 0.765285 0.584271
vt 0.801067 0.627068
vt 0.668569 0.684768
vt 0.801067 0.708662
vt 0.795833 0.726925
vt 0.661664 0.735199
vt 0.778704 0.798950
vt 0.668778 0.810588
vt 0.763306 0.874578
vt 0.669551 0.843555
vt 0.682475 0.927112
vt 0.759466 0.931229
vt 0.750436 0.951436
vt 0.742368 0.965562
vt 0.695251 0.967932
vt 0.992455 0.420543
vt 0.976853 0.420790
vt 0.978240 0.400065
vt 1.000000 0.399359
vt 0.833614 0.706736
vt 0.833527 0.739569
vt 0.819003 0.740677
vt 0.820822 0.706665
vt 0.985645 0.626721
vt 0.985259 0.553824
vt 1.000000 0.554792
vt 0.997023 0.627743
vt 0.833532 0.814300
vt 0.833089 0.865057
vt 0.826312 0.863048
vt 0.823795 0.815340
vt 0.880011 0.402437
vt 0.892610 0.388942
vt 0.871681 0.423173
vt 0.949357 0.425955
vt 0.963959 0.509268
vt 0.869372 0.479896
vt 0.967320 0.543497
vt 0.857417 0.557063
vt 0.976853 0.618692
vt 0.842551 0.629411
vt 0.970715 0.666153
vt 0.835464 0.653895
vt 0.965213 0.739885
vt 0.873797 0.770713
vt 0.836019 0.726539
vt 0.976853 0.689007
vt 0.984652 0.477437
vt 0.997411 0.477235
vt 0.833416 0.624237
vt 0.822538 0.624177
vt 0.985673 0.645258
vt 0.990830 0.652599
vt 0.985005 0.385380
vt 0.999613 0.385356
vt 0.660664 0.771799
vt 0.659030 0.689279
vt 0.660664 0.689211
vt 0.660544 0.770798
vt 0.833317 0.885524
vt 0.832681 0.937031
vt 0.832732 0.936983
vt 0.830241 0.885598
vt 0.833614 0.584362
vt 0.817341 0.584271
vt 0.990727 0.767211
vt 0.986706 0.726680
vt 0.990055 0.725169
vt 0.992345 0.767695
vt 0.485377 0.920543
vt 0.625780 0.957203
vt 0.589998 1.000000
vt 0.498342 0.971280
vt 0.493282 0.899504
vt 0.486377 0.849072
vt 0.620546 0.857347
vt 0.625780 0.875609
vt 0.493491 0.773684
vt 0.603417 0.785321
vt 0.494264 0.740717
vt 0.588019 0.709693
vt 0.507188 0.657159
vt 0.584179 0.653043
vt 0.575149 0.632836
vt 0.519964 0.616339
vt 0.567081 0.618709
vt 0.286661 0.850523
vt 0.280876 0.851224
vt 0.440658 0.828610
vt 0.460011 0.781705
vt 0.448420 0.826756
vt 0.440704 0.765727
vt 0.437782 0.790770
vt 0.658471 0.687828
vt 0.660664 0.616339
vt 0.369544 0.833164
vt 0.383346 0.833703
vt 0.387862 0.795138
vt 0.387862 0.843487
vt 0.353588 0.798210
vt 0.353588 0.842628
vt 0.338929 0.795138
vt 0.279346 0.876324
vt 0.460011 0.854929
vt 0.480638 0.794577
vt 0.483957 0.823225
vt 0.483957 0.869508
vt 0.467940 0.862662
vt 0.369544 0.819701
vt 0.353588 0.847023
vt 0.353739 0.795138
vt 0.369544 0.858498
vt 0.641147 0.698660
vt 0.639274 0.649196
vt 0.653062 0.719139
vt 0.244742 0.688612
vt 0.244742 0.733262
vt 0.239982 0.695211
vt 0.625780 0.660978
vt 0.632797 0.616339
vt 0.410994 0.786815
vt 0.422142 0.788401
vt 0.417314 0.765757
vt 0.275419 0.849898
vt 0.281072 0.851235
vt 0.628634 0.745797
vt 0.636380 0.747768
vt 0.647990 0.793179
vt 0.628599 0.809921
vt 0.625780 0.783919
vt 0.485377 0.688835
vt 0.485377 0.761705
vt 0.483184 0.690216
vt 0.387862 0.805461
vt 0.406181 0.795138
vt 0.406181 0.843487
vt 0.401665 0.804923
vt 0.328235 0.804911
vt 0.647990 0.719139
vt 0.927466 0.845644
vt 0.914769 0.777559
vt 0.930785 0.770713
vt 0.930785 0.816996
vt 0.422142 0.790475
vt 0.437720 0.765757
vt 0.437720 0.817021
vt 0.422467 0.829326
vt 0.656395 0.696086
vt 0.239982 0.733262
vt 0.235221 0.726664
vt 0.239982 0.688612
vt 0.656395 0.655811
vt 0.471424 0.773123
vt 0.482731 0.771907
vt 0.477871 0.794577
vt 0.305135 0.626706
vt 0.174679 0.824552
vt 0.177168 0.800170
vt 0.203856 0.801771
vt 0.203891 0.824552
vt 0.638853 0.577184
vt 0.643295 0.615911
vt 0.614105 0.614723
vt 0.609617 0.574985
vt 0.181255 0.783229
vt 0.201790 0.785431
vt 0.381785 0.660367
vt 0.315531 0.664793
vt 0.309843 0.688835
vt 0.273138 0.688397
vt 0.290254 0.676051
vt 0.375070 0.683672
vt 0.439497 0.742335
vt 0.439486 0.691971
vt 0.467940 0.688835
vt 0.464399 0.740271
vt 0.202261 0.688612
vt 0.204219 0.722575
vt 0.177174 0.724354
vt 0.181608 0.689405
vt 0.204950 0.783229
vt 0.174679 0.783229
vt 0.437782 0.765727
vt 0.467940 0.763400
vt 0.407613 0.782843
vt 0.383166 0.791278
vt 0.381840 0.727547
vt 0.407613 0.723949
vt 0.393118 0.704968
vt 0.404531 0.688835
vt 0.328235 0.795138
vt 0.339148 0.723769
vt 0.051529 0.851668
vt 0.087339 0.834069
vt 0.573785 0.569054
vt 0.063611 0.062143
vt 0.233102 0.824552
vt 0.203925 0.801771
vt 0.230613 0.800170
vt 0.508776 0.577585
vt 0.537996 0.575206
vt 0.533795 0.614971
vt 0.504614 0.616339
vt 0.205991 0.785431
vt 0.226526 0.783229
vt 0.074014 0.024059
vt 0.140121 0.028253
vt 0.068107 0.000000
vt 0.048622 0.012855
vt 0.031273 0.000513
vt 0.133449 0.004997
vt 0.409395 0.712233
vt 0.434312 0.714319
vt 0.437782 0.765757
vt 0.409328 0.762596
vt 0.207639 0.688612
vt 0.228292 0.689405
vt 0.232726 0.724354
vt 0.205681 0.722575
vt 0.235221 0.783229
vt 0.407613 0.688835
vt 0.437782 0.691188
vt 0.914769 0.782631
vt 0.914769 0.841543
vt 0.889012 0.838025
vt 0.890310 0.774129
vt 0.900276 0.860544
vt 0.911659 0.876523
vt 0.846380 0.842116
vt 0.835464 0.770713
vt 0.123150 0.851668
vt 0.851978 0.256946
vt 0.851978 0.000000
vt 0.873521 0.000000
vt 0.873521 0.256946
vt 0.896392 0.000000
vt 0.896392 0.256946
vt 0.919710 0.000001
vt 0.919709 0.256945
vt 0.942580 0.000000
vt 0.942580 0.256946
vt 0.964123 0.000000
vt 0.964123 0.256946
vt 0.983511 0.000000
vt 0.983511 0.256945
vt 1.000000 0.000000
vt 1.000000 0.256946
vt 0.972371 0.297244
vt 0.972371 0.554189
vt 0.952982 0.554189
vt 0.952982 0.297244
vt 0.931439 0.554189
vt 0.931439 0.297244
vt 0.908569 0.554189
vt 0.908569 0.297244
vt 0.885251 0.554189
vt 0.885251 0.297244
vt 0.862381 0.554189
vt 0.862381 0.297244
vt 0.840837 0.554190
vt 0.840837 0.297245
vt 0.821449 0.554189
vt 0.821449 0.297244
vt 0.804961 0.554189
vt 0.804960 0.297244
vt 0.832589 0.018569
vt 0.832589 0.275514
vt 0.819635 0.275515
vt 0.819635 0.018569
vt 0.803146 0.275514
vt 0.803146 0.018569
vt 0.783758 0.275514
vt 0.783758 0.018569
vt 0.762215 0.275514
vt 0.762215 0.018570
vt 0.739344 0.275515
vt 0.739344 0.018569
vt 0.716026 0.275514
vt 0.716026 0.018569
vt 0.693156 0.275514
vt 0.693156 0.018568
vt 0.671613 0.275514
vt 0.671613 0.018569
vt 0.652225 0.275514
vt 0.652224 0.018569
vt 0.150922 0.743054
vt 0.150922 1.000000
vt 0.131534 1.000000
vt 0.131533 0.743054
vt 0.109990 1.000000
vt 0.109990 0.743054
vt 0.087120 0.999999
vt 0.087120 0.743054
vt 0.063802 1.000000
vt 0.063802 0.743054
vt 0.040932 1.000000
vt 0.040932 0.743054
vt 0.019389 0.999999
vt 0.019388 0.743054
vt 0.562471 0.584669
vt 0.578959 0.600871
vt 0.591914 0.619923
vt 0.600837 0.641093
vt 0.605386 0.663567
vt 0.605386 0.686481
vt 0.600837 0.708954
vt 0.591914 0.730124
vt 0.578959 0.749176
vt 0.562471 0.765379
vt 0.543082 0.778110
vt 0.521539 0.786878
vt 0.498669 0.791349
vt 0.475351 0.791349
vt 0.452481 0.786878
vt 0.430937 0.778110
vt 0.411549 0.765379
vt 0.395061 0.749177
vt 0.382106 0.730125
vt 0.373182 0.708955
vt 0.368633 0.686481
vt 0.368633 0.663567
vt 0.373182 0.641093
vt 0.382106 0.619924
vt 0.395060 0.600871
vt 0.411549 0.584669
vt 0.430937 0.571939
vt 0.452480 0.563170
vt 0.475351 0.558699
vt 0.498669 0.558699
vt 0.521539 0.563170
vt 0.543082 0.571938
vt 0.000000 1.000000
vt 0.000000 0.743054
vt 0.832590 0.256945
vt 0.832590 0.000000
vt 0.809389 0.838723
vt 0.809389 0.558700
vt 0.835194 0.558700
vt 0.835194 0.838723
vt 0.862589 0.558700
vt 0.862589 0.838723
vt 0.890520 0.558700
vt 0.890520 0.838723
vt 0.917915 0.558700
vt 0.917915 0.838723
vt 0.943720 0.558699
vt 0.943720 0.838723
vt 0.966944 0.558699
vt 0.966944 0.838723
vt 0.368633 0.558699
vt 0.368633 0.278675
vt 0.388384 0.278675
vt 0.388383 0.558699
vt 0.411608 0.278675
vt 0.411608 0.558699
vt 0.437413 0.278675
vt 0.437413 0.558699
vt 0.464807 0.278675
vt 0.464807 0.558699
vt 0.492739 0.278675
vt 0.492739 0.558699
vt 0.520133 0.278676
vt 0.520133 0.558699
vt 0.545938 0.278675
vt 0.545938 0.558699
vt 0.569163 0.278675
vt 0.569162 0.558699
vt 0.588913 0.278675
vt 0.588913 0.558699
vt 0.604431 0.278675
vt 0.604431 0.558699
vt 0.804960 0.278675
vt 0.804960 0.558699
vt 0.785210 0.558699
vt 0.785210 0.278676
vt 0.761986 0.558699
vt 0.761986 0.278675
vt 0.736180 0.558699
vt 0.736181 0.278675
vt 0.708786 0.558699
vt 0.708786 0.278675
vt 0.680854 0.558699
vt 0.680855 0.278675
vt 0.653460 0.558699
vt 0.653461 0.278675
vt 0.627655 0.558699
vt 0.627655 0.278676
vt 0.786165 0.558700
vt 0.786165 0.838723
vt 0.762941 0.838724
vt 0.762941 0.558700
vt 0.737136 0.838724
vt 0.737136 0.558699
vt 0.709742 0.838723
vt 0.709742 0.558700
vt 0.681810 0.838723
vt 0.681810 0.558700
vt 0.654416 0.838723
vt 0.654416 0.558700
vt 0.628610 0.838724
vt 0.628611 0.558700
vt 0.577593 0.262817
vt 0.551788 0.273321
vt 0.524394 0.278675
vt 0.496462 0.278675
vt 0.469068 0.273320
vt 0.443263 0.262817
vt 0.420039 0.247568
vt 0.400288 0.228160
vt 0.384771 0.205338
vt 0.374082 0.179980
vt 0.368633 0.153060
vt 0.368633 0.125613
vt 0.374082 0.098694
vt 0.384771 0.073336
vt 0.400289 0.050514
vt 0.420040 0.031106
vt 0.443264 0.015858
vt 0.469069 0.005354
vt 0.496464 0.000000
vt 0.524395 0.000000
vt 0.551790 0.005355
vt 0.577595 0.015859
vt 0.600819 0.031108
vt 0.620569 0.050516
vt 0.636087 0.073337
vt 0.646775 0.098695
vt 0.652224 0.125615
vt 0.652224 0.153062
vt 0.646775 0.179981
vt 0.636086 0.205339
vt 0.620568 0.228161
vt 0.600818 0.247569
vt 0.605386 0.838723
vt 0.605386 0.558700
vt 0.063802 0.724485
vt 0.087120 0.724485
vt 0.058659 0.247123
vt 0.074177 0.269944
vt 0.041149 0.296580
vt 0.020978 0.266915
vt 0.762215 0.000000
vt 0.783758 0.000000
vt 0.309974 0.477363
vt 0.294457 0.454541
vt 0.327485 0.427906
vt 0.347656 0.457571
vt 0.908569 0.278675
vt 0.931439 0.278675
vt 0.198282 0.320459
vt 0.225677 0.315104
vt 0.238080 0.355282
vt 0.202470 0.362243
vt 0.320663 0.502721
vt 0.361550 0.490533
vt 0.109990 0.724485
vt 0.873521 0.275514
vt 0.851978 0.275514
vt 0.320663 0.140478
vt 0.309974 0.115120
vt 0.347656 0.095328
vt 0.361550 0.128290
vt 0.803146 0.000000
vt 0.117151 0.057642
vt 0.093927 0.072891
vt 0.066821 0.040435
vt 0.097009 0.020614
vt 0.952982 0.278675
vt 0.326112 0.529641
vt 0.368633 0.525526
vt 0.251482 0.666843
vt 0.274706 0.651595
vt 0.301811 0.684050
vt 0.271623 0.703871
vt 0.131533 0.724485
vt 0.093927 0.289352
vt 0.066822 0.321808
vt 0.819635 0.000000
vt 0.326112 0.557088
vt 0.368633 0.561203
vt 0.972371 0.278675
vt 0.225677 0.677347
vt 0.238080 0.717525
vt 0.251482 0.304601
vt 0.271623 0.341629
vt 0.150922 0.724485
vt 0.320663 0.584007
vt 0.361550 0.596195
vt 0.294456 0.092299
vt 0.327484 0.065663
vt 1.000000 0.275514
vt 0.983511 0.275514
vt 0.198282 0.682701
vt 0.202470 0.724485
vt 0.652224 0.000000
vt 0.671613 0.000000
vt 0.309974 0.609365
vt 0.347656 0.629157
vt 0.074177 0.092299
vt 0.041148 0.065663
vt 0.821449 0.278675
vt 0.302693 0.554821
vt 0.298144 0.577295
vt 0.289221 0.598465
vt 0.294456 0.632187
vt 0.276266 0.617517
vt 0.259777 0.633719
vt 0.240389 0.646449
vt 0.218846 0.655218
vt 0.195976 0.659689
vt 0.170351 0.682701
vt 0.172657 0.659689
vt 0.142956 0.677347
vt 0.149787 0.655218
vt 0.117151 0.666843
vt 0.128244 0.646449
vt 0.093927 0.651594
vt 0.108856 0.633719
vt 0.074177 0.632186
vt 0.092367 0.617517
vt 0.058659 0.609365
vt 0.079412 0.598464
vt 0.047970 0.584007
vt 0.070489 0.577294
vt 0.042521 0.557087
vt 0.065940 0.554821
vt 0.042521 0.529640
vt 0.065940 0.531906
vt 0.047970 0.502720
vt 0.070489 0.509433
vt 0.058659 0.477363
vt 0.079412 0.488264
vt 0.074177 0.454541
vt 0.092367 0.469211
vt 0.093927 0.435133
vt 0.108856 0.453008
vt 0.117151 0.419884
vt 0.128244 0.440278
vt 0.142956 0.409381
vt 0.149787 0.431509
vt 0.170351 0.404026
vt 0.172658 0.427039
vt 0.198282 0.404026
vt 0.195976 0.427039
vt 0.225677 0.409381
vt 0.218846 0.431510
vt 0.251482 0.419885
vt 0.240389 0.440278
vt 0.274706 0.435134
vt 0.259778 0.453009
vt 0.276266 0.469211
vt 0.289221 0.488264
vt 0.298144 0.509433
vt 0.302693 0.531907
vt 0.166163 0.724485
vt 0.896391 0.275514
vt 0.117151 0.304601
vt 0.097010 0.341629
vt 0.885251 0.278675
vt 0.327484 0.658822
vt 0.739344 0.000000
vt 0.130553 0.717525
vt 0.040932 0.724486
vt 0.274706 0.289352
vt 0.301812 0.321807
vt 0.919709 0.275514
vt 0.862381 0.278675
vt 0.274706 0.072890
vt 0.301811 0.040435
vt 0.716026 0.000000
vt 0.097010 0.703871
vt 0.019388 0.724485
vt 0.942580 0.275514
vt 0.058659 0.115121
vt 0.020977 0.095328
vt 0.840837 0.278675
vt 0.066821 0.684050
vt 0.693156 0.000000
vt 0.041148 0.658822
vt 0.000000 0.724486
vt 0.964123 0.275514
vt 0.294457 0.269944
vt 0.327485 0.296579
vt 0.142957 0.315104
vt 0.130554 0.355282
vt 0.251482 0.057642
vt 0.271623 0.020614
vt 0.832590 0.275514
vt 0.020977 0.629157
vt 0.150923 0.955401
vt 0.150923 0.925736
vt 0.175485 0.925736
vt 0.175485 0.955401
vt 0.200050 0.787112
vt 0.200050 0.822104
vt 0.175486 0.822104
vt 0.175486 0.787112
vt 0.972371 0.401523
vt 0.972371 0.366530
vt 0.996934 0.366530
vt 0.996934 0.401522
vt 0.966945 0.814844
vt 0.966944 0.785179
vt 0.991507 0.785179
vt 0.991508 0.814844
vt 0.150922 0.892775
vt 0.175486 0.892774
vt 0.200050 0.857782
vt 0.175486 0.857782
vt 0.972371 0.333568
vt 0.996934 0.333568
vt 0.966944 0.752217
vt 0.991508 0.752217
vt 0.150923 0.857782
vt 0.175485 0.857782
vt 0.200049 0.892774
vt 0.175487 0.892774
vt 0.972371 0.303903
vt 0.996934 0.303903
vt 0.966945 0.717224
vt 0.991508 0.717225
vt 0.150922 0.822104
vt 0.175485 0.822104
vt 0.200049 0.925736
vt 0.175486 0.925736
vt 0.966945 0.681547
vt 0.991507 0.681547
vt 0.996934 0.278675
vt 0.150922 0.787112
vt 0.175485 0.787112
vt 0.966944 0.840072
vt 0.991507 0.840072
vt 0.972371 0.437200
vt 0.996934 0.437200
vt 0.200049 0.754150
vt 0.175487 0.754150
vt 0.966945 0.583928
vt 0.966945 0.558699
vt 0.991507 0.558699
vt 0.991507 0.583928
vt 0.966944 0.859893
vt 0.991507 0.859893
vt 0.972371 0.472192
vt 0.996934 0.472192
vt 0.200050 0.724485
vt 0.175487 0.724485
vt 0.966944 0.613592
vt 0.991508 0.613593
vt 0.972371 0.505155
vt 0.996934 0.505154
vt 0.150923 0.754150
vt 0.175485 0.754150
vt 0.966944 0.646554
vt 0.991508 0.646555
vt 0.972371 0.534819
vt 0.996935 0.534819
vt 0.200050 0.955401
vt 0.175486 0.955401
vt 0.142956 0.047138
vt 0.130553 0.006961
vt 0.301812 0.402678
vt 0.326112 0.167397
vt 0.368633 0.163282
vt 0.271623 0.382856
vt 0.170351 0.320459
vt 0.166163 0.362243
vt 0.238080 0.369203
vt 0.047970 0.221765
vt 0.007083 0.233953
vt 0.170351 0.041784
vt 0.166163 0.000000
vt 0.326112 0.194845
vt 0.368633 0.198960
vt 0.130554 0.369203
vt 0.042521 0.194845
vt 0.000000 0.198961
vt 0.198282 0.041783
vt 0.202470 0.000000
vt 0.097010 0.382856
vt 0.320663 0.221764
vt 0.361550 0.233952
vt 0.066822 0.402677
vt 0.041149 0.427905
vt 0.042521 0.167398
vt 0.000000 0.163283
vt 0.020977 0.457570
vt 0.225677 0.047138
vt 0.238079 0.006960
vt 0.309974 0.247122
vt 0.347656 0.266914
vt 0.007083 0.490532
vt 0.000000 0.525525
vt 0.047970 0.140478
vt 0.007083 0.128291
vt 0.000000 0.561203
vt 0.007083 0.596195
s 0
usemtl Material.001
f 9/1/1 7/2/1 6/3/1 8/4/1
f 9/1/2 11/5/2 10/6/2 7/2/2
f 11/5/3 56/7/3 12/8/3 10/6/3
f 56/7/4 14/9/4 13/10/4 12/8/4
f 14/9/5 16/11/5 15/12/5 13/10/5
f 16/11/6 18/13/6 17/14/6 15/12/6
f 18/13/7 20/15/7 19/16/7 17/14/7
f 6/3/8 22/17/8 21/18/8 8/4/8
f 22/17/9 24/19/9 23/20/9 21/18/9
f 24/19/10 26/21/10 25/22/10 23/20/10
f 26/21/11 28/23/11 27/24/11 25/22/11
f 28/23/12 30/25/12 29/26/12 27/24/12
f 20/15/13 32/27/13 31/28/13 19/16/13
f 32/27/14 34/29/14 33/30/14 31/28/14
f 34/29/15 36/31/15 35/32/15 33/30/15
f 36/33/16 38/34/16 37/35/16 35/36/16
f 36/31/17 40/37/17 39/38/17 38/39/17
f 36/31/18 34/29/18 40/37/18
f 40/37/19 42/40/19 41/41/19 39/38/19
f 42/40/20 44/42/20 43/43/20 41/41/20
f 34/29/21 32/27/21 42/40/21 40/37/21
f 42/40/22 32/27/22 44/42/22
f 27/24/23 29/26/23 54/44/23 55/45/23
f 27/24/24 55/45/24 25/22/24
f 25/22/25 55/45/25 23/20/25
f 16/11/26 14/9/26 45/46/26 44/42/26 32/27/26 20/15/26 18/13/26
f 56/7/27 11/5/27 46/47/27 57/48/27 14/9/27
f 69/49/28 71/50/28 97/51/28 95/52/28
f 5/53/29 4/54/29 87/55/29 88/56/29
f 71/50/30 73/57/30 99/58/30 97/51/30
f 10/59/31 12/60/31 77/61/31 76/62/31
f 76/62/32 77/61/32 103/63/32 102/64/32
f 70/65/33 69/66/33 95/67/33 96/68/33
f 77/61/34 72/69/34 98/70/34 103/63/34
f 41/71/35 43/72/35 61/73/35 62/74/35
f 4/54/36 3/75/36 86/76/36 87/55/36
f 62/74/37 61/73/37 92/77/37 189/78/37
f 3/75/38 2/79/38 85/80/38 86/76/38
f 79/81/39 78/82/39 104/83/39 105/84/39
f 2/79/40 82/85/40 84/86/40 85/80/40
f 73/57/41 74/87/41 100/88/41 99/58/41
f 65/89/42 79/81/42 105/84/42 93/90/42
f 81/91/43 80/92/43 106/93/43 107/94/43
f 1/95/44 70/65/44 96/68/44 83/96/44
f 67/97/45 66/98/45 191/99/45 192/100/45
f 30/101/46 28/102/46 71/50/46 69/49/46
f 60/103/47 59/104/47 90/105/47 91/106/47
f 68/107/48 67/97/48 192/100/48 94/108/48
f 61/73/49 60/103/49 91/106/49 92/77/49
f 66/98/50 64/109/50 190/110/50 191/99/50
f 75/111/51 81/91/51 107/94/51 101/112/51
f 59/104/52 58/113/52 89/114/52 90/105/52
f 72/69/53 65/89/53 93/90/53 98/70/53
f 80/92/54 76/62/54 102/64/54 106/93/54
f 74/87/55 75/111/55 101/112/55 100/88/55
f 58/113/56 5/53/56 88/56/56 89/114/56
f 78/82/57 68/115/57 94/116/57 104/83/57
f 22/117/58 6/118/58 81/91/58 75/111/58
f 12/60/59 13/119/59 72/69/59 77/61/59
f 19/120/60 31/121/60 68/115/60 78/82/60
f 6/118/61 7/122/61 80/92/61 81/91/61
f 24/123/62 22/117/62 75/111/62 74/87/62
f 13/119/63 15/124/63 65/89/63 72/69/63
f 31/125/64 33/126/64 67/97/64 68/107/64
f 26/127/65 24/123/65 74/87/65 73/57/65
f 15/124/66 17/128/66 79/81/66 65/89/66
f 33/126/67 35/36/67 66/98/67 67/97/67
f 54/129/68 29/130/68 70/65/68 1/95/68
f 7/122/69 10/59/69 76/62/69 80/92/69
f 28/102/70 26/127/70 73/57/70 71/50/70
f 17/128/71 19/120/71 78/82/71 79/81/71
f 35/36/72 37/35/72 64/109/72 66/98/72
f 29/130/73 30/131/73 69/66/73 70/65/73
f 59/104/74 57/132/74 46/133/74 58/113/74
f 52/134/75 50/135/75 23/20/75 55/45/75 53/136/75
f 8/4/76 21/18/76 49/137/76 48/138/76
f 9/1/77 8/4/77 48/138/77 47/139/77
f 58/113/78 46/133/78 47/140/78 5/53/78
f 21/18/79 23/20/79 50/135/79 49/137/79
f 52/134/80 51/141/80 50/135/80
f 50/142/81 51/143/81 82/85/81 2/79/81
f 3/75/82 49/144/82 50/142/82 2/79/82
f 49/144/83 3/75/83 4/54/83 48/145/83
f 47/139/84 46/47/84 11/5/84 9/1/84
f 5/146/85 47/139/85 48/138/85 4/147/85
f 59/148/86 60/149/86 45/46/86 57/48/86
f 44/150/87 45/151/87 43/152/87
f 60/149/88 61/153/88 43/43/88 45/46/88
f 45/46/89 14/9/89 57/48/89
f 189/154/90 63/155/90 41/156/90 62/157/90
f 62/74/91 189/78/91 41/71/91
f 117/158/92 116/159/92 114/160/92 115/161/92
f 117/158/93 115/161/93 118/162/93 119/163/93
f 119/163/94 118/162/94 120/164/94 164/165/94
f 164/165/95 120/164/95 121/166/95 122/167/95
f 122/167/96 121/166/96 123/168/96 124/169/96
f 124/169/97 123/168/97 125/170/97 126/171/97
f 126/171/98 125/170/98 127/172/98 128/173/98
f 114/160/99 116/159/99 129/174/99 130/175/99
f 130/175/100 129/174/100 131/176/100 132/177/100
f 132/177/101 131/176/101 133/178/101 134/179/101
f 134/179/102 133/178/102 135/180/102 136/181/102
f 136/181/103 135/180/103 137/182/103 138/183/103
f 128/173/104 127/172/104 139/184/104 140/185/104
f 140/185/105 139/184/105 141/186/105 142/187/105
f 142/187/106 141/186/106 143/188/106 144/189/106
f 144/190/107 143/191/107 145/192/107 146/193/107
f 144/189/108 146/194/108 147/195/108 148/196/108
f 144/189/109 148/196/109 142/187/109
f 148/196/110 147/195/110 149/197/110 150/198/110
f 150/198/111 149/197/111 151/199/111 152/200/111
f 142/187/112 148/196/112 150/198/112 140/185/112
f 150/198/113 152/200/113 140/185/113
f 135/180/114 162/201/114 161/202/114 137/182/114
f 135/180/115 133/178/115 162/201/115
f 133/178/116 131/176/116 162/201/116
f 124/169/117 126/171/117 128/173/117 140/185/117 152/200/117 153/203/117 122/167/117
f 164/165/118 122/167/118 165/204/118 163/205/118 119/163/118
f 176/206/119 95/52/119 97/51/119 178/207/119
f 113/208/120 88/56/120 87/55/120 112/209/120
f 178/207/121 97/51/121 99/58/121 180/210/121
f 118/211/122 183/212/122 184/213/122 120/214/122
f 183/212/123 102/64/123 103/63/123 184/213/123
f 177/215/124 96/68/124 95/67/124 176/216/124
f 184/213/125 103/63/125 98/70/125 179/217/125
f 149/218/126 170/219/126 169/220/126 151/221/126
f 112/209/127 87/55/127 86/76/127 111/222/127
f 170/219/128 189/78/128 92/77/128 169/220/128
f 111/222/129 86/76/129 85/80/129 110/223/129
f 186/224/130 105/84/130 104/83/130 185/225/130
f 110/223/131 85/80/131 84/86/131 109/226/131
f 180/210/132 99/58/132 100/88/132 181/227/132
f 172/228/133 93/90/133 105/84/133 186/224/133
f 188/229/134 107/94/134 106/93/134 187/230/134
f 108/231/135 83/96/135 96/68/135 177/215/135
f 174/232/136 192/100/136 191/99/136 173/233/136
f 138/234/137 176/206/137 178/207/137 136/235/137
f 168/236/138 91/106/138 90/105/138 167/237/138
f 175/238/139 193/239/139 192/100/139 174/232/139
f 169/220/140 92/77/140 91/106/140 168/236/140
f 173/233/141 191/99/141 190/110/141 171/240/141
f 182/241/142 101/112/142 107/94/142 188/229/142
f 167/237/143 90/105/143 89/114/143 166/242/143
f 179/217/144 98/70/144 93/90/144 172/228/144
f 187/230/145 106/93/145 102/64/145 183/212/145
f 181/227/146 100/88/146 101/112/146 182/241/146
f 166/242/147 89/114/147 88/56/147 113/208/147
f 185/225/148 104/83/148 193/243/148 175/244/148
f 130/245/149 182/241/149 188/229/149 114/246/149
f 120/214/150 184/213/150 179/217/150 121/247/150
f 127/248/151 185/225/151 175/244/151 139/249/151
f 114/246/152 188/229/152 187/230/152 115/250/152
f 132/251/153 181/227/153 182/241/153 130/245/153
f 121/247/154 179/217/154 172/228/154 123/252/154
f 139/253/155 175/238/155 174/232/155 141/254/155
f 134/255/156 180/210/156 181/227/156 132/251/156
f 123/252/157 172/228/157 186/224/157 125/256/157
f 141/254/158 174/232/158 173/233/158 143/191/158
f 161/257/159 108/231/159 177/215/159 137/258/159
f 115/250/160 187/230/160 183/212/160 118/211/160
f 136/235/161 178/207/161 180/210/161 134/255/161
f 125/256/162 186/224/162 185/225/162 127/248/162
f 143/191/163 173/233/163 171/240/163 145/192/163
f 137/258/164 177/215/164 176/216/164 138/259/164
f 167/260/165 166/261/165 163/205/165 165/204/165
f 159/262/166 160/263/166 162/201/166 131/176/166 157/264/166
f 116/159/167 155/265/167 156/266/167 129/174/167
f 117/158/168 154/267/168 155/265/168 116/159/168
f 166/242/169 113/208/169 154/268/169 163/269/169
f 129/174/170 156/266/170 157/264/170 131/176/170
f 159/262/171 157/264/171 158/270/171
f 157/271/172 110/223/172 109/226/172 158/272/172
f 111/222/173 110/223/173 157/271/173 156/273/173
f 156/273/174 155/274/174 112/209/174 111/222/174
f 154/267/175 117/158/175 119/163/175 163/205/175
f 113/275/176 112/276/176 155/265/176 154/267/176
f 167/260/177 165/204/177 153/203/177 168/277/177
f 152/278/178 151/279/178 153/280/178
f 168/277/179 153/203/179 151/199/179 169/281/179
f 153/203/180 165/204/180 122/167/180
f 189/282/181 170/283/181 149/284/181 63/285/181
f 170/219/182 149/218/182 189/78/182
f 196/286/183 197/287/183 194/288/183 195/289/183
f 200/290/184 199/291/184 198/292/184 201/293/184
f 231/294/185 232/295/185 216/296/185 215/297/185
f 207/298/186 223/299/186 219/300/186 202/301/186
f 212/302/187 227/303/187 229/304/187 213/305/187
f 203/306/188 218/307/188 220/308/188 204/309/188
f 232/310/189 231/311/189 234/312/189 233/313/189
f 234/312/190 231/311/190 224/314/190
f 223/315/191 224/314/191 231/311/191 230/316/191
f 219/317/192 223/315/192 230/316/192 229/318/192
f 218/319/193 219/317/193 229/318/193 227/320/193
f 220/321/194 218/319/194 227/320/194 228/322/194
f 221/323/195 222/324/195 225/325/195 226/326/195
f 202/301/196 219/300/196 218/307/196 203/306/196
f 213/305/197 229/304/197 230/327/197 214/328/197
f 208/329/198 224/330/198 223/299/198 207/298/198
f 211/331/199 228/332/199 227/303/199 212/302/199
f 216/296/200 232/295/200 233/333/200 217/334/200
f 206/335/201 221/336/201 226/337/201 209/338/201
f 205/339/202 222/340/202 221/341/202 206/342/202
f 235/343/203 234/344/203 224/330/203 208/329/203
f 209/345/204 226/346/204 225/347/204 210/348/204
f 205/349/205 221/350/205 209/351/205 210/352/205
f 220/308/206 222/340/206 205/339/206 204/309/206
f 228/322/207 225/325/207 222/324/207 220/321/207
f 210/348/208 225/347/208 228/332/208 211/331/208
f 231/294/209 215/297/209 214/328/209 230/327/209
f 204/353/210 211/354/210 212/355/210 203/356/210
f 203/356/211 212/355/211 213/357/211 202/358/211
f 202/358/212 213/357/212 214/359/212 207/360/212
f 208/361/213 207/360/213 214/359/213 215/362/213
f 216/363/214 217/364/214 235/365/214 208/361/214 215/362/214
f 210/352/215 211/354/215 204/353/215 205/349/215
f 265/366/216 249/367/216 250/368/216 266/369/216
f 241/370/217 236/371/217 253/372/217 257/373/217
f 246/374/218 247/375/218 263/376/218 261/377/218
f 237/378/219 238/379/219 254/380/219 252/381/219
f 266/382/220 267/383/220 268/312/220 265/384/220
f 268/312/221 258/385/221 265/384/221
f 257/386/222 264/387/222 265/384/222 258/385/222
f 253/388/223 263/389/223 264/387/223 257/386/223
f 252/390/224 261/391/224 263/389/224 253/388/224
f 254/392/225 262/393/225 261/391/225 252/390/225
f 255/394/226 260/395/226 259/396/226 256/397/226
f 236/371/227 237/378/227 252/381/227 253/372/227
f 247/375/228 248/398/228 264/399/228 263/376/228
f 242/400/229 241/370/229 257/373/229 258/401/229
f 245/402/230 246/374/230 261/377/230 262/403/230
f 250/368/231 251/404/231 267/405/231 266/369/231
f 240/406/232 243/407/232 260/408/232 255/409/232
f 239/410/233 240/411/233 255/412/233 256/413/233
f 269/414/234 242/400/234 258/401/234 268/415/234
f 243/416/235 244/417/235 259/418/235 260/419/235
f 239/420/236 244/421/236 243/422/236 255/423/236
f 254/380/237 238/379/237 239/410/237 256/413/237
f 262/393/238 254/392/238 256/397/238 259/396/238
f 244/417/239 245/402/239 262/403/239 259/418/239
f 265/366/240 264/399/240 248/398/240 249/367/240
f 238/424/241 237/425/241 246/426/241 245/427/241
f 237/425/242 236/428/242 247/429/242 246/426/242
f 236/428/243 241/430/243 248/431/243 247/429/243
f 242/432/244 249/433/244 248/431/244 241/430/244
f 250/434/245 249/433/245 242/432/245 269/435/245 251/436/245
f 244/421/246 239/420/246 238/424/246 245/427/246
f 276/437/247 278/109/247 270/35/247
f 278/109/248 276/437/248 280/438/248 299/110/248
f 276/439/249 277/440/249 282/441/249
f 271/442/250 277/440/250 270/443/250
f 281/408/251 299/444/251 291/445/251
f 271/446/252 272/447/252 275/448/252 277/449/252
f 274/450/253 284/451/253 295/452/253
f 270/443/254 277/440/254 276/439/254
f 276/437/255 291/453/255 280/438/255
f 291/454/256 276/439/256 282/441/256
f 291/455/257 282/456/257 277/457/257 281/458/257
f 279/459/258 277/460/258 275/461/258
f 277/460/259 279/459/259 281/462/259
f 283/463/260 295/464/260 289/465/260
f 273/466/261 275/467/261 272/468/261
f 273/469/262 275/470/262 295/464/262 283/463/262
f 283/471/263 284/472/263 274/157/263
f 283/471/264 274/157/264 273/156/264
f 283/471/265 289/473/265 284/472/265
f 292/474/266 285/192/266 294/240/266
f 294/240/267 299/110/267 297/475/267 292/474/267
f 292/476/268 300/477/268 293/478/268
f 286/479/269 285/480/269 293/478/269
f 298/481/270 291/482/270 299/483/270
f 286/484/271 293/485/271 275/486/271 287/487/271
f 290/488/272 295/452/272 284/451/272
f 285/480/273 292/476/273 293/478/273
f 292/474/274 297/475/274 291/453/274
f 291/489/275 300/477/275 292/476/275
f 291/490/276 298/491/276 293/492/276 300/493/276
f 296/494/277 275/495/277 293/496/277
f 293/496/278 298/497/278 296/494/278
f 301/498/279 289/465/279 295/464/279
f 288/499/280 287/500/280 275/501/280
f 288/502/281 301/498/281 295/464/281 275/470/281
f 301/503/282 290/283/282 284/504/282
f 301/503/283 288/284/283 290/283/283
f 301/503/284 284/504/284 289/505/284
f 305/134/285 307/136/285 306/506/285 304/141/285
f 307/136/286 309/45/286 308/44/286 306/506/286
f 311/507/287 314/508/287 321/509/287 318/510/287
f 306/511/288 311/512/288 318/513/288 303/514/288
f 314/508/289 315/515/289 322/516/289 321/509/289
f 308/44/290 310/517/290 311/518/290 306/506/290
f 313/519/291 315/520/291 314/521/291 311/518/291
f 310/517/292 312/522/292 313/519/292 311/518/292
f 310/523/293 308/524/293 302/525/293 317/526/293
f 315/527/294 313/528/294 320/529/294 322/530/294
f 313/528/295 312/531/295 319/532/295 320/529/295
f 312/533/296 310/523/296 317/526/296 319/534/296
f 319/535/297 317/536/297 318/537/297 320/538/297
f 321/539/298 322/540/298 320/538/298 318/537/298
f 318/537/299 317/536/299 302/541/299 303/542/299
f 303/543/300 302/95/300 323/96/300 346/544/300
f 346/545/301 324/86/301 316/85/301 303/514/301
f 316/85/302 304/143/302 306/511/302 303/514/302
f 329/262/303 328/270/303 330/546/303 331/263/303
f 331/263/304 330/546/304 332/202/304 333/201/304
f 335/547/305 341/510/305 344/548/305 338/549/305
f 330/550/306 326/551/306 341/552/306 335/553/306
f 338/549/307 344/548/307 345/554/307 339/555/307
f 332/202/308 330/546/308 335/556/308 334/557/308
f 337/558/309 335/556/309 338/559/309 339/560/309
f 334/557/310 335/556/310 337/558/310 336/561/310
f 334/562/311 340/563/311 325/564/311 332/565/311
f 339/566/312 345/567/312 343/568/312 337/569/312
f 337/569/313 343/568/313 342/570/313 336/531/313
f 336/571/314 342/572/314 340/563/314 334/562/314
f 342/573/315 343/574/315 341/575/315 340/576/315
f 344/577/316 341/575/316 343/574/316 345/578/316
f 341/575/317 326/579/317 325/580/317 340/576/317
f 326/581/318 346/544/318 323/96/318 325/231/318
f 346/545/319 326/551/319 327/226/319 324/86/319
f 327/226/320 326/551/320 330/550/320 328/272/320
usemtl Material.002
f 347/582/321 348/583/321 350/584/321 349/585/321
f 349/585/322 350/584/322 352/586/322 351/587/322
f 351/587/323 352/586/323 354/588/323 353/589/323
f 353/589/324 354/588/324 356/590/324 355/591/324
f 355/591/325 356/590/325 358/592/325 357/593/325
f 357/593/326 358/592/326 360/594/326 359/595/326
f 359/595/327 360/594/327 362/596/327 361/597/327
f 361/598/328 362/599/328 364/600/328 363/601/328
f 363/601/329 364/600/329 366/602/329 365/603/329
f 365/603/330 366/602/330 368/604/330 367/605/330
f 367/605/331 368/604/331 370/606/331 369/607/331
f 369/607/332 370/606/332 372/608/332 371/609/332
f 371/609/333 372/608/333 374/610/333 373/611/333
f 373/611/334 374/610/334 376/612/334 375/613/334
f 375/613/335 376/612/335 378/614/335 377/615/335
f 377/616/336 378/617/336 380/618/336 379/619/336
f 379/619/337 380/618/337 382/620/337 381/621/337
f 381/621/338 382/620/338 384/622/338 383/623/338
f 383/623/339 384/622/339 386/624/339 385/625/339
f 385/625/340 386/624/340 388/626/340 387/627/340
f 387/627/341 388/626/341 390/628/341 389/629/341
f 389/629/342 390/628/342 392/630/342 391/631/342
f 391/631/343 392/630/343 394/632/343 393/633/343
f 393/633/344 394/632/344 396/634/344 395/635/344
f 395/636/345 396/637/345 398/638/345 397/639/345
f 397/639/346 398/638/346 400/640/346 399/641/346
f 399/641/347 400/640/347 402/642/347 401/643/347
f 401/643/348 402/642/348 404/644/348 403/645/348
f 403/645/349 404/644/349 406/646/349 405/647/349
f 405/647/350 406/646/350 408/648/350 407/649/350
f 350/650/351 348/651/351 410/652/351 408/653/351 406/654/351 404/655/351 402/656/351 400/657/351 398/658/351 396/659/351 394/660/351 392/661/351 390/662/351 388/663/351 386/664/351 384/665/351 382/666/351 380/667/351 378/668/351 376/669/351 374/670/351 372/671/351 370/672/351 368/673/351 366/674/351 364/675/351 362/676/351 360/677/351 358/678/351 356/679/351 354/680/351 352/681/351
f 407/649/352 408/648/352 410/682/352 409/683/352
f 409/684/353 410/685/353 348/583/353 347/582/353
f 411/686/354 412/687/354 414/688/354 413/689/354
f 413/689/355 414/688/355 416/690/355 415/691/355
f 415/691/356 416/690/356 418/692/356 417/693/356
f 417/693/357 418/692/357 420/694/357 419/695/357
f 419/695/358 420/694/358 422/696/358 421/697/358
f 421/697/359 422/696/359 424/698/359 423/699/359
f 423/700/360 424/701/360 426/702/360 425/703/360
f 425/703/361 426/702/361 428/704/361 427/705/361
f 427/705/362 428/704/362 430/706/362 429/707/362
f 429/707/363 430/706/363 432/708/363 431/709/363
f 431/709/364 432/708/364 434/710/364 433/711/364
f 433/711/365 434/710/365 436/712/365 435/713/365
f 435/713/366 436/712/366 438/714/366 437/715/366
f 437/715/367 438/714/367 440/716/367 439/717/367
f 439/717/368 440/716/368 442/718/368 441/719/368
f 441/719/369 442/718/369 444/720/369 443/721/369
f 443/722/370 444/723/370 446/724/370 445/725/370
f 445/725/371 446/724/371 448/726/371 447/727/371
f 447/727/372 448/726/372 450/728/372 449/729/372
f 449/729/373 450/728/373 452/730/373 451/731/373
f 451/731/374 452/730/374 454/732/374 453/733/374
f 453/733/375 454/732/375 456/734/375 455/735/375
f 455/735/376 456/734/376 458/736/376 457/737/376
f 457/737/377 458/736/377 460/721/377 459/720/377
f 459/738/378 460/739/378 462/740/378 461/741/378
f 461/741/379 462/740/379 464/742/379 463/743/379
f 463/743/380 464/742/380 466/744/380 465/745/380
f 465/745/381 466/744/381 468/746/381 467/747/381
f 467/747/382 468/746/382 470/748/382 469/749/382
f 469/749/383 470/748/383 472/750/383 471/751/383
f 414/752/384 412/753/384 474/754/384 472/755/384 470/756/384 468/757/384 466/758/384 464/759/384 462/760/384 460/761/384 458/762/384 456/763/384 454/764/384 452/765/384 450/766/384 448/767/384 446/768/384 444/769/384 442/770/384 440/771/384 438/772/384 436/773/384 434/774/384 432/775/384 430/776/384 428/777/384 426/778/384 424/779/384 422/780/384 420/781/384 418/782/384 416/783/384
f 471/751/385 472/750/385 474/784/385 473/785/385
f 473/739/386 474/738/386 412/687/386 411/686/386
f 401/643/387 403/645/387 503/786/387 502/787/387
f 419/788/388 417/789/388 542/790/388 543/791/388
f 383/623/389 385/625/389 494/792/389 493/793/389
f 514/794/390 515/795/390 592/796/390 591/797/390
f 365/603/391 367/605/391 485/798/391 484/799/391
f 471/800/392 469/801/392 568/802/392 569/803/392
f 513/804/393 514/794/393 591/797/393 590/805/393
f 399/641/394 401/643/394 502/787/394 501/806/394
f 347/582/395 349/585/395 476/807/395 475/808/395
f 453/809/396 451/810/396 559/811/396 560/812/396
f 381/621/397 383/623/397 493/793/397 492/813/397
f 435/814/398 433/815/398 550/816/398 551/817/398
f 363/601/399 365/603/399 484/799/399 483/818/399
f 512/819/400 513/804/400 590/805/400 589/820/400
f 538/821/401 507/822/401 585/823/401 602/824/401
f 397/639/402 399/641/402 501/806/402 500/825/402
f 417/789/403 415/826/403 541/827/403 542/790/403
f 379/619/404 381/621/404 492/813/404 491/828/404
f 511/829/405 512/819/405 589/820/405 588/830/405
f 361/598/406 363/601/406 483/818/406 482/831/406
f 537/832/407 538/821/407 602/824/407 601/833/407
f 469/801/408 467/834/408 567/835/408 568/802/408
f 395/636/409 397/639/409 500/825/409 499/836/409
f 510/837/410 511/829/410 588/830/410 573/838/410
f 377/616/411 379/619/411 491/828/411 490/685/411
f 451/810/412 449/839/412 558/840/412 559/811/412
f 359/595/413 361/597/413 482/841/413 481/842/413
f 536/843/414 537/832/414 601/833/414 574/844/414
f 393/633/415 395/635/415 499/845/415 498/846/415
f 509/847/416 510/837/416 573/838/416 577/848/416
f 433/815/417 431/849/417 549/850/417 550/816/417
f 375/613/418 377/615/418 490/722/418 489/851/418
f 479/852/419 511/829/419 510/837/419 478/853/419
f 478/853/420 510/837/420 509/847/420 477/854/420
f 477/854/421 509/847/421 508/855/421 476/856/421
f 476/856/422 508/855/422 507/822/422 475/857/422
f 475/857/423 507/822/423 538/821/423 506/858/423
f 506/858/424 538/821/424 537/832/424 505/859/424
f 505/859/425 537/832/425 536/843/425 504/860/425
f 504/860/426 536/843/426 535/861/426 503/862/426
f 503/862/427 535/861/427 534/863/427 502/864/427
f 502/864/428 534/863/428 533/865/428 501/866/428
f 501/866/429 533/865/429 532/867/429 500/868/429
f 500/868/430 532/867/430 531/869/430 499/870/430
f 499/870/431 531/869/431 530/871/431 498/872/431
f 498/872/432 530/871/432 529/873/432 497/874/432
f 497/874/433 529/873/433 528/875/433 496/876/433
f 496/876/434 528/875/434 527/877/434 495/878/434
f 495/878/435 527/877/435 526/879/435 494/880/435
f 494/880/436 526/879/436 525/881/436 493/882/436
f 493/882/437 525/881/437 524/883/437 492/884/437
f 492/884/438 524/883/438 523/885/438 491/886/438
f 491/886/439 523/885/439 522/887/439 490/888/439
f 490/888/440 522/887/440 521/889/440 489/890/440
f 489/890/441 521/889/441 520/891/441 488/892/441
f 488/892/442 520/891/442 519/893/442 487/894/442
f 487/894/443 519/893/443 518/895/443 486/896/443
f 486/896/444 518/895/444 517/897/444 485/898/444
f 485/898/445 517/897/445 516/899/445 484/900/445
f 484/900/446 516/899/446 515/795/446 483/901/446
f 483/901/447 515/795/447 514/794/447 482/902/447
f 482/902/448 514/794/448 513/804/448 481/903/448
f 481/903/449 513/804/449 512/819/449 480/904/449
f 480/904/450 512/819/450 511/829/450 479/852/450
f 535/861/451 536/843/451 574/844/451 578/905/451
f 349/585/452 351/587/452 477/906/452 476/807/452
f 415/826/453 413/907/453 540/908/453 541/827/453
f 367/605/454 369/607/454 486/909/454 485/798/454
f 508/855/455 509/847/455 577/848/455 584/910/455
f 385/625/456 387/627/456 495/911/456 494/792/456
f 534/863/457 535/861/457 578/905/457 582/912/457
f 403/645/458 405/647/458 504/913/458 503/786/458
f 467/834/459 465/914/459 566/915/459 567/835/459
f 351/587/460 353/589/460 478/916/460 477/906/460
f 507/822/461 508/855/461 584/910/461 585/823/461
f 369/607/462 371/609/462 487/917/462 486/909/462
f 449/839/463 447/918/463 557/919/463 558/840/463
f 387/627/464 389/629/464 496/920/464 495/911/464
f 533/865/465 534/863/465 582/912/465 583/921/465
f 405/647/466 407/649/466 505/922/466 504/913/466
f 353/589/467 355/591/467 479/923/467 478/916/467
f 431/849/468 429/924/468 548/925/468 549/850/468
f 371/609/469 373/611/469 488/926/469 487/917/469
f 532/867/470 533/865/470 583/921/470 600/927/470
f 389/629/471 391/631/471 497/928/471 496/920/471
f 531/869/472 532/867/472 600/927/472 599/929/472
f 407/649/473 409/683/473 506/930/473 505/922/473
f 355/591/474 357/593/474 480/931/474 479/923/474
f 465/914/475 463/932/475 565/933/475 566/915/475
f 373/611/476 375/613/476 489/851/476 488/926/476
f 413/907/477 411/934/477 539/935/477 540/908/477
f 391/631/478 393/633/478 498/846/478 497/928/478
f 447/918/479 445/936/479 556/937/479 557/919/479
f 409/684/480 347/582/480 475/808/480 506/938/480
f 357/593/481 359/595/481 481/842/481 480/931/481
f 530/871/482 531/869/482 599/929/482 598/939/482
f 561/940/483 560/941/483 571/942/483 597/943/483
f 552/944/484 551/945/484 572/946/484 593/947/484
f 543/948/485 542/949/485 573/950/485 588/951/485
f 569/952/486 568/953/486 574/954/486 601/955/486
f 560/941/487 559/956/487 575/957/487 571/942/487
f 551/945/488 550/958/488 576/959/488 572/946/488
f 542/949/489 541/960/489 577/961/489 573/950/489
f 568/953/490 567/962/490 578/963/490 574/954/490
f 559/956/491 558/964/491 579/965/491 575/957/491
f 550/958/492 549/966/492 580/967/492 576/959/492
f 541/960/493 540/968/493 584/969/493 577/961/493
f 567/962/494 566/970/494 582/971/494 578/963/494
f 558/964/495 557/972/495 586/973/495 579/965/495
f 549/966/496 548/974/496 581/975/496 580/967/496
f 566/970/497 565/976/497 583/977/497 582/971/497
f 540/968/498 539/831/498 585/978/498 584/969/498
f 557/972/499 556/979/499 587/980/499 586/973/499
f 570/981/500 569/952/500 601/955/500 602/982/500
f 544/983/501 543/948/501 588/951/501 589/984/501
f 553/985/502 552/944/502 593/947/502 594/986/502
f 562/987/503 561/988/503 597/989/503 598/990/503
f 539/991/504 570/981/504 602/982/504 585/992/504
f 545/993/505 544/983/505 589/984/505 590/994/505
f 554/995/506 553/985/506 594/986/506 595/996/506
f 563/997/507 562/987/507 598/990/507 599/998/507
f 546/999/508 545/993/508 590/994/508 591/1000/508
f 555/1001/509 554/836/509 595/996/509 596/1002/509
f 564/1003/510 563/997/510 599/998/510 600/1004/510
f 547/1005/511 546/999/511 591/1000/511 592/1006/511
f 556/979/512 555/1001/512 596/1002/512 587/980/512
f 565/976/513 564/1003/513 600/1004/513 583/977/513
f 548/974/514 547/1007/514 592/1008/514 581/975/514
f 437/1009/515 435/814/515 551/817/515 552/1010/515
f 515/795/516 516/899/516 581/1011/516 592/796/516
f 455/1012/517 453/809/517 560/812/517 561/1013/517
f 516/899/518 517/897/518 580/1014/518 581/1011/518
f 473/1015/519 471/800/519 569/803/519 570/1016/519
f 517/897/520 518/895/520 576/1017/520 580/1014/520
f 421/1018/521 419/788/521 543/791/521 544/1019/521
f 439/1020/522 437/1009/522 552/1010/522 553/1021/522
f 518/895/523 519/893/523 572/803/523 576/1017/523
f 457/1022/524 455/1012/524 561/1013/524 562/1023/524
f 519/893/525 520/891/525 593/1016/525 572/803/525
f 411/934/526 473/1015/526 570/1016/526 539/935/526
f 520/891/527 521/889/527 594/1024/527 593/1016/527
f 423/1025/528 421/1018/528 544/1019/528 545/1026/528
f 441/1027/529 439/1020/529 553/1021/529 554/1028/529
f 521/889/530 522/887/530 595/1029/530 594/1024/530
f 459/1030/531 457/1022/531 562/1023/531 563/1031/531
f 522/887/532 523/885/532 596/1032/532 595/1029/532
f 523/885/533 524/883/533 587/1033/533 596/1032/533
f 425/1034/534 423/1025/534 545/1026/534 546/1035/534
f 524/883/535 525/881/535 586/1036/535 587/1033/535
f 443/1037/536 441/1027/536 554/1028/536 555/1038/536
f 461/1039/537 459/1030/537 563/1031/537 564/1040/537
f 525/881/538 526/879/538 579/1041/538 586/1036/538
f 526/879/539 527/877/539 575/1042/539 579/1041/539
f 427/1043/540 425/1034/540 546/1035/540 547/1044/540
f 527/877/541 528/875/541 571/1045/541 575/1042/541
f 445/936/542 443/1037/542 555/1038/542 556/937/542
f 463/932/543 461/1039/543 564/1040/543 565/933/543
f 528/875/544 529/873/544 597/1046/544 571/1045/544
f 529/873/545 530/871/545 598/939/545 597/1046/545
f 429/924/546 427/1043/546 547/1044/546 548/925/546
